<?xml version="1.0" encoding="UTF-8"?> <svg xmlns="http://www.w3.org/2000/svg" width="1795" height="256" viewBox="0 0 1795 256" fill="none"><path d="M1067.12 255.891C1065.48 255.921 1063.84 255.943 1062.2 255.961C1061.29 255.974 1060.38 255.987 1059.44 256C1057.01 255.891 1057.01 255.891 1054.76 254.774C1051.51 254.874 1048.31 255.035 1045.07 255.262C1044.17 255.321 1043.27 255.379 1042.34 255.439C1040.12 255.584 1037.89 255.737 1035.66 255.891C1035.66 255.154 1035.66 254.416 1035.66 253.656C1032.97 253.279 1030.28 252.908 1027.59 252.539C1026.83 252.433 1026.08 252.326 1025.3 252.216C1022.02 251.771 1018.89 251.42 1015.58 251.501C1014.79 251.475 1014.01 251.449 1013.2 251.422C1012.26 250.247 1012.26 250.247 1011.3 249.048C1006.98 243.698 1000.63 240.18 994.102 238.016C981.937 237.31 969.793 238.381 957.683 239.455C933.614 241.517 933.614 241.517 925.582 238.016C925.211 236.909 924.841 235.803 924.459 234.664C926.705 232.429 926.705 232.429 929.066 232.29C930.001 232.336 930.937 232.382 931.9 232.429C936.467 232.527 940.195 232.045 944.56 230.79C952.32 228.836 960.385 228.928 968.337 229.008C969.309 229.013 970.281 229.018 971.283 229.023C973.648 229.036 976.012 229.056 978.376 229.078C978.376 228.34 978.376 227.603 978.376 226.843C976.152 226.475 973.928 226.106 971.636 225.726C971.266 224.62 970.895 223.514 970.513 222.375C969.725 222.259 968.938 222.144 968.126 222.025C963.012 220.809 958.976 218.459 954.647 215.532C951.718 213.382 951.718 213.382 949.171 212.878C946.924 212.32 946.924 212.32 943.695 210.155C940.394 207.756 940.394 207.756 937.025 206.873C931.225 204.837 925.303 201.528 921.572 196.57C919.145 193.359 915.775 192.43 912.103 191.093C911.075 190.699 911.075 190.699 910.027 190.298C909.322 190.03 908.617 189.763 907.89 189.487C906.774 189.061 906.774 189.061 905.635 188.627C903.792 187.979 901.92 187.41 900.036 186.89C893.939 185.074 890.594 183.847 887.461 178.175C885.478 174.637 884.576 173.44 880.739 171.899C878.368 171.352 875.981 170.869 873.582 170.463C870.541 169.866 870.541 169.866 867.171 167.631C863.172 167.947 859.513 168.381 855.658 169.447C853.206 169.969 851.61 169.348 849.199 168.748C847.698 169.109 846.201 169.483 844.706 169.866C842.085 169.909 839.463 169.916 836.843 169.866C836.773 170.649 836.704 171.433 836.632 172.24C835.063 177.763 831.452 181.261 826.733 184.389C819.867 184.978 813.892 184.019 807.638 181.038C806.482 179.954 805.353 178.84 804.268 177.686C800.826 175.975 797.755 176.668 793.948 176.918C792.495 177.006 791.043 177.094 789.547 177.184C781.58 178.017 781.58 178.017 775.063 182.155C769.616 182.426 764.7 182.105 759.337 181.038C759.337 181.775 759.337 182.512 759.337 183.272C752.317 185.758 747.68 186.623 740.241 185.507C737.613 186.607 734.992 187.724 732.378 188.858C728.517 188.509 728.517 188.509 725.638 187.741C725.638 190.69 725.638 193.64 725.638 196.679C718.644 198.95 712.732 199.378 705.419 198.215C700.831 197.605 697.397 198.29 693.063 200.03C690.147 202.461 688.443 204.689 686.324 207.851C682.695 208.139 682.695 208.139 678.25 207.99C672.562 207.821 667.182 207.692 661.611 208.968C659.547 212.703 659.547 212.703 658.242 216.788C656.697 219.023 656.697 219.023 654.872 220.14C651.853 219.791 651.853 219.791 649.255 219.023C649.626 217.18 649.997 215.336 650.379 213.437C648.225 213.565 646.072 213.707 643.92 213.856C642.121 213.972 642.121 213.972 640.287 214.091C637.077 214.53 635.207 215.281 632.406 216.788C629.3 216.982 626.629 217.071 623.631 216.191C620.439 215.516 617.682 215.797 614.434 216.09C613.149 216.203 611.865 216.315 610.542 216.431C609.231 216.549 607.921 216.667 606.571 216.788C603.036 217.057 599.501 217.324 595.965 217.591C593.409 217.871 591.069 218.329 588.598 219.023C588.228 217.917 587.857 216.811 587.475 215.671C586.293 215.786 585.112 215.902 583.895 216.02C579.196 216.062 575.766 214.704 571.468 212.878C565.167 210.28 560.273 209.611 553.5 210.107C550.407 210.085 550.407 210.085 547.142 208.994C543.158 207.683 539.921 207.591 535.734 207.641C534.4 207.649 533.067 207.656 531.693 207.663C528.008 207.756 528.008 207.756 524.716 208.492C523.927 208.649 523.138 208.806 522.325 208.968C521.954 208.599 521.583 208.231 521.202 207.851C514.955 207.19 510.745 208.665 505.032 211.124C502.207 212.278 499.433 213.126 496.489 213.926C492.383 215.086 488.82 216.622 485.046 218.604C477.391 222.553 470.111 222.546 461.668 222.375C460.474 220.28 460.474 220.28 459.421 217.906C461.245 214.278 464.761 213.77 468.407 212.32C467.862 207.436 466.344 205.571 462.791 202.265C462.791 201.527 462.791 200.79 462.791 200.03C461.123 200.307 461.123 200.307 459.421 200.589C451.992 201.613 445.648 201.252 438.417 199.476C435.769 198.899 433.195 198.599 430.497 198.355C426.66 197.983 423.649 197.127 420.106 195.561C418.243 195.15 416.372 194.765 414.49 194.444C414.119 193.338 413.749 192.232 413.367 191.093C394.806 189.721 394.806 189.721 377.374 193.393C374.503 194.766 372.702 194.481 369.559 194.095C368.486 193.974 367.413 193.853 366.307 193.729C365.156 193.596 364.005 193.464 362.819 193.327C360.316 193.109 357.812 192.899 355.307 192.699C354.168 192.605 353.028 192.511 351.854 192.415C351.024 192.347 350.195 192.28 349.34 192.21C349.34 192.947 349.34 193.685 349.34 194.444C347.324 194.064 347.324 194.064 345.268 193.676C340.433 193.039 337.891 194.358 333.614 196.679C331.087 196.19 331.087 196.19 329.121 195.561C328.379 196.299 327.638 197.036 326.874 197.796C322.802 197.377 322.802 197.377 319.011 196.679C318.641 195.204 318.27 193.729 317.888 192.21C316.915 192.256 315.942 192.302 314.939 192.349C311.148 192.21 311.148 192.21 307.919 191.093C303.521 189.693 300.023 189.818 295.422 189.975C294.681 187.395 293.94 184.814 293.176 182.155C291.763 182.547 290.349 182.938 288.893 183.342C285.372 184.318 284.434 184.47 280.82 183.272C278.46 183.047 276.095 182.866 273.729 182.714C269.937 182.468 266.298 182.17 262.558 181.492C258.89 180.951 257.231 181.897 253.861 183.272C250.702 182.853 250.702 182.853 248.245 182.155C248.245 179.574 248.245 176.993 248.245 174.334C245.366 174.869 242.488 175.405 239.609 175.94C238.394 176.166 238.394 176.166 237.154 176.397C236.362 176.544 235.569 176.692 234.752 176.844C233.976 176.987 233.199 177.13 232.399 177.277C230.668 177.61 228.947 177.998 227.231 178.402C222.48 179.143 217.965 177.989 213.423 176.569C211.533 175.102 209.66 173.613 207.807 172.1C204.479 171.087 201.128 170.431 197.697 169.866C197.697 170.603 197.697 171.34 197.697 172.1C196.899 172.235 196.101 172.371 195.279 172.51C194.247 172.697 193.215 172.885 192.151 173.078C191.121 173.259 190.092 173.441 189.031 173.627C188.184 173.861 187.337 174.094 186.464 174.334C186.094 175.072 185.723 175.809 185.341 176.569C183.673 177.122 183.673 177.122 181.971 177.686C181.276 178.4 180.581 179.115 179.865 179.851C176.503 183.096 173.506 184.335 168.808 184.49C167.777 184.434 166.746 184.377 165.684 184.32C160.527 184.196 158.246 184.973 153.889 187.741C149.817 187.741 149.817 187.741 146.026 186.624C145.563 185.679 145.1 184.734 144.622 183.761C143.973 182.862 143.325 181.964 142.656 181.038C137.541 180.209 132.432 180.187 127.589 182.12C123.993 183.546 120.666 183.894 116.821 184.32C107.088 185.492 97.4702 187.143 88.3178 190.744C78.0571 194.333 65.6462 192.483 55.0407 191.093C55.0407 191.83 55.0407 192.567 55.0407 193.327C50.2218 193.327 45.4029 193.327 40.4381 193.327C40.4381 194.064 40.4381 194.802 40.4381 195.561C39.0176 195.886 39.0176 195.886 37.5684 196.216C35.7223 196.652 35.7223 196.652 33.8388 197.098C32.6138 197.383 31.3888 197.668 30.1267 197.962C26.8418 198.677 26.8418 198.677 24.7121 201.148C21.7294 201.779 18.7684 201.972 15.7259 202.265C16.0966 203.371 16.4673 204.477 16.8492 205.616C16.9249 207.361 16.9448 209.108 16.9194 210.853C16.9093 211.756 16.8991 212.659 16.8887 213.59C16.8757 214.277 16.8626 214.964 16.8492 215.671C12.4218 216.975 9.04731 216.399 4.49312 215.671C3.01039 215.671 1.52767 215.671 6.67572e-06 215.671C6.67572e-06 179.172 6.67572e-06 142.673 6.67572e-06 105.067C5.00421 103.408 5.00421 103.408 10.1095 101.716C10.8509 101.347 11.5922 100.978 12.3561 100.599C14.8815 100.489 17.4104 100.454 19.9382 100.459C21.2993 100.456 22.6604 100.453 24.0628 100.45C27.7675 100.587 31.1746 101.1 34.8217 101.716C43.1507 102.138 51.0233 101.899 59.1564 100.053C81.5767 95.1681 104.207 98.7872 125.32 106.678C136.619 110.808 147.492 109.59 159.141 108.097C164.632 107.416 169.935 107.139 175.473 107.441C177.769 107.501 177.769 107.501 179.725 105.067C183.029 104.928 183.029 104.928 187.096 105.067C193.66 105.168 199.264 104.557 205.56 102.833C209.501 101.911 211.52 101.446 215.358 102.772C225.367 105.975 237.277 105.171 247.753 105.277C248.581 105.291 249.409 105.306 250.262 105.321C256.199 105.33 262.368 105.123 267.099 101.148C267.573 100.552 268.046 99.9559 268.534 99.3416C271.099 96.5306 271.471 96.1782 275.484 95.6409C278.573 96.1297 278.573 96.1297 280.82 97.2469C281.19 95.4035 281.561 93.5601 281.943 91.6608C292.729 89.2384 301.016 92.7033 311.036 96.4291C313.299 97.2137 315.549 97.8081 317.875 98.3772C319.549 98.9237 319.549 98.9237 321.258 99.4813C321.629 100.587 321.999 101.693 322.381 102.833C324.968 104.485 324.968 104.485 328.138 105.835C329.706 106.568 329.706 106.568 331.306 107.315C334.7 108.602 334.7 108.602 338.291 108.41C344.179 108.422 349.532 109.784 355.237 111.142C356.352 111.399 357.467 111.656 358.616 111.921C362.697 112.87 366.704 113.804 370.682 115.122C375.548 115.621 377.908 115.505 382.143 112.962C383.272 112.039 384.402 111.116 385.566 110.165C391.602 105.296 394.519 103.822 402.274 104.16C408.355 104.22 412.289 103.405 417.623 100.625C421.968 98.6242 426.637 97.9889 431.339 97.2469C431.445 96.5455 431.551 95.8442 431.659 95.1215C432.057 93.9615 432.057 93.9615 432.462 92.778C435.498 91.4058 438.282 90.3869 441.449 89.4264C442.378 89.1124 443.308 88.7985 444.266 88.475C450.988 86.2873 456.859 84.7999 463.774 87.192C469.8 89.1099 475.818 88.868 481.887 87.192C489.025 85.6568 495.798 84.795 503.111 85.1714C504.555 85.2355 505.999 85.2996 507.487 85.3656C510.486 85.509 513.484 85.6631 516.482 85.8195C530.069 86.8372 530.069 86.8372 542.448 82.2619C543.672 81.1387 544.88 79.9965 546.072 78.8391C549.311 76.1991 552.969 75.0067 556.883 73.6283C559.65 72.6745 559.65 72.6745 562.763 70.4338C564.037 70.2955 565.311 70.1573 566.624 70.0148C570.636 69.7169 570.636 69.7169 572.662 67.2218C579.498 60.6168 591.305 60.7288 600.326 59.4821C614.069 57.8655 614.069 57.8655 625.666 51.4412C627.948 50.8128 627.948 50.8128 630.721 50.324C631.73 50.1411 632.74 49.9582 633.78 49.7697C635.324 49.4911 635.324 49.4911 636.899 49.2068C638.748 48.8125 640.597 48.4168 642.445 48.0197C646.536 47.179 650.493 46.7924 654.661 46.5534C659.956 46.1693 662.022 44.7701 666.105 41.3863C667.309 41.5706 668.514 41.755 669.755 41.9449C676.124 42.7895 680.715 39.9633 686.148 36.8465C688.929 35.6452 690.735 35.5884 693.752 35.6999C694.771 35.7244 695.789 35.749 696.839 35.7743C697.933 35.8059 699.027 35.8375 700.154 35.8701C710.657 36.0351 720.69 35.2338 731.073 33.7188C737.396 32.7993 743.616 32.1544 749.999 31.89C756.586 31.5719 762.508 30.5316 768.828 28.6737C771.763 27.9628 774.301 27.8558 777.309 27.9798C777.309 28.7171 777.309 29.4545 777.309 30.2142C788.255 29.1144 788.255 29.1144 798.581 25.6057C805.658 22.4564 813.516 22.6982 821.117 23.5109C821.858 24.2483 822.6 24.9856 823.364 25.7453C827.967 25.5658 831.389 24.7251 835.298 22.3937C838.672 20.4053 840.878 19.5035 844.706 19.0421C844.752 18.3508 844.799 17.6595 844.846 16.9473C845.171 16.1639 845.495 15.3804 845.829 14.5732C846.918 14.2276 848.007 13.8819 849.129 13.5258C850.264 13.1341 851.399 12.7424 852.569 12.3388C852.87 11.4862 853.171 10.6337 853.482 9.75525C855.663 4.84519 860.076 3.1673 864.925 1.16668C868.798 0.357297 872.558 0.178746 876.509 0.119298C877.542 0.0878851 878.575 0.0564717 879.64 0.0241064C888.599 -0.15411 896.978 0.623171 905.512 3.44911C911.112 4.82752 916.464 4.94241 922.212 5.07692C931.292 5.36157 939.996 6.11845 948.973 7.499C953.323 7.95129 957.218 7.47544 961.523 6.86184C964.875 6.69937 966.707 8.2294 969.39 10.1044C970.71 10.2887 972.031 10.4731 973.392 10.663C977.455 11.2509 978.688 12.039 981.746 14.5732C983.597 15.3683 985.466 16.1265 987.362 16.8076C987.362 17.545 987.362 18.2824 987.362 19.0421C988.366 19.0157 988.366 19.0157 989.389 18.9889C992.411 18.9193 995.432 18.8757 998.455 18.8326C999.507 18.8045 1000.56 18.7764 1001.64 18.7475C1003.15 18.7313 1003.15 18.7313 1004.69 18.7148C1006.09 18.6884 1006.09 18.6884 1007.51 18.6616C1008.28 18.7871 1009.04 18.9127 1009.83 19.0421C1010.57 20.1481 1011.31 21.2541 1012.07 22.3937C1015.04 23.0353 1015.04 23.0353 1017.3 23.2316C1020.79 23.6015 1024.25 24.1557 1027.73 24.698C1029.01 24.8953 1030.3 25.0926 1031.62 25.2958C1032.59 25.4442 1033.55 25.5925 1034.54 25.7453C1034.87 26.8111 1035.21 27.8768 1035.55 28.9748C1036.96 32.9509 1037.55 33.8998 1041.28 35.8002C1043.92 36.4086 1046.55 36.9178 1049.23 37.3364C1049.94 37.5668 1050.65 37.7973 1051.39 38.0347C1051.76 39.1407 1052.13 40.2467 1052.51 41.3863C1053.66 41.1098 1053.66 41.1098 1054.83 40.8277C1058.6 40.1899 1062.18 40.1947 1065.99 40.2691C1066.73 41.7438 1067.47 43.2185 1068.24 44.7379C1071.57 44.3693 1074.91 44.0006 1078.35 43.6207C1078.72 44.3581 1079.09 45.0954 1079.47 45.8551C1085.5 46.3544 1088.89 45.447 1094.08 42.3639C1096.95 41.113 1098.84 41.0013 1101.94 41.3863C1104.21 42.8526 1104.21 42.8526 1106.36 44.7379C1110.43 48.0142 1112.43 48.2053 1117.66 48.0896C1118.47 48.9421 1119.28 49.7947 1120.12 50.6731C1124.08 54.4344 1127.37 55.0354 1132.6 56.2592C1135.64 57.0273 1135.64 57.0273 1139.71 58.8427C1142.89 60.1312 1144.73 60.6314 1148.02 60.9288C1154 61.5229 1159.94 62.3318 1165.89 63.1719C1167.48 63.3901 1167.48 63.3901 1169.11 63.6127C1170.12 63.7553 1171.13 63.8978 1172.17 64.0447C1173.08 64.1722 1174 64.2996 1174.94 64.431C1177.2 64.8477 1177.2 64.8477 1179.44 65.9649C1179.44 66.7023 1179.44 67.4397 1179.44 68.1994C1181.24 68.3623 1183.05 68.5252 1184.85 68.6882C1185.97 68.7933 1187.09 68.8984 1188.25 69.0067C1190.55 69.208 1192.86 69.3813 1195.17 69.5217C1201.21 69.9219 1204.57 70.684 1209.77 73.7854C1212.99 74.2021 1216.16 74.4141 1219.4 74.5579C1222.13 74.9026 1222.13 74.9026 1224.37 77.1371C1224.37 78.2431 1224.37 79.3491 1224.37 80.4887C1227.28 82.1063 1229.74 82.9433 1233.01 83.7705C1234.24 84.1622 1235.47 84.554 1236.73 84.9575C1237.1 86.0636 1237.47 87.1696 1237.85 88.3092C1240.31 88.499 1242.77 88.6843 1245.23 88.8678C1246.59 88.9715 1247.96 89.0752 1249.37 89.182C1253.58 89.4963 1253.58 89.4963 1257.82 89.2518C1261.94 89.4505 1262.21 89.927 1264.81 92.778C1267.4 93.1008 1267.4 93.1008 1270.29 92.8478C1277.59 92.6342 1284.62 93.5229 1291.77 95.0124C1292.14 95.3811 1292.51 95.7498 1292.89 96.1297C1302.23 97.4967 1308.56 95.8947 1316.23 90.4956C1319.42 87.7064 1320.83 85.6025 1322.1 81.6059C1323.95 81.9746 1325.81 82.3433 1327.72 82.7231C1327.35 85.3039 1326.97 87.8846 1326.59 90.5436C1330.45 90.3411 1330.45 90.3411 1334.46 89.4264C1335.24 87.9556 1335.99 86.4655 1336.7 84.9575C1341.62 83.6239 1347.74 82.6281 1352.43 84.9575C1353.13 87.8204 1353.13 87.8204 1353.55 90.5436C1354.37 90.5716 1355.18 90.5996 1356.02 90.6284C1359.74 90.7586 1363.45 90.8954 1367.17 91.0324C1368.45 91.0763 1369.74 91.1202 1371.06 91.1655C1372.3 91.2123 1373.55 91.2591 1374.83 91.3073C1376.54 91.3688 1376.54 91.3688 1378.29 91.4314C1381.63 91.6608 1381.63 91.6608 1385.2 92.2805C1389.08 92.8891 1391.77 92.2124 1395.53 91.172C1396.72 90.8509 1397.91 90.5297 1399.14 90.1988C1400.04 89.9439 1400.93 89.689 1401.85 89.4264C1402.22 87.9517 1402.59 86.477 1402.98 84.9575C1407.51 84.9014 1412.04 84.8613 1416.57 84.8348C1418.11 84.8237 1419.64 84.8086 1421.17 84.789C1430.33 84.6751 1439.03 85.0443 1448.05 86.7081C1451.33 87.2823 1451.33 87.2823 1454.92 87.1898C1458.02 87.192 1458.02 87.192 1460.25 88.3354C1463.5 89.9028 1465.96 89.379 1469.53 89.0074C1474.06 88.5793 1478.4 88.2556 1482.95 88.4619C1492.84 89.1185 1492.84 89.1185 1501.61 85.0274C1502.25 84.4182 1502.88 83.809 1503.53 83.1814C1507.04 79.86 1510.96 80.4038 1515.51 80.4887C1521.2 80.5329 1526.55 80.3356 1532.15 79.3715C1532.52 79.0028 1532.89 78.6341 1533.28 78.2543C1535.89 77.8436 1538.51 77.4695 1541.14 77.1371C1542.25 73.8189 1542.25 73.8189 1543.39 70.4338C1544.4 70.526 1545.42 70.6181 1546.47 70.7131C1550.91 70.374 1551.78 69.1945 1554.62 65.9649C1555.36 65.9649 1556.1 65.9649 1556.86 65.9649C1558.69 64.3357 1558.69 64.3357 1560.23 62.6133C1561.66 63.1102 1561.66 63.1102 1563.11 63.6171C1567 64.8559 1570.85 65.8021 1574.84 66.6632C1576.16 66.9541 1577.48 67.245 1578.84 67.5448C1582.47 68.1595 1585.77 68.3217 1589.44 68.1994C1589.82 67.1193 1590.21 66.0391 1590.6 64.9263C1592.81 61.4961 1592.81 61.4961 1596.6 60.44C1598.12 60.3317 1599.64 60.267 1601.16 60.2392C1601.96 60.2071 1602.76 60.175 1603.58 60.1419C1611.64 60.0167 1619.45 61.8289 1626.33 66.1439C1629.34 67.3089 1631.9 67.0479 1635.08 66.8239C1645.57 66.1354 1652.16 68.4324 1661.02 73.8072C1665.16 76.2989 1669.11 77.8845 1673.69 79.3715C1673.69 80.1088 1673.69 80.8462 1673.69 81.6059C1676.4 81.6664 1679.11 81.7106 1681.83 81.7456C1682.98 81.7736 1682.98 81.7736 1684.15 81.8023C1688.36 81.8429 1691.46 81.6947 1695.03 79.3715C1696.7 80.4775 1696.7 80.4775 1698.4 81.6059C1701.01 82.046 1703.63 82.4269 1706.26 82.7231C1707 80.1424 1707.74 77.5616 1708.51 74.9026C1709.99 74.9026 1711.47 74.9026 1713 74.9026C1713 76.0087 1713 77.1147 1713 78.2543C1713.74 78.2543 1714.48 78.2543 1715.25 78.2543C1715.41 77.4017 1715.57 76.5491 1715.74 75.6707C1718.48 70.984 1722.56 70.7051 1727.6 69.3166C1729.22 68.7152 1730.83 68.1101 1732.45 67.5011C1740.04 65.0199 1747.85 64.7347 1755.79 64.9437C1767.72 65.242 1777.65 64.0165 1788.53 58.5503C1791.63 57.0273 1791.63 57.0273 1793.88 57.0273C1794.43 55.9212 1794.43 55.9212 1795 54.7928C1795 83.5499 1795 112.307 1795 141.935C1794.63 141.198 1794.26 140.461 1793.88 139.701C1793 139.908 1792.12 140.116 1791.21 140.329C1788.26 140.818 1788.26 140.818 1786.01 139.701C1785.71 140.335 1785.41 140.968 1785.1 141.621C1783.23 145.194 1780.93 148.426 1778.64 151.746C1776.99 154.152 1776.99 154.152 1775.9 156.655C1774.37 159.435 1772.3 160.261 1769.4 161.391C1765.39 162.449 1761.34 162.63 1757.21 162.818C1754.35 162.918 1754.35 162.918 1752.32 165.397C1747.05 167.312 1743.15 168.149 1737.71 166.514C1735.47 163.162 1735.47 163.162 1735.68 159.741C1736.59 156.459 1736.59 156.459 1739.96 154.225C1741.07 154.225 1742.18 154.225 1743.33 154.225C1744.07 152.381 1744.81 150.538 1745.58 148.639C1744.83 148.639 1744.09 148.639 1743.33 148.639C1743.33 147.901 1743.33 147.164 1743.33 146.404C1739.13 146.961 1736.8 147.382 1733.22 149.756C1731.48 149.998 1731.48 149.998 1729.71 150.245C1726.21 150.751 1723.81 151.388 1720.58 152.619C1714.7 154.701 1709.07 154.535 1702.89 154.225C1702.34 155.884 1702.34 155.884 1701.77 157.576C1701.03 157.945 1700.29 158.314 1699.52 158.694C1698.87 159.961 1698.22 161.228 1697.56 162.534C1695.82 165.628 1695.22 166.413 1691.94 168.12C1687.61 168.866 1683.69 168.899 1679.3 168.748C1678.75 170.407 1678.75 170.407 1678.18 172.1C1674.92 174.265 1672.55 174.524 1668.7 174.265C1664.18 174.161 1661.53 174.694 1657.96 177.686C1656.88 180.906 1656.72 182.935 1656.77 186.275C1656.78 187.178 1656.79 188.081 1656.8 189.011C1656.81 189.698 1656.82 190.385 1656.84 191.093C1653.82 191.931 1653.82 191.931 1650.1 192.21C1646.87 190.255 1646.87 190.255 1644.48 187.741C1644.48 186.635 1644.48 185.529 1644.48 184.389C1642.51 184.518 1640.55 184.66 1638.58 184.808C1637.49 184.886 1636.39 184.964 1635.27 185.044C1632.18 185.499 1630.38 186.362 1627.63 187.741C1618.97 189.214 1610.47 188.845 1601.8 187.741C1601.43 186.635 1601.05 185.529 1600.67 184.389C1595.44 183.479 1590.22 182.787 1584.95 182.155C1584.95 182.892 1584.95 183.63 1584.95 184.389C1581.61 184.021 1578.27 183.652 1574.84 183.272C1574.47 184.747 1574.1 186.222 1573.71 187.741C1572.85 187.257 1572.85 187.257 1571.96 186.763C1567.42 184.681 1562.79 183.471 1557.85 182.783C1554.62 182.155 1554.62 182.155 1552 180.402C1548.35 178.454 1546.78 178.667 1542.75 179.414C1540.99 179.725 1540.99 179.725 1539.2 180.043C1537.99 180.279 1536.77 180.515 1535.52 180.758C1533.7 181.087 1533.7 181.087 1531.85 181.422C1528.57 182.016 1525.31 182.635 1522.04 183.272C1521.01 183.429 1519.98 183.587 1518.91 183.749C1518.09 183.96 1517.27 184.172 1516.43 184.389C1515.65 186.241 1514.91 188.105 1514.18 189.975C1512.06 192.068 1509.82 193.758 1507.44 195.561C1504.91 194.392 1503.04 193.422 1501.05 191.442C1496.95 189.129 1492.83 190.114 1488.34 191.093C1487.97 191.461 1487.6 191.83 1487.22 192.21C1483.74 192.52 1480.25 192.469 1476.76 192.489C1475.79 192.512 1474.81 192.535 1473.81 192.559C1468.47 192.592 1465.48 192.559 1461.39 188.858C1457.36 189.139 1453.98 189.824 1450.15 191.093C1448.55 193.681 1447.09 196.236 1445.66 198.913C1444.54 200.779 1443.42 202.642 1442.29 204.499C1441.55 204.107 1440.81 203.716 1440.04 203.312C1436.4 202.179 1433.87 202.453 1430.14 203.063C1426.75 203.504 1423.43 203.358 1420.02 203.203C1417.49 203.247 1417.49 203.247 1415.05 204.53C1410.84 206.011 1406.99 205.585 1402.62 205.197C1401.79 205.134 1400.96 205.071 1400.1 205.005C1398.06 204.848 1396.03 204.675 1393.99 204.499C1393.25 205.974 1392.51 207.449 1391.74 208.968C1387.29 208.968 1382.85 208.968 1378.26 208.968C1377.52 210.443 1376.78 211.917 1376.02 213.437C1371.48 216.975 1366.72 219.74 1361.06 220.908C1356.93 219.856 1355.37 217.615 1352.43 214.554C1349.15 212.515 1345.76 210.721 1342.32 208.968C1342.32 209.705 1342.32 210.443 1342.32 211.202C1337.39 210.284 1332.57 209.078 1327.72 207.851C1327.35 209.694 1326.97 211.538 1326.59 213.437C1318.03 214.833 1318.03 214.833 1314.24 212.32C1313.72 211.248 1313.72 211.248 1313.18 210.155C1311.75 207.393 1309.98 206.313 1307.5 204.499C1307.5 203.762 1307.5 203.024 1307.5 202.265C1305.83 202.818 1305.83 202.818 1304.13 203.382C1299.95 203.374 1295.79 203.298 1291.62 203.142C1284.67 203.016 1279.3 203.912 1273.87 208.619C1273.47 209.103 1273.08 209.587 1272.68 210.085C1271.75 209.601 1270.83 209.117 1269.88 208.619C1261.81 204.617 1255.82 202.351 1246.84 203.382C1245.97 203.447 1245.11 203.512 1244.22 203.578C1236.15 204.277 1229.06 205.733 1222.13 210.085C1220.95 210.431 1219.76 210.777 1218.55 211.133C1215.26 211.983 1215.26 211.983 1214.12 214.554C1213.8 215.291 1213.48 216.029 1213.14 216.788C1209.64 219.05 1207.01 219.218 1202.89 219.023C1200.01 218.836 1200.01 218.836 1197.42 219.023C1196.67 219.76 1195.93 220.498 1195.17 221.257C1192.77 221.219 1190.37 221.177 1187.98 221.111C1184.84 221.268 1182.43 221.985 1179.46 222.977C1170.84 225.425 1162.59 224.384 1153.77 223.66C1146.55 223.006 1146.55 223.006 1140.04 225.608C1139.33 226.385 1138.61 227.161 1137.88 227.961C1134.16 229.357 1134.16 229.357 1131.14 230.195C1131.14 230.932 1131.14 231.67 1131.14 232.429C1130.42 232.913 1129.71 233.397 1128.97 233.896C1126.06 236.257 1126.09 237.786 1125.53 241.367C1122.42 242.909 1119.99 242.619 1116.54 242.484C1115.64 242.185 1114.73 241.885 1113.8 241.577C1110.32 241.323 1109.9 241.92 1107.27 244.021C1103.38 247.055 1100.58 247.523 1095.72 247.795C1091.49 248.215 1087.55 249.495 1083.49 250.728C1079.6 251.661 1076.37 252.116 1072.73 250.305C1071.25 250.305 1069.77 250.305 1068.24 250.305C1067.87 252.148 1067.5 253.992 1067.12 255.891Z" fill="#D6D3C4"></path></svg> 