<?xml version="1.0" encoding="UTF-8"?> <svg xmlns="http://www.w3.org/2000/svg" width="105" height="56" viewBox="0 0 105 56" fill="none"><path d="M53.4727 1.04113L53.5047 0.0416408L53.4727 1.04113ZM96.7655 54.7176C97.1561 55.1081 97.7892 55.1081 98.1798 54.7176L104.544 48.3536C104.934 47.9631 104.934 47.3299 104.544 46.9394C104.153 46.5489 103.52 46.5489 103.13 46.9394L97.4727 52.5963L91.8158 46.9394C91.4253 46.5489 90.7921 46.5489 90.4016 46.9394C90.0111 47.3299 90.0111 47.9631 90.4016 48.3536L96.7655 54.7176ZM0.972656 35.0335C1.94502 35.2669 1.94492 35.2674 1.94485 35.2677C1.94487 35.2676 1.94483 35.2677 1.94487 35.2676C1.94495 35.2672 1.94516 35.2664 1.9455 35.265C1.94617 35.2622 1.94738 35.2574 1.94912 35.2504C1.95261 35.2364 1.95824 35.2142 1.96613 35.1839C1.98192 35.1232 2.00672 35.0304 2.04135 34.9075C2.11061 34.6618 2.21917 34.2962 2.37351 33.8282C2.68228 32.8919 3.17387 31.5473 3.90013 29.9342C5.35347 26.706 7.74109 22.4145 11.4737 18.1681C18.9127 9.7052 31.7558 1.34484 53.4406 2.04061L53.4727 1.04113L53.5047 0.0416408C31.1895 -0.674356 17.7826 7.96146 9.97157 16.8477C6.07923 21.2758 3.59184 25.7471 2.07643 29.1131C1.31832 30.797 0.802091 32.2074 0.474142 33.2018C0.310131 33.6991 0.193097 34.0927 0.116366 34.3649C0.0779979 34.501 0.0496967 34.6068 0.0306302 34.6801C0.0210966 34.7167 0.0138708 34.7452 0.00884864 34.7653C0.00633753 34.7753 0.00437725 34.7832 0.0029548 34.7891C0.00224357 34.792 0.00166678 34.7943 0.00122281 34.7962C0.001001 34.7971 0.000766726 34.798 0.000656266 34.7985C0.000455517 34.7993 0.00028772 34.8 0.972656 35.0335ZM53.4727 1.04113L53.4406 2.04061C64.2301 2.3868 72.2678 5.80012 78.2792 10.689C84.3042 15.5889 88.3443 22.0131 91.051 28.4432C93.7576 34.8731 95.1153 41.2724 95.795 46.0727C96.1345 48.4705 96.304 50.4632 96.3886 51.8531C96.4308 52.5479 96.4519 53.0916 96.4623 53.4595C96.4675 53.6435 96.4701 53.7834 96.4714 53.8763C96.472 53.9227 96.4724 53.9574 96.4725 53.9799C96.4726 53.9911 96.4726 53.9993 96.4726 54.0045C96.4726 54.007 96.4727 54.0088 96.4727 54.0098C96.4727 54.0103 96.4727 54.0105 96.4727 54.0107C96.4727 54.0107 96.4727 54.0105 97.4727 54.0105C98.4727 54.0105 98.4727 54.0099 98.4727 54.0091C98.4727 54.0085 98.4727 54.0075 98.4727 54.0065C98.4726 54.0043 98.4726 54.0014 98.4726 53.9977C98.4726 53.9904 98.4726 53.9799 98.4725 53.9663C98.4723 53.9393 98.4719 53.8999 98.4712 53.8488C98.4698 53.7465 98.467 53.5967 98.4615 53.4027C98.4505 53.0147 98.4285 52.4494 98.3849 51.7316C98.2976 50.2965 98.1233 48.2502 97.7753 45.7924C97.08 40.8816 95.6877 34.3033 92.8943 27.6672C90.1011 21.0315 85.8911 14.3016 79.5411 9.13735C73.1776 3.96212 64.7152 0.401337 53.5047 0.0416408L53.4727 1.04113Z" fill="#442B18"></path></svg> 