<?xml version="1.0" encoding="UTF-8"?> <svg xmlns="http://www.w3.org/2000/svg" width="121" height="124" viewBox="0 0 121 124" fill="none"><circle cx="61.2021" cy="62.3645" r="55.5" fill="#E0B8B9"></circle><path d="M110.343 71.2215C109.883 73.6421 109.343 76.6784 108.371 78.94C108.357 78.9716 108.344 79.0032 108.33 79.0348C107.937 79.9539 107.486 80.8746 106.902 81.9562C106.827 82.0944 106.75 82.2354 106.67 82.3789C105.962 83.6527 105.058 85.1944 103.692 87.1889C99.1117 93.8749 94.5498 98.3079 93.1294 99.7022C90.2551 102.452 86.7427 104.996 81.4591 107.415C80.9752 107.634 80.4728 107.85 79.9585 108.062C79.5404 108.235 79.1193 108.187 79.0213 107.963C78.9233 107.738 79.1789 107.425 79.5886 107.257C80.0834 107.053 80.5655 106.845 81.0303 106.635C81.0324 106.634 81.0345 106.633 81.0366 106.633C86.2593 104.246 89.6294 101.795 92.396 99.1693C93.8256 97.7743 98.4326 93.3286 103.026 86.5882C104.377 84.6052 105.269 83.0705 105.965 81.8086C106.041 81.6702 106.115 81.5349 106.186 81.4028C106.187 81.3997 106.189 81.3966 106.191 81.3935C106.764 80.3236 107.186 79.4525 107.554 78.5895C107.561 78.5711 107.569 78.5526 107.577 78.5341C108.539 76.2865 109.035 73.3542 109.474 71.0493C109.56 70.609 109.819 70.2838 110.06 70.3268C110.3 70.37 110.431 70.7722 110.343 71.2215ZM12.1157 42.7875C12.7389 40.3165 14.2643 37.2631 15.9484 34.8076C17.6299 32.3187 19.4906 30.3356 20.4096 29.4594C21.3076 28.5989 22.2337 27.5953 23.3782 26.4349C23.6407 26.1691 23.9149 25.8953 24.2017 25.6156C25.1488 24.692 26.2385 23.6989 27.5123 22.7074C32.2114 19.0899 35.6255 17.2921 38.0526 16.023C38.5557 15.7659 39.0261 15.5333 39.4691 15.3215C39.4698 15.3212 39.4706 15.3208 39.4713 15.3205C41.1472 14.5226 42.4336 14.0034 43.6646 13.6649C45.8519 13.0743 47.6765 12.7112 49.8885 12.5242C52.9373 12.2401 57.1658 11.6945 59.9798 11.3657C60.134 11.3459 60.292 11.3256 60.4522 11.3065C60.6943 11.2775 60.9438 11.2495 61.2021 11.2228C63.1233 11.0317 65.4925 10.8726 68.8542 11.1854C72.0183 11.4897 74.7219 12.1917 77.0367 12.9807C77.7025 13.2079 78.33 13.4413 78.9272 13.6748C80.4408 14.2672 81.7609 14.8627 83.0085 15.4206C90.7339 18.9737 94.2965 22.5935 96.3798 24.7907C97.9645 26.5392 98.6574 27.6774 99.1566 28.4864C99.3063 28.7322 99.4357 28.9506 99.5618 29.1519C100.681 30.9489 101.73 32.5444 102.858 34.538C103.107 34.9802 103.359 35.4438 103.612 35.933C104.456 37.5684 105.121 38.7548 105.666 39.6789C105.903 40.0834 106.116 40.4394 106.314 40.7764C106.318 40.7826 106.322 40.7887 106.325 40.7949C106.353 40.8418 106.38 40.8886 106.407 40.9349C106.427 40.9699 106.448 41.0044 106.468 41.0395C106.479 41.0519 106.488 41.0635 106.495 41.0721C106.5 41.0788 106.504 41.0841 106.507 41.0875C106.507 41.0881 106.508 41.0887 106.509 41.0892C106.557 41.1511 106.591 41.2079 106.598 41.2195C106.61 41.2398 106.62 41.2583 106.625 41.2676C106.652 41.317 106.685 41.382 106.706 41.4253C106.761 41.5368 106.855 41.7313 106.994 42.0348C107.124 42.2954 107.256 42.5428 107.417 42.8544C107.428 42.874 107.438 42.8935 107.448 42.9131C107.605 43.2162 107.786 43.573 107.997 44.0288C108.19 44.444 108.173 44.9 107.966 45.0409C107.759 45.1818 107.444 44.9605 107.257 44.5529C107.062 44.1302 106.897 43.8011 106.744 43.5023C106.734 43.4834 106.724 43.4645 106.714 43.4457C106.555 43.1352 106.399 42.84 106.242 42.5204C106.189 42.4133 106.135 42.3026 106.085 42.1991C105.991 42.0151 105.876 41.8091 105.735 41.5648C105.707 41.5158 105.678 41.465 105.649 41.4134C105.456 41.0831 105.228 40.6985 104.975 40.2654C104.382 39.252 103.663 37.9622 102.755 36.2157C102.516 35.7576 102.276 35.3179 102.035 34.8918C100.919 32.9267 99.8104 31.244 98.6284 29.3752C98.4657 29.119 98.3139 28.8686 98.1482 28.6021C97.6532 27.816 97.0631 26.8638 95.6187 25.2786C93.6592 23.2305 90.2526 19.7429 82.7087 16.2581C81.4231 15.6804 80.0379 15.0573 78.5243 14.4685C77.9486 14.2445 77.3528 14.0258 76.7382 13.8163C74.4984 13.0537 71.9255 12.3863 68.9229 12.088C65.4894 11.7599 63.1378 11.9336 61.2021 12.1302C61.0741 12.1438 60.9481 12.1577 60.8238 12.1718C60.7545 12.18 60.6852 12.1883 60.616 12.1967C60.5301 12.2069 60.4449 12.2172 60.3605 12.2276C57.4083 12.5563 52.9905 13.1223 49.6807 13.4496C47.6005 13.6382 45.8859 13.9823 43.7501 14.5657C42.6964 14.8603 41.6152 15.2912 39.9972 16.0534C39.5441 16.2681 39.0496 16.5095 38.5037 16.7878C36.0741 18.0547 32.6674 19.8491 28.0007 23.4521C26.7895 24.398 25.7643 25.3314 24.8378 26.2336C24.55 26.514 24.2706 26.7923 23.9992 27.0673C22.8682 28.2135 21.854 29.3157 20.8388 30.2999C20.0031 31.1055 18.2376 32.9967 16.6329 35.3804C15.0048 37.7677 13.6399 40.5504 13.0851 42.6829C13.0266 42.904 12.9685 43.1271 12.9123 43.3503C12.4247 45.2732 12.0612 47.2526 12.0619 48.8951C12.4171 52.6531 12.0177 57.3833 12.0972 62.3645C12.1382 67.3856 12.7162 72.5744 13.8469 76.5652C13.8757 76.6692 13.9049 76.773 13.9344 76.8767C16.5752 86.0701 21.1328 91.6341 22.5657 93.4494C22.6352 93.535 22.6987 93.6126 22.7559 93.6823C22.807 93.7445 22.8537 93.8003 22.8946 93.8498C23.509 94.5919 24.0936 95.2134 24.7206 95.8482C24.7548 95.8828 24.7891 95.9174 24.8235 95.9519C25.4889 96.6203 26.2004 97.3057 27.0417 98.1147C30.1792 101.119 33.1178 103.14 35.7495 104.683C36.2374 104.968 36.7167 105.237 37.1886 105.492C37.19 105.493 37.1914 105.493 37.1928 105.494C39.2628 106.608 41.1717 107.455 43.005 108.185C46.358 109.505 48.7515 110.036 50.6012 110.39C51.1859 110.499 51.7224 110.586 52.2312 110.661C53.3336 110.823 54.2977 110.93 55.2931 111.038C57.1675 111.239 58.902 111.281 60.6089 111.243C60.7615 111.24 60.914 111.236 61.0665 111.231C61.1117 111.23 61.1569 111.228 61.2021 111.227C63.0131 111.164 64.7868 111.014 66.6533 110.806C67.0983 110.757 67.4907 110.906 67.5319 111.148C67.5726 111.389 67.2395 111.633 66.7856 111.684C64.8935 111.896 63.0915 112.051 61.2023 112.116C61.2022 112.116 61.2022 112.116 61.2021 112.116C61.0461 112.121 60.8895 112.127 60.7327 112.13C58.9984 112.173 57.201 112.132 55.2578 111.926C54.2798 111.821 53.3544 111.72 52.2525 111.562C51.7273 111.486 51.1677 111.398 50.5393 111.282C48.6255 110.92 46.1566 110.376 42.7087 109.021C40.8644 108.288 38.9444 107.44 36.8369 106.31C36.353 106.05 35.8597 105.775 35.3566 105.482C32.6689 103.91 29.6599 101.846 26.4472 98.7733C25.6379 97.9956 24.9497 97.336 24.2739 96.6604C24.2361 96.6224 24.1984 96.5843 24.1607 96.5461C23.5267 95.9071 22.8963 95.2418 22.2352 94.4441C22.147 94.3376 22.035 94.2011 21.901 94.0362C20.4396 92.1872 15.7761 86.5048 13.0795 77.1099C13.0714 77.081 13.0633 77.052 13.0553 77.0231C11.3392 70.7371 11.2699 67.0412 10.9035 64.2943C10.8225 63.6034 10.7703 62.9618 10.738 62.3645C10.6693 61.0815 10.6882 60.0388 10.7317 59.1145C10.744 58.8574 10.7574 58.6145 10.7723 58.3834C10.8373 57.3872 10.9134 56.5981 10.9531 55.8054C11.0836 53.4104 11.1259 51.6637 11.0925 49.4753C11.0686 47.6102 11.4673 45.3922 11.944 43.4686C11.9448 43.4657 11.9455 43.4628 11.9462 43.4599C12.0023 43.2314 12.0593 43.0067 12.1157 42.7875ZM110.567 50.1805C110.671 50.634 110.554 51.044 110.315 51.0937C110.075 51.143 109.805 50.8203 109.703 50.3758C109.459 49.3146 109.18 48.257 108.867 47.2131C108.735 46.7743 108.81 46.3612 109.043 46.2867C109.276 46.2127 109.581 46.5133 109.716 46.9613C110.035 48.0237 110.319 49.1005 110.567 50.1805ZM7.24836 43.2018C7.37223 42.7036 7.69792 42.2776 7.96301 42.2547C8.22801 42.2322 8.33201 42.6131 8.20653 43.1028C8.14044 43.3617 8.03689 43.7891 7.90932 44.3667C7.24799 47.3018 6.01394 54.2299 6.60051 62.3645C6.82416 65.7006 7.32439 69.2205 8.11897 72.7197C8.34788 73.7292 8.58547 74.6348 8.82839 75.4821C9.94894 79.0979 11.2769 81.8725 14.6145 88.1623C23.6023 104.822 41.9212 116.324 61.2021 116.294C72.4436 116.419 83.7188 112.744 92.6073 105.934C99.5529 100.646 105.271 93.8462 109.143 86.0549C112.829 79.7208 115.437 66.4523 115.171 63.2557C115.187 62.7602 115.39 62.36 115.635 62.3646C115.879 62.3693 116.072 62.784 116.056 63.2884C116.324 66.512 113.694 79.9584 109.972 86.3795C106.054 94.2913 100.266 101.198 93.2308 106.576C84.1854 113.533 72.7468 117.451 61.2021 117.513C41.5057 117.894 22.2053 106.398 12.8804 89.0777C9.44522 82.5829 9.15155 79.4936 8.01172 75.8576C7.76209 74.9949 7.51675 74.072 7.27921 73.0351C6.4507 69.4244 5.93243 65.7939 5.70338 62.3645C5.12938 54.3494 6.29149 47.5238 6.9422 44.5402C7.07202 43.9337 7.17894 43.4804 7.24836 43.2018ZM20.2809 22.8715C24.2204 18.5814 30.9986 13.5896 37.6492 10.7586C40.8688 9.33912 43.995 8.3468 46.5213 7.69459C50.4491 6.6961 53.0166 6.56539 55.5322 6.50869C55.559 6.50819 55.5859 6.50771 55.6127 6.50725C57.3154 6.48563 59.0143 6.52016 61.2021 6.60284C62.2394 6.64392 63.3666 6.69861 64.6641 6.78825C68.7288 7.04911 74.3608 7.80272 79.8053 9.59366C79.8095 9.59515 79.8138 9.59663 79.818 9.59811C85.228 11.3199 90.6303 13.7009 94.0447 16.2078C105.953 25.0823 109.506 34.0951 111.093 38.1634C113.8 45.473 116.757 54.1019 115.684 62.1039C115.447 62.975 114.795 61.5086 114.917 59.9356C114.92 59.8786 114.923 59.8215 114.925 59.7644C114.95 59.219 114.963 58.736 114.944 58.064C114.894 57.0932 114.816 56.3707 114.737 55.7125C114.844 53.9358 112.034 42.1768 110.157 38.2199C108.623 34.3978 104.386 26.3495 92.8737 17.7806C89.6655 15.4286 85.0215 12.2077 79.635 10.473C79.6204 10.4682 79.6058 10.4634 79.5912 10.4586C74.2761 8.70108 68.6829 7.934 64.615 7.67373C63.3427 7.58552 62.2292 7.53128 61.2021 7.49112C58.9089 7.40564 57.145 7.376 55.4155 7.40437C55.391 7.40472 55.3665 7.40509 55.3421 7.40547C52.8904 7.46953 50.4777 7.60369 46.7557 8.54878C44.2144 9.20421 41.1033 10.1986 37.9165 11.6104C31.4054 14.3998 24.8279 19.2478 20.975 23.4278C20.6229 23.7997 20.1854 23.985 19.9906 23.8349C19.7965 23.6849 19.9232 23.2507 20.2809 22.8715ZM16.4002 18.9427C27.2915 6.19383 44.7361 -0.933242 61.2021 0.0985363C62.4424 0.163376 63.6604 0.267797 64.882 0.411685C69.462 0.685793 75.8392 1.77287 81.8395 4.00182C81.9071 4.02689 81.9747 4.05208 82.0422 4.07738C87.991 6.24728 93.441 9.47046 97.0638 12.1326C110.002 21.7774 114.327 31.384 116.114 35.8667C117.668 40.2178 117.99 41.4314 118.614 43.2079C118.63 43.2566 118.646 43.3054 118.661 43.3542C118.663 43.3572 118.665 43.3602 118.667 43.3632C118.698 43.4209 118.721 43.4704 118.732 43.4961C118.755 43.5483 118.772 43.5917 118.778 43.608C118.792 43.6456 118.803 43.6775 118.807 43.6889C118.822 43.7352 118.839 43.7886 118.85 43.8231C118.95 44.1453 119.236 45.152 119.424 45.9628C119.617 46.7929 119.722 47.395 119.821 48.0251C119.831 48.0891 119.841 48.1531 119.851 48.2171C119.938 48.7869 120.028 49.4084 120.153 50.3029C120.228 50.8452 120.077 51.2682 119.827 51.2469C119.577 51.2248 119.321 50.7773 119.245 50.2423C119.113 49.315 119.015 48.6647 118.927 48.1012C118.917 48.0387 118.907 47.9762 118.897 47.9137C118.801 47.3206 118.706 46.7938 118.536 46.0699C118.268 45.0273 118.027 44.2638 117.798 43.5675C117.164 41.7546 116.791 40.3733 115.163 35.8891C113.452 31.7229 109.372 22.4445 96.5533 12.8565C92.9763 10.2266 87.5979 7.04696 81.7398 4.90993C81.6713 4.88467 81.6028 4.85953 81.5342 4.83451C75.6171 2.63687 69.3409 1.56701 64.8361 1.29625C63.6228 1.21625 62.4203 1.17494 61.2021 1.17084C44.7875 1.08546 29.0029 8.0589 17.0998 19.4937C14.8441 21.865 12.9569 24.1918 11.3461 26.4439C6.63777 33.0947 4.15325 39.0008 2.93639 44.8022C2.6874 46.0738 1.78412 49.3648 1.24931 54.2165C1.09458 55.6394 0.974225 57.1967 0.919936 58.8913C0.884729 59.9966 0.877861 61.1481 0.908149 62.3645C0.991373 65.6892 1.35798 69.3969 2.20348 73.3432C2.4443 74.4658 2.69575 75.4737 2.95454 76.4195C4.14888 80.4368 5.01324 83.6869 8.69821 90.7955C12.9424 99.7965 25.0534 111.657 33.1432 115.545C37.0514 117.682 39.4151 118.597 41.068 119.268C41.53 119.451 41.9386 119.608 42.3155 119.748C43.3029 120.114 44.0698 120.379 45.096 120.685C50.7993 122.333 55.3944 122.894 61.2021 122.814C62.9404 122.778 64.7737 122.664 66.7806 122.43C67.3244 122.367 67.825 122.5 67.8938 122.738C67.9635 122.976 67.5649 123.232 67.0128 123.298C64.9243 123.546 63.0138 123.666 61.2021 123.703C55.3405 123.781 50.6339 123.212 44.8124 121.526C43.7258 121.201 42.8918 120.911 41.8739 120.531C41.4975 120.389 41.0973 120.235 40.6531 120.059C39.0042 119.385 36.6322 118.465 32.6879 116.306C24.4952 112.363 12.2287 100.345 7.93047 91.2401C4.22428 84.0982 3.35685 80.8649 2.13897 76.8057C1.87357 75.8457 1.61333 74.8164 1.36432 73.6689C0.482785 69.6017 0.103158 65.7798 0.0189044 62.3645C-0.0101549 61.1832 -0.00450278 60.0609 0.0275298 58.9866C0.0792187 57.268 0.197346 55.6938 0.350714 54.2541C0.899885 49.2311 1.77214 46.096 1.97583 44.9868C3.20949 38.8879 5.85037 32.6342 10.6882 25.8384C12.3083 23.5815 14.1884 21.2738 16.4002 18.9427ZM96.2914 111.677C95.8477 112.009 95.3441 112.125 95.1741 111.945C95.0042 111.765 95.2262 111.362 95.6632 111.037C97.9716 109.313 99.5136 107.929 100.694 106.828C102.861 104.771 103.826 103.699 105.288 102.111C109.039 97.9882 112.04 93.4624 114.228 89.1413C117.895 81.9442 119.282 75.4225 119.882 72.0151C119.978 71.4763 120.242 71.0743 120.484 71.1147C120.725 71.1555 120.85 71.6303 120.753 72.1779C120.147 75.6115 118.754 82.1819 115.057 89.4651C112.84 93.8591 109.792 98.4734 105.964 102.686C104.526 104.249 103.603 105.278 101.46 107.327C100.267 108.447 98.6928 109.875 96.2914 111.677Z" fill="#E0B8B9"></path><path d="M86.487 62.5663C87.793 63.3585 87.7648 65.263 86.4359 66.0162L48.3433 87.6067C46.9985 88.3689 45.3344 87.3827 45.3573 85.8371L46.0131 41.538C46.036 39.9925 47.7286 39.056 49.0502 39.8576L86.487 62.5663Z" fill="#F3F2EE"></path><path d="M84.526 69.2275C82.0696 71.0216 80.092 71.7155 77.6241 73.0462C72.1915 75.9759 65.1698 80.0903 59.6746 83.1943C56.1978 85.1581 52.6681 87.1376 49.1849 89.0916C47.9432 89.8272 46.2135 89.6869 45.104 88.7978C44.7508 88.5216 44.6074 88.2856 44.4814 88.1293C44.0432 87.59 43.6743 86.7154 43.6936 85.8125C43.6977 84.9485 43.6989 84.011 43.7117 83.3587C43.7544 81.1897 43.8043 77.4153 43.8697 75.4292C43.8974 74.5857 43.9165 73.7204 44.0126 73.3939C44.0218 73.0857 43.9419 72.9162 43.9386 72.8356C43.9387 72.8347 43.9388 72.8338 43.9389 72.8329C43.9288 72.5734 43.9963 71.9196 43.9948 71.7751C43.9946 71.7534 43.9329 71.8856 43.9561 71.5353C43.9581 71.5041 43.9983 71.5335 44.0032 71.2384C44.0045 71.1616 43.9569 70.1736 43.9573 69.8914C43.9588 68.9525 44.0408 66.7113 44.0566 65.5889C44.0591 65.4172 44.0369 65.318 44.0391 65.1367C44.0403 65.0431 44.0681 64.9031 44.0684 64.8743C44.0694 64.748 43.9605 64.1946 44.1885 64.396C44.1824 63.8199 44.1035 63.9884 44.0541 63.9747C44.0562 63.3494 44.1695 63.0496 44.0566 62.8846C44.116 59.8102 44.1755 56.7358 44.2349 53.6614C44.2161 53.6602 44.1973 53.6591 44.1785 53.6579C44.267 52.7527 44.1446 52.44 44.2613 51.9242C44.2421 51.6049 44.2228 51.2855 44.2035 50.9661C44.2787 47.8117 44.3298 44.6598 44.3712 41.5137C44.2909 38.8226 47.6635 36.9509 49.9078 38.4437C53.0101 40.3106 56.1064 42.1687 59.1815 44.0341C59.474 44.2115 59.5263 44.29 60.0086 44.5829C60.5411 44.9063 61.3145 45.321 62.0162 45.7473C62.6318 46.1212 63.5207 46.7047 64.2043 47.1263C64.3587 47.2214 64.4839 47.2677 64.5013 47.2784C64.6034 47.3415 64.5877 47.379 64.6867 47.4403C64.8051 47.5136 64.9643 47.5755 65.1009 47.6605C65.6115 47.9779 66.1769 48.3089 66.2417 48.349C66.5532 48.5424 66.602 48.6179 66.6276 48.6339C66.9738 48.8495 66.8615 48.7399 66.9472 48.7944C67.3922 49.077 67.6649 49.3458 68.3258 49.6475C68.292 49.6653 68.2582 49.6832 68.2244 49.701C68.687 50.0032 68.4203 49.7395 68.525 49.7845C68.5674 49.8034 69.5781 50.429 69.6557 50.4778C69.9257 50.6482 69.9105 50.6899 69.9337 50.7048C69.9905 50.7408 70.7029 51.1151 71.0353 51.3612C71.4284 51.6524 70.8921 51.4308 70.9869 51.5078C71.0029 51.5208 71.4438 51.7776 71.4879 51.8368C71.5371 51.9015 71.1603 51.6722 71.1596 51.6865C71.1592 51.6963 71.7535 52.1288 71.6119 52.0913C71.4939 52.0683 70.672 51.5075 70.4819 51.415C70.4505 51.3998 70.4799 51.4776 70.4526 51.4632C70.3434 51.405 68.3852 50.219 68.3 50.1575C68.4141 50.1993 68.5281 50.2412 68.6421 50.2831C68.5078 50.1988 68.3735 50.1146 68.2392 50.0304C68.4416 50.1313 68.644 50.2321 68.8464 50.333C68.6598 49.9949 67.6962 49.6384 67.6108 49.6989C67.5724 49.7275 68.0405 50.145 67.5153 49.9042C67.584 49.9592 67.6527 50.0142 67.7214 50.0692C67.8848 50.1464 68.0483 50.2237 68.2117 50.3009C68.1155 50.2287 68.0192 50.1565 67.9229 50.0843C67.9675 50.0958 68.0121 50.1072 68.0567 50.1187C68.3552 50.2747 68.6537 50.4308 68.9522 50.5868C69.0949 50.6848 69.0437 50.6999 69.1413 50.768C70.3582 51.6184 69.5953 51.0128 70.4155 51.5309C70.5229 51.6208 70.6303 51.7107 70.7378 51.8007C70.7414 51.7005 71.0802 51.9703 71.5441 52.2075C71.4763 52.1995 71.4085 52.1915 71.3408 52.1835C71.9922 52.5611 73.2228 53.4745 72.9518 53.1274C73.0923 53.2282 73.2329 53.3291 73.3734 53.4299C73.5112 53.4836 73.649 53.5373 73.7868 53.591C73.9574 53.6979 74.128 53.8048 74.2986 53.9118C74.2922 53.9241 74.2858 53.9364 74.2794 53.9487C74.1421 53.8655 74.0048 53.7823 73.8675 53.6991C73.9487 53.7976 74.0298 53.8962 74.111 53.9947C74.2159 54.0502 74.3208 54.1056 74.4257 54.1611C74.0215 53.8693 74.6155 54.1534 74.78 54.1881C75.1488 54.3877 75.3402 54.5883 75.4586 54.664C75.5143 54.6995 76.2454 54.994 75.9121 54.9556C76.2631 55.1486 76.6141 55.3416 76.9651 55.5347C77.0934 55.625 77.2216 55.7154 77.3498 55.8057C77.0256 55.6853 77.8264 56.263 77.1924 55.9101C76.7189 55.6466 76.6365 55.5253 76.4166 55.3924C76.2184 55.2725 76.0924 55.2441 75.8759 55.115C74.4206 54.2457 73.2439 53.5231 71.8768 52.6726C71.6067 52.5045 71.3489 52.3717 71.1677 52.2585C70.9632 52.1306 71.2483 52.2433 70.979 52.0946C70.6962 51.9386 70.6147 51.9383 70.5414 51.8948C70.4958 51.8678 70.3717 51.7482 70.2395 51.668C69.696 51.3383 68.8806 50.8865 68.8034 50.8395C68.7164 50.7862 67.197 49.8246 67.1266 49.7747C67.0894 49.7481 67.2428 49.6778 66.8268 49.5996C66.7197 49.5379 66.6125 49.4761 66.5054 49.4144C66.537 49.4009 66.5686 49.3874 66.6002 49.3739C65.9192 49.0846 66.1652 49.1646 65.5574 48.8056C64.1017 47.946 61.9819 46.6327 60.3961 45.6823C60.042 45.4701 59.8901 45.4171 59.4713 45.1659C59.0823 44.9324 58.121 44.2326 58.2696 44.4844C57.4684 43.8585 57.2227 43.9507 56.8573 43.5785C56.7953 43.5628 56.7333 43.5471 56.6713 43.5314C56.2439 43.1782 56.0625 43.1507 55.5453 42.8484C55.3224 42.7181 55.6211 42.7994 55.1263 42.6105C55.0448 42.5528 54.9634 42.4951 54.882 42.4374C54.9125 42.4318 54.943 42.4261 54.9735 42.4204C54.47 42.1348 54.4437 42.1062 54.46 42.2066C54.2284 42.0497 53.9969 41.8927 53.7653 41.7358C53.7225 41.7395 53.6796 41.7432 53.6368 41.7469C53.7261 41.8578 59.1875 45.0852 59.9549 45.5235C60.8109 46.1099 62.6277 47.1279 63.3362 47.5736C63.6197 47.7521 63.7165 47.8779 64.1296 48.1366C64.5427 48.3952 65.094 48.6687 65.3168 48.8016C66.0592 49.2444 69.5547 51.3781 67.1363 49.9947C67.1902 50.0601 67.2442 50.1256 67.2981 50.1911C68.294 50.6834 67.9208 50.5258 68.7009 51.0106C69.0293 51.2147 69.8478 51.6381 69.738 51.7202C69.1119 51.3681 68.4809 50.9378 67.9461 50.6155C67.8931 50.5836 67.231 50.2499 66.914 50.0391C66.6281 49.8489 66.8929 49.8678 66.184 49.5969C65.7788 49.1956 65.4421 49.1325 65.3102 49.0675C65.0823 48.9552 65.0926 48.8847 64.8802 48.7469C64.6488 48.5967 64.464 48.5356 64.4317 48.5163C64.1079 48.3211 62.4214 47.305 62.358 47.2356C62.4317 47.2667 62.5054 47.2978 62.5791 47.3289C62.1517 47.0477 62.2082 47.1605 62.0891 47.0976C62.0037 47.0455 61.9182 46.9933 61.8327 46.9412C61.8739 46.9499 61.915 46.9586 61.9562 46.9673C61.4383 46.6566 61.8083 46.9376 61.076 46.4919C60.6111 46.2089 60.158 45.8719 60.1107 45.8478C60.0968 45.8407 60.2247 45.9602 60.0325 45.8492C59.7144 45.6655 59.1719 45.3354 59.1364 45.2569C58.9791 45.1695 58.9674 45.2182 58.9464 45.2067C58.8547 45.1565 57.3099 44.2384 57.0331 44.0738C56.2664 43.6178 55.4226 43.0941 54.5921 42.5997C54.5067 42.5489 54.5768 42.5556 54.4912 42.5048C54.3537 42.4232 53.6271 42.0386 53.5205 41.9779C53.2545 41.8263 52.5762 41.3926 52.4607 41.3388C52.4442 41.3311 52.6493 41.5039 52.3778 41.3542C52.0765 41.188 52.2636 41.2365 52.2479 41.2263C51.6594 40.8471 51.2616 40.6509 50.8492 40.4095C50.7156 40.3313 50.493 40.1473 50.2998 40.0446C50.2776 40.0327 50.3001 40.0917 50.278 40.0805C49.9852 39.9266 49.7583 39.705 49.6386 39.6269C49.3456 39.4359 49.4809 39.58 49.4651 39.5708C49.411 39.5385 49.3526 39.5018 49.2902 39.4619C49.0859 39.332 48.8178 39.2004 48.5023 39.1383C46.9689 38.8427 45.5588 40.0222 45.5502 41.5312C45.5451 41.8625 45.5396 42.2051 45.5335 42.5657C45.53 42.7764 45.4889 43.026 45.4884 43.0582C45.4872 43.1579 45.5315 43.13 45.5263 43.4181C45.515 44.0255 45.5088 44.5886 45.4991 45.19C45.4971 45.3111 45.4556 45.3621 45.4534 45.4544C45.4463 45.764 45.5372 46.8216 45.4044 46.8369C45.5126 47.4533 45.4054 47.86 45.3992 48.3546C45.3844 49.5262 45.3812 51.3611 45.3487 52.5289C45.3418 52.7748 45.3061 52.8896 45.3022 53.0264C45.2952 53.2717 45.2934 54.6745 45.287 54.7478C45.2746 54.8917 45.1263 54.8031 45.2457 55.5457C45.2485 55.9801 45.1879 55.9279 45.1832 56.0176C45.1482 56.7171 45.2752 57.4 45.1515 57.2709C45.1735 58.0863 45.2351 58.6154 45.1128 58.9462C45.1701 58.9427 45.1988 59.3264 45.1702 59.788C45.0809 59.3137 45.0186 59.3713 45.0531 58.2278C45.0536 58.2098 45.0946 58.2448 45.0951 58.2268C45.1003 58.0635 45.0845 57.7225 45.0908 57.4441C45.0972 57.1658 45.1232 57.3208 45.1243 57.2093C45.1253 57.1073 45.0856 57.1101 45.0872 56.9624C45.0928 56.4835 45.0881 56.0595 45.0914 55.787C45.0936 55.6154 45.1312 55.4238 45.1332 55.2905C45.1405 54.7755 45.1295 53.6838 45.143 53.0285C45.1459 52.8919 45.1842 52.9498 45.1918 52.6511C45.1927 52.6162 45.1538 52.4884 45.1493 52.2267C45.1447 51.965 45.1679 51.7624 45.1662 51.5943C45.1648 51.4538 45.1277 51.512 45.1297 51.224C45.1314 50.9839 45.1977 48.2651 45.2057 48.1175C45.2172 47.9052 45.2695 47.805 45.2652 47.6753C45.2642 47.6525 45.2157 47.6131 45.2134 47.534C45.1746 46.2295 45.2843 43.345 45.306 41.8553C45.3076 41.7458 45.3091 41.6365 45.3107 41.5276C45.2632 39.4891 47.7786 38.1504 49.4229 39.2431C50.7162 40.0174 52.0129 40.7921 53.3654 41.6057C53.4177 41.6275 53.47 41.6492 53.5224 41.671C53.251 41.506 52.9796 41.341 52.7083 41.176C52.7185 41.1552 52.7288 41.1344 52.739 41.1136C52.3739 40.8878 52.3941 40.964 52.3874 40.9985C52.2588 40.9041 52.1302 40.8098 52.0016 40.7154C51.8427 40.7132 50.9645 40.1178 50.4974 39.8346C50.1936 39.6504 49.8162 39.4574 49.6573 39.3582C49.5557 39.2948 49.488 39.2472 49.4423 39.2112C49.2937 39.1044 49.3013 39.086 49.2748 39.0708C49.2197 39.0242 48.4739 38.7612 47.9155 38.8102C47.1288 38.9053 46.9262 38.8136 46.0975 39.5646C45.5711 40.027 45.2209 40.7752 45.2191 41.5263C45.2113 42.0911 45.2096 42.6667 45.2045 43.2342C45.1371 43.0211 45.1891 44.0204 45.1813 44.4706C45.1338 47.217 45.0536 50.5923 44.9846 53.3744C44.9757 53.7319 44.9302 54.0015 44.9286 54.2008C44.9277 54.3088 44.976 54.3567 44.9673 54.5066C44.9657 54.533 44.9196 54.5506 44.9086 54.8298C44.8809 55.5246 44.9318 57.257 44.8374 57.6939C44.8158 60.0704 44.7942 62.447 44.7726 64.8235C44.753 64.8829 44.7334 64.9423 44.7138 65.0017C44.8027 65.4546 44.7201 67.2384 44.7117 68.1088C44.6971 69.6406 44.6979 71.5954 44.6813 72.9376C44.6777 73.2292 44.647 73.4678 44.6434 73.7438C44.642 73.8626 44.675 74.0108 44.6733 74.1344C44.6554 75.5221 44.5914 77.4005 44.5715 78.799C44.5376 81.1869 44.5011 83.4701 44.4655 85.8239C44.4252 86.941 45.1496 88.0807 46.2092 88.5213C47.0172 88.8834 48.0239 88.8259 48.7823 88.3814C57.6652 83.3354 66.4839 78.2854 75.3112 73.3048C75.4367 73.234 75.4504 73.2728 75.5477 73.218C76.122 72.8947 77.386 72.1399 78.0345 71.7745C78.5512 71.4833 79.4006 71.0729 79.5475 70.9181C77.668 71.875 75.7349 72.9788 73.8137 74.0375C73.6771 74.1127 73.6413 74.0888 73.6242 74.0977C73.3087 74.2612 73.5299 74.1967 73.0831 74.4527C72.9337 74.5382 71.4902 75.2153 71.715 75.2283C71.3597 75.3735 69.013 76.6756 68.5704 76.945C68.436 77.0269 68.5507 77.0035 68.5245 77.0204C68.4105 77.0942 68.3326 77.081 68.2265 77.1396C67.944 77.2962 67.2494 77.7364 67.1135 77.8131C66.8009 77.9898 65.8442 78.4853 65.4364 78.7275C65.0626 78.9494 65.1591 78.9546 64.8346 79.1441C64.5787 79.2933 64.8377 79.0961 64.256 79.4106C63.9676 79.5666 62.9857 80.1592 62.7433 80.2966C62.501 80.4339 62.216 80.5596 61.883 80.7511C61.4032 81.0269 60.3645 81.6356 59.8795 81.922C59.8505 81.9391 59.7992 82.0148 59.7267 82.0549C59.5766 82.138 59.5968 82.069 59.4815 82.1285C59.3663 82.188 57.4159 83.3004 57.0839 83.488C56.8551 83.6173 56.7119 83.7328 56.5854 83.8042C56.4861 83.8602 56.4549 83.8299 56.3535 83.8868C56.3222 83.9046 56.0735 84.0872 55.8067 84.2374C55.5547 84.3793 54.5822 84.8909 54.4713 84.9533C54.3992 84.994 54.4928 84.9751 54.2794 85.0952C54.0849 85.2046 53.9383 85.2434 53.8274 85.3057C53.5699 85.4502 53.299 85.6414 53.0266 85.796C52.2435 86.2404 52.2603 86.176 52.2125 86.2013C52.0801 86.2714 52.0494 86.339 52.0071 86.3641C51.8283 86.4696 51.3896 86.7275 51.2294 86.8203C51.0299 86.9358 50.9245 86.9478 50.7114 87.0684C50.5526 87.1585 50.2518 87.3754 49.8905 87.5825C49.5196 87.7952 49.117 88.0265 48.7126 88.2583C48.0593 88.6447 47.2123 88.7148 46.5581 88.502C46.1988 88.3828 46.1712 88.3057 46.0703 88.2556C45.5522 87.9618 45.3124 87.7083 45.201 87.5771C44.8777 87.1848 44.6012 86.5124 44.6355 85.8265C44.6664 85.1046 44.7019 84.3495 44.7125 83.8596C44.7197 83.5199 44.7111 82.0321 44.729 81.1931C44.731 81.0971 44.7594 81.1874 44.7563 81.0805C44.7489 80.8248 44.6881 80.8476 44.6918 80.718C44.6938 80.6555 44.73 80.5134 44.7361 80.3313C44.7677 79.3868 44.7508 78.7367 44.759 78.3058C44.8379 74.167 44.9163 69.9467 44.9788 66.0814C44.9858 65.6505 44.9577 65.1155 45.0023 64.4654C45.0214 64.4457 45.0404 64.4259 45.0595 64.4062C45.0414 64.3831 45.0233 64.3601 45.0051 64.337C45.006 63.5999 44.9864 63.3211 45.0211 62.5688C45.024 62.504 45.1127 62.3074 45.008 62.1834C45.0962 61.4391 45.0123 61.847 45.0133 61.2935C45.0143 60.74 45.0461 60.2027 45.0594 59.6662C45.1019 59.3727 45.1717 60.6081 45.1702 60.6885C45.168 60.8181 45.113 60.9519 45.1083 61.0766C45.0944 61.4461 45.1312 61.8042 45.0827 61.8864C45.1256 62.3648 45.1094 61.7698 45.1536 61.8301C45.1302 62.1487 45.1069 62.4672 45.0835 62.7858C45.2343 62.9505 45.0085 64.7092 45.1269 64.5885C45.1015 64.7283 45.0761 64.8681 45.0506 65.0078C45.1879 65.6245 45.0795 65.9844 45.0238 66.8035C45.0434 66.7446 45.063 66.6857 45.0826 66.6269C45.0901 66.6438 45.1094 67.3676 45.0335 67.1078C45.1275 67.851 44.9533 67.8172 45.0697 68.4839C45.0801 68.879 45.0102 68.6405 45.001 69.3475C44.9955 69.7665 45.0262 70.2871 45.0219 70.7553C45.0208 70.8632 44.9777 70.9094 44.9762 71.0054C44.9748 71.1013 45.0158 71.1487 45.0151 71.265C45.0138 71.5051 44.98 71.8159 44.9806 71.966C44.981 72.1005 45.0149 72.2932 45.0159 72.6174C45.0195 73.7494 44.9721 73.4068 44.9517 73.5852C44.93 73.777 44.9971 73.9161 44.9834 74.2988C44.982 74.3372 44.9404 74.2372 44.9402 74.3621C44.9401 74.4628 44.9861 74.5142 44.9899 74.8478C44.9915 74.9807 44.971 77.0425 44.9672 77.3566C44.9613 77.838 44.9058 78.9097 44.8987 79.4078C44.8959 79.5998 44.9305 79.8055 44.9272 80.0095C44.9163 80.6853 44.8971 81.7673 44.8826 82.6243C44.8695 83.3961 44.7665 84.7498 44.8351 85.1735C44.8336 85.4379 44.8284 85.6533 44.8213 85.8292C44.8178 86.5171 44.9293 86.7305 44.9433 86.8061C45.0514 87.0727 45.1484 87.175 45.3651 87.4542C46.0518 88.3471 47.5098 88.7278 48.6072 88.0724C51.2434 86.5748 54.153 84.9433 56.3937 83.6704C63.285 79.7551 70.2066 75.8054 77.1345 71.8985C77.1437 71.8716 77.153 71.8448 77.1623 71.8179C76.3385 72.2709 75.3613 72.7872 74.5502 73.2383C73.4675 73.8407 71.9072 74.815 71.0532 75.1514C71.3683 74.9598 71.915 74.7066 71.873 74.6544C71.2975 74.9752 70.722 75.296 70.1465 75.6167C70.1786 75.6336 70.2108 75.6505 70.2429 75.6673C69.6488 76.0142 69.0335 76.3554 68.4351 76.6996C68.3311 76.7593 68.4186 76.7416 68.3279 76.7932C68.2263 76.8509 68.2813 76.7873 68.2621 76.7979C68.0051 76.9432 67.9416 77.012 67.9101 77.0294C67.8291 77.074 67.8782 77.0149 67.6426 77.1397C67.2055 77.3712 66.933 77.6085 66.9748 77.4467C66.836 77.5254 66.6971 77.6041 66.5582 77.6828C66.5384 77.7316 66.5186 77.7805 66.4988 77.8293C65.5795 78.1985 65.2999 78.6233 64.7372 78.7309C64.5954 78.8436 64.4536 78.9562 64.3118 79.0689C64.2079 79.0901 64.1041 79.1114 64.0002 79.1326C63.997 79.1668 63.9937 79.2009 63.9905 79.235C63.1417 79.6923 62.2654 80.2277 61.4617 80.6795C60.9019 80.9942 60.7626 81.0604 60.2688 81.3427C59.1703 81.9708 60.236 81.3028 59.2917 81.7689C59.3562 81.7718 59.4208 81.7748 59.4854 81.7777C59.3402 81.8746 59.1949 81.9714 59.0496 82.0682C58.9303 82.1036 58.811 82.1389 58.6917 82.1743C58.2957 82.5661 57.9346 82.6357 57.8709 82.6718C57.8196 82.7011 57.6861 82.8776 57.0958 83.1268C57.3845 83.1009 56.6738 83.3668 56.6212 83.3958C56.5713 83.4235 55.9498 83.8066 55.6916 83.9516C55.4885 84.0657 55.0436 84.2883 54.7424 84.4604C54.4765 84.6124 54.5236 84.6325 54.5043 84.6439C54.1781 84.8327 54.368 84.6887 54.1301 84.8218C53.8923 84.9548 53.7254 85.0892 53.6727 85.1155C53.6462 85.1287 53.7136 85.0469 53.5939 85.1105C53.2725 85.2812 52.7165 85.6345 52.3537 85.839C52.2251 85.9116 52.0473 85.9753 51.9038 86.0556C51.6838 86.1786 51.6024 86.2739 51.4744 86.345C51.4298 86.3696 51.1144 86.4725 50.7677 86.6807C50.7019 86.7203 50.5742 86.9532 50.2156 86.9291C50.2092 86.9647 50.2028 87.0003 50.1964 87.0359C49.3463 87.5765 48.885 87.7099 48.5297 87.9357C48.3829 88.0269 48.2417 88.116 48.0747 88.2222C47.4829 88.3688 47.3801 88.2805 47.4209 88.2695C47.4601 88.2463 47.6253 88.2097 47.561 88.2091C47.4795 88.2175 47.1004 88.2254 47.0589 88.2111C46.9862 88.1985 47.0025 88.1759 46.924 88.1616C46.2084 87.9958 46.0627 87.807 45.9828 87.7916C45.9099 87.7565 45.9323 87.8073 45.7409 87.6629C45.2801 87.3085 45.0993 86.7883 45.0895 86.6757C45.1059 86.537 45.0691 86.8821 45.7335 87.6026C45.743 87.5924 45.7525 87.5821 45.7621 87.5719C45.5801 87.4217 45.3179 87.0829 45.2104 86.7898C45.0984 86.499 45.091 86.2993 45.1694 86.4814C45.2128 86.6274 45.5455 87.3408 45.9977 87.6342C46.2082 87.791 46.3984 87.8704 46.44 87.8806C46.4857 87.8859 46.367 87.8489 46.0713 87.6176C45.8257 87.3978 45.6115 87.3072 45.4365 86.7441C45.3062 86.4002 45.1449 86.3599 45.1769 85.8345C45.1773 85.8313 45.1776 85.8282 45.178 85.825C45.1762 85.8282 45.1744 85.8313 45.1726 85.8344C45.1286 85.9182 45.0891 86.0047 45.055 86.0974C45.0402 86.0115 45.0316 85.9237 45.0295 85.8323C45.0117 85.2184 45.0807 84.5253 45.0653 84.0737C45.0593 83.9006 44.8564 83.2745 45.0664 83.4228C45.0574 83.1319 45.1168 81.763 45.1015 81.5083C45.0979 81.447 44.9861 81.3657 45.0386 80.4807C45.0537 80.4194 45.0688 80.3581 45.0838 80.2967C45.113 81.1073 45.176 79.6775 45.2774 80.0676C45.2273 80.1989 45.1884 80.8407 45.1626 80.9438C45.1183 81.1196 45.0724 80.5932 45.0771 81.2633C45.25 81.6882 45.1854 80.4796 45.3528 80.6666C45.2864 79.7861 45.3635 79.6993 45.3696 79.5002C45.395 78.6494 45.3849 78.1135 45.4166 77.3109C45.3846 77.1147 45.3126 78.5676 45.325 78.7479C45.211 78.0834 45.1885 79.2238 45.2549 79.7063C45.2169 79.7461 45.1789 79.786 45.1409 79.8258C45.1704 79.1995 45.1899 78.5885 45.1684 77.9674C45.183 77.9272 45.1976 77.887 45.2122 77.8468C45.2312 77.9864 45.2502 78.1259 45.2692 78.2654C45.3113 77.7498 45.1976 78.0577 45.3034 77.3715C45.2616 77.3496 45.2198 77.3276 45.1779 77.3057C45.2017 76.6466 45.2254 75.9875 45.2492 75.3283C45.1698 74.9838 45.22 73.7156 45.326 73.9495C45.3413 73.4376 45.2737 74.0689 45.2542 73.5886C45.2457 73.3796 45.2485 72.9713 45.2795 72.8709C45.383 72.9159 45.3869 73.5269 45.4557 73.7128C45.4805 73.601 45.4481 70.759 45.5663 71.0141C45.5843 70.7875 45.5199 70.8909 45.5099 70.4815C45.4821 69.3344 45.6325 67.5605 45.4904 66.6351C45.3878 67.7178 45.4748 68.0398 45.4661 68.8705C45.4607 69.4012 45.4276 72.6364 45.3281 71.9122C45.3403 72.0312 45.3526 72.1502 45.3648 72.2693C45.3302 72.3889 45.2957 72.5085 45.2611 72.6282C45.2614 72.2896 45.2617 71.9511 45.262 71.6125C45.2959 71.5322 45.3298 71.4519 45.3637 71.3715C45.3409 71.3339 45.3181 71.2963 45.2953 71.2586C45.2928 71.1161 45.2902 70.9735 45.2877 70.8309C45.3152 70.8713 45.3427 70.9118 45.3701 70.9522C45.3782 70.7327 45.3862 70.5131 45.3943 70.2935C45.3559 70.3521 45.3175 70.4107 45.2791 70.4692C45.285 69.4346 45.3033 69.7853 45.382 69.2126C45.3955 68.7844 45.3127 69.5069 45.3078 68.6004C45.3021 67.5462 45.4065 68.2393 45.4022 66.8741C45.3838 66.8542 45.3653 66.8342 45.3469 66.8143C45.3701 66.5145 45.3932 66.2147 45.4164 65.9148C45.3925 65.9542 45.3687 65.9935 45.3448 66.0328C45.363 65.4135 45.3312 64.5593 45.4256 64.3554C45.3723 64.9826 45.5318 64.9788 45.5635 64.8159C45.6286 64.4798 45.6464 59.5005 45.6567 58.5354C45.6699 57.3014 45.7348 56.3695 45.673 55.2412C45.5974 56.0041 45.6103 58.6908 45.5583 59.1991C45.5532 59.2495 45.4073 59.2331 45.5669 59.5597C45.5235 60.6035 45.5516 61.8525 45.5275 63.1572C45.4861 63.1167 45.4446 63.0762 45.4031 63.0357C45.5044 62.2352 45.3189 61.49 45.4808 61.5969C45.4832 61.4373 45.4855 61.2777 45.4879 61.1181C45.4597 61.1177 45.4316 61.1173 45.4034 61.1168C45.407 60.8762 45.4106 60.6357 45.4141 60.3951C45.4423 60.3955 45.4704 60.3959 45.4986 60.3963C45.5015 60.197 45.5045 59.9978 45.5074 59.7985C45.4797 59.7773 45.4519 59.7562 45.4241 59.735C45.4913 59.1392 45.3655 57.1026 45.5199 57.9994C45.524 57.7191 45.5282 57.4389 45.5323 57.1586C45.5117 57.1592 45.4911 57.1598 45.4705 57.1604C45.4696 57.0399 45.4686 56.9194 45.4676 56.7989C45.4856 56.8388 45.5037 56.8788 45.5217 56.9187C45.4965 56.3661 45.6024 55.8442 45.5433 55.4807C45.5257 55.7196 45.508 55.9585 45.4904 56.1974C45.5239 55.7392 45.4811 54.8935 45.482 54.8179C45.4852 54.5874 45.5286 54.4665 45.5344 54.2169C45.5395 53.9915 45.5071 54.0221 45.5088 53.9801C45.5594 52.7648 45.7257 53.2307 45.5291 52.66C45.558 52.6 45.5869 52.54 45.6158 52.48C45.5936 52.3992 45.5714 52.3184 45.5493 52.2376C45.5568 51.8786 45.5643 51.5196 45.5718 51.1605C45.5351 51.2798 45.4983 51.399 45.4615 51.5182C45.4539 50.9798 45.5278 50.7298 45.5301 50.6777C45.5364 50.5303 45.4934 50.4621 45.494 50.4165C45.5302 48.2234 45.5493 49.5561 45.7309 48.4625C45.6718 48.0708 45.6009 48.4652 45.534 48.5197C45.5727 48.0005 45.5568 47.8381 45.5686 47.2896C45.5717 47.1469 45.6096 46.994 45.6114 46.9039C45.613 46.8259 45.5787 46.5815 45.5813 46.3943C45.5857 46.0822 45.6144 45.6671 45.6202 45.2398C45.6249 44.8844 45.6142 43.7963 45.6252 43.0377C45.63 42.7139 45.6605 42.7895 45.6618 42.7059C45.6623 42.6711 45.6281 42.4182 45.6311 42.2106C45.6343 41.9852 45.638 41.7592 45.642 41.5325C45.5886 39.7868 47.8047 38.5879 49.2315 39.5587C49.3025 39.6018 49.3734 39.6449 49.4444 39.6879C50.47 40.3095 51.5278 40.9155 52.5537 41.5414C52.772 41.6746 52.6417 41.6282 52.7367 41.687C52.7694 41.7071 52.8341 41.6895 53.162 41.9112C53.2805 41.9914 53.1224 41.9352 53.2416 42.0095C53.2996 42.0456 53.3466 42.0243 53.6933 42.2232C54.3234 42.5847 54.6277 42.8357 54.684 42.8679C54.7902 42.9285 54.778 42.8798 54.9171 42.9627C55.5977 43.3683 56.1663 43.7062 56.7723 44.0704C57.0553 44.2404 59.0052 45.4148 59.1088 45.4851C59.3406 45.6422 59.0799 45.5701 59.3878 45.754C59.4834 45.7902 59.579 45.8263 59.6745 45.8625C59.5454 45.7676 59.4163 45.6727 59.2872 45.5779C59.6506 45.826 60.0939 46.0557 60.3714 46.2256C60.4227 46.257 60.8783 46.5724 61.1214 46.7156C61.0117 46.6653 60.902 46.6149 60.7923 46.5645C60.8224 46.5966 60.8526 46.6287 60.8827 46.6608C61.3744 46.9381 61.8844 47.248 62.3778 47.5503C62.5558 47.6592 62.4806 47.6471 62.6607 47.7575C63.7095 48.4008 63.5056 48.1377 64.4016 48.9429C64.0705 48.7183 62.809 47.9864 62.6317 47.8702C62.5081 47.7891 62.1166 47.3305 62.1956 47.6053C61.1859 46.9919 62.1188 47.4326 61.1633 46.8804C61.1699 46.912 61.1764 46.9437 61.183 46.9754C60.8459 46.7884 60.5965 46.6511 60.4181 46.494C60.2914 46.5515 59.2073 45.8153 58.5896 45.4497C57.697 44.9211 56.6806 44.3373 55.7994 43.8086C55.4958 43.6264 55.3477 43.4839 55.3097 43.461C55.254 43.4276 55.0776 43.3667 54.9666 43.2997C54.5524 43.0498 53.3284 42.2293 52.9585 42.133C55.42 43.6261 57.8815 45.1193 60.343 46.6124C60.0614 46.3786 62.5541 47.8845 62.6789 47.9633C62.7946 48.0363 62.6766 48.0089 62.7101 48.032C62.9604 48.2027 63.2096 48.2898 63.2917 48.3396C63.3544 48.3776 63.4675 48.4763 63.6905 48.6109C63.7314 48.6356 63.7568 48.6193 63.8008 48.6458C64.0912 48.822 64.3778 48.9963 64.6694 49.173C64.687 49.184 64.74 49.2626 64.8135 49.3073C64.8873 49.352 64.9809 49.3624 64.9995 49.3735C65.2324 49.5151 65.6184 49.7795 65.84 49.9142C65.9169 49.9609 65.8787 49.9037 65.9647 49.9562C66.2292 50.1174 66.1125 50.1132 66.4475 50.2993C66.5598 50.3616 66.5753 50.3201 66.7825 50.4525C66.9292 50.5463 66.873 50.6029 66.8951 50.6196C66.9259 50.6423 67.4713 50.9015 67.613 51.0468C67.1764 50.9387 68.011 51.2964 68.0034 51.2256C68.1995 51.3613 68.3956 51.4969 68.5918 51.6325C68.6686 51.6624 68.7455 51.6922 68.8223 51.7221C69.61 52.2754 70.1311 52.5461 70.9286 53.0531C70.9671 53.0777 71.6313 53.5178 71.589 53.5157C71.1636 53.2982 70.7563 53.053 70.5288 52.84C70.0364 52.6842 70.0795 52.5965 69.3782 52.1901C69.1434 52.0541 69.1097 52.0724 69.0828 52.0566C68.1721 51.5234 66.7197 50.6591 66.1622 50.2076C65.9782 50.1266 66.5854 50.5071 66.3372 50.3791C66.2018 50.3094 63.0598 48.4397 64.1163 48.95C64.0111 48.8898 63.9058 48.8296 63.8006 48.7694C63.6423 48.7966 63.1393 48.4633 63.2522 48.409C63.1922 48.3978 63.1323 48.3865 63.0723 48.3752C62.9664 48.3323 62.8471 48.2713 62.684 48.1791C62.0595 47.826 58.4305 45.582 58.2287 45.4772C58.2114 45.4958 58.1941 45.5145 58.1768 45.5331C59.7737 46.5347 61.3693 47.4302 63.0896 48.5571C63.0507 48.5061 63.0117 48.4552 62.9728 48.4043C63.657 48.8576 64.3413 49.3109 65.0255 49.7642C64.2614 49.3502 63.0623 48.6643 62.3013 48.162C62.166 48.0727 62.2844 48.1064 62.2547 48.0837C62.1768 48.0246 62.0582 48.0187 61.7567 47.8422C61.4551 47.6657 60.7254 47.1762 60.656 47.1355C60.5223 47.057 60.1309 46.8952 59.9056 46.7576C59.6095 46.5767 59.8291 46.6631 59.77 46.6263C59.5258 46.4735 59.2947 46.3565 59.1033 46.237C58.8191 46.0595 58.2605 45.6383 58.0067 45.6052C58.2089 45.7334 58.4111 45.8615 58.6133 45.9897C57.4844 45.3483 56.6854 44.7091 55.5394 44.1331C55.2261 44.0894 56.1381 44.6229 55.3467 44.2053C55.4863 44.2879 55.6259 44.3704 55.7655 44.453C55.8116 44.4503 55.8577 44.4477 55.9038 44.445C56.1329 44.6059 56.3621 44.7668 56.5913 44.9277C56.5352 44.8663 56.4792 44.805 56.4231 44.7437C57.2791 45.2423 58.1467 45.7406 58.3772 46.0272C58.4103 46.0119 58.4435 45.9965 58.4767 45.9811C59.2438 46.4896 60.4908 47.0955 60.1827 47.1062C60.2246 47.1211 60.2664 47.136 60.3083 47.1509C60.7656 47.4687 60.5989 47.2859 60.7816 47.3875C60.8337 47.4165 61.7388 48.0077 61.3034 47.8022C62.1847 48.3816 61.9887 48.0781 62.2406 48.2228C62.7769 48.6396 63.8754 49.1687 63.375 49.0098C63.4585 49.0658 63.542 49.1219 63.6255 49.178C63.9582 49.2661 64.1794 49.5289 64.4662 49.7459C64.5688 49.8107 64.6713 49.8754 64.7738 49.9402C64.8602 49.9543 64.9465 49.9684 65.0329 49.9826C65.9273 50.7072 65.8394 50.1558 66.0993 50.732C66.0188 50.7081 65.9383 50.6843 65.8578 50.6605C65.6879 50.5694 65.5181 50.4783 65.3482 50.3871C66.0071 50.7979 66.6661 51.2086 67.325 51.6193C68.1156 52.2162 68.6515 52.414 69.5464 53.0496C69.639 53.0946 69.7316 53.1397 69.8241 53.1847C69.6928 53.1998 69.359 52.9834 69.9734 53.3986C69.9977 53.4803 69.5662 53.2272 69.394 53.0714C69.3526 53.0337 69.7752 53.2388 69.3265 52.9648C69.0215 52.7785 69.5407 53.1739 68.6385 52.5968C68.6651 52.6294 68.6918 52.6619 68.7184 52.6944C68.6194 52.6339 68.5204 52.5733 68.4213 52.5128C68.3499 52.4316 68.2784 52.3503 68.2069 52.2691C67.9558 52.1715 67.7945 52.1503 67.2834 51.8239C67.4345 51.8919 67.2775 51.7206 67.0204 51.5659C67.0082 51.5859 66.996 51.606 66.9839 51.626C66.3551 51.2622 66.6051 51.3335 66.0609 51.0662C66.0189 51.0189 65.9769 50.9716 65.9349 50.9243C65.6139 50.8194 64.5513 50.2359 64.7998 50.2521C64.4513 50.1715 63.8674 49.7583 63.687 49.5442C63.6575 49.5535 63.628 49.5628 63.5985 49.5722C63.4753 49.503 63.352 49.4337 63.2288 49.3645C63.1688 49.3116 63.1087 49.2587 63.0486 49.2058C62.9557 49.1659 62.8628 49.126 62.7699 49.0862C62.7304 49.0348 62.6908 48.9835 62.6513 48.9322C62.4992 48.8727 62.3471 48.8132 62.195 48.7537C62.1205 48.6867 62.046 48.6197 61.9715 48.5527C61.9375 48.5891 61.0979 48.0925 60.8816 47.9239C60.8048 47.8939 60.7281 47.8639 60.6513 47.8339C60.6294 47.7935 60.6075 47.753 60.5856 47.7126C60.5243 47.6972 60.463 47.6817 60.4018 47.6662C60.2923 47.5781 60.1829 47.4901 60.0735 47.402C59.529 47.2047 59.5651 47.1099 59.4539 47.0433C59.2477 46.9198 58.5109 46.5561 58.3958 46.482C58.2809 46.408 58.2456 46.3388 58.1533 46.2784C56.6315 45.2803 57.214 45.7617 56.893 45.5873C56.7198 45.4932 56.6204 45.3884 56.4694 45.3017C56.2112 45.1534 54.9008 44.4174 54.8295 44.3684C54.7256 44.297 55.072 44.2972 54.6983 44.1246C54.6367 44.2 53.9393 43.6632 54.2192 43.9902C53.9173 43.7933 53.6155 43.5964 53.3136 43.3995C53.2893 43.5184 52.9476 43.2252 52.5307 42.9797C51.9399 42.6317 50.5812 41.8954 50.6902 41.8244C50.5358 41.7623 50.3815 41.7002 50.2271 41.638C49.684 41.2837 49.1339 40.9545 48.5825 40.6286C48.3473 40.4927 48.0964 40.4521 47.8436 40.494C47.3432 40.5735 46.9242 41.0209 46.9255 41.5515C46.8819 44.0276 46.8263 46.5672 46.7743 48.9514C46.7708 49.1097 46.7329 49.0864 46.7303 49.2004C46.7172 49.7993 46.7213 51.3567 46.7004 52.1957C46.6937 52.4644 46.6544 52.5947 46.6515 52.6799C46.6411 52.9691 46.6913 52.9016 46.688 53.0348C46.6826 53.2449 46.6205 54.3559 46.61 54.7387C46.6048 54.9283 46.6406 55.1531 46.6252 55.3749C46.624 55.394 46.5842 55.3581 46.5833 55.3743C46.5723 55.7788 46.6108 55.536 46.6069 55.6728C46.5794 56.6485 46.5631 57.6916 46.5391 58.7502C46.5331 59.013 46.4988 59.415 46.4927 59.6406C46.4905 59.7267 46.5234 59.5727 46.5165 59.8702C46.5141 59.9721 46.4738 60.0064 46.4695 60.1214C46.4513 60.6169 46.5766 60.7847 46.4676 61.2092C46.4622 62.0316 46.4738 63.4634 46.4634 64.2137C46.4609 64.3912 46.4361 64.4772 46.434 64.6464C46.4325 64.7664 46.4658 64.9782 46.4635 65.1654C46.4611 65.3527 46.4221 65.6478 46.418 66.0079C46.4137 66.3871 46.4273 66.8589 46.4259 66.9443C46.4244 67.0476 46.3799 67.095 46.3789 67.1983C46.3757 67.5104 46.4063 68.3467 46.405 68.7489C46.4036 69.181 46.3785 69.4401 46.3767 69.5878C46.3753 69.7245 46.4099 69.8845 46.4093 69.947C46.4084 70.0442 46.3649 70.0665 46.3634 70.1899C46.3612 70.3915 46.3852 70.5998 46.3815 70.9022C46.319 75.9591 46.226 80.9236 46.125 85.8485C46.1192 86.0906 46.1786 86.3179 46.2989 86.5163C46.5012 86.808 46.6932 86.9766 47.2105 87.0863C47.4231 87.1085 47.3342 87.1492 47.5045 87.1288C47.5799 87.1144 47.5551 87.0842 47.6463 87.0616C47.7516 87.0334 47.8593 86.9914 47.9627 86.9353C48.4159 86.6856 48.852 86.4587 49.0421 86.3505C49.1443 86.2923 49.2417 86.1914 49.4512 86.072C51.0124 85.1819 52.8677 84.1432 54.5469 83.1835C55.436 82.6754 56.7748 81.8933 57.796 81.3114C60.6175 79.7036 63.6613 77.989 66.2359 76.5252C70.1237 74.3151 73.9774 72.0885 77.8812 69.926C76.0174 70.8717 73.5481 72.2805 71.5209 73.4175C65.6657 76.7019 59.4745 80.2752 53.4877 83.666C51.8219 84.6095 49.8096 85.7516 47.8986 86.8222C47.6226 86.976 47.324 86.999 47.0483 86.9108C46.9876 86.8922 46.8446 86.8712 46.7253 86.7844C46.6874 86.7743 46.4574 86.4746 46.4211 86.3643C46.378 86.5178 46.258 86.0389 46.2871 85.8827C46.2868 85.8727 46.2865 85.8621 46.2863 85.8509C46.2846 85.4845 46.2515 84.7904 46.2896 84.0174C46.3259 83.2783 46.361 83.4828 46.364 83.442C46.3834 83.1807 46.3232 83.0886 46.32 82.8881C46.3073 82.069 46.4054 77.8585 46.425 76.6832C46.4301 76.3795 46.4693 76.3715 46.4705 76.3031C46.4734 76.1219 46.4386 75.8634 46.4432 75.5731C46.4515 75.0497 46.4973 74.4474 46.5017 74.1593C46.5123 73.4702 46.4882 72.1621 46.5006 71.2666C46.5041 71.0147 46.5445 71.0308 46.546 70.9167C46.5528 70.4149 46.5242 69.107 46.533 68.484C46.5473 67.4721 46.589 66.4316 46.5908 65.4026C46.6099 65.3377 46.629 65.2728 46.6481 65.2078C46.6306 65.1047 46.6131 65.0016 46.5956 64.8984C46.6358 63.1593 46.6212 61.3881 46.6495 59.6584C46.6527 59.4591 46.702 58.473 46.7046 58.3084C46.7067 58.1716 46.6637 58.0363 46.6733 57.8335C46.6867 57.5495 46.7684 57.8181 46.7507 57.3535C46.746 57.2286 46.7075 57.3491 46.6998 57.0982C46.6973 57.0153 46.7062 55.4074 46.71 55.3211C46.7164 55.1771 46.7968 55.0498 46.7991 55.0127C46.8108 54.8196 46.7504 54.8269 46.7469 54.6972C46.7361 54.3145 46.784 53.8154 46.784 53.7532C46.784 53.0016 46.7567 51.596 46.7969 50.8078C46.8024 50.6988 46.8471 50.7125 46.8489 50.6934C46.86 50.5699 46.81 50.4924 46.8106 50.3748C46.8142 49.7421 46.8632 48.7519 46.8814 48.1159C46.8834 48.0426 46.8612 47.8876 46.8655 47.7569C46.8902 47.0176 46.9261 47.2581 46.9284 47.2161C46.9341 47.1165 46.8932 46.9406 46.8944 46.6755C46.8973 45.9923 46.923 44.6826 46.9372 43.9504C46.948 43.4019 46.9977 43.4109 46.9992 43.3749C47.0021 43.298 46.9655 43.0837 46.9664 42.7225C46.9678 42.0274 47.0057 42.1072 47.0083 41.8215C47.0086 41.7983 46.9723 41.836 46.9705 41.5522C46.9704 41.5467 46.9704 41.5411 46.9704 41.5353C46.9685 41.3665 47.0353 41.1122 47.2085 40.919C47.3769 40.7203 47.6341 40.6084 47.7952 40.5748C47.9196 40.5494 47.9474 40.5094 48.0815 40.5135C48.2043 40.5169 48.4061 40.5839 48.547 40.6871C48.7402 40.8138 48.8921 40.9142 48.9184 40.9301C48.9358 40.9407 48.997 40.9281 49.0996 40.9904C49.2125 41.0589 49.3123 41.1449 49.3965 41.1959C49.8761 41.4861 50.7403 41.9236 50.4322 41.9141C50.6052 41.9752 50.7782 42.0364 50.9512 42.0975C51.9512 42.7129 52.9342 43.2916 53.9328 43.8885C54.1574 44.0227 54.3293 44.1605 54.5188 44.2739C54.7083 44.3872 55.5658 44.8518 55.7055 44.9355C55.9547 45.0848 57.3689 45.9368 57.5427 46.0462C57.8822 46.2597 58.1823 46.515 58.3282 46.5892C58.4453 46.6486 58.3601 46.5557 58.5788 46.6766C58.9573 46.886 59.5618 47.3057 59.675 47.3736C59.7234 47.4026 59.6474 47.3243 60.0999 47.5965C60.3438 47.7431 60.4587 47.8482 60.547 47.9017C60.5745 47.9182 60.5589 47.8512 61.037 48.1489C61.3672 48.3546 61.4893 48.4731 61.5241 48.4944C61.5764 48.5264 61.7238 48.5684 61.9334 48.6972C62.4233 48.9985 63.2982 49.5835 63.7634 49.8698C63.8533 49.9252 63.848 49.8647 64.2058 50.0871C64.4618 50.2461 64.3966 50.2521 64.4922 50.3119C64.6439 50.4067 64.8965 50.5042 65.2334 50.7104C65.6573 50.9698 68.787 52.9261 68.9437 53.0361C69.049 53.11 69.1762 53.1878 69.2196 53.2389C69.1624 53.2279 69.1053 53.2169 69.0481 53.206C68.6018 52.852 68.7547 53.0398 68.6237 52.9665C68.434 52.8602 67.7392 52.4266 67.5605 52.3393C67.4968 52.3082 67.6125 52.429 67.2768 52.2514C66.9165 52.0607 66.8017 51.901 66.6086 51.9069C66.1754 51.5075 65.6369 51.3259 66.1915 51.701C66.5011 51.9104 69.6103 53.8452 70.2463 54.2386C70.762 54.5575 71.7492 55.1196 72.3824 55.5131C72.7546 55.7445 73.6745 56.3088 73.6065 56.333C73.9354 56.5408 73.6123 56.2797 73.6861 56.3154C73.8405 56.3901 74.8585 57.0526 75.0558 57.1705C76.0286 57.752 77.2837 58.4402 78.1884 59.0715C78.1368 59.0578 78.0853 59.044 78.0337 59.0302C77.808 58.9254 76.847 58.2966 76.6989 58.2908C78.134 59.1613 79.569 60.0318 81.0041 60.9023C81.0091 60.8338 82.7886 61.9142 82.8585 61.9889C82.8119 61.9952 82.7653 62.0016 82.7186 62.008C81.7711 61.3017 81.7843 61.4835 81.1498 61.0063C80.8754 60.8386 80.933 60.9308 80.7927 60.8566C79.3963 60.1176 80.8232 60.7576 79.7682 60.1689C80.0421 60.418 79.1832 59.9274 78.7997 59.7053C78.7125 59.6547 77.5894 58.9524 77.4543 58.8718C76.6956 58.419 75.378 57.6652 74.6478 57.1768C74.059 56.8142 73.7073 56.6601 73.1645 56.3445C72.7524 56.1049 72.8877 56.1454 72.6961 56.0287C72.2942 55.7837 72.1057 55.7959 71.9263 55.5106C71.6438 55.3612 71.3613 55.2118 71.0787 55.0624C71.0909 55.0424 71.103 55.0223 71.1152 55.0023C70.9438 54.8984 70.7725 54.7944 70.6012 54.6905C70.5387 54.6799 70.4761 54.6693 70.4136 54.6587C69.8864 54.3015 70.1427 54.3909 70.0755 54.2726C69.9604 54.1974 69.8453 54.1223 69.7302 54.0471C69.6128 54.0355 69.4955 54.0239 69.3782 54.0123C68.8558 53.6906 68.3334 53.3689 67.811 53.0472C67.7892 53.0066 67.7674 52.9661 67.7456 52.9255C67.7324 52.9448 67.7192 52.9641 67.706 52.9834C66.8152 52.4487 65.9245 51.9141 65.0338 51.3794C64.7781 51.2681 66.1865 52.1556 66.2931 52.2229C66.8862 52.5972 68.4977 53.5308 68.4566 53.6032C68.8614 53.7761 69.9753 54.4699 70.2857 54.7453C69.7583 54.4201 69.2309 54.095 68.7035 53.7698C68.7062 53.8041 68.7088 53.8383 68.7114 53.8726C68.1098 53.376 68.01 53.3227 67.2764 53.0021C67.2952 52.9697 67.3139 52.9373 67.3327 52.9049C66.7921 52.7293 66.0704 52.0332 65.9631 52.1561C65.7179 51.9922 65.4728 51.8282 65.2277 51.6643C64.6736 51.3511 65.4541 51.9691 63.3496 50.6359C63.2046 50.544 63.2564 50.5275 63.0343 50.3961C62.9702 50.3582 62.5748 50.188 61.8811 49.76C61.7728 49.6931 61.783 49.6578 61.6724 49.5854C61.4173 49.4181 60.8617 49.1632 61.1568 49.2084C60.1416 48.5536 60.5208 48.8934 60.1812 48.7311C59.9549 48.6228 60.033 48.591 59.8402 48.492C59.6018 48.3696 59.7341 48.5298 58.8351 47.9477C58.9402 48.006 59.0453 48.0644 59.1504 48.1227C59.1084 48.0755 59.0663 48.0283 59.0243 47.9811C58.4787 47.7022 58.5618 47.6766 58.2614 47.6163C57.9057 47.3462 57.5791 47.1437 57.0553 46.8358C56.0378 46.2379 56.4968 46.6477 55.4236 45.8198C55.2261 45.7248 55.0285 45.6298 54.8309 45.5348C54.5474 45.3106 54.8244 45.4133 54.3725 45.126C54.6735 45.4376 53.7286 44.8174 53.5144 44.8025C53.5094 44.772 53.5045 44.7416 53.4995 44.7112C53.3973 44.6492 53.295 44.5872 53.1928 44.5252C53.1827 44.541 53.1727 44.5569 53.1626 44.5728C53.0337 44.4782 52.9049 44.3836 52.776 44.2889C52.664 44.2427 52.5519 44.1966 52.4399 44.1504C52.2919 44.0147 52.1439 43.8789 51.996 43.7432C51.8917 43.6768 51.7874 43.6104 51.6831 43.544C51.702 43.5882 51.7209 43.6324 51.7399 43.6767C51.6089 43.5863 51.4779 43.4959 51.3469 43.4055C51.4812 43.5406 51.3539 43.5264 50.9317 43.2687C50.5833 43.056 51.0261 43.2125 50.2551 42.7914C50.2013 42.7621 50.0731 42.7644 49.3585 42.3433C48.5014 41.8382 48.9403 42.0464 48.7896 41.953C48.76 41.9347 48.4823 41.8066 48.2365 41.6632C48.1593 41.6182 48.0886 41.5662 48.0377 41.5268C48.0369 41.5195 48.0373 41.5134 48.0367 41.5131C48.0299 41.5109 48.0113 41.5458 48.0096 41.5466C48.0072 41.5502 48.0238 41.5314 48.0138 41.5341C48.0105 41.5357 48.0147 41.5591 48.0139 41.5598C48.0126 41.5605 47.9916 41.5313 47.9873 41.5343C47.962 41.5591 48.0826 41.5962 47.9314 41.5295C48.0016 41.5612 47.9946 41.5451 47.9788 41.5671C47.9612 41.8067 47.9393 41.9897 47.9897 41.9611C47.9362 42.9966 48.0193 45.762 47.8507 45.6784C47.9872 46.2674 47.8828 46.2134 47.8813 46.4592C47.8797 46.7341 47.9099 46.5921 47.9054 46.8106C47.8949 47.3207 47.8756 47.8079 47.8675 48.3156C47.8454 48.2356 47.8234 48.1555 47.8013 48.0755C47.7859 48.6083 47.8428 48.4256 47.8452 48.9694C47.8494 49.9696 47.8124 49.5476 47.7492 49.6944C47.8087 49.6556 47.7821 50.8346 47.7726 50.9545C47.7668 51.026 47.6955 50.7112 47.7093 51.4336C47.7332 51.3944 47.7572 51.3553 47.7811 51.3161C47.7443 51.6446 47.7716 52.5387 47.7615 52.6903C47.7568 52.7598 47.563 53.1295 47.707 53.4726C47.683 53.5134 47.659 53.5542 47.6351 53.5949C47.6575 53.9739 47.68 54.3528 47.7025 54.7318C47.6595 54.7916 47.6165 54.8514 47.5736 54.9112C47.5718 55.0313 47.57 55.1514 47.5683 55.2715C47.6068 55.1923 47.6453 55.1132 47.6838 55.034C47.656 55.7754 47.7014 56.6824 47.5732 56.8334C47.5942 56.9926 47.6152 57.1518 47.6362 57.311C47.5928 57.4138 47.5493 57.5165 47.5059 57.6193C47.5056 58.3551 47.5334 58.3677 47.5706 58.8713C47.5382 58.8511 47.5058 58.831 47.4734 58.8108C47.5138 59.1825 47.5465 59.8603 47.5444 60.3957C47.5433 60.6503 47.4918 61.0866 47.4949 61.1467C47.4984 61.2074 47.6666 61.8069 47.5123 61.8694C47.5672 62.7492 47.4921 63.135 47.4886 63.4915C47.4863 63.7231 47.5215 63.8293 47.5214 64.091C47.5214 64.4656 47.498 64.8423 47.4973 65.0584C47.4971 65.1821 47.5326 65.2057 47.5325 65.2909C47.532 65.694 47.4988 65.4573 47.4949 65.8822C47.4947 65.9214 47.5339 66.2326 47.5231 66.5825C47.5171 66.7782 47.4604 67.2837 47.4598 67.3283C47.4577 67.5264 47.5585 67.3696 47.4348 68.0449C47.4538 68.0256 47.4728 68.0062 47.4918 67.9868C47.5269 68.8254 47.4415 68.9564 47.4332 69.1256C47.4324 69.1472 47.4617 69.3517 47.4554 69.4737C47.4448 69.6798 47.3994 69.7622 47.3968 69.8079C47.3876 69.9686 47.399 70.5107 47.3511 70.8642C47.4779 70.7916 47.5042 72.0332 47.3578 72.3059C47.3826 72.526 47.4075 72.7461 47.4323 72.9662C47.4074 73.0652 47.3825 73.1642 47.3576 73.2632C47.38 73.324 47.4025 73.3847 47.4249 73.4455C47.3688 73.7649 47.3126 74.0842 47.2564 74.4036C47.3077 74.4247 47.3589 74.4459 47.4101 74.467C47.4029 74.5565 47.3957 74.6461 47.3885 74.7356C47.3465 74.805 47.3046 74.8744 47.2626 74.9437C47.2688 75.0559 47.2749 75.168 47.2811 75.2802C47.3103 75.3083 47.3395 75.3365 47.3687 75.3647C47.3939 75.9674 47.116 75.6538 47.3474 76.8049C47.3214 76.9831 47.2954 77.1613 47.2694 77.3394C47.3801 77.5427 47.3056 77.9195 47.3139 78.2246C47.3197 78.4396 47.3651 78.4285 47.3617 78.7213C47.3584 79.0142 47.3154 79.0031 47.3147 79.0259C47.3085 79.2646 47.344 79.4452 47.3338 79.6202C47.3323 79.6466 47.28 79.712 47.2734 79.9351C47.2669 80.1584 47.3194 80.2937 47.3042 80.6261C47.2965 80.7964 47.2526 80.845 47.2465 80.9961C47.2172 81.7161 47.4253 82.4446 47.1578 82.981C47.1889 83.1032 47.2909 83.9881 47.2787 84.366C47.2594 84.9537 47.2118 84.7264 47.1991 84.96C47.1971 84.9936 47.2117 85.1728 47.2013 85.666C47.1994 85.7542 47.2285 85.7342 47.2287 85.7468C47.2281 85.784 47.2274 85.8234 47.2265 85.8648C47.2235 85.9303 47.2226 85.9629 47.2855 86.0071C47.2964 86.0118 47.3311 85.9464 47.3508 86.0551C47.3772 86.0223 47.3805 86.0369 47.4439 86.0199C48.0228 85.7154 48.676 85.3819 49.1485 85.0319C49.2653 84.9628 49.4227 84.9065 49.4744 84.876C49.9202 84.6132 49.7124 84.631 50.7925 84.1652C50.6882 84.1733 50.9065 84.0035 51.2443 83.8159C51.7524 83.5338 51.4341 83.8093 51.837 83.5731C51.8255 83.5528 51.814 83.5325 51.8025 83.5122C52.7681 83.0371 52.9048 82.8448 53.8424 82.3128C54.1797 82.1214 54.7036 81.884 54.7841 81.8385C54.8151 81.8208 55.1563 81.5627 55.1913 81.5423C55.3889 81.4284 55.5138 81.3875 55.6851 81.2905C56.2514 80.9702 56.8908 80.5236 56.8342 80.7085C56.976 80.5959 57.1178 80.4832 57.2596 80.3706C57.9177 80.1609 58.2609 79.7413 58.4521 79.7915C58.5432 79.7071 58.6343 79.6228 58.7254 79.5384C61.2546 78.1214 63.7837 76.7045 66.3129 75.2876C66.3913 75.1921 67.4988 74.5825 67.5586 74.5565C67.833 74.437 67.6072 74.6762 68.1248 74.3574C68.1624 74.2874 68.1999 74.2174 68.2375 74.1473C68.8949 73.7588 68.5963 73.9766 68.8726 73.853C68.9796 73.7864 68.928 73.7778 69.075 73.6917C69.8728 73.2245 71.5211 72.2885 72.3992 71.7877C72.5762 71.6867 72.5646 71.7286 72.6198 71.6975C72.771 71.6114 73.0507 71.4083 73.3546 71.2361C75.2336 70.1714 77.9069 68.6814 79.8144 67.6376C79.944 67.5667 79.978 67.5896 80.0656 67.5421C80.1869 67.4761 80.4406 67.2982 80.5685 67.2293C80.6889 67.1642 80.7789 67.1453 80.9079 67.0759C81.4982 66.7588 82.2586 66.2737 82.9226 65.9918C82.9785 65.9681 83.7046 65.7263 83.7241 65.7264C83.8392 65.7272 83.3032 66.1349 84.2982 65.6676C83.4821 66.2145 83.8124 66.1765 84.9508 65.6041C84.4035 65.9331 83.8563 66.2621 83.3091 66.591C83.3159 66.6049 83.3227 66.6187 83.3295 66.6325C83.8725 66.4123 84.3866 66.1501 85.1587 65.7206C85.1417 65.7466 85.1248 65.7726 85.1078 65.7985C84.464 66.2452 83.6515 66.7209 83.1824 67.0983C83.9761 66.7311 84.7697 66.3639 85.5634 65.9966C85.5311 66.0279 85.4987 66.0591 85.4664 66.0903C85.1173 66.3217 84.3318 66.7866 84.0434 66.9813C82.9417 67.725 85.0906 66.477 84.7667 66.7333C83.5484 67.4212 82.3302 68.1091 81.1119 68.7969C81.0922 68.8617 85.8381 66.3197 85.8592 66.4693C85.4813 66.6944 85.1034 66.9194 84.7255 67.1445C84.9136 67.0789 85.1017 67.0133 85.2899 66.9478C85.2485 66.9842 85.2071 67.0207 85.1657 67.0572C84.5339 67.4471 83.9022 67.8371 83.2705 68.227C85.219 67.0906 86.1409 66.5913 86.7496 66.5697C86.6999 66.6061 86.6502 66.6425 86.6006 66.6789C86.0887 66.7667 84.1102 67.9535 83.0611 68.5885C83.3038 68.5101 84.2232 67.9433 84.4369 67.8578C84.4975 67.8336 84.3191 67.9759 84.4584 67.918C84.8223 67.7665 86.3034 66.9974 86.1213 67.1677C86.0041 67.2772 83.6949 68.6452 83.2376 68.8998C84.3382 68.3534 85.4476 67.747 86.5585 67.2115C85.939 67.6938 85.4095 68.1545 84.179 68.859C83.8326 69.1242 86.4847 67.7164 86.5614 67.7105C86.1268 67.9971 85.6922 68.2837 85.2576 68.5704C85.6352 68.3456 86.0128 68.1208 86.3904 67.896C86.3973 67.9056 86.4042 67.9152 86.4111 67.9247C85.4478 68.5332 84.5911 69.1335 83.4546 69.7699C83.5217 69.8032 84.1967 69.4135 84.526 69.2275ZM75.0236 57.571C75.0194 57.6285 74.6154 57.3736 74.386 57.2333C74.4157 57.2623 74.4454 57.2913 74.4751 57.3202C73.9895 57.0143 73.0864 56.4434 73.0008 56.5081C72.6443 56.3064 72.8441 56.3261 72.7363 56.2492C72.6942 56.2191 72.2112 55.9851 71.8776 55.7109C71.7907 55.6585 71.7037 55.606 71.6167 55.5535C71.5829 55.5713 71.5492 55.5891 71.5154 55.6068C71.4149 55.4995 71.3144 55.3921 71.214 55.2847C72.4832 56.0464 73.7524 56.8081 75.0217 57.5698C75.0223 57.5702 75.0229 57.5706 75.0236 57.571ZM62.3862 49.9547C61.9349 49.6593 61.244 49.2062 61.3402 49.3693C61.6338 49.5419 61.9274 49.7145 62.221 49.887C62.276 49.9096 62.3311 49.9321 62.3862 49.9547ZM47.1736 74.3395C47.0788 74.7884 47.1489 75.204 47.1227 75.9C47.1414 75.8994 47.16 75.8987 47.1787 75.8981C47.1381 75.6127 47.179 74.8605 47.1736 74.3395ZM86.0223 63.9364C86.0323 63.967 86.0398 63.9981 86.0451 64.0297C85.9029 63.9614 85.9615 63.9191 85.8534 63.8269C85.8467 63.8219 85.834 63.8413 85.8317 63.8395C85.8061 63.8199 85.7957 63.7785 85.7652 63.7603C85.7646 63.76 85.764 63.7596 85.7633 63.7592C85.5988 63.661 85.4488 63.6021 85.1579 63.4245C84.9305 63.2856 84.9512 63.2467 84.8705 63.1991C84.8017 63.1586 84.063 62.852 83.6551 62.5434C83.1022 62.1251 84.7253 63.0729 85.7931 63.7102C85.9529 63.8035 86.0092 63.9118 86.0223 63.9364ZM85.8169 64.7267C85.8389 64.7089 85.8585 64.6904 85.8764 64.6709C85.8629 64.7775 85.9904 64.6545 86.0353 64.5269C86.1022 64.5626 85.9309 64.7982 85.7905 64.8776C85.8074 64.8254 85.8157 64.7748 85.8169 64.7267ZM78.7691 59.3829C79.0926 59.5715 78.9973 59.6083 78.9715 59.6208C78.8696 59.559 78.7677 59.4971 78.6657 59.4353C78.7002 59.4178 78.7346 59.4004 78.7691 59.3829ZM81.1916 60.8195C81.0635 60.8061 80.356 60.4051 80.0241 60.209C80.0098 60.2003 80.1159 60.2294 79.8814 60.0905C79.811 60.0488 79.0658 59.7251 79.2818 59.7105C79.9181 60.08 80.5544 60.4495 81.1906 60.819C81.1909 60.8192 81.1912 60.8193 81.1916 60.8195ZM81.8767 61.2731C81.7368 61.2084 81.5969 61.1437 81.4569 61.079C81.4026 61.0159 81.3483 60.9528 81.294 60.8897C81.4464 60.9745 81.5989 61.0594 81.7513 61.1442C81.7931 61.1872 81.8349 61.2301 81.8767 61.2731ZM68.0732 75.0307C68.0285 75.0243 67.9839 75.0179 67.9393 75.0114C67.8109 75.0648 67.2862 75.5003 67.4825 75.4157C67.6794 75.2874 67.8763 75.159 68.0732 75.0307ZM70.5676 73.6834C70.6959 73.6266 70.8243 73.5699 70.9526 73.5132C71.0691 73.3933 71.1857 73.2735 71.3023 73.1536C70.6801 73.47 70.0166 73.8043 70.1887 73.8653C70.0499 73.944 69.911 74.0227 69.7722 74.1014C69.861 73.9855 69.836 73.9781 69.4547 74.1525C69.4143 74.2667 69.0186 74.4445 68.5971 74.7035C68.9122 74.5302 69.2274 74.3569 69.5426 74.1836C69.5495 74.1957 69.5564 74.2079 69.5633 74.2201C68.8634 74.611 69.7739 74.1969 70.2008 73.891C70.2458 73.8869 70.2908 73.8829 70.3357 73.8788C70.413 73.8137 70.4903 73.7485 70.5676 73.6834ZM46.9474 58.3203C46.9318 58.4195 46.9163 58.5186 46.9007 58.6178C47.0784 59.0055 46.9161 58.219 47.0694 57.663C46.9565 57.8458 46.9737 56.995 46.967 56.9462C46.9284 57.0435 46.8899 57.1409 46.8513 57.2382C46.8834 57.5989 46.9154 57.9596 46.9474 58.3203ZM46.7792 61.135C46.8758 60.7918 46.8563 62.4844 46.8278 63.0519C46.8208 63.1899 46.7669 63.4352 46.7718 63.5349C46.7895 63.5956 46.8071 63.6563 46.8248 63.717C46.7596 63.7876 46.8153 64.8974 46.8433 65.3347C46.8193 65.3755 46.7954 65.4163 46.7714 65.4571C46.7783 65.6165 46.7853 65.7758 46.7922 65.9352C46.7692 65.9148 46.7462 65.8945 46.7232 65.8741C46.7495 65.995 46.7757 66.1159 46.8019 66.2368C46.826 66.7102 46.7034 66.4167 46.7378 66.7726C46.7759 67.1682 46.861 66.5222 46.91 66.5349C46.9021 66.2142 46.8845 65.4849 46.8879 65.1596C46.8899 64.9728 46.9749 65.1858 46.8855 64.3792C46.9117 64.2031 46.9379 64.0269 46.9642 63.8508C46.9314 63.5262 46.8987 63.2017 46.866 62.8772C46.8995 62.8172 46.9331 62.7573 46.9666 62.6974C46.9722 62.6629 46.9092 61.9125 46.8841 61.9522C46.951 61.6496 46.9713 61.0267 46.9842 60.3704C46.9674 60.3069 46.9506 60.2435 46.9338 60.18C46.9627 60.8154 46.912 60.3818 46.8753 60.5705C46.8541 60.6794 46.8106 61.013 46.7792 61.135ZM64.2604 77.274C65.1486 76.679 64.6068 77.0616 65.6092 76.4935C65.5185 76.4965 65.4277 76.4995 65.3369 76.5024C64.882 76.8488 64.0457 77.2639 64.2594 77.2745C64.2598 77.2743 64.2601 77.2741 64.2604 77.274ZM74.001 71.592C73.483 71.9149 73.7816 71.8211 73.1195 72.2205C73.1192 72.2206 73.1189 72.2208 73.1185 72.221C73.4686 72.028 73.8186 71.835 74.1687 71.6421C74.1128 71.6254 74.0569 71.6087 74.001 71.592ZM46.605 84.6321C46.632 84.0478 46.5975 84.1624 46.6708 83.6329C46.603 82.8418 46.6044 83.5106 46.5322 83.5096C46.5507 83.6904 46.5692 83.8713 46.5877 84.0521C46.5138 84.4888 46.4859 84.0732 46.4795 84.0731C46.4795 84.0735 46.4794 84.0738 46.4794 84.0742C46.4578 84.0739 46.4534 84.0596 46.4379 84.2273C46.4936 84.3623 46.5493 84.4972 46.605 84.6321ZM46.5529 82.1288C46.5979 82.33 46.658 82.4211 46.6965 81.8945C46.6965 81.8942 46.6965 81.8938 46.6966 81.8934C46.5901 81.8495 46.684 81.3456 46.6802 81.115C46.6695 81.0545 46.6588 80.9939 46.648 80.9333C46.6163 81.3318 46.5846 81.7303 46.5529 82.1288ZM46.5851 73.3118C46.7034 73.3113 46.7081 73.7538 46.8262 73.133C46.8259 73.0121 46.8256 72.8912 46.8253 72.7703C46.8005 72.6906 46.7757 72.6109 46.7509 72.5312C46.9876 71.0014 46.63 70.539 46.7279 73.1315C46.7279 73.1319 46.728 73.1323 46.7281 73.1326C46.6804 73.1924 46.6327 73.2521 46.5851 73.3118ZM46.5551 76.0117C46.6169 76.0321 46.6787 76.0525 46.7405 76.0729C46.5857 76.4092 46.7221 76.8486 46.6066 77.5109C46.6246 77.5713 46.6426 77.6316 46.6606 77.6919C46.6154 77.9394 46.5673 80.3761 46.6707 79.8496C46.7158 79.6197 46.6666 79.1168 46.6685 79.0736C46.6753 78.9273 46.7315 78.7371 46.732 78.4899C46.7323 78.347 46.6741 78.0449 46.6785 77.7534C46.6884 77.1015 46.8744 75.9143 46.7277 75.0548C46.7474 74.9934 46.767 74.932 46.7866 74.8705C46.7846 74.2344 46.7222 74.4458 46.8016 73.8551C46.5128 73.4419 46.781 76.2342 46.5504 75.6501C46.5504 75.6505 46.5504 75.6509 46.5504 75.6512C46.552 75.7714 46.5535 75.8916 46.5551 76.0117ZM50.7964 84.9052C50.8559 84.9323 51.4575 84.4975 51.3692 84.6933C51.5569 84.5362 51.7446 84.379 51.9323 84.2218C51.9249 84.2124 51.9175 84.2031 51.9101 84.1937C51.7065 84.3198 51.5028 84.4459 51.2992 84.572C51.2891 84.5561 51.2791 84.5403 51.2691 84.5245C50.9922 84.7592 49.6828 85.4675 49.6896 85.3875C49.6342 85.451 49.5788 85.5146 49.5234 85.5782C48.8872 85.8539 48.4049 86.212 47.7289 86.5229C47.7191 86.5261 47.7092 86.529 47.6993 86.5315C47.6887 86.5632 47.6761 86.5948 47.6619 86.6258C47.6398 86.6147 47.6182 86.6029 47.598 86.5901C47.4959 86.6231 47.3944 86.6326 47.2908 86.6204C47.1159 86.6288 47.1756 86.6928 47.329 86.7365C47.4793 86.7828 47.7076 86.7269 47.7515 86.6935C47.7612 86.687 47.7464 86.6567 47.7833 86.6187C47.7992 86.6064 47.8186 86.593 47.8423 86.5782C48.114 86.4088 49.6953 85.568 50.1611 85.2673C50.1811 85.2929 50.2011 85.3185 50.2211 85.3441C50.4129 85.1978 50.6046 85.0515 50.7964 84.9052ZM46.7621 69.8933C46.7954 69.8533 46.8288 69.8134 46.8621 69.7735C46.8397 69.0757 46.8748 68.6371 46.764 68.8143C46.7639 68.8146 46.7639 68.815 46.7639 68.8154C46.7633 69.1747 46.7627 69.534 46.7621 69.8933ZM64.914 50.8798C64.9321 50.8148 64.6597 50.6211 64.2672 50.4375C64.2751 50.4644 64.2831 50.4913 64.291 50.5182C64.5117 50.5873 64.7012 50.8151 65.3001 51.1634C65.3171 51.1355 65.334 51.1075 65.351 51.0795C65.2053 51.013 65.0597 50.9464 64.914 50.8798ZM46.7391 70.4947C46.6974 70.7067 46.8055 71.3049 46.8171 70.9125C46.8259 70.6125 46.7615 70.381 46.7391 70.4947ZM76.1189 70.4643C75.9784 70.5361 75.838 70.6078 75.6975 70.6796C75.6398 70.7443 75.5821 70.809 75.5244 70.8737C75.5247 70.8735 75.525 70.8733 75.5253 70.8731C75.7232 70.7369 75.921 70.6006 76.1189 70.4643ZM46.6427 86.1486C46.6066 86.0607 46.5868 85.9654 46.5863 85.8553C46.5883 85.5792 46.5903 85.3031 46.5923 85.0271C46.5742 85.0215 46.5562 85.0159 46.5381 85.0103C46.5918 85.5044 46.5328 85.7251 46.5183 85.8543C46.5171 85.8594 46.5163 85.8642 46.516 85.8687C46.516 85.8684 46.516 85.8682 46.516 85.8679C46.5024 86.0497 46.5385 86.2021 46.6108 86.3525C46.6115 86.2793 46.6231 86.2109 46.6427 86.1486ZM47.1158 86.7136C47.1155 86.5665 47.0768 86.6003 46.7618 86.4418C46.7601 86.4626 46.7591 86.4837 46.759 86.505C46.9076 86.6258 47.0282 86.6313 46.9676 86.6801C47.0168 86.6957 47.0666 86.7068 47.1158 86.7136ZM46.6041 80.0922C46.5618 80.1901 46.5912 80.9727 46.6124 80.9305C46.6208 80.9138 46.6869 79.9013 46.6041 80.0922ZM70.0051 53.9349C69.8559 53.8335 69.7067 53.732 69.5575 53.6306C69.7697 53.743 69.9818 53.8554 70.194 53.9678C70.131 53.9569 70.0681 53.9459 70.0051 53.9349ZM71.7911 54.805C71.8924 54.8855 71.4756 54.7675 72.1168 55.1913C71.6376 54.9035 71.1585 54.6157 70.6793 54.3279C70.9131 54.4479 71.1469 54.5679 71.3806 54.6879C71.3587 54.6359 71.3368 54.5838 71.3149 54.5318C71.4736 54.6229 71.6323 54.7139 71.7911 54.805ZM72.2603 55.1884C72.0484 54.9574 73.4069 55.7737 73.5276 55.8595C73.5544 55.8787 73.6537 56.0166 73.6955 56.0587C73.4909 55.9346 73.2862 55.8106 73.0815 55.6865C73.1391 55.7459 73.1968 55.8053 73.2544 55.8648C73.0112 55.7256 72.768 55.5865 72.5248 55.4473C72.6381 55.4915 72.7513 55.5356 72.8646 55.5798C72.6632 55.4493 72.4618 55.3189 72.2603 55.1884ZM66.8125 51.9086C66.9827 52.0144 67.1528 52.1202 67.323 52.2261C67.3058 52.1773 67.2885 52.1286 67.2712 52.0798C67.1687 52.0176 67.0661 51.9554 66.9636 51.8932C66.9132 51.8984 66.8628 51.9035 66.8125 51.9086ZM70.3254 53.9902C69.9943 53.9735 69.4931 53.2668 70.2215 53.8577C70.2948 53.9174 70.3569 53.9915 70.3254 53.9902ZM74.0258 56.1836C74.6181 56.4086 74.3663 56.5524 73.9019 56.1839C73.8786 56.1651 73.9814 56.1666 74.0258 56.1836ZM78.0219 58.6033C78.0646 58.6302 78.0975 58.7462 78.5499 58.9293C78.613 58.9786 78.6762 59.0278 78.7393 59.0771C78.5604 59.0131 77.1873 58.2068 77.4176 58.2513C77.6266 58.3766 77.8077 58.4704 78.0219 58.6033ZM76.8612 57.5441C76.6557 57.4221 76.4502 57.3001 76.2447 57.1781C76.2987 57.241 76.3528 57.3038 76.4068 57.3667C76.3027 57.3117 76.1985 57.2567 76.0944 57.2017C75.9456 57.0596 75.7968 56.9174 75.648 56.7753C76.0958 57.0387 76.5436 57.302 76.9914 57.5653C76.948 57.5582 76.9046 57.5512 76.8612 57.5441ZM71.462 54.1947C71.8384 54.4608 72.3379 54.7236 72.9735 55.1156C72.9737 55.1158 72.974 55.1161 72.9743 55.1164C73.0059 55.136 73.0441 55.2004 73.1459 55.2638C73.2326 55.3178 74.9771 56.3306 74.8116 56.3002C74.1165 55.9414 73.9096 55.7204 73.6805 55.7372C73.6625 55.6934 73.6446 55.6497 73.6266 55.606C73.0103 55.1753 72.7768 55.1473 72.398 54.9593C72.4104 54.942 72.4228 54.9248 72.4352 54.9076C72.1957 54.7598 71.9562 54.6121 71.7167 54.4643C71.7434 54.4968 71.7701 54.5293 71.7968 54.5617C71.7117 54.5101 71.6266 54.4585 71.5415 54.4068C71.3667 54.2275 71.1113 54.0555 71.462 54.1947ZM77.7698 58.136C78.0419 58.1134 79.8255 59.3238 80.6836 59.805C80.1921 59.6199 79.5429 59.1482 79.062 58.8553C78.1323 58.2893 78.7449 58.73 78.5736 58.6565C78.4889 58.6201 78.0145 58.2119 77.7698 58.136ZM70.0114 53.3477C70.4686 53.6402 70.7476 53.7662 71.1184 54.06C71.0787 54.0496 71.039 54.0392 70.9993 54.0289C70.8674 53.9363 69.7643 53.2276 70.0114 53.3477ZM81.8939 60.5882C81.0276 59.9954 81.3943 60.3878 80.9848 60.0119C81.2951 60.1921 81.6053 60.3722 81.9156 60.5523C81.9084 60.5643 81.9011 60.5763 81.8939 60.5882ZM46.1176 71.6852C46.1074 72.1268 46.0708 72.6196 46.1275 72.8846C46.1413 72.5846 46.1551 72.2847 46.1689 71.9847C46.1518 71.8849 46.1347 71.7851 46.1176 71.6852ZM45.7126 59.0824C45.6966 59.183 45.7335 59.5824 45.7329 59.6244C45.7318 59.7025 45.711 59.6808 45.7055 59.6819C45.7017 60.1929 45.7741 59.7224 45.7828 60.1007C45.7841 60.1654 45.7387 61.0531 45.736 61.4144C45.7318 61.9702 45.7194 62.5252 45.7174 62.7329C45.7141 63.0835 45.7535 63.7349 45.7475 64.3111C45.745 64.5486 45.7044 64.631 45.7019 64.8698C45.6858 66.4028 45.6951 69.4214 45.65 70.7811C45.6389 71.1171 45.5827 71.4368 45.5842 71.6145C45.6009 71.7549 45.6177 71.8953 45.6344 72.0357C45.4588 72.4642 45.6072 72.6106 45.6161 73.0754C45.6217 73.3707 45.5695 73.5079 45.569 73.5475C45.5661 73.8104 45.5881 73.9404 45.589 74.1469C45.5899 74.3786 45.5624 74.7112 45.5652 74.794C45.5672 74.8449 45.6363 74.6835 45.6217 75.5824C45.6068 76.4984 45.5864 77.4027 45.5695 78.3343C45.7752 78.0265 45.6415 77.7569 45.6398 77.3765C45.6393 77.2744 45.6703 77.3396 45.6702 77.2507C45.6701 76.9998 45.6459 76.519 45.6565 76.3115C45.6681 76.0873 45.741 76.1651 45.7179 75.8803C45.7167 75.8659 45.6854 75.9109 45.6813 75.8439C45.6407 75.171 45.6971 74.9517 45.7112 74.1018C45.7207 73.5387 45.741 70.1184 45.7627 70.0014C45.8788 69.3907 45.8262 72.9943 45.8115 73.4155C45.8063 73.563 45.7749 73.4079 45.7664 73.5422C45.763 73.5991 45.8197 74.1123 45.8176 74.6187C45.815 75.231 45.7529 76.4606 45.7458 77.0441C45.71 79.9914 45.6566 82.9145 45.6033 85.8408C45.514 87.128 47.1232 88.0984 48.2278 87.4031C48.799 87.0808 49.3706 86.7576 49.9429 86.4334C50.0359 86.3807 50.1393 86.2778 50.4421 86.1061C56.0951 82.9029 61.9686 79.6088 67.6843 76.3483C68.9304 75.6375 70.1503 74.9044 71.4241 74.2155C71.5665 74.1024 71.7089 73.9893 71.8513 73.8763C71.4626 74.1223 70.6987 74.4821 70.6315 74.5191C70.6073 74.5324 70.4714 74.646 70.2262 74.783C69.8815 74.9758 69.7172 75.0373 69.689 75.0532C69.6016 75.1027 69.6733 75.0957 69.5897 75.1429C68.9666 75.4946 68.4891 75.7749 67.9179 76.0989C67.2727 76.4649 66.9186 76.6029 66.4782 76.9214C66.4135 76.9312 66.3487 76.9411 66.284 76.9509C65.9827 77.2378 63.8862 78.4132 63.0366 78.8886C62.7685 79.0386 62.7952 78.9763 62.7054 79.0272C62.6481 79.0598 62.6972 79.0937 61.9927 79.4808C61.6381 79.6756 61.5265 79.6939 61.3506 79.7951C61.2551 79.8501 61.2898 79.875 61.152 79.9531C60.3551 80.4048 59.6983 80.7626 58.9146 81.1985C58.6943 81.3211 58.6759 81.2943 58.627 81.3225C58.447 81.4262 58.1597 81.6521 57.7002 81.9124C56.9439 82.3407 55.4367 83.1947 54.8053 83.522C54.7125 83.5701 54.618 83.579 54.5515 83.6173C54.4508 83.6756 54.431 83.7333 54.4134 83.7436C54.0753 83.936 54.2603 83.7878 54.0382 83.9242C53.9184 83.9978 53.8138 84.1102 53.5324 84.2757C53.1609 84.4943 53.2076 84.4047 53.0537 84.4983C53.0375 84.5084 53.0514 84.5444 52.8981 84.6327C52.3165 84.9676 51.4739 85.4553 50.9214 85.7683C50.7626 85.8582 50.632 85.9028 50.4104 86.0279C50.1274 86.1876 49.0082 86.8293 48.1719 87.3044C47.7641 87.5398 47.379 87.5225 47.3112 87.5156C47.2925 87.5111 47.4975 87.4704 47.1715 87.4487C47.0743 87.4605 46.9735 87.4631 46.8713 87.4558C46.7231 87.3705 46.5926 87.2645 46.4846 87.1457C46.4533 87.2029 46.2259 87.0983 46.0693 86.9095C45.908 86.7246 45.8438 86.4851 45.9083 86.4671C45.875 86.3723 45.8514 86.2748 45.8374 86.1756C45.7674 86.0738 45.7444 85.976 45.7358 85.8427C45.7295 85.7064 45.7257 85.5399 45.7046 85.3021C45.7339 85.2216 45.7632 85.141 45.7924 85.0604C45.774 85.0397 45.7556 85.0191 45.7372 84.9984C45.8427 84.7226 45.7476 84.2663 45.7479 84.2111C45.7488 83.9986 45.7769 83.8394 45.7775 83.7398C45.7804 83.3676 45.7568 82.5616 45.7797 82.1273C45.7808 82.1069 45.8239 82.1276 45.8311 82.0041C45.8441 81.7812 45.7809 81.7585 45.8599 81.4622C45.842 81.4019 45.8242 81.3415 45.8064 81.2812C45.817 81.2176 45.8276 81.154 45.8383 81.0905C45.8389 80.7143 45.8395 80.3381 45.8401 79.9618C45.9084 80.3051 45.9552 79.912 45.903 79.539C45.8853 79.4128 45.8389 79.5238 45.8328 79.4817C45.8245 79.424 45.8722 77.7363 45.9027 77.625C45.8899 77.5449 45.877 77.4648 45.8641 77.3847C45.8928 77.3448 45.9216 77.3048 45.9503 77.2648C45.9411 77.2206 45.9319 77.1763 45.9227 77.1321C45.9788 76.6935 45.882 75.5516 45.894 75.345C45.9004 75.2347 46.019 75.3358 46.0145 74.8062C45.9819 74.7874 45.9492 74.7685 45.9165 74.7496C45.9136 74.6284 45.9107 74.5071 45.9077 74.3858C45.914 74.1584 45.976 73.8281 46.0153 73.8181C45.9929 73.7467 45.9705 73.6753 45.9481 73.6038C46.0273 73.4141 46.0153 72.3958 45.973 71.9857C45.9978 71.8662 46.0226 71.7468 46.0474 71.6274C46.0218 71.4661 45.9962 71.3048 45.9706 71.1435C45.9677 70.7707 46.0084 71.1651 46.0135 71.0858C46.024 70.9178 45.9581 70.0602 46.0551 70.1181C46.0571 70.0013 46.0591 69.8845 46.0611 69.7677C46.034 69.7072 46.0069 69.6468 45.9798 69.5863C46.0792 69.3872 46.0503 69.0398 46.096 68.3288C46.0747 68.2687 46.0534 68.2087 46.032 68.1487C46.0669 67.9292 46.1017 67.7096 46.1365 67.4901C46.1004 67.4443 46.0643 67.3986 46.0282 67.3529C46.0243 67.2571 46.0205 67.1614 46.0166 67.0656C46.1019 66.8724 46.018 66.522 46.0546 66.3448C46.108 66.0862 46.1642 66.2876 46.1684 66.7691C46.229 66.734 46.2227 65.2997 46.2232 64.969C46.2111 64.9907 46.1991 65.0124 46.1871 65.034C46.1913 65.3723 46.1956 65.7105 46.1999 66.0488C46.0448 66.3298 46.0988 65.4123 46.0856 64.9906C46.0843 64.9521 46.0304 64.7329 46.042 64.3083C46.0466 64.1439 46.1396 63.5036 46.1461 63.3813C46.1989 62.393 46.0687 63.1183 46.1877 62.1524C46.1046 62.3529 46.1794 61.798 46.1725 61.2192C46.1713 61.1206 46.1187 60.2845 46.1178 60.228C46.1126 59.8762 46.1778 60.2601 46.1669 59.751C46.1491 59.6895 46.1314 59.6281 46.1137 59.5667C46.1154 59.4482 46.1172 59.3297 46.1189 59.2113C46.2956 58.4949 46.1758 58.3259 46.1639 58.0701C46.1591 57.9668 46.2005 58.1003 46.1953 57.8325C46.1934 57.7316 46.159 57.6193 46.1604 57.3481C46.1651 56.4994 46.3237 56.2136 46.1747 55.4311C46.1997 55.3117 46.2248 55.1923 46.2498 55.0729C46.2231 54.9916 46.1964 54.9104 46.1697 54.8292C46.2598 54.2123 46.1735 54.4342 46.1778 54.211C46.1891 53.6216 46.2228 52.4155 46.2912 52.3109C46.1453 51.7997 46.3274 51.1938 46.3244 50.9931C46.3075 50.8737 46.2906 50.7542 46.2738 50.6347C46.2945 50.4949 46.3153 50.355 46.3361 50.2152C46.1845 50.2811 46.3434 49.5575 46.3466 49.4879C46.3501 49.4075 46.322 48.2906 46.329 47.8751C46.336 47.4602 46.3875 46.7377 46.3885 46.6741C46.3896 46.6008 46.3591 45.894 46.3677 45.3418C46.3753 44.8586 46.4759 41.9969 46.4061 42.1763C46.3847 42.3633 46.3646 42.6296 46.3525 42.86C46.3151 43.5751 46.2187 47.7739 46.1921 48.8469C46.1389 50.9988 46.1096 53.2435 46.063 55.4052C46.0603 55.5323 46.0209 55.5511 46.0184 55.6602C46.0149 55.8259 46.0477 56.2468 46.0444 56.4101C46.032 57.0198 46.0147 57.7617 46.0089 58.0882C45.9961 58.8179 45.9652 59.3181 45.9532 59.8701C45.9495 60.043 45.985 60.9176 45.9557 61.5163C45.9431 61.6247 45.9305 61.7331 45.9179 61.8414C45.9096 61.5327 45.8884 60.7228 45.8902 60.347C45.893 59.7877 45.929 59.4965 45.9315 59.2901C45.9336 59.1172 45.9106 58.2334 45.9157 57.8311C45.9173 57.7062 45.9586 57.6812 45.9601 57.5744C45.9677 56.9946 45.9779 56.231 45.9452 55.7275C45.9552 55.9329 45.9993 54.6514 46.0002 54.5842C46.0019 54.469 45.9654 54.3434 45.9689 54.1082C45.9756 53.6558 46.0549 53.7143 45.9831 53.1478C46.0085 53.0082 46.034 52.8686 46.0594 52.729C45.9528 52.7188 46.1241 50.9526 46.0018 50.4477C45.9874 50.4343 45.9118 52.7317 45.9069 52.9213C45.8772 54.059 45.8785 55.7434 45.8434 56.8474C45.8328 57.1797 45.7524 58.2238 45.7525 58.3026C45.7524 58.4298 45.7913 58.3155 45.7918 58.3704C45.8027 59.4953 45.7364 58.9332 45.7126 59.0824ZM72.5217 54.7553C72.2319 54.5744 71.9421 54.3934 71.6523 54.2125C71.6856 54.2053 71.719 54.1981 71.7523 54.191C71.8814 54.2799 72.0105 54.3689 72.1396 54.4578C72.2497 54.5083 72.3598 54.5587 72.4699 54.6091C72.4872 54.6579 72.5045 54.7066 72.5217 54.7553ZM73.2925 55.1081C73.552 55.2517 73.5387 55.3014 73.5959 55.3389C73.7666 55.451 73.9278 55.5255 74.0968 55.6288C73.8409 55.6109 73.4534 55.3129 73.2925 55.1081ZM68.0825 51.8984C68.1367 51.9378 68.4524 52.2772 68.9471 52.4397C69.2522 52.6684 69.5573 52.8972 69.8623 53.1259C69.3407 52.7428 68.5472 52.3308 68.2784 52.1651C68.1763 52.1022 68.1769 52.0571 68.0953 52.0069C67.6247 51.7179 67.1201 51.5146 67.1385 51.3754C67.5656 51.6782 68.0132 51.8483 68.0825 51.8984ZM70.9082 53.6658C70.9699 53.7346 71.0315 53.8034 71.0931 53.8722C70.8201 53.7066 70.5472 53.541 70.2742 53.3755C70.3621 53.397 70.4501 53.4185 70.538 53.4401C70.6614 53.5153 70.7848 53.5906 70.9082 53.6658ZM49.9565 40.8528C50.1246 40.9552 50.2928 41.0576 50.461 41.16C50.4619 41.1377 50.2693 41.0209 50.2052 40.9666C50.2055 40.9668 50.2058 40.967 50.2061 40.9672C50.1348 40.9064 50.1817 40.9054 50.0438 40.8087C50.0147 40.8234 49.9856 40.8381 49.9565 40.8528ZM72.1003 73.8317C72.3881 73.6701 75.0397 72.1674 74.7787 72.2333C74.6472 72.2668 73.7557 72.8079 73.488 72.9589C73.1272 73.1626 72.1157 73.6472 72.1003 73.8317ZM76.8032 71.1821C76.814 71.0942 75.1513 72.0236 74.9954 72.1262C75.0348 72.1155 75.0989 72.1051 75.1473 72.0836C75.3829 71.9782 76.4363 71.3677 76.8032 71.1821ZM46.1068 47.0705C46.145 46.9175 46.1833 46.7645 46.2215 46.6115C46.1741 46.6512 46.1267 46.6909 46.0793 46.7307C46.0885 46.8439 46.0976 46.9572 46.1068 47.0705ZM45.9378 61.9652C45.8976 64.5229 45.8575 67.0807 45.8174 69.6384C45.8012 69.4132 45.7851 69.1879 45.769 68.9626C45.8085 66.7588 45.863 64.4086 45.8645 62.2799C45.8889 62.175 45.9134 62.0701 45.9378 61.9652ZM67.5755 51.3444C67.0155 51.0039 66.5296 50.7494 65.9483 50.3328C66.5568 50.6399 66.8019 50.8845 67.4069 51.1602C67.4072 51.1604 67.4076 51.1606 67.4079 51.1608C67.4638 51.222 67.5196 51.2832 67.5755 51.3444ZM55.0715 43.7431C55.2589 43.8185 55.4462 43.8939 55.6336 43.9693C55.4286 43.845 55.2237 43.7206 55.0188 43.5963C55.0363 43.6452 55.0539 43.6942 55.0715 43.7431ZM45.4256 84.2735C45.4566 84.6203 45.4323 85.2387 45.4107 85.8379C45.3761 86.4191 45.6728 86.9455 45.8826 87.1099C45.9098 87.126 45.7303 86.8883 46.1189 87.1946C45.8379 86.9537 45.7175 86.7123 45.6535 86.7127C45.6197 86.6026 45.5966 86.4903 45.5844 86.3792C45.5213 86.2084 45.4836 86.0257 45.4725 85.8388C45.4724 85.8368 45.4722 85.8347 45.4721 85.8327C45.4796 85.8358 45.4861 85.8381 45.4915 85.8391C45.4947 85.8397 45.4976 85.8398 45.5002 85.8393C45.5241 85.8341 45.5168 85.7718 45.491 85.5326C45.507 85.3933 45.5229 85.2539 45.5389 85.1145C45.5165 85.055 45.4941 84.9955 45.4717 84.9361C45.5061 84.8157 45.5404 84.6953 45.5747 84.575C45.5464 84.1034 45.4791 84.3894 45.4256 84.2735ZM45.4746 81.8742C45.4608 81.9855 45.4532 85.1642 45.5842 83.7215C45.5863 83.346 45.5883 82.9706 45.5904 82.5951C45.4043 82.9034 45.5817 81.8827 45.5868 81.7987C45.6105 81.397 45.5749 80.884 45.5815 80.5923C45.5871 80.3415 45.6219 80.193 45.6237 80.0165C45.6298 79.4155 45.6426 78.4661 45.5695 78.3343C45.561 78.8015 45.5532 79.276 45.5478 79.7619C45.5422 80.2757 45.4647 80.7263 45.5476 81.6929C45.5336 81.9314 45.4781 81.8455 45.4746 81.8742ZM56.1427 44.287C56.0831 44.339 57.1296 44.9527 57.1517 44.9313C57.1628 44.9176 56.8248 44.713 56.78 44.6781C56.7797 44.6779 56.7794 44.6777 56.7791 44.6775C56.7605 44.6629 56.8775 44.7001 56.7229 44.5969C56.5295 44.4936 56.3361 44.3903 56.1427 44.287ZM68.0593 76.316C68.2228 76.2719 71.4742 74.4116 71.5602 74.3395C71.5835 74.3198 71.538 74.3243 71.543 74.3091C70.8122 74.792 69.6965 75.3431 68.9725 75.7481C68.7707 75.861 68.8457 75.853 68.8345 75.86C68.8341 75.8603 68.8336 75.8605 68.8331 75.8608C68.719 75.9256 68.1675 76.1539 68.0593 76.316ZM46.8516 87.6916C46.7097 87.6394 46.5753 87.5706 46.4517 87.488C46.4075 87.4901 46.3627 87.4905 46.3173 87.4891C46.3176 87.4893 46.3179 87.4895 46.3182 87.4897C46.4863 87.5835 46.6669 87.6516 46.8516 87.6916ZM51.7593 85.6352C51.7174 85.64 51.6756 85.6448 51.6338 85.6496C51.2838 85.8453 50.9339 86.0411 50.5839 86.2368C50.6145 86.2088 50.6451 86.1808 50.6757 86.1528C50.136 86.4302 49.946 86.6042 49.661 86.7563C49.6613 86.7561 49.6616 86.7559 49.6619 86.7557C49.6312 86.772 49.5777 86.7629 49.4647 86.8257C49.2055 86.9695 48.4601 87.3773 48.3878 87.4579C48.2351 87.629 49.7053 86.7556 49.9843 86.6014C50.1104 86.5317 50.2759 86.4723 50.3525 86.4297C50.4364 86.3829 50.5302 86.2832 50.7343 86.169C50.794 86.1356 51.4775 85.8029 51.7593 85.6352ZM57.8923 82.1026C57.7664 82.1314 57.5595 82.2898 57.474 82.3313C57.4536 82.3412 57.5916 82.2273 57.4012 82.3246C57.359 82.3728 57.3169 82.421 57.2748 82.4692C57.4806 82.347 57.6864 82.2248 57.8923 82.1026ZM57.9039 45.3136C57.8782 45.2887 57.3199 44.9534 57.2905 44.9415C56.9218 44.797 58.079 45.4903 57.9039 45.3136ZM71.9965 53.7714C71.7913 53.532 74.7803 55.4581 75.0775 55.6323C75.0307 55.6762 74.34 55.1846 74.6747 55.4868C74.3375 55.2277 73.3258 54.643 73.0978 54.4888C72.9594 54.3953 72.951 54.3278 72.9303 54.3133C72.8489 54.2569 72.0688 53.8558 71.9965 53.7714ZM77.5668 57.1914C77.2841 57.0062 77.0014 56.821 76.7187 56.6358C77.0631 56.8366 77.4075 57.0373 77.7519 57.238C77.6902 57.2225 77.6285 57.207 77.5668 57.1914ZM77.9446 57.3878C77.9665 57.331 78.9231 57.9646 79.1879 58.1091C78.8446 58.02 78.4099 57.6439 77.9446 57.3878ZM61.6777 47.422C61.2466 47.1142 60.9579 47.1525 61.5482 47.4177C61.5663 47.4256 61.6955 47.4352 61.6777 47.422ZM45.1664 84.4328C45.164 84.5228 45.0882 85.642 45.1165 85.7073C45.207 85.9137 45.1804 85.1781 45.2193 84.9323C45.2824 84.5358 45.3209 85.1209 45.3007 84.1504C45.3189 84.1904 45.337 84.2303 45.3551 84.2703C45.3697 83.7027 45.2373 83.8866 45.2222 83.7844C45.2176 83.7532 45.2337 83.3984 45.2264 83.3343C45.1338 82.5328 45.1685 84.3493 45.1664 84.4328ZM50.5045 40.6282C49.6435 40.0424 49.9714 40.3328 49.0888 39.7939C49.0785 39.7876 49.0679 39.7812 49.0572 39.7749C49.0518 39.7766 49.0617 39.7862 49.0835 39.8027C49.2692 39.945 50.3825 40.5921 50.5045 40.6282ZM45.392 74.1946C45.3921 75.2824 45.325 76.176 45.3823 77.1913C45.4945 77.127 45.4249 73.913 45.392 74.1946ZM79.1395 70.4396C75.3601 72.3539 71.1457 74.8176 67.2274 77.042C66.8004 77.2843 66.7377 77.2692 66.5855 77.3609C66.4857 77.421 66.521 77.4419 66.3865 77.5183C61.5253 80.2802 56.8909 82.9604 52.2211 85.5828C51.9269 85.7479 50.4614 86.4907 50.2131 86.7638C50.0255 86.9705 51.0176 86.3299 51.189 86.2337C51.3177 86.1614 51.3434 86.194 51.4291 86.1456C51.52 86.0942 51.4311 86.1123 51.5364 86.0522C51.9825 85.7971 52.4756 85.5302 52.8786 85.299C56.831 83.0325 60.6904 80.8526 64.6351 78.6213C65.1126 78.3511 65.0307 78.4353 65.0548 78.4218C65.0551 78.4216 65.0553 78.4213 65.0556 78.4211C67.6161 76.9734 70.5021 75.2528 73.2264 73.7411C75.1462 72.6791 77.0659 71.617 78.9857 70.5549C79.0369 70.5165 79.0882 70.4781 79.1395 70.4396ZM45.3167 82.1122C45.1887 82.384 45.3128 82.4471 45.2477 83.4283C45.2677 83.5085 45.2876 83.5887 45.3076 83.6689C45.3107 83.1494 45.3137 82.63 45.3168 82.1105C45.3168 82.1111 45.3168 82.1116 45.3167 82.1122ZM46.9199 87.9643C46.9718 88.069 47.744 88.2366 48.4575 87.8082C49.0418 87.4706 49.6905 87.0805 50.1125 86.859C50.2287 86.6964 48.9968 87.4381 48.6975 87.5976C48.6539 87.6208 48.5523 87.6689 48.4159 87.7349C48.0666 87.9231 47.4266 88.0404 46.9137 87.9455C46.9157 87.9518 46.9178 87.958 46.9199 87.9643ZM68.9445 51.6323C68.8053 51.5536 68.6661 51.4749 68.527 51.3962C68.8592 51.6194 69.1915 51.8427 69.5238 52.0659C68.9846 51.7249 68.4454 51.3838 67.9061 51.0427C68.0258 51.0746 68.1454 51.1066 68.265 51.1385C68.4915 51.3031 68.718 51.4677 68.9445 51.6323ZM67.1657 50.5741C68.1276 51.1423 67.0822 50.617 66.8653 50.4371C66.7355 50.3293 67.0674 50.5162 67.1657 50.5741ZM64.7124 49.0161C65.1895 49.2341 66.0918 49.7766 65.7087 49.6866C65.2569 49.3458 64.922 49.1981 64.241 48.7467C64.355 48.7885 64.4691 48.8304 64.5831 48.8722C64.5836 48.8725 64.584 48.8728 64.5845 48.8731C64.6271 48.9207 64.6698 48.9684 64.7124 49.0161ZM67.6402 50.7757C68.2294 51.215 66.4307 50.096 67.0239 50.4019C67.0517 50.4163 67.6169 50.7585 67.6402 50.7757ZM75.1316 72.856C75.1887 72.7779 74.6995 73.0561 74.5353 73.1461C73.8235 73.5359 72.9266 74.0642 72.1897 74.4755C72.2514 74.4556 72.3132 74.4357 72.3749 74.4157C73.2938 73.8958 74.2127 73.3759 75.1316 72.856ZM69.8928 75.7771C69.3883 76.063 68.8839 76.3489 68.3794 76.6349C68.3324 76.6615 68.1287 76.8162 68.2968 76.7305C68.8288 76.4127 69.3608 76.0949 69.8928 75.7771ZM45.1322 78.4485C45.1033 78.8928 45.008 77.6109 45.1296 77.6704C45.1304 77.9298 45.1313 78.1891 45.1322 78.4485ZM45.1446 74.3111C45.1521 74.5901 45.1596 74.869 45.1671 75.148C45.1531 75.1482 45.139 75.1483 45.1249 75.1485C45.1315 74.8694 45.138 74.5902 45.1446 74.3111ZM77.1287 71.7564C76.848 71.8601 76.2387 72.214 75.8559 72.4298C76.1396 72.3166 76.7571 71.9432 77.1287 71.7564ZM44.9843 85.1085C45.0001 85.0916 45.0007 85.4828 44.9916 85.8317C44.9798 86.2839 45.1012 86.6781 44.979 86.3067C44.9544 86.1481 44.9459 85.9896 44.9521 85.8311C44.9629 85.5903 44.9736 85.3494 44.9843 85.1085ZM46.9873 88.2731C46.5255 88.2082 46.2174 88.0061 46.3243 88.0075C46.5377 88.1133 46.7677 88.1877 47.0046 88.2261C46.9989 88.2418 46.9931 88.2574 46.9873 88.2731ZM63.0677 47.9036C62.5188 47.5761 61.9699 47.2485 61.4209 46.921C61.4485 46.9213 61.4761 46.9215 61.5036 46.9218C62.0329 47.2375 62.5621 47.5532 63.0914 47.8689C63.0835 47.8804 63.0756 47.892 63.0677 47.9036ZM77.5055 71.6882C77.8829 71.4637 78.2603 71.2393 78.6376 71.0148C78.2508 71.2232 77.8639 71.4317 77.477 71.6401C77.4862 71.6564 77.4954 71.6727 77.5047 71.6889C77.505 71.6887 77.5052 71.6884 77.5055 71.6882ZM70.649 52.2891C69.0135 51.2202 71.1798 52.4531 71.5703 52.8028C71.5708 52.803 71.5713 52.8032 71.5718 52.8034C71.606 52.8341 71.503 52.8199 71.5586 52.8731C71.3984 52.7541 71.2381 52.6351 71.0778 52.516C70.9108 52.4419 70.7438 52.3677 70.5767 52.2935C70.5304 52.2547 70.4841 52.216 70.4378 52.1772C70.5082 52.2145 70.5786 52.2518 70.649 52.2891ZM77.4061 56.345C78.9161 57.2698 77.3136 56.4184 76.6065 55.8942C76.6217 55.8814 77.267 56.2598 77.4061 56.345ZM73.4272 53.9574C73.1838 53.8207 72.9404 53.684 72.697 53.5473C72.6727 53.5188 72.6483 53.4902 72.624 53.4616C72.8132 53.5627 73.0024 53.6637 73.1915 53.7648C73.2701 53.829 73.3487 53.8932 73.4272 53.9574ZM65.6764 49.0429C65.2992 48.7989 64.7415 48.6141 65.992 49.3322C65.9986 49.3198 66.0053 49.3074 66.012 49.295C65.9617 49.2671 65.8107 49.1909 65.8033 49.1853C65.7826 49.1686 65.8336 49.1445 65.6764 49.0429ZM80.4017 57.7283C80.4476 57.7499 80.5481 57.6372 80.9168 58.0405C81.0572 58.1147 81.1975 58.1889 81.3379 58.2631C81.356 58.3123 81.374 58.3615 81.3921 58.4108C80.8807 58.0709 80.7908 58.0938 80.7521 58.0719C80.5745 57.9714 80.7212 58.0206 80.6089 57.952C80.3191 57.7748 79.6472 57.394 79.9969 57.4925C80.1228 57.5281 80.3558 57.7068 80.4017 57.7283ZM79.4199 57.034C79.477 57.0832 79.2496 56.996 79.2913 57.0356C79.3278 57.0703 79.937 57.4917 79.7278 57.4506C79.6256 57.385 79.5234 57.3194 79.4212 57.2538C79.3965 57.2153 79.3717 57.1767 79.347 57.1382C79.2368 57.0931 79.1267 57.048 79.0166 57.0029C78.8729 56.8578 78.5458 56.5842 78.9948 56.8093C78.8353 56.7174 78.6757 56.6256 78.5162 56.5338C78.4223 56.5046 78.3285 56.4755 78.2347 56.4464C78.2962 56.4413 78.3577 56.4363 78.4192 56.4312C78.7527 56.6321 79.0863 56.8331 79.4199 57.034ZM84.2907 60.0048C84.2619 60.0092 84.233 60.0136 84.2041 60.018C84.8001 60.3388 85.7069 60.8734 85.1349 60.6637C84.347 60.1972 83.5591 59.7307 82.7712 59.2641C82.7265 59.2206 82.6818 59.177 82.6371 59.1334C83.193 59.5341 83.1322 59.2272 83.606 59.5921C83.6858 59.6536 83.3954 59.5718 83.9606 59.8543C83.9512 59.8266 83.9418 59.7989 83.9324 59.7712C84.0518 59.8491 84.1713 59.927 84.2907 60.0048ZM88.3604 65.0967C88.6321 63.3676 88.52 65.3187 88.2213 65.5824C88.2215 65.5818 88.2217 65.5813 88.222 65.5808C87.9436 65.9421 88.0669 65.709 88.2071 65.366C88.3532 65.0209 88.4258 64.5284 88.4235 64.4714C88.4153 64.3138 88.3979 63.9861 88.2648 63.1501C88.5093 63.7711 88.5407 64.4599 88.3604 65.0967ZM86.0282 61.059C86.1132 61.1063 86.0525 61.1026 86.0886 61.124C86.089 61.1242 86.0893 61.1244 86.0896 61.1246C86.3163 61.259 86.6769 61.4707 87.0234 61.682C87.747 62.0983 88.1365 62.8668 88.1331 63.0048C88.0196 62.7467 87.6165 62.1135 86.9837 61.7474C86.4015 61.3951 85.7928 61.0159 85.75 60.948C85.8427 60.985 85.9355 61.022 86.0282 61.059ZM82.2658 58.8562C81.9713 58.6085 82.7074 59.0458 82.8852 59.1856C82.9183 59.2127 82.571 59.1129 82.2658 58.8562ZM57.4017 43.5958C56.6678 43.1922 57.5895 43.7927 57.2353 43.6428C57.3744 43.7216 57.5135 43.8005 57.6525 43.8793C57.5689 43.7848 57.4853 43.6903 57.4017 43.5958ZM44.3979 66.3825C44.3885 66.5774 44.4237 66.4856 44.424 66.5025C44.4211 66.6306 44.3917 66.751 44.3939 66.8002C44.4362 67.71 44.4736 67.1059 44.4804 67.0969C44.5142 67.0781 44.5499 67.3177 44.5931 66.9872C44.5842 66.7861 44.5753 66.585 44.5664 66.3839C44.5865 66.2845 44.6066 66.185 44.6267 66.0856C44.5926 65.6858 44.5739 66.208 44.52 66.2664C44.4988 66.2889 44.4794 65.9131 44.3979 66.3825ZM56.178 42.7222C56.0315 42.7022 55.7086 42.5933 55.9571 42.8132C55.9575 42.8134 55.9578 42.8136 55.9581 42.8138C56.0041 42.8544 56.2113 42.987 56.268 43.0392C56.7693 43.2515 56.6349 43.0751 56.178 42.7222ZM44.3458 62.7771C44.3644 62.4533 44.3829 62.1295 44.4015 61.8058C44.4367 61.8118 44.4719 61.8178 44.5071 61.8238C44.4951 61.9971 44.483 62.1703 44.4709 62.3435C44.4861 62.4046 44.5013 62.4656 44.5165 62.5266C44.56 62.312 44.6034 62.0973 44.6469 61.8827C44.6367 61.6231 44.6264 61.3636 44.6162 61.1041C44.5958 61.223 44.5754 61.3419 44.555 61.4608C44.5438 60.8267 44.6277 60.966 44.6682 60.4419C44.6382 60.2618 44.6081 60.0817 44.5781 59.9016C44.6148 59.642 44.6515 59.3824 44.6883 59.1229C44.6794 58.6857 44.6549 58.6469 44.6131 58.9404C44.5735 58.7226 44.6443 58.4857 44.6308 58.2237C44.6297 58.2021 44.5887 58.2422 44.5885 58.2231C44.5814 56.8698 44.6862 56.9434 44.6939 56.7274C44.6993 56.5749 44.6368 55.9651 44.6126 55.9552C44.5799 55.943 44.4317 57.2071 44.4576 55.2243C44.3529 56.2481 44.4268 57.4148 44.5694 56.6632C44.5514 56.9875 44.563 58.4186 44.5577 58.5098C44.5498 58.6427 44.5006 58.5953 44.4968 58.7618C44.4946 58.8602 44.6048 59.1227 44.4936 59.9003C44.5109 60.0002 44.5281 60.1 44.5454 60.1998C44.5286 60.2929 44.5118 60.3859 44.4951 60.479C44.4431 60.2861 44.3911 60.0932 44.3391 59.9002C44.3874 60.6621 44.2661 61.2918 44.3536 61.7565C44.3367 62.157 44.3229 62.3515 44.2773 62.1787C44.2755 62.2989 44.2737 62.4192 44.2719 62.5395C44.2966 62.6187 44.3212 62.6979 44.3458 62.7771ZM54.0321 41.5191C53.7201 41.2657 53.5364 41.2925 53.5859 41.3303C53.8654 41.5429 54.1945 41.6509 54.0321 41.5191ZM44.4713 65.6606C44.5083 65.2217 44.5452 64.7829 44.5822 64.344C44.5448 64.3434 44.5075 64.3429 44.4701 64.3423C44.4705 64.7818 44.4709 65.2212 44.4713 65.6606ZM57.5499 43.5875C57.5699 43.6324 57.5899 43.6773 57.6099 43.7221C58.0744 43.8843 58.4069 44.2575 58.6259 44.355C58.6735 44.3761 58.61 44.2798 58.5314 44.2197C58.4825 44.1823 57.6276 43.6236 57.5499 43.5875ZM74.6718 53.9891C74.5088 53.9122 74.3458 53.8353 74.1828 53.7584C74.2076 53.7366 74.2324 53.7149 74.2572 53.6931C74.3359 53.734 74.4147 53.7749 74.4934 53.8158C74.5529 53.8736 74.6124 53.9313 74.6718 53.9891ZM72.9017 52.9739C72.6296 52.8059 72.3575 52.6379 72.0854 52.4699C73.1433 53.0778 72.2947 52.5466 72.9492 52.8957C72.9334 52.9218 72.9176 52.9479 72.9017 52.9739ZM70.1674 51.2408C70.2107 51.2451 70.2541 51.2494 70.2974 51.2537C70.5708 51.4196 70.8443 51.5854 71.1177 51.7513C70.9786 51.5906 70.8396 51.4299 70.7005 51.2692C70.6004 51.2083 70.5003 51.1474 70.4002 51.0865C70.3226 51.1379 70.245 51.1894 70.1674 51.2408ZM44.1297 75.0175C44.1257 75.2107 44.1728 75.884 44.1942 75.8555C44.2241 75.5766 44.254 75.2976 44.284 75.0187C44.2466 75.0168 44.2092 75.015 44.1717 75.0131C44.191 74.9739 44.2102 74.9347 44.2294 74.8955C44.2178 74.7364 44.2061 74.5774 44.1945 74.4183C44.2284 74.3387 44.2623 74.2591 44.2962 74.1795C44.26 74.0985 44.2238 74.0175 44.1877 73.9365C44.1101 74.7026 44.1767 74.6772 44.1736 74.8368C44.1721 74.9178 44.1482 74.9686 44.1361 74.9972C44.134 75.0039 44.1318 75.0107 44.1297 75.0175ZM44.2376 65.3535C44.2147 66.2692 44.3055 66.7941 44.2133 67.4555C44.3951 67.0331 44.2544 64.2863 44.4152 63.3209C44.3885 63.22 44.3618 63.1191 44.3352 63.0183C44.3524 63.5455 44.289 63.9097 44.2769 64.1664C44.2673 64.3704 44.2971 64.3495 44.2964 64.3651C44.2964 64.3659 44.2964 64.3666 44.2964 64.3673C44.2772 64.8449 44.2466 64.9923 44.2376 65.3535ZM58.2031 43.8227C58.0157 43.657 57.6452 43.4374 57.6074 43.4905C57.8026 43.6309 57.9978 43.7712 58.193 43.9116C58.1595 43.8719 58.2351 43.851 58.2031 43.8227ZM69.9434 50.8928C69.7902 50.7751 69.3925 50.5556 69.5308 50.705C69.5557 50.7318 69.9626 50.9325 69.6834 50.8816C70.0608 51.1086 70.0305 50.9598 69.9434 50.8928ZM44.6023 49.7045C44.6029 49.5429 44.6034 49.3812 44.6039 49.2196C44.5783 49.1816 44.5526 49.1435 44.527 49.1055C44.5521 49.3052 44.5772 49.5048 44.6023 49.7045ZM60.0026 44.8617C60.1198 45.0828 60.4984 45.1665 60.7885 45.4657C60.9154 45.5437 61.0424 45.6217 61.1693 45.6996C61.1696 45.6998 61.1699 45.7 61.1703 45.7002C61.1919 45.6724 61.2135 45.6445 61.2351 45.6167C60.8242 45.365 60.4134 45.1134 60.0026 44.8617ZM44.3899 59.7809C44.4077 59.6816 44.4254 59.5823 44.4432 59.483C44.4268 59.3055 44.4105 59.1279 44.3942 58.9504C44.3791 59.0461 44.3641 59.1418 44.3491 59.2374C44.3627 59.4186 44.3763 59.5997 44.3899 59.7809ZM62.2471 46.2103C61.8099 45.9264 61.5846 45.92 62.1541 46.2658C62.3943 46.4115 62.7051 46.5078 62.2471 46.2103ZM44.0238 84.9708C44.036 84.7925 44.0482 84.6141 44.0603 84.4357C44.0378 84.3746 44.0153 84.3134 43.9927 84.2523C44.0031 84.4918 44.0135 84.7313 44.0238 84.9708ZM72.0494 52.1851C72.0193 52.1943 71.9893 52.2035 71.9592 52.2126C71.8255 52.126 71.6918 52.0394 71.5581 51.9528C71.6044 51.9536 71.6507 51.9545 71.697 51.9554C71.8145 52.0319 71.9319 52.1085 72.0494 52.1851ZM44.056 83.7699C44.0626 83.6273 44.0692 83.4847 44.0758 83.342C44.0658 83.246 44.0558 83.15 44.0459 83.0539C44.0326 83.1873 44.0193 83.3206 44.006 83.454C44.0227 83.5593 44.0393 83.6646 44.056 83.7699ZM66.4643 48.781C66.3075 48.6529 65.5773 48.3126 66.1824 48.7059C66.568 48.9565 66.4878 48.8002 66.4643 48.781ZM67.4027 49.3174C66.7777 48.8755 67.1259 49.4054 67.9966 49.727C67.1997 49.272 67.4394 49.3434 67.4027 49.3174ZM73.2164 52.6794C73.2327 52.6895 73.226 52.7312 73.3564 52.812C73.8259 53.1027 74.4412 53.4941 74.7777 53.701C75.5865 54.1984 78.1101 55.6463 78.3421 55.9197C78.3904 55.9768 78.2141 55.9531 78.2368 55.9711C78.3038 56.0237 78.7376 56.2465 78.6335 56.2446C78.2256 55.9967 77.8177 55.7488 77.4097 55.5008C77.5291 55.53 77.6484 55.5592 77.7678 55.5884C76.7406 54.9884 77.0784 55.1906 76.7441 55.082C76.5882 54.9509 76.4322 54.8198 76.2762 54.6888C75.8853 54.4883 75.4943 54.2878 75.1034 54.0873C75.2005 54.1188 75.2975 54.1504 75.3946 54.182C74.8525 53.8026 74.9946 53.922 74.6564 53.783C74.6678 53.7627 74.6793 53.7423 74.6908 53.722C74.1162 53.44 74.0464 53.3158 73.9277 53.2428C73.6842 53.0935 73.2295 53.1409 72.4404 52.3406C71.9789 52.2153 72.1274 51.9908 71.8255 51.9676C71.2378 51.437 72.4745 52.2502 73.0704 52.6174C73.0707 52.6176 73.071 52.6177 73.0713 52.6179C73.1162 52.6457 73.0575 52.5808 73.2164 52.6794ZM69.7297 50.7246C70.1952 50.865 68.6107 49.8906 69.0462 50.3597C69.1216 50.4121 69.197 50.4645 69.2724 50.5169C69.4251 50.5863 69.5779 50.6557 69.7306 50.7252C69.7303 50.725 69.73 50.7248 69.7297 50.7246ZM54.829 41.5918C53.3302 40.741 54.1314 41.3087 54.6657 41.553C54.7722 41.6018 54.8364 41.619 54.829 41.5918ZM44.125 66.6606C44.1392 66.686 44.1534 66.7114 44.1675 66.7368C44.1625 66.1589 44.2352 65.0427 44.1368 65.0566C44.1328 65.5913 44.1289 66.126 44.125 66.6606ZM44.1284 62.0899C44.1207 62.2139 44.0992 62.7205 44.1368 62.6599C44.1661 62.4406 44.1954 62.2213 44.2247 62.0021C44.2099 61.8995 44.1952 61.797 44.1804 61.6945C44.1728 61.8372 44.1305 62.0564 44.1284 62.0899Z" fill="#F3F2EE"></path></svg> 