<?xml version="1.0" encoding="UTF-8"?> <svg xmlns="http://www.w3.org/2000/svg" width="590" height="445" viewBox="0 0 590 445" fill="none"><path d="M108.974 1.21266C103.926 2.2642 90.2562 7.94251 78.479 13.6208C54.0833 25.3981 37.469 31.2867 18.9619 35.0722C-3.96165 39.4887 -6.48534 45.5876 13.4939 48.5319C23.5887 50.0041 24.2196 51.8968 19.3825 63.6741C15.597 72.7173 15.3867 79.0265 18.9619 79.0265C23.799 78.8162 38.5205 71.2452 64.3884 55.0515C102.033 31.2867 118.437 23.9259 133.369 23.9259C140.099 23.9259 149.142 25.3981 153.349 26.8702C164.495 30.8661 186.998 50.4247 208.449 74.6101C218.754 86.177 231.373 99.2161 236.841 103.633C252.614 116.672 290.049 143.381 299.092 147.797C309.187 152.845 328.114 156.42 353.772 157.892C373.33 159.154 375.854 160.416 375.854 169.249C375.854 173.875 375.223 174.086 368.073 172.824C353.561 170.3 319.912 168.828 311.921 170.3C302.667 171.983 287.315 185.232 283.319 194.696C279.954 202.687 277.851 202.687 267.966 194.485C250.721 180.185 224.222 175.978 205.505 184.391C193.517 189.859 178.375 199.323 162.392 211.731C135.893 232.131 119.91 238.019 86.681 239.912C55.5554 241.805 49.8771 243.697 49.8771 252.741C49.8771 262.205 64.3884 271.248 86.2604 275.033C95.5139 276.716 101.403 279.029 106.24 283.235C112.128 288.493 114.862 289.334 125.167 289.334C131.687 289.334 139.889 290.806 143.254 292.489C149.984 296.064 165.336 296.695 175.851 293.54C181.53 292.068 184.474 292.489 190.994 295.643C195.41 297.957 201.299 299.85 203.822 299.85C209.921 299.85 228.008 289.545 234.738 282.184C241.678 274.613 236.63 275.244 225.484 283.235C220.647 286.811 212.655 290.175 208.029 290.806C199.827 291.858 199.406 291.648 194.989 283.025L190.363 273.982L184.474 280.712C180.268 285.338 176.482 287.231 172.066 287.231C164.074 287.231 155.031 283.235 155.031 279.66C155.031 275.454 150.404 274.823 142.623 277.978C126.219 284.707 110.025 279.029 121.171 270.617C125.378 267.252 125.588 266.621 122.433 264.097C119.068 261.363 115.073 262.415 106.24 268.724C100.141 273.141 70.277 261.574 73.6419 256.316C75.114 254.213 96.1448 250.217 116.124 248.324C132.949 246.852 147.039 239.702 170.383 220.774C181.109 212.151 195.41 202.267 202.14 198.692C213.076 192.803 216.651 191.962 229.901 192.172C248.197 192.382 263.55 198.271 272.803 208.576C276.168 212.572 279.533 215.727 280.164 215.727C280.795 215.727 283.529 211.31 286.053 205.632C294.886 186.914 299.092 182.498 311.71 179.974C322.226 177.871 372.489 178.081 374.803 180.185C376.695 182.077 371.017 201.005 363.025 220.353C358.188 231.71 354.823 242.015 355.454 243.487C355.875 244.959 360.081 240.333 364.708 233.182C372.91 220.564 378.167 205.001 381.112 183.549C381.953 177.871 383.635 173.665 385.318 173.665C387.631 173.665 390.155 181.867 396.885 213.623C400.25 229.186 408.872 252.951 414.34 261.994C423.594 277.136 438.946 294.382 452.827 304.897C466.076 314.781 476.591 320.46 510.872 336.443C519.705 340.649 526.855 346.538 537.16 357.895C545.152 366.727 552.933 375.981 554.616 378.925C560.925 389.441 565.131 383.762 561.135 369.882C558.191 359.998 561.976 357.895 571.23 364.204C585.531 373.878 594.574 368.831 587.003 355.161C583.007 347.379 560.294 326.559 544.1 315.412C538.843 311.837 519.074 301.322 499.936 291.858C480.798 282.394 461.66 271.879 457.453 268.303C449.672 261.994 428.431 232.131 428.431 227.924C428.431 226.663 431.796 229.817 436.002 235.285C440.208 240.543 448.831 248.535 455.14 252.951C465.866 260.312 467.969 260.943 480.167 260.732C497.622 260.312 504.983 255.895 516.129 238.86C521.177 231.5 528.327 222.036 532.323 218.04C541.366 208.366 546.203 198.902 546.203 190.279C546.203 176.82 523.069 162.098 487.107 152.845C473.437 149.269 458.926 147.797 423.384 146.325C398.147 145.273 376.906 143.801 376.275 143.17C375.644 142.75 374.382 133.286 373.541 122.14C370.176 80.9193 365.339 67.2493 347.673 48.1113C336.316 35.7031 320.333 26.4496 309.817 26.4496C302.457 26.4496 282.898 36.1238 276.589 42.6433C273.434 46.2185 271.962 51.0556 271.121 61.9916C270.28 74.8204 270.911 78.1853 275.537 87.8595C278.482 93.9584 286.684 105.736 293.624 113.727C306.453 128.869 307.504 134.127 295.306 124.243C272.803 105.315 255.979 88.2801 242.729 70.6142C205.925 22.0331 175.641 2.26422 135.052 0.16114C125.798 -0.259475 114.021 0.161124 108.974 1.21266ZM161.761 15.3033C177.113 20.1404 193.097 32.9692 235.158 75.241C256.399 96.2718 279.743 118.354 287.104 124.243C303.508 137.492 299.302 139.175 279.743 127.187C258.082 113.727 249.669 106.367 210.763 67.4596C172.697 29.3939 160.92 20.7713 143.043 18.8785C121.592 16.3548 90.4665 28.3424 49.8771 54.8412C32.8422 65.9875 26.7433 68.5112 26.7433 64.5153C26.7433 63.4638 28.2154 61.571 29.8979 60.0988C34.3144 56.5236 33.8937 52.3175 28.8464 49.1628C26.533 47.6907 24.6402 45.7979 24.6402 44.9567C24.6402 44.3257 32.4216 40.9608 42.0957 38.0165C51.5596 34.8619 68.3842 28.3424 79.3202 23.7156C112.128 10.0456 137.155 7.31159 161.761 15.3033ZM319.492 36.965C329.376 39.699 343.677 54.2102 349.776 67.4596C354.403 77.5544 364.287 120.878 362.394 122.771C359.029 125.925 354.403 114.569 344.518 77.975C339.05 57.5751 325.17 44.9567 308.345 44.9567C294.044 44.9567 287.525 50.635 287.525 63.6741C287.525 68.7214 289.418 76.7131 291.731 81.3399C297.409 92.2759 313.603 113.517 324.329 124.032C332.32 131.603 350.617 142.119 356.085 142.119C357.347 142.119 360.712 143.801 363.236 145.904L367.862 149.69L359.871 149.9C350.197 150.321 342.836 146.115 321.174 128.239C303.929 113.938 288.787 97.3233 282.898 85.5461C273.224 66.4081 283.319 43.2742 304.139 36.965C311.5 34.6516 310.869 34.6516 319.492 36.965ZM327.483 59.4679C335.685 67.8802 341.364 80.9193 348.724 108.049C351.038 117.092 355.244 127.187 358.188 130.973C362.815 137.282 364.708 142.119 362.184 142.119C357.978 142.119 331.059 126.346 323.067 119.195C306.873 104.894 287.315 68.3008 291.1 58.837C292.783 54.4205 299.302 51.8968 310.448 51.8968C318.23 51.6865 320.753 52.7381 327.483 59.4679ZM394.361 155.579C395.202 159.785 391.207 165.253 387 165.253C382.374 165.253 381.322 159.154 385.528 154.527C389.734 149.9 393.31 150.321 394.361 155.579ZM481.429 156.84C504.352 161.467 521.387 169.669 531.482 181.236C540.735 191.751 539.053 203.949 527.276 214.675C524.752 216.988 518.863 224.349 514.447 230.869C502.67 247.904 496.991 251.479 480.377 251.479C460.187 251.479 450.513 243.277 432.006 211.1C428.852 205.842 419.177 194.906 410.555 186.914C401.932 178.923 394.782 171.562 394.782 170.931C394.782 170.09 396.464 169.459 398.567 169.459C405.087 169.459 427.8 190.069 440.629 207.735C455.14 227.924 461.449 232.972 476.802 237.599C494.257 242.856 498.674 242.015 506.245 232.972C520.335 215.937 526.434 196.378 520.966 186.073C517.601 179.974 496.781 170.3 478.905 166.725C460.188 162.729 427.8 157.051 418.967 156.209L412.658 155.579L417.916 153.055C425.066 149.69 455.35 151.372 481.429 156.84ZM423.804 162.939C432.847 165.253 444.204 167.566 449.462 168.407C471.334 171.562 493.206 176.609 501.198 180.395C518.443 188.387 519.494 207.314 504.142 224.98C499.094 230.658 495.73 232.551 490.892 232.551C480.167 232.551 467.759 226.663 462.08 218.671C441.47 189.859 432.006 180.185 414.971 170.931C401.932 163.57 402.353 163.991 404.246 161.257C405.928 158.313 404.877 158.313 423.804 162.939ZM412.448 205.842C417.495 216.568 424.856 231.71 428.431 239.702C433.058 249.376 439.577 258.629 449.251 268.303C461.66 280.922 466.707 284.077 498.884 299.85C537.37 318.567 549.148 326.559 567.234 344.855C578.17 356.212 578.17 359.787 567.234 353.478C558.191 348.22 554.616 349.482 554.616 357.474C554.616 361.47 553.774 365.255 552.723 366.097C551.671 366.727 546.203 360.839 540.735 352.847C528.537 334.971 510.241 321.091 477.012 304.056C428.221 279.029 409.924 256.106 399.619 205.842C397.305 195.116 395.833 185.863 396.464 185.442C399.198 182.498 404.035 188.807 412.448 205.842Z" fill="#E0B8B9"></path><path d="M339.68 194.906C337.577 195.958 335.895 198.271 335.895 199.954C335.895 203.318 344.938 206.473 348.303 204.16C351.878 202.057 351.037 195.327 347.251 193.855C343.255 192.382 344.097 192.172 339.68 194.906Z" fill="#E0B8B9"></path><path d="M363.236 261.785C363.236 262.626 367.021 265.991 371.648 269.146C395.623 284.919 401.091 294.382 405.297 326.139C408.872 352.007 414.13 363.153 435.792 388.39C446.938 401.639 448.41 406.687 439.367 402.06C432.217 398.274 420.86 386.077 413.709 374.51C405.507 361.05 403.404 359.578 400.25 364.205C398.567 366.518 395.413 370.514 393.099 373.458L388.893 378.716L384.056 374.51C377.326 368.411 359.029 340.019 359.029 335.392C359.029 330.135 354.823 330.345 353.351 335.603C351.248 343.384 346.201 339.809 339.891 326.139C333.582 312.048 332.32 305.108 335.896 303.005C339.681 300.692 337.999 297.747 332.951 297.747C326.642 297.747 324.118 294.593 319.281 280.712C315.285 268.515 312.131 266.201 311.079 274.403C310.028 281.554 311.921 287.232 318.861 297.747C322.226 303.005 326.432 313.1 328.325 320.25C332.741 337.706 340.522 349.062 350.617 353.269C356.926 355.792 359.66 358.526 362.815 365.677C366.811 374.51 376.695 384.604 385.528 388.6C388.683 390.072 391.837 389.652 396.675 387.128L403.615 383.763L417.495 398.274C434.109 415.52 444.835 420.146 455.561 414.468C462.921 410.683 465.235 404.794 461.87 398.485C460.608 395.961 452.196 386.077 443.153 376.402C429.272 361.681 425.907 356.634 420.229 341.912C416.654 332.448 412.237 318.568 410.555 310.786C408.662 303.005 405.087 292.91 402.353 288.284C396.675 278.82 383.425 267.463 372.699 262.836C364.287 259.471 363.236 259.261 363.236 261.785Z" fill="#E0B8B9"></path><path d="M305.19 287.442C303.928 289.124 301.405 294.803 299.301 300.271C295.095 311.838 285.842 320.671 268.386 329.293C261.446 332.868 251.141 340.229 245.673 345.697C234.527 356.423 230.951 365.256 230.531 382.922C230.531 393.016 226.956 406.476 226.745 398.274C226.325 391.755 221.908 391.755 212.655 398.484C207.397 402.06 202.35 405.004 201.298 405.004C200.036 405.004 199.405 399.746 199.616 392.806L200.247 380.819L193.937 381.66C190.572 381.87 185.104 383.553 181.95 385.235C175.641 388.6 169.752 389.021 169.752 386.497C169.752 385.445 171.645 382.501 173.958 379.767C179.636 373.037 176.692 370.514 161.76 369.252C155.241 368.621 149.773 367.149 149.983 366.097C149.983 364.835 162.391 356.423 177.744 347.169C207.397 329.083 218.543 320.671 214.337 319.198C212.024 318.568 203.401 323.194 167.649 345.277C130.635 368.2 124.956 377.664 148.721 377.664C155.661 377.664 161.34 378.085 161.34 378.716C161.34 379.346 159.447 383.342 157.133 387.548C154.82 391.965 152.927 396.592 152.927 398.064C152.927 405.004 169.121 401.639 182.791 391.965C190.783 386.497 192.675 388.39 190.152 399.536C187.207 412.785 189.1 416.361 198.564 414.888C202.77 414.047 206.976 412.575 207.607 411.103C210.341 406.897 212.024 412.785 209.71 418.674C205.925 428.769 207.187 435.919 213.706 440.546C221.277 446.014 221.277 446.014 229.059 440.336C240.626 432.344 243.36 422.46 243.36 388.39V358.105L251.351 350.324C255.768 346.118 265.863 339.598 273.644 335.813C295.516 324.877 310.448 304.687 308.134 289.335C307.714 285.339 307.083 284.918 305.19 287.442Z" fill="#E0B8B9"></path></svg> 