<?xml version="1.0" encoding="UTF-8"?> <svg xmlns="http://www.w3.org/2000/svg" width="439" height="342" viewBox="0 0 439 342" fill="none"><path d="M32.6033 87.0593C33.777 89.2921 35.6001 91.4537 37.4233 92.7919C39.0641 93.9551 40.4429 94.9955 40.5682 95.09C40.6821 95.2509 40.1695 96.5854 39.3947 98.2087C37.5604 102.288 37.7429 107.815 40.2614 117.873C42.0278 124.894 42.29 127.487 41.9826 132.981C41.4018 143.357 43.4645 151.949 47.4413 155.998C48.4668 157.033 51.2016 160.07 53.5148 162.676C61.2063 171.473 60.9442 171.35 78.7195 175.033L94.1817 178.168L89.4645 178.425C86.8893 178.578 83.4141 178.613 81.7277 178.538C79.0045 178.317 78.6968 178.459 78.6285 180.091L78.5374 181.856L86.411 183.419C90.7181 184.311 96.985 185.335 100.312 185.75C104.266 186.226 106.385 186.665 106.317 187.063C106.249 187.46 103.708 188.237 100.7 188.849C97.6232 189.446 95.3102 190.134 95.4128 190.361C95.5837 190.602 97.384 190.426 99.3552 190.08C102.295 189.454 104.107 189.623 109.348 190.846C114.259 191.932 116.207 192.13 117.643 191.604C118.634 191.192 121.756 190.741 124.559 190.499C127.362 190.256 130.314 189.564 131.123 188.977C133.071 187.528 134.074 187.873 133.219 189.549C132.866 190.367 131.601 193.604 130.485 196.803C128.673 201.985 128.502 202.979 128.844 206.755C129.095 209.002 129.369 211.941 129.426 213.256C129.813 218.002 135.112 223.422 140.513 224.541C142.974 225.05 144.136 224.88 146.335 223.62C152.055 220.414 156.624 211.961 155.063 207.453C154.789 206.573 154.801 204.037 155.188 201.784C155.769 198.405 156.407 197.165 159.176 193.828C163.175 189.1 165.317 184.055 167.698 173.914C169.464 166.527 169.509 166.262 168.267 162.368C167.583 160.168 165.771 155.882 164.233 152.888C159.037 142.755 159.037 141.52 163.925 131.624L166.978 125.395L166.112 122.609C164.653 117.916 163.719 118.82 162.705 125.951C162.25 129.424 161.236 134.085 160.506 136.267C158.718 141.317 158.684 146.455 160.348 153.249C162.969 164.358 163.14 166.657 161.67 172.322C159.198 182.169 157.717 185.842 154.903 189.444C150.368 195.228 149.912 196.232 147.918 204.943C145.936 213.589 144.899 215.501 141.356 216.757C139.84 217.335 139.612 217.013 139.555 214.051C139.487 205.392 139.908 202.941 142.642 196.921C144.693 192.406 145.502 189.761 145.901 186.207C146.22 183.117 146.869 180.576 147.895 178.73C149.934 175.105 151.518 167.954 151.597 162.139C151.643 158.581 151.962 156.726 152.953 154.667C155.22 150.128 153.249 145.535 148.668 144.586L146.617 144.161L144.726 155.158L142.824 166.222L140.807 166.421C139.348 166.668 138.095 167.781 135.702 170.99C132.66 175.094 132.341 175.302 124.741 178.324L116.845 181.422L106.898 179.979C101.44 179.191 96.8366 178.375 96.734 178.148C96.5517 177.973 97.167 176.865 97.9987 175.734C98.8305 174.603 100.015 171.829 100.688 169.567L101.895 165.427L105.906 164.337L109.928 163.18L113.438 165.828C115.386 167.261 117.745 169.191 118.645 170.132C120.468 171.882 123.305 172.264 124.183 170.867C124.468 170.446 124.411 169.131 124.126 167.905C123.693 166.306 122.188 164.76 117.437 161.1C110.178 155.548 106.247 150.411 104.014 143.636C102.407 138.569 102.589 135.863 104.811 130.766C106.11 127.742 107.522 126.937 108.218 128.659C109.471 131.663 121.059 136.739 131.918 139.058C137.866 140.29 144.896 140.168 149.169 138.789C153.305 137.382 157.544 132.086 158.387 127.183C158.751 125.063 159.674 122.99 161.121 121.163C166.807 114.04 166.704 114.224 165.519 112.469C163.411 109.082 161.371 110.238 160.403 115.457C160.187 116.716 159.047 118.813 157.976 120.1C156.21 122.135 155.675 122.368 153.863 121.786C152.108 121.286 151.504 121.504 149.955 123.104C148.986 124.207 148.052 125.522 147.961 126.052C147.631 127.974 142.048 132.031 138.8 132.799C129.799 134.914 121.321 132.746 115.316 126.905C113.436 125.074 110.052 122.109 107.807 120.341C101.893 115.616 101.494 115.054 100.651 109.665C99.5342 102.984 97.4146 98.0166 93.1073 92.1845C90.8739 89.1146 89.5977 86.6548 89.7458 85.7935C90.3495 82.2824 94.7248 79.0723 102.724 76.2013C105.447 75.1874 108.079 73.8803 108.683 73.2507C109.287 72.6211 111.235 71.584 113.104 71.0106L116.408 69.9114L119.131 72.1908C123.666 75.8747 131.107 79.9547 136.177 81.3482C138.741 82.0852 141.465 83.1297 142.217 83.6971C144.051 84.9691 147.276 85.1569 148.324 84.0019C149.6 82.7569 148.779 77.6471 146.945 74.7285C145.327 72.1978 141.635 69.3746 136.12 66.4482C132.872 64.7463 131.517 64.3968 129.169 64.4594C125.603 64.6124 116.863 62.3216 112.009 60.081C109.195 58.7432 108.523 58.1237 108.42 56.6616C108.203 54.2155 107.577 53.7426 102.381 52.6661C97.1166 51.5755 90.542 51.517 82.5888 52.4764C76.0713 53.3216 75.7523 53.1183 70.4878 46.2645L67.1947 41.946L68.9038 41.0652C70.0774 40.4164 72.2195 40.3113 76.0367 40.7591C79.0106 41.1694 83.6595 41.3092 86.4511 41.1329C97.2643 40.4229 105.411 43.6888 120.031 54.6075C123.415 57.1611 126.343 59.0713 126.583 58.9151C126.89 58.773 126.981 57.8313 126.936 56.8614C126.753 54.6281 122.401 49.8842 115.678 44.5121C109.627 39.7595 106.049 37.9206 97.6059 35.5539C92.2733 34.0374 90.7465 33.8583 88.8209 34.3513C87.1915 34.7684 84.6733 34.5898 80.503 33.7258C71.2051 31.7995 69.7011 31.8996 65.0295 34.7738C61.7936 36.7105 60.5174 37.1322 58.8994 36.6598C56.7345 36.0741 53.5897 36.6575 53.4074 37.7175C53.3505 38.0487 51.7781 38.9579 49.8752 39.73C47.9724 40.5022 46.3545 41.6764 46.2519 42.2726C46.1494 42.8688 47.1978 45.0071 48.6335 46.9511C50.0693 48.8952 51.1405 50.9009 51.0493 51.4309C50.7076 53.4184 53.9435 52.7166 58.5581 49.7619C61.2585 48.0573 63.6171 46.6935 63.7538 46.7219C63.9589 46.7643 65.1895 48.2542 66.5797 50.0516C67.9699 51.849 69.4056 53.3814 69.8158 53.4664C72.1403 53.948 65.6344 60.4901 60.3247 62.9578C52.5539 66.5621 50.3093 68.0867 47.6318 71.7171C44.4871 76.0054 42.4818 77.3738 36.1124 79.4161C33.1841 80.3874 31.3155 81.3724 31.1104 82.1533C30.9168 82.8678 31.6005 85.0677 32.6033 87.0593ZM43.1999 83.9032C45.5584 82.5394 48.3044 80.1581 50.811 77.1098C54.2178 72.9443 55.3458 72.1489 60.6326 69.8138C66.5918 67.2749 67.4008 66.6878 73.1091 61.4898L76.1171 58.8198L81.3016 60.3742C86.4975 61.8623 94.7698 62.3411 98.3362 61.3647C99.373 61.0993 99.7718 61.2506 99.9086 62.1022C100.262 63.7534 102.575 63.8895 104.124 62.2895C105.834 60.5854 107.429 60.7786 109.32 62.9543L110.733 64.6192L107.292 66.9251C105.219 68.2793 102.552 69.3735 100.832 69.4974C96.3653 69.9442 91.0328 72.5443 87.8539 75.7964C85.427 78.381 84.8915 78.6131 83.376 77.9561C76.414 74.7985 74.3288 74.984 71.0588 79.1777C68.1762 82.7656 68.5979 86.4893 72.8256 96.4901C73.8398 98.8271 75.2414 101.793 75.9593 102.971C76.5974 104.201 77.1558 105.483 77.0988 105.814C76.928 106.808 74.9339 106.052 73.9084 104.604C72.9968 103.318 72.9056 103.436 72.2562 105.977C71.5157 109.049 70.4105 109.3 68.7924 106.769C67.7896 105.189 68.177 103.76 70.7747 99.7701C71.4356 98.8092 67.8805 98.0727 64.2229 98.3441C61.9213 98.5533 61.1123 98.3171 59.4373 96.941C56.4291 94.6711 50.8572 91.6643 44.6585 89.008C41.696 87.7081 39.3487 86.5357 39.3829 86.337C39.417 86.1382 41.092 85.0445 43.1999 83.9032ZM45.4337 98.911C45.7414 98.3572 46.7782 98.0918 47.667 98.2759C50.1966 98.8 59.1983 105.742 63.7449 110.595L67.8128 114.936L66.5596 118.93C64.5089 125.504 64.2355 129.564 65.5461 133.883C66.8338 138.335 70.7536 143.538 73.0781 144.02C73.9669 144.204 75.1063 145.4 75.9724 146.952C76.7131 148.409 78.935 150.722 80.9519 152.169C84.0968 154.467 84.8261 154.755 87.1277 154.546C88.6318 154.446 91.8336 154.766 94.2948 155.276C98.6702 156.182 100.425 155.86 101.61 153.91C101.906 153.422 103.068 154.486 104.789 156.833C106.27 158.923 107.285 160.849 106.943 161.189C106.669 161.544 104.687 161.957 102.59 162.209C100.573 162.408 97.5766 163.366 95.9359 164.261C92.6316 166.183 92.8481 166.159 65.9915 162.173C61.8554 161.522 59.4966 159.181 54.3347 150.496C49.7653 142.895 49.3664 140.685 50.4484 129.04C51.109 121.493 50.3112 117.074 46.8014 109.074C44.4654 103.719 44.1462 101.046 45.4337 98.911ZM74.99 83.4912C77.4511 81.1195 80.6872 82.8877 81.1431 86.8242C81.2343 88.3525 82.2143 91.2999 83.2057 93.3577C84.9834 97.0192 85.0518 99.915 83.5706 101.529C82.192 102.959 78.6824 99.4873 76.8477 94.9221C73.0303 85.4179 72.9733 85.3375 74.99 83.4912ZM72.3709 124.251C73.7382 122.888 76.074 123.303 77.2591 125.058C77.9314 126.089 78.3986 127.078 78.353 127.343C78.3075 127.608 79.2532 128.696 80.4155 129.76C81.5778 130.824 82.5008 132.044 82.421 132.508C82.2615 133.435 75.0719 139.836 73.9895 139.955C73.2602 140.078 71.1862 133.199 71.2089 130.597C71.2202 127.649 71.6987 124.866 72.3709 124.251ZM78.2726 109.282C80.4717 108.846 80.54 108.86 80.6769 111.77C80.7453 113.842 80.5744 114.013 79.1387 113.715C75.8571 113.035 75.2531 109.96 78.2726 109.282ZM82.6256 118.554C83.3776 118.71 84.1524 119.145 84.2892 119.585C84.8817 121.08 86.3744 120.634 87.8556 118.608C89.5988 116.294 90.2483 116.223 91.5587 118.072C92.5843 119.52 92.0261 124.001 90.75 124.834C90.1119 125.251 90.0094 125.847 90.3854 126.954C91.1033 128.955 94.0431 129.564 96.3333 128.186C97.7462 127.381 98.088 126.629 98.1677 124.518C98.2132 123.018 98.4866 121.428 98.8626 120.889C99.3753 119.966 99.6374 120.089 101.267 121.73L103.079 123.546L101.028 126.003C99.4098 128 98.8629 129.534 98.0541 134.237C97.4959 137.483 96.8465 140.025 96.6414 139.982C96.3679 139.925 95.9805 138.885 95.6842 137.726C95.1942 135.634 95.0688 135.54 91.8556 135.286C88.3576 135.041 84.3694 132.706 84.8479 131.158C85.3378 129.545 85.2011 128.693 84.3123 128.509C83.0931 128.188 80.7229 122.208 81.019 120.074C81.2469 118.749 81.6684 118.356 82.6256 118.554ZM90.0313 104.308L91.6835 102.935L92.2875 105.599C92.6635 107.118 92.9029 108.608 92.8459 108.939C92.675 109.933 89.2453 109.703 87.9349 108.677C86.5676 107.57 86.8752 107.016 90.0313 104.308ZM85.1217 139.86C85.7712 139.788 86.8423 140.559 87.7767 141.713C89.748 144.249 98.1345 150.24 99.1941 149.842C99.6499 149.662 99.9689 149.865 99.8892 150.329C99.7981 150.859 98.8865 150.807 96.8925 150.051C95.3656 149.46 91.9473 148.34 89.3835 147.603C86.7514 146.852 84.3016 145.864 83.88 145.434C82.8203 144.185 83.7316 140.121 85.1217 139.86Z" fill="#3D2A23"></path><path d="M68.7247 96.4631C69.0666 96.5339 69.6705 96.316 69.9325 96.0272C70.206 95.6722 70.1832 95.393 69.773 95.3081C69.4311 95.2372 68.8386 95.3889 68.5652 95.7439C68.3031 96.0327 68.3145 96.3781 68.7247 96.4631Z" fill="#3D2A23"></path><path d="M230.859 82.4581C225.014 86.8044 222.176 87.2458 211.91 85.5991C206.122 84.6203 205.387 83.8605 203.326 83.4148L192.419 82.757C190.01 82.981 186.672 84.5555 185.327 85.7863C182.034 88.8776 176.93 90.9761 174.514 90.2012C172.771 89.6342 172.497 89.1658 171.711 84.2689C170.868 79.2916 170.924 78.1371 172.838 67.8306C173.966 61.6837 175.447 55.5413 176.119 54.1026C176.78 52.7301 177.532 50.8276 177.76 49.9143C177.824 49.7122 177.888 49.5346 177.962 49.3787L182.947 37.8566C183.011 37.1543 183.235 36.1545 183.605 34.8649C184.254 32.7354 184.687 30.6296 184.562 30.1234C184.277 28.4864 178.785 27.8974 176.141 29.2708C173.942 30.5304 173.395 31.2404 170.535 37.1658C169.214 39.9107 167.755 40.5691 168.154 38.2504C168.781 34.6067 163.961 37.9306 160.531 43.4634C159.062 45.8347 157.581 47.8605 157.193 48.0547C156.817 48.1826 155.951 51.5709 155.268 55.5458C154.174 61.9056 154.14 63.751 155.029 69.6983C156.214 77.2164 157.821 83.1066 161.228 91.7024L163.45 97.3085L166.595 97.96C168.851 98.4274 170.082 99.094 170.88 100.22C172.692 102.859 174.412 108.91 174.002 111.295C173.524 114.078 174.709 117.479 176.737 118.86C177.615 119.522 178.093 120.444 177.922 121.438C177.774 122.299 177.888 123.283 178.105 123.671C178.378 124.14 178.72 125.857 178.914 127.612C179.677 134.288 184.236 144.838 190.446 154.015C192.36 156.881 193.91 159.809 193.933 160.5C193.978 161.47 195.095 162.388 198.023 163.886C200.245 164.964 202.239 165.72 202.479 165.564C202.718 165.408 203.094 164.456 203.276 163.396C203.572 161.674 203.732 161.57 205.373 162.321C206.421 162.813 208.164 163.792 209.315 164.51C214.033 167.546 229.506 171.438 229.802 169.715C229.859 169.384 229.574 167.747 229.096 166.001C228.389 163.11 227.854 162.519 223.25 159.233C220.47 157.285 216.345 153.686 214.066 151.293C211.867 148.847 208.608 145.565 206.967 143.99C205.247 142.467 203.025 139.743 201.988 137.95C200.951 136.157 199.241 133.333 198.25 131.687C197.27 129.975 195.151 127.477 193.544 126.115C190.821 123.836 185.1 116.75 185.249 115.889C185.294 115.624 188.542 116.091 192.507 116.913C198.25 118.102 199.993 118.258 201.03 117.581C202.215 116.866 202.26 116.601 201.428 114.85C200.973 113.795 199.765 112.585 198.785 112.107C195.355 110.642 194.717 110.235 194.831 109.573C194.888 109.242 195.856 108.962 196.916 108.976C198.261 108.98 199.275 108.435 199.981 107.209C200.653 106.182 201.929 105.349 203.16 105.192C207.649 104.613 209.29 102.895 207.25 100.757C206.293 99.7352 206.316 99.6027 207.535 98.6889C208.264 98.1539 209.039 96.9422 209.21 95.9485C209.461 94.491 210.703 93.8564 218.439 91.2741C227.008 88.3839 230.779 86.2151 235.416 81.4813C238.174 78.6221 235.166 79.2339 230.859 82.4581ZM160.418 49.0658C163.699 46.8641 169.305 46.7905 170.262 49.0471C170.559 49.7946 166.822 64.1143 164.988 69.0171C164.053 71.5679 163.803 73.437 164.088 76.7207C164.247 79.0865 164.51 81.6793 164.521 82.4363C164.703 84.6696 162.572 80.5919 161.478 76.6604C157.934 63.9196 157.512 51.1396 160.418 49.0658ZM175.218 34.2252C175.651 33.7661 176.164 33.6665 176.335 33.9077C176.563 34.2294 176.141 35.034 175.378 35.7677C173.942 37.1169 173.749 35.7732 175.218 34.2252ZM182.866 94.3328C184.94 92.1553 188.073 89.5799 189.817 88.5002C192.756 86.6394 193.337 86.5539 198.397 87.1904C205.883 88.1238 210.338 89.3899 210.144 90.5161C210.064 90.9799 209.347 91.4486 208.617 91.572C207.683 91.6528 206.897 92.5191 206.339 94.1187C205.655 96.0353 204.812 96.8211 202.693 97.617C200.345 98.5029 199.821 99.0804 199.491 101.002C199.161 102.923 198.807 103.33 197.554 103.207C196.642 103.156 195.435 103.592 194.842 104.155C194.25 104.718 192.882 105.258 191.811 105.311C190.398 105.293 189.601 105.814 189.088 107.148C188.051 109.883 185.499 109.08 182.912 105.183C181.796 103.442 180.451 101.379 179.95 100.589C179.448 99.7995 179.027 98.9574 179.072 98.6924C179.049 98.4133 180.804 96.4441 182.866 94.3328ZM181.625 119.667C182.001 119.539 184.098 121.757 186.309 124.548C188.508 127.405 191.619 131.136 193.168 132.83C194.786 134.537 196.929 137.725 197.977 139.863C199.401 142.697 201.783 145.729 206.569 150.425C210.204 153.991 213.861 157.837 214.67 158.896L216.106 160.84L214.477 160.022C211.081 158.358 206.364 154.499 204.358 151.751C201.84 148.279 200.552 147.944 198.604 150.216C197.795 151.215 196.77 151.826 196.302 151.66C194.662 150.909 187.813 137.209 185.83 130.623C184.429 126.011 183.186 123.352 182.241 122.676C180.725 121.607 180.418 120.103 181.625 119.667Z" fill="#3D2A23"></path></svg> 