<?xml version="1.0" encoding="UTF-8"?> <svg xmlns="http://www.w3.org/2000/svg" width="227" height="292" viewBox="0 0 227 292" fill="none"><path d="M101.507 3.02568C92.9518 6.26003 88.0481 8.97272 88.0481 10.6421C88.0481 11.2681 81.3708 18.5714 73.337 27.0225C65.199 35.3692 57.8956 43.7159 57.1653 45.5939C56.3306 47.3676 54.5569 50.602 53.2006 52.5843C49.4446 58.2183 45.2712 71.5731 44.6452 79.8155C44.1235 86.2842 44.6452 88.9968 48.8186 103.186C52.6789 116.645 54.2439 120.401 58.5216 126.557C61.2343 130.626 65.0947 135.53 66.9727 137.408C70.833 141.372 71.0417 141.894 68.329 141.894C67.2857 141.894 63.634 143.355 60.3996 145.024C55.4959 147.633 52.4703 148.363 44.1235 149.093C35.7768 149.719 33.0641 150.45 29.9341 152.536C27.7431 153.997 23.9871 156.188 21.5874 157.336C15.223 160.57 11.467 164.952 7.085 173.925C0.407632 188.01 -0.322706 193.539 0.0946299 229.117C0.407632 255.827 6.146 267.512 26.0738 282.536C38.0722 291.509 52.2616 293.804 77.3017 290.674C84.9181 289.735 94.7255 289.005 99.2119 289.005C105.368 289.005 110.271 288.17 119.348 285.458C125.921 283.58 134.894 281.18 139.172 280.241C143.449 279.302 149.605 277.111 152.735 275.442C155.865 273.668 162.334 270.434 166.925 268.138C172.872 265.112 177.149 262.087 181.114 257.913C190.713 247.897 191.234 246.228 191.547 225.257C191.756 209.92 191.547 206.685 190.191 204.494C189.252 203.034 188.104 200.217 187.791 198.13C187.374 196.043 185.287 191.766 182.992 188.636L178.923 182.897L183.201 182.271C185.6 181.958 188.73 180.706 190.191 179.559C191.652 178.307 195.095 176.22 197.807 174.759C206.676 170.064 215.962 160.361 220.552 150.867C227.647 136.364 228.169 126.244 222.222 111.742C220.865 108.403 219.196 103.186 218.466 100.056C215.753 88.3708 206.05 71.0514 195.408 58.9487C192.799 56.0273 188.104 50.3933 184.974 46.4286C173.811 32.5522 150.335 10.3291 142.51 6.36436C135.729 2.92134 123.522 -5.85674e-06 116.218 -5.85674e-06C111.419 0.104328 107.141 0.939001 101.507 3.02568ZM133.746 5.73837C136.042 7.51204 141.571 11.5811 146.058 14.9198C150.648 18.3628 155.97 22.8491 157.952 25.0401C159.934 27.2311 167.342 34.2215 174.437 40.5859C181.531 46.8459 188.104 53.106 189.148 54.4623C190.191 55.7143 193.947 62.183 197.494 68.756C201.042 75.2248 205.841 83.2585 208.032 86.5972C215.023 96.9262 218.57 104.96 219.613 112.681C220.657 121.34 219.3 143.668 217.422 147.111C214.397 152.849 199.164 171.108 197.494 171.108C197.181 171.108 197.181 167.039 197.39 161.926C198.016 147.32 194.26 135.843 183.096 118.419C179.758 113.307 174.958 105.064 172.559 100.265C168.803 93.0659 165.568 89.1012 153.883 76.9984C146.058 68.9647 136.876 60.5137 133.433 58.114C129.99 55.8186 124.669 51.6453 121.644 48.9326C118.618 46.2199 112.358 41.2119 107.559 37.8732C99.7335 32.3435 98.5859 31.8218 93.2648 31.8218C88.5698 31.8218 85.7528 32.6565 77.1974 36.8299C71.5634 39.5426 66.451 41.7336 65.9293 41.7336C64.7817 41.7336 77.8234 25.2488 84.6051 18.1541C87.9438 14.6068 92.5345 11.4767 98.4815 8.55536C109.437 3.23433 113.714 2.08666 122.687 2.39966C128.634 2.60833 130.303 3.13002 133.746 5.73837ZM101.925 38.4992C114.027 45.9069 126.443 55.297 130.199 59.7833C132.181 62.183 137.607 67.3997 142.302 71.4687C146.892 75.4334 153.257 82.0065 156.283 86.0755C159.308 90.0402 165.047 96.9262 168.907 101.204C177.149 110.281 181.531 118.941 188.522 139.807C198.433 169.021 196.973 178.307 182.888 178.411C180.279 178.411 177.775 178.098 177.462 177.785C176.106 176.429 178.923 173.194 181.531 173.194C183.096 173.194 185.496 171.942 187.27 170.169C189.982 167.456 190.295 166.413 190.295 160.883C190.295 155.771 189.148 151.389 183.931 137.512C180.488 128.122 176.732 119.045 175.689 117.167C171.724 110.281 153.674 88.7882 147.831 83.8845C144.493 81.0675 135.103 71.8861 126.86 63.435C109.75 45.9069 99.5249 38.1862 93.6822 38.3949C89.6131 38.6036 80.1187 42.5682 72.711 47.2633C66.8683 51.0193 63.5297 55.61 58.626 66.9824C53.5136 78.9808 52.5746 86.7015 55.0786 99.2216C57.5826 111.637 60.817 118.002 68.8507 126.244C73.65 131.252 75.6324 133.965 75.1107 135.112C74.0674 137.825 72.398 136.573 65.4077 128.226C52.9919 113.515 49.5489 103.291 49.4446 80.5458C49.4446 69.5907 50.1749 67.3997 57.061 56.862C65.7207 43.4029 72.711 38.7079 87.3178 35.9952C91.4911 35.2649 94.9342 34.6389 95.0385 34.5345C95.2472 34.4302 98.2729 36.2039 101.925 38.4992ZM105.889 50.7063C111.315 55.61 120.6 63.435 126.443 68.1301C135.207 74.9118 138.963 78.6678 145.953 88.0578C150.648 94.4222 157.117 101.934 160.143 104.856C163.273 107.673 167.342 112.994 169.22 116.541C171.098 120.088 174.124 125.305 176.106 128.122C181.01 135.425 181.427 136.782 178.506 136.26C177.254 135.947 172.559 135.53 168.177 135.112C157.639 134.278 151.379 132.4 138.128 125.722C132.077 122.697 122.583 118.21 116.949 115.706C108.289 111.95 105.785 110.385 101.507 105.482C98.5858 102.247 94.3082 95.6742 91.9085 90.8749L87.5265 82.1108V63.2263V44.4462L91.6998 43.1942C93.9952 42.4639 95.9775 41.8379 95.9775 41.8379C96.0818 41.7336 100.568 45.8026 105.889 50.7063ZM88.0481 88.0578C92.5345 104.125 95.3515 108.299 107.35 116.541C117.366 123.427 126.756 127.392 138.754 129.791C142.823 130.626 149.396 132.817 153.361 134.591C166.716 140.746 178.714 143.563 180.384 140.851C181.949 138.347 182.992 140.433 185.079 149.824C187.27 159.214 187.27 160.048 185.705 160.883C178.714 164.848 173.393 172.36 172.037 180.185C171.62 182.689 171.098 184.671 170.889 184.671C170.681 184.671 168.281 183.002 165.673 180.915C162.96 178.933 159.1 176.429 157.013 175.281C150.44 171.942 138.337 168.812 134.164 169.23C130.721 169.751 129.782 169.23 125.504 165.265C120.287 160.466 110.793 156.814 106.828 158.066C103.281 159.214 105.055 161.092 110.167 161.822C119.766 163.283 128.738 170.377 133.016 179.976C134.685 183.628 135.52 187.905 135.833 194.374C136.355 204.807 135.52 206.79 131.555 204.181C129.364 202.721 129.156 201.99 129.573 196.878C130.095 190.305 128.53 184.567 124.878 179.663C121.435 175.072 112.358 167.978 109.854 167.978C106.515 167.978 107.663 171.003 111.941 173.09C117.262 175.803 123.835 183.523 125.4 188.636C126.652 192.809 127.069 199.591 126.13 200.53C125.817 200.843 121.957 200.008 117.575 198.756L109.541 196.356L109.75 188.218C110.167 174.029 103.072 154.31 95.7688 149.615C94.3082 148.572 89.1958 146.276 84.3964 144.502L75.6324 141.268L82.4141 134.486C92.2215 124.888 97.7512 118.106 96.8122 116.75C96.3948 116.019 92.8475 118.836 87.3178 124.262C77.4061 134.173 78.0321 134.173 72.711 123.636C71.2504 120.714 67.703 114.454 64.7817 109.759C58.5216 99.5346 58 95.7785 59.7736 77.9374C61.5473 60.7223 64.573 55.61 77.0931 49.0369L83.3531 45.6982L83.9791 60.7223C84.3964 73.3467 85.0224 77.5201 88.0481 88.0578ZM79.0754 145.024C84.5008 145.024 97.7512 159.944 101.925 170.899C104.116 176.324 104.429 191.974 102.446 191.974C101.507 191.974 101.09 189.888 101.09 184.88C101.09 179.037 100.464 176.95 97.6468 171.629C93.5778 164.117 84.8138 153.893 80.5361 151.702C78.8667 150.867 73.8587 149.824 69.4767 149.406C62.1733 148.676 61.6516 148.467 63.8427 147.32C66.6597 145.65 74.3804 144.085 76.3627 144.607C77.1974 144.815 78.3451 145.024 79.0754 145.024ZM75.0064 155.979C77.9277 157.962 81.3708 160.466 82.7271 161.509L85.2311 163.491L80.6404 168.082C78.1364 170.586 75.1107 174.759 74.0674 177.368C72.9197 179.976 71.8764 182.271 71.6677 182.48C71.459 182.689 67.39 181.332 62.5906 179.35C56.4349 176.846 53.5136 175.177 53.2006 173.716C51.3226 166.726 54.2439 157.336 59.252 154.31C64.26 151.284 68.955 151.806 75.0064 155.979ZM47.3579 157.753C47.3579 157.962 46.2102 160.361 44.7495 163.178C43.2889 165.995 42.1412 169.021 42.1412 169.751C42.1412 170.795 40.9935 171.108 38.2808 170.899C35.4638 170.69 34.3162 171.003 34.1075 172.151C33.7945 173.299 38.4895 175.177 53.3049 179.872C64.1557 183.315 77.4061 188.01 82.8314 190.409C88.2568 192.913 96.0818 196.043 100.255 197.504C104.324 198.965 111.21 201.99 115.384 204.077C125.608 209.19 135.416 212.841 139.172 212.841C142.302 212.841 143.345 211.485 141.258 210.233C140.528 209.816 140.632 208.877 141.363 207.416C143.345 203.66 141.78 193.852 137.607 184.462C135.52 179.663 133.538 175.177 133.225 174.446C132.912 173.612 133.746 173.194 136.146 173.194C143.762 173.194 158.995 178.828 165.986 184.254C175.48 191.453 174.645 204.181 164.108 213.259C161.708 215.241 158.056 217.536 155.97 218.162C153.883 218.788 148.353 221.188 143.554 223.379C132.703 228.596 125.817 230.265 112.567 231.1C106.828 231.413 93.9952 232.665 83.9791 233.812C66.451 235.899 65.4077 235.899 53.2006 234.23C40.8892 232.56 40.4719 232.456 37.2375 228.7C31.7078 222.44 22.5264 206.372 21.2744 200.843C20.0224 195.104 20.3354 191.557 23.5698 177.994C25.4478 170.169 26.3868 168.082 29.5168 164.952C31.7078 162.761 35.5682 160.361 38.4895 159.422C43.1845 157.857 47.3579 157.127 47.3579 157.753ZM48.0882 171.838C47.6709 173.612 47.6709 173.612 46.8362 171.838C46.4189 170.899 46.4189 169.23 46.8362 168.186C47.6709 166.517 47.6709 166.517 48.0882 168.186C48.4012 169.23 48.4012 170.899 48.0882 171.838ZM89.0915 167.873C89.0915 168.395 87.3178 169.856 85.2311 171.108L81.2664 173.403L84.2921 170.169C87.4221 166.934 89.0915 166.1 89.0915 167.873ZM94.2038 176.011C95.4558 180.289 95.7688 187.071 94.8298 188.01C94.3082 188.531 88.1525 187.071 81.9968 185.088C78.8667 184.149 87.8395 172.151 91.8041 172.151C92.5345 172.151 93.6822 173.925 94.2038 176.011ZM11.78 180.08C8.44134 191.766 15.3274 216.284 26.8041 233.917C32.5425 242.681 33.3772 242.889 65.6163 243.202C93.3692 243.411 95.9775 243.202 129.782 238.925C136.146 238.09 139.902 236.734 150.231 231.517C171.411 220.771 180.279 212.737 181.844 202.721C182.992 195.835 184.453 199.382 183.827 207.416C183.201 216.91 181.218 218.788 162.334 228.387C151.796 233.708 142.719 237.464 137.189 238.925C132.39 240.072 125.504 242.263 121.748 243.62C116.636 245.602 111.419 246.437 100.255 247.271C92.1172 247.897 77.8234 249.149 68.642 250.088C55.0786 251.445 50.5922 251.549 45.6886 250.61C38.4895 249.149 36.9245 249.045 36.9245 250.297C36.9245 250.819 42.9759 251.758 50.3836 252.488C67.4943 254.262 86.6918 253.323 98.4815 250.297C103.385 249.149 112.775 247.793 119.348 247.376C130.512 246.645 132.286 246.228 144.806 241.116C165.986 232.56 169.22 230.682 177.88 222.231C182.157 217.954 186.539 213.259 187.478 211.798L189.252 209.19L188.73 213.363C188.522 215.658 188 222.857 187.687 229.43C186.852 244.976 183.722 252.175 174.541 259.791C166.507 266.469 163.899 267.825 150.648 271.894C144.597 273.772 136.981 276.276 133.746 277.424C130.512 278.572 123.417 280.345 118.096 281.284C112.775 282.119 104.22 283.997 99.0032 285.458C87.9438 288.379 80.8491 288.588 54.8699 286.397C34.4205 284.727 28.2648 283.162 23.6741 278.259C20.1267 274.607 6.459 248.21 4.68532 241.533C3.32898 236.629 3.12031 211.902 4.37232 213.363C4.89399 213.989 6.35467 217.015 7.71101 220.145C8.96301 223.275 11.6757 228.491 13.7624 231.621C18.0401 238.299 29.3081 250.401 31.3948 250.401C34.3162 250.401 32.5425 247.063 27.0128 241.846C19.8137 235.169 11.78 224.422 8.23268 216.91C6.04166 212.111 5.62433 209.816 5.62433 201.156C5.62433 189.262 7.085 181.645 10.0064 177.889C12.719 174.446 13.1364 174.968 11.78 180.08ZM18.7704 196.148C19.7094 203.347 21.4831 210.442 22.9438 213.78C25.8651 220.353 32.7511 230.787 37.2375 235.482L40.4719 238.925H37.8635C36.4028 238.925 34.9422 238.09 34.3162 236.942C33.6902 235.795 30.5601 230.891 27.2214 225.883C17.7271 211.798 14.91 205.016 14.91 196.356C14.91 189.575 15.8491 183.106 16.6837 183.836C16.8924 184.045 17.8314 189.575 18.7704 196.148ZM163.169 221.292C157.222 226.509 149.501 230.265 142.823 231.1C140.006 231.517 131.973 232.873 125.087 234.23C118.201 235.586 109.332 236.942 105.263 237.151C101.299 237.464 99.1075 237.464 100.568 237.151C102.029 236.942 109.75 235.169 117.783 233.186C125.817 231.308 136.563 228.909 141.676 227.97C150.961 226.3 155.552 224.527 162.125 219.727C167.759 215.658 168.385 216.597 163.169 221.292ZM91.5955 237.777C92.9518 238.299 90.6565 239.029 84.6051 239.968C75.9454 241.324 67.39 241.116 50.4879 239.133L43.7062 238.403L50.4879 237.777C60.6083 236.942 89.3001 236.838 91.5955 237.777Z" fill="#272727"></path><path d="M106.932 14.816C99.6291 23.6844 97.2294 28.6924 100.359 28.6924C102.133 28.6924 117.366 9.28628 117.053 7.40826C116.427 4.27825 114.34 5.73892 106.932 14.816Z" fill="#272727"></path><path d="M211.267 131.148C209.076 134.487 205.946 138.347 204.485 139.703C201.877 142.207 200.833 145.024 202.711 145.024C205.633 145.024 218.466 130 218.466 126.662C218.466 123.427 215.231 125.514 211.267 131.148Z" fill="#272727"></path><path d="M86.6919 135.322C84.3966 137.513 88.3613 139.704 107.141 146.485C114.445 149.198 123.626 152.954 127.487 154.832C134.79 158.484 141.259 160.779 158.161 165.474C167.655 168.083 171.515 168.291 171.515 166.1C171.515 165.474 169.324 164.535 166.612 163.909C163.899 163.179 156.074 160.571 149.188 157.962C142.198 155.354 132.808 152.328 128.217 151.18C123.626 150.033 112.984 145.755 104.637 141.79C89.196 134.487 87.944 134.07 86.6919 135.322Z" fill="#272727"></path><path d="M167.759 240.595C168.072 242.89 168.698 247.168 169.011 250.194C169.533 254.471 170.055 255.619 171.411 255.41C175.376 254.68 173.185 237.778 169.011 237.047C167.238 236.63 167.133 237.047 167.759 240.595Z" fill="#272727"></path><path d="M161.813 241.743C160.978 242.577 162.021 258.645 163.065 260.523C163.482 261.358 164.212 261.462 165.256 260.836C167.968 259.167 166.716 241.012 163.795 241.012C163.065 241.012 162.126 241.325 161.813 241.743Z" fill="#272727"></path><path d="M31.3947 254.262C31.0817 254.784 30.6643 260.418 30.4557 266.782C30.247 275.024 30.56 278.885 31.3947 279.719C32.125 280.45 32.9597 280.867 33.1683 280.554C34.2117 279.511 34.003 255.41 32.9597 254.366C32.438 253.845 31.7077 253.74 31.3947 254.262Z" fill="#272727"></path></svg> 