<?xml version="1.0" encoding="UTF-8"?> <svg xmlns="http://www.w3.org/2000/svg" width="1664" height="1495" viewBox="0 0 1664 1495" fill="none"><path d="M386.633 2.6701C218.975 25.5166 75.9207 142.209 22.495 300.026C4.21781 354.506 0 381.922 0 448.704C0.351485 544.308 15.4653 605.818 61.8613 701.07C127.237 834.986 253.42 985.069 467.474 1183.66C519.143 1231.11 827.395 1494.37 831.612 1494.37C833.37 1494.37 875.548 1459.57 925.107 1417.04C975.018 1374.51 1043.91 1315.46 1079.06 1285.59C1402.42 1008.62 1583.09 790.347 1639.32 608.981C1662.17 534.818 1669.9 445.189 1659.36 377.353C1630.19 191.769 1487.48 43.4423 1303.3 6.88792C1266.05 -0.493258 1178.53 -1.19623 1144.08 5.48198C1106.12 12.5117 1053.05 30.0859 1021.06 46.2542C955.687 79.2937 886.796 140.101 850.241 197.041C840.751 211.803 832.315 223.402 831.261 223.402C830.207 223.402 822.474 211.803 813.687 198.096C792.949 165.056 724.761 96.5165 690.667 74.373C662.548 56.0958 611.935 31.1404 583.464 21.6503C530.039 3.72456 440.762 -4.71107 386.633 2.6701Z" fill="#FBF8EF"></path></svg> 