<?xml version="1.0" encoding="UTF-8"?> <svg xmlns="http://www.w3.org/2000/svg" width="2004" height="4968" viewBox="0 0 2004 4968" fill="none"><path d="M0 383.161L127.706 410.879L253.938 358.704L507.876 334.247L658.176 314.681L756.412 219.299H1002L1133.64 353.813L1234.82 326.095H1355.65L1474.51 388.053L1667.05 363.595L1736.8 350.552L1778.06 221.744L2004 55.436V4682.72L1738.76 4726.74L1477.46 4659.89L1324.21 4669.68L1237.76 4726.74L1149.35 4699.02L999.053 4787.07L892.959 4863.7L738.729 4873.48L580.571 4906.09L518.682 4813.16L467.6 4837.61L418.482 4695.76L367.4 4597.93L316.318 4560.43L62.8706 4464.24L0 4532.72V383.161Z" fill="#F7F2EC"></path><path d="M0 438.531V339.072H17.6824C82.5176 436.885 118.865 330.935 125.741 334.196C132.618 337.457 266.218 330.935 269.165 330.935C271.522 330.935 273.422 316.804 274.076 309.739C287.436 273.216 323.522 287.989 339.894 299.941L377.224 272.238C406.301 243.542 433.873 278.75 444.024 299.941C500.018 286.898 545.206 293.434 568.782 291.804C592.359 290.173 643.441 249.411 644.424 249.411C645.406 249.411 641.476 264.086 653.265 272.238C665.053 280.39 667.018 268.977 677.823 249.411C688.629 229.846 694.523 237.998 699.435 247.781C704.347 257.564 701.4 246.151 702.382 237.998C703.365 229.846 706.312 210.28 711.224 195.606C716.135 180.932 712.206 202.128 718.1 213.541C723.994 224.954 722.029 192.345 732.835 171.149C743.641 149.953 743.641 143.431 772.129 164.627C800.618 185.823 813.388 177.671 816.335 177.671C819.282 177.671 823.212 182.562 832.053 189.084C840.894 195.606 844.823 167.888 848.753 159.735C851.896 153.214 862.506 153.757 867.418 154.844C903.765 120.604 932.253 167.888 961.724 159.735C991.194 151.583 996.106 187.453 1002.98 192.345C1009.86 197.236 1015.75 193.975 1026.56 202.128C1037.36 210.28 1036.38 236.368 1041.29 242.89C1046.21 249.411 1051.12 221.693 1058.98 236.368C1066.84 251.042 1106.13 272.238 1110.06 280.39C1113.99 288.543 1134.62 332.566 1150.34 309.739C1166.05 286.912 1206.33 285.282 1214.19 288.543C1222.05 291.804 1245.62 282.021 1261.34 268.977C1277.06 255.933 1284.92 286.912 1297.69 293.434C1307.9 298.652 1332.73 292.347 1343.86 288.543C1349.75 246.151 1372.35 295.065 1378.24 298.326C1382.96 300.934 1386.1 299.413 1387.08 298.326C1397.89 252.672 1418.52 326.044 1424.41 335.827C1430.31 345.609 1434.24 326.044 1436.2 327.674C1438.16 329.305 1440.13 357.023 1450.94 368.436C1461.74 379.849 1467.64 334.196 1472.55 326.044C1477.46 317.891 1474.51 327.674 1481.39 339.088C1486.89 348.218 1536.73 339.631 1560.96 334.196C1612.04 296.695 1606.15 304.848 1628.74 293.434C1651.34 282.021 1656.25 317.891 1665.09 314.63C1673.93 311.369 1716.17 317.891 1735.82 317.891C1751.54 317.891 1764.63 223.324 1769.22 176.04C1823.25 195.606 1813.42 96.147 1849.77 105.93C1858.5 108.279 1856.65 99.4079 1861.56 91.2556C1866.47 83.1032 1866.47 91.2556 1873.35 87.9946C1880.22 84.7337 1886.12 52.1242 1890.05 48.8633C1893.98 45.6023 1898.89 76.5813 1909.69 73.3204C1920.5 70.0594 1925.41 47.2328 1930.32 37.4499C1935.24 27.6671 1942.11 39.0804 1944.08 34.189C1946.04 29.2976 1948.01 17.8791 1956.85 3.20485C1965.69 -11.4694 1978.46 29.2876 1985.34 24.3962C1990.84 20.483 2000.07 22.7657 2004 24.3962V135.268C2003.02 134.181 2000.66 131.681 1999.09 130.377C1997.12 128.746 1992.21 133.638 1983.37 135.268C1974.53 136.899 1964.71 120.588 1956.85 112.436C1948.99 104.283 1948.01 135.262 1945.06 141.784C1942.11 148.306 1943.09 143.415 1932.29 145.045C1921.48 146.675 1901.84 185.807 1899.87 184.176C1897.91 182.546 1895.94 171.136 1892.01 162.984C1888.08 154.831 1876.29 184.18 1863.52 207.006C1853.31 225.268 1835.04 222.224 1827.18 218.42C1813.42 295.052 1777.08 275.486 1772.16 280.378C1767.25 285.269 1753.5 366.793 1749.57 394.511C1745.64 422.229 1736.8 410.816 1724.03 414.077C1711.26 417.338 1676.88 417.338 1663.12 414.077C1649.37 410.816 1645.44 397.772 1622.85 386.359C1600.25 374.945 1564.89 433.642 1555.06 436.903C1545.24 440.164 1478.44 433.642 1473.53 420.598C1468.62 407.555 1447.99 466.252 1445.04 466.252C1442.09 466.252 1435.22 425.49 1434.24 423.859C1433.25 422.229 1427.36 432.012 1422.45 433.642C1417.54 435.273 1398.87 379.837 1396.91 379.837C1394.94 379.837 1387.08 404.294 1381.19 399.402C1375.29 394.511 1359.58 348.858 1349.75 368.423C1339.93 387.989 1318.32 389.619 1307.51 389.619C1296.71 389.619 1294.74 342.336 1276.08 374.945C1257.41 407.555 1203.38 361.901 1169.98 399.402C1143.26 429.403 1116.28 393.424 1106.13 371.684C1095.32 368.423 1072.14 358.314 1065.85 343.966C1059.57 329.618 1045.55 335.814 1039.33 340.705C1038.35 332.553 1027.54 291.791 1017.72 298.313C1009.86 303.53 1001.35 292.873 998.071 286.893C984.711 256.886 958.449 255.911 946.988 259.175C899.835 231.78 874.294 247.76 867.418 259.175C864.471 254.283 857.594 247.109 853.665 257.544C848.753 270.588 826.159 295.045 823.212 286.893C820.265 278.74 817.318 277.11 804.547 283.635C796.688 283.635 756.412 251.025 741.676 255.917C729.888 259.83 721.047 295.592 718.1 312.983C718.427 310.266 716.921 303.854 708.276 299.941C699.133 295.802 699.133 340.698 699.349 350.654C699.406 351.122 699.435 351.609 699.435 352.116C699.435 353.119 699.389 352.464 699.349 350.654C698.684 345.107 694.294 342.333 691.576 342.333C684.7 348.855 669.572 363.529 664.071 370.051C658.569 376.573 646.716 360.812 641.476 352.116C627.724 363.529 567.8 392.878 559.941 386.356C552.082 379.834 529.488 386.356 515.735 386.356C504.733 386.356 463.343 393.965 444.024 397.769C408.659 317.876 339.894 397.769 336.947 397.769C334 397.769 334 378.204 301.582 386.356C269.165 394.508 275.059 417.335 275.059 422.226C275.059 426.14 267.855 423.857 264.253 422.226C183.7 449.945 136.547 418.966 128.688 430.379C122.401 439.509 101.837 462.445 92.3412 472.771C60.9059 507.011 18.6647 438.531 14.7353 438.531H0Z" fill="#F7F2EC"></path><path d="M0 4581.58V4478.86C11.1388 4441.36 40.0997 4381.03 66.8328 4439.73C68.7984 4439.18 77.6439 4439.4 97.3006 4444.62C121.872 4451.14 115.974 4451.14 134.648 4454.4C153.322 4457.66 168.065 4449.51 171.996 4444.62C175.6 4452.77 183.2 4469.4 184.773 4470.71C186.739 4472.34 189.687 4446.25 199.515 4462.55C209.344 4478.86 236.863 4511.47 258.486 4495.16C260.844 4495.16 266.676 4484.29 269.297 4478.86C268.969 4492.99 269.69 4521.9 275.194 4524.51C282.074 4527.77 273.228 4524.51 286.005 4517.99C298.782 4511.47 295.833 4521.25 305.662 4508.21C315.49 4495.16 316.473 4482.12 324.335 4500.06C332.198 4517.99 321.387 4531.03 335.147 4532.66C348.906 4534.3 381.34 4526.14 383.306 4553.86C385.271 4581.58 383.306 4597.88 383.306 4609.3C383.306 4620.71 415.739 4643.54 440.31 4723.43C440.965 4719.63 442.472 4710.39 443.258 4703.86C444.241 4695.71 459.967 4764.19 468.812 4777.24C477.658 4790.28 478.641 4780.5 482.572 4764.19C486.503 4747.89 488.469 4744.63 494.366 4746.26C500.263 4747.89 505.177 4749.52 509.108 4746.26C513.04 4743 511.074 4708.76 527.782 4764.19C544.49 4819.63 553.336 4848.98 557.267 4850.61C561.199 4852.24 562.181 4857.13 572.01 4850.61C581.838 4844.09 578.89 4845.72 593.632 4845.72C608.375 4845.72 610.34 4831.04 628.031 4809.85C645.722 4788.65 646.705 4809.85 657.516 4809.85C668.328 4809.85 669.31 4791.91 683.07 4798.43C696.83 4804.95 703.71 4819.63 711.572 4814.74C719.435 4809.85 712.555 4826.15 727.298 4814.74C742.04 4803.32 746.954 4777.24 754.817 4777.24C762.68 4777.24 773.491 4788.65 775.457 4809.85C777.029 4826.8 779.388 4826.69 780.371 4824.52L782.753 4808.71C782.912 4807.34 783.108 4806.07 783.319 4804.95L782.753 4808.71C781.677 4817.94 782.277 4831.54 791.182 4832.67C803.959 4834.3 801.993 4824.52 808.873 4819.63C814.377 4815.71 819.029 4811.48 820.667 4809.85C822.633 4806.04 826.957 4798.43 828.53 4798.43C830.495 4798.43 835.409 4790.28 851.135 4804.95C866.86 4819.63 866.86 4814.74 871.774 4814.74C876.689 4814.74 880.62 4824.52 883.568 4824.52C886.517 4824.52 890.448 4839.19 896.345 4824.52C902.242 4809.85 905.191 4809.85 905.191 4793.54C905.191 4780.5 907.812 4777.24 909.122 4777.24C908.794 4783.21 912.267 4790.28 928.779 4770.71C945.29 4751.15 952.694 4735.39 954.333 4729.95C969.73 4735.93 1002.29 4746.58 1009.37 4741.37C1016.45 4736.15 1018.22 4729.41 1018.22 4726.69C1020.51 4731.04 1025.69 4738.43 1028.05 4733.21C1030.99 4726.69 1034.92 4716.91 1042.79 4713.65C1050.65 4710.39 1045.74 4733.21 1058.51 4729.95C1071.29 4726.69 1072.27 4720.17 1080.14 4707.13C1088 4694.08 1086.03 4731.58 1096.84 4707.13C1107.65 4682.67 1113.55 4645.17 1118.47 4653.32C1123.38 4661.47 1126.33 4674.52 1134.19 4667.99C1140.48 4662.78 1145.99 4656.04 1147.95 4653.32C1154.83 4642.99 1169.77 4623.97 1174.49 4630.49C1179.21 4637.02 1185.63 4648.43 1188.25 4653.32C1194.14 4644.08 1206.92 4632.78 1210.85 4661.47C1219.04 4687.56 1255.28 4714.3 1334.69 4612.56C1337.64 4612.56 1359.26 4571.8 1386.78 4612.56C1394.31 4600.6 1415.48 4582.23 1439.85 4604.41C1452.96 4606.58 1480.54 4612.88 1486.05 4620.71C1492.93 4630.49 1501.77 4646.8 1515.53 4646.8C1529.29 4646.8 1544.03 4656.58 1553.86 4638.65C1563.69 4620.71 1559.76 4612.56 1570.57 4612.56C1581.38 4612.56 1603 4623.97 1613.81 4638.65C1624.63 4653.32 1609.88 4650.06 1633.47 4661.47C1657.06 4672.89 1675.73 4703.86 1690.48 4695.71C1705.22 4687.56 1699.32 4682.67 1716.03 4684.3C1732.74 4685.93 1766.15 4695.71 1779.91 4684.3C1793.67 4672.89 1835.94 4601.14 1881.15 4677.78C1894.58 4671.8 1923.41 4663.43 1931.27 4677.78C1940.12 4687.56 1959.18 4702.56 1964.69 4684.3C1971.57 4661.47 1993.19 4619.08 2004 4628.86V4726.69C1999.09 4724.52 1984.34 4732.23 1964.69 4780.5C1931.27 4780.5 1905.72 4753.1 1886.06 4780.5C1881.15 4780.5 1844.78 4684.3 1785.81 4780.5C1779.91 4786.48 1761.63 4794.84 1735.69 4780.5C1726.19 4779.95 1706.4 4781.47 1703.25 4791.91C1696.86 4813.11 1655.09 4785.39 1618.73 4751.15C1608.9 4732.67 1584.53 4699.3 1565.66 4713.65C1557.79 4727.78 1540.1 4755.06 1532.24 4751.15C1522.41 4746.26 1464.42 4702.23 1450.66 4705.49C1436.9 4708.76 1410.37 4681.04 1390.71 4705.49C1388.75 4705.49 1390.71 4695.71 1371.05 4698.97C1351.4 4702.23 1342.55 4682.67 1334.69 4702.23C1326.83 4721.8 1248.2 4785.39 1231.49 4783.76C1218.13 4782.45 1208.89 4753.87 1205.94 4739.73C1200.04 4741.91 1188.25 4747.24 1188.25 4751.15C1188.25 4756.04 1181.37 4720.17 1174.49 4725.06C1167.61 4729.95 1151.88 4743 1149.92 4751.15C1148.34 4757.67 1143.36 4758.21 1141.07 4757.67C1137.79 4765.28 1130.46 4778.87 1127.31 4772.34C1124.17 4765.82 1119.13 4756.16 1118.25 4752.57C1116.38 4756.27 1109.36 4768.74 1101.76 4806.58C1097.5 4803.87 1088.98 4797.45 1088.98 4793.54C1088.98 4788.65 1076.2 4834.3 1070.31 4834.3C1065.59 4834.3 1053.93 4818 1048.68 4809.85L1030.01 4840.82C1028.44 4843.43 1019.53 4841.91 1015.27 4840.82C1008.72 4846.8 987.749 4853.87 956.298 4834.3L923.865 4886.48L905.191 4889.74C904.208 4907.13 901.063 4941.59 896.345 4940.28C890.448 4938.65 875.706 4925.61 875.706 4920.72C875.706 4915.83 871.774 4935.39 837.375 4904.41C834.754 4902.24 828.333 4901.48 823.615 4915.83L816.736 4920.72C811.494 4926.7 800.617 4939.63 799.045 4943.54C797.079 4948.44 791.182 4943.54 783.319 4912.57C782.992 4921.26 781.943 4938.33 780.371 4937.02C778.405 4935.39 770.542 4899.52 768.577 4893C766.611 4886.48 759.731 4873.43 748.92 4893C740.271 4908.65 734.833 4914.74 733.195 4915.83L725.332 4920.72C725.332 4922.35 724.153 4925.93 719.435 4927.24C713.538 4928.87 699.778 4928.87 695.847 4920.72C691.916 4912.57 684.053 4896.26 673.242 4904.41C664.593 4910.93 660.465 4918 659.482 4920.72C652.93 4914.2 637.073 4905.06 626.066 4920.72C615.058 4936.37 608.375 4954.41 606.409 4961.48C602.15 4963.11 592.846 4965.39 589.701 4961.48C585.769 4956.59 573.975 4951.7 572.01 4954.96C570.437 4957.57 564.147 4964.74 561.199 4968C548.422 4920.17 518.15 4828.76 499.28 4845.72C496.332 4849.52 489.452 4856.48 485.52 4853.87C480.606 4850.61 480.606 4893 474.709 4893C468.812 4893 443.258 4811.48 443.258 4804.95C443.258 4799.74 441.293 4818 440.31 4827.78C429.171 4795.17 402.569 4727.34 385.271 4716.91C383.306 4703.86 383.306 4654.95 378.391 4648.43C373.477 4641.91 348.906 4622.34 334.164 4625.6C332.198 4625.6 323.353 4586.47 316.473 4586.47C309.593 4586.47 305.662 4599.51 303.696 4604.41C302.123 4608.32 292.557 4611.47 287.971 4612.56L277.159 4625.6L267.331 4575.06C256.192 4591.91 227.035 4611.25 199.515 4553.86C196.239 4553.32 188.704 4554.19 184.773 4562.01L174.945 4532.66C170.358 4539.73 160.005 4553.86 155.288 4553.86C149.391 4553.86 99.003 4508.43 69.7813 4532.66C61.9186 4539.19 39.3134 4446.25 0 4581.58Z" fill="#F7F2EC"></path></svg> 