<?xml version="1.0" encoding="UTF-8"?> <svg xmlns="http://www.w3.org/2000/svg" width="276" height="281" viewBox="0 0 276 281" fill="none"><path d="M111.402 0.9691C111.402 1.45346 113.098 3.39091 115.156 5.44943C119.394 9.44538 126.539 19.8591 127.628 23.855C128.234 25.7925 127.871 26.6401 125.933 27.2455C124.48 27.7299 122.3 29.7884 120.968 31.8469C119.636 34.1476 117.578 35.8429 116.004 35.964C114.43 36.0851 107.528 36.8116 100.504 37.5382C91.1804 38.3858 86.3368 38.3858 82.5831 37.4171C78.2238 36.2062 77.134 36.3273 75.3177 37.9014C73.3803 39.7178 72.6537 39.7178 68.0523 38.0225C65.1462 37.0538 62.3611 36.5695 61.8768 36.8116C61.3924 37.1749 59.455 34.632 57.5175 31.1204C53.6427 24.0972 44.5609 14.5311 41.7759 14.5311C38.7487 14.5311 39.7174 16.4686 44.3188 19.9802C48.678 23.3707 55.7012 33.0579 55.7012 35.8429C55.7012 36.6905 54.127 38.9912 52.0685 40.9287C50.1311 42.9872 48.4358 45.5301 48.4358 46.4988C48.4358 47.5886 47.8304 48.4362 47.2249 48.4362C46.4984 48.4362 44.561 49.8893 42.8657 51.7056C40.0806 54.7329 39.5963 54.854 37.1745 53.2798C31.9676 50.0104 28.5771 48.5573 27.6084 49.1628C26.3975 49.8893 26.2764 53.2798 27.6084 53.2798C28.0928 53.2798 30.1513 54.3696 32.3309 55.7016L36.2058 58.0023L34.3894 62.6037C33.2996 65.1466 31.3622 68.5371 30.0302 70.2323C28.335 72.2909 27.7295 74.8337 27.9717 78.7086C28.0928 81.7358 28.0928 88.8801 27.9717 94.6924C27.8506 104.38 27.6084 105.348 25.5499 105.348C24.2179 105.348 22.0383 106.68 20.7063 108.376C15.1362 115.52 16.7104 124.359 23.9757 126.418C27.7295 127.508 27.9717 127.75 27.6084 132.472C27.2451 137.074 26.7608 137.679 21.675 140.101C10.6559 145.308 0 162.139 0 174.612C0 178.486 0.726537 183.451 1.57416 185.631C2.54288 187.931 2.90615 190.474 2.3007 191.927C1.2109 194.955 0.968716 202.583 1.93743 205.126C2.78506 207.427 13.1988 207.911 15.3784 205.732C16.226 204.884 19.2532 206.821 25.5499 212.513C30.5146 216.872 36.8112 221.958 39.5963 223.774C42.3813 225.59 45.2875 228.496 46.1351 230.434C46.8617 232.25 48.0725 234.066 48.678 234.43C49.2834 234.914 49.0413 233.461 47.9515 231.524C45.6508 227.043 45.4086 218.083 47.4671 211.302L48.9202 206.458L49.7678 214.934C50.3732 219.536 51.5841 225.832 52.6739 228.739C54.9747 235.277 54.9746 234.793 51.8263 236.125C49.4045 237.094 49.6467 237.215 53.4005 237.094C56.9121 236.852 59.3339 237.941 64.4196 241.816C73.017 248.234 100.868 261.675 114.43 265.792C120.484 267.608 128.113 270.514 131.382 272.452C138.648 276.448 147.366 279.233 155.721 280.202C161.897 280.928 162.139 280.807 170.373 274.389C175.095 270.757 182.119 265.792 185.994 263.491C189.989 261.191 197.013 255.863 201.735 251.624C206.458 247.386 215.418 240.484 221.594 236.125C227.769 231.887 233.945 226.801 235.277 224.985C236.609 223.168 238.789 221.594 239.878 221.594C241.453 221.594 242.3 220.262 242.906 217.356C243.269 214.934 244.601 212.513 245.812 211.907C248.718 210.333 260.706 195.56 265.67 187.084C268.092 183.209 271.241 179.455 272.694 178.729C276.569 176.791 277.174 170.252 273.783 168.073C272.33 167.225 271.241 165.409 271.241 164.077C271.241 160.323 265.913 150.03 261.069 144.581C258.163 141.191 255.015 139.011 251.382 137.921C246.175 136.347 246.054 136.347 245.449 129.929C245.085 126.418 243.874 122.059 242.663 120.121C239.636 114.914 241.089 110.676 246.296 109.708C248.597 109.223 251.866 107.77 253.561 106.438C256.104 104.38 256.71 102.927 256.71 98.5673C256.71 94.087 255.983 92.3917 253.198 89.4856C249.444 85.7318 247.628 85.3685 243.027 87.0638C240.242 88.1536 239.999 87.9114 239.273 83.7944C238.91 81.3726 238.546 77.0133 238.546 74.2283C238.546 71.4432 237.941 68.7793 237.214 68.416C236.488 67.9316 236.246 65.752 236.73 63.0881C237.336 59.5765 236.851 57.8812 234.793 55.2172C232.25 52.0689 232.25 51.4635 233.824 48.5573C235.519 45.5301 242.785 41.0498 248.476 39.5967C251.019 38.8701 251.019 38.628 249.323 36.9327C246.78 34.2688 241.816 36.2062 235.398 42.5028L230.554 47.2253L227.648 44.1981C226.074 42.5028 223.531 41.1709 221.957 41.1709C220.383 41.1709 219.172 40.5654 219.172 39.8389C219.172 39.1123 217.235 36.6905 214.813 34.3898L210.333 30.3939L212.391 25.3081C215.297 18.0427 220.867 10.4141 226.437 5.93378C232.129 1.33238 231.886 -0.120687 226.195 3.39091C220.141 7.14469 216.145 11.8672 211.059 21.191C206.458 29.5462 206.337 29.6673 201.614 29.4252C198.95 29.3041 194.107 29.183 190.716 29.0619C182.119 28.6986 151.12 31.9681 148.335 33.5422C146.397 34.632 145.429 34.2687 142.765 31.3626C140.948 29.4251 137.921 27.4877 135.984 27.1245C133.077 26.519 131.867 25.0659 128.718 18.406C124.601 9.56647 116.609 0.000398965 113.461 0.000398965C112.25 0.000398965 111.402 0.363653 111.402 0.9691ZM139.374 33.7844C141.917 35.8429 142.038 36.3273 140.706 40.9287C136.831 53.6431 122.179 54.1274 121.816 41.5341C121.816 38.8701 122.543 35.7218 123.511 34.5109C125.085 32.5735 125.207 32.6946 126.175 34.9953C126.781 36.6905 128.113 37.5382 130.171 37.5382C132.593 37.5382 133.198 36.9327 133.198 34.5109C133.198 30.8782 135.499 30.6361 139.374 33.7844ZM191.443 34.7531C192.29 35.6007 192.532 37.4171 192.048 39.2334C191.321 42.1396 190.837 42.3818 184.177 42.3818C180.302 42.3818 175.338 41.7763 173.279 41.0498C168.92 39.4756 161.049 41.2919 158.385 44.4403C157.659 45.2879 154.752 46.6199 151.846 47.3464C149.061 48.0729 146.397 49.2839 146.155 50.1315C145.429 52.0689 156.569 50.7369 162.623 48.073C165.408 46.8621 170.131 46.1355 174.853 46.2566C179.091 46.2566 183.087 46.0144 183.935 45.5301C184.783 45.0457 187.689 46.9832 191.079 50.1315C194.833 53.7642 198.224 55.9438 201.009 56.4281C208.758 57.7601 209.122 58.0023 209.848 63.2091C210.454 67.8105 210.09 68.7793 204.52 75.5603C201.251 79.6773 197.497 85.6107 196.286 89.0012C194.349 94.2081 193.501 95.1768 189.989 95.9033C184.177 96.9931 181.634 100.747 181.634 107.891C181.634 111.161 181.15 113.825 180.545 113.825C179.939 113.825 178.849 115.278 178.123 117.094C177.275 119.153 174.369 121.695 170.736 123.633C164.803 126.781 164.803 126.781 162.623 124.48C161.412 123.148 159.233 121.574 157.78 120.969C156.206 120.363 154.995 119.031 154.995 117.821C155.116 114.188 159.233 106.317 163.955 100.626C168.557 95.1768 169.041 92.3917 164.561 96.3877C160.201 100.263 154.268 109.344 151.967 115.278C150.756 118.547 149.303 121.09 148.698 121.09C145.55 121.09 138.89 125.449 137.316 128.597L135.499 132.109L131.867 128.961C129.566 127.144 126.66 125.934 124.359 125.934C121.695 125.934 120 125.086 118.91 123.512C118.062 122.059 116.004 120.485 114.43 119.879C112.371 119.153 111.402 117.821 111.402 115.883C111.402 111.282 107.043 106.801 100.868 104.985C95.5396 103.411 95.2975 103.169 91.907 94.4503C88.3954 85.3685 83.1885 78.7086 77.134 75.5603C73.8646 73.7439 71.4428 74.1072 71.4428 76.4079C71.4428 77.0134 74.1068 79.193 77.3762 81.1304C80.6456 83.1889 84.6416 86.9427 86.3368 89.4856C89.7273 94.5713 93.2389 102.321 93.2389 104.743C93.2389 106.922 87.1845 109.344 85.4892 107.891C84.6416 107.165 81.7354 106.317 78.9504 105.833C74.7122 105.227 73.3803 104.258 71.8061 101.231C70.7163 99.1727 69.1421 96.872 68.4156 96.2666C67.568 95.5401 66.5992 92.9972 66.236 90.3332C65.3883 84.642 62.8455 81.6148 57.3964 79.9195C53.8848 78.7086 53.2794 77.9821 53.2794 74.5916C53.2794 69.748 56.9121 66.1153 63.572 64.2989C66.3571 63.5724 70.2319 61.1506 72.6537 58.7288C75.681 55.5805 77.7395 54.4907 80.7667 54.4907C82.9463 54.4907 86.9423 53.2798 89.6063 51.9478L94.692 49.2839L99.0512 51.7056C102.805 53.7642 104.379 53.8853 108.859 53.0376C113.945 51.9478 114.187 52.0689 118.062 56.1859C120.847 59.2132 123.027 60.5452 125.449 60.5452C127.386 60.5452 131.745 60.9084 135.257 61.2717C141.311 61.9982 141.554 61.9983 143.37 58.3656C145.913 53.4009 145.792 52.4322 143.007 55.8227C140.706 58.6077 140.585 58.6077 138.163 56.4281L135.741 54.2485L139.495 51.5845C141.554 50.2526 143.854 47.2253 144.702 44.9246C146.518 39.2334 150.635 36.3273 156.69 36.3273C159.354 36.2062 163.35 35.4796 165.287 34.5109C169.768 32.4524 189.263 32.5735 191.443 34.7531ZM205.126 40.2021C207.547 41.8974 209.485 41.1709 209.485 38.7491C209.485 37.4171 209.969 36.3273 210.454 36.3273C212.512 36.3273 214.328 39.3545 214.328 42.6239C214.328 50.858 196.892 53.8853 194.349 46.1355C193.38 42.9872 196.771 36.4484 200.161 35.2375C202.341 34.3898 202.946 34.632 203.309 36.8116C203.43 38.1436 204.278 39.7178 205.126 40.2021ZM116.004 40.8076C117.457 41.1709 118.668 42.3817 118.668 43.5926C118.668 46.4988 123.269 52.0689 125.691 52.19C127.144 52.19 126.902 52.5533 124.843 53.6431C121.937 55.0962 121.453 54.7329 118.062 49.0417C117.215 47.7097 115.277 46.8621 113.219 46.9831C98.9302 47.1042 93.7233 47.4675 91.5437 48.6784C90.0906 49.4049 85.8525 50.1315 82.0987 50.1315C75.9231 50.2526 75.1966 50.0104 74.7122 47.4675C73.8646 43.1083 77.4973 41.2919 84.6416 42.745C89.243 43.5926 91.1804 43.4715 93.9655 42.0185C97.4771 40.081 110.191 39.4756 116.004 40.8076ZM67.8101 43.5926C70.7163 46.4988 70.7163 47.2253 68.5367 52.6744C65.6305 59.4554 58.0019 61.635 53.2794 56.9125C50.1311 53.7642 50.2522 49.526 53.2794 45.8934C54.6114 44.3192 55.7012 43.4716 55.5801 44.1981C54.9747 48.3151 57.3964 49.526 62.24 47.7097C64.5407 46.8621 64.7829 42.8661 62.7244 42.0185C61.7557 41.6552 61.9978 41.2919 63.3298 41.2919C64.4196 41.1708 66.4782 42.2606 67.8101 43.5926ZM225.711 48.7995C227.285 51.1002 227.285 52.3111 225.953 56.7914C224.621 61.3928 223.895 62.2404 220.867 62.6037C218.93 62.967 216.387 64.0568 215.176 65.0255C212.391 67.5684 211.543 66.4786 211.422 59.9397C211.301 55.5805 211.786 54.2485 213.844 53.1587C215.297 52.4322 217.114 50.4947 217.84 48.9206C219.414 45.2879 223.41 45.1668 225.711 48.7995ZM51.4631 58.8499L56.1855 63.2091L53.5216 65.2677C52.1896 66.3575 50.4943 68.5371 49.8889 70.2323C48.7991 73.1385 48.5569 72.8963 45.5297 66.1153C42.5024 59.4554 42.5024 58.8499 44.3188 56.6703C45.5297 55.4594 46.4984 54.4907 46.6195 54.4907C46.7406 54.4907 48.9202 56.4281 51.4631 58.8499ZM234.914 61.9983C234.914 64.0568 234.429 64.299 231.039 63.5724C225.953 62.4826 226.195 62.7248 227.648 58.8499C228.738 55.7016 228.859 55.7016 231.886 57.639C233.582 58.7288 234.914 60.6663 234.914 61.9983ZM44.4399 70.3534C46.6195 74.5916 48.4358 78.5875 48.4358 79.3141C48.4358 79.9195 46.7406 81.4937 44.8031 82.5835C40.8072 84.8842 38.7487 89.0012 38.7487 94.6924C38.7487 98.4462 38.7487 98.4462 36.2058 96.1455C33.5418 93.8448 33.5418 93.8448 34.5105 96.7509C37.0534 104.985 39.1119 107.891 45.0453 111.766C48.5569 114.067 53.4005 116.367 55.7012 116.852C61.9978 118.184 69.9898 123.27 77.4973 131.019C83.1885 136.832 85.0049 137.921 89.8484 138.648C92.8757 139.011 96.1451 140.101 96.8716 141.07C97.7193 142.038 100.262 143.128 102.805 143.613C105.227 144.097 108.859 145.429 111.039 146.761C113.703 148.335 116.73 148.941 120.484 148.819C124.843 148.577 126.539 149.062 128.718 151.12L131.261 153.784H125.328C121.453 153.784 118.304 154.632 116.73 155.964C108.617 162.381 109.949 174.733 119.031 177.881L122.785 179.213L120 181.271C116.125 183.935 101.715 183.814 97.8403 181.15C96.3873 180.061 94.3288 179.213 93.2389 179.213C91.4226 179.213 83.5518 170.616 83.5518 168.678C83.5518 168.073 82.5831 166.256 81.4933 164.682C80.2824 162.987 78.7082 159.839 77.9817 157.659C76.7708 154.268 76.8919 153.3 78.9504 150.636C80.4035 148.819 81.4933 145.55 81.6143 142.644C81.7354 136.468 78.2238 133.199 67.3258 129.566C61.0291 127.508 59.3339 126.418 59.3339 124.602C59.3339 123.027 57.7597 121.453 54.7325 120.121C52.3107 119.031 48.3147 116.61 46.014 114.914C43.7133 113.219 39.4752 110.434 36.6901 108.981C31.7255 106.196 31.4833 105.833 31.4833 100.384C31.4833 97.2353 32.0887 94.2081 32.8153 93.8448C33.5418 93.3604 33.9051 89.2434 33.784 83.7944C33.5418 73.9861 36.8112 61.2717 39.3541 62.1193C39.9595 62.3615 42.3813 65.9942 44.4399 70.3534ZM232.613 69.0214C235.64 70.7167 235.64 76.2868 232.492 79.6773C229.344 82.9467 224.621 84.2787 220.504 82.8257C217.114 81.6148 213.844 76.2868 215.418 74.7127C216.387 73.7439 217.477 73.6228 225.227 74.2283C228.496 74.3494 229.465 73.9861 229.828 72.1698C230.07 70.9589 229.586 69.5058 228.617 68.9004C226.195 67.3262 229.586 67.4473 232.613 69.0214ZM204.884 83.5522C202.704 85.3685 201.009 87.9114 201.009 89.2434C201.009 93.1183 199.798 95.6611 197.86 95.6611C195.681 95.6611 195.681 95.1768 198.102 90.4543C201.372 84.0365 205.973 78.5875 207.305 79.5562C208.153 80.0406 207.305 81.4937 204.884 83.5522ZM217.477 84.1576C219.899 85.8529 222.926 87.1849 224.137 87.1849C227.406 87.1849 227.891 89.0012 225.227 91.423C224.016 92.5128 222.563 95.0557 222.199 96.9931C221.715 98.9306 220.02 101.473 218.446 102.442C216.871 103.532 215.539 105.469 215.539 106.68C215.539 108.497 212.391 111.403 210.333 111.403C209.969 111.403 209.364 109.223 208.879 106.68C208.516 104.016 207.063 100.989 205.852 99.8993C202.704 97.1142 203.915 91.5441 208.758 85.7318C210.817 83.31 212.633 81.2515 212.754 81.2515C212.875 81.1304 215.055 82.4624 217.477 84.1576ZM59.3339 85.974C62.24 88.8801 62.4822 93.2394 59.9393 97.9619C58.123 101.473 55.2168 102.927 49.4045 102.927C41.897 102.927 39.8385 90.6965 46.6195 87.1849C48.678 86.2162 50.4943 85.0053 50.6154 84.3998C51.4631 82.7046 56.9121 83.5522 59.3339 85.974ZM231.039 95.6611C226.922 99.2938 225.711 99.8993 225.348 98.3251C225.105 97.2353 225.953 95.7822 227.164 95.0557C228.375 94.4502 230.797 92.5128 232.492 90.8176C234.672 88.638 235.64 88.2747 235.882 89.4856C236.125 90.3332 233.945 93.2394 231.039 95.6611ZM252.351 94.6924C253.683 100.02 252.23 102.442 246.175 104.985C242.058 106.68 232.492 107.165 232.492 105.59C232.492 103.895 240.726 99.1727 245.085 98.4462C247.507 98.0829 249.808 97.2353 250.171 96.7509C251.261 94.9346 247.507 95.5401 241.331 98.204C228.98 103.532 228.98 103.532 233.703 98.5673C239.394 92.6339 244.601 89.4856 248.234 89.8489C250.655 90.091 251.503 91.1808 252.351 94.6924ZM69.8687 105.348C71.0796 108.497 71.8061 108.86 77.6184 109.223L84.1572 109.586L84.7627 118.668C85.1259 123.633 85.9736 128.598 86.579 129.566C87.4266 130.898 86.9423 130.898 84.7627 129.203C76.7708 123.633 72.5326 121.09 69.3843 120.363C67.568 119.879 64.4196 118.184 62.3611 116.61C60.4237 114.914 56.791 112.493 54.4903 110.918C52.1896 109.465 50.2522 107.77 50.2522 107.286C50.2522 106.68 52.6739 105.59 55.7012 104.864C58.7284 104.016 62.24 102.805 63.4509 102.079C66.7203 100.263 68.2945 101.11 69.8687 105.348ZM192.169 101.352C190.716 101.716 190.111 102.805 190.353 104.501C190.595 106.68 191.564 107.165 194.954 107.165C198.829 107.165 199.192 106.922 198.95 103.774C198.708 100.505 198.829 100.384 201.372 102.079C208.032 106.438 202.946 116.246 193.985 116.246C188.294 116.246 184.904 112.977 185.025 107.649C185.146 102.805 187.204 100.505 191.2 100.626C193.38 100.747 193.622 100.989 192.169 101.352ZM224.016 105.348C224.016 105.954 223.531 106.559 222.926 106.559C222.32 106.559 220.746 106.922 219.535 107.286C217.598 107.891 217.598 107.77 219.656 106.075C222.441 103.895 224.016 103.653 224.016 105.348ZM29.6669 110.676C31.8465 112.25 31.8465 112.372 28.8193 111.766C27.1241 111.403 24.5812 111.766 23.1281 112.493C21.0696 113.582 20.5852 113.582 20.5852 112.25C20.5852 108.618 25.671 107.77 29.6669 110.676ZM98.0825 110.797C97.2349 111.887 96.2662 112.371 96.024 112.129C95.1764 111.282 96.8716 108.981 98.3247 108.981C99.0512 108.981 99.0512 109.708 98.0825 110.797ZM105.348 112.493C107.285 116.246 106.801 121.695 104.016 125.207C102.078 127.75 100.504 128.355 96.2662 128.355C93.4811 128.355 90.575 127.629 89.9695 126.781C86.4579 122.543 87.3056 113.703 91.3015 112.25C92.7546 111.645 93.1179 112.129 92.8757 114.067C92.7546 115.883 93.36 116.973 94.8131 117.215C97.5982 117.821 102.078 113.946 101.231 111.766C100.262 109.223 103.895 109.95 105.348 112.493ZM237.335 112.614C237.335 113.219 236.73 113.825 236.003 113.825C235.398 113.825 235.156 113.219 235.519 112.614C235.882 111.887 236.488 111.403 236.851 111.403C237.093 111.403 237.335 111.887 237.335 112.614ZM209.485 115.035C209.485 115.641 208.879 116.246 208.153 116.246C207.547 116.246 207.305 115.641 207.669 115.035C208.032 114.309 208.637 113.825 209.001 113.825C209.243 113.825 209.485 114.309 209.485 115.035ZM188.294 117.942C189.626 118.91 193.138 120.121 195.923 120.606L201.13 121.695L196.649 126.902C194.228 129.808 190.111 132.957 187.447 134.047C184.662 135.136 181.998 137.316 180.908 139.496C179.091 142.886 165.65 152.573 162.623 152.573C161.776 152.573 161.049 153.058 161.049 153.663C161.049 158.022 150.756 160.444 147.729 156.811C146.882 155.843 144.46 154.995 142.159 154.995C139.011 154.995 137.194 153.905 133.562 150.03C129.081 145.187 128.839 145.066 122.785 145.792C116.972 146.398 116.488 146.277 112.977 142.402C110.555 139.496 107.891 137.921 104.621 137.437C102.078 136.953 97.2349 135.257 93.8444 133.683L87.7899 130.898L94.4498 130.777C99.1723 130.777 102.926 129.808 107.528 127.508L114.066 124.238L116.004 126.781C117.336 128.355 120 129.566 123.027 129.929C129.203 130.656 135.136 134.773 136.226 139.132C137.437 143.855 140.222 146.398 146.639 148.214C157.78 151.605 164.682 147.245 165.65 136.468C166.135 130.535 166.377 130.051 170.857 127.871C173.4 126.539 176.306 124.723 177.275 123.633C178.244 122.543 180.181 120.485 181.634 118.91C184.419 115.762 185.146 115.641 188.294 117.942ZM236.73 118.91C240.968 122.18 243.39 127.992 243.39 134.773C243.39 141.554 242.058 142.886 240.242 137.8C238.91 134.289 238.667 135.257 238.667 146.882C238.546 161.413 237.457 164.803 231.402 169.284L227.648 172.069V165.409C227.648 161.897 228.496 154.632 229.586 149.546C230.676 144.46 231.281 138.164 231.039 135.621C230.676 131.746 231.039 130.777 233.097 130.293C234.55 129.808 236.125 130.414 237.093 131.625C237.82 132.715 238.546 133.199 238.546 132.715C238.546 131.261 234.793 124.359 231.644 120.121C228.98 116.489 228.859 116.246 231.039 116.246C232.371 116.246 234.914 117.457 236.73 118.91ZM29.1826 118.668C30.3935 119.395 31.4833 120.484 31.4833 121.09C31.4833 122.301 23.007 120.242 21.3118 118.547C19.6165 116.973 26.2764 117.094 29.1826 118.668ZM213.723 127.387C211.18 132.836 207.426 137.558 206.458 136.589C205.247 135.379 206.821 131.504 210.938 125.812C215.055 120 216.871 121.09 213.723 127.387ZM231.281 122.906C232.129 123.996 232.492 125.086 232.129 125.57C231.16 126.418 227.648 123.754 227.648 122.18C227.648 120.484 229.586 120.848 231.281 122.906ZM205.852 126.539C204.399 128.961 203.188 132.715 203.067 135.015C202.946 139.496 202.341 140.101 200.04 137.8C197.255 135.015 198.345 129.566 202.341 125.812C207.426 121.09 209.001 121.332 205.852 126.539ZM53.0372 126.176C52.3107 128.355 49.6467 128.719 49.6467 126.66C49.6467 125.57 50.4943 124.723 51.5841 124.723C52.6739 124.723 53.2794 125.328 53.0372 126.176ZM149.546 127.144C149.909 127.75 149.424 128.355 148.456 128.355C147.366 128.355 146.518 127.75 146.518 127.144C146.518 126.418 147.003 125.934 147.608 125.934C148.335 125.934 149.182 126.418 149.546 127.144ZM159.233 128.597C162.987 130.293 163.471 136.589 160.08 139.617C154.026 145.187 141.675 146.64 139.98 142.16C138.648 138.648 139.253 131.14 140.948 129.687C142.28 128.476 142.886 128.719 143.491 130.656C144.944 135.379 156.206 135.5 156.206 130.898C156.206 129.566 155.237 128.234 154.147 127.992C152.21 127.508 152.088 127.387 154.026 127.266C155.116 127.266 157.537 127.75 159.233 128.597ZM219.172 128.597C219.172 130.777 214.328 138.527 213.602 137.679C212.996 137.074 218.082 127.144 218.93 127.144C219.051 127.144 219.172 127.871 219.172 128.597ZM34.5105 129.566C34.1472 130.172 33.2996 130.777 32.5731 130.777C31.9676 130.777 31.4833 130.172 31.4833 129.566C31.4833 128.84 32.3309 128.355 33.4207 128.355C34.3894 128.355 34.8738 128.84 34.5105 129.566ZM48.4358 135.015C48.4358 136.711 43.9555 138.769 42.7446 137.558C41.6548 136.589 46.1351 131.867 47.346 132.715C47.9515 133.078 48.4358 134.047 48.4358 135.015ZM34.1473 138.89C31.2411 144.097 30.8778 145.792 31.12 154.753C31.3622 161.897 30.8778 165.893 29.6669 168.436C27.1241 173.158 25.1866 172.916 26.8819 168.073C27.8506 165.167 27.8506 162.018 26.7608 155.6C25.0655 145.187 25.9132 142.281 32.3309 136.953C34.7527 134.894 36.9323 133.199 37.1745 133.199C37.2956 133.199 35.9636 135.742 34.1473 138.89ZM60.0604 142.523C63.2087 150.151 62.9666 151.847 59.2128 148.093C57.6386 146.519 56.4277 143.37 56.0645 139.738C55.2168 132.593 56.3066 133.32 60.0604 142.523ZM201.977 143.734C203.067 144.581 206.094 145.308 208.879 145.308C213.239 145.308 213.844 145.671 213.723 147.972C213.36 154.995 202.22 173.158 198.345 173.158C197.376 173.158 195.317 174.127 193.743 175.217L190.716 177.397L193.501 173.885C200.403 164.924 193.138 148.819 181.876 148.456L177.275 148.335L181.513 144.097C183.814 141.796 187.931 138.769 190.595 137.437L195.56 135.015L197.739 138.648C198.95 140.585 200.888 143.007 201.977 143.734ZM56.3066 154.026C58.123 156.206 58.8495 158.991 59.0917 166.499C59.3339 171.826 58.9706 177.518 58.2441 179.213C57.1543 181.877 57.0332 181.514 57.0332 176.428C56.9121 172.674 55.5801 167.467 53.2794 162.26C49.4045 153.3 48.7991 147.487 51.0998 139.859L52.6739 135.015L53.2794 143.128C53.7638 148.941 54.6114 152.089 56.3066 154.026ZM69.021 147.245C69.021 149.909 67.0836 149.183 63.6931 145.187C61.9978 143.128 60.5448 140.101 60.5448 138.406C60.5448 135.621 60.7869 135.742 64.7829 140.464C67.0836 143.249 69.021 146.277 69.021 147.245ZM227.285 143.734C227.043 148.335 225.59 154.39 224.137 157.417C221.594 162.866 221.594 162.866 222.199 158.628C224.137 144.097 225.832 135.621 226.801 135.621C227.527 135.621 227.648 139.132 227.285 143.734ZM76.2864 145.429C76.2864 147.245 75.681 149.183 74.8333 149.667C74.1068 150.151 73.8646 150.03 74.349 149.183C74.7122 148.456 74.349 145.671 73.3803 142.886C71.685 137.921 71.685 137.921 73.9857 139.98C75.1966 141.07 76.2864 143.613 76.2864 145.429ZM252.956 144.702C257.194 149.667 259.616 154.753 260.706 161.292C261.311 165.288 261.069 165.893 259.011 165.893C257.679 165.893 255.015 165.045 252.956 164.077C250.05 162.503 249.566 161.776 250.655 159.839C252.835 155.722 252.108 150.273 248.839 147.003C247.144 145.308 245.812 143.249 245.812 142.281C245.812 139.132 249.081 140.343 252.956 144.702ZM50.8576 162.139C51.4631 163.471 52.0685 168.073 52.0685 172.553V180.424L48.7991 179.697C44.3188 178.607 43.5922 178.123 43.5922 176.186C43.5922 173.885 37.6588 169.526 34.5105 169.526C31.8465 169.526 31.8465 169.405 33.4207 163.229C34.3894 159.718 35.116 155.116 35.116 152.815C35.116 149.425 35.7214 148.577 39.233 147.124C41.5337 146.155 43.8344 144.702 44.3188 143.855C44.9242 143.007 46.1351 145.913 47.346 151.12C48.5569 155.843 50.1311 160.807 50.8576 162.139ZM23.6125 154.632C22.5227 167.104 21.5539 170.131 17.1947 174.733C11.3824 180.908 9.80825 181.15 7.87082 176.307C5.57012 170.979 5.57012 163.35 7.74973 158.264C9.56607 153.784 19.6165 144.097 22.5227 144.097C24.2179 144.097 24.339 145.429 23.6125 154.632ZM186.478 152.573C187.931 153.542 187.568 153.784 184.904 153.784C183.087 153.784 179.818 154.632 177.759 155.722C172.674 158.386 166.861 159.96 167.709 158.507C169.041 156.448 179.455 151.726 183.451 151.483C184.177 151.483 185.509 151.968 186.478 152.573ZM73.8646 159.112C73.8646 161.049 73.017 162.381 71.4428 162.866C68.4156 163.835 66.5992 162.745 66.5992 159.839C66.5992 157.78 67.4469 157.417 73.017 156.327C73.5013 156.327 73.8646 157.538 73.8646 159.112ZM267.608 164.319C267.608 165.893 267.124 167.104 266.397 167.104C265.792 167.104 265.186 165.53 265.186 163.592C265.186 161.655 264.823 158.991 264.46 157.78C264.096 156.569 264.702 156.932 265.67 158.628C266.639 160.323 267.487 162.866 267.608 164.319ZM130.898 159.475C131.745 160.323 130.171 160.565 126.175 160.081C122.906 159.839 119.031 160.202 117.578 160.928C114.793 162.503 114.187 161.171 116.609 158.749C118.304 156.932 128.96 157.538 130.898 159.475ZM190.837 161.292C191.321 162.018 190.474 163.713 188.779 165.045C185.751 167.467 179.213 167.225 173.885 164.44C171.463 163.108 171.584 162.987 175.58 161.534C181.029 159.596 189.747 159.475 190.837 161.292ZM152.573 165.288C152.573 166.256 152.088 167.104 151.362 167.104C150.756 167.104 150.151 166.256 150.151 165.288C150.151 164.319 150.756 163.471 151.362 163.471C152.088 163.471 152.573 164.319 152.573 165.288ZM215.903 165.167C216.992 167.952 213.723 169.889 211.786 167.588C210.454 166.014 210.575 165.53 212.028 164.561C214.45 163.108 215.176 163.229 215.903 165.167ZM128.96 165.772C130.898 166.499 130.535 166.862 126.902 167.467C122.058 168.194 117.457 167.346 117.457 165.772C117.457 164.44 125.57 164.44 128.96 165.772ZM69.5054 171.221C71.4428 175.944 76.1653 181.514 87.1845 192.048C92.3913 197.013 117.699 199.677 121.09 195.56C121.937 194.591 123.632 193.744 124.964 193.744C126.296 193.744 128.96 192.048 130.898 189.99C138.89 181.393 136.468 192.048 128.234 201.736C124.601 206.095 121.453 211.302 120.242 215.177C117.82 223.047 115.156 223.532 108.496 217.356C105.832 214.934 102.563 213.118 100.868 213.118C99.2934 213.118 96.1451 211.786 94.0866 210.212C91.907 208.638 88.8797 206.942 87.1845 206.458C85.4892 205.974 82.7042 204.278 80.8878 202.704C79.0715 201.251 75.8021 199.677 73.7435 199.193C71.5639 198.708 68.5367 196.65 66.8414 194.712C65.1462 192.775 62.6033 190.595 61.0291 190.111L58.3652 189.021L61.1502 183.572C62.7244 180.545 64.2985 175.338 64.7829 171.948C65.7516 165.288 66.9625 165.167 69.5054 171.221ZM79.9191 167.709C81.13 169.162 80.8878 169.889 78.5871 171.826C75.9231 174.006 75.5599 174.006 74.2279 172.311C73.1381 170.979 73.1381 169.768 73.9857 168.194C75.4388 165.409 77.8606 165.288 79.9191 167.709ZM243.148 168.315C243.995 169.647 244.48 170.737 244.238 170.737C243.995 170.737 242.785 169.647 241.574 168.315C240.363 166.983 239.878 165.893 240.484 165.893C241.089 165.893 242.3 166.983 243.148 168.315ZM181.271 168.315C188.294 168.315 189.868 168.678 189.384 170.01C189.021 170.979 187.083 172.432 185.146 173.28C180.787 174.975 174.369 173.401 169.525 169.405L166.498 166.862L169.525 167.588C171.221 167.952 176.427 168.315 181.271 168.315ZM260.706 170.616C265.186 171.826 268.94 173.158 268.819 173.522C268.819 174.006 268.819 174.854 268.819 175.58C268.819 177.397 261.796 177.033 257.315 174.854C255.136 173.885 252.108 171.584 250.534 169.889C247.87 166.983 247.87 166.862 250.05 167.588C251.382 168.073 256.225 169.526 260.706 170.616ZM160.444 174.006C163.834 177.639 166.498 185.267 167.709 194.591L168.436 200.404L164.561 196.165C159.475 190.474 154.995 180.787 154.995 175.217C154.995 169.889 156.206 169.647 160.444 174.006ZM221.594 174.369L224.137 178.002L221.11 181.998C219.414 184.299 217.961 186.72 217.961 187.326C217.961 188.052 216.024 189.748 213.723 191.08C211.422 192.533 209.243 194.955 208.758 196.65C208.395 198.466 207.305 199.798 206.458 199.798C203.673 199.798 191.321 210.696 190.595 213.723C190.111 215.782 189.021 216.751 187.204 216.751C185.751 216.751 183.935 217.356 183.208 218.083C181.15 220.141 170.615 199.677 169.889 191.685C169.162 184.662 170.373 183.451 174.611 187.326C177.881 190.232 198.102 190.353 202.462 187.447C206.337 184.904 213.118 178.123 215.903 174.006C217.114 172.19 218.324 170.737 218.567 170.737C218.809 170.737 220.141 172.311 221.594 174.369ZM210.333 173.885C210.696 174.854 210.454 176.307 209.606 177.154C207.911 178.85 203.915 175.338 205.126 173.28C206.337 171.342 209.485 171.705 210.333 173.885ZM240.605 173.885C242.663 179.334 234.066 185.51 230.797 180.908C229.344 179.092 229.465 178.244 231.644 175.338C234.429 171.584 239.394 170.737 240.605 173.885ZM37.4167 176.307C39.8385 179.334 39.8385 179.576 37.7799 182.361C35.2371 185.873 34.5105 185.994 32.2098 182.603C28.9404 178.002 29.9091 173.764 34.1473 173.28C34.6316 173.158 36.0847 174.612 37.4167 176.307ZM145.913 177.518C145.186 181.635 145.307 181.877 147.124 179.939C148.214 178.85 150.151 177.518 151.362 176.791C153.178 175.822 153.542 176.307 154.268 180.545C155.479 188.174 160.565 199.556 165.287 205.247C168.072 208.638 170.131 212.876 171.221 217.719L172.916 224.864L169.041 227.891C166.982 229.586 163.834 231.403 162.26 231.887C160.565 232.371 158.264 233.582 157.053 234.672C155.358 236.125 154.389 236.246 151.846 235.156C150.272 234.309 147.729 233.703 146.518 233.703C145.186 233.703 142.28 232.008 139.858 229.949C137.194 227.528 134.167 226.075 131.624 225.953C129.081 225.832 127.628 225.106 127.386 223.774C126.539 219.657 129.808 211.786 134.652 206.216C140.222 199.677 145.307 189.748 145.307 185.267C145.307 182.725 144.944 182.967 143.007 187.084C141.796 189.748 139.253 193.259 137.437 194.955L134.167 197.982L136.589 193.138C137.921 190.474 139.374 186.357 139.858 184.057C141.917 174.612 147.729 168.436 145.913 177.518ZM255.136 175.944L260.221 178.607L256.831 184.662C254.893 188.052 251.261 193.138 248.597 196.044L243.995 201.251L239.999 193.744L236.125 186.236L239.878 182.361C241.816 180.303 244.601 177.397 246.054 175.822C249.081 172.553 248.839 172.553 255.136 175.944ZM86.579 178.002C88.3954 179.939 88.3954 180.666 87.1845 182.24C85.1259 184.783 82.7042 184.541 81.13 181.756C78.1028 175.944 82.0987 173.158 86.579 178.002ZM138.042 178.002C138.042 178.607 136.468 179.939 134.53 180.908C131.382 182.603 130.898 182.603 130.292 180.787C129.808 179.697 130.171 178.365 131.019 177.76C133.198 176.428 138.042 176.549 138.042 178.002ZM174.248 179.939C174.49 180.182 173.279 180.424 171.584 180.424C169.404 180.424 168.314 179.818 168.314 178.607C168.314 177.033 168.799 176.912 171.1 178.123C172.553 178.85 174.006 179.697 174.248 179.939ZM202.22 179.818C202.22 181.514 201.251 183.33 199.919 184.057C197.981 185.025 197.376 184.662 196.407 181.756C194.954 177.639 195.439 176.791 199.434 176.791C201.614 176.791 202.22 177.397 202.22 179.818ZM26.3975 181.029C27.2451 182.725 29.788 185.267 32.0887 186.599C34.3894 188.052 36.3269 189.869 36.3269 190.716C36.3269 192.412 41.2915 197.982 43.4711 198.708C45.2875 199.314 42.2602 212.513 40.2017 212.513C39.4752 212.513 33.6629 207.427 27.2451 201.251C14.5307 189.021 14.2886 188.537 20.222 181.635C23.8546 177.154 24.7023 177.154 26.3975 181.029ZM6.78101 183.693C6.29666 184.178 5.44903 183.814 4.84358 182.846C2.90615 179.818 3.5116 178.607 5.69121 180.787C6.78101 181.877 7.26537 183.209 6.78101 183.693ZM264.46 181.029C263.975 181.998 263.491 182.846 263.249 182.846C263.006 182.846 262.764 181.998 262.764 181.029C262.764 180.061 263.249 179.213 263.975 179.213C264.581 179.213 264.823 180.061 264.46 181.029ZM182.119 182.24C182.482 183.33 181.998 184.42 180.908 184.904C178.607 185.752 177.517 184.662 178.365 182.24C179.334 179.939 181.15 179.939 182.119 182.24ZM191.321 182.24C193.017 184.299 191.927 186.478 189.021 186.478C187.447 186.478 186.841 185.51 186.841 183.451C186.841 180.061 189.021 179.455 191.321 182.24ZM48.5569 184.057C51.2209 185.51 51.4631 188.537 49.4045 193.138C47.5882 197.255 44.0766 197.013 41.7759 192.533C39.5963 188.295 39.4752 186.236 41.4126 184.299C43.229 182.482 45.4086 182.482 48.5569 184.057ZM96.2662 184.057C97.4771 186.115 95.4186 191.443 93.4811 191.08C90.4539 190.474 88.8797 186.963 90.6961 184.783C92.5124 182.603 95.1764 182.24 96.2662 184.057ZM126.539 188.416C124.48 189.869 123.996 189.869 122.3 188.174C120.726 186.478 120.726 186.115 122.906 184.541C124.964 183.088 125.449 183.088 127.144 184.783C128.718 186.478 128.718 186.842 126.539 188.416ZM228.133 186.72C229.707 193.017 227.527 194.591 223.41 190.111C221.594 188.174 221.594 187.447 222.805 185.873C224.984 183.209 227.285 183.572 228.133 186.72ZM262.038 185.51C258.405 191.806 246.538 208.274 245.691 208.274C245.085 208.274 244.601 207.427 244.601 206.458C244.601 205.489 245.085 204.642 245.691 204.642C246.296 204.642 250.292 200.04 254.409 194.349C261.311 185.025 264.338 181.514 262.038 185.51ZM106.559 190.111C106.559 192.896 106.074 193.744 104.137 193.744C102.805 193.744 101.352 192.896 100.989 191.927C99.8989 189.142 101.352 186.478 104.137 186.478C106.074 186.478 106.559 187.326 106.559 190.111ZM117.215 189.506C118.789 192.896 117.457 194.349 113.824 193.138C110.555 192.17 110.434 186.478 113.582 186.478C114.914 186.478 116.488 187.81 117.215 189.506ZM11.3824 198.103C11.8668 201.857 11.8668 205.247 11.6246 205.61C11.2613 205.853 9.56607 205.853 7.87082 205.368C5.8123 204.884 4.84358 203.794 4.84358 202.099C4.84358 199.072 8.35518 191.322 9.68716 191.322C10.1715 191.322 10.8981 194.349 11.3824 198.103ZM61.8768 196.165C64.904 199.193 65.2673 200.161 64.1775 202.22C62.6033 205.126 61.7557 205.247 57.0332 202.462C53.0372 200.283 52.5529 198.587 54.4903 194.833C56.1855 191.685 57.6386 191.927 61.8768 196.165ZM222.441 195.681C224.258 200.404 218.203 203.794 213.844 200.404C211.543 198.708 211.543 198.587 213.723 196.165C216.387 193.259 221.352 193.017 222.441 195.681ZM37.0534 214.934C39.233 216.266 41.1704 218.083 41.1704 218.809C41.1704 219.657 35.9636 216.266 29.5458 211.302C23.2492 206.337 17.558 202.22 16.8314 202.22C16.226 202.22 15.7416 200.888 15.7416 199.193C15.7416 196.408 16.4682 196.892 24.339 204.278C29.0615 208.88 34.7527 213.602 37.0534 214.934ZM240.605 211.907C241.21 218.446 239.999 220.504 236.246 219.536C234.066 218.93 233.703 218.325 234.429 216.266C235.035 214.934 235.398 209.727 235.398 204.884L235.519 196.044L237.82 201.251C239.031 204.157 240.242 208.88 240.605 211.907ZM230.554 202.825C231.402 209.364 229.101 219.172 226.68 219.172C225.832 219.172 218.93 225.106 211.543 232.25C202.704 240.726 195.075 246.902 189.505 249.929C184.904 252.593 176.185 258.163 170.252 262.401C164.319 266.518 158.506 270.03 157.295 270.03C155.963 270.03 149.424 267.972 142.643 265.308C135.741 262.765 126.417 259.495 121.695 257.921C117.094 256.468 112.734 254.894 112.008 254.288C111.402 253.804 104.137 250.535 95.9029 247.023C85.8525 242.785 77.7395 238.184 71.0796 233.219C65.5094 229.102 59.6971 224.864 58.0019 223.774C55.459 222.2 54.6114 220.262 53.6427 214.45C53.0372 210.333 52.6739 206.821 52.9161 206.579C54.127 205.368 63.0877 209.849 66.8414 213.602C69.7476 216.509 72.2905 217.962 74.4701 217.962C76.2864 217.962 79.3136 219.294 81.3722 220.989C83.3096 222.684 86.4579 224.379 88.1532 224.864C89.9695 225.227 92.9968 226.922 94.8131 228.496C96.7505 229.949 99.2934 231.281 100.504 231.281C101.594 231.281 103.289 232.129 104.258 233.219C106.68 236.125 112.129 238.547 116.246 238.547C119.394 238.547 120.121 239.273 121.816 243.39C123.511 247.386 124.359 248.234 127.144 248.234C129.081 248.234 131.503 247.386 132.593 246.297C134.409 244.48 134.773 244.48 137.316 246.902C139.737 249.082 142.038 249.687 151.12 250.171C161.412 250.656 162.139 250.535 165.65 247.629C170.131 243.875 172.916 243.754 173.4 247.265C173.885 250.535 178.728 251.624 182.845 249.445C184.783 248.355 185.267 247.023 185.267 241.574C185.267 236.609 185.751 234.914 186.962 234.914C187.931 234.914 190.232 233.098 192.048 230.918C193.864 228.86 196.892 226.317 198.829 225.59C200.888 224.743 202.946 222.563 203.794 220.504C204.641 218.325 206.7 216.266 209.606 215.055C212.391 213.845 214.571 211.665 215.539 209.606C216.266 207.669 218.446 205.489 220.383 204.642C222.199 203.915 224.379 201.978 225.227 200.283C227.648 195.802 229.707 196.771 230.554 202.825ZM76.4075 204.763C78.3449 206.7 78.7082 208.032 77.9817 211.059C76.8919 216.509 76.5286 216.751 73.017 215.419C69.1421 213.966 66.7203 210.938 66.5992 207.548C66.5992 202.22 72.1694 200.525 76.4075 204.763ZM212.875 206.095C213.36 208.396 209.122 213.118 206.7 213.118C204.278 213.118 201.977 207.548 203.794 206.095C207.669 203.068 212.27 203.068 212.875 206.095ZM88.8797 212.149C91.1804 214.329 91.6648 215.782 91.1804 218.809C90.4539 223.29 88.1532 223.895 83.794 220.868C80.8878 218.809 80.1613 213.36 82.5831 210.938C84.6416 208.88 85.3681 209.122 88.8797 212.149ZM201.009 212.997C202.462 215.903 201.493 218.809 198.345 220.504C196.407 221.594 195.317 221.352 193.38 219.294C191.2 217.235 191.079 216.387 192.29 213.723C193.985 209.97 199.071 209.606 201.009 212.997ZM103.895 219.536C106.438 222.2 106.438 222.563 104.621 226.196C103.653 228.375 102.321 230.071 101.836 230.071C99.6567 230.071 94.4498 224.864 94.4498 222.805C94.4498 216.266 99.2934 214.692 103.895 219.536ZM127.386 229.707C129.445 239.637 128.96 244.117 126.296 240.726C123.027 236.488 121.211 224.743 123.027 219.778C124.238 216.63 125.085 218.567 127.386 229.707ZM232.976 220.141C234.187 222.2 200.524 249.445 198.829 247.629C198.102 246.902 202.341 243.39 211.543 237.094C221.473 230.313 230.07 222.805 230.07 220.868C230.07 219.051 232.008 218.567 232.976 220.141ZM178.486 224.864C179.697 227.407 181.029 232.613 181.271 236.367C181.876 242.906 181.755 243.39 179.455 243.39C176.427 243.39 175.943 241.937 174.853 229.707C174.006 219.415 175.095 217.84 178.486 224.864ZM189.384 222.321C192.169 223.411 191.685 226.801 188.294 230.071C185.146 232.977 185.025 232.977 183.572 226.196C182.724 222.321 185.146 220.747 189.384 222.321ZM116.73 225.953C119.394 226.922 119.394 235.883 116.73 236.973C114.43 237.82 108.496 233.703 108.012 230.797C107.164 226.559 111.766 224.016 116.73 225.953ZM77.134 240.605C88.6375 247.629 102.563 254.894 112.008 258.769C137.316 269.304 140.948 270.393 153.42 270.514C159.596 270.636 164.682 270.757 164.682 270.878C164.682 271.968 155.237 276.085 152.573 276.085C148.214 276.085 123.269 267.003 111.645 261.069C106.801 258.648 99.7778 255.499 96.024 254.046C92.2702 252.714 85.6103 249.203 81.2511 246.418C76.8919 243.633 69.8687 239.516 65.7516 237.457C61.5135 235.398 58.123 233.461 58.123 233.219C58.123 232.856 57.7597 231.887 57.3964 230.797C57.0332 229.707 56.9121 228.86 57.2754 228.86C57.6386 228.86 66.5992 234.066 77.134 240.605ZM134.773 231.645C136.589 232.856 136.71 233.582 135.378 236.367C134.046 239.152 131.988 240.969 131.988 239.273C131.988 239.031 131.14 236.852 130.171 234.43C128.476 230.313 128.476 230.071 130.535 230.071C131.745 230.071 133.683 230.797 134.773 231.645ZM174.369 234.914C174.369 239.394 171.221 239.879 170.494 235.52C169.768 232.25 170.373 231.281 172.795 231.281C173.763 231.281 174.369 232.735 174.369 234.914ZM147.85 238.062C150.756 239.516 151.483 240.484 150.878 242.543C150.514 243.996 150.151 245.933 150.151 246.66C150.151 247.629 148.456 248.234 146.034 248.234C139.858 248.234 135.62 241.453 139.495 237.578C141.433 235.641 143.491 235.762 147.85 238.062ZM166.377 236.852C171.705 238.91 166.377 245.812 159.596 245.812C154.268 245.812 153.663 244.117 157.537 239.273C159.959 236.125 162.623 235.398 166.377 236.852Z" fill="#272727"></path><path d="M50.6155 86.3369C46.9828 87.7899 46.1352 90.4539 48.9203 91.5437C51.5842 92.5124 55.7013 89.8485 55.7013 87.1845C55.7013 84.5205 55.338 84.3994 50.6155 86.3369Z" fill="#272727"></path></svg> 