<?xml version="1.0" encoding="UTF-8"?> <svg xmlns="http://www.w3.org/2000/svg" width="417" height="664" viewBox="0 0 417 664" fill="none"><path d="M157.164 0.66137C153.386 1.29066 142.936 2.42339 133.877 3.30441C115.744 4.94057 86.2849 9.59732 73.194 12.7438C63.499 15.1351 49.899 19.7919 50.5274 20.5471C50.7819 20.7988 53.5496 20.0436 56.5718 19.0368C106.43 1.29066 261.287 -2.10753 351.802 12.618C368.425 15.261 373.586 17.904 373.714 23.6935C373.714 26.4625 374.469 26.3366 364.273 24.0711C351.683 21.0505 329.772 18.6592 295.653 16.3937C270.473 14.7576 251.719 14.5058 193.677 15.0093C120.905 15.7645 107.56 16.5196 77.8466 21.0505C55.689 24.3228 53.6768 25.078 48.0141 31.6226C41.3414 39.1742 32.402 59.8151 31.6465 69.3803C31.1374 75.1698 30.2626 77.687 27.7415 80.3301C25.9758 82.2175 24.2181 83.4763 23.7171 83.2249C22.0787 82.2175 21.3232 85.9939 22.3253 89.7695L23.3354 93.2936L25.2203 89.5181C28.6242 82.9734 40.2041 72.6526 48.1414 68.751C66.394 60.1926 90.691 56.9203 166.485 53.0186C217.6 50.3756 315.17 50.5015 338.966 53.1445C357.473 55.1582 371.447 58.934 379.758 64.0942C385.166 67.4924 389.453 67.3666 387.56 63.8425C384.792 58.4306 378.748 34.2657 380.005 33.0071C382.025 30.9934 387.687 36.1536 391.211 43.0758C395.243 50.8791 396.499 65.8562 393.477 68.1217C392.221 69.0027 391.839 70.1354 392.594 71.2682C393.604 72.7785 393.978 72.7785 395.37 71.5199C396.499 70.3872 397.001 66.4856 396.873 59.9409C396.754 51.7601 396.118 48.7394 392.849 41.9431C389.827 35.2726 387.942 33.1329 383.408 30.3641C379.249 28.0986 377.237 25.8331 376.227 22.8125C373.205 13.8766 367.415 11.4852 335.944 7.08017C296.162 1.41652 280.295 0.409651 222.006 0.0320738C190.154 -0.0937873 160.942 0.157934 157.164 0.66137ZM275.507 18.4074C322.972 20.1695 354.825 23.5677 368.799 28.3503L375.598 30.6158L377.738 39.3001C379.002 44.0827 381.142 51.2566 382.398 55.1582C383.782 59.1857 384.411 62.7098 383.91 62.9615C383.528 63.3391 379.504 61.8287 375.225 59.8151C370.946 57.6754 361.879 54.7807 355.207 53.3963C343.499 50.8791 338.457 50.6273 262.918 50.1239C182.725 49.6204 152.384 50.5015 104.291 54.4031C71.0545 57.0461 54.6869 61.0736 40.4586 69.8837L34.4142 73.6595L34.0404 70.0096C33.0303 60.1926 50.1535 33.0071 59.8485 28.8538C70.1717 24.5746 102.152 19.6661 128.206 18.4074C155.525 17.1489 240.513 17.023 275.507 18.4074Z" fill="#30352B"></path><path d="M318.861 63.8409C314.709 64.4702 305.388 65.9805 298.087 67.1132C280.71 69.8821 241.055 69.7563 199.507 66.8616C164.505 64.4702 97.5314 64.7219 85.9515 67.4909C66.8082 71.8959 62.5294 73.0286 55.1011 75.9234C43.6485 80.4543 34.3273 86.7475 30.6768 92.2847C20.9819 107.262 21.1091 132.811 31.3051 167.422C37.103 187.183 59.3799 245.833 63.9132 253.133C70.8405 264.334 80.6627 268.865 98.1597 268.865C115.156 268.865 107.855 274.025 90.3576 274.403C81.0365 274.529 78.7699 274.151 72.4789 271.005C62.5294 266.096 57.2405 258.545 50.194 239.288C48.1818 233.75 43.1395 221.039 38.9879 210.97C28.6646 186.05 24.2586 172.08 19.7253 149.928C16.202 133.063 15.9475 129.539 16.5758 116.576C17.0848 106.885 16.8303 103.361 16.0748 105.752C12.297 117.457 13.4343 135.329 19.3515 158.738C23.8769 177.24 26.398 184.288 40.8728 221.039C55.4828 257.79 60.1355 266.222 69.5839 272.011C75.501 275.661 76.1293 275.787 89.6021 275.661C97.2769 275.535 104.96 275.158 106.598 275.032C109.62 274.529 109.62 274.78 109.994 284.598C110.249 290.261 111.378 297.813 112.762 301.966C115.537 310.272 114.901 311.153 107.6 310.021C101.309 309.014 85.3153 311.531 78.2688 314.677C62.6566 321.851 56.7394 332.928 36.2202 394.724C19.8525 443.809 12.5515 470.869 11.4142 486.475C10.6586 496.544 10.7859 497.047 13.0526 496.04C14.3092 495.537 16.8303 494.782 18.4687 494.404C21.1092 493.901 21.3636 494.153 20.6081 496.796C16.202 512.402 11.6687 550.663 12.5515 565.766L13.0526 575.08L19.598 581.121C24.2586 585.4 28.2829 587.792 32.8162 589.176C40.1172 591.19 61.6465 593.959 89.7213 596.35C114.901 598.489 224.942 598.489 264.724 596.35C344.415 592.07 370.231 588.547 384.332 580.24C396.54 573.192 398.807 567.654 398.807 545.503C398.807 528.26 397.295 516.304 392.508 495.411C391.124 488.867 389.493 481.441 388.984 479.049C387.473 472.127 384.451 471.246 366.071 472.001C357.386 472.379 346.809 473.637 342.403 474.77C337.996 475.903 334.346 476.658 334.091 476.406C333.972 476.155 332.58 471.624 330.95 466.464C328.055 457.024 320.746 441.543 315.839 434.369C310.932 427.07 298.588 415.868 291.16 411.715C281.592 406.429 268.875 401.898 255.911 399.129C241.437 396.108 242.192 396.738 245.843 391.2C249.493 385.662 254.027 373.58 254.027 369.3C254.027 366.531 254.027 366.531 251.879 369.552L249.62 372.699L248.984 365.902C248.356 359.106 248.229 358.98 241.437 354.827C237.659 352.561 233.754 350.673 232.744 350.673C231.742 350.673 234.382 352.436 238.414 354.575C242.439 356.841 246.216 359.106 246.718 359.861C248.109 362.126 247.226 376.223 245.715 376.726C244.833 376.978 243.95 375.971 243.576 374.335C241.683 367.412 229.221 356.841 222.93 356.966C221.665 357.092 222.929 357.847 225.697 358.855C230.604 360.616 241.437 370.559 241.437 373.328C241.437 373.957 239.417 375.594 236.903 376.726C233.126 378.614 232.37 378.614 231.36 377.104C230.358 375.468 229.976 375.594 228.465 377.607C226.954 379.746 225.697 379.873 218.77 379.243C214.364 378.74 211.095 378.74 211.596 379.118C211.97 379.621 215.621 380.25 219.653 380.754L226.954 381.509L227.336 387.55C227.837 394.85 226.198 397.241 220.663 397.241C217.641 397.241 214.364 395.479 207.691 390.193C198.752 383.019 194.974 377.481 197.75 374.712C198.625 373.831 198.505 373.202 196.994 372.572C195.857 372.195 194.847 371.062 194.847 370.181C194.847 367.79 204.796 359.61 209.33 358.351C211.469 357.721 212.097 357.092 210.841 357.092C207.691 356.966 197.869 362.756 194.974 366.531C192.334 369.93 189.812 370.559 189.812 367.79C189.812 365.021 197.495 355.456 202.275 352.309C206.808 349.289 206.562 348.408 202.028 350.799C195.229 354.449 188.556 364.14 188.556 370.685C188.556 374.586 188.301 374.839 185.279 374.083C182.384 373.328 182.138 373.454 183.012 376.097C184.905 382.264 188.93 389.689 193.089 394.472C195.483 397.241 197.368 399.758 197.368 400.136C197.368 400.388 193.089 402.276 187.8 404.163C168.283 411.337 151.287 423.168 139.079 438.145C128.756 450.857 123.968 462.562 122.457 478.294L121.574 487.859H130.267H139.079L139.835 476.784C140.717 462.813 143.103 456.143 150.532 446.829C162.62 431.978 184.15 418.007 203.031 412.973C210.34 411.086 237.532 408.191 246.344 408.442C252.006 408.695 265.606 413.603 274.164 418.637C298.843 433.237 317.732 458.157 320.245 479.427L321.128 486.349L314.328 487.608C301.364 489.999 287.263 491.635 263.085 493.649C231.742 496.292 141.346 495.537 116.794 492.517C108.109 491.384 93.7537 489.622 84.8143 488.489C73.7355 487.104 61.9011 486.475 47.9273 486.853L27.2808 487.23L28.0364 482.825C29.1657 476.532 32.689 465.708 43.8951 434.369C55.9839 400.262 62.7839 376.978 67.691 353.442C69.8304 343.625 71.4688 335.319 71.4688 335.193C71.4688 335.067 75.6283 334.815 80.6627 334.815C95.2648 334.564 142.729 331.92 156.449 330.536C183.012 327.893 216.13 326.76 260.318 326.76C308.037 326.76 316.467 327.389 342.156 332.928C348.701 334.438 355.875 335.57 357.887 335.57C360.027 335.57 363.558 336.703 365.825 338.088C368.211 339.598 369.594 340.102 369.221 339.22C368.72 338.465 368.966 337.333 369.849 336.829C371.106 336.074 370.732 334.815 367.964 331.543C361.037 323.236 354.237 320.593 332.079 317.446C272.406 309.014 212.853 308.511 140.717 316.188C119.689 318.327 80.9092 324.62 77.2587 326.256C71.5961 329.025 69.3294 333.43 66.9354 345.891C62.0283 372.321 54.099 399.129 39.998 436.887C36.594 445.823 31.3051 461.177 28.0364 470.995C23.2485 485.845 21.7374 488.992 19.097 490.25C14.3091 492.39 13.5536 492.013 13.5536 487.104C13.5536 482.699 18.5959 457.653 21.2364 449.473C21.8647 447.333 24.8869 437.013 28.1636 426.315C40.2445 385.159 57.2405 339.094 64.0405 328.9C68.0728 322.859 73.8627 318.454 82.8021 314.804C87.2082 313.041 91.7415 312.538 103.95 312.538C117.677 312.538 119.315 312.286 118.56 310.525C113.39 298.819 110.75 283.968 112.388 276.416C113.271 272.515 115.537 270.879 123.968 268.361C126.736 267.481 126.863 267.481 126.235 279.815C125.733 291.394 125.861 291.519 126.736 283.213C127.372 278.179 128.501 272.137 129.384 269.495C130.267 266.977 130.641 264.712 130.267 264.334C130.012 263.956 126.736 264.963 123.085 266.348C118.305 268.236 116.038 268.614 114.901 267.606C114.026 266.851 111.131 266.6 108.229 267.103C101.182 268.236 83.4304 265.467 76.7577 262.321C69.3294 258.796 65.1778 252.126 56.2384 229.597C40.8729 191.084 32.4425 165.786 28.5374 147.033C25.5152 132.308 25.3879 112.171 28.1636 102.857C33.0707 85.9923 52.5879 75.4199 90.3576 69.127C106.845 66.4839 162.62 66.2322 192.962 68.8752C204.422 69.7563 230.231 70.5114 252.762 70.5114C285.998 70.6373 294.31 70.2597 303.75 68.3718C320.746 64.9736 345.806 64.0926 355.875 66.7357C364.314 68.8752 367.336 68.7494 361.411 66.4839C351.215 62.5823 334.728 61.5754 318.861 63.8409ZM298.716 315.307C320.245 317.699 347.318 321.6 352.225 322.984C357.386 324.369 366.699 331.669 365.188 333.053C364.059 334.06 344.669 331.417 337.996 329.403C324.524 325.376 315.839 324.872 254.655 324.872C187.299 324.872 135.174 326.131 124.35 328.019C118.178 329.151 112.006 329.781 83.1759 332.424C76.8849 332.928 75.2466 332.801 75.2466 331.291C75.2466 329.151 80.0343 327.264 89.7213 325.627C106.089 322.859 143.358 317.95 158.342 316.566C167.026 315.811 178.36 314.677 183.521 314.175C197.368 312.664 282.602 313.545 298.716 315.307ZM194.6 377.607C194.346 378.866 193.717 379.244 192.461 378.488C191.451 377.733 191.077 376.474 191.578 375.09C192.588 372.447 195.356 374.586 194.6 377.607ZM242.311 378.614C245.206 382.264 245.206 388.557 242.566 392.333C240.554 395.227 239.043 395.983 235.138 395.983C229.475 395.983 228.338 394.22 229.602 386.291C230.23 381.635 231.105 380.501 234.382 378.991C239.417 376.852 240.8 376.726 242.311 378.614ZM193.59 382.39C200.263 386.92 206.936 399.758 202.657 399.758C201.146 399.758 192.079 390.57 189.566 386.543C185.279 379.495 186.79 377.859 193.59 382.39ZM208.701 393.465C211.342 395.479 211.596 396.108 210.212 397.493C208.829 398.877 208.073 398.626 206.053 396.108C201.774 390.822 203.285 389.312 208.701 393.465ZM226.326 401.646C226.326 402.653 225.57 403.534 224.56 403.534C222.421 403.534 221.037 401.772 222.174 400.513C223.685 399.003 226.326 399.758 226.326 401.646ZM252.134 401.646C294.182 408.442 318.861 430.971 330.194 473.009C332.461 481.693 333.089 482.574 335.356 480.434C339.253 476.406 375.512 472.253 382.439 475.022C385.087 476.029 385.962 477.665 387.227 484.21C388.229 488.615 389.74 495.663 390.623 499.816C394.528 516.681 395.411 524.61 395.53 543.993C395.657 564.004 395.657 564.256 392.261 569.416C384.332 581.246 359.653 587.792 312.562 590.309C193.463 596.979 138.697 597.231 75.8748 591.567C32.3152 587.54 22.1192 584.141 17.4586 571.807C14.4364 564.004 16.5758 532.665 21.7374 507.242C24.8869 491.509 25.2686 490.754 32.8162 489.622C44.2768 487.985 67.5638 488.992 96.0203 492.264C132.024 496.418 158.214 497.928 196.111 497.802C225.697 497.802 238.534 497.173 274.792 494.153C294.055 492.642 317.978 489.244 320.873 487.734C324.396 485.972 321.629 472.756 314.829 458.912C309.794 448.717 307.154 445.193 296.831 434.999C279.079 417.252 261.574 408.065 242.566 406.555C237.15 406.051 232.617 405.296 232.617 404.793C232.617 403.66 237.778 399.884 239.544 399.884C240.299 399.758 245.962 400.639 252.134 401.646ZM218.77 402.904C218.77 405.044 218.523 405.171 215.748 404.037C212.853 402.904 213.235 401.017 216.257 401.017C217.641 401.017 218.77 401.898 218.77 402.904ZM230.103 404.289C230.103 405.296 229.602 405.8 228.847 405.422C228.21 405.044 227.582 404.163 227.582 403.408C227.582 402.779 228.21 402.276 228.847 402.276C229.602 402.276 230.103 403.157 230.103 404.289ZM207.818 405.673C212.352 407.939 212.598 407.939 199.261 411.715C182.893 416.372 167.154 425.937 154.182 439.152C142.984 450.353 138.57 459.416 137.313 474.015L136.311 484.713L131.897 485.09C124.095 485.594 123.467 484.461 125.861 472.756C128.501 460.296 132.279 451.738 140.081 441.418C151.16 426.818 169.166 414.106 188.556 407.058C199.762 403.031 202.402 402.904 207.818 405.673Z" fill="#30352B"></path><path d="M366.079 69.9019C366.079 70.5313 367.089 71.4123 368.473 71.9157C372.251 73.0484 381.564 83.1174 385.215 89.6621C390.885 100.359 391.768 107.156 390.13 127.168C388.364 147.683 386.479 157.5 380.562 175.12C376.657 186.699 368.099 215.521 361.045 240.567C357.394 253.908 353.489 259.571 346.188 262.843C340.271 265.487 339.643 265.487 237.914 264.606C144.75 263.851 135.564 263.976 134.808 265.865C134.427 266.997 135.182 268.885 136.82 270.521C139.97 273.794 135.309 273.667 225.705 272.661L283.621 272.031L210.594 271.402C140.471 270.772 137.576 270.647 137.194 268.381C136.693 266.116 139.461 266.116 239.806 266.494L342.792 266.997L348.081 264.102C351.103 262.592 354.873 259.193 356.639 256.551C359.788 251.894 360.671 248.999 369.356 217.912C371.877 208.85 376.403 193.873 379.425 184.559C387.609 159.262 388.619 155.234 390.631 137.363C392.898 117.476 393.025 107.031 391.013 99.2271C388.619 89.4098 381.691 79.0896 373.635 73.1742C367.344 68.5175 366.079 68.0141 366.079 69.9019Z" fill="#30352B"></path><path d="M361.951 80.0756C360.694 85.2357 355.532 102.604 350.371 118.714C334.258 168.68 332.118 177.993 329.852 209.961C329.343 218.143 328.468 225.064 328.086 225.442C327.712 225.82 284.399 225.568 231.9 224.687C179.274 223.932 127.785 223.554 117.207 224.058L98.1987 224.813L96.9341 221.289C94.6674 214.87 79.9382 182.021 79.4371 182.524C79.1826 182.651 80.6937 187.056 82.8331 192.216C84.9805 197.376 89.0049 207.067 91.7726 213.863L96.6876 226.197L94.2937 229.344C90.6432 233.875 89.7603 243.44 92.1542 251.621C94.4209 259.55 96.6876 261.941 100.966 260.809C107.257 259.299 107.894 251.117 102.732 236.266C101.221 231.736 100.839 228.967 101.722 228.086C104.49 225.317 295.104 226.323 321.795 229.344L328.34 230.099V236.015C328.34 249.607 333.12 257.536 341.177 257.536C345.591 257.536 346.219 257.159 347.977 253.005C351.627 244.195 346.848 233.749 336.771 228.714L330.734 225.694L331.49 219.904C331.864 216.758 332.492 207.57 332.747 199.641C333.001 191.712 334.13 181.014 335.26 175.979C337.526 165.156 349.615 128.279 354.149 118.337C357.425 111.163 359.437 103.989 362.961 86.9973C365.856 73.4048 364.854 67.3635 361.951 80.0756ZM341.304 234.63C350.498 243.315 347.85 258.795 337.781 255.019C333.375 253.383 330.854 246.839 330.854 237.273V229.596L334.385 230.477C336.27 230.854 339.292 232.742 341.304 234.63ZM100.966 239.161C104.49 251.244 103.106 260.809 98.3259 257.788C93.9119 254.894 91.6533 237.525 95.3038 233.246C97.6898 230.351 98.6997 231.483 100.966 239.161Z" fill="#30352B"></path><path d="M395.999 83.4908C404.557 101.112 404.557 125.402 395.745 157.371C389.072 181.661 382.145 210.608 376.856 236.788C375.726 242.325 373.714 249.625 372.33 253.149C370.565 257.806 370.438 258.938 371.821 257.554C373.587 255.792 378.749 236.913 380.506 225.46C382.017 216.65 387.306 195.254 398.512 152.462C403.928 131.821 405.44 108.159 402.29 95.5735C400.151 87.2672 394.488 75.0586 392.85 75.0586C392.221 75.0586 393.733 78.8343 395.999 83.4908Z" fill="#30352B"></path><path d="M366.119 262.958C364.361 264.468 361.466 266.733 359.828 267.865C358.062 268.998 357.307 270.005 358.062 270.005C358.818 270.132 361.967 267.865 364.989 265.097C368.012 262.454 370.278 260.188 369.897 260.188C369.523 260.188 367.884 261.447 366.119 262.958Z" fill="#30352B"></path><path d="M353.241 271.009C354.124 271.387 355.261 271.261 355.635 270.884C356.144 270.506 355.389 270.128 353.997 270.254C352.613 270.254 352.239 270.632 353.241 271.009Z" fill="#30352B"></path><path d="M343.842 272.276C344.971 272.528 346.992 272.528 348.248 272.276C349.378 271.899 348.375 271.646 345.981 271.646C343.588 271.646 342.578 271.899 343.842 272.276Z" fill="#30352B"></path><path d="M295.398 273.534C298.293 273.786 302.826 273.786 305.466 273.534C307.987 273.283 305.594 273.031 300.05 273.031C294.515 273.031 292.375 273.283 295.398 273.534Z" fill="#30352B"></path><path d="M333.622 274.774C331.363 275.907 329.216 278.047 328.842 279.683C327.832 283.711 326.321 283.459 322.424 278.928C320.786 276.788 318.646 275.152 317.891 275.152C317.135 275.152 317.763 276.033 319.402 277.165C323.935 280.312 325.82 286.606 325.947 298.688L326.202 309.764L327.204 297.807C328.715 280.438 329.343 278.802 335.889 275.404C338.911 273.894 340.677 272.635 339.667 272.635C338.664 272.635 335.889 273.642 333.622 274.774Z" fill="#30352B"></path><path d="M214.777 347.773C216.288 348.025 218.801 348.025 220.439 347.773C221.95 347.522 220.694 347.27 217.544 347.27C214.395 347.27 213.138 347.522 214.777 347.773Z" fill="#30352B"></path><path d="M378.852 352.32C378.725 353.578 377.969 354.837 377.094 355.214C375.83 355.592 375.703 357.732 376.458 364.277C376.967 368.933 377.969 377.743 378.725 384.036C379.48 390.204 381.373 403.167 383.131 412.984C386.153 430.604 387.791 438.407 394.965 472.515C404.533 517.447 410.959 568.294 408.82 582.516C406.68 597.619 397.232 628.328 393.581 631.978C391.943 633.615 392.579 628.832 396.858 607.435C402.274 580.628 402.394 579.998 401.391 578.614C400.882 577.607 399.626 577.859 397.486 579.495C392.07 583.522 385.652 586.921 378.598 589.186C369.539 592.081 368.911 592.962 373.69 595.479C376.713 596.99 379.353 597.367 383.258 596.738L388.802 595.982V608.946C388.802 621.783 386.662 633.488 383.767 637.138C382.884 638.02 379.48 639.656 376.084 640.662C367.018 643.431 327.991 647.333 295.638 648.844C280.026 649.599 253.207 650.857 235.83 651.738C218.587 652.619 183.959 653.374 159.034 653.374C117.24 653.249 111.823 652.996 89.793 649.976C76.6941 648.214 64.2315 646.075 62.3465 645.319C57.5587 643.431 52.6516 637.894 52.6516 634.37C52.6516 632.23 52.1426 631.727 50.2576 632.23C48.3727 632.733 45.5971 629.965 37.6677 620.022C22.8112 601.52 20.4173 595.731 26.9628 594.095C30.9951 593.087 36.1567 597.619 41.4455 606.806C43.4577 610.204 45.0961 612.47 45.0961 611.715C45.0961 610.96 42.8294 606.806 40.0617 602.528C34.2717 593.717 30.3667 591.2 25.5789 593.34C18.6596 596.486 22.3101 604.038 42.201 627.825C47.2354 633.74 51.387 639.152 51.387 639.781C51.387 640.285 52.3971 641.417 53.7809 642.047C55.0455 642.802 57.9404 644.312 60.2071 645.571C64.6132 648.088 86.5163 651.613 113.581 654.129C139.015 656.52 232.935 654.633 310.741 650.228C358.206 647.459 384.141 642.55 386.781 635.628C387.418 633.992 387.919 633.74 389.048 634.873C392.826 638.649 395.602 635.251 401.01 619.518C405.288 606.68 408.565 594.346 410.204 583.522C411.715 573.706 410.204 553.443 405.925 522.481C403.404 504.609 398.242 477.927 392.579 452.629C388.802 435.638 385.398 416.885 382.63 397.881C375.703 349.676 379.735 354.459 390.432 407.32C400.254 456.153 403.905 475.032 404.533 481.577C405.042 485.352 406.426 494.666 407.682 502.344C412.717 531.668 414.355 546.52 414.482 567.664C414.61 586.166 414.228 590.949 411.715 601.143C407.309 619.267 398.998 643.431 396.349 645.822C392.07 649.724 380.864 651.235 345.743 652.619C326.854 653.374 294.127 654.884 272.971 655.891C251.824 656.898 222.739 658.283 208.137 658.912C181.191 660.17 125.169 659.793 76.5669 657.905C31.6234 656.143 29.7384 654.633 14.6273 608.946C11.8596 600.514 9.33848 593.717 8.96468 594.095C7.82737 595.227 19.9162 630.091 25.0778 640.285C26.9627 644.312 30.7405 649.095 33.2617 651.235C42.2011 658.534 43.7122 658.786 121.264 662.939C150.85 664.575 215.438 663.82 245.278 661.555C254.591 660.925 276.494 659.793 293.745 659.164C361.482 656.52 385.907 654.381 394.719 650.102C400.509 647.333 401.264 645.822 407.181 626.314C416.876 594.346 418.515 579.621 415.866 550.17C413.472 523.111 410.832 500.455 408.311 485.982C407.181 479.689 404.915 466.474 403.149 456.405C398.87 431.862 393.581 405.558 388.293 382.777C383.886 363.773 378.979 348.166 378.852 352.32ZM396.604 601.143C391.824 623.923 389.931 626.441 390.313 609.072C390.686 594.22 389.804 592.332 383.886 594.724C379.862 596.486 374.573 595.479 375.329 593.214C375.583 592.459 378.224 591.074 381.246 590.067C384.268 589.06 389.43 586.669 392.579 584.781C395.721 582.893 398.743 581.761 399.252 582.264C399.88 582.767 398.616 591.2 396.604 601.143Z" fill="#30352B"></path><path d="M215.476 356.586C216.614 356.839 218.371 356.839 219.254 356.586C220.009 356.209 219.127 355.957 216.987 355.957C214.975 355.957 214.22 356.209 215.476 356.586Z" fill="#30352B"></path><path d="M204.303 377.088C205.695 377.718 207.707 378.221 208.709 378.221C209.846 378.221 209.719 377.718 208.081 377.088C206.697 376.459 204.685 375.956 203.675 375.956C202.545 375.956 202.673 376.459 204.303 377.088Z" fill="#30352B"></path><path d="M1.14608 543.997C1.14608 545.381 1.51989 545.758 1.90164 544.752C2.27544 543.871 2.15609 542.738 1.77434 542.361C1.40054 541.857 1.01882 542.612 1.14608 543.997Z" fill="#30352B"></path><path d="M0 557.089C0 559.48 0.254521 560.487 0.628322 559.228C0.882824 558.095 0.882824 556.082 0.628322 554.823C0.254521 553.69 0 554.698 0 557.089Z" fill="#30352B"></path><path d="M1.14608 567.893C1.14608 569.278 1.51989 569.655 1.90164 568.648C2.27544 567.767 2.15609 566.634 1.77434 566.257C1.40054 565.754 1.01882 566.509 1.14608 567.893Z" fill="#30352B"></path><path d="M2.49023 573.436C2.49023 575.198 2.7368 575.827 3.11856 574.946C3.36511 574.191 3.36511 572.68 3.11856 571.8C2.7368 571.044 2.49023 571.674 2.49023 573.436Z" fill="#30352B"></path><path d="M4.28006 579.115C4.66181 580.499 5.6639 584.023 6.30015 586.918C6.92846 589.939 7.81127 592.33 8.05782 592.33C9.19512 592.33 7.05573 582.891 5.16286 579.744C4.03351 577.857 3.65176 577.604 4.28006 579.115Z" fill="#30352B"></path><path d="M46.4795 616.232C46.4795 617.238 46.9805 619.252 47.6088 620.637C48.2451 622.273 48.7462 622.398 48.7462 621.266C48.7462 620.259 48.2451 618.245 47.6088 616.861C46.9805 615.224 46.4795 615.099 46.4795 616.232Z" fill="#30352B"></path></svg> 