<?xml version="1.0" encoding="UTF-8"?> <svg xmlns="http://www.w3.org/2000/svg" width="403" height="402" viewBox="0 0 403 402" fill="none"><path d="M354.11 204.142L380.238 206.668L377.966 230.159L351.838 227.632L352.18 224.099L376.168 226.418L375.136 227.223L376.897 209.008L377.756 209.995L353.768 207.675L354.11 204.142Z" fill="#272727"></path><path d="M347.036 244.821C347.763 242.394 348.962 240.369 350.631 238.747C352.323 237.166 354.294 236.104 356.545 235.56C358.827 235.026 361.214 235.133 363.704 235.879C366.227 236.635 368.279 237.859 369.86 239.55C371.441 241.242 372.487 243.209 372.998 245.45C373.51 247.691 373.397 250.041 372.66 252.499C371.914 254.99 370.711 257.031 369.051 258.621C367.382 260.243 365.427 261.31 363.186 261.822C360.935 262.365 358.548 262.259 356.026 261.503C353.535 260.757 351.483 259.533 349.871 257.832C348.28 256.172 347.218 254.201 346.684 251.918C346.182 249.645 346.299 247.279 347.036 244.821ZM350.054 245.725C349.508 247.545 349.424 249.277 349.801 250.921C350.211 252.575 351.03 254.021 352.26 255.259C353.511 256.539 355.111 257.471 357.059 258.055C359.039 258.648 360.887 258.75 362.605 258.36C364.313 258.001 365.777 257.24 366.996 256.074C368.247 254.918 369.141 253.446 369.677 251.657C370.212 249.869 370.276 248.148 369.867 246.495C369.489 244.851 368.691 243.393 367.471 242.123C366.251 240.853 364.651 239.921 362.671 239.328C360.723 238.744 358.875 238.642 357.125 239.023C355.408 239.413 353.923 240.186 352.672 241.342C351.453 242.508 350.58 243.969 350.054 245.725Z" fill="#272727"></path><path d="M332.379 279.414L348.877 275.747L349.086 279.171L330.46 283.15L332.379 279.414ZM341.174 262.291L364.524 274.285L362.902 277.443L339.552 265.449L341.174 262.291ZM350.462 269.816L353.175 271.21L349.314 278.726L346.601 277.333L350.462 269.816ZM347.17 278.524L349.122 275.817L355.911 291.052L354.152 294.477L347.17 278.524Z" fill="#272727"></path><path d="M318.327 298.873L322.942 302.387L323.789 302.843L331.506 308.719C333.283 310.072 335.032 310.609 336.754 310.328C338.456 310.073 340.054 308.965 341.549 307.003C342.579 305.65 343.333 304.192 343.811 302.629C344.289 301.066 344.48 299.577 344.383 298.163L347.461 298.496C347.555 300.243 347.275 302.041 346.622 303.89C345.995 305.758 345.055 307.515 343.803 309.159C341.743 311.864 339.482 313.431 337.019 313.86C334.562 314.335 331.968 313.533 329.236 311.453L316.268 301.578L318.327 298.873ZM323.611 291.521C324.803 289.957 326.095 288.783 327.487 288C328.886 287.263 330.268 286.933 331.634 287.01C333.027 287.107 334.32 287.609 335.513 288.518C336.601 289.346 337.39 290.345 337.882 291.515C338.379 292.732 338.449 294.126 338.091 295.697C337.739 297.315 336.806 299.118 335.292 301.107L329.809 308.307L327.701 306.702L333.123 299.581C334.657 297.565 335.37 295.887 335.259 294.546C335.129 293.232 334.533 292.171 333.473 291.363C332.279 290.455 330.971 290.192 329.548 290.575C328.125 290.958 326.778 291.985 325.506 293.655C324.294 295.247 323.612 296.885 323.46 298.571C323.314 300.303 323.728 301.959 324.704 303.54L322.27 302.692C321.295 301.111 320.901 299.345 321.088 297.393C321.256 295.468 322.097 293.51 323.611 291.521Z" fill="#272727"></path><path d="M305.931 311.397C307.318 310.098 308.875 309.005 310.602 308.118C312.329 307.231 314.091 306.699 315.889 306.522L316.861 309.243C315.299 309.427 313.739 309.907 312.18 310.681C310.645 311.48 309.281 312.438 308.089 313.554C306.92 314.695 306.045 315.834 305.466 316.97C304.886 318.107 304.615 319.183 304.653 320.198C304.69 321.214 305.039 322.074 305.7 322.78C306.657 323.801 307.86 324.159 309.309 323.853C310.78 323.571 312.318 322.678 313.924 321.174L317.208 318.097L318.986 319.995L315.884 322.9C314.935 323.789 314.21 324.697 313.708 325.624C313.206 326.551 312.977 327.428 313.02 328.254C313.04 329.104 313.346 329.845 313.938 330.478C314.576 331.159 315.366 331.515 316.309 331.546C317.227 331.599 318.213 331.36 319.268 330.829C320.323 330.297 321.374 329.542 322.42 328.562C323.346 327.649 324.194 326.58 324.966 325.355C325.76 324.155 326.416 322.832 326.935 321.387L329.545 322.711C328.972 324.343 328.276 325.817 327.454 327.135C326.631 328.499 325.66 329.706 324.541 330.754C323.054 332.238 321.509 333.343 319.905 334.069C318.277 334.817 316.733 335.144 315.274 335.049C313.838 334.979 312.619 334.408 311.616 333.338C310.727 332.389 310.244 331.288 310.168 330.036C310.091 328.784 310.356 327.507 310.965 326.206C311.573 324.905 312.498 323.674 313.739 322.512L314.279 323.308C312.089 325.359 309.988 326.528 307.974 326.816C305.935 327.126 304.233 326.552 302.865 325.092C301.794 323.949 301.226 322.586 301.16 321.004C301.116 319.446 301.511 317.82 302.345 316.126C303.154 314.454 304.35 312.878 305.931 311.397Z" fill="#272727"></path><path d="M279.469 332.057L282.671 336.892L283.321 337.601L288.677 345.688C289.91 347.55 291.386 348.632 293.105 348.933C294.796 349.252 296.67 348.731 298.726 347.369C300.143 346.43 301.335 345.301 302.3 343.982C303.266 342.663 303.935 341.32 304.309 339.953L307.107 341.279C306.621 342.96 305.765 344.566 304.541 346.097C303.334 347.656 301.869 349.005 300.146 350.147C297.312 352.024 294.661 352.76 292.193 352.355C289.717 351.997 287.531 350.386 285.635 347.524L276.634 333.934L279.469 332.057ZM286.876 326.851C288.515 325.765 290.121 325.081 291.694 324.799C293.257 324.563 294.671 324.706 295.936 325.228C297.219 325.777 298.275 326.677 299.104 327.928C299.858 329.067 300.275 330.27 300.355 331.537C300.425 332.85 300.032 334.189 299.178 335.555C298.314 336.967 296.84 338.363 294.755 339.744L287.21 344.741L285.747 342.532L293.209 337.59C295.321 336.191 296.545 334.84 296.882 333.537C297.191 332.253 296.977 331.055 296.241 329.944C295.413 328.693 294.264 328.015 292.794 327.909C291.324 327.803 289.714 328.329 287.963 329.489C286.296 330.593 285.113 331.916 284.415 333.458C283.708 335.046 283.555 336.747 283.956 338.56L281.936 336.959C281.535 335.146 281.744 333.349 282.563 331.567C283.354 329.803 284.791 328.231 286.876 326.851Z" fill="#272727"></path><path d="M265.529 339.28L275.493 361.224L274.281 360.731L284.16 356.245L285.441 359.068L264.09 368.763L262.808 365.941L272.687 361.455L272.26 362.692L262.296 340.748L265.529 339.28Z" fill="#272727"></path><path d="M243.919 365.05C240.728 365.894 238.123 365.849 236.104 364.918C234.052 363.996 232.669 362.233 231.953 359.63C231.21 356.93 231.54 354.61 232.942 352.668C234.311 350.736 236.688 349.321 240.072 348.425L250.305 345.662L257.267 370.972L253.844 371.914L251.418 363.091L243.919 365.05ZM240.981 350.976C238.626 351.589 236.986 352.541 236.062 353.832C235.115 355.165 234.902 356.779 235.424 358.675C235.945 360.571 236.92 361.79 238.348 362.331C239.785 362.903 241.696 362.879 244.084 362.257L250.715 360.536L247.612 349.255L240.981 350.976Z" fill="#272727"></path><path d="M213.95 353.369L214.152 379.618L210.602 379.645L210.513 368.046L193.963 368.174L194.053 379.773L190.503 379.801L190.3 353.551L193.85 353.524L193.94 365.124L210.489 364.996L210.4 353.396L213.95 353.369Z" fill="#272727"></path><path d="M166.327 349.619L165.262 355.321L165.235 356.282L163.454 365.817C163.044 368.013 163.352 369.816 164.377 371.229C165.369 372.635 167.077 373.564 169.502 374.017C171.173 374.329 172.814 374.347 174.425 374.072C176.037 373.796 177.452 373.298 178.672 372.576L179.758 375.475C178.24 376.344 176.508 376.902 174.563 377.149C172.611 377.429 170.62 377.379 168.589 377C165.246 376.376 162.83 375.06 161.34 373.052C159.811 371.071 159.362 368.393 159.992 365.018L162.985 348.995L166.327 349.619ZM175.269 351.035C177.203 351.396 178.832 352.023 180.157 352.915C181.444 353.833 182.36 354.92 182.905 356.175C183.445 357.462 183.577 358.843 183.302 360.318C183.051 361.661 182.513 362.815 181.688 363.78C180.825 364.772 179.611 365.461 178.047 365.847C176.444 366.26 174.414 366.237 171.956 365.778L163.06 364.116L163.547 361.511L172.344 363.154C174.835 363.619 176.654 363.501 177.802 362.8C178.918 362.093 179.598 361.084 179.843 359.773C180.118 358.299 179.765 357.012 178.783 355.913C177.802 354.814 176.279 354.072 174.215 353.687C172.249 353.319 170.478 353.447 168.904 354.068C167.291 354.716 165.998 355.831 165.024 357.413L164.688 354.857C165.661 353.276 167.062 352.13 168.89 351.421C170.685 350.705 172.812 350.576 175.269 351.035Z" fill="#272727"></path><path d="M127.549 334.92L131.825 351.271L128.412 351.606L123.744 333.141L127.549 334.92ZM144.987 343.074L133.867 366.853L130.652 365.349L141.771 341.57L144.987 343.074ZM137.811 352.635L136.519 355.398L128.865 351.818L130.157 349.055L137.811 352.635ZM128.987 349.668L131.765 351.518L116.792 358.868L113.304 357.237L128.987 349.668Z" fill="#272727"></path><path d="M107.672 321.635L104.329 326.374L103.904 327.237L98.3131 335.164C97.0258 336.989 96.554 338.757 96.8974 340.468C97.2137 342.159 98.3796 343.716 100.395 345.137C101.785 346.117 103.269 346.817 104.849 347.238C106.428 347.659 107.923 347.795 109.333 347.647L109.113 350.735C107.37 350.893 105.563 350.679 103.692 350.093C101.801 349.535 100.011 348.66 98.3226 347.469C95.5442 345.509 93.8958 343.307 93.3774 340.861C92.8126 338.423 93.5196 335.801 95.4985 332.995L104.893 319.675L107.672 321.635ZM115.211 326.647C116.819 327.78 118.039 329.028 118.872 330.391C119.659 331.762 120.04 333.132 120.013 334.5C119.967 335.895 119.512 337.205 118.647 338.431C117.86 339.548 116.89 340.373 115.738 340.907C114.54 341.449 113.15 341.57 111.567 341.269C109.938 340.977 108.102 340.11 106.059 338.669L98.6632 333.453L100.191 331.287L107.504 336.446C109.575 337.906 111.278 338.557 112.614 338.397C113.922 338.219 114.961 337.585 115.729 336.496C116.594 335.27 116.809 333.953 116.374 332.545C115.94 331.137 114.864 329.828 113.148 328.618C111.514 327.465 109.852 326.843 108.161 326.753C106.425 326.67 104.785 327.145 103.241 328.177L103.999 325.714C105.543 324.682 107.294 324.224 109.251 324.34C111.182 324.437 113.168 325.206 115.211 326.647Z" fill="#272727"></path><path d="M90.3514 305.354C91.9248 306.986 92.9759 308.82 93.5046 310.857C94.0094 312.917 93.9357 315.026 93.2836 317.183C92.5844 319.339 91.203 321.412 89.1395 323.402C87.0759 325.391 84.9661 326.685 82.81 327.282C80.6299 327.903 78.5317 327.912 76.5152 327.31C74.4988 326.707 72.6923 325.578 71.0958 323.922C69.3604 322.123 68.2181 320.122 67.6687 317.92C67.0723 315.716 67.1125 313.501 67.7895 311.274C68.4425 309.07 69.7167 307.054 71.6123 305.226C73.5318 303.375 75.6048 302.163 77.8312 301.59C80.0575 301.018 82.2728 301.058 84.4769 301.711C86.6578 302.34 88.616 303.554 90.3514 305.354ZM106.559 308.548L80.6814 333.503L78.3213 331.055L84.008 325.571L88.0301 322.179L91.4982 318.14L104.095 305.993L106.559 308.548ZM88.2574 307.721C86.9617 306.377 85.5049 305.466 83.8869 304.989C82.245 304.535 80.5713 304.528 78.866 304.969C77.1367 305.432 75.5402 306.37 74.0765 307.781C72.6128 309.193 71.6299 310.742 71.1278 312.431C70.6256 314.119 70.5717 315.792 70.9659 317.449C71.3601 319.106 72.2051 320.607 73.5008 321.951C74.7966 323.294 76.277 324.205 77.942 324.683C79.584 325.138 81.2576 325.144 82.9629 324.704C84.6451 324.239 86.2181 323.301 87.6817 321.89C89.1454 320.479 90.1519 318.929 90.7012 317.242C91.2033 315.554 91.2573 313.881 90.8631 312.223C90.4217 310.565 89.5532 309.064 88.2574 307.721Z" fill="#272727"></path><path d="M75.5306 287.411L55.5362 300.866L55.8219 299.589L61.8793 308.59L59.3074 310.321L46.2155 290.866L48.7874 289.135L54.8449 298.137L53.5542 297.921L73.5487 284.466L75.5306 287.411Z" fill="#272727"></path><path d="M62.3619 263.57C63.5013 266.055 63.9866 268.473 63.8179 270.824C63.6189 273.188 62.8536 275.318 61.522 277.212C60.16 279.12 58.2974 280.616 55.934 281.7C53.5707 282.784 51.2508 283.242 48.9743 283.076C46.6839 282.88 44.6207 282.139 42.7846 280.854C40.9044 279.553 39.4571 277.796 38.4427 275.584C37.4145 273.342 37.0195 271.121 37.2577 268.922C37.4517 266.706 38.2435 264.674 39.6333 262.827C40.9927 260.993 42.8692 259.528 45.2629 258.43C45.4144 258.361 45.588 258.299 45.7836 258.246C45.9351 258.177 46.1018 258.1 46.2836 258.017L55.8084 278.787L53.3997 279.892L44.6668 260.849L46.2048 261.684C44.4777 262.476 43.1213 263.556 42.1355 264.925C41.1055 266.277 40.5036 267.763 40.3297 269.383C40.1558 271.003 40.4509 272.647 41.2151 274.313C41.9655 275.949 43.0181 277.245 44.373 278.2C45.728 279.156 47.254 279.685 48.9509 279.787C50.6478 279.889 52.375 279.537 54.1323 278.731L54.6323 278.501C56.4502 277.668 57.8755 276.537 58.908 275.11C59.8963 273.667 60.4578 272.053 60.5925 270.267C60.6831 268.466 60.3045 266.641 59.457 264.792C58.79 263.338 57.9141 262.108 56.8294 261.102C55.7307 260.065 54.4427 259.336 52.9654 258.913L54.2224 256.137C55.9812 256.613 57.5622 257.502 58.9652 258.802C60.3543 260.072 61.4866 261.661 62.3619 263.57Z" fill="#272727"></path><path d="M48.2454 201.991L22.0587 200.17L23.6962 176.627L49.8829 178.448L49.6366 181.989L25.5947 180.317L26.6048 179.485L25.3351 197.741L24.4498 196.777L48.4917 198.45L48.2454 201.991Z" fill="#272727"></path><path d="M54.2106 161.098C53.548 163.543 52.4039 165.598 50.7781 167.265C49.129 168.89 47.1866 170.004 44.9511 170.607C42.6834 171.201 40.2948 171.158 37.7853 170.478C35.2437 169.789 33.1602 168.62 31.535 166.971C29.9098 165.322 28.8118 163.384 28.241 161.157C27.6703 158.93 27.7206 156.578 28.3919 154.101C29.0719 151.592 30.2205 149.52 31.8375 147.886C33.4632 146.22 35.3895 145.101 37.6163 144.531C39.8518 143.928 42.2404 143.971 44.782 144.659C47.2915 145.339 49.375 146.508 51.0324 148.166C52.6663 149.783 53.7804 151.726 54.3746 153.993C54.9366 156.252 54.882 158.62 54.2106 161.098ZM51.1703 160.274C51.6673 158.44 51.7054 156.706 51.2847 155.073C50.8318 153.43 49.9744 152.007 48.7124 150.801C47.427 149.555 45.803 148.666 43.8404 148.134C41.8457 147.593 39.995 147.541 38.2884 147.976C36.5905 148.38 35.1475 149.18 33.9596 150.378C32.7395 151.567 31.8853 153.062 31.397 154.864C30.9088 156.665 30.8911 158.387 31.344 160.03C31.7647 161.663 32.6017 163.099 33.8549 164.336C35.1082 165.574 36.7322 166.463 38.7269 167.003C40.6895 167.535 42.5402 167.588 44.279 167.161C45.9856 166.726 47.449 165.913 48.6691 164.725C49.857 163.527 50.6908 162.043 51.1703 160.274Z" fill="#272727"></path><path d="M67.9203 126.133L51.5228 130.227L51.2252 126.81L69.7417 122.349L67.9203 126.133ZM59.5722 143.479L35.9191 132.095L37.4586 128.896L61.1118 140.28L59.5722 143.479ZM50.0922 136.197L47.3439 134.874L51.0084 127.26L53.7566 128.583L50.0922 136.197ZM53.1574 127.407L51.2758 130.164L44.0937 115.11L45.7633 111.641L53.1574 127.407Z" fill="#272727"></path><path d="M81.4043 106.334L76.7016 102.939L75.8435 102.504L67.9785 96.8271C66.1677 95.5199 64.4051 95.0287 62.6907 95.3534C60.9959 95.6511 59.4266 96.7999 57.9829 98.7999C56.9879 100.178 56.2714 101.655 55.8334 103.23C55.3954 104.805 55.2427 106.298 55.3751 107.709L52.29 107.455C52.1514 105.711 52.3852 103.906 52.9912 102.042C53.5703 100.157 54.4646 98.3774 55.6742 96.7017C57.6642 93.9449 59.8849 92.3208 62.3363 91.8293C64.7802 91.2912 67.3941 92.0269 70.1779 94.0365L83.3943 103.577L81.4043 106.334ZM76.3102 113.818C75.1591 115.412 73.8976 116.619 72.5256 117.437C71.1462 118.209 69.7726 118.575 68.4049 118.533C67.0103 118.472 65.7048 118.002 64.4886 117.124C63.3804 116.324 62.5658 115.346 62.0446 114.188C61.5158 112.984 61.4104 111.593 61.7283 110.013C62.0386 108.387 62.9254 106.561 64.3886 104.534L69.6855 97.196L71.8342 98.747L66.5959 106.004C65.1131 108.058 64.444 109.754 64.5884 111.091C64.7524 112.402 65.3749 113.447 66.456 114.228C67.6722 115.106 68.9866 115.335 70.3992 114.916C71.8118 114.497 73.1327 113.436 74.3618 111.733C75.5324 110.111 76.1722 108.456 76.2814 106.767C76.3831 105.032 75.9263 103.386 74.9111 101.831L77.3658 102.617C78.381 104.172 78.8198 105.927 78.6822 107.883C78.5641 109.813 77.7734 111.791 76.3102 113.818Z" fill="#272727"></path><path d="M92.8037 94.1004C91.4553 95.4391 89.9309 96.5767 88.2304 97.5133C86.53 98.4499 84.7836 99.0329 82.9915 99.2621L81.9406 96.5712C83.497 96.3412 85.0428 95.8164 86.5779 94.9971C88.0894 94.154 89.4248 93.1571 90.5839 92.0064C91.7196 90.832 92.5605 89.6683 93.1068 88.5154C93.6531 87.3624 93.8928 86.279 93.8258 85.2653C93.7587 84.2515 93.3847 83.4016 92.7036 82.7156C91.7173 81.722 90.5046 81.3994 89.0655 81.7478C87.603 82.0724 86.0911 83.0098 84.5298 84.5597L81.3363 87.7301L79.5045 85.885L82.5206 82.8907C83.4432 81.9748 84.1419 81.0463 84.6167 80.1052C85.0915 79.1641 85.2951 78.281 85.2274 77.4558C85.1833 76.6071 84.856 75.8752 84.2454 75.2602C83.5878 74.5978 82.7876 74.2649 81.8448 74.2615C80.9257 74.2346 79.9466 74.5021 78.9074 75.064C77.8683 75.6259 76.8401 76.4118 75.8229 77.4216C74.9238 78.3612 74.1067 79.4542 73.3715 80.7008C72.6128 81.9237 71.9951 83.265 71.5184 84.7246L68.8712 83.4775C69.3958 81.8295 70.0494 80.3352 70.8321 78.9945C71.6149 77.6067 72.5504 76.3726 73.6386 75.2924C75.0819 73.7655 76.5946 72.6161 78.1766 71.844C79.7823 71.0484 81.3157 70.6769 82.7769 70.7293C84.2146 70.7581 85.4501 71.2929 86.4834 72.3338C87.3993 73.2564 87.9139 74.3425 88.0272 75.5921C88.1405 76.8418 87.912 78.1255 87.3415 79.4434C86.771 80.7613 85.8825 82.019 84.6761 83.2167L84.1133 82.4369C86.2423 80.3233 88.3091 79.0933 90.3139 78.7471C92.3423 78.3773 94.061 78.9021 95.4701 80.3215C96.5738 81.4333 97.1818 82.779 97.2939 84.3586C97.3825 85.9146 97.0348 87.5515 96.2507 89.2692C95.4903 90.9636 94.3413 92.5739 92.8037 94.1004Z" fill="#272727"></path><path d="M118.663 72.5382L115.32 67.7985L114.65 67.1086L109.06 59.1818C107.772 57.3568 106.265 56.319 104.539 56.0684C102.839 55.7986 100.981 56.3746 98.9658 57.7963C97.5765 58.7761 96.4187 59.9395 95.4923 61.2863C94.5659 62.6331 93.9358 63.9953 93.6021 65.3728L90.7672 64.1294C91.2036 62.4348 92.0116 60.8044 93.1912 59.2382C94.3516 57.6447 95.7762 56.2524 97.465 55.0613C100.243 53.1016 102.872 52.2881 105.35 52.6206C107.836 52.9067 110.068 54.4526 112.047 57.2583L121.442 70.5785L118.663 72.5382ZM111.412 77.9586C109.805 79.0921 108.219 79.8228 106.656 80.1506C105.1 80.4319 103.683 80.3304 102.403 79.8462C101.104 79.3346 100.022 78.466 99.1577 77.2402C98.37 76.1234 97.9179 74.933 97.8014 73.6691C97.693 72.3587 98.046 71.0084 98.8603 69.6183C99.6826 68.1817 101.115 66.7429 103.158 65.302L110.554 60.0859L112.081 62.2514L104.767 67.4099C102.697 68.8701 101.513 70.256 101.214 71.5679C100.943 72.8605 101.192 74.0516 101.96 75.1412C102.825 76.367 103.993 77.0114 105.465 77.0745C106.937 77.1375 108.531 76.5638 110.248 75.3535C111.882 74.2007 113.025 72.8436 113.678 71.282C114.339 69.6739 114.442 67.9695 113.988 66.1688L116.053 67.7099C116.508 69.5106 116.352 71.3134 115.585 73.1185C114.846 74.9043 113.455 76.5177 111.412 77.9586Z" fill="#272727"></path><path d="M132.126 64.9393L121.514 43.3017L122.74 43.7583L112.998 48.536L111.633 45.7528L132.687 35.4267L134.053 38.2099L124.311 42.9877L124.701 41.7384L135.313 63.3761L132.126 64.9393Z" fill="#272727"></path><path d="M152.98 38.4073C156.143 37.468 158.748 37.4332 160.795 38.3027C162.873 39.1625 164.31 40.8826 165.104 43.463C165.928 46.139 165.669 48.4685 164.327 50.4514C163.016 52.4245 160.683 53.9101 157.328 54.9083L147.183 57.98L139.458 32.8925L142.851 31.8477L145.543 40.5925L152.98 38.4073ZM156.343 52.3867C158.678 51.7025 160.288 50.701 161.172 49.3823C162.079 48.022 162.243 46.402 161.664 44.5225C161.085 42.6429 160.074 41.4545 158.63 40.9573C157.177 40.4283 155.267 40.5108 152.899 41.2049L146.323 43.1252L149.767 54.3071L156.343 52.3867Z" fill="#272727"></path><path d="M183.842 48.9718L182.931 22.7377L186.478 22.6144L186.881 34.2074L203.421 33.6326L203.019 22.0396L206.566 21.9163L207.478 48.1505L203.93 48.2738L203.527 36.6808L186.987 37.2555L187.39 48.8485L183.842 48.9718Z" fill="#272727"></path><path d="M231.104 51.255L231.994 45.5236L231.992 44.5619L233.48 34.9767C233.822 32.7698 233.46 30.9763 232.392 29.5962C231.358 28.2212 229.622 27.3445 227.184 26.966C225.504 26.7052 223.863 26.7372 222.261 27.0619C220.659 27.3867 219.259 27.9283 218.062 28.687L216.888 25.8229C218.379 24.9075 220.093 24.2966 222.03 23.9901C223.972 23.6506 225.963 23.6394 228.006 23.9564C231.365 24.478 233.821 25.7194 235.372 27.6805C236.96 29.6138 237.492 32.2768 236.965 35.6695L234.464 51.7766L231.104 51.255ZM222.123 50.1136C220.18 49.8119 218.532 49.2357 217.18 48.3848C215.866 47.5061 214.917 46.448 214.333 45.2105C213.755 43.94 213.58 42.5637 213.81 41.0814C214.02 39.731 214.522 38.5608 215.317 37.571C216.149 36.5533 217.342 35.8276 218.893 35.3939C220.483 34.9323 222.513 34.8932 224.983 35.2768L233.926 36.6651L233.52 39.2838L224.675 37.9107C222.172 37.5221 220.357 37.6957 219.231 38.4317C218.138 39.1727 217.489 40.202 217.284 41.5196C217.054 43.0018 217.447 44.2771 218.461 45.3454C219.476 46.4137 221.021 47.109 223.096 47.4312C225.073 47.738 226.838 47.5567 228.392 46.8872C229.985 46.1899 231.243 45.036 232.168 43.4255L232.583 45.9692C231.658 47.5797 230.293 48.7677 228.488 49.5331C226.715 50.3037 224.594 50.4972 222.123 50.1136Z" fill="#272727"></path><path d="M270.08 64.5504L265.318 48.3342L268.72 47.897L273.936 66.2154L270.08 64.5504ZM252.407 56.9194L262.813 32.82L266.072 34.2273L255.666 58.3267L252.407 56.9194ZM259.294 47.1492L260.503 44.3491L268.261 47.6988L267.052 50.4989L259.294 47.1492ZM268.203 49.8521L265.371 48.0849L280.118 40.2925L283.653 41.8187L268.203 49.8521Z" fill="#272727"></path><path d="M290.594 77.2371L293.797 72.4015L294.196 71.5267L299.552 63.4396C300.786 61.5777 301.206 59.7967 300.812 58.0968C300.447 56.4153 299.236 54.8936 297.179 53.5315C295.762 52.5927 294.257 51.9362 292.666 51.562C291.075 51.1877 289.577 51.0951 288.172 51.2843L288.302 48.1914C290.039 47.9828 291.852 48.1438 293.739 48.6743C295.645 49.177 297.46 49.999 299.183 51.1402C302.017 53.0177 303.729 55.1713 304.319 57.6009C304.955 60.0212 304.325 62.6626 302.429 65.525L293.429 79.1145L290.594 77.2371ZM282.911 72.4481C281.271 71.3621 280.015 70.1502 279.142 68.8123C278.315 67.465 277.895 66.1072 277.881 64.739C277.886 63.343 278.303 62.0197 279.131 60.7691C279.886 59.6297 280.831 58.7763 281.967 58.209C283.148 57.6322 284.534 57.4709 286.125 57.725C287.762 57.9697 289.623 58.7823 291.707 60.1628L299.253 65.1601L297.789 67.3695L290.327 62.4273C288.215 61.0284 286.494 60.428 285.163 60.6262C283.86 60.8427 282.841 61.5068 282.105 62.6185C281.276 63.869 281.1 65.1916 281.576 66.5862C282.051 67.9807 283.165 69.2578 284.915 70.4174C286.583 71.5218 288.263 72.0946 289.955 72.1357C291.693 72.1675 293.318 71.6449 294.831 70.5679L294.145 73.0523C292.632 74.1292 290.896 74.6383 288.936 74.5795C287.003 74.5391 284.995 73.8286 282.911 72.4481Z" fill="#272727"></path><path d="M308.389 92.8418C306.769 91.2565 305.665 89.4536 305.077 87.4328C304.513 85.3882 304.525 83.2784 305.114 81.1034C305.751 78.9279 307.071 76.8156 309.076 74.7666C311.081 72.7176 313.152 71.3632 315.29 70.7035C317.451 70.0199 319.548 69.9499 321.581 70.4935C323.614 71.037 325.453 72.1131 327.097 73.7216C328.884 75.47 330.084 77.4369 330.697 79.6224C331.357 81.8074 331.381 84.0229 330.769 86.2688C330.181 88.491 328.966 90.5432 327.124 92.4254C325.259 94.3315 323.222 95.603 321.013 96.2399C318.805 96.8768 316.589 96.901 314.367 96.3123C312.169 95.747 310.176 94.5902 308.389 92.8418ZM292.095 90.1201L317.237 64.424L319.667 66.8018L314.142 72.4485L310.22 75.9563L306.871 80.0943L294.632 92.6028L292.095 90.1201ZM310.413 90.4154C311.748 91.7209 313.23 92.5886 314.861 93.0187C316.516 93.425 318.189 93.3832 319.881 92.8933C321.596 92.3796 323.165 91.396 324.587 89.9427C326.009 88.4893 326.946 86.9116 327.399 85.2095C327.852 83.5074 327.857 81.8337 327.415 80.1886C326.973 78.5434 326.084 77.068 324.75 75.7626C323.416 74.4571 321.91 73.5896 320.231 73.16C318.577 72.7538 316.904 72.7956 315.212 73.2854C313.544 73.7986 311.999 74.7819 310.577 76.2353C309.155 77.6886 308.194 79.2666 307.694 80.9692C307.241 82.6713 307.236 84.345 307.678 85.9902C308.167 87.6348 309.079 89.1099 310.413 90.4154Z" fill="#272727"></path><path d="M324.144 110.706L343.737 96.6721L343.488 97.957L337.17 89.1364L339.69 87.3312L353.346 106.395L350.826 108.2L344.508 99.3796L345.804 99.5581L326.212 113.592L324.144 110.706Z" fill="#272727"></path><path d="M338.054 134.171C336.841 131.721 336.284 129.319 336.383 126.964C336.512 124.594 337.213 122.443 338.488 120.51C339.793 118.562 341.61 117.012 343.94 115.858C346.27 114.705 348.576 114.177 350.856 114.275C353.151 114.404 355.236 115.083 357.109 116.313C359.027 117.558 360.526 119.27 361.606 121.451C362.7 123.662 363.161 125.87 362.988 128.075C362.86 130.296 362.129 132.35 360.795 134.238C359.49 136.111 357.658 137.632 355.298 138.801C355.149 138.874 354.977 138.941 354.783 139C354.634 139.074 354.47 139.155 354.29 139.244L344.152 118.766L346.527 117.59L355.822 136.365L354.26 135.576C355.963 134.733 357.287 133.613 358.231 132.216C359.221 130.833 359.778 129.33 359.904 127.705C360.03 126.081 359.686 124.447 358.872 122.804C358.074 121.191 356.983 119.927 355.6 119.012C354.217 118.098 352.676 117.614 350.977 117.563C349.278 117.512 347.562 117.915 345.829 118.772L345.337 119.016C343.544 119.904 342.153 121.076 341.164 122.533C340.219 124.005 339.705 125.635 339.624 127.424C339.587 129.228 340.019 131.041 340.921 132.863C341.631 134.297 342.543 135.5 343.658 136.474C344.787 137.477 346.096 138.168 347.585 138.546L346.411 141.359C344.639 140.935 343.032 140.094 341.591 138.836C340.165 137.608 338.986 136.053 338.054 134.171Z" fill="#272727"></path></svg> 