<?xml version="1.0" encoding="UTF-8"?> <svg xmlns="http://www.w3.org/2000/svg" width="284" height="996" viewBox="0 0 284 996" fill="none"><path d="M213.651 1C210.567 21.7037 201.554 58.5354 182.766 85.8514C152.911 129.26 118.684 130.605 74.3438 138.459C38.8979 144.738 4.42801 150.431 1.10638 196.328C-3.00061 253.077 113.178 250.972 113.178 250.972C113.178 250.972 174.068 252.714 196.189 272.524C209.654 284.584 219.374 295.522 224.728 315.629C229.78 334.601 229.902 353.393 224.728 372.31C215.775 405.043 168.171 419.487 136.244 427.633C107.322 435.012 56.5279 436.377 35.64 482.786C31.3396 492.341 22.5426 522.21 31.3396 547.952C42.4164 580.365 76.9454 589.096 113.178 597.675C163.349 609.554 196.971 604.293 236.326 624.318C251.703 632.143 269.705 650.255 276.985 670.477C284.804 692.199 286.292 725.521 273.596 746.504C266.82 757.705 248.445 770.941 230.983 775.354C212.833 779.94 176.902 777.39 147.451 777.39C106.532 777.39 84.8993 805.9 74.7347 824.568C64.0197 844.246 61.3122 872.5 61.3122 886C61.3122 906.5 67 933 88 953.5C97.0659 962.35 117.5 975 136.244 981.5C154.584 987.86 196.5 996.5 204 994.5" stroke="black"></path></svg> 