<?xml version="1.0" encoding="UTF-8"?> <svg xmlns="http://www.w3.org/2000/svg" width="495" height="2144" viewBox="0 0 495 2144" fill="none"><path d="M217.7 1700.9C217.7 1745.23 163.567 1787.93 55.3004 1829V1829.7C60.9004 1827.83 66.0337 1826.9 70.7004 1826.9C77.2337 1826.9 86.1004 1828.77 97.3004 1832.5C108.967 1835.77 117.6 1837.4 123.2 1837.4C135.8 1837.4 147.467 1832.73 158.2 1823.4C171.267 1812.67 177.8 1807.3 177.8 1807.3L179.2 1809.4C176.4 1818.73 166.367 1829.7 149.1 1842.3C131.834 1854.9 117.834 1861.2 107.1 1861.2C99.1671 1861.2 87.7337 1858.63 72.8004 1853.5C58.3337 1847.9 47.1337 1845.1 39.2004 1845.1C32.2004 1845.1 25.4337 1846.97 18.9004 1850.7C8.63372 1857.23 2.80039 1860.73 1.40039 1861.2L0.000389144 1857C7.93372 1849.07 20.7671 1840.67 38.5004 1831.8C67.4337 1817.33 95.9004 1799.6 123.9 1778.6C163.1 1748.27 182.7 1722.83 182.7 1702.3C182.7 1690.17 176.4 1684.1 163.8 1684.1C147.934 1684.1 132.067 1689.93 116.2 1701.6C98.9337 1714.2 90.3004 1728.2 90.3004 1743.6C90.3004 1750.6 92.6337 1754.8 97.3004 1756.2C98.7004 1756.67 103.6 1756.9 112 1756.9C112.934 1756.9 113.634 1757.13 114.1 1757.6C114.1 1762.27 108.267 1764.6 96.6004 1764.6C83.0671 1764.6 76.3004 1759 76.3004 1747.8C76.3004 1729.13 89.1337 1711.17 114.8 1693.9C138.134 1678.5 159.834 1670.8 179.9 1670.8C205.1 1670.8 217.7 1680.83 217.7 1700.9ZM489.317 1658.2C489.317 1661 488.85 1663.1 487.917 1664.5C481.85 1658.9 476.017 1653.3 470.417 1647.7C464.817 1643.5 456.65 1641.4 445.917 1641.4C408.117 1641.4 360.283 1672.43 302.417 1734.5C262.283 1777.43 242.217 1811.73 242.217 1837.4C242.217 1850.93 248.05 1857.7 259.717 1857.7C275.117 1857.7 293.317 1844.4 314.317 1817.8C335.783 1791.2 346.517 1769.97 346.517 1754.1C346.517 1746.17 342.55 1742.2 334.617 1742.2C328.55 1742.2 322.25 1744.07 315.717 1747.8C305.45 1753.4 299.617 1756.43 298.217 1756.9L296.817 1755.5C297.75 1749.9 303.117 1744.77 312.917 1740.1C322.717 1735.43 330.883 1733.1 337.417 1733.1C360.283 1733.1 371.717 1744.77 371.717 1768.1C371.717 1792.37 359.35 1814.53 334.617 1834.6C310.35 1854.2 285.617 1864 260.417 1864C233.817 1864 220.517 1851.4 220.517 1826.2C220.517 1781.4 246.883 1737.53 299.617 1694.6C350.483 1653.53 399.017 1633 445.217 1633C454.083 1633 463.183 1635.1 472.517 1639.3C483.717 1644.43 489.317 1650.73 489.317 1658.2Z" fill="#3F496A"></path><path d="M225 1210.1C225 1238.57 206.567 1272.87 169.7 1313C135.634 1349.87 102.967 1368.3 71.7004 1368.3C45.5671 1368.3 32.5004 1355.47 32.5004 1329.8C32.5004 1298.53 49.3004 1265.4 82.9004 1230.4C116.5 1194.93 148.934 1177.2 180.2 1177.2C183 1177.2 184.867 1177.9 185.8 1179.3C185.334 1179.3 183.934 1179.53 181.6 1180C174.6 1180.93 161.534 1191.2 142.4 1210.8C87.8004 1266.8 60.5004 1311.37 60.5004 1344.5C60.5004 1355.23 65.8671 1360.6 76.6004 1360.6C97.1337 1360.6 123.5 1338.67 155.7 1294.8C186.967 1252.33 202.6 1220.13 202.6 1198.2C202.6 1190.27 198.4 1183.97 190 1179.3C191.867 1178.37 194.2 1177.9 197 1177.9C204.934 1177.9 211.467 1181.17 216.6 1187.7C222.2 1194.23 225 1201.7 225 1210.1ZM494.938 1163.2C494.938 1166 494.471 1168.1 493.538 1169.5C487.471 1163.9 481.638 1158.3 476.038 1152.7C470.438 1148.5 462.271 1146.4 451.538 1146.4C413.738 1146.4 365.905 1177.43 308.038 1239.5C267.905 1282.43 247.838 1316.73 247.838 1342.4C247.838 1355.93 253.671 1362.7 265.338 1362.7C280.738 1362.7 298.938 1349.4 319.938 1322.8C341.405 1296.2 352.138 1274.97 352.138 1259.1C352.138 1251.17 348.171 1247.2 340.238 1247.2C334.171 1247.2 327.871 1249.07 321.338 1252.8C311.071 1258.4 305.238 1261.43 303.838 1261.9L302.438 1260.5C303.371 1254.9 308.738 1249.77 318.538 1245.1C328.338 1240.43 336.505 1238.1 343.038 1238.1C365.905 1238.1 377.338 1249.77 377.338 1273.1C377.338 1297.37 364.971 1319.53 340.238 1339.6C315.971 1359.2 291.238 1369 266.038 1369C239.438 1369 226.138 1356.4 226.138 1331.2C226.138 1286.4 252.505 1242.53 305.238 1199.6C356.105 1158.53 404.638 1138 450.838 1138C459.705 1138 468.805 1140.1 478.138 1144.3C489.338 1149.43 494.938 1155.73 494.938 1163.2Z" fill="#3F496A"></path><path d="M219 726.1C219 754.567 200.567 788.867 163.7 829C129.634 865.867 96.9671 884.3 65.7004 884.3C39.5671 884.3 26.5004 871.467 26.5004 845.8C26.5004 814.533 43.3004 781.4 76.9004 746.4C110.5 710.933 142.934 693.2 174.2 693.2C177 693.2 178.867 693.9 179.8 695.3C179.334 695.3 177.934 695.533 175.6 696C168.6 696.933 155.534 707.2 136.4 726.8C81.8004 782.8 54.5004 827.367 54.5004 860.5C54.5004 871.233 59.8671 876.6 70.6004 876.6C91.1337 876.6 117.5 854.667 149.7 810.8C180.967 768.333 196.6 736.133 196.6 714.2C196.6 706.267 192.4 699.967 184 695.3C185.867 694.367 188.2 693.9 191 693.9C198.934 693.9 205.467 697.167 210.6 703.7C216.2 710.233 219 717.7 219 726.1ZM488.938 679.2C488.938 682 488.471 684.1 487.538 685.5C481.471 679.9 475.638 674.3 470.038 668.7C464.438 664.5 456.271 662.4 445.538 662.4C407.738 662.4 359.905 693.433 302.038 755.5C261.905 798.433 241.838 832.733 241.838 858.4C241.838 871.933 247.671 878.7 259.338 878.7C274.738 878.7 292.938 865.4 313.938 838.8C335.405 812.2 346.138 790.967 346.138 775.1C346.138 767.167 342.171 763.2 334.238 763.2C328.171 763.2 321.871 765.067 315.338 768.8C305.071 774.4 299.238 777.433 297.838 777.9L296.438 776.5C297.371 770.9 302.738 765.767 312.538 761.1C322.338 756.433 330.505 754.1 337.038 754.1C359.905 754.1 371.338 765.767 371.338 789.1C371.338 813.367 358.971 835.533 334.238 855.6C309.971 875.2 285.238 885 260.038 885C233.438 885 220.138 872.4 220.138 847.2C220.138 802.4 246.505 758.533 299.238 715.6C350.105 674.533 398.638 654 444.838 654C453.705 654 462.805 656.1 472.138 660.3C483.338 665.433 488.938 671.733 488.938 679.2Z" fill="#3F496A"></path><circle cx="211.9" cy="1545" r="17" fill="#3F496A"></circle><circle cx="211.9" cy="1019" r="17" fill="#3F496A"></circle></svg> 