<?xml version="1.0" encoding="UTF-8"?> <svg xmlns="http://www.w3.org/2000/svg" width="112" height="84" viewBox="0 0 112 84" fill="none"><path d="M107.949 11.6948L111.052 14.8145C110.978 16.0125 111.669 17.3447 111.338 17.5646C110.946 17.7207 109.007 17.1793 106.957 16.3905C104.906 15.6016 101.771 14.8656 99.996 14.7554C96.4467 14.5349 96.3758 14.6507 97.2264 19.3939C99.599 32.4095 99.5846 36.7381 97.1659 44.9461C95.9696 48.8405 95.0231 52.8105 95.0307 53.713C94.9413 55.1506 94.4716 55.5423 91.3438 56.731C88.8721 57.5997 87.7462 58.3115 87.9662 58.8663C88.4548 60.2196 83.8508 63.6617 81.7592 63.5318C80.7452 63.4688 79.0116 63.7219 77.8447 64.0703C75.0486 65.0391 72.8004 64.3582 71.6593 62.2428C71.1484 61.249 70.563 60.4309 70.3095 60.4152C70.056 60.3994 68.5388 62.2895 66.8725 64.5311C65.2659 66.8366 62.0637 70.2455 59.8494 72.0923C55.827 75.3902 46.0894 80.5579 44.188 80.4397C42.9838 80.3649 42.0327 77.2391 42.2411 73.8847C42.3453 72.2075 42.0954 71.1096 41.5362 70.8944C41.1037 70.6872 38.9563 71.4557 36.9133 72.5916C27.8953 77.4432 27.1161 77.6954 25.893 75.8756C25.192 74.8699 24.9385 74.8542 21.9896 76.2344C11.0478 81.3273 1.0043 84.2511 0.0869671 82.6307C-0.483572 81.573 1.8934 66.8681 3.17555 63.6405C4.37199 60.7684 4.33093 60.405 3.44337 58.3054C2.77956 56.7008 2.62651 55.0677 2.95435 52.8632C3.48337 49.4685 3.9046 48.8333 12.6349 38.3715C15.4531 34.9988 19.8182 29.2569 22.3343 25.6249C26.4571 19.6874 28.5447 17.8328 27.8627 20.6166C27.4379 22.334 28.7987 21.9375 30.0027 19.9678C32.2616 16.38 39.8628 10.7789 45.6749 8.37396C48.7431 7.12142 52.5457 5.31319 54.1972 4.33342C58.8161 1.67392 60.7622 1.07326 66.6602 0.357309C71.7865 -0.226187 72.6104 -0.175003 77.7481 1.10629C84.1422 2.64605 87.4306 3.99286 90.1599 6.14677C91.1927 6.93252 92.6729 7.68591 93.3701 7.72923C94.0673 7.77254 94.731 8.35498 94.9399 9.08954C95.2531 10.1914 95.626 10.3348 98.8844 10.1163C100.887 10.0187 101.994 9.95508 102.435 9.81569L107.949 11.6948ZM61.7829 26.6325C59.095 27.9087 58.1594 29.6545 59.2594 31.4066C59.7256 32.097 60.5123 32.7472 61.0193 32.7787C61.9067 32.8338 64.7881 28.4428 64.8886 26.8255C64.9705 25.5077 64.2695 25.5243 61.7829 26.6325ZM45.6658 26.9541C42.1987 28.4826 41.8409 29.1218 43.735 30.382C44.8945 31.1756 45.3531 30.9635 48.7604 28.349C50.8965 26.7379 52.835 25.2348 53.1668 25.0149C54.4343 24.0714 48.6147 25.5739 45.6658 26.9541ZM73.4332 22.4255C73.4034 22.9047 73.821 23.3516 74.3281 23.3831C75.3422 23.4461 75.6403 22.7431 74.9207 22.0369C74.2682 21.2748 73.4927 21.4671 73.4332 22.4255ZM88.0585 17.4412C87.4099 18.6637 84.4165 21.785 81.3261 24.4192C76.0176 28.9601 75.7343 29.4235 74.0496 34.0091C72.5961 37.9477 71.8207 39.1623 69.6101 40.9491C66.5346 43.3437 66.639 43.711 69.069 36.3455C69.7697 34.2844 70.2988 31.912 70.2241 31.0655C70.1159 29.7359 69.6387 30.2475 66.7162 34.2751C63.5105 38.7662 60.2262 41.4485 58.6081 40.8669C58.2986 40.7274 57.9182 39.6816 57.7354 38.5277C57.2577 33.928 55.8074 33.7176 53.5112 37.9045C51.6475 41.2763 47.2013 55.4919 47.0041 58.6666C46.9185 60.0443 46.3407 61.1509 45.1329 62.1583C43.9922 63.1096 43.5598 63.9246 43.7687 64.6592C45.2418 68.5991 46.1742 72.0244 46.1035 73.1625C46.0551 73.9412 46.3982 74.5639 46.8418 74.5914C47.9827 74.6623 54.2494 71.083 57.1348 68.6765C60.8254 65.5986 68.3848 52.4784 68.6193 48.7047C68.7346 46.8478 69.3125 46.7634 71.7733 48.1189C73.9843 49.3988 75.6623 52.0887 75.8825 54.6881C76.002 55.838 76.3824 56.8839 76.7552 57.0273C77.1281 57.1707 78.8914 56.4384 80.6697 55.4666C83.5738 53.7829 83.9876 53.2674 85.1541 49.8522C85.9182 47.7951 86.7715 44.3003 87.1665 42.0399C87.5577 39.8393 88.113 38.0698 88.3031 38.0817C89.444 38.1525 91.6514 40.5146 92.36 42.4227C93.0648 44.3907 93.2475 44.5223 93.8812 43.5394C94.2987 42.964 94.8054 39.9288 95.066 36.758C95.4383 31.7902 95.2852 30.1571 93.7225 24.588C90.9848 14.3759 90.157 13.3624 88.0585 17.4412ZM63.861 6.49723C61.859 6.97417 57.6724 8.81868 54.511 10.5465C51.4131 12.2782 47.1445 14.4183 45.0568 15.2507C41.2057 16.8154 31.2895 24.8583 31.189 26.4756C31.163 26.895 31.8788 27.661 32.8035 28.1394C35.3873 29.5627 35.0817 30.3855 31.4953 31.7863C27.1931 33.4432 20.9674 37.3859 20.2369 38.904C19.9387 39.607 18.4513 41.0179 16.9825 42.1293C15.5137 43.2407 12.7924 46.0782 10.9323 48.3679C8.37134 51.6964 7.64822 53.0947 7.52913 55.0115C7.51064 56.3332 7.39911 59.1525 7.32851 61.3129C7.25792 63.4732 6.67669 66.6842 5.99462 68.4458C4.44791 72.8596 4.13158 77.9511 5.39919 78.0299C6.79356 78.1165 16.4567 74.1469 20.8706 71.7151C24.8894 69.4994 26.4962 69.2385 28.3866 70.5585C29.3635 71.2205 30.0085 71.0802 32.1856 69.8325C37.9901 66.525 40.1411 64.6743 40.6031 62.3579C40.8714 61.1118 41.613 58.3918 42.254 56.2669C42.9584 54.1459 44.1137 49.8882 44.8776 46.8088C45.6416 43.7294 46.7559 40.1306 47.3448 38.8443C48.8283 35.4488 48.7536 34.6023 47.1506 35.8256C44.8841 37.4888 33.533 50.1929 32.7279 51.8867C32.2881 52.8215 31.3189 54.0842 30.577 54.7597C29.1605 56.0547 26.5321 56.3725 25.9578 55.3747C25.6744 54.8159 29.3721 48.5514 32.9991 43.425C34.9524 40.66 34.9113 40.2967 32.8087 41.3687C32.1489 41.7486 31.3809 41.8212 31.1385 41.6257C30.486 40.8636 32.4317 37.1962 34.8026 34.8781C36.0887 33.6351 37.1847 32.3803 37.1996 32.1407C37.2145 31.9011 38.9515 29.5436 41.0875 26.9102C45.2924 21.6995 47.2085 20.5557 53.6433 19.3921C55.6379 19.0349 58.3595 18.2419 59.6717 17.6019C60.984 16.9618 63.3066 16.4447 64.8986 16.4233C71.9002 16.3772 73.6972 16.1281 77.2724 14.9071C80.9819 13.5741 82.6817 11.8156 82.3795 9.51181C81.9765 6.78085 70.072 4.83862 63.861 6.49723Z" fill="#3D2A23"></path></svg> 