<?xml version="1.0" encoding="UTF-8"?> <svg xmlns="http://www.w3.org/2000/svg" width="538" height="489" viewBox="0 0 538 489" fill="none"><path d="M473.121 241.167C471.113 239.64 468.547 238.452 466.329 238.01C464.35 237.65 462.661 237.29 462.507 237.257C462.336 237.16 462.236 235.734 462.252 233.935C462.189 229.462 459.687 224.531 453.152 216.481C448.583 210.866 447.249 208.627 445.205 203.518C441.344 193.869 435.842 186.955 430.526 184.968C429.159 184.463 425.397 182.868 422.198 181.484C411.509 176.764 411.798 176.764 394.133 180.943L378.795 184.64L382.961 182.412C385.23 181.185 388.365 179.684 389.925 179.039C392.486 178.088 392.705 177.829 392.076 176.32L391.413 174.683L383.617 176.596C379.336 177.608 373.224 179.33 370.034 180.361C366.25 181.601 364.143 182.099 364.037 181.71C363.931 181.321 365.905 179.542 368.372 177.716C370.908 175.874 372.713 174.273 372.524 174.111C372.267 173.964 370.71 174.885 369.07 176.032C366.671 177.842 364.957 178.455 359.69 179.563C354.781 180.655 352.931 181.299 351.853 182.383C351.129 183.176 348.49 184.904 346.053 186.309C343.615 187.714 341.233 189.589 340.749 190.463C339.595 192.6 338.541 192.712 338.607 190.832C338.581 189.941 338.358 186.472 338.017 183.101C337.468 177.639 337.203 176.667 335.296 173.39C334.119 171.459 332.629 168.912 332.021 167.744C329.663 163.607 322.57 160.936 317.202 162.206C314.756 162.784 313.775 163.43 312.315 165.502C308.487 170.825 307.921 180.417 311.242 183.843C311.862 184.525 312.924 186.828 313.525 189.033C314.427 192.34 314.373 193.734 313.275 197.928C311.65 203.905 311.843 209.382 313.973 219.579C315.496 227.02 315.566 227.279 318.338 230.282C319.888 231.987 323.342 235.105 326.002 237.168C334.996 244.153 335.518 245.272 335.273 256.307L335.139 263.242L337.102 265.401C340.408 269.038 340.873 267.823 338.776 260.932C337.721 257.592 336.669 252.939 336.407 250.654C335.893 245.322 333.751 240.651 329.371 235.198C322.298 226.239 321.171 224.227 320.108 218.473C318.185 208.503 317.974 204.549 319.001 200.095C320.665 192.936 320.654 191.834 318.777 183.096C316.918 174.423 317.049 172.252 319.729 169.616C320.858 168.451 321.201 168.646 322.505 171.307C326.228 179.124 326.883 181.524 326.95 188.135C327.001 193.094 327.386 195.833 328.527 199.222C329.545 202.157 330.031 204.735 329.882 206.841C329.567 210.989 331.155 218.138 333.542 223.441C335.005 226.685 335.5 228.501 335.472 230.786C335.337 235.857 339.066 239.187 343.618 238.11L345.656 237.628L342.72 226.862L339.766 216.032L341.509 214.998C342.727 214.158 343.392 212.62 344.204 208.7C345.225 203.695 345.426 203.371 351.035 197.419L356.881 191.273L366.506 188.375C371.785 186.781 376.302 185.575 376.491 185.737C376.73 185.819 376.641 187.082 376.365 188.459C376.09 189.836 376.189 192.85 376.536 195.184L377.192 199.447L374.019 202.131L370.863 204.88L366.563 203.964C364.191 203.489 361.238 202.738 360.024 202.266C357.632 201.451 354.899 202.304 354.695 203.94C354.615 204.443 355.222 205.61 355.999 206.6C357.067 207.866 359.084 208.632 364.938 209.94C373.863 211.902 379.597 214.895 384.486 220.09C388.084 224.002 389.064 226.532 389.205 232.09C389.307 235.38 388.367 236.707 387.009 235.44C384.603 233.248 371.955 233.547 361.134 236.038C355.223 237.436 348.904 240.518 345.615 243.575C342.461 246.599 340.86 253.191 342.169 257.99C342.735 260.065 342.775 262.334 342.236 264.601C340.096 273.461 340.111 273.25 341.927 274.339C345.269 276.517 346.629 274.608 345.299 269.468C344.963 268.236 345.109 265.855 345.536 264.235C346.275 261.644 346.663 261.207 348.55 260.968C350.352 260.679 350.807 260.227 351.535 258.121C351.946 256.713 352.236 255.125 352.095 254.606C351.582 252.726 354.926 246.688 357.544 244.619C364.807 238.897 373.406 237.277 381.318 240.031C383.795 240.895 388.116 242.151 390.898 242.805C398.255 244.585 398.854 244.927 401.897 249.454C405.734 255.036 409.755 258.641 416.124 262.105C419.446 263.942 421.643 265.632 421.873 266.475C422.81 269.912 420.202 274.671 414.168 280.655C412.128 282.725 410.296 285.022 410.015 285.848C409.734 286.674 408.407 288.438 406.956 289.748L404.426 292.141L400.994 291.227C395.327 289.806 386.859 289.254 381.675 290.136C379.04 290.552 376.131 290.757 375.209 290.56C373.009 290.183 370.007 291.377 369.546 292.866C368.916 294.534 371.82 298.818 374.716 300.687C377.253 302.296 381.792 303.294 388.027 303.614C391.69 303.783 393.066 303.526 395.167 302.477C398.334 300.831 407.222 299.211 412.569 299.19C415.685 299.212 416.556 299.489 417.267 300.771C418.498 302.896 419.266 303.059 424.429 301.838C429.661 300.6 435.644 297.874 442.445 293.641C447.994 290.12 448.369 290.169 456.038 294.154L460.848 296.675L459.672 298.196C458.883 299.28 456.986 300.281 453.337 301.489C450.469 302.375 446.197 304.214 443.741 305.554C434.243 310.77 425.479 311.255 407.614 307.541C403.467 306.658 400.006 306.165 399.855 306.408C399.636 306.667 399.952 307.559 400.403 308.418C401.513 310.365 407.463 312.824 415.827 314.849C423.32 316.598 427.34 316.752 435.992 315.326C441.465 314.446 442.925 313.963 444.461 312.702C445.762 311.635 448.119 310.732 452.264 309.752C461.504 307.566 462.825 306.839 465.843 302.259C467.956 299.136 468.934 298.214 470.601 297.958C472.81 297.574 475.413 295.715 475.13 294.678C475.042 294.354 476.082 292.865 477.48 291.361C478.878 289.856 479.848 288.108 479.689 287.524C479.529 286.941 477.675 285.446 475.552 284.292C473.429 283.137 471.61 281.772 471.469 281.253C470.938 279.308 468.303 281.312 465.37 285.941C463.644 288.627 462.083 290.86 461.947 290.893C461.743 290.941 459.998 290.111 457.978 289.07C455.958 288.029 454.009 287.247 453.602 287.344C451.292 287.89 454.421 279.211 458.19 274.729C463.708 268.177 465.097 265.847 465.989 261.425C467.025 256.209 468.264 254.121 473.172 249.577C475.415 247.459 476.692 245.776 476.548 244.982C476.421 244.252 474.872 242.548 473.121 241.167ZM464.852 248.508C463.292 250.741 461.81 254.06 460.827 257.882C459.501 263.097 458.815 264.295 455.012 268.647C450.685 273.467 450.2 274.341 447.225 281.465L445.628 285.157L440.272 285.94C434.935 286.788 427.236 289.852 424.417 292.245C423.589 292.924 423.164 292.955 422.68 292.241C421.662 290.895 419.508 291.749 418.78 293.854C417.952 296.121 416.425 296.621 413.791 295.449L411.806 294.537L413.949 290.993C415.256 288.889 417.21 286.77 418.716 285.93C422.575 283.637 426.308 279.026 427.814 274.735C428.92 271.366 429.308 270.93 430.959 270.884C438.603 270.802 440.414 269.752 441.604 264.569C442.699 260.099 440.743 256.903 432.683 249.628C430.776 247.939 428.252 245.843 427.103 245.079C426.005 244.235 424.957 243.309 424.868 242.985C424.603 242.012 426.73 241.854 428.271 242.732C429.641 243.513 429.674 243.367 429.188 240.789C428.56 237.693 429.456 236.998 431.992 238.607C433.569 239.615 433.822 241.074 433.155 245.788C432.962 246.938 436.495 246.102 439.695 244.31C441.692 243.147 442.525 243.019 444.625 243.558C448.311 244.343 454.632 244.712 461.372 244.498C464.606 244.424 467.229 244.494 467.282 244.688C467.335 244.883 466.28 246.582 464.852 248.508ZM456.482 235.852C456.438 236.484 455.61 237.163 454.727 237.372C452.213 237.966 441.121 235.481 434.949 233.006L429.426 230.792L428.873 226.642C427.952 219.818 426.484 216.024 423.47 212.664C420.42 209.174 414.668 206.116 412.358 206.662C411.475 206.871 409.936 206.269 408.495 205.229C407.208 204.222 404.217 203.065 401.777 202.607C397.955 201.854 397.173 201.901 395.175 203.064C393.855 203.79 390.818 204.854 388.372 205.432C384.023 206.461 382.57 207.495 382.32 209.763C382.258 210.33 380.755 209.857 378.204 208.459C375.977 207.191 374.244 205.875 374.41 205.421C374.507 204.984 376.13 203.772 377.923 202.657C379.666 201.624 381.977 199.489 383.086 197.984C385.267 194.845 385.081 194.958 411.104 187.215C415.128 186.056 418.255 187.18 426.605 192.868C433.96 197.825 435.256 199.658 439.199 210.669C441.792 217.788 444.383 221.455 450.946 227.22C455.327 231.086 456.747 233.373 456.482 235.852ZM436.218 262.322C434.99 265.512 431.31 265.278 429.233 261.904C428.504 260.557 426.369 258.301 424.601 256.855C421.442 254.289 420.155 251.693 420.815 249.604C421.46 247.726 426.108 249.388 429.701 252.749C437.179 259.748 437.265 259.797 436.218 262.322ZM421.357 224.278C420.695 226.092 418.402 226.703 416.587 225.614C415.541 224.963 414.7 224.265 414.629 224.005C414.558 223.746 413.241 223.16 411.738 222.687C410.235 222.214 408.883 221.499 408.759 221.045C408.511 220.137 412.32 211.297 413.251 210.731C413.86 210.311 418.648 215.668 419.727 218.036C420.964 220.712 421.706 223.436 421.357 224.278ZM422.338 240.338C420.53 241.664 420.462 241.68 419.108 239.1C418.169 237.251 418.252 237.025 419.679 236.687C422.94 235.916 424.788 238.447 422.338 240.338ZM414.473 233.776C413.726 233.953 412.84 233.887 412.53 233.546C411.361 232.442 410.196 233.476 409.711 235.938C409.11 238.773 408.551 239.112 406.582 237.99C405.04 237.112 403.651 232.815 404.455 231.521C404.858 230.873 404.698 230.289 403.889 229.445C402.393 227.935 399.471 228.626 397.978 230.843C397.038 232.17 397.047 232.997 397.867 234.943C398.46 236.321 398.884 237.878 398.772 238.526C398.697 239.579 398.408 239.578 396.237 238.78L393.828 237.9L394.647 234.807C395.269 232.313 395.116 230.692 393.861 226.088C392.994 222.91 392.508 220.332 392.712 220.284C392.983 220.22 393.775 220.999 394.533 221.924C395.862 223.612 396.015 223.645 399.034 222.516C402.308 221.259 406.909 221.689 407.13 223.294C407.368 224.963 407.852 225.677 408.736 225.469C409.976 225.244 414.653 229.661 415.287 231.72C415.64 233.017 415.424 233.551 414.473 233.776ZM413.785 249.817L412.869 251.76L411.195 249.602C410.212 248.384 409.365 247.135 409.277 246.811C409.011 245.838 412.217 244.596 413.838 244.972C415.545 245.397 415.5 246.029 413.785 249.817ZM403.203 215.524C402.644 215.864 401.348 215.618 400.013 214.967C397.155 213.503 387.022 211.62 386.23 212.428C385.893 212.784 385.518 212.735 385.394 212.281C385.252 211.762 386.1 211.424 388.227 211.266C389.86 211.155 393.432 210.725 396.067 210.309C398.769 209.877 401.407 209.736 401.971 209.948C403.459 210.631 404.352 214.7 403.203 215.524Z" fill="#3D2A23"></path><path d="M436.412 247.917C436.072 247.997 435.617 248.45 435.502 248.823C435.404 249.26 435.543 249.503 435.951 249.407C436.29 249.327 436.763 248.939 436.861 248.501C436.976 248.129 436.82 247.821 436.412 247.917Z" fill="#3D2A23"></path><path d="M295.404 329.162C298.864 322.752 301.248 321.152 311.248 318.304C316.907 316.744 317.894 317.121 319.951 316.654L330.113 312.638C332.201 311.417 334.561 308.578 335.259 306.895C336.936 302.701 340.674 298.641 343.191 298.322C345.01 298.098 345.456 298.407 348.239 302.512C351.108 306.666 351.545 307.737 354.168 317.886C355.745 323.933 357 330.126 356.999 331.714C356.981 333.237 357.104 335.279 357.283 336.203C357.311 336.413 357.328 336.601 357.327 336.773L357.681 349.323C357.92 349.986 358.14 350.987 358.35 352.312C358.662 354.516 359.16 356.608 359.488 357.013C360.438 358.376 365.664 356.588 367.479 354.226C368.939 352.154 369.134 351.28 369.221 344.701C369.258 341.655 370.301 340.441 370.92 342.711C371.893 346.278 374.855 341.228 375.624 334.764C375.953 331.994 376.439 329.532 376.708 329.192C376.994 328.917 376.346 325.48 375.285 321.589C373.587 315.364 372.838 313.677 369.518 308.663C365.265 302.351 361.318 297.693 354.596 291.344L350.212 287.203L347.086 287.942C344.844 288.473 343.447 288.389 342.248 287.706C339.491 286.08 335.373 281.324 334.736 278.99C333.993 276.266 331.481 273.684 329.059 273.291C327.984 273.062 327.16 272.428 326.895 271.455C326.665 270.612 326.146 269.769 325.785 269.509C325.34 269.2 324.304 267.788 323.386 266.279C319.871 260.552 311.28 252.919 301.772 247.229C298.825 245.441 296.183 243.443 295.87 242.826C295.418 241.967 294.019 241.607 290.731 241.488C288.262 241.45 286.135 241.608 285.984 241.851C285.834 242.094 285.895 243.115 286.178 244.152C286.638 245.838 286.537 246 284.733 246.013C283.575 246.011 281.581 245.861 280.234 245.696C274.676 244.94 259.008 247.956 259.468 249.642C259.556 249.966 260.507 251.329 261.679 252.709C263.541 255.03 264.276 255.339 269.838 256.371C273.181 256.961 278.441 258.478 281.518 259.683C284.545 260.969 288.886 262.566 291.039 263.299C293.242 263.952 296.407 265.481 298.105 266.667C299.803 267.854 302.546 269.69 304.14 270.763C305.752 271.9 308.729 273.267 310.761 273.822C314.192 274.736 322.372 278.739 322.602 279.582C322.673 279.841 319.532 280.791 315.592 281.723C309.884 283.073 308.239 283.669 307.586 284.721C306.814 285.87 306.885 286.13 308.379 287.364C309.238 288.127 310.844 288.714 311.934 288.732C315.662 288.61 316.412 288.709 316.589 289.357C316.677 289.681 315.918 290.344 314.952 290.78C313.732 291.345 313.043 292.267 312.921 293.677C312.746 294.892 311.942 296.186 310.893 296.849C307.07 299.272 306.309 301.523 309.062 302.598C310.361 303.119 310.396 303.248 309.678 304.592C309.243 305.385 309.054 306.811 309.319 307.784C309.708 309.21 308.851 310.31 302.932 315.922C296.389 322.164 293.888 325.724 291.687 331.974C290.397 335.731 292.865 333.905 295.404 329.162ZM373.358 329.639C371.315 333.022 366.266 335.459 364.444 333.819C363.86 333.266 361.192 318.71 360.781 313.491C360.549 310.785 359.986 308.985 358.339 306.13C357.194 304.053 355.86 301.814 355.53 301.133C354.42 299.186 358.076 301.981 360.729 305.081C369.328 315.128 375.114 326.531 373.358 329.639ZM366.22 349.346C366.022 349.945 365.599 350.252 365.343 350.106C365 349.911 365.042 349.003 365.423 348.015C366.154 346.186 366.898 347.322 366.22 349.346ZM333.875 298.109C332.917 300.959 331.166 304.618 330.043 306.333C328.166 309.263 327.675 309.586 322.821 311.148C315.643 313.467 311.07 314.204 310.769 313.101C310.645 312.647 311.098 311.919 311.706 311.499C312.519 311.031 312.865 309.913 312.695 308.228C312.504 306.202 312.936 305.133 314.52 303.516C316.272 301.721 316.503 300.976 315.99 299.095C315.477 297.214 315.625 296.696 316.813 296.277C317.66 295.938 318.571 295.033 318.869 294.272C319.168 293.511 320.179 292.443 321.127 291.943C322.415 291.362 322.918 290.553 322.818 289.126C322.601 286.209 325.254 285.858 329.246 288.296C330.994 289.402 333.084 290.702 333.873 291.206C334.661 291.71 335.399 292.295 335.47 292.554C335.609 292.797 334.851 295.324 333.875 298.109ZM324.288 274.626C324.001 274.901 321.164 273.778 317.98 272.183C314.779 270.524 310.382 268.458 308.262 267.578C306.074 266.715 302.785 264.732 300.93 263.238C298.442 261.272 295.001 259.531 288.679 257.299C283.877 255.604 278.936 253.666 277.755 253.048L275.632 251.893L277.455 251.946C281.235 252.018 287.142 253.52 290.121 255.163C293.871 257.244 295.18 257.004 295.985 254.121C296.296 252.874 296.967 251.887 297.46 251.839C299.265 251.826 311.263 261.346 315.845 266.475C319.065 270.063 321.315 271.947 322.458 272.16C324.283 272.487 325.198 273.721 324.288 274.626Z" fill="#3D2A23"></path></svg> 