<?xml version="1.0" encoding="UTF-8"?> <svg xmlns="http://www.w3.org/2000/svg" width="647" height="175" viewBox="0 0 647 175" fill="none"><path fill-rule="evenodd" clip-rule="evenodd" d="M182.456 134.94C79.9148 127.813 79.3397 127.253 76.5929 123.23C75.1112 121.06 60.4646 117.147 44.0449 114.535C24.3788 111.406 12.667 108.014 9.72506 104.595C7.26883 101.74 3.96027 99.2903 2.37279 99.1514C0.785305 99.0125 -0.257476 95.9726 0.0554049 92.396C0.508854 87.2126 2.63502 86.0691 10.5343 86.7602C15.9847 87.237 20.5721 86.164 20.7286 84.3757C20.885 82.5874 18.3787 80.8938 15.1589 80.6122C6.69643 79.8719 4.81503 73.2285 13.1434 73.4953C16.9923 73.6187 21.144 73.9819 22.3696 74.3024C23.5952 74.623 24.726 73.4222 24.8824 71.6339C25.0389 69.8456 21.7738 68.0857 17.6267 67.7229C13.4796 67.3601 10.2145 65.6001 10.371 63.8119C10.5274 62.0236 12.0871 60.6857 13.8369 60.8388C15.5161 60.9857 23.0231 58.7335 30.8054 55.7677C27.099 54.8117 24.9085 53.7882 24.9873 52.8872C25.1437 51.0989 30.363 50.061 36.5858 50.5808C39.9945 50.8655 44.1088 50.9045 47.8323 50.736C52.1448 49.8501 56.8556 49.1294 62.1086 48.5702L63.3773 48.3063L54.5198 45.3361C49.4521 43.6368 53.8784 43.071 67.1094 43.6889C70.2817 43.6574 71.7236 42.0169 70.9941 39.2151C70.8664 38.7243 70.8208 38.2508 70.8533 37.7989C53.862 36.751 37.2983 36.1834 29.4406 36.7227C12.9695 37.8532 8.37884 36.9834 12.2626 33.4679C15.5817 30.4635 37.4295 27.2569 46.648 28.4212C51.4805 29.0315 56.579 27.8855 57.9781 25.8744C59.3771 23.8633 65.0101 22.7496 70.4957 23.3994C71.8484 23.5596 73.2318 23.646 74.5762 23.6653C72.7995 21.3622 74.4486 20.6202 80.6849 18.2063C81.882 17.7429 83.0352 17.1736 84.0939 16.542C78.7679 16.0171 71.5668 15.4729 63.2521 14.9955C15.7739 12.2692 31.7842 8.85222 84.1682 10.5315C85.9996 10.5902 87.8319 10.6455 89.6551 10.6972C89.6722 10.608 89.6846 10.5201 89.6922 10.4336C89.9056 7.9935 94.5098 5.44007 99.9236 4.75926C108.338 3.70111 108.943 3.08603 104.093 0.521762C100.973 -1.12805 139.805 1.26033 190.387 5.82929C240.968 10.3982 276.157 14.6258 268.582 15.2239C256.817 16.1529 256.116 16.5733 263.771 18.1097C266.661 18.6898 285.338 20.7417 311.827 23.439C338.382 25.3821 357.132 26.6042 360.079 26.5348C367.884 26.3508 367.267 25.8151 355.842 22.8574C348.486 20.9533 383.874 22.8998 434.481 27.183C485.088 31.4661 523.745 35.8566 520.385 36.9395C515.164 38.6227 515.653 39.3335 523.756 41.8366C528.969 43.4471 533.06 46.7612 532.846 49.2013C532.839 49.2878 532.836 49.3765 532.837 49.4673C534.642 49.7329 536.456 49.9966 538.269 50.2568C590.149 57.6987 605.323 63.8437 558.093 58.2847C549.821 57.3112 542.635 56.5968 537.299 56.1889C538.232 56.9947 539.269 57.7557 540.367 58.4199C546.09 61.8799 547.585 62.897 545.435 64.8567C546.763 65.0711 548.14 65.2262 549.5 65.3032C555.015 65.6158 560.369 67.6907 561.398 69.9142C562.426 72.1376 567.248 74.1515 572.113 74.3896C578.48 74.701 590.341 78.0697 598.05 81.2958C599.064 81.6457 599.838 81.9888 600.378 82.3263C602.727 83.4332 604.44 84.4803 605.1 85.3301C605.261 85.5368 605.402 85.7333 605.523 85.9197C607.8 86.9152 610.557 87.6592 613.147 87.8858C620.461 88.5256 621.582 89.7298 619.798 95.0201C618.161 99.8734 619.137 101.515 623.904 101.932C627.342 102.233 629.179 103.364 627.985 104.445C627.641 104.756 627.431 105.231 627.347 105.814C639.158 107.73 646.807 109.583 645.956 110.846C645.004 112.258 638.114 113.863 630.321 114.534C630.337 115.136 630.006 115.378 629.311 115.123C626.77 114.191 618.69 117.044 613.526 119.988C613.224 121.282 611.496 122.813 609.023 124.14C609.07 125.474 611.349 126.001 614.23 125.308C618.301 124.328 618.063 124.876 613.279 127.494C612.224 128.071 611.114 128.785 610.035 129.563C613.217 129.722 617.156 129.87 621.922 130.018C637.748 130.512 647.502 131.462 643.599 132.13C638.338 133.031 637.236 134.455 639.338 137.636C641.517 140.933 638.103 142.461 624.614 144.227C605.636 146.711 593.442 150.117 591.553 153.214C594.802 154.709 597.057 156.597 596.919 158.171C596.893 158.464 595.846 158.637 593.973 158.701C593.433 162.618 583.236 166.283 568.306 167.278C558.681 167.919 552.827 168.825 555.297 169.291C558.974 169.984 558.81 170.659 554.39 173.015C551.421 174.597 540.836 174.573 530.867 172.962C520.045 171.212 512.649 171.312 512.51 173.209C512.221 177.152 463.742 173.761 424.922 167.084C368.276 157.341 354.088 155.494 363.277 159.06C370.563 161.886 369.019 162.209 354.566 160.883C344.904 159.995 336.477 158.184 335.839 156.857C335.286 155.707 332.642 154.552 327.693 153.362C320.555 153.842 315.841 154.462 315.111 155.124C314.168 155.977 310.003 156.379 305.856 156.017C296.363 155.186 299.121 152.403 310.65 151.178C311.736 151.063 312.8 150.932 313.802 150.794C298.851 148.529 275.913 146.076 243.734 143.251C207.831 140.098 188.259 137.455 182.456 134.94ZM588.363 100.859C597.417 101.776 606.391 102.829 614.466 103.918C615.136 101.527 613.998 99.5759 611.922 99.5733C609.833 99.5708 600.297 99.1501 590.73 98.6378C586.556 98.4145 583.418 98.3081 581.179 98.3534C584.446 98.9177 587.085 99.8477 588.363 100.859ZM63.5812 28.6083C63.6502 27.8197 65.1431 26.3889 66.8987 25.4288C68.6542 24.4687 69.9549 25.2327 69.7892 27.1265C69.6236 29.0203 68.1309 30.4511 66.472 30.3059C64.8131 30.1608 63.5122 29.3969 63.5812 28.6083ZM507.869 39.4332C507 37.5553 507.726 36.1445 509.483 36.2982C511.24 36.4519 512.549 38.0407 512.393 39.829C512.236 41.6173 511.51 43.0281 510.778 42.9641C510.047 42.9001 508.737 41.3112 507.869 39.4332ZM421.369 29.4251C436.765 30.1773 461.873 32.3738 477.166 34.3063C492.458 36.2387 479.862 35.6232 449.173 32.9386C418.485 30.2539 405.973 28.6728 421.369 29.4251ZM555.405 71.6336C555.474 70.8451 554.252 69.1768 552.69 67.9265C551.128 66.6761 549.714 67.2026 549.549 69.0964C549.383 70.9902 550.604 72.6584 552.263 72.8036C553.922 72.9487 555.336 72.4222 555.405 71.6336ZM115.987 5.15091C117.168 3.45233 116.698 1.93685 114.941 1.78315C113.184 1.62947 111.619 2.96686 111.462 4.75514C111.306 6.54341 111.777 8.05891 112.508 8.12291C113.24 8.18689 114.805 6.8495 115.987 5.15091ZM202.91 10.314C187.618 8.38158 162.509 6.18505 147.113 5.43285C131.717 4.68065 144.229 6.2617 174.918 8.94636C205.606 11.631 218.203 12.2465 202.91 10.314ZM103.289 122.049C99.6241 120.947 93.5164 120.413 89.7163 120.861C85.9162 121.31 88.9144 122.211 96.3792 122.864C103.844 123.517 106.953 123.15 103.289 122.049Z" fill="#E0B8B9"></path></svg> 