<?xml version="1.0" encoding="UTF-8"?> <svg xmlns="http://www.w3.org/2000/svg" width="860" height="805" viewBox="0 0 860 805" fill="none"><path d="M280 23.6317C280 56.0317 284.8 122.965 289.333 155.632C291.6 171.232 294.8 190.432 296.8 199.765C297.867 204.832 298.667 209.498 298.667 210.298C298.667 210.965 294.4 207.632 289.067 202.698C267.067 182.298 230 171.765 193.733 175.365C162 178.565 140.4 184.432 116.667 196.032C98.2667 205.098 88.5333 212.432 69.6 231.898C61.3333 240.432 54 247.365 53.3333 247.365C51.7333 247.365 47.3333 232.432 39.3333 200.965C35.8667 187.498 30.8 169.098 27.8667 160.298C21.4667 140.565 9.73333 116.165 4.13333 110.832C0.133333 106.965 0 106.965 0 109.898C0 121.365 19.8667 181.498 38.2667 226.032C49.7333 253.498 49.8667 254.432 47.4667 259.232C44.2667 265.232 44.9333 266.565 49.0667 263.365L52.6667 260.432L53.0667 267.632C53.6 278.698 57.2 302.965 60.1333 314.298C63.0667 325.765 69.0667 340.698 70.8 340.698C73.6 340.698 71.0667 319.898 64.1333 286.032C62 275.365 59.8667 263.632 59.4667 259.898L58.6667 253.098L68.9333 242.432C87.8667 223.098 110.533 209.098 137.333 200.165C155.2 194.298 167.333 191.765 187.333 189.898C216.533 187.098 247.6 193.232 272.933 206.698C287.867 214.565 301.2 224.298 302 227.765C302.267 229.365 303.467 239.632 304.667 250.698C305.867 261.632 307.333 273.098 308 276.032C308.667 278.965 309.333 281.765 309.333 282.165C309.333 282.698 305.333 281.765 300.4 280.032C280.4 273.098 257.2 270.032 226 270.032C198.933 270.032 185.733 271.498 165.467 276.698C124.133 287.498 88.2667 314.165 74 344.832C70.2667 352.832 69.7333 356.698 72.4 356.698C74.8 356.698 79.8667 350.965 86.5333 340.432C102.133 316.032 133.067 296.698 172.8 286.565C211.467 276.832 247.333 277.498 278.667 288.565C292.667 293.498 302.133 299.365 314.667 311.098C333.2 328.165 343.2 341.365 373.067 387.632C383.467 403.632 397.333 423.898 404 432.698C415.867 448.165 434.8 467.498 435.733 464.965C436.133 463.498 421.2 435.365 410.933 418.832C395.6 394.032 355.2 343.365 323.867 309.632C310.8 295.765 310.533 295.365 314.533 295.365C316.8 295.365 318.667 294.698 318.667 293.898C318.667 293.098 316.533 280.032 314 264.965C306.533 219.898 304.533 203.232 298.667 131.365C293.733 72.8317 284.667 3.76507 281.2 0.0317335C280.533 -0.634933 280 9.23173 280 23.6317Z" fill="#30352B"></path><path d="M816.667 67.0982C813.733 71.0982 808.933 77.8982 806.133 81.8982C803.2 86.0316 784.4 113.898 764.267 144.032C727.867 198.298 708.8 225.098 694 242.832C656.133 287.765 630.133 308.965 560.8 351.365C509.067 383.098 487.467 404.165 468.933 441.365C465.6 447.898 461.333 458.032 459.333 463.632C457.333 469.365 454.8 474.698 453.867 475.498C451.067 477.898 451.6 480.698 455.067 480.698C458.667 480.698 475.2 471.765 486 464.032C500.267 453.898 546.133 412.698 543.333 412.698C541.467 412.698 520.533 427.098 509.867 435.765C492.8 449.365 475.333 460.565 473.6 458.832C473.2 458.432 476.133 452.832 480 446.432C497.6 417.365 516.533 399.365 554 376.032C579.467 360.165 586.267 355.498 606.667 339.632C690.667 274.165 758.4 193.098 802.8 104.565C811.6 86.8316 823.067 60.6982 822.4 59.8982C822.133 59.7649 819.6 62.9649 816.667 67.0982Z" fill="#30352B"></path><path d="M848.134 335.765C800.134 427.765 777.6 457.499 703.6 526.432C646.667 579.499 622.667 607.899 606.534 641.632C601.734 651.632 595.6 667.365 596.534 667.365C596.8 667.365 599.2 663.899 602 659.632C616 638.432 635.067 616.699 680.667 570.032C756.534 492.432 789.6 454.699 814.534 417.365C829.067 395.365 844.934 364.432 851.734 344.699C857.067 329.099 860.667 315.632 859.867 314.699C859.6 314.432 854.267 323.899 848.134 335.765Z" fill="#30352B"></path><path d="M224.533 332.032C227.733 340.565 240.4 355.765 261.867 376.832C275.2 389.899 286.133 400.299 286.533 400.032C287.333 399.232 275.867 383.632 262.8 367.765C245.2 346.299 221.467 324.165 224.533 332.032Z" fill="#30352B"></path><path d="M638.533 349.632C618.267 365.899 583.2 402.032 587.6 402.032C589.333 402.032 605.467 388.566 621.6 373.766C635.467 360.966 651.733 342.566 650.4 341.232C650 340.966 644.667 344.699 638.533 349.632Z" fill="#30352B"></path><path d="M157.733 348.965C158.133 350.698 159.467 357.765 160.667 364.698C164.267 385.631 168.933 406.298 172.8 417.498C179.2 436.298 179.467 434.431 175.2 403.098C173.067 387.631 166.933 364.298 161.867 353.098C158.8 345.898 156.4 343.631 157.733 348.965Z" fill="#30352B"></path><path d="M83.4665 370.965C85.1999 398.965 84.6665 426.965 82.1332 444.698C73.7332 504.698 73.8665 529.498 82.5332 554.298C85.1999 561.898 93.5999 577.098 98.5332 583.365L101.333 586.698V581.365C101.333 578.432 100.4 572.698 99.3332 568.698C87.4665 525.098 87.0665 520.032 89.9999 448.032C91.8665 401.765 92.1332 386.298 90.9332 374.698C89.1999 358.165 87.3332 351.365 84.3999 351.365C82.5332 351.365 82.5332 353.765 83.4665 370.965Z" fill="#30352B"></path><path d="M716.134 392.166C690.8 404.832 668.4 427.899 654.667 455.366C651.2 462.299 651.2 462.299 663.334 447.632C669.067 440.566 680.534 429.632 695.2 417.499C722.534 394.699 731.867 386.166 729.867 386.032C728.934 386.032 722.8 388.832 716.134 392.166Z" fill="#30352B"></path><path d="M326.667 408.432C326.667 410.832 334.667 421.765 339.067 425.498C355.333 438.832 356.4 434.298 340.8 418.565C330.533 408.298 326.667 405.632 326.667 408.432Z" fill="#30352B"></path><path d="M271.733 444.299C274.667 448.565 279.067 456.165 281.733 461.365C284.267 466.432 287.6 472.165 289.067 474.032L291.733 477.365L292.667 473.765C294.533 466.165 287.6 452.165 277.2 442.832C267.6 434.165 265.333 434.832 271.733 444.299Z" fill="#30352B"></path><path d="M591.6 449.898C581.467 459.498 577.2 465.232 555.867 498.698C544.4 516.698 538 525.232 529.733 533.632C507.2 556.165 483.867 592.032 474.267 618.965C470.133 630.432 465.867 651.898 464.667 667.365C464 677.765 464 678.432 466 676.165C469.333 671.898 475.6 654.298 483.467 626.965C491.733 598.432 496.933 585.098 504.533 573.632C508.667 567.498 510.267 566.032 513.333 566.032C515.333 566.032 518.4 564.832 520.267 563.498L523.467 560.832L531.467 565.232C535.733 567.632 539.467 570.432 539.6 571.498C539.867 572.565 537.733 575.898 534.933 579.098L530 584.698L521.733 577.365C517.333 573.365 513.2 570.032 512.8 570.032C511.067 570.032 512.133 576.032 514.667 580.165C517.467 584.565 526.667 590.032 531.467 590.032C534.267 590.032 538.933 586.432 541.067 582.565C542.133 580.698 543.2 580.965 549.2 585.498C552.933 588.298 556 590.965 556 591.498C556 592.032 553.467 596.832 550.267 602.298C537.733 623.365 512.4 670.298 503.2 689.365C492.667 711.098 475.333 753.232 470.8 767.898C466.133 782.965 467.2 784.432 475.2 773.632C482.4 763.898 498 731.365 510 700.698C528 654.432 540.267 628.565 552.267 610.698C558.933 600.832 566.267 592.298 564.8 596.032C556 619.098 548.4 648.165 549.733 653.765C550.267 655.898 556.667 643.498 570.667 612.698C580.533 591.365 594.4 565.098 605.6 546.965C611.467 537.498 616.667 528.298 617.333 526.565C621.067 516.832 609.2 526.565 590 549.365C582.8 557.765 576.4 564.698 576 564.698C572.933 564.698 546.133 551.765 538.4 546.698L529.333 540.698L534.133 532.965C536.8 528.832 546 518.165 554.4 509.365C562.933 500.565 574.8 486.698 580.933 478.432C592.133 463.498 602 446.032 601.067 443.232C600.8 442.298 596.533 445.365 591.6 449.898ZM545.467 562.965C549.467 565.232 556.4 568.432 561.067 570.165C565.6 571.898 569.333 573.765 569.333 574.165C569.333 574.565 567.867 576.298 566 578.032L562.533 581.232L554 576.965C549.2 574.698 545.333 571.898 545.333 570.965C545.333 567.898 539.733 563.632 530 559.232C524.8 556.965 520.533 554.832 520.267 554.698C520 554.432 520.8 552.698 522 550.832L524.267 547.498L531.2 553.232C535.067 556.298 541.467 560.698 545.467 562.965Z" fill="#30352B"></path><path d="M530.267 449.765C528.933 451.231 527.6 454.431 527.067 457.098C526.533 460.965 526.933 462.431 529.733 465.231C535.467 470.965 539.333 469.498 535.733 462.965C534.8 461.365 533.733 457.098 533.333 453.498C532.667 447.231 532.667 447.098 530.267 449.765Z" fill="#30352B"></path><path d="M218.934 456.299C216.267 462.165 215.334 466.699 214.934 475.365C214.267 488.565 216 496.432 220.8 501.632L224.134 505.365L223.467 501.365C220.934 486.565 221.467 467.099 224.8 451.632C226 445.899 222.534 448.699 218.934 456.299Z" fill="#30352B"></path><path d="M369.467 475.765C378.8 484.965 385.6 492.965 387.2 496.432L389.733 502.032L386.533 508.032L383.333 514.032L381.6 508.699C380.533 505.765 379.2 503.365 378.533 503.365C376.533 503.365 377.2 518.165 379.467 526.699C383.067 539.632 383.2 539.365 370.667 549.365C355.6 561.365 345.733 567.899 339.6 570.165C334.8 571.899 334.267 571.765 332.533 569.365C329.067 564.699 327.733 568.832 330.133 576.832C332.933 586.299 334.267 588.565 344.4 602.699C349.067 609.365 354.267 617.232 355.867 620.299C358.533 625.632 359.733 635.499 357.733 635.232C354.133 635.099 322.667 576.432 322.667 570.299C322.667 569.499 322.133 568.565 321.467 568.165C317.467 565.632 329.467 600.432 339.067 619.365C354 648.299 355.6 652.032 360.8 667.632C363.6 676.165 366.4 682.832 367.067 682.432C367.867 682.032 368 677.232 367.6 671.099L366.8 660.565L372.267 665.232C386.533 677.499 404.267 674.432 415.333 657.632C424.533 643.632 426 626.432 421.333 585.765C418.267 560.165 416.4 549.765 413.867 546.299C412.533 544.432 412.133 544.965 411.467 550.032C411.067 553.365 410.533 557.765 410.4 560.032L410 564.032L406.4 557.765C404.4 554.432 400.667 548.965 398.267 545.765C392.8 538.565 389.333 528.832 389.333 520.832L389.467 514.699L400.8 526.699C410.533 536.965 412 538.165 411.2 534.699C409.467 526.832 405.467 519.365 399.467 512.965C394.667 507.899 393.067 504.965 392 499.632C390.267 490.432 386.667 483.765 379.867 476.832C374.667 471.632 358 460.699 355.333 460.699C354.667 460.699 361.067 467.499 369.467 475.765ZM384.533 551.099C382.933 552.299 378.8 555.765 375.467 558.565C365.867 566.565 367.067 563.632 376.933 554.965C381.733 550.699 386 547.632 386.533 548.032C386.933 548.565 386 549.899 384.533 551.099ZM396.8 566.432C406 582.965 410.4 594.432 412.133 606.965C413.867 618.832 412.933 634.432 410.133 643.765C406.4 656.165 397.2 664.432 388.667 662.832C380.4 661.232 370 647.499 367.333 634.565C366.667 631.099 366.933 630.299 369.2 629.632C375.333 628.032 371.333 620.032 354.8 600.299C348.133 592.432 342.667 585.499 342.667 584.965C342.667 584.299 344.8 583.099 347.467 582.165C357.6 578.432 379.2 564.165 385.867 556.832C387.333 555.365 388.8 554.032 389.2 554.032C389.6 554.032 393.067 559.632 396.8 566.432Z" fill="#30352B"></path><path d="M400.667 627.232C400.267 627.899 396.8 629.499 392.933 630.699C389.2 631.899 385.067 633.232 384 633.499C382.4 634.165 382.4 634.565 384.533 636.165C387.733 638.432 397.2 638.565 400.133 636.299C402.533 634.565 405.333 629.632 405.333 627.499C405.333 625.765 401.733 625.499 400.667 627.232Z" fill="#30352B"></path><path d="M603.6 462.965C603.067 463.365 602.667 466.165 602.667 468.965C602.667 474.432 606.667 479.765 612 481.099C615.333 481.899 615.333 481.765 611.333 475.899C609.6 473.232 607.733 469.099 607.2 466.565C606.4 462.165 605.333 461.099 603.6 462.965Z" fill="#30352B"></path><path d="M446.667 484.299C446.667 485.099 449.334 492.565 452.534 500.965C464.134 530.832 466.134 541.899 463.734 563.099C462.934 570.565 462.667 577.099 463.067 577.632C466 580.565 473.2 566.965 473.334 558.299C473.334 552.832 473.6 552.565 479.467 550.032C482.8 548.565 486 547.365 486.667 547.365C488.134 547.365 478.4 572.565 474.134 579.899C470.8 585.632 461.867 597.099 460.134 597.765C459.734 597.899 459.467 594.299 459.734 589.765L460 581.365L457.067 585.365C455.334 587.499 451.6 591.765 448.667 594.699C432.534 610.699 431.6 619.099 446.934 609.232C449.734 607.499 452.134 606.032 452.4 606.032C452.667 606.032 452.534 608.165 452.267 610.699C451.467 617.765 454.534 616.699 462.267 606.965C476.934 588.832 484 576.032 490.534 556.299C492.267 551.232 494.267 546.965 495.2 546.699C496 546.565 500 545.632 504.267 544.832C514.934 542.565 527.867 533.499 524.667 530.299C524.267 529.899 521.067 530.565 517.6 531.765C514.134 532.965 505.6 534.565 498.667 535.365C490.267 536.299 483.867 537.765 479.867 539.899L473.867 542.965L472.267 533.765C471.334 528.699 469.467 521.232 468 517.232C464.134 506.032 446.8 479.365 446.667 484.299Z" fill="#30352B"></path><path d="M344.4 487.631C340.933 489.231 333.867 498.965 335.2 500.298C336.4 501.631 342.4 498.031 349.2 491.765L355.333 486.165H351.333C349.2 486.165 346 486.831 344.4 487.631Z" fill="#30352B"></path><path d="M132 494.166C129.734 498.299 130.134 511.899 132.8 517.366C134 519.899 135.067 522.032 135.2 522.032C135.467 522.032 135.467 515.099 135.467 506.699C135.334 498.299 134.934 491.366 134.4 491.366C133.867 491.366 132.8 492.566 132 494.166Z" fill="#30352B"></path><path d="M652.133 495.765C650 501.098 650.4 505.898 653.2 512.031C656 518.298 661.867 524.031 663.867 522.698C666.267 521.231 665.467 517.365 661.2 509.231C658.933 504.831 656.267 499.231 655.333 496.698L653.6 492.031L652.133 495.765Z" fill="#30352B"></path><path d="M307.6 502.298C306.533 505.498 308.133 534.698 309.6 538.431C310.933 542.031 315.467 545.631 316.933 544.298C317.2 543.898 316.8 542.165 315.867 540.565C314.933 538.831 314 530.298 313.6 521.365C313.067 506.031 312 500.698 309.333 500.698C308.8 500.698 308 501.498 307.6 502.298Z" fill="#30352B"></path><path d="M102.667 509.765C102.667 515.632 116.934 547.632 133.067 577.499C151.2 611.365 163.734 637.099 168.8 650.832C172.934 662.299 182.934 698.165 182.134 698.965C182 699.099 174.934 694.432 166.534 688.432C137.334 667.499 124.534 651.499 112.134 620.699C102.134 596.032 100.667 594.699 104.8 615.099C114.267 661.365 133.2 686.565 175.334 708.565C182.667 712.432 189.6 716.299 190.667 717.099C191.867 718.032 196.267 724.699 200.667 732.032C220.4 765.499 240.8 788.965 256.934 797.232C259.334 798.432 264.4 799.365 268.534 799.365C277.2 799.365 282.934 795.499 286.8 786.699C290.267 779.232 290.267 761.765 286.8 751.899C282.934 741.232 272.4 727.899 269.734 730.565C269.2 730.965 271.2 737.499 274.134 745.099C278.267 756.032 279.334 760.432 279.334 767.365C279.2 776.965 276.134 785.232 271.467 787.632C266.667 790.165 258 789.232 250.534 785.232C241.734 780.299 234.934 772.565 227.867 758.965C224.8 752.965 219.6 744.032 216.267 738.965C206 723.099 197.734 703.499 186.534 669.499C169.334 616.565 163.467 604.299 135.734 561.632C127.6 549.232 116.934 532.299 111.867 523.765C106.8 515.232 102.667 508.832 102.667 509.765Z" fill="#30352B"></path><path d="M270.933 532.699C266.267 535.499 261.333 542.565 261.333 546.299C261.333 549.899 262.533 549.232 269.867 541.632C273.6 537.765 278.133 533.499 280 532.299L283.333 530.165H279.333C277.2 530.032 273.333 531.232 270.933 532.699Z" fill="#30352B"></path><path d="M452.667 545.498C444.133 549.898 429.067 564.832 431.067 566.832C433.6 569.498 449.467 557.632 454.8 549.232C458.267 543.632 457.733 542.832 452.667 545.498Z" fill="#30352B"></path><path d="M213.333 552.166C213.333 552.566 220.4 560.299 229.067 569.099C244.133 584.566 250.933 593.366 259.333 607.899C263.2 614.699 285.333 663.232 285.333 664.966C285.333 665.499 282 672.032 278 679.366C269.333 694.832 267.6 702.699 271.333 710.432C272.667 713.232 275.333 716.032 278.133 717.366C284.533 720.432 291.067 718.299 300.133 710.166C305.467 705.366 308 703.899 309.467 704.832C314.133 707.766 314.267 705.499 309.867 696.966C307.333 692.032 301.067 677.766 295.867 665.366C284.133 637.232 267.467 602.966 259.733 591.099C256.533 586.032 250 578.032 245.333 573.232C234 561.632 213.333 548.032 213.333 552.166ZM295.733 685.499C299.6 693.366 302.667 699.766 302.4 700.032C298.667 702.966 288.933 707.366 286.267 707.366C281.2 707.366 278.133 702.166 279.2 695.366C280.133 689.232 286.533 671.366 287.867 671.366C288.267 671.366 291.867 677.766 295.733 685.499Z" fill="#30352B"></path><path d="M176.133 573.499C172.133 576.832 170.8 579.365 173.2 579.365C173.867 579.365 177.867 577.232 182.133 574.699L189.867 570.032H185.067C181.733 570.032 178.8 571.099 176.133 573.499Z" fill="#30352B"></path><path d="M226.667 596.031C226.667 609.765 257.333 708.031 264.133 716.298C266.933 719.498 268 718.031 268 711.365C268 694.431 258.933 665.098 242.933 630.031C237.2 617.231 231.333 603.898 230 600.298C227.467 593.765 226.667 592.698 226.667 596.031Z" fill="#30352B"></path><path d="M500 604.432C500 605.898 509.467 614.832 513.067 616.698C520.8 620.565 516.933 614.032 507.467 607.232C502.133 603.365 500 602.565 500 604.432Z" fill="#30352B"></path><path d="M575.6 614.965C574.133 616.432 574.533 617.632 578 621.898C581.733 626.298 592.8 631.098 594.667 629.232C596.667 627.232 583.6 614.032 579.733 614.032C577.867 614.032 576 614.432 575.6 614.965Z" fill="#30352B"></path><path d="M444.533 629.765C442 631.498 432.4 645.231 428.933 652.031C427.067 655.631 422.533 666.165 418.667 675.365C414.8 684.431 409.6 696.165 407.067 701.231L402.4 710.565L400.533 705.231C398.533 699.365 391.067 692.165 384.4 689.765C381.2 688.565 379.6 687.098 378.933 684.165C377.333 678.298 375.2 678.565 374.133 684.698C373.733 687.765 371.733 695.365 370 701.631C365.867 715.631 365.867 721.231 369.733 728.031C376.4 739.898 390.133 743.231 399.333 735.098C405.467 729.765 407.733 725.231 414.667 704.298C420.267 687.631 422.4 682.831 439.733 649.765C448.8 632.431 450.4 625.631 444.533 629.765ZM392.933 706.431L398.8 715.498L395.867 720.165C394.267 722.698 391.467 725.765 389.733 726.965C386.4 729.231 386.267 729.098 382.533 724.965C378.8 720.831 378.667 720.165 378.667 706.965C378.667 699.365 379.067 692.698 379.6 692.298C381.067 690.831 386.667 696.698 392.933 706.431Z" fill="#30352B"></path><path d="M325.067 640.565C316.8 643.898 311.067 648.032 308.667 652.698C305.733 658.432 306.133 659.365 310.8 658.032C316.8 656.298 338.667 642.032 338.667 639.898C338.667 637.365 332.8 637.632 325.067 640.565Z" fill="#30352B"></path><path d="M334.8 668.565C325.333 672.565 323.333 674.832 328.4 676.165C332.933 677.232 340.266 673.499 343.2 668.699C345.866 663.899 345.733 663.899 334.8 668.565Z" fill="#30352B"></path><path d="M530.266 694.965C510.8 728.165 504 744.432 503.866 757.365C503.733 773.232 511.333 780.565 523.866 776.298C534.8 772.432 551.333 754.832 566 731.232C579.466 709.498 588.4 688.432 585.333 685.498C583.2 683.498 578.133 689.632 570 704.298C558.933 724.032 543.466 746.298 536.133 753.098C528.933 759.898 519.466 764.965 516.4 763.765C512.8 762.298 515.733 742.298 520.266 737.765C522.666 735.365 524.4 735.098 534.4 735.498C544.533 736.032 546 735.765 546.4 733.632C546.666 732.432 545.066 729.498 542.666 727.232C539.066 723.632 537.866 723.098 533.733 723.765C531.066 724.298 527.6 725.898 525.866 727.498C524.133 729.098 522.4 730.298 522.133 729.898C521.866 729.632 526 719.765 531.333 708.032C546.933 673.632 546.4 667.498 530.266 694.965Z" fill="#30352B"></path><path d="M216.267 682.166C210.667 684.966 206.267 690.032 209.467 690.032C211.333 690.032 225.067 682.299 226 680.566C227.467 678.432 222.267 679.232 216.267 682.166Z" fill="#30352B"></path><path d="M548 689.631C548 692.298 553.467 696.565 557.867 697.365C560.933 698.031 563.733 697.498 566.8 695.898L571.333 693.498L563.333 691.765C558.933 690.831 553.733 689.631 551.733 689.231C549.6 688.698 548 688.965 548 689.631Z" fill="#30352B"></path><path d="M240 698.832C237.467 700.032 230.267 702.299 224 703.899C216.267 705.899 212.667 707.365 212.667 708.699C212.667 711.232 220 712.032 225.733 710.165L230 708.699L226 712.032C220.4 716.699 224.267 716.299 234.4 711.232C241.867 707.499 249.333 700.832 249.333 697.899C249.333 696.165 245.333 696.565 240 698.832Z" fill="#30352B"></path><path d="M319.467 712.565C318.133 714.565 327.2 726.298 332 728.832C339.333 732.832 346.933 732.165 352.533 727.232C357.2 723.098 360.933 714.432 358.933 712.432C358.267 711.765 354.267 713.365 350 716.032C345.733 718.565 340.667 720.698 338.667 720.698C336.8 720.698 332.133 718.565 328.4 716.032C320.8 710.965 320.533 710.832 319.467 712.565Z" fill="#30352B"></path><path d="M461.6 716.298C462.134 719.765 470.934 723.631 475.334 722.565C479.6 721.498 479.2 721.098 469.734 717.231C460.534 713.365 461.067 713.498 461.6 716.298Z" fill="#30352B"></path><path d="M448.4 718.298C443.733 723.365 431.333 745.232 424.933 759.765C415.067 782.432 414 793.099 421.333 800.032C426.8 805.365 434.667 806.032 441.067 801.765C445.733 798.565 452.133 790.032 449.733 790.032C449.2 790.032 445.867 790.965 442.4 792.032C433.333 794.699 428 792.832 428 786.699C428 778.565 439.467 747.365 442.4 747.365C445.2 747.365 447.067 755.632 446.267 765.099C444.8 782.832 449.067 790.432 454.133 779.099C457.333 772.032 457.333 759.099 454.267 753.098C453.067 750.832 450.133 747.498 447.867 745.632L443.733 742.432L448 730.165C452.667 716.565 452.667 713.632 448.4 718.298Z" fill="#30352B"></path></svg> 