<?xml version="1.0" encoding="UTF-8"?> <svg xmlns="http://www.w3.org/2000/svg" width="637" height="660" viewBox="0 0 637 660" fill="none"><path d="M469.581 113.053C467.318 113.074 464.814 113.67 462.946 114.62C461.297 115.492 459.863 116.199 459.733 116.263C459.556 116.289 458.758 115.285 457.856 113.937C455.537 110.644 451.178 108.417 442.247 106.193C436.009 104.648 433.883 103.751 429.773 101.128C422.011 96.1723 414.422 94.1989 409.475 95.7847C408.205 96.1972 404.608 97.1791 401.536 97.9933C391.219 100.644 391.434 100.478 380.472 113.774L370.989 125.369L372.943 121.309C374 119.087 375.559 116.163 376.387 114.783C377.801 112.598 377.832 112.279 376.6 111.519L375.276 110.683L370.473 116.602C367.817 119.823 364.165 124.629 362.325 127.236C360.152 130.342 358.845 131.927 358.569 131.699C358.292 131.47 358.851 129.008 359.751 126.226C360.692 123.393 361.217 121.16 360.994 121.149C360.729 121.188 360.044 122.771 359.412 124.57C358.554 127.301 357.596 128.745 354.258 132.607C351.176 136.251 350.133 137.797 349.885 139.225C349.751 140.233 348.675 143.041 347.584 145.492C346.492 147.943 345.68 150.712 345.765 151.642C345.997 153.898 345.272 154.589 344.366 153.151C343.894 152.503 341.967 150.05 340.001 147.738C336.819 143.989 336.129 143.418 333.051 142.078C331.198 141.32 328.8 140.284 327.757 139.765C323.908 138.045 317.296 140.147 313.966 144.187C312.448 146.028 312.049 147.075 312.02 149.459C311.89 155.628 316.344 163.094 320.544 163.729C321.35 163.879 323.307 164.981 324.873 166.275C327.221 168.217 327.89 169.285 329.208 173.04C331.041 178.425 333.966 182.391 340.725 188.752C345.633 193.412 345.818 193.565 349.397 194.202C351.411 194.577 355.554 194.906 358.573 194.907C368.783 194.921 369.739 195.453 375.164 203.807L378.589 209.046L381.14 209.521C385.436 210.321 385.163 209.15 380.109 205.23C377.63 203.352 374.487 200.496 373.132 198.946C370.042 195.273 366.082 193.032 360.066 191.499C350.276 188.909 348.419 188.062 344.707 184.391C338.217 178.08 336.052 175.258 334.55 171.351C332.145 165.063 331.577 164.249 325.747 158.828C319.963 153.445 318.957 151.753 319.603 148.245C319.847 146.728 320.2 146.675 322.518 147.903C329.248 151.575 330.952 152.984 334.361 157.866C336.918 161.528 338.596 163.344 341.163 165.208C343.408 166.806 345.077 168.444 346.037 170.098C347.911 173.367 352.72 177.772 357.183 180.343C359.915 181.914 361.204 182.98 362.345 184.697C364.821 188.55 369.275 188.878 372.1 185.451L373.364 183.917L365.72 177.597L358.029 171.24L358.795 169.465C359.27 168.138 358.981 166.609 357.59 163.224C355.804 158.909 355.789 158.552 356.919 150.888L358.127 142.942L363.784 135.236C366.884 131.005 369.617 127.503 369.84 127.515C370.058 127.438 370.634 128.43 371.13 129.613C371.625 130.797 373.23 132.983 374.673 134.52L377.325 137.315L376.338 141.142L375.397 145.008L371.746 146.806C369.748 147.82 367.179 148.964 366.04 149.312C363.854 150.085 362.263 152.296 362.943 153.632C363.139 154.052 364.183 154.57 365.261 154.86C366.696 155.186 368.579 154.593 373.579 152.191C381.187 148.505 386.956 147.426 393.216 148.474C397.87 149.311 399.88 150.629 402.81 154.684C404.556 157.074 404.534 158.604 402.885 158.444C399.989 158.2 390.772 165.715 384.022 173.809C380.354 178.258 377.239 184.196 376.355 188.367C375.556 192.436 377.719 198.266 381.127 201.083C382.601 202.302 383.783 203.967 384.536 205.966C387.452 213.794 387.356 213.629 389.255 213.392C392.837 213.086 392.874 210.881 389.278 207.822C388.403 207.099 387.301 205.242 386.794 203.79C386.026 201.435 386.09 200.887 387.367 199.62C388.555 198.367 388.662 197.767 388.132 195.781C387.721 194.495 387.129 193.146 386.761 192.841C385.425 191.737 384.834 185.315 385.722 182.266C388.195 173.819 393.742 167.655 401.002 165.143C403.276 164.357 407.114 162.801 409.507 161.683C415.861 158.766 416.479 158.675 421.033 160.29C426.711 162.232 431.522 162.597 438 161.502C441.394 160.955 443.88 160.946 444.478 161.44C446.919 163.458 447.406 168.504 445.976 176.437C445.517 179.154 445.327 181.921 445.538 182.697C445.75 183.474 445.663 185.552 445.254 187.364L444.596 190.604L441.589 191.902C436.669 194.112 430.117 198.585 426.724 202.23C424.984 204.059 422.933 205.889 422.15 206.274C420.329 207.262 418.712 209.881 419.127 211.256C419.508 212.861 423.835 214.375 426.931 214.096C429.627 213.831 433.496 211.956 438.278 208.599C441.077 206.613 441.966 205.628 442.989 203.636C444.498 200.584 450.26 194.254 454.209 191.155C456.528 189.375 457.314 189.078 458.492 189.622C460.484 190.494 461.136 190.173 464.34 186.287C467.587 182.349 470.633 176.87 473.521 169.798C475.842 163.977 476.144 163.798 483.85 162.342L488.694 161.445L488.595 163.255C488.561 164.517 487.665 166.356 485.576 169.359C483.901 171.672 481.671 175.504 480.534 177.917C476.147 187.276 469.902 192.691 454.782 200.228C451.262 201.962 448.447 203.591 448.459 203.858C448.428 204.177 449.115 204.659 449.887 205.038C451.698 205.848 457.354 204.246 464.579 200.931C471.018 197.913 474.073 195.709 479.758 189.659C483.365 185.848 484.201 184.647 484.698 182.822C485.119 181.278 486.407 179.247 488.979 176.127C494.713 169.172 495.322 167.87 495.231 162.721C495.209 159.177 495.466 157.927 496.57 156.776C498.011 155.216 498.995 152.332 498.258 151.722C498.028 151.532 498.042 149.824 498.313 147.898C498.585 145.973 498.415 144.112 498 143.77C497.586 143.427 495.453 143.384 493.294 143.749C491.134 144.113 489.094 144.146 488.725 143.842C487.344 142.7 486.41 145.711 486.589 150.847C486.675 153.842 486.654 156.405 486.57 156.507C486.443 156.66 484.729 157.049 482.704 157.439C480.679 157.828 478.838 158.37 478.585 158.677C477.151 160.416 475.059 152.151 475.574 146.643C476.332 138.585 476.177 136.049 474.591 132.243C472.709 127.764 472.565 125.495 473.893 119.283C474.478 116.413 474.569 114.424 474.058 113.916C473.594 113.446 471.58 113.071 469.581 113.053ZM467.186 123.284C467.165 125.846 467.754 129.171 468.968 132.583C470.635 137.229 470.736 138.516 470.129 143.948C469.374 150.031 469.458 150.961 470.874 157.979L471.567 161.647L467.998 165.319C464.475 169.028 460.329 175.748 459.456 179.154C459.189 180.136 458.89 180.405 458.168 180.153C456.73 179.738 455.568 181.616 456.099 183.602C456.637 185.767 455.76 187.019 453.213 187.666L451.28 188.132L451.067 184.258C450.966 181.938 451.336 179.235 452.026 177.741C453.719 173.809 454.141 168.224 453.076 164.162C452.184 161.017 452.249 160.469 453.449 159.483C459.07 155.014 459.878 153.188 458.126 148.644C456.666 144.686 453.593 143.435 443.926 142.667C441.655 142.51 438.721 142.406 437.482 142.5C436.239 142.504 434.992 142.419 434.762 142.229C434.071 141.658 435.566 140.314 437.154 140.079C438.566 139.87 438.516 139.743 436.846 138.104C434.808 136.162 435.118 135.128 437.815 134.863C439.495 134.704 440.424 135.644 442.325 139.537C442.766 140.505 444.959 137.845 446.418 134.666C447.307 132.649 447.859 132.073 449.688 131.264C452.817 129.723 457.687 126.353 462.571 122.307C464.929 120.386 466.907 118.926 467.045 119.04C467.184 119.155 467.265 121.028 467.186 123.284ZM454.556 118.691C454.844 119.187 454.576 120.169 454.028 120.834C452.468 122.726 442.988 127.273 437.159 128.99L431.943 130.525L429.425 127.756C425.276 123.208 422.26 121.231 418.32 120.467C414.288 119.628 408.474 120.669 407.04 122.408C406.492 123.073 405.046 123.511 403.45 123.568C401.985 123.561 399.182 124.425 397.142 125.49C393.928 127.134 393.372 127.62 392.484 129.637C391.875 130.94 390.165 133.482 388.647 135.323C385.949 138.596 385.398 140.204 386.365 142.036C386.607 142.494 385.254 143.009 382.653 143.439C380.36 143.779 378.407 143.799 378.299 143.366C378.15 142.984 378.735 141.146 379.498 139.283C380.264 137.508 380.891 134.587 380.947 132.828C380.968 129.233 380.888 129.425 396.23 108.656C398.622 105.473 401.509 104.507 410.585 103.926C418.551 103.374 420.443 103.992 428.958 109.913C434.495 113.717 438.278 114.952 446.069 115.459C451.278 115.809 453.492 116.694 454.556 118.691ZM452.995 150.078C453.706 153.16 450.861 155.108 447.608 153.794C446.384 153.212 443.656 152.763 441.611 152.707C437.967 152.618 435.696 151.428 435.123 149.493C434.646 147.723 438.934 146.28 443.303 146.71C452.399 147.607 452.487 147.594 452.995 150.078ZM422.657 130.33C423.087 132.062 421.7 133.839 419.801 134.075C418.697 134.194 417.718 134.159 417.534 134.007C417.35 133.855 416.077 134.178 414.723 134.693C413.369 135.208 412.004 135.455 411.681 135.188C411.037 134.655 409.367 125.879 409.769 124.922C410.006 124.258 416.275 125.484 418.278 126.624C420.553 127.903 422.487 129.502 422.657 130.33ZM431.543 141.718C430.877 143.747 430.835 143.798 428.521 142.66C426.887 141.824 426.833 141.608 427.718 140.534C429.742 138.079 432.397 138.898 431.543 141.718ZM422.383 141.369C421.92 141.932 421.229 142.393 420.827 142.318C419.4 142.17 419.063 143.612 419.954 145.725C420.949 148.181 420.708 148.756 418.679 149.056C417.091 149.291 413.879 146.894 413.817 145.467C413.785 144.753 413.371 144.41 412.343 144.248C410.467 143.988 408.654 146.187 408.675 148.697C408.653 150.227 409.079 150.837 410.675 151.813C411.815 152.497 412.92 153.411 413.166 153.958C413.646 154.785 413.431 154.951 411.418 155.609L409.186 156.343L408.221 153.568C407.414 151.353 406.478 150.235 403.208 147.532C400.951 145.667 399.282 144.028 399.408 143.875C399.577 143.67 400.559 143.794 401.591 144.045C403.432 144.536 403.563 144.472 405.226 141.891C407.012 139.067 410.639 136.734 411.618 137.801C412.643 138.907 413.364 139.159 413.912 138.494C414.717 137.612 420.425 138.203 421.941 139.37C422.862 140.131 422.974 140.653 422.383 141.369ZM430.024 153.705L430.332 155.68L427.996 155.038C426.649 154.699 425.387 154.258 425.157 154.067C424.466 153.496 426.209 150.724 427.601 150.069C429.082 149.4 429.37 149.897 430.024 153.705ZM404.761 134.283C404.52 134.857 403.435 135.422 402.115 135.708C399.254 136.266 390.791 140.707 390.615 141.766C390.547 142.225 390.244 142.404 389.921 142.138C389.553 141.833 390.009 141.092 391.504 139.749C392.658 138.725 395.085 136.345 396.825 134.516C398.607 132.636 400.49 131.01 401.015 130.842C402.465 130.493 405.194 133.007 404.761 134.283Z" fill="#FBF8EF"></path><path d="M445.903 139.057C445.691 139.313 445.584 139.913 445.688 140.257C445.838 140.639 446.065 140.741 446.318 140.433C446.529 140.178 446.683 139.616 446.533 139.234C446.429 138.889 446.156 138.75 445.903 139.057Z" fill="#FBF8EF"></path><path d="M496.093 205.56C495.744 205.701 494.379 205.005 493.134 203.976C489.72 201.156 488.599 201.951 486.217 208.505C483.92 214.956 481.068 219.917 478.161 222.594C470.554 229.652 469.026 231.317 466.324 235.626C463.077 240.691 462.894 242.605 465.481 244.828C466.911 246.01 467.041 245.945 468.562 244.103C469.36 243.041 470.73 240.816 471.59 239.116C473.796 234.655 478.48 228.883 482.612 225.755C486.053 223.089 489.601 218.789 490.463 216.145C491.173 214.062 492.142 215.896 492.256 219.519C492.362 222.964 492.281 223.155 488.312 229.001C484.389 234.884 483.579 236.711 483.255 240.489C483.095 242.94 482.082 244.168 481.278 243.074C480.947 242.628 481.07 241.352 481.511 240.253C481.994 239.103 482.358 237.252 482.311 236.18C482.195 234.535 481.91 234.127 480.512 233.661C479.609 233.345 478.056 233.44 477.054 233.903C475.352 234.649 475.272 234.841 474.871 238.899C473.553 251.497 472.813 253.899 467.957 260.819C463.519 267.138 460.789 269.789 457.044 271.602C455.911 272.129 452.832 274.922 449.725 278.123C446.792 281.208 444.058 283.77 443.528 283.848C441.319 284.176 440.246 276.92 441.78 272.334C443.084 268.591 441.378 268.214 437.83 271.48C432.869 275.99 430.982 287.773 434.718 290.86C435.41 291.431 435.299 291.942 433.948 293.58C432.047 295.884 428.852 298.064 428.206 297.531C427.976 297.34 426.691 295.418 425.357 293.369C423.061 289.665 422.114 286.3 423.043 285.174C423.761 284.303 425.497 277.216 425.082 276.873C424.436 276.339 425.849 275.097 428.638 273.785C430.815 272.744 431.672 271.988 433.422 269.302C435.426 266.309 435.898 265.925 439.954 264.111C442.309 263.043 445.474 261.182 446.891 260.028C448.35 258.824 449.767 257.67 450.112 257.439C450.546 257.195 451.557 257.944 453.141 259.597C454.495 261.059 455.928 262.33 456.378 262.443C457.777 262.91 460.744 258.561 460.888 255.754C460.918 253.368 460.618 252.603 457.333 247.652C455.811 245.361 455.967 243.855 457.582 245.189C460.119 247.285 459.746 241.813 457.027 236.553C455.861 234.299 454.969 232.184 454.995 231.776C455.068 231.406 452.838 229.219 450.071 226.933C445.643 223.275 444.228 222.45 439.213 220.631C432.845 218.384 427.547 217.191 419.328 216.341L413.968 215.786L412.025 218.141C410.632 219.83 409.552 220.574 408.315 220.757C405.442 221.138 399.966 219.971 398.306 218.599C396.368 216.999 393.191 216.525 391.193 217.63C390.279 218.08 389.346 218.083 388.654 217.512C388.054 217.016 387.239 216.687 386.84 216.702C386.352 216.729 384.865 216.275 383.416 215.681C377.893 213.443 367.635 212.714 357.685 213.963C354.588 214.331 351.61 214.368 351.065 214.089C350.292 213.709 349.071 214.25 346.571 216.058C344.72 217.455 343.222 218.8 343.234 219.068C343.246 219.336 343.811 220.061 344.549 220.671C345.748 221.662 345.756 221.84 344.423 222.891C343.563 223.558 342.008 224.597 340.925 225.252C336.416 227.897 326.326 239.187 327.525 240.178C327.756 240.368 329.154 240.835 330.726 241.187C333.289 241.841 333.992 241.647 338.643 239.206C341.424 237.715 346.099 235.81 348.995 234.932C351.895 234.143 355.929 232.827 357.899 232.131C359.866 231.345 362.993 230.658 364.856 230.561C366.72 230.465 369.689 230.25 371.418 230.129C373.193 230.046 376.097 229.347 377.887 228.587C380.899 227.288 389.004 225.548 389.604 226.044C389.789 226.196 387.942 228.716 385.493 231.685C381.945 235.985 381.028 237.379 381.078 238.54C381.091 239.842 381.275 239.994 383.012 240.052C384.038 240.124 385.528 239.634 386.346 239.019C389.05 236.776 389.656 236.417 390.118 236.798C390.348 236.988 390.122 237.92 389.627 238.803C389.009 239.928 388.968 241.012 389.595 242.133C390.083 243.139 390.146 244.568 389.704 245.667C388.101 249.679 388.682 251.794 391.271 251.007C392.501 250.645 392.593 250.721 392.743 252.137C392.825 252.979 393.409 254.15 394.101 254.722C395.116 255.56 395.04 256.875 393.504 264.472C391.826 272.899 391.783 276.995 393.331 282.922C394.286 286.465 395.187 283.681 394.658 278.681C393.962 271.909 394.917 269.341 400.887 261.447C406.188 254.55 407.141 253.96 406.555 257.866C406.215 260.253 402.273 272.835 399.339 280.999C397.033 287.272 396.532 290.042 396.628 296.319C396.68 299.547 396.289 301.807 395.265 303.801C394.532 305.347 393.672 307.048 393.342 307.636C392.732 308.939 393.605 310.607 394.742 310.17C396.229 309.59 394.517 313.169 391.603 316.701C389.492 319.26 388.958 320.283 389.101 321.52C389.43 324.976 390.202 324.323 399.834 312.741C407.778 303.207 409.179 301.696 410.931 301.077C413.074 300.266 413.462 299.983 412.862 299.488C412.032 298.802 408.061 300.513 404.961 302.86C401.647 305.373 399.227 305.955 399.019 304.234C398.949 303.66 399.095 302.919 399.432 302.51C399.728 302.152 400.015 299.548 400.117 296.791C400.182 291.165 401.42 285.903 404.88 276.538C409.491 263.992 410.993 258.692 411.298 253.434C411.431 251.392 411.993 247.984 412.522 245.838C413.09 243.552 413.234 240.745 412.895 239.088C412.005 234.995 412.712 229.813 414.417 228.122C415.654 226.906 416.142 226.878 420.296 228.33C424.538 229.769 425.407 230.315 432.518 236.362C436.766 239.957 440.849 243.847 441.656 245.03C442.418 246.176 443.548 247.626 444.152 248.211C445.086 249.241 444.975 249.752 443.324 252.692C442.338 254.546 441.448 256.565 441.475 257.19C441.361 258.645 440.143 259.275 434.216 261.006C431.977 261.652 429.403 262.797 428.547 263.553C427.26 264.642 426.511 264.798 425.059 264.114C423.11 263.279 422.588 263.536 422.055 265.592C420.924 270.254 419.893 273.103 418.561 275.187C417.774 276.517 416.98 278.702 416.858 279.978C416.74 281.344 416.318 282.889 415.946 283.528C415.535 284.308 415.72 285.494 416.532 286.767C417.205 287.925 417.832 290.079 417.852 291.559C417.969 293.205 418.473 294.568 419.257 295.216C420.498 296.156 424.336 301.564 425.786 304.225C426.417 305.435 426.294 305.678 423.188 308.879C420.335 311.773 420.001 312.272 420.693 312.843C421.754 313.72 421.193 314.117 416.649 315.959C412.194 317.787 404.424 322.127 402.02 324.101C401.121 324.908 400.288 326.2 400.016 327.094C399.644 328.767 397.617 330.19 389.098 334.687C387.623 335.535 386.236 336.369 386.025 336.625C385.603 337.137 380.759 339.247 380.529 339.056C380.437 338.98 380.796 337.04 381.275 334.767C382.199 330.451 381.557 330.007 379.542 333.765C377.976 336.603 376.022 338.69 371.517 342.458C368.641 344.816 367.328 346.313 365.374 349.434C361.505 355.534 357.397 360.231 353.342 363.078C351.314 364.502 349.125 366.309 348.407 367.179C347.221 368.523 347.132 368.536 347.255 367.26C347.312 366.533 348.164 364.654 349.077 363.171C350.908 360.293 352.015 355.096 350.954 354.22C350.17 353.572 348.116 356.437 343.077 365.272C339.565 371.409 339.608 371.358 328.545 381.759C319.444 390.251 310.562 396.599 307.5 396.738C306.301 396.781 305.441 397.447 304.005 399.188C301.897 401.836 296.928 405.134 285.424 411.555C271.617 419.171 262.084 423.863 261.699 423.201C261.026 422.042 265.056 415.559 271.925 406.858C279.464 397.249 283.348 390.472 284.448 385.097C284.82 383.424 284.89 378.92 284.638 375.182C284.312 369.748 283.769 367.492 282.065 364.104C279.429 358.743 279.413 357.352 281.911 357.521C285.88 357.788 290.778 356.928 293.689 355.373C302.254 350.915 304.048 350.245 307.56 350.219C311.117 350.231 311.248 350.167 312.66 347.891C313.743 346.203 314.384 345.614 315.36 345.559C316.113 345.492 316.858 345.247 317.112 344.94C317.323 344.684 319.666 343.349 322.32 342.012C326.625 339.802 327.14 339.366 328.03 337.347C328.755 335.622 328.682 334.959 327.859 334.451C326.81 333.843 326.971 333.459 329.562 329.661C331.155 327.448 332.982 324.481 333.634 323.126C336.167 317.988 336.601 317.744 341.078 319.463C347.319 321.864 359.33 323.007 370.637 322.276C374.363 322.084 377.837 322.199 378.298 322.58C378.944 323.114 379.47 322.946 380.23 322.024C380.822 321.308 381.517 320.935 381.793 321.164C382.116 321.431 382.344 322.565 382.352 323.777C382.351 327.822 385.202 327.939 385.918 323.969C386.09 322.82 386.254 320.459 386.18 318.762C386.069 314.195 386.46 312.968 387.909 313.563C389.224 314.132 389.742 313.786 390.194 311.921C390.344 311.27 390.854 309.712 391.337 308.562C392.173 306.326 391.835 305.702 389.449 305.022C388.142 304.631 387.834 303.688 387.02 298.281C386.511 294.761 385.632 290.937 385.094 289.803C384.555 288.67 383.739 286.274 383.22 284.554C382.742 282.782 380.892 279.101 379.127 276.352C377.319 273.654 375.023 269.949 374.012 268.167C371.754 264.322 370.132 262.809 369.245 263.884C368.907 264.294 368.842 264.843 369.073 265.033C369.765 265.605 370.06 271.358 369.427 272.126C369.173 272.433 368.224 272.079 367.213 271.33C359.568 265.272 354.748 261.806 353.26 261.353C352.269 261.05 350.72 260.201 349.798 259.439C347.63 257.648 345.139 256.623 336.482 253.861C330.483 251.918 328.785 251.72 325.07 252.18C318.481 253.021 313.452 252.911 307.135 251.824C303.058 251.125 300.169 251.148 297.084 251.785C292.635 252.758 290.476 252.179 291.912 250.438C292.587 249.619 292.313 246.379 291.528 245.732C291.39 245.617 290.602 245.914 289.781 246.44C287.787 247.634 287.322 247.163 287.904 244.201C288.069 242.873 288.233 240.513 288.124 239.046C288.012 237.489 288.09 234.197 288.292 231.696C288.689 226.514 288.081 224.807 285.733 225.02C284.45 225.165 283.763 225.716 282.089 228.121C280.669 230.218 279.901 230.961 279.486 230.618C279.209 230.389 278.231 227.344 277.415 223.914C276.556 220.537 275.497 216.649 275.039 215.324C274.581 213.998 273.842 211.322 273.356 209.371C272.382 205.382 271.782 204.886 269.993 206.679C269.267 207.371 268.484 207.756 268.253 207.566C267.746 207.146 262.907 199.19 261.4 196.223C260.819 195.14 259.63 193.384 258.785 192.341C257.939 191.297 256.623 188.661 255.857 186.393C253.829 180.672 252.064 178.956 244.532 175.487C241.038 173.892 238.125 172.346 238.16 172.117C238.098 171.721 232.051 172.751 227.745 173.928C226.074 174.355 226.393 175.566 228.646 177.255C231.125 179.045 231.218 180.155 229.149 182.663C228.431 183.533 227.01 185.631 225.974 187.357C224.984 189.121 222.95 192.433 221.495 194.761C219.25 198.329 218.214 201.088 215.028 212.659C212.954 220.156 211.141 227.525 210.981 228.942C210.706 231.813 212.5 238.288 214.208 240.732C217.999 246.102 218.642 247.58 218.201 249.712C217.899 250.925 218.107 252.647 218.546 253.526C219.026 254.353 219.512 256.304 219.616 257.681C219.779 260.398 220.487 261.327 226.688 267.914C228.506 269.846 230.525 272.289 231.064 273.422C231.837 274.836 234.482 277.365 240.286 281.988C252.271 291.717 259.628 297.279 261.346 297.923C262.522 298.378 263.145 299.41 264.177 302.672C264.854 304.953 265.609 306.954 265.839 307.144C266.993 308.097 268.234 315.148 269.313 326.627C269.665 330.619 270.356 335.236 270.871 336.867C271.807 339.964 271.239 341.216 268.964 341.059C268.027 340.973 267.566 340.592 267.392 339.674C265.293 330.278 260.36 319.145 254.915 311.548C250.466 305.376 248.932 303.851 247.895 304.543C247.074 305.069 241.858 302.741 239.464 300.849C237.988 299.629 236.304 298.755 227.857 294.703C221.589 291.676 214.656 289.737 210.484 289.905C208.974 289.949 204.056 289.329 199.618 288.503C189.754 286.638 187.841 286.607 182.006 288.414C176.167 290.133 174.512 290.917 174.074 292.105C173.875 292.629 170.841 294.426 167.269 296.123C161.127 299.055 156.392 302.632 150.778 308.496C149.077 310.276 149.481 310.351 143.243 307.005C141.468 306.055 141.156 306.056 141.687 307.011C141.983 307.686 143.521 309.301 145.09 310.596L147.907 313.01L145.823 316.195C143.946 319.034 143.869 319.315 145.141 318.902C145.932 318.695 147.138 317.798 147.771 317.03C148.489 316.16 149.403 315.71 149.941 315.81C150.483 315.999 152.947 318.465 155.427 321.289C157.907 324.112 162.178 328.243 164.854 330.454C167.852 332.931 169.947 335.092 170.159 335.869C170.471 336.902 171.655 337.535 176.401 339.304C179.609 340.492 182.284 341.669 182.342 341.975C182.442 342.23 182.085 343.226 181.594 344.197C180.811 345.617 180.881 346.19 182.284 347.78C183.784 349.535 184.372 349.763 189.047 349.925C191.898 350.042 194.227 350.416 194.196 350.735C194.208 351.003 192.891 352.411 191.259 353.731C185.894 358.165 185.894 358.165 186.632 358.775C187.047 359.118 189.449 359.122 191.927 358.845C194.447 358.517 196.714 358.496 196.944 358.687C197.221 358.915 198.051 358.568 198.911 357.901C199.683 357.248 203.048 355.896 206.336 354.825C211.952 353.094 212.528 353.054 214.315 354.272C215.78 355.224 216.022 355.682 215.461 356.08C211.736 358.339 206.394 362.276 206.414 362.722C206.561 365.082 226.491 366.31 236.64 364.538C243.482 363.39 252.01 360.106 262.618 354.581C266.313 352.641 266.666 352.588 268.096 353.77C268.926 354.456 270.392 356.441 271.311 358.147C272.23 359.853 273.88 361.991 274.941 362.867C276.002 363.744 276.847 364.787 276.732 365.208C276.66 365.579 277.168 368.065 277.861 370.703C279.036 375.203 279.255 381.237 278.386 386.803C277.452 392.918 273.645 399.413 264.231 410.918C259.839 416.242 257.912 418.953 257.487 420.41C257.18 421.533 255.99 423.822 254.823 425.612C252.989 428.4 252.301 428.951 248.602 430.802C240.287 434.864 238.292 433.991 241.846 427.803C245.527 421.461 245.65 421.218 244.847 421.157C243.148 420.96 240.499 423.419 233.991 431.213C228.117 438.239 226.881 439.455 225.471 439.754C224.634 439.923 223.631 440.386 223.293 440.795C222.322 441.973 218.158 443.353 217.42 442.743C217.051 442.439 216.517 442.428 216.263 442.735C216.01 443.042 211.239 444.782 205.712 446.499C188.96 451.855 181.608 454.561 176.261 457.375C171.956 459.585 170.112 460.128 165.017 460.568C161.606 460.848 152.451 461.979 144.625 463.002C136.804 464.116 129.769 464.932 129.059 464.948C124.294 464.799 110.476 460.958 111.236 460.037C111.447 459.781 112.899 459.431 114.444 459.157L117.275 458.828L115.596 458.043C114.731 457.587 111.599 457.152 108.706 457.086C105.767 456.982 103.358 456.799 103.396 456.659C103.388 456.48 104.948 455.53 106.814 454.49C108.812 453.385 110.317 452.219 110.382 451.67C110.642 450.508 110.335 450.598 104.462 453.58C102.158 454.775 99.5344 455.793 98.6931 455.872C96.0345 456.086 81.1558 452.402 75.0493 450.026C68.082 447.282 62.1646 446.181 59.2182 446.932C57.3282 447.437 57.0709 447.654 57.2944 448.7C57.4562 449.35 57.23 450.282 56.85 450.743C55.7942 452.023 56.974 452.567 63.4294 453.768C66.6571 454.369 71.5142 455.627 74.1312 456.498C76.7521 457.458 81.617 458.895 84.9447 459.75C88.3147 460.554 93.7214 462.18 97.0147 463.266C100.354 464.389 104.766 465.623 106.871 465.986C109.023 466.386 113.565 467.556 116.989 468.577C120.413 469.598 124.501 470.565 126.019 470.7C127.583 470.873 134.494 470.299 141.352 469.509C148.21 468.718 154.998 468.387 156.389 468.675C158.587 469.114 159.644 469.901 163.123 473.206C167.675 477.655 170.173 478.858 171.482 477.271C172.116 476.503 171.77 475.7 169.797 473.296C168.478 471.604 166.752 469.748 165.968 469.1C163.846 467.347 164.353 466.733 168.287 466.195C170.234 465.997 175.547 464.446 180.099 462.784C184.651 461.121 192.683 458.719 197.919 457.449C206.678 455.388 214.456 452.26 219.375 448.835C220.021 448.335 221.83 448.022 223.348 448.157C224.819 448.254 231.058 447.555 237.109 446.614C243.248 445.66 250.067 445.01 252.296 445.13C254.524 445.249 257.594 445.289 259.1 445.156C262.558 444.914 265.067 445.351 267.527 446.694L269.529 447.746L268.051 449.538C267.206 450.561 266.631 451.635 266.692 452.031C266.842 452.413 268.568 453.236 270.555 453.93C272.541 454.625 275.228 456.069 276.52 457.137C279.103 459.271 279.064 459.411 274.94 462.718C263.596 471.767 260.371 475.3 255.885 483.559C253.789 487.509 251.467 491.358 250.788 492.088C249.774 493.316 249.801 493.941 251.044 496.948C252.079 499.266 252.314 500.579 251.75 500.888C250.405 501.671 250.97 507.474 252.492 508.732C253.23 509.341 254.222 510.677 254.757 511.722C255.938 514.333 257.979 515.244 260.337 514.266C261.428 513.79 262.438 513.505 262.623 513.658C262.807 513.81 262.428 516.338 261.888 519.249C261.26 522.173 260.894 527.035 261.023 529.982C261.299 535.289 264.072 545.843 265.455 546.986C266.332 547.71 269.316 545.786 271.681 542.919C272.863 541.486 273.854 540.755 274.396 540.944C274.846 541.057 275.734 543.083 276.277 545.339C278.796 555.167 279.139 555.88 281.332 555.196C282.561 554.834 282.746 554.987 283.723 558.033C287.373 569.311 292.031 578.238 293.867 577.517C295.046 577.027 304.416 563.507 305.955 560.044C307.286 556.926 307.586 556.657 309.759 555.526C311.411 554.652 312.736 553.423 314.16 551.414C316.337 548.306 316.524 547.514 318.394 533.307C318.995 528.724 320.312 521.205 321.312 516.608C322.94 509.087 322.904 506.216 321.288 508.927C320.294 510.602 319.663 509.392 320.315 507.004C321.457 502.611 320.464 493.096 318.301 487.35C317.147 484.33 315.907 480.38 315.514 478.505C314.354 473.33 313.477 471.572 309.994 467.145C306.937 463.328 306.337 462.833 301.879 460.527C296.372 457.613 293.125 456.566 289.655 456.54C288.364 456.506 286.793 456.155 286.285 455.736C285.778 455.316 284.89 455.358 284.199 455.82C283.162 456.513 282.801 456.386 280.744 454.084C277.945 451.084 277.895 450.956 279.82 451.255C280.715 451.392 287.438 450.577 294.772 449.491C304.004 448.079 310.074 447.585 314.224 447.915C318.327 448.206 321.428 447.926 324.059 447.088C329.978 445.178 329.844 445.153 332.805 449.837C334.236 452.052 336.047 454.839 336.808 455.985C337.57 457.13 339.054 459.562 340.066 461.345C341.612 464.171 343.008 465.582 348.958 470.498C356.754 476.939 361.22 479.423 366.956 480.461C371.079 481.199 384.964 479.413 390.656 477.402C392.892 476.666 397.383 475.642 400.652 475.158C404.144 474.686 407.175 473.833 408.031 473.077C409.832 471.552 410.881 471.127 419.247 468.226C425.819 465.995 426.165 465.764 427.704 463.334C428.533 461.953 429.427 460.023 429.519 459.066C429.73 457.776 431.069 455.87 435.085 451.097C437.957 447.616 441.07 443.56 442.022 441.936L443.672 438.995L447.307 438.727C451.736 438.341 452.508 437.687 450.056 436.522C449.057 436.041 447.693 435.344 446.966 435.003C445.967 434.521 445.902 434.037 446.542 432.414C447.624 429.693 446.456 429.416 443.937 431.811C441.503 434.104 440.488 434.299 432.631 433.575C426.875 433.124 426.468 432.96 423.377 430.406C419.18 426.938 414.983 425.538 404.063 423.919C394.619 422.486 394.169 422.373 392.927 420.4C392.354 419.496 391.035 418.837 388.968 418.334C385.733 417.555 385.221 417.047 386.446 415.562C387.629 414.129 386.118 413.139 382.599 412.986C378.499 412.784 366.906 416.118 358.97 419.72C354.131 421.919 353.074 422.166 352.943 421.196C352.87 420.533 353.238 419.805 353.803 419.496C355.147 418.713 364.316 409.761 364.466 409.11C364.585 408.778 363.724 408.411 362.648 408.211C358.483 407.524 358.318 407.818 369.029 395.492L378.724 384.306L377.405 382.614C376.655 381.736 375.36 380.58 374.453 380.175C373.269 379.541 372.884 378.879 372.872 377.578C372.909 375.37 371.245 373.909 368.248 373.499C365.158 373.013 355.891 372.587 351.046 372.631C348.779 372.652 346.95 372.518 346.943 372.339C346.938 371.217 353.09 366.486 357.438 364.225L362.481 361.591L366.85 355.731C369.287 352.494 371.925 348.734 372.8 347.391C374.208 345.025 374.381 344.91 375.047 345.89C376.185 347.519 377.287 347.31 379.987 344.978C381.788 343.454 383.355 342.682 385.476 342.368C389.498 341.818 390.083 342.99 387.422 346.214C384.639 349.682 379.431 359.755 378.074 364.315C377.495 366.333 378.794 366.545 385.651 365.755C391.621 365.006 394.849 365.606 395.107 367.455C395.223 368.067 394.683 370.978 394.009 373.864C392.284 381.22 393.077 384.113 396.692 383.398C398.721 383.008 399.87 383.871 401.709 387.284C403.151 389.767 403.289 389.881 405.526 390.179C406.955 390.327 408.983 389.937 410.593 389.114C412.329 388.138 413.961 387.852 415.176 388.166C419.045 389.211 424.851 395.901 426.175 400.783C426.449 401.956 427.76 403.469 430.07 405.464C433.257 408.183 433.642 408.845 436.427 415.622C439.675 423.814 441.04 425.544 443.421 424.068C445.63 422.708 449.507 417.82 450.078 415.623C450.389 414.589 451.356 412.289 452.304 410.575C454.652 406.318 455.131 404.045 455.354 396.912C455.428 393.531 455.714 389.894 456.021 388.77C456.239 387.659 456.325 383.512 456.065 379.596C455.673 372.644 455.75 372.363 457.547 370.749C459.302 369.186 459.378 368.905 458.731 366.304C458.354 364.787 457.569 363.106 456.877 362.535C456.231 362.001 454.959 360.347 454.051 358.909C450.751 353.6 448.379 351.21 444.144 348.916C441.957 347.712 439.989 346.431 439.797 346.1C439.604 345.769 440.502 343.928 441.712 342.086C443.009 340.232 444.003 338.557 444.038 338.327C444.03 338.148 443.276 337.181 442.388 336.189C441.127 334.803 439.855 334.183 436.984 333.619C432.765 332.716 432.192 331.812 434.965 330.143C437.389 328.616 437.899 327.058 436.377 325.8C435.5 325.076 432.607 325.01 425.653 325.635C420.382 326.101 414.454 326.799 412.43 327.278C410.402 327.669 408.803 327.725 408.918 327.304C409.056 326.385 418.742 320.098 421.243 319.323C422.249 318.949 425.521 317.521 428.483 316.094C433.361 313.754 438.766 312.28 439.734 313.08C439.919 313.233 440.357 313.078 440.652 312.719C441.328 311.9 446.1 311.194 446.131 311.908C446.142 312.176 444.994 313.38 443.535 314.584C438.432 318.89 439.329 322.128 445.445 321.671C447.308 321.575 448.953 321.557 449.091 321.671C449.23 321.785 448.903 322.463 448.312 323.179C446.919 324.869 447.837 325.541 451.291 325.21C454.48 324.917 455.172 325.489 454.051 327.318C453.095 328.852 453.606 329.361 456.73 329.617C458.248 329.752 460.377 330.65 462.303 331.983L465.42 334.128L465.826 338.337C466.397 343.285 468.14 346.532 472.838 351.274C478.324 356.753 481.449 366.221 480.744 375.538C480.191 382.226 480.6 384.457 482.653 386.669C483.725 387.814 484.786 388.69 484.963 388.664C485.14 388.638 486.257 387.753 487.459 386.767C488.657 385.691 491.495 383.473 493.78 381.831C498.696 378.318 501.936 374.108 503.67 368.998C504.962 364.987 505.722 364.066 508.945 362.51C512.82 360.633 514.667 358.113 514.392 354.873C514.283 353.406 514.002 352.055 513.818 351.903C513.587 351.712 513.64 349.862 513.992 347.743C514.569 343.658 514.179 326.549 513.396 322.891C513.123 321.718 511.577 318.891 509.969 316.702C505.147 310.136 503.894 308.929 501.935 308.859C499.752 308.778 497.542 307.038 496.269 304.351C495.73 303.217 494.307 301.181 493.05 299.884C491.835 298.536 489.724 296.018 488.309 294.16C485.291 290.203 480.809 287.361 476.883 287.044C475.5 286.934 474.374 286.607 474.362 286.339C474.308 286.122 476.332 284.609 478.794 282.941C483.199 279.953 489.444 277.365 495.306 276.183C501.034 274.975 502.823 272.149 500.3 268.343C499.493 267.16 498.681 265.887 498.447 265.607C498.254 265.276 499.321 263.231 500.868 260.979C507.398 251.654 509.489 246.581 509.285 240.904C509.161 238.047 508.384 237.578 505.899 238.71L503.852 239.687L504.285 237.376C504.541 236.125 504.886 234.86 505.055 234.655C505.266 234.399 505.845 232.381 506.37 230.147C507.271 226.329 507.24 225.614 505.821 224.701C505.503 224.523 504.237 222.014 503.044 219.135C501.851 216.256 500.197 212.996 499.39 211.812C498.628 210.667 497.974 208.921 497.977 207.977C497.984 206.089 497.23 205.122 496.093 205.56ZM500.498 228.05C500.888 229.835 501.331 232.87 501.375 234.886C501.461 237.884 501.151 238.918 499.523 241.361L497.558 244.214L499.523 247.473C500.581 249.293 501.492 250.821 501.496 250.91C501.638 251.114 499.443 254.809 497.182 258.02C494.756 261.525 494.756 261.525 493.902 260.303C493.425 259.565 491.93 257.899 490.669 256.513L488.335 253.982L490.066 251.884C491.333 250.348 491.736 249.389 491.428 248.446C491.113 247.325 491.646 246.302 494.468 242.694C497.117 239.201 497.899 237.782 497.883 236.391C497.92 234.184 495.791 232.252 494.27 233.062C493.532 233.485 493.935 232.527 495.609 230.122C496.945 228.127 498.23 226.004 498.468 225.34C498.97 223.603 499.54 224.417 500.498 228.05ZM485.302 251.735C484.142 252.671 483.859 253.297 484.163 254.151C484.517 255.132 484.305 255.388 482.531 256.504C480.188 257.84 475.607 260.855 474.485 261.65C473.971 262.086 473.698 261.946 473.67 261.321C473.596 259.624 479.789 252.776 482.874 251.106C486.173 249.269 487.702 249.672 485.302 251.735ZM490.689 264.104C490.712 264.64 490.229 265.79 489.553 266.609C487.695 268.861 487.546 270.546 489.049 272.391C489.757 273.319 490.284 274.185 490.157 274.339C490.072 274.441 487.587 275.573 484.618 276.821C481.691 278.019 478.135 280.073 476.679 281.367C475.178 282.623 473.112 284.187 471.983 284.804C468.426 286.858 463.127 291.777 460.832 295.217C458.87 298.159 458.271 298.697 455.563 299.817C452.855 300.937 451.61 300.941 444.705 299.627C440.314 298.839 436.59 298.087 436.321 298.037C435.603 297.874 438.14 294.892 441.696 291.804C444.738 289.152 448.263 287.416 457.102 284.131C462.176 282.211 464.626 280.276 459.721 281.99C451.75 284.788 447.717 286.104 447.625 286.028C447.44 285.876 452.993 280.65 455.911 278.24C457.501 276.971 459.878 275.406 461.096 274.777C462.402 274.134 464.775 272.479 466.446 271.019C468.588 269.174 470.063 268.326 471.439 268.257C473.878 268.121 477.493 266.372 482.454 262.897C484.567 261.371 486.556 260.088 486.817 259.959C487.516 259.676 490.457 262.88 490.689 264.104ZM499.71 271.127C499.484 272.059 498.704 272.534 496.419 273.142C494.794 273.607 493.292 273.83 493.061 273.639C492.6 273.258 495.301 267.915 496.173 267.516C497.356 267.116 499.963 269.786 499.71 271.127ZM452.738 234.043C452.944 237.742 450.438 242.472 448.251 242.301C447.537 242.227 438.149 232.922 435.188 229.271C433.639 227.389 432.305 226.373 429.63 225.196C427.724 224.31 425.595 223.412 425.003 223.095C423.189 222.285 427.323 222.257 430.87 223.035C442.363 225.558 452.459 230.714 452.738 234.043ZM457.471 252.845C457.629 253.405 457.472 253.878 457.207 253.917C456.853 253.97 456.422 253.27 456.203 252.313C455.814 250.529 456.944 250.946 457.471 252.845ZM407.397 233.341C408.136 236.017 408.7 239.754 408.739 241.68C408.837 244.946 408.638 245.47 405.832 249.435C401.686 255.307 398.668 258.495 397.884 257.847C397.561 257.58 397.526 256.776 397.764 256.112C398.128 255.294 397.816 254.262 396.832 253.104C395.659 251.705 395.436 250.66 395.788 248.541C396.175 246.192 395.967 245.503 394.629 244.398C393.291 243.293 393.137 242.821 393.805 241.824C394.262 241.082 394.476 239.882 394.311 239.143C394.145 238.403 394.352 237.025 394.801 236.104C395.461 234.928 395.422 234.035 394.622 233.03C392.976 230.982 394.766 229.189 398.969 228.702C400.828 228.516 403.041 228.279 403.882 228.199C404.724 228.119 405.569 228.129 405.754 228.281C405.98 228.383 406.704 230.702 407.397 233.341ZM490.611 300.021C492.525 302.119 494.321 304.549 494.629 305.492C494.987 306.563 497.513 309.424 501.084 312.805C506.555 317.927 507.078 318.703 508.721 322.729C510.017 325.952 510.391 328.413 510.306 332.56C510.215 335.584 510.161 340.446 510.159 343.457C510.153 346.379 509.958 349.059 509.747 349.315C509.536 349.571 509.395 351.434 509.439 353.45C509.529 357.57 508.908 358.606 505.42 360.201C502.501 361.577 500.382 363.958 498.939 367.587C497.416 371.407 493.734 375.682 490.216 377.596L487.263 379.201L487.037 374.022C486.523 364.302 484.026 358.021 477.648 350.427C474.975 347.273 472.68 344.602 472.542 344.487C472.357 344.335 472.075 341.95 471.908 339.144C471.699 336.389 471.083 333.469 470.471 332.706C469.152 331.014 469.367 329.814 470.969 329.846C473.282 329.863 473.324 328.778 471.156 326.987C470.002 326.035 468.911 325.477 468.7 325.733C468.489 325.989 467.417 325.878 466.337 325.589C465.169 325.312 463.689 325.037 463.025 325.09C461.073 325.2 458.577 322.019 459.591 320.79C460.224 320.023 460.07 319.551 458.779 318.484C456.842 316.884 454.282 316.319 451.24 316.904C450.003 317.087 448.758 317.092 448.389 316.787C447.697 316.215 448.657 314.77 449.729 314.881C450.132 314.956 450.823 314.494 451.246 313.982C452.428 312.549 456.666 311.832 459.014 312.652C461.089 313.334 461.219 313.27 462.728 311.159C464.237 309.048 464.498 308.92 466.915 309.281L469.424 309.718L470.294 312.331C470.802 313.783 471.671 315.362 472.317 315.896C472.916 316.391 473.697 317.983 474.029 319.462C474.36 320.941 474.772 322.228 474.91 322.342C475.095 322.495 475.736 321.905 476.454 321.035C477.467 319.807 477.563 318.939 476.932 316.695C476.508 315.14 476.353 313.635 476.607 313.328C477.156 312.663 478.982 314.774 480.263 317.64C480.798 318.684 481.813 320.556 482.621 321.74C484.905 325.176 484.339 328.496 480.385 334.698C478.596 337.524 477.103 339.992 477.115 340.26C477.212 342.493 482.88 336.845 484.91 332.411C485.439 331.299 485.799 329.358 485.66 328.21C485.35 324.167 487.828 323.89 488.933 327.815C489.303 329.154 490.076 330.567 490.583 330.986C491.598 331.825 491.407 332.527 489.169 336.274C487.426 339.138 486.234 343.404 486.861 344.524C487.157 345.199 487.987 344.852 490.176 343.045C491.766 341.776 493.198 340.98 493.391 341.311C493.771 341.884 492.279 352.53 490.923 359.157C490.414 361.749 490.503 362.769 491.425 363.531C492.21 364.179 492.79 364.228 493.339 363.562C494.479 362.18 497.949 343.871 497.563 341.142C497.231 338.63 498.334 338.422 500.294 340.558C502.017 342.326 502.243 342.427 503.13 341.352C505.157 338.895 504.224 332.787 501.41 330.462C500.995 330.119 500.222 328.706 499.764 327.38C498.959 325.253 496.714 322.709 494.243 321.098C493.831 320.844 492.466 319.114 491.186 317.281C488.902 313.845 487.476 312.753 478.562 307.197C476.46 305.89 474.404 304.622 473.95 304.419C473.497 304.217 473.504 303.362 473.987 302.212C474.475 301.151 475.104 299.261 475.537 297.983C475.97 296.706 476.86 294.687 477.655 293.535C478.903 291.553 479.164 291.425 481.185 291.889C483.521 292.442 484.859 293.547 490.611 300.021ZM388.333 221.379C388.26 221.749 385.583 222.55 382.41 223.199C379.191 223.811 374.877 224.809 372.856 225.378C370.793 225.998 367.343 226.419 365.207 226.375C362.36 226.347 358.922 227.036 353.095 229.022C348.67 230.531 344.018 231.939 342.827 232.16L340.664 232.525L342.043 231.512C344.885 229.384 350.031 227.094 353.078 226.598C356.92 225.985 357.768 225.05 356.898 222.438C356.494 221.329 356.49 220.206 356.831 219.886C358.164 218.835 371.911 219.002 377.921 220.179C382.136 220.993 384.764 221.098 385.72 220.597C387.241 219.788 388.548 220.179 388.333 221.379ZM470.501 292.617C470.213 294.188 469.922 295.669 469.846 295.95C469.692 296.512 463.738 297.618 463.23 297.199C462.861 296.894 468.985 289.472 469.738 289.405C470.841 289.197 471.002 289.847 470.501 292.617ZM447.506 305.728C447.941 306.518 448.072 307.487 447.819 307.794C447.565 308.101 443.297 309.137 438.445 310.035C433.547 310.895 428.526 311.998 427.259 312.5L424.985 313.376L427.242 310.076C428.451 308.235 430.635 305.305 432.025 303.526L434.555 300.366L437.683 300.712C439.427 300.948 442.087 301.767 443.682 302.654C445.23 303.504 446.552 304.252 446.641 304.239C446.687 304.277 447.114 304.887 447.506 305.728ZM377.739 282.264C381.682 289.05 383.924 299.683 380.926 297.206C378.389 295.11 380.66 302.323 383.713 306.05C385.589 308.289 385.821 309.513 384.958 312.157C384.168 314.431 382.351 315.599 381.198 314.646C380.783 314.303 380.209 312.366 379.897 310.3C379.387 306.781 378.525 303.313 377.1 299.21C376.746 298.229 376.211 296.151 375.876 294.583C375.209 291.536 372.275 287.477 371.431 288.501C371.177 288.808 370.844 290.34 370.687 291.846C370.577 293.391 370.232 294.655 369.967 294.694C369.702 294.733 368.894 293.55 368.248 291.983C366.282 287.69 361.292 282.363 354.169 277.081C347.458 272.053 342.004 269.355 335.399 267.772C330.411 266.578 329.197 266.263 327.886 265.783C326.169 265.139 325.501 267.17 326.828 269.041C327.782 270.517 328.865 270.896 334.072 272.013C345.246 274.358 352.518 277.955 359.837 284.69C362.943 287.6 367.5 294.206 368.955 297.99C369.305 298.882 370.397 301.506 371.432 303.824C372.525 306.449 372.918 308.323 372.496 308.835C371.905 309.551 371.401 309.221 368.795 306.551C365.208 302.813 364.154 301.082 364.998 300.058C366.603 298.113 361.553 289.379 355.233 283.125C351.516 279.451 342.673 276.536 338.183 277.56C336.331 277.924 331.322 280.329 331.691 280.633C331.83 280.748 333.928 280.931 336.467 281.05C344.759 281.53 347.825 282.514 353.249 286.564C357.431 289.675 358.315 290.577 359.4 293.023C360.189 294.794 360.428 296.196 359.963 296.759C359.583 297.22 359.327 298.471 359.331 299.594C359.367 301.431 359.509 301.635 361.023 301.68C362.495 301.777 362.733 302.146 364.099 305.943C365.065 308.721 366.558 311.331 368.568 313.595C370.164 315.516 371.483 317.208 371.491 317.387C371.526 318.19 358.517 318.633 356.438 317.863C355.581 317.585 355.146 316.796 355.038 315.329C354.921 313.683 354.21 312.665 351.1 309.665C348.874 307.568 347.509 305.838 347.809 305.569C348.281 305.185 350.617 305.737 360.251 308.445C361.016 308.647 361.984 308.414 362.448 307.851C364.011 305.957 361.239 303.581 345.588 293.405C343.44 292.061 343.247 291.73 343.303 288.935C343.286 285.478 342.324 283.823 339.98 283.091C338.405 282.65 338.144 282.779 337.069 284.646C335.952 286.563 335.733 286.641 333.573 286.062C332.359 285.747 330.218 284.581 328.927 283.514C325.191 280.428 320.419 273.989 320.233 271.77C320.117 270.124 319.882 269.844 319.052 270.192C318.265 270.488 316.435 269.321 310.539 264.622C306.437 261.319 303.104 258.308 303.181 258.027C303.254 257.657 306.942 257.605 311.399 257.844C317.462 258.204 320.432 257.989 323.324 257.022C329.328 255.01 337.014 256.883 344.586 262.277C347.019 264.029 349.797 265.55 350.785 265.763C352.845 266.088 360.771 272.464 364.004 276.254C365.881 278.493 369.167 280.433 370.803 280.235C371.245 280.17 372.19 279.401 372.862 278.493C373.579 277.622 374.313 277.109 374.636 277.376C374.959 277.643 376.343 279.82 377.739 282.264ZM425.345 329.77C425.187 330.243 424.612 331.317 424.117 332.199C422.758 334.692 425.003 336.202 430.574 336.5C436.767 336.797 437.337 337.611 434.562 342.291C431.376 347.751 432.307 349.725 439.116 351.907C443.536 353.32 445.385 354.934 445.809 357.522C445.878 358.096 446.69 359.369 447.582 360.45C449.174 362.282 449.181 362.461 447.722 363.665C446.436 364.754 446.367 365.214 447.025 367.049C449.835 375.396 451.251 385.432 449.815 387.172C448.721 388.592 446.371 397.928 446.672 399.726C447.096 402.314 446.34 403.325 444.327 403.039L442.805 402.815L443.106 404.612C443.241 405.671 443.964 406.957 444.656 407.529C445.717 408.405 445.783 408.89 444.915 410.411C443.595 412.764 441.526 415.272 441.157 414.967C441.018 414.853 440.664 413.871 440.483 412.775C439.608 409.04 437.32 405.514 434.811 404.043C432.85 402.94 432.093 401.884 430.046 397.783C427.257 391.95 423.286 387.55 419.247 385.676C417.206 384.765 415.196 384.568 411.389 384.952C406.341 385.43 406.295 385.392 405.099 383.457C404.133 381.712 402.707 380.62 399.11 378.681C398.426 378.288 398.256 377.46 398.563 376.336C398.831 375.352 399.606 372.721 400.215 370.384C401.293 366.54 401.273 366.093 399.878 364.682C398.251 363.08 392.814 361.773 387.835 361.791C386.367 361.784 384.984 361.674 384.799 361.522C384.615 361.369 384.956 360.016 385.466 358.457C386.341 356.081 387.346 354.674 391.973 349.63C397.321 343.805 397.537 343.638 398.851 344.208C399.666 344.537 401.133 344.544 402.19 344.298C403.726 343.846 404.222 343.997 404.345 344.787C404.419 345.451 405.903 347.882 407.657 350.364C413.998 359.131 417.036 370.68 414.843 377.476C413.673 381.244 413.743 381.818 415.51 381.556C418.691 381.085 421.041 373.817 420.257 367.057C419.972 364.583 420.013 362.465 420.324 362.464C421.123 362.435 427.633 365.92 429.294 367.292C431.231 368.893 432.471 372.843 434.676 384.65C436.125 392.389 439.356 398.157 441.564 396.797C443.73 395.488 443.541 387.067 441.261 378.642C439.459 371.989 434.916 362.64 430.959 357.564C421.954 345.82 416.845 340.825 409.781 336.883C407.59 335.589 405.622 334.308 405.384 333.939C405.045 333.315 408.41 331.963 411.153 331.646C411.906 331.58 414.061 331.036 415.947 330.442C420.338 329.163 424.79 328.279 425.298 328.699C425.528 328.889 425.506 329.387 425.345 329.77ZM249.739 190.894C250.882 192.612 251.951 194.7 252.121 195.529C252.336 196.396 253.471 197.936 254.716 198.965C255.961 199.993 257.18 201.431 257.438 202.246C258.004 204.005 264.783 212.618 267.42 214.969C268.808 216.201 269.35 217.424 269.674 219.758C270.485 226.109 272.529 233.221 274.495 236.48C275.645 238.377 276.779 239.916 277.136 239.953C277.448 239.952 278.496 239.527 279.449 238.937C280.405 238.436 281.373 238.203 281.604 238.393C281.834 238.584 281.736 240.396 281.383 242.515C281.027 244.545 280.976 248.462 281.316 251.153C281.756 255.132 282.156 256.152 283.29 256.658C285.012 257.391 284.824 258.183 281.263 265.226C279.866 267.86 277.802 272.524 276.601 275.578C274.683 280.535 274.061 281.571 270.84 285.194C268.759 287.434 266.885 289.329 266.574 289.33C266.267 289.421 265.401 287.931 264.612 286.161C263.866 284.339 262.454 281.537 261.543 280.009C260.243 277.73 259.854 275.945 259.871 272.258C259.981 264.602 260.717 262.112 266.887 248.616C267.662 247.018 267.907 245.499 267.577 245.054C267.011 244.328 266.677 244.827 263.868 249.737C259.696 257.05 260.038 256.73 257.87 254.939C256.348 253.681 256.001 252.879 256.015 250.135C255.963 246.908 255.963 246.908 254.384 247.411L252.763 247.966L251.539 244.372C249.765 239.377 250.495 232.663 253.538 225.967C254.182 224.433 254.393 223.144 254.012 222.571C253.354 221.77 253.055 222.039 250.126 226.247L246.901 230.814L246.634 226.719C246.432 223.109 246.665 214.177 247.242 203.981C247.547 198.723 247.427 198.021 246.47 197.489C244.967 196.678 243.251 199.134 242.704 202.9C242.39 204.879 242.264 211.144 242.425 216.872C242.586 222.6 242.662 227.397 242.662 227.397C242.619 227.448 240.405 225.619 237.684 223.371C233.294 219.572 232.871 219.05 233.685 218.345C234.242 217.859 234.218 217.323 233.619 216.827C231.82 215.341 231.302 216.721 231.532 221.99L231.812 227.386L236.747 231.463L241.683 235.541L241.801 239.253C241.92 246.066 242.796 251.868 244.412 256.302C246.024 260.647 247.586 262.798 248.43 261.774C249.106 260.955 249.952 261.998 250.687 264.585L251.415 266.994L248.095 266.317C246.3 265.954 243.134 264.715 240.993 263.549C238.895 262.332 236.908 261.637 236.654 261.944C236.443 262.2 237.151 264.163 238.263 266.2C240.048 269.396 240.844 270.312 244.141 272.52C248.492 275.425 250.779 275.851 252.299 274.008C253.566 272.472 253.931 272.688 254.121 274.997C254.357 277.343 255.861 281.255 258.034 285.202C258.958 286.998 259.608 288.654 259.439 288.859C258.805 289.627 254.29 288.048 250.996 285.93C248.025 284.078 243.566 280.738 236.797 275.404C234.633 273.703 223.705 258.649 223.646 257.309C223.588 257.003 224.318 256.401 225.144 255.964C226.404 255.283 226.691 254.746 226.883 253.011C226.977 251.109 225.313 243.536 224.667 243.003C224.529 242.889 224.171 241.818 223.944 240.684C223.612 239.205 223.869 237.953 224.706 236.751L225.919 234.999L222.251 231.452C216.404 225.847 216.477 226.51 220.744 211.184C223.827 200.302 224.935 197.172 226.651 194.716C227.826 193.104 230.206 189.562 231.91 186.838C233.66 184.152 235.376 181.696 235.764 181.414C236.801 180.721 243.515 183.771 245.833 185.945C246.902 187 248.643 189.213 249.739 190.894ZM404.09 341.994C403.626 342.557 398.088 339.962 397.872 339.095C397.506 337.846 398.474 337.613 400.119 338.628C403.182 340.556 404.428 341.585 404.09 341.994ZM427.109 362.044C426.897 362.3 426.502 362.403 426.225 362.174C425.994 361.984 425.975 361.537 426.186 361.281C426.439 360.974 426.839 360.96 427.07 361.151C427.346 361.379 427.362 361.736 427.109 362.044ZM344.155 299.28C342.599 299.285 341.592 298.626 341.818 297.693C341.952 296.685 342.847 296.822 344.193 298.106C345.307 299.199 345.311 299.288 344.155 299.28ZM310.444 272.635C310.413 272.954 308.271 274.799 305.64 276.671C302.967 278.595 299.027 282.054 296.815 284.359C294.65 286.702 292.292 288.713 291.631 288.856C286.092 290.305 280.444 295.366 279.013 300.296C278.584 301.663 277.533 304.065 276.665 305.587C273.276 311.481 272.004 315.938 272.118 321.628C272.163 324.677 272.049 327.166 271.784 327.205C271.123 327.348 269.071 314.979 269.065 310.756C269.022 308.74 268.585 304.851 268.015 301.969C267.448 299.177 267.105 296.397 267.346 295.822C267.588 295.247 269.615 292.79 271.907 290.293C276.749 285.083 280.257 278.856 283.709 269.313C284.817 266.183 286.221 262.695 286.801 261.71C287.334 260.687 287.729 259.551 287.671 259.245C286.89 256.619 291.297 257.764 297.159 261.66C302.517 265.225 310.405 271.742 310.444 272.635ZM333.437 295.159C333.065 296.832 332.556 299.424 332.307 300.854C332.062 302.373 331.541 304.697 331.204 306.14C330.909 307.532 330.603 310.723 330.578 313.198C330.549 316.618 330.059 318.622 328.597 321.805C325.623 328.042 323.496 330.244 318.222 332.688C315.783 333.858 313.575 335.218 313.375 335.742C312.896 336.981 315.383 338.95 316.923 338.587C317.584 338.444 318.525 338.619 319.033 339.039C319.725 339.61 319.652 339.98 318.657 340.622C317.106 341.75 311.317 343.596 308.351 343.9C305.961 344.164 304.763 345.24 304.196 347.526C303.893 348.74 303.025 349.228 299.219 350.645C295.016 352.166 280.491 354.541 279.615 353.817C278.969 353.283 279.189 349.161 279.854 349.108C280.25 349.005 281.207 349.537 281.991 350.185C283.375 351.328 283.594 351.251 285.252 349.522C286.231 348.523 287.022 347.283 286.999 346.747C286.948 345.586 288.887 343.142 291.425 341.194C292.458 340.412 295.607 337.159 298.448 333.997C303.151 328.673 303.485 328.174 302.578 327.769C301.852 327.427 301.828 326.891 302.485 325.626C302.934 324.705 303.885 322.048 304.587 319.787C305.242 317.488 306.109 314.933 306.516 314.064C306.922 313.195 307.294 311.522 307.374 310.297C307.5 309.11 307.652 306.481 307.831 304.478C308.19 300.47 307.898 299.884 307.054 302.975C306.748 304.099 305.847 306.883 305.103 309.196C303.722 313.22 303.553 313.424 301.801 314.043C300.399 314.52 299.505 315.417 298.042 317.566C294.956 322.247 295.752 323.162 298.93 318.558C302.231 313.71 302.455 314.755 299.443 321.133C298.265 323.689 296.803 326.871 296.193 328.175C294.731 331.357 293.793 331.271 294.049 327.953C294.601 320.232 293.181 310.107 291.529 309.947C290.28 309.862 289.052 312.291 288.67 315.763C287.844 322.311 287.757 336.614 288.53 338.027C289.065 339.071 288.95 339.493 288.247 339.687C287.674 339.817 286.257 340.97 285.025 342.276L282.859 344.619L280.703 343.096C277.129 340.659 276.205 337.83 276.866 331.576C277.313 327.555 277.734 326.01 278.483 325.854C279.936 325.504 281.623 320.356 280.808 318.994C280.088 317.797 279.342 309.864 279.891 309.198C280.102 308.942 281.194 309.5 282.347 310.452C283.5 311.405 284.507 312.065 284.634 311.911C285.267 311.143 285.606 306.689 285.239 303.373C284.869 299.968 285.056 299.176 286.492 297.436C288.097 295.491 288.185 295.478 289.708 296.735C291.645 298.336 292.832 298.025 296.572 295.09C298.677 293.385 300.37 291.427 302.796 287.922C304.592 285.275 306.781 282.434 307.679 281.627C309.603 279.859 313.202 277.754 313.962 277.866C314.278 277.954 316.123 279.478 318.026 281.309C320.674 283.927 321.336 284.818 320.829 285.432C320.491 285.842 320.046 286.851 319.858 287.643C319.671 288.435 318.815 290.224 317.944 291.656C315.495 295.659 314.075 298.79 314.536 299.171C315.228 299.743 321.674 290.52 322.325 288.132C322.942 285.973 322.543 285.987 327.57 288.074C331.24 289.643 333.2 290.746 333.681 291.573C333.915 291.853 333.766 293.538 333.437 295.159ZM343.786 311.198C344.324 312.331 344.324 312.331 342.891 312.094C340.743 311.783 340.274 311.223 341.245 310.046C342.132 308.971 342.812 309.275 343.786 311.198ZM257.007 263.695C257.415 264.892 256.563 266.771 255.871 266.199C255.179 265.628 253.56 262.138 253.813 261.831C253.982 261.626 254.604 261.624 255.15 261.902C255.692 262.092 256.192 262.332 256.326 262.357C256.418 262.434 256.711 263.019 257.007 263.695ZM432.131 445.557C429.674 449.381 425.444 455.355 422.657 458.734C417.217 465.516 417.175 465.567 410.356 467.25C409.169 467.561 406.2 468.809 403.853 470.055C400.546 471.713 397.381 472.542 390.181 473.652C367.919 477.038 367.066 476.85 354.75 466.675C348.568 461.569 346.573 459.662 346.3 458.489C345.853 456.398 342.445 449.623 341.476 448.823C340.092 447.68 340.848 446.669 343.326 446.392C344.786 446.221 345.866 446.51 346.339 447.159C346.72 447.732 347.45 448.163 348.026 448.123C348.514 448.096 351.316 449.119 354.171 450.359C357.026 451.599 360.231 452.697 361.211 452.732C362.371 452.829 364.009 453.666 365.9 455.228C368.99 457.781 377.392 461.795 380.158 462.015C381.049 462.062 382.06 461.778 382.398 461.369C383.031 460.601 381.467 459.394 375.079 455.667C371.793 453.726 373.429 453.529 388.272 454.342C391.438 454.548 396.099 455.386 398.988 456.396C404.088 458.112 407.388 458.343 408.444 457.063C409.246 456.09 407.09 454.567 403.163 453.216C399.147 451.879 393.882 449.423 393.858 448.887C393.851 448.708 396.075 447.705 398.833 446.712C408.635 443.104 415.249 439.788 417.722 437.355C419.98 435.088 420.11 435.024 421.932 436.013C424.665 437.495 428.388 438.247 432.388 438.195C434.343 438.175 436.038 438.283 436.176 438.398C436.361 438.55 434.499 441.747 432.131 445.557ZM362.326 384.532C361.704 385.567 361.153 388.21 361.027 390.431L360.845 394.412L354.764 401.784L348.682 409.155L349.345 412.113C350.162 415.542 349.578 416.437 343.296 421.232C339.079 424.462 338.822 424.68 338.297 426.915C337.952 428.179 337.253 429.496 336.65 429.945C336.09 430.342 331.549 431.239 326.601 431.972C317.984 433.203 317.227 433.18 310.083 431.496C306.037 430.478 302.529 429.559 302.344 429.407C301.698 428.873 303.323 427.374 306.745 425.295C308.519 424.178 310.943 422.651 312.198 421.881C315.056 420.11 323.863 416.11 328.899 414.331C332.929 412.925 338.375 410.366 339.008 409.599C339.726 408.728 337.874 408.059 335.892 408.487C331.09 409.513 332.825 407.503 341.728 401.602C348.21 397.316 351.417 394.37 352.291 391.994C352.97 390.231 351.525 389.726 350.258 391.261C349.54 392.132 348.146 392.787 346.909 392.97C345.491 393.09 344.32 393.758 343.391 394.884C341.913 396.676 338.549 399.061 338.041 398.642C337.442 398.147 344.442 391.448 346.531 390.42C348.709 389.379 354.646 384.815 358.574 381.088C359 380.665 361.74 381.293 362.616 382.017C363.166 382.385 363.071 383.253 362.326 384.532ZM418.408 433.703C418.239 433.908 416.576 434.514 414.647 435.159C412.715 435.715 407.165 437.929 402.279 440.091C391.021 444.993 388.305 445.934 381.025 447.237C375.113 448.292 368.881 448.136 368.83 446.975C368.815 446.618 371.899 444.948 375.559 443.238C381.966 440.267 382.312 440.036 382.076 438.723C381.865 437.945 381.564 437.181 381.334 436.99C380.642 436.419 372.31 438.057 370.927 438.98C367.044 441.712 352.892 444.482 350.954 442.881C350.355 442.386 348.422 441.908 346.639 441.812C343.297 441.633 342.055 440.693 343.28 439.209C345.142 437.046 352.653 430.856 354.14 430.276C356.241 429.516 357.085 428.492 356.547 427.359C355.916 426.149 356.642 425.457 361.339 423.054C365.034 421.114 376.296 417.335 377.511 417.649C378.364 417.837 378.656 418.423 378.28 418.973C378.115 419.267 377.781 419.766 377.574 420.111C376.864 421.16 378.904 422.071 382.062 422.098C385.801 422.174 386.716 422.757 386.359 424.787C386.003 426.817 386.322 426.995 390.549 427.043C397.046 427.16 415.294 430.614 417.047 432.063C417.923 432.787 418.534 433.55 418.408 433.703ZM352.565 380.944C352.185 381.404 351.19 382.046 350.314 382.355C349.439 382.665 345.886 384.809 342.387 387.169C336.511 391.095 335.782 391.697 332.761 395.829C329.532 400.306 318.551 411.549 316.461 412.577C315.851 412.847 313.831 414.45 311.945 416.077C309.802 417.922 308.116 419.025 307.575 418.836C306.944 418.66 306.341 419.108 305.724 420.233C304.607 422.151 303.235 422.309 303.422 420.484C303.437 419.808 303.118 418.597 302.725 417.756C301.906 416.305 302.7 414.12 305.065 411.254C305.698 410.486 305.806 409.886 305.398 409.721C303.953 409.216 299.798 411.809 296.526 415.304C292.445 419.593 290.999 423.132 292.375 425.13C293.367 426.467 293.245 426.709 290.389 431.581C288.984 434.036 288.996 434.304 290.299 435.639L291.695 437.05L287.541 441.709C283.386 446.368 283.386 446.368 284.658 446.989C286.561 447.786 285.654 448.414 282.416 448.579C279.135 448.795 274.508 447.728 268.448 445.39C262.66 443.191 256.378 442.907 238.506 443.981C234.337 444.238 230.784 444.315 230.553 444.125C229.953 443.629 230.932 442.63 232.384 442.281C237.094 441.179 254.478 432.988 256.045 431.183C256.467 430.671 262.839 426.897 276.289 419.244C282.192 415.943 283.679 415.363 286.214 415.392C288.397 415.474 289.757 415.048 291.477 413.715C292.898 412.65 294.557 411.955 295.541 412.079C296.521 412.114 298.361 411.482 299.747 410.648C301.134 409.813 304.948 408.575 308.213 408.001C315.048 406.675 320.664 404.945 319.926 404.335C319.649 404.106 317.635 403.82 315.495 403.688C311.127 403.436 309.347 402.396 309.377 400.01C309.399 398.479 309.61 398.223 312.371 396.286C316.983 392.952 317.029 392.99 318.253 396.584C319.735 400.993 320.35 400.812 326.666 393.721C330.229 389.778 332.494 387.69 333.889 387.034C335.022 386.507 336.189 385.75 336.527 385.34C337.882 383.792 342.899 381.566 347.524 380.567C352.456 379.477 353.705 379.562 352.565 380.944ZM256.07 321.712C258.628 326.322 263.23 338.043 263.178 339.893C263.044 341.935 261.477 341.673 257.575 338.88C252.755 335.415 248.86 329.7 245.17 320.54C243.623 316.68 242.007 313.279 241.638 312.974C240.9 312.365 234.594 310.512 233.53 310.58C232.688 310.659 233.891 316.817 235.58 320.881C236.931 324.321 237.124 326.719 235.953 327.387C234.785 328.144 230.189 325.724 226.856 322.712C225.28 321.238 222.381 317.982 220.489 315.386C216.428 309.966 213.884 307.691 208.922 305.056L205.328 303.206L208.492 306.422C213.655 311.635 216.617 316.319 215.645 317.496C215.054 318.213 211.692 317.587 207.849 316.134C204.141 314.706 196.49 313.637 189.69 313.7C189.248 313.765 187.004 313.289 184.672 312.825C180.856 311.997 176.469 312.332 175.497 313.509C174.653 314.533 177.604 315.938 179.494 315.434C180.593 315.137 183.04 315.179 184.965 315.478C186.894 315.866 191.813 316.486 195.924 316.956C200.077 317.375 204.293 318.189 205.342 318.797C206.433 319.355 209.942 320.273 213.215 320.912C218.995 321.899 221.304 322.86 220.46 323.884C220.248 324.14 218.792 324.4 217.236 324.406C204.973 324.604 174.715 329.218 174.832 330.864C174.843 331.132 175.643 331.103 176.653 330.819C180.156 329.581 195.749 327.228 204.171 326.61C212.546 325.954 219.424 326.644 219.49 328.162C219.506 328.519 217.981 330.272 216.054 331.951C210.194 337.267 210.2 340.457 216.071 340.486C217.538 340.494 219.064 340.807 219.479 341.15C219.94 341.531 220.924 341.655 221.669 341.41C223.424 340.881 226.587 340.997 227.325 341.606C227.647 341.873 227.46 342.665 226.911 343.33C225.813 344.661 225.841 346.32 227.024 345.92C227.373 345.778 229.421 345.835 231.519 346.018C233.659 346.151 236.936 345.845 238.826 345.341C247.039 343.002 253.236 342.354 258.081 343.344C265.843 344.936 266.447 346.554 260.529 349.498C259.05 350.256 256.185 351.848 254.237 353.08C245.316 358.535 239.266 360.51 230.122 360.875C222.534 361.234 221.147 361.035 221.665 359.655C221.906 359.08 222.57 357.993 223.246 357.174C224.217 355.997 224.275 355.269 223.332 353.027C222.732 351.498 221.82 349.971 221.313 349.551C219.791 348.294 210.682 350.496 203.315 353.879C201.264 354.767 201.199 354.282 203.203 352.323C204.351 351.119 205.49 347.67 204.844 347.136C204.198 346.603 200.952 346.589 196.265 347.193C192.592 347.602 191.32 346.982 190.446 344.28C189.73 342.139 188.208 340.882 184.957 339.745C183.424 339.253 179.861 337.084 176.501 334.481C173.33 332.12 170.251 329.834 169.702 329.466C169.11 329.149 165.204 325.234 161.056 320.86L153.371 312.876L157.072 309.047C162.094 303.9 164.648 302.308 173.387 298.768C179.329 296.36 181.153 295.371 182.547 293.682C183.772 292.197 184.939 291.44 186.437 291.129C187.54 290.92 193.215 291.563 198.994 292.55C204.731 293.588 210.641 294.511 212.024 294.62C222.459 295.322 222.19 295.272 225.861 297.874C227.833 299.245 230.612 300.766 232.06 301.36C234.366 302.232 234.966 302.728 236.585 305.184C237.969 307.361 238.619 307.984 239.137 307.637C239.525 307.355 240.844 308.014 242.454 309.258C243.972 310.427 245.802 311.594 246.659 311.871C249.095 312.679 253.616 317.447 256.07 321.712ZM272.759 345.485C272.729 345.804 273.125 346.734 273.69 347.459C274.913 348.986 273.859 353.366 272.521 352.261C272.152 351.956 271.917 350.643 271.947 349.29C272.05 347.567 271.65 346.548 270.777 345.913C269.858 345.24 269.612 344.693 270.023 343.913C270.391 343.184 270.879 343.157 271.755 343.881C272.401 344.414 272.832 345.115 272.759 345.485ZM243.712 330.957C245.87 334.547 245.836 335.81 243.607 334.657C241.197 333.441 240.043 331.455 240.588 329.667C241.136 327.968 241.424 327.431 241.655 327.621C241.701 327.659 242.612 329.187 243.712 330.957ZM406.332 471.845C405.994 472.255 405.514 472.461 405.238 472.232C405.007 472.042 405.21 471.607 405.687 471.312C406.209 471.055 406.689 470.849 406.781 470.925C406.874 471.001 406.67 471.436 406.332 471.845ZM243.614 340.947C243.488 341.101 241.775 341.579 239.796 342.097C237.199 342.706 235.862 342.634 234.986 341.91C233.233 340.462 227.127 339.119 223.497 339.477L220.438 339.705L220.533 337.803C220.602 336.31 221.346 335.032 223.542 332.37L226.414 328.889L228.19 329.84C229.1 330.334 232.406 332.72 235.489 335.095C238.525 337.432 241.278 339.361 241.589 339.36C242.296 339.255 243.952 340.538 243.614 340.947ZM334.9 438.742C333.514 440.61 332.688 441.047 328.551 442.019C325.912 442.679 323.542 443.389 323.373 443.594C322.486 444.669 317.188 445.543 313.53 445.276C308.624 444.924 303.253 445.135 295.911 446.042C289.365 446.831 288.827 446.731 291.289 445.064C292.372 444.409 294.503 442.296 296.065 440.402C298.941 437.01 298.941 437.011 301.969 437.102C303.659 437.121 306.925 437.581 309.261 438.134C314.472 439.34 319.644 439.653 320.319 438.833C322.181 436.67 335.024 434.455 336.12 436.135C336.355 436.415 335.783 437.578 334.9 438.742ZM307.312 473.968C308.32 475.661 309.794 479.892 310.657 483.359C311.473 486.788 312.782 491.313 313.583 493.351C315.037 497.135 315.783 510.146 314.643 511.529C314.347 511.887 313.287 512.044 312.299 511.831C309.475 511.305 309.068 512.174 310.465 515.652C312.158 519.805 313.454 527.073 312.817 528.785C312.495 529.552 312.454 531.67 312.624 533.532C312.794 535.394 312.527 539.478 312.084 542.555C311.341 546.934 310.789 548.543 309.437 550.181C308.462 551.269 306.431 553.637 304.865 555.442C303.298 557.247 301.294 560.239 300.443 562.118C298.198 566.72 294.608 571.071 293.686 570.308C292.671 569.47 289.053 559.94 287.863 555.083C286.781 550.66 285.881 549.4 283.607 549.242C282.446 549.144 282.112 548.61 281.561 546.175C280.078 539.699 279.995 536.79 281.412 534.603C282.16 533.414 283.688 530.716 284.839 528.568C285.944 526.383 288.339 522.163 290.12 519.159C291.901 516.154 293.831 512.498 294.391 511.067C295.918 507.335 296.601 506.695 296.779 508.736C297.081 511.567 295.32 529.308 294.603 531.212C294.204 532.26 293.921 533.919 293.921 534.953C293.919 536.931 295.472 538.902 296.609 538.465C297.22 538.194 299.382 530.684 300.742 524.147C301.478 520.623 301.777 520.354 302.409 522.597C302.574 523.336 303.044 523.896 303.355 523.895C304.369 523.7 305.784 519.446 305.901 516.013C305.954 514.163 306.145 512.427 306.314 512.222C306.483 512.018 307.061 508.966 307.574 505.43C308.603 498.447 308.152 496.267 304.637 491.125C303.545 489.535 302.283 487.115 301.868 485.739C301.452 484.362 300.256 482.427 299.187 481.372C294.451 476.771 293.413 475.397 291.889 472.072C290.358 468.569 290.514 466.029 292.442 464.351C294.757 462.39 304.32 468.569 307.312 473.968ZM282.646 467.104C282.174 468.522 281.881 473.014 282.018 477.173C282.242 484.33 282.088 484.892 279.809 489.723C277.856 493.877 277.476 495.371 277.647 498.267C277.953 502.221 277.608 502.452 281.456 494.872C282.519 492.737 283.932 490.461 284.615 489.821C285.683 488.809 285.626 489.536 284.607 494.72C283.435 500.466 283.668 504.79 285.205 505.371C285.52 505.46 286.561 504.856 287.548 504.036C291.311 500.603 292.456 501.377 290.892 506.282C289.642 510.242 282.047 524.713 279.809 527.426C278.838 528.603 278.404 529.881 278.474 531.488C278.541 533.006 278.226 533.951 277.535 534.413C273.587 536.66 270.391 538.841 269.589 539.814C269.04 540.479 268.341 540.762 268.018 540.496C267.188 539.81 265.593 532.811 265.425 528.971C265.211 524.06 269.866 508.451 272.526 505.226C273.835 503.64 273.505 503.194 270.815 502.694C268.352 502.294 265.198 503.39 263.106 505.363C262.165 506.221 261.124 506.825 260.763 506.698C260.401 506.572 259.747 504.827 259.262 502.876C258.542 499.613 258.645 498.923 260.402 495.383C261.419 493.21 263.45 489.809 264.87 487.711C266.248 485.665 267.192 483.862 267.054 483.748C266.223 483.062 262.954 483.546 261.045 484.637C259.094 485.78 258.871 485.768 259.174 484.555C259.32 483.814 261.243 481.013 263.435 478.262C266.894 473.975 268.219 472.745 273.446 469.23C282.943 462.701 284.264 462.416 282.646 467.104ZM288.886 480.695C288.548 481.105 287.93 481.196 287.561 480.891C286.823 480.282 287.145 479.515 288.163 479.409C289.177 479.214 289.562 479.876 288.886 480.695ZM304.421 502.482C305.641 505.986 305.407 506.739 303.175 506.531C301.792 506.421 301.638 505.949 301.27 501.6C301.019 498.896 300.821 496.409 300.76 496.013C300.601 494.419 303.444 499.436 304.421 502.482ZM293.68 491.714C294.558 494.505 293.89 496.536 291.831 497.245C290.998 497.504 289.976 497.52 289.607 497.215C288.961 496.682 290.279 491.229 291.42 489.847C292.349 488.721 292.814 489.191 293.68 491.714ZM216.257 444.623C215.708 445.289 206.509 449.482 203.831 450.283C198.127 452.026 200.197 450.551 207.495 447.628C211.386 446.108 214.743 444.578 214.997 444.271C215.25 443.964 215.692 443.898 215.922 444.089C216.199 444.317 216.299 444.572 216.257 444.623Z" fill="#FBF8EF"></path><path d="M383.913 328.646C382.558 329.161 382.604 329.199 383.902 329.411C384.662 329.523 385.456 329.406 385.667 329.15C386.385 328.28 385.44 328.016 383.913 328.646Z" fill="#FBF8EF"></path></svg> 