<?xml version="1.0" encoding="UTF-8"?> <svg xmlns="http://www.w3.org/2000/svg" width="122" height="140" viewBox="0 0 122 140" fill="none"><path d="M26.0591 63.0814C25.4291 63.9905 25.4143 66.7973 26.075 73.478C26.5688 78.5428 27.2786 84.2242 27.7353 86.1443C28.1127 88.0757 28.1875 89.6184 27.8113 89.5423L30.9927 101.452C31.9146 102.947 33.0833 105.085 34.6714 108.116C35.4467 109.474 36.209 110.746 36.4396 110.929C36.9008 111.296 38.849 115.809 38.6832 116.048L44.8374 120.785C46.2675 119.547 46.0658 118.497 43.953 116.078C42.5709 114.462 41.8619 113.009 41.5509 110.982C41.0007 107.133 42.0329 106.469 44.9384 108.776C48.0616 111.181 57.09 115.381 61.1619 116.314C62.9636 116.706 63.1324 115.431 62.3261 108.857C61.5701 103.139 62.0548 99.9635 63.6937 99.5586C64.2357 99.3955 66.8302 99.675 69.4045 100.087C75.9656 101.142 78.5242 100.132 77.8342 96.6914C77.4568 94.76 78.2065 93.575 81.2107 91.5096C83.3946 89.9055 83.4941 89.762 83.725 87.5718C83.8347 86.1755 83.4573 84.2441 82.7022 82.7546C81.8087 81.1553 81.5293 79.5984 81.7904 78.3964C82.66 74.5623 88.5158 68.3818 92.833 66.6912C93.8709 66.3283 95.1957 64.9324 96.9329 62.5287C99.3001 59.2159 99.8825 58.7882 105.862 55.5243C113.091 51.695 114.608 50.2287 113.26 48.0465C112.018 46.022 107.616 42.6761 105.656 42.3067C104.732 42.0925 102.674 41.3486 101.137 40.574C97.3194 38.6556 95.2928 38.382 88.952 38.7629C85.9467 38.9731 82.7107 39.0003 81.7076 38.7973C80.7173 38.6787 77.0316 38.9422 73.5563 39.5211C67.3855 40.482 67.1348 40.4313 65.6734 38.8261C64.2581 37.2576 64.0073 37.2069 61.7067 38.0507C60.3647 38.543 58.8829 39.4434 58.3855 40.1611C57.9213 40.831 56.471 42.2016 55.2068 43.2006C50.5405 46.8393 48.453 49.3358 46.4792 53.6284C45.4425 55.8465 44.3338 57.859 44.0426 58.0729C43.7515 58.2868 42.1026 57.5712 40.448 56.5544C38.7804 55.4531 37.2772 54.6306 37.0725 54.6165C36.9139 54.639 36.0663 55.4495 35.1984 56.3923C33.986 57.7292 33.454 59.0128 32.9967 61.8392C32.2582 65.9998 31.4639 66.6302 29.9392 64.0848C28.5457 61.8659 27.1533 61.5023 26.0591 63.0814ZM40.9363 92.9893C41.4436 93.3921 39.2216 98.9712 38.4548 99.2525C37.3506 99.711 37.1288 98.7932 38.0053 97.1156C39.672 93.9884 40.5673 92.6964 40.9363 92.9893ZM29.7535 73.4313C30.1758 73.544 31.1386 74.0116 31.9299 74.4173C34.1653 75.5243 35.473 73.2247 35.6539 67.8055C35.8233 61.7837 36.5383 61.1646 40.7383 63.4603C45.6373 66.0884 47.3772 65.022 49.2129 58.2462C50.4012 53.8492 51.8068 51.924 54.1002 51.2969C54.609 51.1816 55.7276 50.2895 56.6748 49.3355C58.2778 47.6412 58.4364 47.6187 59.5288 48.931C60.516 50.0855 60.9254 50.1138 62.5456 49.3232C69.9188 45.9049 78.814 43.6949 80.3821 44.9397C81.6605 45.8804 89.9902 47.375 91.583 46.9335C93.8763 46.3064 94.7858 46.9542 94.5621 48.9276L94.3861 50.4196L95.9789 49.9781C96.9172 49.7588 98.0489 48.9512 98.5462 48.2334C99.3089 47.1329 99.7384 47.0289 101.103 47.7416C103.213 48.8233 105.473 50.6172 105.208 51C105.109 51.1436 104.242 51.5684 103.271 51.8356C99.9654 52.9944 96.8675 55.5047 95.5988 58.0577C94.6486 60.0478 93.7217 60.8696 90.1092 63.1938C84.9688 66.3819 81.1197 70.5952 79.5163 74.6627C78.7377 76.7147 78.5933 78.6769 78.9921 82.3312C79.4931 87.1792 79.4599 87.227 77.7589 88.5469C76.2236 89.6274 75.275 91.0996 73.6068 94.7448C73.268 95.44 72.5343 95.6735 71.5311 95.4705C70.6533 95.2928 68.3039 94.7628 66.2183 94.3681C62.7864 93.6463 62.39 93.7025 61.1574 95.1717C59.759 96.8801 58.6802 102.254 58.7718 107.074C58.7875 108.495 58.7109 109.844 58.5783 110.035C58.4456 110.227 57.2378 110.01 55.8454 109.646C53.7209 108.998 52.4554 108.142 47.904 104.083C42.6478 99.3917 42.4965 99.1974 42.9824 97.8772C43.2621 97.0609 43.2465 95.6392 43.0117 94.6369C42.5866 93.1869 42.7136 92.6943 43.4141 92.5087C44.0022 92.3822 46.14 90.7415 48.3182 88.8363C56.0118 81.9638 66.2261 78.0566 72.2971 79.6125C75.6627 80.4299 76.1715 80.3147 75.9123 78.6254C75.4457 75.5848 68.9524 73.9162 62.9589 75.2404C60.765 75.7239 58.8825 75.8613 58.8767 75.56C58.8394 74.7887 61.8369 68.1935 63.0306 66.4709C64.4233 64.4613 67.9145 62.9309 78.3709 59.8091C85.225 57.7589 90.3006 54.1485 89.0584 52.124C87.8623 50.1361 80.3842 51.0234 72.9332 53.9349C67.0491 56.236 58.8122 61.4163 54.3621 65.6716C44.0649 75.3726 39.704 80.737 36.3086 87.9064C35.1926 90.1357 34.0839 92.1483 33.7596 92.41C33.2104 92.7899 31.9582 89.6449 31.6357 87.0154C31.5651 86.2918 31.0493 84.2506 30.4932 82.4741C29.2902 78.3297 28.4374 74.0925 28.8022 73.5661C28.968 73.3269 29.4104 73.3073 29.7535 73.4313Z" fill="#3D2A23"></path></svg> 