<?xml version="1.0" encoding="UTF-8"?> <svg xmlns="http://www.w3.org/2000/svg" width="860" height="805" viewBox="0 0 860 805" fill="none"><path d="M280 23.6319C280 56.0319 284.8 122.965 289.333 155.632C291.6 171.232 294.8 190.432 296.8 199.765C297.867 204.832 298.667 209.499 298.667 210.299C298.667 210.965 294.4 207.632 289.067 202.699C267.067 182.299 230 171.765 193.733 175.365C162 178.565 140.4 184.432 116.667 196.032C98.2667 205.099 88.5333 212.432 69.6 231.899C61.3333 240.432 54 247.365 53.3333 247.365C51.7333 247.365 47.3333 232.432 39.3333 200.965C35.8667 187.499 30.8 169.099 27.8667 160.299C21.4667 140.565 9.73333 116.165 4.13333 110.832C0.133333 106.965 0 106.965 0 109.899C0 121.365 19.8667 181.499 38.2667 226.032C49.7333 253.499 49.8667 254.432 47.4667 259.232C44.2667 265.232 44.9333 266.565 49.0667 263.365L52.6667 260.432L53.0667 267.632C53.6 278.699 57.2 302.965 60.1333 314.299C63.0667 325.765 69.0667 340.698 70.8 340.698C73.6 340.698 71.0667 319.899 64.1333 286.032C62 275.365 59.8667 263.632 59.4667 259.899L58.6667 253.099L68.9333 242.432C87.8667 223.099 110.533 209.099 137.333 200.165C155.2 194.299 167.333 191.765 187.333 189.899C216.533 187.099 247.6 193.232 272.933 206.699C287.867 214.565 301.2 224.299 302 227.765C302.267 229.365 303.467 239.632 304.667 250.699C305.867 261.632 307.333 273.099 308 276.032C308.667 278.965 309.333 281.765 309.333 282.165C309.333 282.699 305.333 281.765 300.4 280.032C280.4 273.099 257.2 270.032 226 270.032C198.933 270.032 185.733 271.499 165.467 276.699C124.133 287.499 88.2667 314.165 74 344.832C70.2667 352.832 69.7333 356.698 72.4 356.698C74.8 356.698 79.8667 350.965 86.5333 340.432C102.133 316.032 133.067 296.699 172.8 286.565C211.467 276.832 247.333 277.499 278.667 288.565C292.667 293.499 302.133 299.365 314.667 311.099C333.2 328.165 343.2 341.365 373.067 387.632C383.467 403.632 397.333 423.898 404 432.698C415.867 448.165 434.8 467.498 435.733 464.965C436.133 463.498 421.2 435.365 410.933 418.832C395.6 394.032 355.2 343.365 323.867 309.632C310.8 295.765 310.533 295.365 314.533 295.365C316.8 295.365 318.667 294.699 318.667 293.899C318.667 293.099 316.533 280.032 314 264.965C306.533 219.899 304.533 203.232 298.667 131.365C293.733 72.8319 284.667 3.76519 281.2 0.0318555C280.533 -0.634811 280 9.23185 280 23.6319Z" fill="white"></path><path d="M816.667 67.0985C813.734 71.0985 808.934 77.8985 806.134 81.8985C803.2 86.0318 784.4 113.898 764.267 144.032C727.867 198.298 708.8 225.098 694 242.832C656.134 287.765 630.134 308.965 560.8 351.365C509.067 383.098 487.467 404.165 468.934 441.365C465.6 447.898 461.334 458.032 459.334 463.632C457.334 469.365 454.8 474.698 453.867 475.498C451.067 477.898 451.6 480.698 455.067 480.698C458.667 480.698 475.2 471.765 486 464.032C500.267 453.898 546.134 412.698 543.334 412.698C541.467 412.698 520.534 427.098 509.867 435.765C492.8 449.365 475.334 460.565 473.6 458.832C473.2 458.432 476.134 452.832 480 446.432C497.6 417.365 516.534 399.365 554 376.032C579.467 360.165 586.267 355.498 606.667 339.632C690.667 274.165 758.4 193.098 802.8 104.565C811.6 86.8318 823.067 60.6985 822.4 59.8985C822.134 59.7651 819.6 62.9651 816.667 67.0985Z" fill="white"></path><path d="M848.134 335.765C800.134 427.765 777.6 457.498 703.6 526.432C646.667 579.498 622.667 607.898 606.534 641.632C601.734 651.632 595.6 667.365 596.534 667.365C596.8 667.365 599.2 663.898 602 659.632C616 638.432 635.067 616.698 680.667 570.032C756.534 492.432 789.6 454.698 814.534 417.365C829.067 395.365 844.934 364.432 851.734 344.698C857.067 329.098 860.667 315.632 859.867 314.698C859.6 314.432 854.267 323.898 848.134 335.765Z" fill="white"></path><path d="M224.533 332.032C227.733 340.565 240.4 355.765 261.867 376.832C275.2 389.899 286.133 400.299 286.533 400.032C287.333 399.232 275.867 383.632 262.8 367.765C245.2 346.299 221.467 324.165 224.533 332.032Z" fill="white"></path><path d="M638.534 349.632C618.267 365.898 583.201 402.032 587.601 402.032C589.334 402.032 605.467 388.565 621.601 373.765C635.467 360.965 651.734 342.565 650.401 341.232C650.001 340.965 644.667 344.698 638.534 349.632Z" fill="white"></path><path d="M157.733 348.965C158.133 350.699 159.467 357.765 160.667 364.699C164.267 385.632 168.933 406.299 172.8 417.499C179.2 436.299 179.467 434.432 175.2 403.099C173.067 387.632 166.933 364.299 161.867 353.099C158.8 345.899 156.4 343.632 157.733 348.965Z" fill="white"></path><path d="M83.4665 370.965C85.1999 398.965 84.6665 426.965 82.1332 444.698C73.7332 504.698 73.8665 529.498 82.5332 554.298C85.1999 561.898 93.5999 577.098 98.5332 583.365L101.333 586.698V581.365C101.333 578.432 100.4 572.698 99.3332 568.698C87.4665 525.098 87.0665 520.032 89.9999 448.032C91.8665 401.765 92.1332 386.298 90.9332 374.698C89.1999 358.165 87.3332 351.365 84.3999 351.365C82.5332 351.365 82.5332 353.765 83.4665 370.965Z" fill="white"></path><path d="M716.133 392.165C690.8 404.832 668.4 427.898 654.666 455.365C651.2 462.298 651.2 462.298 663.333 447.632C669.066 440.565 680.533 429.632 695.2 417.498C722.533 394.698 731.866 386.165 729.866 386.032C728.933 386.032 722.8 388.832 716.133 392.165Z" fill="white"></path><path d="M326.667 408.432C326.667 410.832 334.667 421.765 339.067 425.499C355.334 438.832 356.4 434.299 340.8 418.565C330.534 408.299 326.667 405.632 326.667 408.432Z" fill="white"></path><path d="M271.733 444.298C274.666 448.565 279.066 456.165 281.733 461.365C284.266 466.432 287.6 472.165 289.066 474.032L291.733 477.365L292.666 473.765C294.533 466.165 287.6 452.165 277.2 442.832C267.6 434.165 265.333 434.832 271.733 444.298Z" fill="white"></path><path d="M591.6 449.898C581.466 459.498 577.2 465.232 555.866 498.698C544.4 516.698 538 525.232 529.733 533.632C507.2 556.165 483.866 592.032 474.266 618.965C470.133 630.432 465.866 651.898 464.666 667.365C464 677.765 464 678.432 466 676.165C469.333 671.898 475.6 654.298 483.466 626.965C491.733 598.432 496.933 585.098 504.533 573.632C508.666 567.498 510.266 566.032 513.333 566.032C515.333 566.032 518.4 564.832 520.266 563.498L523.466 560.832L531.466 565.232C535.733 567.632 539.466 570.432 539.6 571.498C539.866 572.565 537.733 575.898 534.933 579.098L530 584.698L521.733 577.365C517.333 573.365 513.2 570.032 512.8 570.032C511.066 570.032 512.133 576.032 514.666 580.165C517.466 584.565 526.666 590.032 531.466 590.032C534.266 590.032 538.933 586.432 541.066 582.565C542.133 580.698 543.2 580.965 549.2 585.498C552.933 588.298 556 590.965 556 591.498C556 592.032 553.466 596.832 550.266 602.298C537.733 623.365 512.4 670.298 503.2 689.365C492.666 711.098 475.333 753.232 470.8 767.898C466.133 782.965 467.2 784.432 475.2 773.632C482.4 763.898 498 731.365 510 700.698C528 654.432 540.266 628.565 552.266 610.698C558.933 600.832 566.266 592.298 564.8 596.032C556 619.098 548.4 648.165 549.733 653.765C550.266 655.898 556.666 643.498 570.666 612.698C580.533 591.365 594.4 565.098 605.6 546.965C611.466 537.498 616.666 528.298 617.333 526.565C621.066 516.832 609.2 526.565 590 549.365C582.8 557.765 576.4 564.698 576 564.698C572.933 564.698 546.133 551.765 538.4 546.698L529.333 540.698L534.133 532.965C536.8 528.832 546 518.165 554.4 509.365C562.933 500.565 574.8 486.698 580.933 478.432C592.133 463.498 602 446.032 601.066 443.232C600.8 442.298 596.533 445.365 591.6 449.898ZM545.466 562.965C549.466 565.232 556.4 568.432 561.066 570.165C565.6 571.898 569.333 573.765 569.333 574.165C569.333 574.565 567.866 576.298 566 578.032L562.533 581.232L554 576.965C549.2 574.698 545.333 571.898 545.333 570.965C545.333 567.898 539.733 563.632 530 559.232C524.8 556.965 520.533 554.832 520.266 554.698C520 554.432 520.8 552.698 522 550.832L524.266 547.498L531.2 553.232C535.066 556.298 541.466 560.698 545.466 562.965Z" fill="white"></path><path d="M530.267 449.765C528.933 451.232 527.6 454.432 527.067 457.098C526.533 460.965 526.933 462.432 529.733 465.232C535.467 470.965 539.333 469.498 535.733 462.965C534.8 461.365 533.733 457.098 533.333 453.498C532.667 447.232 532.667 447.098 530.267 449.765Z" fill="white"></path><path d="M218.933 456.298C216.266 462.165 215.333 466.698 214.933 475.365C214.266 488.565 216 496.432 220.8 501.632L224.133 505.365L223.466 501.365C220.933 486.565 221.466 467.098 224.8 451.632C226 445.898 222.533 448.698 218.933 456.298Z" fill="white"></path><path d="M369.466 475.765C378.8 484.965 385.6 492.965 387.2 496.432L389.733 502.032L386.533 508.032L383.333 514.032L381.6 508.699C380.533 505.765 379.2 503.365 378.533 503.365C376.533 503.365 377.2 518.165 379.466 526.699C383.066 539.632 383.2 539.365 370.666 549.365C355.6 561.365 345.733 567.899 339.6 570.165C334.8 571.899 334.266 571.765 332.533 569.365C329.066 564.699 327.733 568.832 330.133 576.832C332.933 586.299 334.266 588.565 344.4 602.699C349.066 609.365 354.266 617.232 355.866 620.299C358.533 625.632 359.733 635.499 357.733 635.232C354.133 635.099 322.666 576.432 322.666 570.299C322.666 569.499 322.133 568.565 321.466 568.165C317.466 565.632 329.466 600.432 339.066 619.365C354 648.299 355.6 652.032 360.8 667.632C363.6 676.165 366.4 682.832 367.066 682.432C367.866 682.032 368 677.232 367.6 671.099L366.8 660.565L372.266 665.232C386.533 677.499 404.266 674.432 415.333 657.632C424.533 643.632 426 626.432 421.333 585.765C418.266 560.165 416.4 549.765 413.866 546.299C412.533 544.432 412.133 544.965 411.466 550.032C411.066 553.365 410.533 557.765 410.4 560.032L410 564.032L406.4 557.765C404.4 554.432 400.666 548.965 398.266 545.765C392.8 538.565 389.333 528.832 389.333 520.832L389.466 514.699L400.8 526.699C410.533 536.965 412 538.165 411.2 534.699C409.466 526.832 405.466 519.365 399.466 512.965C394.666 507.899 393.066 504.965 392 499.632C390.266 490.432 386.666 483.765 379.866 476.832C374.666 471.632 358 460.699 355.333 460.699C354.666 460.699 361.066 467.499 369.466 475.765ZM384.533 551.099C382.933 552.299 378.8 555.765 375.466 558.565C365.866 566.565 367.066 563.632 376.933 554.965C381.733 550.699 386 547.632 386.533 548.032C386.933 548.565 386 549.899 384.533 551.099ZM396.8 566.432C406 582.965 410.4 594.432 412.133 606.965C413.866 618.832 412.933 634.432 410.133 643.765C406.4 656.165 397.2 664.432 388.666 662.832C380.4 661.232 370 647.499 367.333 634.565C366.666 631.099 366.933 630.299 369.2 629.632C375.333 628.032 371.333 620.032 354.8 600.299C348.133 592.432 342.666 585.499 342.666 584.965C342.666 584.299 344.8 583.099 347.466 582.165C357.6 578.432 379.2 564.165 385.866 556.832C387.333 555.365 388.8 554.032 389.2 554.032C389.6 554.032 393.066 559.632 396.8 566.432Z" fill="white"></path><path d="M400.667 627.232C400.267 627.898 396.8 629.498 392.933 630.698C389.2 631.898 385.067 633.232 384 633.498C382.4 634.165 382.4 634.565 384.533 636.165C387.733 638.432 397.2 638.565 400.133 636.298C402.533 634.565 405.333 629.632 405.333 627.498C405.333 625.765 401.733 625.498 400.667 627.232Z" fill="white"></path><path d="M603.6 462.965C603.067 463.365 602.667 466.165 602.667 468.965C602.667 474.432 606.667 479.765 612 481.098C615.334 481.898 615.334 481.765 611.334 475.898C609.6 473.232 607.734 469.098 607.2 466.565C606.4 462.165 605.334 461.098 603.6 462.965Z" fill="white"></path><path d="M446.666 484.298C446.666 485.098 449.333 492.565 452.533 500.965C464.133 530.832 466.133 541.898 463.733 563.098C462.933 570.565 462.666 577.098 463.066 577.632C466 580.565 473.2 566.965 473.333 558.298C473.333 552.832 473.6 552.565 479.466 550.032C482.8 548.565 486 547.365 486.666 547.365C488.133 547.365 478.4 572.565 474.133 579.898C470.8 585.632 461.866 597.098 460.133 597.765C459.733 597.898 459.466 594.298 459.733 589.765L460 581.365L457.066 585.365C455.333 587.498 451.6 591.765 448.666 594.698C432.533 610.698 431.6 619.098 446.933 609.232C449.733 607.498 452.133 606.032 452.4 606.032C452.666 606.032 452.533 608.165 452.266 610.698C451.466 617.765 454.533 616.698 462.266 606.965C476.933 588.832 484 576.032 490.533 556.298C492.266 551.232 494.266 546.965 495.2 546.698C496 546.565 500 545.632 504.266 544.832C514.933 542.565 527.866 533.498 524.666 530.298C524.266 529.898 521.066 530.565 517.6 531.765C514.133 532.965 505.6 534.565 498.666 535.365C490.266 536.298 483.866 537.765 479.866 539.898L473.866 542.965L472.266 533.765C471.333 528.698 469.466 521.232 468 517.232C464.133 506.032 446.8 479.365 446.666 484.298Z" fill="white"></path><path d="M344.4 487.632C340.934 489.232 333.867 498.965 335.2 500.298C336.4 501.632 342.4 498.032 349.2 491.765L355.334 486.165H351.334C349.2 486.165 346 486.832 344.4 487.632Z" fill="white"></path><path d="M132 494.165C129.733 498.298 130.133 511.898 132.8 517.365C134 519.898 135.066 522.032 135.2 522.032C135.466 522.032 135.466 515.098 135.466 506.698C135.333 498.298 134.933 491.365 134.4 491.365C133.866 491.365 132.8 492.565 132 494.165Z" fill="white"></path><path d="M652.134 495.765C650.001 501.099 650.401 505.899 653.201 512.032C656.001 518.299 661.867 524.032 663.867 522.699C666.267 521.232 665.467 517.365 661.201 509.232C658.934 504.832 656.267 499.232 655.334 496.699L653.601 492.032L652.134 495.765Z" fill="white"></path><path d="M307.6 502.298C306.533 505.498 308.133 534.698 309.6 538.432C310.933 542.032 315.467 545.632 316.933 544.298C317.2 543.898 316.8 542.165 315.867 540.565C314.933 538.832 314 530.298 313.6 521.365C313.067 506.032 312 500.698 309.333 500.698C308.8 500.698 308 501.498 307.6 502.298Z" fill="white"></path><path d="M102.667 509.765C102.667 515.632 116.934 547.632 133.067 577.498C151.2 611.365 163.734 637.098 168.8 650.832C172.934 662.298 182.934 698.165 182.134 698.965C182 699.098 174.934 694.432 166.534 688.432C137.334 667.498 124.534 651.498 112.134 620.698C102.134 596.032 100.667 594.698 104.8 615.098C114.267 661.365 133.2 686.565 175.334 708.565C182.667 712.432 189.6 716.298 190.667 717.098C191.867 718.032 196.267 724.698 200.667 732.032C220.4 765.498 240.8 788.965 256.934 797.232C259.334 798.432 264.4 799.365 268.534 799.365C277.2 799.365 282.934 795.498 286.8 786.698C290.267 779.232 290.267 761.765 286.8 751.898C282.934 741.232 272.4 727.898 269.734 730.565C269.2 730.965 271.2 737.498 274.134 745.098C278.267 756.032 279.334 760.432 279.334 767.365C279.2 776.965 276.134 785.232 271.467 787.632C266.667 790.165 258 789.232 250.534 785.232C241.734 780.298 234.934 772.565 227.867 758.965C224.8 752.965 219.6 744.032 216.267 738.965C206 723.098 197.734 703.498 186.534 669.498C169.334 616.565 163.467 604.298 135.734 561.632C127.6 549.232 116.934 532.298 111.867 523.765C106.8 515.232 102.667 508.832 102.667 509.765Z" fill="white"></path><path d="M270.933 532.698C266.266 535.498 261.333 542.565 261.333 546.298C261.333 549.898 262.533 549.232 269.866 541.632C273.6 537.765 278.133 533.498 280 532.298L283.333 530.165H279.333C277.2 530.032 273.333 531.232 270.933 532.698Z" fill="white"></path><path d="M452.667 545.498C444.133 549.898 429.067 564.832 431.067 566.832C433.6 569.498 449.467 557.632 454.8 549.232C458.267 543.632 457.733 542.832 452.667 545.498Z" fill="white"></path><path d="M213.333 552.165C213.333 552.565 220.4 560.298 229.066 569.098C244.133 584.565 250.933 593.365 259.333 607.898C263.2 614.698 285.333 663.232 285.333 664.965C285.333 665.498 282 672.032 278 679.365C269.333 694.832 267.6 702.698 271.333 710.432C272.666 713.232 275.333 716.032 278.133 717.365C284.533 720.432 291.066 718.298 300.133 710.165C305.466 705.365 308 703.898 309.466 704.832C314.133 707.765 314.266 705.498 309.866 696.965C307.333 692.032 301.066 677.765 295.866 665.365C284.133 637.232 267.466 602.965 259.733 591.098C256.533 586.032 250 578.032 245.333 573.232C234 561.632 213.333 548.032 213.333 552.165ZM295.733 685.498C299.6 693.365 302.666 699.765 302.4 700.032C298.666 702.965 288.933 707.365 286.266 707.365C281.2 707.365 278.133 702.165 279.2 695.365C280.133 689.232 286.533 671.365 287.866 671.365C288.266 671.365 291.866 677.765 295.733 685.498Z" fill="white"></path><path d="M176.133 573.498C172.133 576.832 170.8 579.365 173.2 579.365C173.867 579.365 177.867 577.232 182.133 574.698L189.867 570.032H185.067C181.733 570.032 178.8 571.098 176.133 573.498Z" fill="white"></path><path d="M226.667 596.032C226.667 609.765 257.334 708.032 264.134 716.299C266.934 719.499 268 718.032 268 711.365C268 694.432 258.934 665.099 242.934 630.032C237.2 617.232 231.334 603.899 230 600.299C227.467 593.765 226.667 592.699 226.667 596.032Z" fill="white"></path><path d="M500 604.432C500 605.898 509.467 614.832 513.067 616.698C520.8 620.565 516.933 614.032 507.467 607.232C502.133 603.365 500 602.565 500 604.432Z" fill="white"></path><path d="M575.6 614.965C574.134 616.432 574.534 617.632 578 621.898C581.734 626.298 592.8 631.098 594.667 629.232C596.667 627.232 583.6 614.032 579.734 614.032C577.867 614.032 576 614.432 575.6 614.965Z" fill="white"></path><path d="M444.534 629.765C442 631.499 432.4 645.232 428.934 652.032C427.067 655.632 422.534 666.165 418.667 675.365C414.8 684.432 409.6 696.165 407.067 701.232L402.4 710.565L400.534 705.232C398.534 699.365 391.067 692.165 384.4 689.765C381.2 688.565 379.6 687.099 378.934 684.165C377.334 678.299 375.2 678.565 374.134 684.699C373.734 687.765 371.734 695.365 370 701.632C365.867 715.632 365.867 721.232 369.734 728.032C376.4 739.899 390.134 743.232 399.334 735.099C405.467 729.765 407.734 725.232 414.667 704.299C420.267 687.632 422.4 682.832 439.734 649.765C448.8 632.432 450.4 625.632 444.534 629.765ZM392.934 706.432L398.8 715.499L395.867 720.165C394.267 722.699 391.467 725.765 389.734 726.965C386.4 729.232 386.267 729.099 382.534 724.965C378.8 720.832 378.667 720.165 378.667 706.965C378.667 699.365 379.067 692.699 379.6 692.299C381.067 690.832 386.667 696.699 392.934 706.432Z" fill="white"></path><path d="M325.067 640.565C316.8 643.898 311.067 648.032 308.667 652.698C305.733 658.432 306.133 659.365 310.8 658.032C316.8 656.298 338.667 642.032 338.667 639.898C338.667 637.365 332.8 637.632 325.067 640.565Z" fill="white"></path><path d="M334.8 668.565C325.333 672.565 323.333 674.832 328.4 676.165C332.933 677.232 340.266 673.498 343.2 668.698C345.866 663.898 345.733 663.898 334.8 668.565Z" fill="white"></path><path d="M530.267 694.965C510.8 728.165 504 744.432 503.867 757.365C503.734 773.232 511.334 780.565 523.867 776.298C534.8 772.432 551.334 754.832 566 731.232C579.467 709.498 588.4 688.432 585.334 685.498C583.2 683.498 578.134 689.632 570 704.298C558.934 724.032 543.467 746.298 536.134 753.098C528.934 759.898 519.467 764.965 516.4 763.765C512.8 762.298 515.734 742.298 520.267 737.765C522.667 735.365 524.4 735.098 534.4 735.498C544.534 736.032 546 735.765 546.4 733.632C546.667 732.432 545.067 729.498 542.667 727.232C539.067 723.632 537.867 723.098 533.734 723.765C531.067 724.298 527.6 725.898 525.867 727.498C524.134 729.098 522.4 730.298 522.134 729.898C521.867 729.632 526 719.765 531.334 708.032C546.934 673.632 546.4 667.498 530.267 694.965Z" fill="white"></path><path d="M216.267 682.165C210.667 684.965 206.267 690.032 209.467 690.032C211.333 690.032 225.067 682.298 226 680.565C227.467 678.432 222.267 679.232 216.267 682.165Z" fill="white"></path><path d="M548 689.632C548 692.298 553.467 696.565 557.867 697.365C560.933 698.032 563.733 697.498 566.8 695.898L571.333 693.498L563.333 691.765C558.933 690.832 553.733 689.632 551.733 689.232C549.6 688.698 548 688.965 548 689.632Z" fill="white"></path><path d="M240 698.832C237.467 700.032 230.267 702.298 224 703.898C216.267 705.898 212.667 707.365 212.667 708.698C212.667 711.232 220 712.032 225.734 710.165L230 708.698L226 712.032C220.4 716.698 224.267 716.298 234.4 711.232C241.867 707.498 249.334 700.832 249.334 697.898C249.334 696.165 245.334 696.565 240 698.832Z" fill="white"></path><path d="M319.466 712.565C318.133 714.565 327.2 726.298 332 728.832C339.333 732.832 346.933 732.165 352.533 727.232C357.2 723.098 360.933 714.432 358.933 712.432C358.266 711.765 354.266 713.365 350 716.032C345.733 718.565 340.666 720.698 338.666 720.698C336.8 720.698 332.133 718.565 328.4 716.032C320.8 710.965 320.533 710.832 319.466 712.565Z" fill="white"></path><path d="M461.6 716.298C462.134 719.765 470.934 723.632 475.334 722.565C479.6 721.498 479.2 721.098 469.734 717.232C460.534 713.365 461.067 713.498 461.6 716.298Z" fill="white"></path><path d="M448.4 718.298C443.733 723.365 431.333 745.232 424.933 759.765C415.067 782.432 414 793.099 421.333 800.032C426.8 805.365 434.667 806.032 441.067 801.765C445.733 798.565 452.133 790.032 449.733 790.032C449.2 790.032 445.867 790.965 442.4 792.032C433.333 794.699 428 792.832 428 786.699C428 778.565 439.467 747.365 442.4 747.365C445.2 747.365 447.067 755.632 446.267 765.099C444.8 782.832 449.067 790.432 454.133 779.099C457.333 772.032 457.333 759.099 454.267 753.098C453.067 750.832 450.133 747.498 447.867 745.632L443.733 742.432L448 730.165C452.667 716.565 452.667 713.632 448.4 718.298Z" fill="white"></path></svg> 