<?xml version="1.0" encoding="UTF-8"?> <svg xmlns="http://www.w3.org/2000/svg" width="72" height="60" viewBox="0 0 72 60" fill="none"><mask id="mask0_334_3" style="mask-type:luminance" maskUnits="userSpaceOnUse" x="0" y="0" width="72" height="60"><path d="M72 0H0V60H72V0Z" fill="white"></path></mask><g mask="url(#mask0_334_3)"><path d="M11.0995 1.6318C6.00467 2.8818 2.76257 6.5068 1.62577 12.4235C0.783672 16.6318 1.70997 22.4235 4.06787 27.7152C5.16257 30.1735 7.14157 34.0068 7.52047 34.3818C8.15207 35.0068 9.06527 37.1432 9.62577 37.7152C9.72977 37.8213 9.81357 37.9899 9.96257 38.1318C10.2242 38.3809 10.9731 39.0068 11.731 40.0902C13.4152 42.3818 20.7416 49.7568 23.731 52.0902C24.91 53.0068 26.257 54.1735 26.763 54.6735C27.268 55.2152 27.632 55.4268 27.979 55.6318C28.204 55.813 28.65 56.1088 29.205 56.4652C29.655 56.8149 30.145 57.161 30.472 57.3598C30.763 57.5362 30.768 57.5184 31.035 57.7152C31.731 58.5441 35.142 60.0068 37.205 60.0068C39.226 60.0068 42.678 58.6735 44.068 57.3818C44.405 57.1318 45.499 56.2985 46.552 55.5485C47.605 54.8402 48.826 53.9652 49.205 53.5902C49.626 53.2152 50.889 52.1735 51.984 51.2568C54.636 49.1318 57.752 45.9235 59.436 43.6735C60.11 42.6735 60.904 42.1943 61.078 41.8818C61.253 41.5693 61.213 41.5498 61.415 41.2985C61.58 40.9508 61.652 40.8141 61.794 40.5485C62.463 40.0003 64.952 36.1318 66.847 32.2568C71.142 23.4235 72.784 13.5068 70.678 9.3818C69.289 6.7152 67.521 5.0068 64.489 3.5068C62.005 2.2985 61.205 2.1318 58.468 2.1318C55.268 2.1318 52.784 2.7568 50.173 4.2568C49.415 4.6735 49.146 4.9417 48.784 5.2985C48.466 5.43 48.485 5.5537 48.236 5.6318C47.689 5.6318 38.678 14.4652 38.678 14.9652C38.678 15.0902 38.173 15.7152 37.584 16.3402L36.489 17.5068L35.142 15.8818C32.531 12.6318 27.057 7.3818 24.363 5.5485C20.5731 3.0068 18.5942 2.0485 16.1942 1.7152C15.0574 1.5485 13.9205 1.3402 13.6679 1.2568C13.4152 1.1735 12.2784 1.3402 11.0995 1.6318ZM17.71 5.2568C22.2995 6.7985 29.668 12.9235 34.299 19.0068C35.942 21.1735 36.573 21.7152 36.91 21.3818C37.205 21.0902 37.415 20.6318 37.415 20.3402C37.415 20.0902 37.668 19.6735 37.963 19.5068C38.299 19.3402 38.678 18.8818 38.847 18.5485C39.773 16.6318 40.994 15.0902 44.447 11.5902C45.626 10.3818 46.805 9.3818 47.057 9.3818C47.301 9.1605 47.328 9.18 47.521 9.0068C47.674 8.555 52.447 6.2152 55.394 5.4235C60.278 4.0902 64.615 5.5068 67.815 9.4652L69.205 11.2152L69.163 15.8402C69.121 19.0902 68.91 20.8818 68.447 22.0485C68.026 22.9235 67.731 23.9235 67.731 24.2152C67.731 27.1318 57.373 42.3818 50.973 48.8818C47.942 51.9652 42.805 56.4235 41.626 57.0485C41.289 57.2152 40.194 57.7568 39.184 58.2985C37.415 59.2568 37.289 59.2568 35.605 58.6318C34.636 58.2568 33.752 57.8402 33.626 57.7152C33.163 57.2568 30.678 55.6318 30.384 55.6318C30.047 55.5902 15.2679 40.9652 13.4152 38.7568C11.1416 36.1318 9.91337 33.947 9.62577 33.5902C9.45627 33.3798 9.42647 33.2685 9.33097 33.1318C8.94557 32.5802 7.14157 30.1735 5.37307 26.2568C2.63627 20.2152 2.72047 13.6735 5.54157 9.6318C6.88887 7.7568 8.82577 6.0485 9.92047 5.7985C10.4679 5.6318 10.8889 5.3818 10.8889 5.2152C10.8889 4.8818 12.1521 4.5902 14.131 4.4235C14.6784 4.4235 16.2784 4.7985 17.71 5.2568Z" fill="white"></path><path d="M70.0921 10.5896C57.9041 -5.34511 42.3291 10.5056 36.0661 20.4228C19.4095 -4.18521 7.38249 2.4151 2.89679 10.554C2.14549 35.3816 25.2511 54.2151 37.3551 59.1737C65.9991 42.4322 71.6161 20.0866 70.0921 10.5896Z" fill="white" stroke="white"></path></g></svg> 