<?xml version="1.0" encoding="UTF-8"?> <svg xmlns="http://www.w3.org/2000/svg" width="178" height="355" viewBox="0 0 178 355" fill="none"><path d="M38.5957 42.2C47.3957 33.2 57.3957 25.8 68.3957 20C79.5957 14.2 88.5957 11.2 95.1957 11.2C100.796 11.2 104.196 13.4 104.196 18.4C104.396 25.8 96.1957 40.4 80.3957 57C59.5957 78.4 39.7957 91.8 29.1957 91.8C22.9957 91.8 17.9957 88.4 17.9957 79.8C17.9957 70.4 25.5957 55.2 38.5957 42.2ZM100.796 17.4C100.796 15.6 99.1957 14 96.7957 14C92.5957 14 85.7957 17.2 76.5957 23.4C67.3957 29.6 57.5957 38 47.1957 48.6C41.1957 54.8 35.9957 61.4 31.5957 68.4C27.1957 75.2 24.9957 80.6 24.9957 84.4C24.9957 87.8 26.7957 89 29.3957 89C33.3957 89 39.7957 85.8 48.3957 79.2C56.9957 72.6 66.5957 63.6 76.7957 52.6C82.5957 46.6 87.9957 40 92.9957 33C98.1957 26 100.796 20.8 100.796 17.4ZM177.658 4.6C177.458 12.6 170.858 21.4 165.058 25.6C159.258 30.2 152.658 34.4 144.858 37.8C137.258 41.2 130.658 44.4 124.858 47.4C123.458 56.8 121.858 68.4 116.258 76.4C110.458 85 100.058 91.8 88.8582 91.8C82.6582 91.8 77.4582 88.4 77.6582 81C77.8582 68.8 89.2582 57.2 114.658 47.4C116.258 38.4 118.058 30.4 123.058 23.8C129.258 15.8 137.658 11.6 147.258 11.6C151.858 11.6 155.258 13.4 156.858 15.6C157.658 16.6 158.258 18.4 157.258 19.2C156.258 20 155.458 18.8 154.658 18C153.058 16.4 150.858 14.4 146.658 14.4C140.458 14.4 134.658 18.4 130.458 25C127.858 29.2 126.058 37 125.258 43.4L140.058 36.4C147.058 33 154.258 28.4 161.258 22.6C168.458 16.8 174.058 11 174.658 4.39999C174.858 2.6 174.858 0.399997 175.858 0.199994C177.658 -3.57628e-06 177.658 2.99999 177.658 4.6ZM114.058 51.6C93.2582 59.4 81.4582 71 81.2582 80.6C81.0582 86.4 84.4582 88.6 89.2582 88.6C96.6582 88.6 103.058 82.8 107.258 74.6C111.058 68 113.258 56.6 114.058 51.6ZM38.5957 173.2C47.3957 164.2 57.3957 156.8 68.3957 151C79.5957 145.2 88.5957 142.2 95.1957 142.2C100.796 142.2 104.196 144.4 104.196 149.4C104.396 156.8 96.1957 171.4 80.3957 188C59.5957 209.4 39.7957 222.8 29.1957 222.8C22.9957 222.8 17.9957 219.4 17.9957 210.8C17.9957 201.4 25.5957 186.2 38.5957 173.2ZM100.796 148.4C100.796 146.6 99.1957 145 96.7957 145C92.5957 145 85.7957 148.2 76.5957 154.4C67.3957 160.6 57.5957 169 47.1957 179.6C41.1957 185.8 35.9957 192.4 31.5957 199.4C27.1957 206.2 24.9957 211.6 24.9957 215.4C24.9957 218.8 26.7957 220 29.3957 220C33.3957 220 39.7957 216.8 48.3957 210.2C56.9957 203.6 66.5957 194.6 76.7957 183.6C82.5957 177.6 87.9957 171 92.9957 164C98.1957 157 100.796 151.8 100.796 148.4ZM177.658 135.6C177.458 143.6 170.858 152.4 165.058 156.6C159.258 161.2 152.658 165.4 144.858 168.8C137.258 172.2 130.658 175.4 124.858 178.4C123.458 187.8 121.858 199.4 116.258 207.4C110.458 216 100.058 222.8 88.8582 222.8C82.6582 222.8 77.4582 219.4 77.6582 212C77.8582 199.8 89.2582 188.2 114.658 178.4C116.258 169.4 118.058 161.4 123.058 154.8C129.258 146.8 137.658 142.6 147.258 142.6C151.858 142.6 155.258 144.4 156.858 146.6C157.658 147.6 158.258 149.4 157.258 150.2C156.258 151 155.458 149.8 154.658 149C153.058 147.4 150.858 145.4 146.658 145.4C140.458 145.4 134.658 149.4 130.458 156C127.858 160.2 126.058 168 125.258 174.4L140.058 167.4C147.058 164 154.258 159.4 161.258 153.6C168.458 147.8 174.058 142 174.658 135.4C174.858 133.6 174.858 131.4 175.858 131.2C177.658 131 177.658 134 177.658 135.6ZM114.058 182.6C93.2582 190.4 81.4582 202 81.2582 211.6C81.0582 217.4 84.4582 219.6 89.2582 219.6C96.6582 219.6 103.058 213.8 107.258 205.6C111.058 199 113.258 187.6 114.058 182.6ZM86.6004 273.2C92.4004 273.2 98.0004 276.4 98.0004 283.6C98.0004 293.4 92.0004 302.2 83.4004 308C76.8004 312.6 70.0004 316 63.0004 318.4C56.0004 320.8 48.6004 323.8 40.8004 327.4C34.2004 330.4 27.2004 334 19.8004 338.8C22.4004 338.2 25.8004 337.8 30.0004 337.8C35.4004 337.8 40.2004 338.8 44.4004 340.6C48.8004 342.4 52.2004 343.2 54.6004 343.4C57.6004 343.6 60.8004 342 64.6004 338.8C68.4004 335.6 71.6004 333 74.0004 330.8C75.0004 329.8 76.0004 329 77.0004 329.6C78.0004 330.4 76.8004 331.8 76.0004 332.6C71.8004 336.8 67.0004 341.2 61.2004 346.2C55.4004 351 51.0004 353.4 47.8004 353.2C43.6004 353 39.8004 351.8 36.0004 349.8C32.4004 347.8 27.2004 346.6 20.4004 346.2C14.8004 346 9.80036 347 4.80036 352C4.00036 352.6 2.60036 354.4 1.60036 353.6C0.000359297 352.6 1.80036 350.4 3.20036 349C13.0004 339.2 25.0004 331.8 38.0004 324.8C45.8004 320.6 52.8004 317.2 58.8004 314.2C65.0004 311.2 71.6004 306.4 79.0004 300C86.4004 293.6 90.2004 286.6 90.2004 281.8C90.2004 278.6 88.8004 276.4 84.6004 276.4C77.2004 276.4 67.4004 281.8 61.8004 287.4C59.2004 290 57.2004 292.8 55.4004 296.8C51.2004 305 48.6004 306.8 46.8004 306.2C44.6004 305.4 45.0004 301.8 46.8004 298.8C49.4004 294.2 54.6004 289.2 60.0004 285C67.8004 278.4 77.6004 273.2 86.6004 273.2ZM170.891 280.8C170.891 282.6 169.891 283.8 168.891 284C167.891 284.2 167.891 283.4 166.891 280.8C166.091 279 164.891 275.8 159.891 275.8C150.891 275.8 139.291 284.4 128.691 294C118.891 303 108.891 312.6 101.891 321.2C101.691 321.4 101.891 321.8 102.091 321.6C114.891 310.4 124.891 305.2 131.291 305.2C135.491 305.2 138.491 307.8 138.491 313.6C138.491 320.2 134.891 328 125.891 336.6C114.891 347 100.691 353.8 90.891 353.8C85.291 353.8 81.291 351 81.291 344.8C81.291 338.2 84.091 330.8 89.691 322.6C95.291 314.4 100.891 307.4 106.691 302C112.891 296.2 120.691 289.8 130.291 283.2C140.091 276.6 149.691 273.2 159.491 273.2C166.691 273.2 170.691 276.6 170.891 280.8ZM132.891 310.8C132.891 309.2 131.691 308 129.891 308C124.491 308 111.691 315.6 97.891 328.6C90.491 335.2 85.891 342.8 85.891 346.8C85.891 350 87.891 351.2 90.891 351.2C95.891 351.4 104.091 345.6 119.491 329.6C128.891 319.8 132.891 314 132.891 310.8Z" fill="#3D332F"></path></svg> 