<?xml version="1.0" encoding="UTF-8"?> <svg xmlns="http://www.w3.org/2000/svg" width="952" height="2038" viewBox="0 0 952 2038" fill="none"><path d="M206.32 449C77.3203 520 60.3203 558 60.3203 624H413.32V640H25.3203V624C25.3203 535 55.3203 495 200.32 415C282.32 370 377.32 309 377.32 182C377.32 54 277.32 16 198.32 16C134.32 16 88.3203 30 40.3203 66V50C40.3203 50 100.32 -5.81741e-05 206.32 -5.81741e-05C312.32 -5.81741e-05 413.32 59 413.32 196C413.32 338 304.32 395 206.32 449ZM714.141 273C819.141 273 923.141 330 923.141 465C923.141 621 788.141 658 714.141 658C592.141 658 494.141 602 494.141 338C494.141 172 575.141 3.99995 760.141 3.99995C792.141 3.99995 828.141 6.99997 851.141 17.9999V35C820.141 22.9999 791.141 20 760.141 20C669.141 20 529.141 75 529.141 340C529.141 359 530.141 377 530.141 394C556.141 310 630.141 273 714.141 273ZM714.141 641C789.141 641 888.141 604 888.141 465C888.141 312 771.141 290 714.141 290C658.141 290 541.141 312 541.141 465C541.141 606 641.141 641 714.141 641ZM219 690C334 690 439 786 439 1018C439 1285 299 1348 219 1348C139 1348 1.13249e-06 1285 1.13249e-06 1018C1.13249e-06 786 105 690 219 690ZM219 1331C291 1331 403 1281 403 1018C403 759 281 706 219 706C157 706 35 759 35 1018C35 1281 147 1331 219 1331ZM742.461 963C847.461 963 951.461 1020 951.461 1155C951.461 1311 816.461 1348 742.461 1348C620.461 1348 522.461 1292 522.461 1028C522.461 862 603.461 694 788.461 694C820.461 694 856.461 697 879.461 708V725C848.461 713 819.461 710 788.461 710C697.461 710 557.461 765 557.461 1030C557.461 1049 558.461 1067 558.461 1084C584.461 1000 658.461 963 742.461 963ZM742.461 1331C817.461 1331 916.461 1294 916.461 1155C916.461 1002 799.461 980 742.461 980C686.461 980 569.461 1002 569.461 1155C569.461 1296 669.461 1331 742.461 1331ZM206.32 1829C77.3203 1900 60.3203 1938 60.3203 2004H413.32V2020H25.3203V2004C25.3203 1915 55.3203 1875 200.32 1795C282.32 1750 377.32 1689 377.32 1562C377.32 1434 277.32 1396 198.32 1396C134.32 1396 88.3203 1410 40.3203 1446V1430C40.3203 1430 100.32 1380 206.32 1380C312.32 1380 413.32 1439 413.32 1576C413.32 1718 304.32 1775 206.32 1829ZM714.141 1653C819.141 1653 923.141 1710 923.141 1845C923.141 2001 788.141 2038 714.141 2038C592.141 2038 494.141 1982 494.141 1718C494.141 1552 575.141 1384 760.141 1384C792.141 1384 828.141 1387 851.141 1398V1415C820.141 1403 791.141 1400 760.141 1400C669.141 1400 529.141 1455 529.141 1720C529.141 1739 530.141 1757 530.141 1774C556.141 1690 630.141 1653 714.141 1653ZM714.141 2021C789.141 2021 888.141 1984 888.141 1845C888.141 1692 771.141 1670 714.141 1670C658.141 1670 541.141 1692 541.141 1845C541.141 1986 641.141 2021 714.141 2021Z" fill="white"></path></svg> 