<?xml version="1.0" encoding="UTF-8"?> <svg xmlns="http://www.w3.org/2000/svg" width="9852" height="6054" viewBox="0 0 9852 6054" fill="none"><path d="M1415.95 0C900.836 0.000203619 167.841 404.046 0 621.805V5535H9852V1043.71C8838.32 279.77 8199.55 175.784 7473.5 106C6469.5 9.5 5225.76 545.355 4721.39 621.805C4293.21 686.705 3414.63 594.585 2878.04 371.616L2868.53 367.661C2571.94 244.394 1983.93 -0.000224517 1415.95 0Z" fill="#ECD6D4"></path><path d="M8045.13 6054.01C8702.46 6054.01 9637.82 5814.13 9852 5684.86V2768.01L3 2768.01V5947C1284.19 6004.29 3183.47 5730.24 3827.1 5684.86C4373.49 5646.33 5494.64 5701.02 6179.37 5833.39L6191.51 5835.74C6569.98 5908.92 7320.34 6054.01 8045.13 6054.01Z" fill="#ECD6D4"></path></svg> 