<?xml version="1.0" encoding="UTF-8"?> <svg xmlns="http://www.w3.org/2000/svg" width="118" height="53" viewBox="0 0 118 53" fill="none"><path d="M0.350246 37.487L5.16589 34.3022L-3.50838e-05 31.7241L0.350246 37.487ZM65.6672 1.10726L65.7309 0.611338L65.6672 1.10726ZM116.018 51.9538C116.036 52.2293 116.275 52.4375 116.55 52.4188C116.826 52.4 117.034 52.1615 117.015 51.886L116.516 51.9199L116.018 51.9538ZM2.35875 33.4623L2.79612 33.7046C8.55618 23.3076 27.2447 -3.32451 65.6035 1.60319L65.6672 1.10726L65.7309 0.611338C26.7459 -4.3968 7.74467 22.7088 1.92139 33.22L2.35875 33.4623ZM65.6672 1.10726L65.6035 1.60319C89.3299 4.65116 101.915 17.243 108.586 29.0626C111.926 34.9804 113.785 40.7103 114.809 44.9612C115.32 47.0861 115.623 48.8394 115.798 50.0593C115.885 50.6692 115.94 51.1455 115.973 51.4681C115.99 51.6293 116.001 51.7521 116.008 51.834C116.012 51.8749 116.014 51.9055 116.015 51.9256C116.016 51.9356 116.017 51.943 116.017 51.9478C116.017 51.9501 116.017 51.9518 116.017 51.9528C116.018 51.9533 116.018 51.9536 116.018 51.9538C116.018 51.9539 116.018 51.9538 116.516 51.9199C117.015 51.886 117.015 51.8856 117.015 51.885C117.015 51.8845 117.015 51.8838 117.015 51.8829C117.015 51.8812 117.015 51.8788 117.015 51.8758C117.014 51.8697 117.013 51.8609 117.013 51.8494C117.011 51.8265 117.008 51.793 117.004 51.7492C116.997 51.6616 116.985 51.5328 116.968 51.3654C116.933 51.0306 116.877 50.5413 116.787 49.9177C116.609 48.6706 116.301 46.8861 115.781 44.7271C114.741 40.4104 112.853 34.5887 109.457 28.5711C102.655 16.5199 89.8163 3.70541 65.7309 0.611338L65.6672 1.10726Z" fill="#412210"></path></svg> 