<?xml version="1.0" encoding="UTF-8"?> <svg xmlns="http://www.w3.org/2000/svg" width="41" height="40" viewBox="0 0 41 40" fill="none"><path d="M7.36875 0.00258836C7.28131 0.0017342 7.19387 0.000880042 7.10377 0C5.28679 0.00806584 3.66608 0.630274 2.37299 1.76064C1.04029 2.96444 0.476608 4.57717 0.220306 6.21513C0.212169 6.2666 0.204032 6.31806 0.195649 6.37109C-0.389027 10.3531 0.347105 14.5095 2.26448 18.1314C2.35218 18.2971 2.43856 18.4634 2.52495 18.6297C3.72 20.9128 5.19351 23.1045 6.73839 25.2128C6.81289 25.3162 6.88739 25.4197 6.96171 25.5232C7.03883 25.6306 7.11613 25.738 7.19347 25.8452C7.30632 26.0018 7.41881 26.1586 7.53117 26.3154C7.97118 26.928 8.42665 27.5302 8.88916 28.1294C9.00136 28.2754 9.11266 28.4218 9.22367 28.5685C9.74836 29.2607 10.2945 29.9364 10.8551 30.6057C10.8911 30.6487 10.9271 30.6918 10.9642 30.7361C11.1346 30.9398 11.3054 31.1432 11.4766 31.3463C11.6153 31.511 11.7533 31.676 11.8909 31.8414C12.2434 32.2644 12.5999 32.6818 12.9772 33.0876C13.1155 33.2368 13.2506 33.3878 13.3851 33.5396C14.0218 34.2524 14.695 34.9386 15.3823 35.6127C15.5216 35.7497 15.5216 35.7497 15.6332 35.8942C15.664 35.9286 15.6948 35.9631 15.7265 35.9986C15.7718 35.9986 15.817 35.9986 15.8637 35.9986C15.8788 36.0315 15.8939 36.0644 15.9095 36.0984C16.0318 36.2928 16.1955 36.4461 16.3654 36.6076C16.3979 36.639 16.4304 36.6704 16.4639 36.7027C16.6706 36.9015 16.883 37.0944 17.0987 37.2855C17.143 37.3258 17.1873 37.3661 17.233 37.4076C17.4935 37.6437 17.7604 37.8679 18.0418 38.0838C18.1937 38.2026 18.3421 38.3243 18.49 38.447C20.3771 40.0099 20.3771 40.0099 21.2159 39.9982C22.3787 39.906 23.5411 38.8469 24.316 38.1317C24.4381 38.0227 24.5651 37.9244 24.6974 37.8255C25.0325 37.5688 25.3217 37.2753 25.6183 36.9841C25.7661 36.8393 25.9172 36.6988 26.0739 36.5616C26.2748 36.3852 26.4598 36.1993 26.6437 36.0089C26.7877 35.8608 26.9344 35.7151 27.0817 35.5696C27.7431 34.9142 28.3938 34.2483 29.0156 33.5626C29.2078 33.3509 29.4053 33.1466 29.6117 32.9459C29.8942 32.6693 30.1513 32.379 30.4078 32.0833C30.6262 31.8324 30.8546 31.5932 31.0942 31.3582C32.8881 29.5483 34.3865 27.4436 35.6873 25.331C35.7633 25.2092 35.8412 25.0885 35.9197 24.9679C38.5025 20.9656 40.1938 16.1325 40.1736 11.5008C40.1735 11.4422 40.1734 11.3837 40.1733 11.3234C40.1704 10.4056 40.1268 9.51072 39.9463 8.60516C39.9364 8.55295 39.9265 8.50074 39.9162 8.44695C39.6411 7.0313 39.0654 5.68858 37.9566 4.62178C37.8711 4.53812 37.8711 4.53812 37.784 4.45277C36.3178 3.07815 34.1778 2.27724 32.0592 2.2193C29.2131 2.18172 26.6847 3.02229 24.5773 4.74434C24.4852 4.84601 24.3936 4.94809 24.3029 5.05076C24.2511 5.08599 24.1992 5.12122 24.1458 5.15752C23.9314 5.31701 23.7677 5.49717 23.5996 5.69423C23.5667 5.73241 23.5338 5.7706 23.4999 5.80994C23.4329 5.88789 23.366 5.96596 23.2993 6.04415C23.2166 6.14042 23.1323 6.23557 23.0478 6.33051C22.2251 7.27008 21.613 8.34248 21.0096 9.40183C20.9643 9.40183 20.919 9.40183 20.8723 9.40183C20.7687 9.25931 20.6739 9.11697 20.5807 8.96902C20.5188 8.87297 20.4568 8.77698 20.3947 8.68104C20.3445 8.60327 20.3445 8.60327 20.2932 8.52392C19.9474 7.99418 19.5852 7.47288 19.2257 6.95052C19.1897 6.89816 19.1538 6.84579 19.1167 6.79184C18.1195 5.34303 17.0019 3.87388 15.5206 2.78329C15.4627 2.73771 15.4048 2.69213 15.3451 2.64517C13.1445 0.940959 10.2647 0.0192614 7.36875 0.00258836Z" fill="#870505"></path></svg> 