<?xml version="1.0" encoding="UTF-8"?> <svg xmlns="http://www.w3.org/2000/svg" width="794" height="630" viewBox="0 0 794 630" fill="none"><path d="M763.216 4.68148C751.341 20.5639 744.958 42.0868 741.988 76.2265C740.797 90.1793 739.318 104.578 738.422 108.288C735.752 121.796 735.157 151.779 736.936 202.544C738.576 252.269 738.87 261.472 740.65 283.589C741.694 297.986 742.73 301.846 746.738 306.447C749.113 309.268 750.304 312.533 750.451 316.689C750.598 326.337 751.488 330.939 753.716 334.501C755.054 336.431 755.65 339.548 755.201 342.071C754.312 346.079 754.459 346.227 758.62 345.04C766.783 342.962 778.812 342.517 780.445 344.149C783.562 347.266 778.959 349.048 767.525 349.344C754.165 349.641 751.789 350.978 762.032 352.462C766.187 353.056 769.606 354.094 769.606 354.688C769.606 356.618 764.26 357.805 760.253 356.915C758.025 356.321 756.091 356.618 755.496 357.657C753.569 360.923 756.981 361.813 765.15 360.477C773.614 359.141 778.511 359.735 778.511 362.258C778.511 363.001 777.026 363.297 775.246 362.852C773.319 362.555 767.82 363.001 762.922 364.039C754.312 365.821 754.017 365.969 753.275 371.016C752.826 373.836 752.974 378.141 753.863 380.516C755.054 384.375 752.973 494.81 751.047 529.84C750.745 535.926 750.003 549.285 749.414 559.527L748.37 578.081L756.981 590.698C767.974 606.729 769.459 608.51 772.871 608.51C779.996 608.51 789.651 596.487 792.026 584.315C794.548 571.847 793.063 511.137 789.651 482.49C789.202 479.669 788.165 467.35 787.276 455.029C786.386 442.709 785.489 432.319 785.195 431.725C784.746 431.28 784.452 418.663 784.452 403.671C784.305 388.828 783.857 375.617 783.415 374.579C782.224 371.461 773.018 369.086 765.746 370.274C760.4 371.016 759.209 370.719 759.209 368.937C759.209 367.156 761.738 366.563 771.386 366.266L783.562 365.821L784.004 359.883C784.746 347.415 784.305 340.736 782.967 339.103C781.93 337.915 782.525 336.876 784.901 335.837C787.864 334.501 788.165 333.462 787.717 323.665C787.276 316.392 786.68 313.127 785.489 313.572C784.305 313.869 783.857 316.986 784.158 322.478L784.746 330.939L775.694 331.236C770.643 331.384 764.555 331.532 762.032 331.532L757.429 331.681L756.981 321.588C756.687 311.494 756.687 311.494 760.995 310.603C766.635 309.416 767.672 307.486 762.922 306.447C760.841 306.002 757.576 305.408 755.496 304.963C745.4 302.885 743.179 285.221 741.392 194.38C740.054 129.069 740.797 106.952 744.363 93.4446C745.253 90.6248 745.848 84.242 745.848 79.3433C745.848 59.8988 751.194 37.6337 760.694 17.4468C767.378 3.19714 769.158 2.60341 771.091 13.5875C772.423 20.5639 771.834 22.6419 769.459 19.228C766.783 15.5172 769.305 64.9456 772.724 84.9844C775.54 101.906 775.694 106.952 774.805 162.466C772.724 287.002 773.165 304.22 777.474 304.22C778.959 304.22 779.106 293.682 778.812 258.8C778.364 231.785 778.665 213.676 779.555 214.121C780.297 214.567 781.04 226.145 781.187 239.949C781.629 268.448 783.857 299.768 785.937 304.666C786.827 306.744 787.276 278.838 787.276 228.52C787.276 184.88 787.864 144.357 788.607 138.717C789.504 132.928 789.945 115.264 789.798 99.382C789.504 68.6564 788.165 58.4145 779.996 24.5716C773.761 -0.662136 770.349 -4.81828 763.216 4.68148ZM779.106 50.5475C784.901 80.0857 786.827 100.57 784.746 111.851C783.709 117.046 782.967 123.725 782.967 126.694C782.967 129.811 782.371 131.889 781.629 131.444C780.886 130.998 780.297 124.764 780.143 117.64C780.143 110.366 779.401 101.163 778.665 96.8591C777.768 92.7029 776.437 79.047 775.54 66.4299C774.503 53.9614 773.319 40.7508 772.577 37.04C771.238 30.0637 772.128 26.2043 774.209 29.9152C774.952 31.1026 777.026 40.454 779.106 50.5475ZM782.525 178.349C782.077 179.388 781.783 178.646 781.783 176.568C781.783 174.49 782.077 173.748 782.525 174.638C782.82 175.677 782.82 177.459 782.525 178.349ZM777.026 339.845C777.026 340.587 773.761 341.329 769.606 341.329C765.599 341.329 762.18 340.587 762.18 339.845C762.18 338.954 765.599 338.36 769.606 338.36C773.761 338.36 777.026 338.954 777.026 339.845ZM781.482 354.094C781.482 355.43 780.445 356.172 778.959 355.876C775.246 355.133 774.805 351.719 778.364 351.719C780.143 351.719 781.482 352.61 781.482 354.094ZM777.474 374.579C778.665 377.547 775.842 378.289 767.672 377.398C756.687 376.063 759.356 373.242 771.981 372.649C774.805 372.649 777.026 373.391 777.474 374.579ZM780.445 385.117C779.702 398.624 779.849 423.859 780.739 435.139C781.482 443.896 781.187 448.201 780.143 448.201C779.401 448.201 778.364 445.975 777.922 443.303C776.136 432.467 775.842 431.429 776.437 438.553C776.731 442.561 777.474 457.998 778.069 472.693C778.959 493.919 779.401 497.63 780.143 490.505C780.739 485.606 781.334 477.294 781.482 471.951L781.93 462.303L783.114 471.802C784.9 485.606 787.57 538.746 786.533 540.378C785.048 542.902 781.629 541.715 780.886 538.301C780.592 536.519 780.445 543.347 780.886 553.589C781.93 583.573 776.878 594.26 769.011 578.675L765.15 570.808V515.145C765.15 455.475 763.959 421.483 761.885 421.483C761.29 421.483 760.547 425.343 760.547 429.944L760.253 438.553L759.062 429.647C758.466 424.749 757.429 412.28 756.834 401.89L755.797 383.039L759.356 382.297C765.297 380.961 771.533 380.219 776.283 380.516C780.298 380.664 780.739 381.109 780.445 385.117ZM762.18 510.395C762.18 526.129 761.738 539.637 761.29 540.378C760.841 541.121 759.51 541.715 758.172 541.715C756.238 541.715 755.944 538.152 756.54 513.067C756.981 497.481 757.724 483.38 758.466 481.896C761.29 475.513 762.327 483.528 762.18 510.395ZM787.423 547.801C787.423 548.542 786.386 549.136 785.195 549.136C784.004 549.136 782.967 548.098 782.967 546.91C782.967 545.574 783.857 545.129 785.195 545.574C786.386 546.168 787.423 547.058 787.423 547.801ZM759.209 572.737C759.209 574.518 756.238 576.448 755.201 575.409C754.165 574.37 756.091 571.402 757.878 571.402C758.62 571.402 759.209 571.995 759.209 572.737ZM762.18 578.675C762.18 580.456 758.025 581.94 757.135 580.456C756.687 579.714 756.687 578.823 757.282 578.229C758.62 576.893 762.18 577.19 762.18 578.675ZM788.018 579.565C787.122 581.94 784.452 582.682 784.452 580.604C784.452 578.972 786.085 577.339 787.57 577.339C788.313 577.339 788.46 578.378 788.018 579.565ZM785.937 585.503C785.937 586.69 784.901 587.729 783.709 587.729C781.334 587.729 780.739 585.948 782.525 584.315C784.158 582.534 785.937 583.128 785.937 585.503ZM777.621 596.338C778.959 598.416 775.842 601.533 773.466 600.643C770.047 599.307 770.496 595.151 773.908 595.151C775.54 595.151 777.18 595.744 777.621 596.338Z" fill="#30352B"></path><path d="M350.553 28.1322C326.501 33.1789 307.788 40.8975 296.949 50.3972C289.081 57.3736 286.853 58.4127 275.272 61.3813C270.228 62.7172 259.981 66.8734 252.854 70.584C236.225 79.1934 226.871 88.693 221.08 103.091C215.141 118.083 215.29 117.786 208.608 118.825C201.777 119.716 192.572 125.504 174.755 140.348C159.907 152.668 150.85 163.355 140.753 180.277C129.915 198.238 127.687 209.518 131.845 225.994C132.587 228.666 131.251 231.338 126.203 237.275C118.185 246.627 116.552 252.267 115.215 276.016C114.473 291.305 114.621 294.719 116.997 299.617C119.521 305.406 119.521 305.703 116.552 311.938C114.622 315.945 113.73 319.805 114.324 322.476C114.77 324.851 114.324 327.523 113.136 328.859C111.503 330.937 111.652 331.679 114.622 333.757C119.521 337.468 117.739 342.812 111.652 342.812C106.158 342.812 104.822 345.781 107.049 352.905C108.088 356.022 108.237 358.991 107.346 360.475C106.307 362.405 105.564 361.663 103.634 357.061C99.7734 347.71 99.1792 333.163 102.298 322.031C105.415 310.898 105.564 301.844 103.04 292.344C101.852 288.337 101.406 279.876 101.704 270.822C102.149 258.947 103.04 254.642 105.712 249.299C109.573 242.025 120.709 227.033 122.491 227.033C122.936 227.033 123.381 220.502 123.381 212.487C123.381 195.862 126.203 185.62 135.705 167.808C145.95 148.809 158.273 135.153 177.873 121.349C187.82 114.372 207.42 103.833 210.389 103.833C211.725 103.833 212.765 103.091 212.765 102.2C212.765 99.3806 202.372 102.2 192.126 107.692C167.777 121.052 148.919 139.012 131.399 165.879C117.294 187.698 115.661 192.596 116.7 209.37C117.442 221.541 117.294 222.877 114.176 226.736C109.127 232.822 101.852 246.775 99.1792 255.532C95.913 266.665 96.21 286.852 99.9219 298.875L103.04 308.672L99.1792 319.211C93.0923 336.429 94.4284 359.139 102.001 365.225C104.673 367.452 104.822 368.342 103.337 373.389C99.9219 385.115 99.6249 392.537 102.149 403.076C104.97 414.654 111.503 425.935 117.888 430.536C121.897 433.356 122.194 434.395 122.194 442.707C122.342 464.527 133.775 491.542 154.71 519.893C163.619 532.065 181.881 546.314 193.908 550.768C197.175 551.955 200.59 554.478 201.629 556.556C206.678 566.353 236.225 590.25 255.081 599.899C262.206 603.61 273.787 607.172 281.066 608.062C289.382 608.953 307.788 605.985 316.552 602.273C323.531 599.305 326.354 600.492 324.869 605.688C324.273 607.618 326.354 608.805 334.663 611.477C340.457 613.406 348.031 614.891 351.443 614.891C363.767 614.891 380.4 612.664 383.069 610.734C386.929 607.914 385.003 606.875 379.061 608.508C370.745 610.883 343.274 612.07 338.524 610.14C334.965 608.805 334.663 608.211 336.296 605.688C338.671 601.829 335.553 598.117 329.913 598.117H325.457L327.832 593.516C334.222 581.345 331.251 565.462 322.641 565.462C317.148 565.462 313.729 568.876 313.729 574.516C313.729 578.376 312.839 579.266 306.898 581.79C303.185 583.423 299.92 584.758 299.625 584.758C299.324 584.758 299.478 579.86 299.773 573.923C300.81 558.041 300.662 557.447 297.993 555.517C289.677 549.431 277.948 558.634 280.324 569.321C283.883 585.204 287.007 586.985 287.007 572.884C287.007 562.048 287.897 559.525 292.199 559.525C295.317 559.525 295.464 560.119 295.17 568.727C295.022 573.923 294.427 579.266 293.831 580.602C293.243 581.938 293.39 584.165 294.133 585.649C297.103 590.993 292.346 596.485 286.412 594.258C285.074 593.813 283.588 591.884 283.147 589.954C282.404 587.133 281.066 586.539 272.603 585.649C267.257 585.055 260.573 583.72 257.605 582.383C248.697 578.672 232.661 564.572 223.01 551.955C218.11 545.423 213.656 540.377 213.211 540.822C212.023 541.861 215.586 550.174 219.743 556.705C223.01 561.751 247.063 582.383 253.596 585.946C255.378 586.836 261.911 587.727 268.294 587.876C278.544 588.321 279.728 588.618 279.133 590.993C278.243 594.406 283.294 598.117 288.64 598.117C290.868 598.117 294.728 596.336 297.25 594.258L301.853 590.399L304.824 593.962C307.788 597.375 307.788 597.375 310.016 594.406C311.354 592.774 313.288 590.25 314.472 588.915C315.663 587.43 317.148 583.423 317.589 580.009C319.523 567.243 325.611 567.54 325.611 580.306C325.611 589.063 321.751 594.258 310.758 600.195C303.486 604.203 302.148 604.351 290.125 603.61C272.897 602.719 265.176 599.899 247.657 588.618C225.237 574.071 217.665 568.431 209.202 559.822C205.044 555.517 195.245 547.65 187.376 542.455C179.655 537.259 169.261 528.799 164.361 523.604C154.562 513.065 140.308 490.355 134.518 476.253C130.954 467.348 126.796 448.645 126.648 440.629C126.648 438.552 123.827 432.466 120.561 427.27C111.355 413.169 108.682 406.044 108.237 394.17C107.346 368.936 114.324 354.835 131.696 347.265C140.753 343.109 147.286 344.147 152.631 350.53C156.789 355.577 157.086 360.178 153.077 362.702C150.998 363.889 149.514 363.296 145.505 359.436C139.714 353.796 136.893 353.351 137.487 357.952C137.784 360.921 137.041 361.366 131.548 361.811C126.351 362.256 124.421 363.296 120.709 367.748C113.285 376.655 110.018 391.349 113.285 400.107L114.918 404.115L118.185 400.849C120.115 399.216 122.342 397.732 123.233 397.732C126.054 397.732 126.796 402.482 124.421 405.153C123.233 406.49 122.194 410.052 122.194 413.02C122.194 417.622 123.381 419.7 128.726 424.895C134.814 430.685 135.408 432.02 136.744 441.52C138.971 457.551 146.544 480.261 154.413 493.917C167.034 516.182 193.166 538.744 206.529 538.744H212.023L206.083 535.627C195.096 529.689 186.93 523.307 174.606 511.284C163.916 500.745 161.392 497.183 155.007 483.675C150.998 475.215 147.435 466.605 146.989 464.527C143.872 449.238 136.151 427.567 132.439 423.262C126.5 416.435 125.609 412.13 129.469 407.232C131.251 405.006 132.587 402.334 132.587 401.294C132.587 399.81 134.518 399.216 138.971 399.216C152.186 399.216 162.282 393.427 162.282 385.857C162.282 379.327 158.126 376.803 149.217 377.99C143.129 378.584 140.902 378.287 138.823 376.506C136.596 374.428 135.408 374.279 131.399 375.764C127.687 377.248 126.351 377.248 124.866 375.764C121.451 372.35 125.46 368.788 132.735 368.788C136.299 368.788 140.456 368.194 141.793 367.452C143.129 366.858 145.505 367.006 147.286 367.897C151.741 370.42 154.71 369.826 158.57 365.819C165.995 358.545 161.392 346.374 149.365 341.03C143.277 338.358 141.644 338.21 135.705 339.695C125.609 342.218 124.421 342.218 124.421 339.843C124.421 335.835 120.264 324.406 117.888 321.586C115.958 319.211 116.255 318.468 122.194 312.383L128.726 305.703L123.975 300.805C119.224 295.907 119.224 295.758 119.224 280.915C119.224 261.767 121.154 252.861 127.093 243.955C137.635 228.221 137.19 229.705 135.557 220.651C130.36 193.339 159.313 152.074 201.036 127.434C212.468 120.606 215.883 120.458 217.22 126.841C220.337 141.832 232.958 149.996 241.867 142.723C248.697 137.231 246.47 130.552 237.858 130.552C235.482 130.552 233.552 130.403 233.552 130.106C234.294 124.911 239.491 110.513 240.828 110.067C241.718 109.77 243.203 111.552 244.094 114.224C245.43 117.934 246.47 118.677 248.993 118.083C250.924 117.637 254.042 118.528 256.566 120.161C266.367 126.544 272.603 121.942 268.294 111.404C265.477 104.279 258.348 99.3806 250.924 99.3806C247.954 99.3806 245.282 98.7866 244.837 98.0442C243.351 95.8176 257.754 84.8338 268 80.2321C273.198 77.8577 280.765 75.4827 284.779 74.8887C289.53 74.1463 294.28 72.2167 297.846 69.2483C308.684 60.7876 313.876 57.8189 323.082 54.8503C335.259 51.1394 356.789 47.4286 367.627 47.4286C380.4 47.4286 414.548 51.8816 421.379 54.4049C424.643 55.5924 428.357 56.6315 429.541 56.6315C430.732 56.6315 440.828 56.0377 451.96 55.444C471.262 54.4049 487.447 56.1861 487.447 59.1548C487.447 59.897 484.63 61.5298 481.358 63.1626C472.895 66.8734 467.402 75.1857 468.74 82.4587C470.373 90.4742 472.601 94.4819 476.608 96.2631C478.542 97.154 480.77 97.8957 481.512 97.8957C484.63 97.8957 487.447 92.8493 487.447 87.3574C487.447 81.8655 489.233 79.7874 491.16 83.0527C491.608 83.7951 493.388 84.5368 495.02 84.5368C497.101 84.5368 497.844 83.4981 497.844 80.8261C497.844 76.6698 502.594 71.178 506.006 71.178C507.197 71.178 508.234 72.3651 508.234 73.9985C508.234 75.4827 507.197 77.5608 506.006 78.5995C502.888 81.123 503.189 84.0914 506.749 85.2793C510.91 86.6149 510.462 88.693 505.712 90.7712C495.469 95.0759 491.755 103.537 497.543 108.732C503.484 114.075 515.808 109.919 521.602 100.568C524.124 96.4115 524.565 93.5917 524.271 83.0527L523.977 70.4355L530.955 70.584C539.713 70.584 541.646 72.3651 539.271 77.5608C536.889 82.7557 539.566 86.021 546.095 86.021C551.588 86.021 556.492 89.287 559.162 94.9274C560.353 97.3025 565.698 101.013 574.309 105.318C587.67 111.997 604.744 122.685 604.744 124.466C604.744 124.911 606.972 127.731 609.648 130.552C629.693 152.223 651.223 192.3 655.973 216.643C656.414 218.572 659.98 223.62 663.988 227.627C670.966 234.752 676.017 243.51 676.017 248.556C676.017 249.743 674.532 252.267 672.753 254.048C668.738 258.056 670.819 261.915 677.054 262.064C679.429 262.064 682.106 262.658 683.143 263.251C685.224 264.587 685.518 276.016 683.437 276.016C682.694 276.016 678.834 273.938 674.974 271.563C669.334 268.001 666.363 267.111 659.686 267.111C650.921 267.111 648.399 268.298 644.245 274.532C641.568 278.54 640.973 288.634 643.348 290.118C646.024 291.75 650.774 289.227 650.774 286.407C650.774 284.774 652.112 282.845 653.598 281.954C657.458 279.876 657.752 280.024 658.642 283.586C659.385 286.407 660.128 286.704 666.069 285.813C671.113 285.071 673.047 285.368 674.532 287.149C677.201 290.415 673.194 294.422 666.664 294.867C664.135 295.016 658.642 295.758 654.488 296.352C648.252 297.391 646.914 298.133 645.73 301.695C644.539 304.961 644.833 306.446 647.362 309.859C651.664 315.648 662.208 316.094 675.128 310.898C677.356 309.859 677.65 310.156 676.907 312.679C675.275 317.578 677.356 320.101 684.334 321.883C687.893 322.773 690.864 324.109 690.864 324.702C690.864 328.265 683.29 343.702 679.878 347.413C675.87 351.718 675.716 352.163 675.87 368.491C676.017 383.037 675.422 390.756 672.451 412.576C671.267 419.997 663.245 441.668 657.9 451.02C650.179 464.972 627.016 492.136 618.553 497.331C614.104 500.151 613.656 501.042 614.398 504.901C615.582 509.799 612.023 516.479 608.457 516.479C607.273 516.479 604.898 517.815 603.259 519.447C600.736 521.971 599.699 522.119 597.177 520.932C590.493 517.221 587.074 527.463 593.015 533.697C596.434 537.408 595.692 540.228 591.236 540.228C589.155 540.228 588.412 539.189 588.412 536.072C588.412 525.236 581.287 513.065 571.934 508.167C569.706 507.128 564.809 506.088 561.095 506.088C555.75 506.088 553.97 506.831 551.441 509.948C549.661 512.174 548.323 515.143 548.323 516.628C548.323 520.635 553.669 523.604 559.61 522.862C564.956 522.119 566.14 523.752 562.434 526.87C559.015 529.689 559.61 531.026 566.14 534.291C571.338 536.963 572.081 538.002 572.081 542.604C572.081 547.502 571.787 547.798 568.074 547.353C564.809 547.056 563.765 546.017 563.176 542.604C562.728 540.228 561.243 537.556 559.757 536.666C557.529 535.33 556.492 535.775 553.375 539.486C550.404 543.197 549.514 543.642 548.323 541.713C547.581 540.525 546.838 537.408 546.838 534.885C546.838 528.651 544.021 526.276 538.676 528.354C529.47 531.916 528.58 540.228 536.448 548.392C540.904 552.993 551.294 557.595 551.294 555.072C551.294 554.33 548.029 551.955 544.021 549.877C535.257 544.978 532.286 540.377 534.668 535.034C535.852 532.51 537.632 531.322 540.161 531.322C543.279 531.322 543.867 532.065 543.867 535.33C543.867 540.971 549.066 549.134 552.632 549.134C554.86 549.134 555.449 548.095 555.154 544.236C555.007 538.15 559.162 537.556 559.904 543.642C560.353 546.611 561.691 548.244 565.551 549.877L570.743 551.955L567.478 558.338C565.698 561.9 563.323 565.908 561.985 567.243C559.904 569.767 559.463 569.618 554.713 564.72C551.889 561.9 548.772 559.525 547.728 559.525C544.168 559.525 542.235 563.532 543.132 568.876C544.021 573.626 543.72 574.22 538.529 577.188C534.22 579.86 531.55 580.306 526.947 579.712C520.116 578.672 518.925 579.266 504.374 590.25C481.66 607.618 459.24 614.594 425.827 614.891C407.569 615.039 404.003 614.742 397.025 611.774C392.569 609.992 388.562 608.953 388.12 609.25C385.15 612.367 407.422 620.382 418.849 620.382C447.953 620.382 500.366 602.57 513.881 588.024C519.962 581.641 520.558 581.345 524.719 582.829C530.212 584.907 537.786 582.977 544.021 577.782C547.882 574.368 548.47 573.181 547.581 568.876C546.992 565.165 547.139 563.978 548.919 563.978C551.588 563.978 554.264 568.431 554.264 572.884C554.264 576.001 554.264 576.001 558.868 573.329C567.478 568.283 576.537 552.993 576.537 543.642C576.537 536.518 575.199 534.44 569.853 533.103C564.809 531.768 563.022 528.354 567.331 528.354C572.228 528.354 574.015 524.791 570.743 521.674C567.625 519.003 563.618 518.557 556.934 520.19C553.073 521.229 552.779 520.932 552.779 516.776C552.779 511.877 557.235 507.573 562.132 507.573C566.882 507.573 575.647 513.362 579.508 519.003C582.773 523.901 583.214 525.83 583.067 538.596C583.067 546.463 582.177 555.22 581.14 558.338C576.684 571.548 550.852 587.43 531.698 588.915C522.491 589.508 521.153 590.102 514.028 596.04C509.866 599.751 498.285 606.727 488.336 611.625C471.417 619.937 469.189 620.679 450.328 623.5C428.651 626.765 411.283 626.468 397.768 622.461C392.275 620.976 387.525 620.679 377.723 621.719C359.612 623.648 343.722 621.719 328.575 615.929C321.597 613.258 315.067 610.437 314.03 609.547C312.986 608.805 311.802 608.508 311.354 608.805C309.427 610.734 329.619 622.164 340.605 625.43C350.553 628.398 368.517 628.398 379.804 625.43C387.672 623.5 389.606 623.351 396.878 625.43C415.29 630.328 425.239 631.07 438.6 628.695C445.431 627.359 453.151 626.023 455.527 625.726C464.586 624.687 472.005 622.906 477.799 620.382C496.359 612.367 513.138 603.313 519.072 598.117C523.823 593.813 527.095 592.181 530.507 592.181C536.889 592.181 555.897 585.649 563.471 580.899C571.934 575.556 579.206 568.579 583.368 562.197C585.596 558.634 588.118 556.556 589.898 556.556C604.001 556.556 625.384 531.026 625.531 514.104C625.531 508.464 625.979 507.87 631.472 505.347C638.45 502.229 651.223 489.464 659.98 477.293C665.473 469.426 668.591 462.894 681.216 432.614C687.746 416.88 694.128 386.006 694.43 368.045C694.724 355.873 695.319 352.757 698.879 345.484C706.305 330.491 705.71 312.679 697.246 293.977C694.128 287.149 693.981 285.219 695.172 278.392C696.658 270.228 695.614 262.212 691.606 250.04C688.488 240.689 680.319 225.994 675.422 220.799C672.599 217.831 671.562 215.159 671.562 210.557C671.562 201.057 666.51 186.066 658.642 172.41C638.598 137.825 614.104 110.661 592.868 99.3806C585.89 95.6698 578.317 92.4038 575.794 91.9584C572.228 91.3651 570.743 89.7325 568.074 84.3883C561.838 71.3264 548.919 61.9751 529.764 57.0768C525.014 55.8893 519.073 54.8503 516.845 54.8503C514.028 54.8503 510.763 52.9206 506.307 48.3192C498.881 41.0459 487.601 36.5929 470.373 34.3664C457.902 32.7336 451.666 33.1789 442.607 36.1476C436.078 38.5226 435.629 38.3741 429.099 34.8117C412.768 25.6088 376.981 22.6401 350.553 28.1322ZM404.893 33.4758C411.43 34.8117 420.636 37.3351 425.239 39.2647C432.511 42.2334 434.739 42.5302 440.232 41.1943C455.232 37.7804 491.608 43.5693 503.337 51.1394C507.793 54.1081 506.749 55.8893 499.329 57.0768C494.726 57.8189 492.498 57.3736 489.233 54.9987C480.917 49.2098 452.115 47.2801 436.225 51.5847C432.96 52.4753 430.136 52.1784 425.827 50.2488C411.43 43.8662 375.642 39.5615 356.046 41.7881C337.935 43.8662 311.501 53.069 304.67 59.6001C293.089 70.584 291.758 71.178 280.618 71.178C270.375 71.178 269.184 71.4749 258.793 78.0062C239.788 89.584 235.928 94.9274 233.552 113.778C232.661 120.161 231.622 126.841 231.325 128.77C230.731 131.293 231.473 132.778 235.037 134.708C240.234 137.676 240.531 138.864 236.522 140.2C226.128 143.465 217.962 122.536 223.455 106.654C226.425 97.7479 234.74 86.318 242.015 80.9746C250.182 75.0372 269.184 66.5765 280.765 63.7563C285.522 62.7172 292.052 59.4517 297.398 55.444C327.244 33.4758 364.657 25.9057 404.893 33.4758ZM531.102 61.0844C534.367 61.8266 538.374 63.311 540.007 64.35C560.5 76.9668 563.618 79.4904 566.735 85.8732C569.412 91.3651 570.897 92.8493 576.537 94.6304C580.25 95.8176 585.743 98.4897 588.714 100.419C591.831 102.2 594.949 103.833 595.692 103.833C596.435 103.833 600.883 106.802 605.788 110.364C613.361 116.153 627.465 132.184 639.046 148.364C651.223 165.285 665.032 191.409 666.363 199.573C666.664 201.948 667.407 206.549 667.848 209.518C668.297 212.487 670.966 218.275 673.642 222.135C680.319 231.931 684.032 239.354 687.746 250.486C691.312 261.618 693.386 281.063 691.158 282.548C688.488 284.18 687.15 280.024 687.599 271.118C688.04 264.29 687.452 261.767 684.775 258.056C681.657 253.603 681.657 253.603 679.429 256.572C677.503 259.392 673.047 260.876 673.047 258.798C673.047 258.353 674.385 255.978 676.017 253.603C680.621 247.221 677.944 238.908 667.848 228.815C660.576 221.541 659.833 220.057 658.201 211.002C653.892 186.214 633.252 149.848 609.942 126.098C601.927 117.786 582.772 105.466 571.633 101.162C563.618 98.1927 561.691 96.7085 561.691 93.5917C561.691 88.3961 556.044 84.5368 548.47 84.5368C543.132 84.5368 540.904 83.9436 540.308 82.0133C539.271 79.4904 541.646 77.1153 545.205 77.1153C548.624 77.1153 543.867 72.5136 537.19 69.5452C528.426 65.5375 506.307 65.6859 499.623 69.6936C496.954 71.3264 493.241 72.6621 491.307 72.6621C485.667 72.6621 482.402 77.5608 483.586 84.5368C484.329 89.287 484.035 90.7712 482.101 91.5136C478.689 92.8493 476.02 89.1385 474.976 81.2715C473.939 74.8887 474.233 73.9985 478.395 69.9908C482.844 65.8343 493.241 61.9751 506.749 59.4517C513.727 58.1158 521.448 58.7095 531.102 61.0844ZM521.006 74.8887C521.602 76.9668 521.602 82.4587 521.3 87.0604C520.705 94.3334 519.815 96.1146 515.212 100.271C508.234 106.654 502.594 108.286 499.77 104.427C496.653 100.122 497.991 97.451 504.969 94.3334C511.947 91.0681 514.175 86.6149 511.506 80.8261C508.977 75.3342 510.91 71.178 515.808 71.178C519.072 71.178 520.264 72.0689 521.006 74.8887ZM255.675 105.911C259.833 108.138 264.735 114.224 264.735 117.193C264.735 120.012 258.793 118.677 255.527 114.966C253.745 112.888 251.221 111.552 250.033 111.849C248.697 112.294 246.173 110.661 244.242 108.138L240.679 103.833H246.173C249.142 103.833 253.448 104.872 255.675 105.911ZM676.017 275.719C684.033 279.579 688.783 285.219 696.062 299.766C701.408 310.008 701.555 311.047 700.959 321.883C700.518 329.75 699.033 335.984 696.062 342.812C692.944 350.233 691.606 356.17 690.716 368.045C690.121 376.655 688.937 386.303 688.194 389.568C687.297 392.834 685.966 399.068 685.076 403.521C681.657 420.443 672.451 447.606 664.731 463.934C660.87 472.246 645.429 491.097 636.524 498.37C629.693 504.01 621.524 508.018 619.597 506.831C616.325 504.901 618.553 501.932 627.906 495.846C639.487 488.276 643.649 483.824 651.068 471.801C659.238 458.293 674.084 422.224 676.613 409.607C682.4 379.623 683.143 369.975 680.473 358.397C679.282 352.905 679.429 352.311 684.922 346.374C688.937 341.921 691.011 337.914 692.496 331.976C694.724 321.883 693.239 319.508 685.224 318.765C680.915 318.468 679.731 317.726 679.731 315.351C679.731 312.828 680.621 312.383 685.518 312.531L691.158 312.679L690.268 306.297C688.488 292.493 677.054 281.063 666.811 282.696C661.017 283.438 659.833 282.399 662.951 279.282C664.289 277.946 663.988 277.352 662.061 276.61C660.429 276.016 657.157 277.204 652.855 280.321C649.142 282.845 645.576 284.922 644.833 284.922C640.23 284.922 647.509 272.009 652.554 271.266C658.642 270.376 669.186 272.306 676.017 275.719ZM682.547 294.274C684.922 297.985 680.473 304.368 672.753 308.227C662.503 313.57 650.774 312.086 650.774 305.703C650.774 303.328 651.517 302.883 655.23 303.625C657.9 304.219 659.686 303.922 659.686 303.031C659.686 302.141 662.65 300.953 666.363 300.36C673.495 299.32 677.503 296.649 677.503 292.79C677.503 290.118 680.473 290.859 682.547 294.274ZM687.893 304.961C687.893 307.93 687.15 308.672 684.18 308.672C680.025 308.672 679.878 308.227 681.952 304.071C684.18 299.914 687.893 300.508 687.893 304.961ZM114.77 351.718C114.77 352.46 113.73 353.202 112.543 353.202C111.355 353.202 110.316 352.46 110.316 351.718C110.316 350.827 111.355 350.233 112.543 350.233C113.73 350.233 114.77 350.827 114.77 351.718ZM125.609 379.178C127.242 380.217 129.32 380.811 130.212 380.514C131.251 380.068 133.032 380.811 134.072 382.146C136.299 384.818 148.919 385.264 151.592 382.592C154.264 379.92 156.64 383.928 154.71 387.638C152.928 390.904 142.387 393.873 136.151 392.834C133.626 392.388 130.805 392.537 130.212 393.131C129.469 393.873 126.054 394.021 122.639 393.576C116.997 392.982 116.255 392.537 116.255 389.272C116.255 385.412 120.115 376.952 121.897 376.952C122.491 376.952 124.124 377.99 125.609 379.178ZM621.376 518.409C614.398 534.291 600.589 549.877 591.089 552.993C587.228 554.181 586.633 553.29 587.817 548.541C588.412 545.869 590.493 543.791 593.758 542.455C599.104 540.229 602.222 535.627 599.104 534.588C595.839 533.549 592.721 529.541 593.163 527.167C593.464 525.533 595.391 524.643 599.104 524.643C602.074 524.495 605.641 523.307 606.972 521.971C608.31 520.487 610.391 519.447 611.428 519.447C612.619 519.447 614.693 517.666 616.178 515.292C621.972 506.237 625.685 508.464 621.376 518.409Z" fill="#30352B"></path><path d="M39.1981 36.1355C37.862 37.6198 37.2679 55.5802 37.1194 99.5164C36.8223 154.585 36.5252 160.968 34.4472 161.414C32.517 161.711 31.9229 159.781 31.1802 149.539C30.5861 142.711 29.25 123.563 28.0625 106.79C26.7257 90.0168 25.6867 67.1581 25.6867 55.8771C25.6867 35.6901 24.3506 30.9402 21.2322 39.401C20.3417 41.6275 19.7476 67.3065 19.7476 101.743C19.7476 152.359 19.4505 160.226 17.5203 160.226C14.996 160.226 13.6599 155.625 14.1055 149.093C14.254 146.57 13.8084 136.328 13.2143 126.086C12.4724 115.844 12.0268 92.6888 12.0268 74.5798C12.0268 44.1508 11.2841 37.4713 8.3149 40.5884C6.08764 42.815 3.11774 74.5798 2.67285 102.337C2.37579 119.11 1.63314 144.492 1.03901 158.741L0 184.718L4.00893 192.436C6.08766 196.741 7.86932 202.233 7.86932 204.608C7.86932 211.139 10.0966 216.037 16.9262 224.052C22.1234 230.138 23.1624 232.662 24.3506 241.419C28.3595 269.919 27.1713 299.605 21.5292 306.137C19.599 308.214 19.599 309.55 21.0836 314.3C22.7168 319.05 22.7168 320.831 20.9351 324.394C16.4813 333.3 14.6996 345.323 16.4813 353.339C18.8564 363.284 18.7086 367.291 16.0357 369.517C14.4026 370.854 14.2541 372.041 15.4416 374.267C18.4115 379.759 14.5511 436.906 9.50246 463.773C7.57226 474.015 8.46346 486.186 12.3239 504.741L15.7386 520.623L10.3936 533.685C-2.52434 565.599 -0.742678 580.59 17.6688 598.996C27.0227 608.199 34.1501 611.168 40.6827 608.347C48.2556 605.23 60.7273 589.051 64.2906 577.919L67.2605 567.974L61.9156 550.162C56.7184 532.795 56.5698 531.756 57.461 515.131C57.9066 505.631 58.7971 493.756 59.2427 488.71C59.8368 482.773 59.2427 475.796 57.7581 469.414C54.7882 456.054 52.5609 434.383 51.0763 404.844C49.8888 381.986 50.0373 380.353 52.858 375.158C55.3823 370.408 55.6793 368.924 54.1947 365.807C52.858 362.838 52.7095 359.721 54.0463 352.596C55.5309 344.729 55.3823 342.651 53.4521 338.94C47.6615 328.104 46.6218 324.69 46.7703 315.042C46.7703 309.402 45.8798 298.269 44.6916 290.106C43.3555 281.199 42.4643 266.356 42.6129 252.849L42.7614 230.435L49.8887 219.896C53.7491 213.959 56.8669 207.577 56.8669 205.646C56.8669 203.717 59.0942 197.483 61.6185 191.991C66.3694 182.045 66.5179 181.155 66.5179 161.711C66.5179 150.726 65.3304 130.243 63.9943 116.438C62.509 102.485 61.3214 83.1892 61.1729 73.3926C61.0244 63.5957 60.4303 51.5726 59.8368 46.6743L58.7971 37.7682L58.3515 50.3851C58.203 58.6974 57.6096 61.666 57.0154 59.2911C55.2338 53.6506 53.6006 97.142 54.1947 130.836C54.4911 152.507 54.1948 160.523 52.858 161.859C51.819 162.898 50.6307 163.343 50.0373 162.898C48.552 161.265 45.1372 135.289 43.6526 113.469L42.3165 92.6888L42.7614 123.117C43.5041 163.195 44.6916 168.835 51.9675 167.351C55.6793 166.608 56.7184 159.484 57.0154 129.797C57.164 104.564 58.5001 104.415 60.2817 129.055C60.7273 134.399 61.767 145.68 62.6575 154.141C65.0333 175.96 61.6185 191.694 53.7492 195.998C51.2248 197.335 50.7792 198.522 51.5219 202.084C52.116 205.35 51.0763 208.764 46.9189 216.482L41.4253 226.576H32.9619C23.6079 226.724 22.1234 225.537 15.293 212.178L12.0268 205.646L14.996 203.124L18.1144 200.748L14.4026 197.186C5.93914 189.319 5.79058 188.28 5.93911 125.344C5.93911 57.5099 8.3149 40.1432 9.94804 94.6184C10.5422 113.618 10.6907 129.649 10.2451 130.243C9.79954 130.984 10.2451 138.407 11.2841 147.015C13.0658 162.007 13.2143 162.452 16.7776 162.452C21.6778 162.452 22.2719 159.187 22.7168 132.765L23.1624 111.985L25.0925 134.992C27.3198 159.632 28.953 166.164 33.1104 166.164C39.6437 166.164 39.7922 164.382 39.1981 105.454C39.0496 74.7283 39.1981 50.0882 39.6437 50.5335C40.2378 50.9788 41.1283 57.6584 41.8709 65.3769L43.0584 79.3299L43.3555 57.5099C43.5041 36.2839 42.6129 31.9793 39.1981 36.1355ZM24.2021 75.767C24.2021 97.142 23.7565 108.126 22.7168 107.532C20.6388 106.345 20.6388 42.9634 22.7168 42.9634C23.608 42.9634 24.2021 54.8381 24.2021 75.767ZM37.4164 239.638C35.4862 249.286 36.8223 270.513 40.5341 288.028C44.3945 306.137 44.3946 307.621 40.2378 306.284C38.3076 305.691 34.7435 305.394 32.0714 305.543C29.5471 305.691 27.0227 305.246 26.7257 304.652C26.4293 303.91 27.3198 294.114 28.8044 282.684C32.0714 257.45 32.2199 249.138 29.5471 240.38L27.6169 233.701L32.2199 232.068C34.7436 231.178 37.2679 230.732 37.862 231.325C38.4554 231.771 38.1591 235.482 37.4164 239.638ZM38.0105 311.926C38.6039 313.41 39.0495 313.41 40.6827 311.926C43.5041 309.254 45.4342 309.699 44.2467 312.667C43.504 314.151 42.6129 318.308 42.168 322.018L41.2768 328.698L33.259 329.144C28.8044 329.441 24.647 328.995 24.0535 328.401C23.3109 327.66 23.7565 324.245 24.7955 320.683C25.9838 316.675 27.1713 314.745 27.7654 315.785C29.25 318.308 31.6258 316.527 31.6258 312.964C31.6258 309.847 36.8223 308.957 38.0105 311.926ZM38.7525 332.409C40.6826 332.409 44.2467 334.487 46.7703 336.862C51.2248 341.315 51.2248 341.612 50.3336 352.151C49.7402 358.088 49.2946 364.619 49.2946 366.846C49.2946 371.447 46.4732 372.338 43.504 368.776C42.168 367.143 42.0194 364.174 43.207 356.604C44.9887 343.987 43.8011 341.315 36.3774 341.315C26.5779 341.315 23.6079 346.065 25.0925 359.127C25.8352 365.361 25.5382 368.627 24.2021 370.26C21.0836 373.97 20.3417 372.783 20.1932 363.877C20.1932 359.276 19.599 352.151 19.0049 348.143C17.8174 341.018 17.9659 340.721 23.4594 335.823C27.4683 332.261 30.1412 330.925 32.2199 331.519C34.0016 331.964 36.8223 332.409 38.7525 332.409ZM39.9407 355.417C40.2378 370.557 40.2378 370.557 43.8011 373.822C46.7703 376.643 46.9188 378.424 47.3644 402.47C47.513 419.094 48.8491 435.719 50.7793 449.375C52.5609 461.101 53.6006 471.195 53.155 471.937C52.4124 473.273 47.9586 474.163 47.9586 472.976C47.9586 472.827 47.2159 468.671 46.4733 463.773C44.2467 450.711 42.6129 432.453 41.1283 403.954C40.5341 392.673 40.8312 386.588 41.8709 385.251C43.8011 383.025 42.6129 378.424 40.0893 378.424C39.1981 378.424 37.2679 379.611 35.7833 380.947C33.1104 383.322 32.6648 383.322 28.6559 380.799C23.7565 377.978 23.4594 378.127 25.8352 383.47C26.8742 385.697 29.25 387.626 31.7744 388.072C36.8223 389.259 37.1194 390.15 38.1591 408.852C40.2378 442.25 42.3165 462.882 44.3946 469.858C46.3247 476.984 46.1769 478.022 43.3555 484.405C41.1283 489.6 40.5342 493.608 40.8312 501.179L41.2768 511.271L43.0584 499.694C44.8401 489.452 47.3644 482.179 49.4432 482.327C49.8888 482.327 51.2248 483.218 52.7095 484.257C54.9367 486.038 54.7882 487.226 51.6704 500.139C49.1461 510.827 47.6615 514.389 45.7313 514.686C44.2467 514.983 42.6129 514.389 41.8709 513.201C40.8312 511.568 40.5341 511.717 40.5341 513.35C40.5341 514.537 39.0495 517.061 37.4164 518.842C34.4472 521.959 34.0016 522.107 30.7346 520.029C28.953 518.694 25.8352 517.951 24.0535 518.248C21.0836 518.694 20.4902 517.506 17.2232 504.592C13.0658 487.967 13.2143 483.218 17.6688 482.624C20.3417 482.179 21.3807 483.367 23.3109 489.155C24.647 493.015 25.6867 498.803 25.6867 501.92C25.6867 508.749 28.5081 509.49 28.953 502.663C29.3985 494.499 28.6559 489.155 26.2808 483.218C24.647 478.913 24.3506 475.203 25.0925 469.858C25.6867 465.703 26.4294 460.953 26.5779 459.32C27.4684 452.789 27.0228 411.227 25.9838 402.173C25.2411 395.79 24.9441 403.954 24.9441 426.664C24.9441 461.398 23.4594 473.421 19.1535 473.421C15.1445 473.421 13.5114 469.562 15.1445 463.476C16.6298 458.132 20.1931 388.814 19.302 382.283C19.1534 380.502 20.6387 378.572 23.4594 376.94C29.6956 373.525 31.4773 365.955 28.0625 356.901C25.0926 349.479 26.1323 346.51 32.0714 345.323C39.3466 343.838 39.7922 344.581 39.9407 355.417ZM50.0373 521.81C50.4822 523.146 50.9278 525.67 50.9278 527.451C50.9278 529.232 51.6704 531.459 52.5609 532.35C55.2338 535.021 61.3214 559.958 61.3214 568.271C61.3214 573.317 60.2817 578.66 58.3515 582.371C55.5308 588.457 45.7313 599.59 43.3555 599.59C41.7224 599.59 39.0495 594.543 39.0495 591.278C39.0495 588.012 43.3555 583.262 46.3247 583.262C48.1071 583.262 48.1071 583.708 46.7703 585.043C45.7313 586.082 44.9887 588.16 44.9887 589.793C44.9887 592.316 45.5828 592.019 48.2557 588.012C50.9278 583.708 51.0763 582.52 49.4432 579.551C47.81 576.582 47.9586 575.544 50.7793 571.684C54.1948 566.934 54.9367 558.177 52.4124 553.427C49.5917 548.38 47.9586 550.459 47.9586 559.067C47.9586 565.302 47.0674 569.012 44.2467 573.763C41.1283 579.106 39.7922 579.997 34.595 580.59C29.25 581.036 28.3595 580.59 23.4594 574.801C17.3717 567.528 15.7386 561.591 17.9659 555.059C20.1932 548.677 17.2233 549.271 14.4026 555.802C11.2841 563.372 11.8782 566.637 16.7776 571.684C20.9351 575.841 21.2322 576.434 19.0049 578.809C15.8872 582.223 16.1842 582.965 20.1932 582.223C22.569 581.778 24.2021 582.668 26.1323 586.23C29.1015 591.278 28.5081 598.105 25.2411 598.105C22.5689 598.105 16.4813 591.278 11.4326 582.52C7.72077 576.138 7.12667 573.763 7.42373 564.708C8.01786 544.224 16.1843 529.974 24.9441 533.982C29.5471 536.06 29.3986 540.662 24.9441 541.404C19.4505 542.295 13.957 544.966 13.0658 547.193C12.3238 549.271 12.6209 549.271 14.6996 547.49C17.5203 545.263 33.2589 545.411 37.7134 547.786C40.0892 548.974 41.1283 548.38 43.6526 543.927C45.4342 541.107 47.6615 538.732 48.849 538.732C50.0373 538.732 50.9278 537.99 50.9278 537.247C50.9278 535.021 46.0284 535.466 42.3165 538.138C39.1981 540.216 39.0495 540.216 39.0495 537.396C39.0495 535.615 39.6436 534.279 40.3863 534.279C41.1282 534.279 43.6526 533.537 46.0284 532.498L50.1858 530.865L44.9887 529.974C41.4253 529.38 39.6436 528.193 39.3466 526.264C38.3076 520.92 48.1071 516.764 50.0373 521.81ZM28.0625 526.412C29.1015 528.639 30.1412 529.232 31.1802 528.193C32.2199 527.154 33.2589 527.451 34.595 529.084C37.862 532.943 34.1501 535.318 29.5471 532.201C27.4684 530.865 23.7565 529.826 21.2322 529.826C16.1842 529.826 15.5901 528.193 19.1535 524.631C22.2719 521.513 25.9838 522.256 28.0625 526.412ZM37.2679 590.684C37.5649 593.504 38.4554 596.77 39.3466 597.66C42.168 601.074 39.4951 604.34 34.2987 603.746C28.953 603.301 28.8044 602.855 31.0317 590.238C32.2199 582.817 36.5252 583.114 37.2679 590.684Z" fill="#30352B"></path><path d="M40.4819 559.37C40.4819 563.378 40.037 567.98 39.5914 569.464C38.9973 571.542 39.4429 571.393 41.8187 568.573C44.9364 565.159 45.8276 559.073 44.0459 554.472C42.2642 549.722 40.4819 552.246 40.4819 559.37Z" fill="#30352B"></path><path d="M22.8365 559.673C22.6879 562.494 23.7276 566.205 24.9152 567.837C27.588 571.251 27.588 571.103 24.9152 561.751C22.985 554.627 22.8365 554.478 22.8365 559.673Z" fill="#30352B"></path><path d="M384.266 130.111C361.251 131.151 323.684 140.65 316.558 147.329C314.779 148.963 305.867 154.306 296.808 159.204C280.33 167.962 263.108 179.54 252.119 189.188C248.853 192.008 245.735 194.383 245.141 194.383C244.696 194.383 241.726 197.946 238.608 202.102C235.49 206.407 230.441 212.789 227.472 216.203C224.354 219.617 218.712 228.523 214.851 236.241C193.025 279.732 186.789 328.864 197.034 376.957C202.825 404.714 217.524 439.001 234.45 464.532C241.874 475.962 261.917 495.704 274.388 504.164C292.653 516.336 318.492 527.913 339.721 533.406C359.17 538.304 428.51 540.53 443.51 536.671C452.716 534.296 498.144 512.476 508.247 505.649C511.953 503.125 523.983 492.289 534.968 481.602C545.954 470.915 559.469 458.892 564.962 455.032C573.131 449.392 575.653 446.572 578.918 439.595C580.999 434.994 585.602 425.049 589.161 417.776C599.558 396.253 600.301 393.878 605.051 365.824C609.059 341.481 609.507 337.176 608.617 316.841C607.573 289.974 604.161 273.646 597.036 261.92C595.551 259.397 594.36 256.725 594.36 255.686C594.36 251.679 570.756 216.796 562.44 208.484C557.535 203.586 549.815 195.422 545.513 190.227C531.704 174.048 514.034 163.064 467.709 141.837C450.635 134.119 412.921 128.775 384.266 130.111ZM433.113 135.01C442.915 136.642 477.952 150.298 494.879 159.204C500.968 162.47 510.027 168.11 514.924 171.673C519.828 175.383 527.395 179.985 531.556 181.915C537.344 184.587 541.057 187.704 545.66 194.086C549.072 198.687 555.609 207 560.212 212.343C570.16 224.218 584.411 248.116 592.58 266.373C603.419 290.568 606.389 318.177 601.786 353.207C596.588 393.729 595.102 398.776 580.403 425.197C572.087 440.041 569.271 443.603 548.329 464.532C530.071 482.79 522.645 489.024 512.696 494.961C505.718 498.969 497.401 504.609 494.137 507.578C484.489 516.187 483.599 516.633 469.342 520.492C461.768 522.57 450.93 525.539 445.142 527.023C439.496 528.656 428.068 530.585 419.899 531.476C411.73 532.218 401.34 533.257 396.884 533.702C388.722 534.593 384.413 533.851 339.721 524.648C305.573 517.672 303.492 516.781 281.815 499.266C258.95 481.008 241.281 462.751 235.786 451.916C233.411 447.165 228.363 438.111 224.651 431.877C220.939 425.791 217.079 417.776 215.89 414.065C214.851 410.354 212.624 404.565 211.139 401.3C205.943 390.167 202.379 372.355 200.152 346.676C197.183 313.575 197.331 306.005 201.043 287.748C204.458 270.381 213.812 245.296 219.454 238.616C221.385 236.241 224.354 231.492 225.838 228.078C227.472 224.663 231.333 218.429 234.747 214.274C243.507 203.141 281.962 170.782 293.102 164.845C298.293 162.173 306.911 156.978 312.25 153.564C321.757 147.329 323.985 146.587 353.383 140.353C364.074 137.978 369.119 137.088 382.781 135.01C393.766 133.377 423.017 133.377 433.113 135.01Z" fill="#30352B"></path><path d="M368.965 144.801C362.134 146.582 352.332 150.738 352.332 151.778C352.332 152.668 377.274 149.848 388.855 147.621C402.223 145.098 424.194 144.801 433.253 146.879C438.452 148.067 438.893 147.918 436.518 146.137C432.805 143.465 423.9 142.574 398.363 142.723C384.995 142.723 373.862 143.465 368.965 144.801Z" fill="#30352B"></path><path d="M321.318 158.157C311.075 160.828 298.45 168.547 289.986 177.156C286.427 180.867 283.898 183.984 284.493 183.984C285.089 183.984 289.391 181.164 294.295 177.602C299.493 173.742 309.141 168.844 318.347 165.43C326.81 162.313 335.127 158.899 336.759 157.711C339.429 155.93 339.281 155.782 334.531 155.93C331.708 155.93 325.774 156.969 321.318 158.157Z" fill="#30352B"></path><path d="M508.388 182.054C508.689 182.945 515.667 188.882 523.829 195.413C540.903 208.921 544.616 212.928 553.08 227.474C556.499 233.412 560.058 239.201 561.102 240.389C567.632 248.553 582.632 281.95 588.272 301.246C589.456 305.254 588.125 330.042 585.448 353.198C579.507 405.447 579.066 407.376 572.529 419.103C568.521 426.376 573.72 422.962 578.617 415.095C583.367 407.376 584.411 403.517 588.419 376.205C590.051 365.518 591.985 352.753 592.875 347.854C593.617 342.808 594.36 331.082 594.36 321.878C594.36 307.481 593.912 304.363 591.39 300.504C589.757 297.981 585.448 286.7 581.735 275.27C575.5 255.529 566.146 235.193 554.712 216.342C549.367 207.436 534.822 195.265 518.483 186.21C508.24 180.57 507.799 180.273 508.388 182.054Z" fill="#30352B"></path><path d="M222.918 249.589C219.948 254.784 215.642 264.285 213.415 270.815C209.703 281.948 209.406 284.62 208.961 312.377C208.812 328.705 208.07 345.181 207.476 349.189C206.288 357.501 208.664 370.86 213.712 384.07C215.642 389.117 217.275 394.461 217.275 395.945C217.275 398.765 231.381 423.108 244.744 443.741C260.037 467.193 288.696 490.349 318.984 503.856C343.036 514.544 364.272 521.371 364.272 518.403C364.272 517.661 361.743 516.473 358.625 515.434C355.507 514.395 348.529 511.575 343.183 509.2C337.69 506.677 332.94 504.599 332.345 504.599C329.97 504.599 311.557 495.395 305.175 490.943C291.66 481.74 262.115 457.397 253.207 448.194C240.141 434.538 223.66 405.742 222.176 393.719C221.581 388.524 216.088 367.149 212.821 356.759C210.446 349.485 211.039 307.479 213.712 292.042C215.048 284.175 218.76 271.112 222.472 261.91C230.49 241.425 230.787 240.387 229.451 240.387C228.857 240.387 225.887 244.543 222.918 249.589Z" fill="#30352B"></path><path d="M409.362 284.772C400.899 294.568 399.862 295.31 394.663 295.31C389.171 295.31 388.575 294.568 390.957 290.858C392.288 288.928 392.59 288.928 393.921 290.858C395.707 293.826 399.119 290.561 397.781 287.147C396.45 283.584 391.994 285.069 389.766 289.967L387.685 294.123L383.531 290.115C378.185 285.069 374.619 285.959 374.619 292.49C374.619 300.654 371.501 307.185 367.641 307.185C360.515 307.185 356.207 315.497 359.92 322.177C361.111 324.552 360.81 325.591 357.993 327.966L354.574 330.637L357.692 334.2C359.479 335.981 361.111 338.653 361.552 339.841C362.001 341.028 365.413 342.958 368.979 343.848C382.34 347.411 386.943 356.169 374.03 353.2C367.346 351.715 363.486 353.2 362.001 357.653C360.515 362.106 362.596 364.036 367.641 362.996C371.06 362.254 372.986 362.848 375.214 365.074C378.332 367.895 378.479 367.895 386.2 364.183C390.362 362.106 393.921 359.879 393.921 359.137C393.921 356.465 398.23 357.504 399.862 360.473C400.752 362.254 400.899 365.817 400.009 370.566C398.377 378.73 398.972 380.214 402.09 376.058C404.318 373.09 404.759 370.121 404.318 362.996C404.017 357.653 406.987 355.575 410.553 358.692C412.039 360.028 413.223 361.809 413.223 362.848C413.223 366.113 420.054 371.012 424.804 371.012C429.561 371.012 435.495 366.262 435.495 362.551C435.495 361.364 433.267 359.582 430.451 358.395C421.392 354.535 421.686 348.153 430.892 349.637C436.686 350.528 442.922 348.449 442.922 345.481C442.922 342.661 426.289 345.778 421.84 349.489C418.127 352.606 417.98 352.903 420.649 353.645C422.583 354.091 423.62 355.723 423.62 358.246C423.62 360.324 424.804 362.551 426.289 363.442C428.223 364.48 428.37 365.371 427.179 366.558C424.061 369.676 418.568 367.598 415.899 362.402C412.634 355.723 412.333 355.575 406.097 355.129C403.127 354.981 398.678 354.535 396.149 354.387C392.435 353.942 391.546 354.535 391.251 357.356C390.803 360.176 390.06 360.77 387.538 360.028C385.906 359.582 383.531 360.028 382.494 360.918C380.266 362.699 373.134 361.364 373.134 359.137C373.134 358.246 375.214 357.653 377.737 357.653C380.854 357.653 382.494 356.762 382.935 354.981C383.384 353.645 386.648 351.122 390.362 349.637C396.296 347.262 397.935 347.114 402.833 348.746C406.84 350.083 409.215 350.231 410.553 349.192C411.59 348.302 415.009 346.817 418.127 345.778C421.245 344.887 424.804 342.364 426.142 340.435C428.818 336.278 433.569 335.833 436.385 339.395C438.172 341.919 438.466 341.919 440.841 339.544C444.26 336.278 442.326 333.903 436.091 333.903C430.15 333.903 429.561 331.528 434.9 329.153C437.87 327.669 439.503 327.818 443.363 329.747C451.385 333.755 452.871 333.903 456.283 330.193L459.547 326.778L456.283 324.997C454.503 323.958 451.238 323.513 449.01 323.958C446.929 324.404 442.179 325.442 438.466 326.333C434.753 327.075 431.635 327.521 431.341 327.224C430.003 325.888 434.458 320.545 436.981 320.545C440.694 320.545 445.444 313.568 443.363 311.49C441.437 309.56 431.782 314.756 431.782 317.575C431.782 318.615 430.892 319.802 429.708 320.248C428.223 320.693 428.076 319.802 428.819 315.943C429.407 313.271 430.598 309.857 431.488 308.521C433.267 305.552 444.106 300.951 446.187 302.138C448.415 303.474 453.312 298.131 453.312 294.42C453.312 289.967 452.128 289.373 445.892 290.709C441.584 291.451 440.547 292.49 440.246 295.756C439.951 298.131 438.172 300.803 436.091 302.287C431.488 305.255 430.15 304.068 433.12 299.318C435.348 296.053 435.348 295.459 433.267 293.826C432.083 292.787 431.039 292.193 430.892 292.49C430.892 292.787 430.598 294.568 430.451 296.498C429.855 301.099 426.591 304.365 425.4 301.248C424.958 300.06 422.877 297.388 420.649 295.31C416.936 291.896 416.789 291.302 418.723 288.334C419.907 286.553 420.502 284.326 419.907 283.436C418.421 280.913 411.892 281.803 409.362 284.772ZM409.664 291.896C408.178 293.381 406.84 291.155 408.178 289.225C409.068 287.592 409.362 287.592 409.958 289.225C410.259 290.264 410.105 291.451 409.664 291.896ZM381.303 295.31C380.413 296.647 379.965 296.647 378.928 295.162C377.442 292.639 378.928 290.115 380.854 292.045C381.751 292.936 381.898 294.42 381.303 295.31ZM447.966 296.053C447.378 297.24 446.488 298.279 445.745 298.279C445.003 298.279 444.407 297.24 444.407 296.053C444.407 294.865 445.444 293.826 446.635 293.826C447.966 293.826 448.415 294.717 447.966 296.053ZM407.289 297.388C407.289 297.685 407.73 299.169 408.325 300.654C409.068 302.732 408.62 303.029 405.355 302.138C398.377 300.506 386.943 303.92 382.935 308.966C379.222 313.716 379.376 316.388 383.236 320.989C385.31 323.216 385.163 323.81 382.494 326.927C380.854 328.708 379.817 331.083 380.112 331.974C381.008 334.497 379.67 334.349 375.361 331.528C370.913 328.56 370.464 324.997 374.619 326.036C378.185 326.927 378.633 324.107 375.214 320.396C373.729 318.763 373.288 316.982 374.177 315.794C374.773 314.756 375.361 311.638 375.361 308.818C375.361 304.662 376.251 303.326 380.413 300.951C383.531 299.169 387.097 298.279 389.472 298.725C391.546 299.169 394.222 299.022 395.406 298.131C397.634 296.795 407.289 296.201 407.289 297.388ZM420.649 300.209C420.649 301.99 421.987 304.662 423.62 306.146C428.664 310.302 427.333 314.903 418.723 323.067C411.296 330.193 410.848 330.341 407.583 328.263C403.428 325.591 401.2 327.224 405.208 330.044C407.877 332.122 407.877 332.271 403.722 336.723C400.752 339.841 397.935 341.325 394.818 341.325C389.766 341.325 383.531 336.278 383.531 332.271C383.531 329.005 389.024 324.997 393.178 324.997C396.296 324.997 399.862 322.474 399.862 320.248C399.862 319.654 398.524 319.06 396.891 319.06C395.259 319.06 393.921 318.318 393.921 317.575C393.921 315.2 400.899 315.794 403.575 318.466C405.355 320.396 406.399 320.545 408.031 319.06C409.215 318.021 410.259 315.943 410.259 314.459C410.259 312.826 411.002 311.638 411.892 311.638C412.929 311.638 413.223 313.122 412.929 315.349C412.48 317.427 412.781 319.06 413.377 319.06C414.12 319.06 414.708 318.318 414.708 317.575C414.708 316.685 415.304 316.091 416.193 316.091C416.936 316.091 417.083 317.13 416.642 318.615C416.046 320.248 416.193 320.693 417.384 319.951C419.76 318.466 419.458 310.154 416.936 305.701C413.818 300.357 414.12 296.795 417.679 296.795C419.76 296.795 420.649 297.834 420.649 300.209ZM405.803 307.927C406.84 309.115 407.141 310.154 406.399 310.302C405.656 310.302 401.494 310.599 397.039 310.896C387.987 311.49 388.281 311.341 387.538 316.24C386.796 320.693 384.42 320.989 383.825 316.537C382.935 310.451 385.906 307.333 393.627 306.74C397.487 306.443 401.347 306.146 402.237 305.998C403.127 305.849 404.759 306.74 405.803 307.927ZM371.207 315.497C370.758 318.466 369.869 321.286 369.427 321.732C368.383 322.77 362.743 317.575 362.743 315.349C362.743 312.826 366.008 310.154 369.126 310.154C371.655 310.154 371.95 310.896 371.207 315.497ZM438.466 316.091C438.466 316.833 437.723 317.575 436.834 317.575C436.091 317.575 435.797 316.833 436.238 316.091C436.686 315.2 437.429 314.607 437.87 314.607C438.172 314.607 438.466 315.2 438.466 316.091ZM425.105 327.224C425.105 329.153 425.848 331.231 426.738 331.677C427.627 332.419 427.333 333.458 425.547 334.645C424.061 335.685 422.429 336.278 421.84 335.981C421.098 335.536 420.649 336.575 420.649 338.208C420.649 341.919 416.341 344.442 413.076 342.661C411.149 341.77 410.406 342.067 409.811 344.294C409.362 346.075 407.73 347.262 405.95 347.262C402.384 347.262 402.237 346.224 404.318 340.582C405.656 337.169 406.399 336.723 410.259 337.614C416.193 338.95 419.164 336.427 419.164 330.341C419.164 325.442 421.686 321.583 423.914 322.919C424.51 323.364 425.105 325.294 425.105 327.224ZM453.018 327.521C453.312 328.708 452.275 329.45 450.496 329.45C448.709 329.45 447.378 328.56 447.378 327.075C447.378 324.404 451.981 324.848 453.018 327.521ZM365.413 331.38C366.008 334.052 363.339 334.645 359.92 332.568C358.883 331.825 358.435 330.49 359.03 329.599C360.515 327.075 364.824 328.263 365.413 331.38ZM414.708 332.419C414.708 333.161 413.965 333.903 413.076 333.903C412.333 333.903 412.039 333.161 412.48 332.419C412.929 331.528 413.671 330.934 414.12 330.934C414.414 330.934 414.708 331.528 414.708 332.419ZM372.839 337.169C372.097 339.395 365.714 340.731 365.714 338.653C365.714 336.575 367.494 335.388 370.611 335.388C372.097 335.388 373.134 336.13 372.839 337.169ZM387.987 342.809C389.171 345.036 388.876 345.927 386.648 347.262C382.641 349.34 381.597 349.192 382.641 346.52C383.236 344.887 382.494 344.294 379.817 344.294C377.442 344.294 376.104 343.403 376.104 342.067C376.104 338.504 386.053 339.098 387.987 342.809ZM370.17 355.278C370.17 355.575 370.611 356.91 371.06 358.098C371.501 359.582 370.913 360.176 368.685 360.028C367.052 360.028 365.714 359.434 365.714 358.692C365.714 358.098 365.714 356.91 365.714 356.169C365.714 355.278 366.751 354.684 367.942 354.684C369.126 354.684 370.17 354.981 370.17 355.278Z" fill="#30352B"></path><path d="M16.0339 185.467C14.6978 189.92 16.628 192.146 19.1523 188.881C21.0825 186.357 21.5281 186.506 26.279 191.998L31.3276 197.935L37.4153 192.443C43.7993 186.654 47.5111 185.616 50.7781 188.732C52.2627 190.365 52.5598 189.92 52.1142 186.951C51.3722 180.865 45.2846 181.311 38.7514 187.694C33.5549 192.889 33.2578 193.037 31.7725 190.217C28.9518 185.022 25.537 182.498 21.231 182.498C18.2611 182.498 16.628 183.389 16.0339 185.467Z" fill="#30352B"></path><path d="M21.2122 204.012C20.0239 205.496 20.321 206.238 22.5482 206.98C24.1813 207.425 25.963 209.207 26.4086 210.839C27.5962 214.551 30.269 214.402 33.5353 210.543C36.0596 207.574 36.3567 207.574 39.0295 209.949C42.4443 213.066 44.9687 211.73 44.9687 206.832C44.9687 202.379 41.4046 200.746 36.9508 203.269C34.7235 204.309 32.0507 204.606 29.9719 203.863C24.1814 201.934 22.8453 201.934 21.2122 204.012Z" fill="#30352B"></path></svg> 