<?xml version="1.0" encoding="UTF-8"?> <svg xmlns="http://www.w3.org/2000/svg" width="280" height="305" viewBox="0 0 280 305" fill="none"><path d="M127.591 0.390485C124.262 0.793983 118.109 1.19747 113.973 1.29834C99.0435 1.50009 95.8155 3.71934 95.0085 14.3111C94.5041 22.0785 96.0172 26.4161 100.355 29.2406C105.499 32.5694 119.117 35.5956 132.433 36.3018C144.941 37.0079 145.345 37.1088 144.74 39.1262C144.437 40.3367 143.63 43.8674 142.924 46.9945C141.411 54.4592 139.191 54.8627 139.191 47.9023C139.191 42.1525 137.678 37.3105 136.165 38.2184C135.459 38.7228 135.257 41.3455 135.762 45.8848C136.165 49.7181 136.064 52.8452 135.56 52.8452C135.157 52.8452 132.029 51.0294 128.701 48.9111C122.345 44.7752 116.293 42.8586 109.736 42.7577C104.692 42.7577 103.078 43.5647 101.263 46.9945L99.7496 49.9198L102.271 48.3058C107.618 44.7752 111.552 44.6743 120.429 47.9023C129.911 51.3321 133.139 52.8452 133.139 53.9548C133.139 54.3583 129.205 53.3496 124.363 51.7356C113.569 48.0032 106.004 47.4988 102.978 50.2224C101.767 51.3321 100.859 52.8452 100.859 53.6522C100.859 54.8627 101.364 54.6609 103.179 53.0469C106.206 50.1216 111.451 50.2224 120.328 53.2487C124.06 54.56 127.389 55.8714 127.591 56.0732C128.196 56.6784 113.267 62.7309 109.232 63.5379C107.013 63.9414 105.096 63.6387 103.381 62.5291C100.557 60.7134 99.9513 61.9239 102.473 64.3449C104.995 66.8667 109.534 66.2615 119.117 61.9239C127.894 57.9898 131.828 56.8801 130.617 58.8976C129.81 60.209 113.469 70.9017 109.635 72.5157C107.82 73.3227 107.113 73.9279 107.92 74.0288C111.754 74.0288 117.302 71.6078 122.648 67.472C125.876 64.9501 128.801 62.9326 129.306 62.9326C131.222 62.9326 126.28 69.9938 119.017 77.6603C111.249 85.7302 109.434 88.7565 111.048 91.2783C111.653 92.2871 112.561 92.3879 114.578 91.6818C118.31 90.3704 119.117 87.8486 115.587 88.7565C111.148 89.8661 112.46 86.8399 119.017 80.6865C122.547 77.4585 126.784 72.1122 129.003 68.279C133.845 59.8055 136.266 59.2003 137.578 66.0597C138.889 72.7174 136.468 91.4801 134.45 90.774C132.332 89.967 117.302 93.8002 113.166 96.2212C110.039 98.1378 108.021 98.3395 91.377 98.2387C81.3904 98.2387 70.8995 98.1378 68.075 98.0369C61.5182 97.936 54.7596 99.8526 51.9351 102.677C49.3124 105.3 47.7993 114.076 48.9089 120.532C49.8167 125.576 52.4395 127.391 65.1497 131.527C73.4214 134.15 75.338 134.453 82.9036 133.847C87.6447 133.545 93.0919 133.545 95.0085 133.948L98.64 134.553L96.9251 141.413C95.9164 145.145 94.8067 148.171 94.3024 148.171C93.798 148.171 92.991 146.356 92.6884 144.137C91.5788 138.185 89.8639 134.352 88.4517 134.856C87.1403 135.26 87.0394 137.176 88.2499 142.825C88.6534 145.246 88.5525 146.658 87.9473 146.658C87.4429 146.658 84.4167 145.145 81.1887 143.229C75.7415 139.9 68.2768 137.58 62.9304 137.58C59.2989 137.58 56.7771 139.194 54.9613 142.623L53.4482 145.65L57.1806 143.027C60.4086 140.909 61.8208 140.505 66.0575 140.909C71.9082 141.413 83.0044 145.448 85.5263 148.071C87.0394 149.584 86.6359 149.584 81.9957 147.768C72.5135 144.036 63.6365 142.422 59.8033 143.733C57.9876 144.338 55.9701 145.65 55.4657 146.658C53.65 149.987 54.3561 150.693 56.9788 148.171C60.2068 144.843 63.9392 144.944 74.4301 148.474L82.8027 151.299L74.9345 154.527C65.4523 158.461 60.5094 159.369 57.5841 157.855C55.1631 156.544 54.7596 157.855 56.9788 159.772C59.5007 161.89 63.8383 161.184 72.11 157.25C79.9782 153.619 87.1403 151.5 85.2237 153.417C83.5088 155.132 65.654 166.833 63.233 167.842C60.1059 169.052 63.233 169.052 67.7724 167.842C69.7899 167.237 74.0266 164.715 77.2546 162.294C80.3817 159.772 83.2062 157.956 83.4079 158.158C84.3158 158.965 79.5747 166.833 77.2546 168.346C73.0179 171.171 64.5444 181.964 64.5444 184.688C64.5444 186.806 64.9479 187.109 67.7724 186.806C71.303 186.504 73.0179 183.982 69.689 183.982C65.8558 183.982 67.3689 180.754 74.1275 174.5C77.8598 170.868 81.2896 166.632 82.2983 164.311C84.7193 158.259 90.9735 152.307 89.2587 157.654C88.956 158.763 89.1578 159.873 89.763 160.276C90.9735 161.083 91.0744 168.952 89.763 178.736C88.6534 186.907 87.0394 191.144 85.728 189.026C84.5176 187.109 74.0266 188.32 68.3776 191.144C60.3077 195.078 60.8121 198.003 70.496 202.341C74.531 204.157 79.5747 205.569 83.2062 205.872L89.2587 206.376L88.7543 212.832C88.149 220.095 86.1315 223.02 78.9695 226.45C74.9345 228.367 72.8161 228.568 56.1718 228.568C40.738 228.568 16.6291 227.963 11.081 227.459C9.97135 227.358 9.97135 227.055 10.8792 226.147C12.2915 224.735 12.4932 217.472 11.1818 215.455C10.5766 214.446 10.1731 214.446 9.06348 215.656C8.25648 216.766 8.05473 218.683 8.45823 221.81C9.3661 227.257 7.85298 227.862 5.432 223.121C3.81801 220.095 2.10314 208.192 3.31363 208.192C3.61626 208.192 5.53287 209.1 7.44949 210.31C10.4757 212.126 13.3002 212.428 29.4401 212.933C39.6284 213.336 51.5316 213.538 55.9701 213.336C67.7724 213.034 82.7018 209.705 80.5834 207.788C80.3817 207.587 72.0091 208.091 62.0226 208.797C31.6594 211.218 26.0104 211.117 15.9229 207.889C11.081 206.275 6.84424 204.661 6.54162 204.157C6.23899 203.753 10.4757 202.24 15.8221 200.929C24.4973 198.911 27.7252 198.609 43.0582 198.911C59.0972 199.113 63.6365 198.508 60.4086 196.49C58.4919 195.381 17.1334 196.087 12.0897 197.297C5.93637 198.81 3.01101 200.929 3.01101 203.652C3.01101 204.964 2.30489 206.174 1.49789 206.578C-0.317846 207.284 -0.519595 212.832 1.0944 218.38C1.80052 220.498 3.91888 223.726 5.93637 225.643C11.6862 231.191 17.4361 232.603 35.0891 233.209L50.6237 233.612L49.8167 237.344C49.4132 239.362 48.808 242.792 48.5054 245.011C48.1019 247.634 47.3958 249.046 46.387 249.046C45.2774 249.046 44.5713 247.129 43.8652 242.086C43.2599 237.849 42.352 234.923 41.4442 234.621C40.3345 234.217 40.2337 235.529 40.8389 241.379C41.2424 245.314 41.1415 248.542 40.738 248.542C40.3346 248.542 36.5013 246.221 32.2646 243.498C21.3702 236.336 10.3748 234.722 6.33987 239.564C4.82675 241.48 2.91014 248.743 4.12063 248.037C4.625 247.634 5.0285 248.34 5.0285 249.449C5.0285 250.559 5.53287 251.77 6.03724 252.072C6.64249 252.375 7.04599 251.568 7.04599 250.256C7.04599 248.844 7.85298 246.827 8.86173 245.616L10.5766 243.397L23.1859 247.634C30.1462 249.853 36.9048 252.375 38.2162 253.081L40.738 254.291L38.5188 254.997C37.3083 255.401 36.2996 256.309 36.2996 257.116C36.2996 257.822 35.5934 258.73 34.6856 259.032C32.3655 259.94 32.0628 259.839 32.8698 258.427C33.3742 257.62 33.0716 257.519 31.7602 258.024C27.4226 259.638 18.5457 259.839 14.1072 258.225C8.5591 256.309 7.75211 256.813 12.1906 259.638C15.0151 261.353 16.8308 261.655 22.5806 261.453L29.6419 261.05L24.5981 263.269C17.8396 266.396 14.2081 266.295 9.3661 262.765C5.63374 260.041 3.81801 257.116 2.70839 252.072C2.40576 250.963 2.20401 251.971 2.10314 254.191C1.90139 262.059 8.25648 266.699 19.5544 266.8C24.2955 266.901 27.3217 266.396 30.2471 264.883C34.9882 262.563 33.7777 264.883 28.9357 267.405C21.6728 271.137 13.3002 281.527 15.7212 283.747C16.2256 284.251 18.243 284.856 20.1597 285.159C23.6903 285.764 23.7911 285.663 32.0628 274.971C36.7031 269.019 41.1415 263.269 41.9485 262.16C43.159 260.344 43.2599 260.546 43.3608 264.681C43.3608 267.203 42.6547 273.155 41.7468 277.997C40.2337 286.369 40.0319 286.874 37.9136 286.269C35.0891 285.562 22.4798 288.488 19.3527 290.505C17.5369 291.716 17.1334 292.825 17.3352 295.246C17.5369 297.97 18.4448 298.878 22.6815 301.198C27.5235 303.922 28.2296 304.022 43.966 304.022C61.6191 304.022 68.3776 302.812 73.2196 298.676C76.6493 295.65 75.8423 292.725 70.496 289.194C65.8558 286.067 57.4832 284.755 57.4832 287.076C57.4832 288.185 58.9963 288.79 62.7287 289.295C68.7811 290.102 73.6231 292.422 73.6231 294.439C73.6231 296.053 73.2196 296.154 59.5007 298.575C47.3958 300.694 22.7824 300.088 20.2605 297.466C19.05 296.356 18.9492 295.448 19.7562 294.238C20.9667 292.22 28.9357 289.9 34.5847 289.9C37.6109 289.9 38.3171 290.304 38.3171 291.918C38.3171 295.347 41.3433 294.137 43.0582 290.102C44.1678 287.378 44.5713 283.041 44.5713 273.256C44.4704 260.243 45.0756 256.712 47.2949 258.024C48.001 258.528 48.4045 262.866 48.4045 270.23C48.4045 283.343 49.8167 291.918 52.036 291.918C54.5578 291.918 54.6587 289.497 52.5404 278.804C49.9176 266.195 49.8167 258.831 51.9351 257.923C53.8517 257.217 55.4657 259.234 59.1981 266.195C60.6103 268.918 64.4435 273.659 67.6715 276.585C73.8249 282.234 75.1362 284.856 71.5048 284.856C70.3951 284.856 69.5881 285.361 69.7899 286.067C70.3951 287.681 74.0266 288.891 75.6406 287.883C78.0616 286.369 75.6406 282.133 67.1671 272.953C59.6016 264.984 56.4745 260.344 57.685 259.133C57.8867 258.831 60.3077 260.546 63.1322 262.866C68.1759 267.102 73.2196 269.725 76.2458 269.725C77.1537 269.725 73.1187 266.598 67.268 262.765C61.4173 258.932 56.3736 255.3 55.9701 254.695C54.8605 252.879 59.8033 254.392 69.689 258.73C79.2721 263.067 81.2896 263.37 84.3158 261.252C86.9385 259.234 85.728 258.427 81.9957 259.638C79.5747 260.546 77.8598 260.243 72.5135 258.326C62.3252 254.392 59.5007 253.182 59.5007 252.577C59.6016 251.77 75.9432 246.524 78.566 246.524C79.7765 246.524 82.1974 247.835 83.8114 249.449C87.1403 252.879 87.7455 251.164 84.6184 247.129C83.0044 245.112 81.6931 244.507 78.6668 244.507C75.4389 244.507 63.3339 247.533 55.9701 250.156C54.1544 250.761 54.1543 250.66 55.4657 249.248C57.3823 247.23 72.8161 241.48 76.2458 241.48C79.1712 241.48 84.7193 244.103 86.535 246.423C87.5438 247.835 87.6447 247.835 87.1403 246.02C86.2324 243.498 83.8114 240.572 81.3904 239.261C77.8598 237.445 66.2593 240.169 59.5007 244.607C56.1718 246.726 52.9439 248.542 52.4395 248.542C51.1281 248.542 51.1281 245.717 52.6412 239.564C53.65 235.226 54.1543 234.419 56.071 234.419C60.2068 234.419 81.9957 228.367 85.3245 226.349C89.763 223.525 92.0831 218.38 91.5788 211.722C91.1753 205.266 91.2761 205.166 103.381 205.166C112.258 205.065 119.723 203.753 122.043 201.736C123.052 200.727 128.398 200.223 139.494 199.819C154.02 199.416 157.551 198.911 156.239 197.701C155.937 197.398 148.27 197.096 139.191 196.995C124.867 196.793 122.144 196.49 119.824 194.876C115.688 192.052 104.087 187.916 103.381 189.026C102.675 190.135 102.776 190.135 111.048 192.455C114.074 193.363 117.403 194.876 118.411 195.986C120.126 197.802 119.924 197.903 111.249 199.517C105.6 200.525 96.9251 201.131 87.2412 201.131C71.6056 201.131 67.3689 200.223 66.7637 196.894C66.2593 194.372 70.1934 192.758 78.4651 192.052C85.5263 191.547 85.728 191.547 85.728 193.767C85.728 196.995 87.4429 196.692 89.2587 193.161C91.2761 189.026 92.7893 178.434 92.7893 166.531C92.7893 158.562 93.0919 156.746 94.3024 156.746C95.6137 156.746 95.8155 158.965 95.8155 170.364C95.8155 186.201 97.1269 194.372 99.6487 193.868C101.767 193.464 101.666 192.758 98.9426 177.324C96.6225 164.009 96.219 157.755 97.833 157.755C98.4382 157.755 98.8417 158.36 98.8417 159.167C98.8417 160.68 105.6 170.061 110.846 175.912L114.074 179.443L111.955 175.105C110.745 172.684 108.122 168.346 106.105 165.522L102.473 160.276L108.526 165.825C111.855 168.851 116.495 173.087 118.916 175.105C123.758 179.241 123.657 180.956 118.31 180.956C115.284 180.956 114.881 181.157 115.99 182.469C117.604 184.385 123.455 184.486 124.968 182.57C127.389 179.644 120.53 171.171 111.249 165.421C108.828 164.009 106.912 162.597 106.912 162.294C106.912 162.092 108.828 162.798 111.249 163.807C113.771 165.018 117.705 165.724 121.034 165.724H126.582L120.025 163.404C111.249 160.276 104.692 156.847 105.399 155.737C105.701 155.233 104.995 154.627 103.885 154.224C99.5478 152.812 101.162 152.005 118.815 146.053C124.565 144.137 129.81 142.623 130.516 142.623C132.13 142.623 134.148 146.86 134.249 150.492C134.249 153.114 134.35 153.013 135.661 149.685C136.367 147.768 137.073 146.759 137.073 147.566C137.174 148.373 137.376 148.777 137.678 148.575C138.586 147.566 135.964 140.102 133.845 137.781C132.332 136.167 130.617 135.562 127.692 135.562C120.631 135.663 116.293 137.176 107.82 142.623C103.381 145.448 99.447 147.566 99.1443 147.264C98.8417 146.961 99.1443 144.036 99.9513 140.606L101.263 134.553L105.399 134.453C107.618 134.453 113.569 133.343 118.512 132.032L127.591 129.611L107.92 129.812L88.2499 130.014L87.9473 121.944L87.6447 113.874L104.592 113.672C121.034 113.572 127.087 112.765 127.793 110.747C128.095 109.738 93.3945 109.637 81.4913 110.747C75.338 111.251 72.11 110.949 65.3514 109.335C56.4745 107.116 53.5491 105.804 54.6587 104.795C54.9613 104.493 59.9042 103.484 65.654 102.677C73.5222 101.467 80.5834 101.265 93.798 101.769C110.745 102.274 111.653 102.475 117.403 105.3C122.043 107.721 124.666 108.326 129.508 108.326H135.661L135.964 115.286C136.165 121.541 135.964 122.549 133.543 125.374C132.13 127.089 130.214 128.501 129.306 128.602C128.297 128.602 128.095 128.904 128.801 129.106C131.021 130.014 136.266 126.383 137.779 122.953C138.586 121.036 139.191 117.001 139.191 113.874C139.191 108.629 139.292 108.326 141.713 108.326C143.428 108.326 144.033 108.73 143.63 109.738C142.722 112.159 145.143 122.146 147.362 124.869C148.573 126.383 150.893 127.694 153.112 128.097C155.13 128.4 160.678 129.611 165.419 130.619C170.16 131.729 174.901 132.738 176.112 133.04C177.726 133.444 178.734 135.159 180.348 140.707C181.559 144.742 182.366 148.272 182.063 148.474C181.761 148.777 179.239 147.465 176.313 145.65C165.721 138.992 164.41 138.387 158.358 137.58C150.086 136.369 147.665 137.479 145.042 143.33C140.805 153.013 141.713 160.075 147.766 163.807C152.81 166.934 153.818 166.228 149.682 162.597C145.042 158.461 142.823 153.619 143.832 149.281L144.538 146.154L145.547 149.685L146.555 153.215L147.261 149.785C148.875 142.926 149.582 142.825 165.419 148.171C173.186 150.895 179.844 153.417 180.147 153.82C180.348 154.224 179.642 154.829 178.533 155.233C177.423 155.535 176.515 156.443 176.515 157.149C176.515 158.562 174.397 159.671 163.906 163.908L156.845 166.732L161.686 166.833C164.309 166.833 168.142 166.127 170.16 165.32C175.607 163 175.204 164.11 169.555 167.237C163.401 170.566 155.13 179.443 155.533 182.368C155.735 183.679 156.945 184.688 159.266 185.293C162.09 185.999 163.099 185.798 164.612 184.184C166.528 182.267 166.528 182.267 163.3 182.166C157.45 182.065 157.954 180.451 166.125 173.289C177.019 163.706 178.129 162.899 177.019 164.816C176.515 165.623 175.002 167.943 173.489 169.859C170.16 174.197 167.134 179.947 168.142 179.947C169.151 179.846 179.541 166.531 181.66 162.597C182.769 160.377 183.374 159.974 183.778 160.983C184.383 162.395 182.164 186.1 180.954 191.346C180.348 193.868 180.55 194.17 182.164 193.868C185.695 193.262 186.804 186.907 186.3 171.574C185.997 160.983 186.199 157.755 187.107 157.755C188.62 157.755 189.528 165.925 189.528 179.342C189.629 189.227 190.234 192.354 191.949 191.749C193.865 191.144 193.966 185.798 192.251 174.399C190.436 162.193 190.234 159.469 191.545 160.176C192.05 160.579 192.251 159.873 191.949 158.763C191.243 156.141 192.857 156.141 195.177 158.763C196.186 159.974 197.295 160.377 197.699 159.873C198.001 159.268 200.321 160.478 202.742 162.496C207.887 166.531 214.343 169.759 217.369 169.859C219.084 169.859 219.084 169.658 216.865 168.548C211.619 165.825 196.69 155.434 196.69 154.527C196.69 153.215 199.716 154.224 209.904 158.864C219.084 163 220.9 163.404 224.027 161.79C227.255 159.974 226.145 158.965 221.606 159.469C218.378 159.873 215.352 159.167 209.097 156.746C204.457 155.031 200.523 153.215 200.321 152.812C199.514 151.601 217.773 146.457 220.496 147.062C221.808 147.465 223.825 148.575 224.935 149.685C227.457 152.206 227.658 150.088 225.338 146.759C223.724 144.54 223.119 144.439 216.966 144.944C213.334 145.145 206.979 146.557 202.843 148.071C195.379 150.693 193.462 150.895 195.883 148.878C198.304 146.961 213.334 141.615 216.36 141.615C218.075 141.615 221.102 142.523 223.22 143.531C225.237 144.54 226.952 145.145 226.952 144.742C226.952 142.724 223.422 139.597 220.597 139.093C215.755 138.185 205.264 141.211 198.405 145.347C195.278 147.365 192.352 148.676 191.949 148.373C191.646 147.97 192.251 144.641 193.361 140.909L195.379 134.049L202.44 133.948C211.619 133.746 219.084 132.132 225.641 128.904C229.676 126.988 231.29 125.475 232.904 122.045C235.325 117.102 235.829 109.335 233.61 109.335C232.702 109.335 232.097 111.352 231.794 116.598C231.29 122.852 230.886 124.163 228.566 126.181C226.044 128.299 224.935 128.501 213.334 128.501H200.927L200.523 121.944L200.221 115.387H208.391H216.461V120.128C216.36 123.256 216.865 124.97 217.773 125.273C218.882 125.676 219.084 124.668 218.681 120.532C218.176 115.589 218.277 115.387 220.597 115.387C226.246 115.387 232.299 110.142 231.794 105.703C231.492 103.181 230.785 102.677 225.944 101.164C218.58 98.9448 175.204 97.3308 173.993 99.1465C173.59 99.8526 173.59 100.66 173.892 100.962C174.195 101.265 181.256 101.467 189.528 101.366C202.843 101.164 206.071 101.467 215.856 103.787C221.909 105.3 226.952 106.813 226.952 107.317C226.952 108.427 220.597 110.848 213.536 112.361C208.997 113.471 204.76 113.471 193.361 112.563C185.493 111.857 175.002 111.151 169.958 110.848C165.015 110.545 158.257 110.041 155.13 109.738C148.875 109.133 146.858 110.646 152.406 111.857C155.13 112.462 155.432 112.865 154.827 115.387C154.02 119.221 155.13 123.457 156.945 122.751C158.559 122.146 158.761 118.111 157.349 115.286C156.441 113.572 156.643 113.37 159.064 113.471C160.577 113.572 163.2 113.874 164.814 114.278C167.537 114.883 167.638 115.085 167.84 121.238L167.941 127.492H162.897C153.314 127.492 147.261 121.742 147.261 112.765V108.528L153.617 108.124C160.879 107.519 170.967 103.989 171.976 101.568C173.489 97.3308 162.897 89.8661 155.029 89.7652C148.674 89.6643 149.38 91.7827 155.836 92.5897C158.963 92.8923 163.099 93.9011 165.015 94.708C168.344 96.1203 170.362 98.6422 169.05 99.9535C168.042 100.962 155.432 103.081 145.95 103.888C135.762 104.695 115.587 102.677 113.973 100.761C112.762 99.3483 117.705 97.3308 127.187 95.3133C129.709 94.7081 132.433 94.0019 133.24 93.6993C134.249 93.2958 134.753 93.8002 134.652 95.4142C134.652 99.3483 136.569 98.9448 138.687 94.708C140.906 90.1687 141.209 83.3092 139.797 70.0947C139.091 63.1344 139.191 61.7221 140.301 62.1256C141.411 62.5291 141.814 66.1606 142.319 77.1559C142.924 92.6906 143.63 96.2212 145.849 96.2212C148.371 96.2212 148.472 93.8002 146.354 81.1909C145.143 74.3314 144.235 67.5728 144.235 66.1606L144.336 63.437L145.95 66.4632C147.867 69.9938 156.542 81.1909 158.963 83.2084C160.476 84.5197 160.476 84.318 158.862 81.09C157.853 79.1734 155.533 75.441 153.617 72.7174C151.7 70.0947 150.389 67.9763 150.792 67.9763C152.305 67.9763 169.454 84.318 168.849 85.2259C168.546 85.7302 166.73 86.1337 164.713 86.1337C161.686 86.1337 161.283 86.3355 162.393 87.6469C164.914 90.774 171.471 89.16 171.471 85.5285C171.471 82.4014 163.401 73.6253 158.156 70.9017C152.507 68.0772 152.608 66.8667 158.358 69.0859C161.182 70.0947 164.511 71.0026 165.923 71.0026C170.664 71.0026 169.252 69.2877 162.594 67.1693C155.634 64.9501 148.573 61.016 151.296 60.9151C152.103 60.8143 151.498 60.1081 149.884 59.3011L146.959 57.6872L150.994 55.8714C153.213 54.8626 159.669 52.5425 165.318 50.7268C176.919 46.8936 178.331 47.0953 180.147 53.3495L181.155 57.0819L182.366 53.0469C183.879 48.1041 182.769 44.5735 179.037 42.1525C177.019 40.8411 175.103 40.6394 170.362 41.0429C163.805 41.749 161.586 42.7577 152.003 48.9111C145.849 52.9461 145.748 52.946 145.446 50.6259C145.345 49.3146 146.051 45.8848 147.06 42.8586L148.875 37.4114L157.45 35.5956C166.226 33.7799 175.204 30.8546 172.379 30.7537C171.169 30.6528 170.563 28.9379 169.857 23.7933C168.748 15.4208 166.932 15.7234 167.033 24.1968V30.3502L155.432 31.1572C140.604 32.2668 136.771 32.1659 119.622 30.9554L105.6 30.0475L101.767 25.8108C98.5391 22.3811 97.833 20.868 97.833 17.5391C97.833 12.8989 98.1356 12.798 107.416 15.0173C110.745 15.8243 115.284 16.4295 117.503 16.5304H121.538V22.2802C121.538 30.0476 123.556 29.8458 123.657 22.0785L123.758 16.026L142.823 15.9251C153.213 15.8243 164.814 15.5216 168.445 15.1181L175.103 14.5129V19.254C175.002 22.2802 175.506 24.096 176.313 24.3986C177.423 24.7012 177.625 23.5916 177.322 19.254C177.019 14.2103 177.322 13.5042 179.239 12.5963C180.348 12.0919 181.66 11.8901 181.962 12.1928C182.971 13.2015 182.668 24.6003 181.559 26.6178C180.752 28.1309 180.853 28.4336 181.861 28.0301C185.493 26.7187 187.712 14.8155 185.594 8.46043C184.585 5.33332 183.475 4.2237 180.348 2.91233C178.129 2.00446 174.397 1.0966 172.077 0.894849C163.704 -0.0130205 133.442 -0.315636 127.591 0.390485ZM162.393 5.4342C166.024 5.93857 171.774 6.64469 175.305 7.04819C178.734 7.35081 181.761 8.05693 182.063 8.46043C183.274 10.377 178.432 11.2849 164.914 11.7893C157.147 12.0919 147.463 12.798 143.327 13.4033C136.871 14.3111 133.744 14.2103 119.117 11.8902C109.938 10.4779 101.767 9.16654 100.96 8.86392C98.64 8.1578 101.162 6.34208 106.609 4.82896C111.955 3.31584 150.288 3.71933 162.393 5.4342ZM175.506 43.7665C176.616 44.4726 175.91 44.8761 172.682 45.3805C170.261 45.784 165.116 47.7006 161.081 49.8189C153.213 53.8539 148.27 55.4679 148.27 53.9548C148.27 52.3408 151.196 50.6259 160.577 46.6918C170.362 42.6568 172.984 42.1525 175.506 43.7665ZM141.209 57.4854C141.209 58.2924 140.705 58.6959 140.2 58.3933C139.595 57.9898 139.393 57.2836 139.696 56.7793C140.604 55.367 141.209 55.6697 141.209 57.4854ZM83.2062 112.765C85.0219 113.269 85.2237 114.076 85.2237 121.44V129.51L73.5222 129.207C57.3823 128.602 52.4395 125.677 52.4395 116.9V112.865L66.8645 112.563C74.7327 112.462 82.0966 112.563 83.2062 112.765ZM189.326 122.65L189.427 129.711L186.3 129.106C184.484 128.804 179.945 128.299 176.212 127.896C170.866 127.391 169.454 126.887 169.857 125.777C170.261 124.97 170.463 122.348 170.463 120.028V115.69L179.844 115.589L189.124 115.488L189.326 122.65ZM198.102 122.146L198.001 129.005L194.269 129.308C191.444 129.51 190.637 129.308 191.243 128.4C191.646 127.694 191.848 124.567 191.747 121.238L191.545 115.387H194.874H198.203L198.102 122.146ZM190.234 141.615C187.712 151.904 185.795 152.206 183.98 142.623C182.164 133.141 181.962 133.545 187.409 133.545H192.251L190.234 141.615ZM130.113 139.496C130.113 139.9 128.297 140.606 125.977 140.909C123.758 141.211 118.613 143.027 114.578 144.944C110.644 146.961 106.004 148.878 104.39 149.281C101.364 149.987 101.364 149.987 103.179 147.97C104.188 146.759 107.618 144.742 110.745 143.43C113.872 142.018 117.604 140.404 119.017 139.799C122.043 138.488 130.113 138.185 130.113 139.496ZM166.226 142.623C174.598 145.851 181.559 150.592 178.129 150.693C177.12 150.693 172.379 148.878 167.739 146.557C162.998 144.237 157.45 142.22 155.231 141.917C153.112 141.615 151.599 141.009 151.902 140.505C152.91 138.79 158.459 139.597 166.226 142.623ZM94.5041 152.913C94.2015 153.72 93.8989 153.417 93.8989 152.307C93.798 151.198 94.1006 150.592 94.4032 150.996C94.7059 151.299 94.8067 152.206 94.5041 152.913ZM188.62 153.72C188.62 154.224 187.914 154.728 187.107 154.728C186.3 154.728 185.594 154.224 185.594 153.72C185.594 153.114 186.3 152.711 187.107 152.711C187.914 152.711 188.62 153.114 188.62 153.72ZM26.0104 242.691C30.2471 244.406 35.19 246.827 36.8039 247.936C39.7293 249.954 39.7293 250.055 37.6109 250.357C36.2996 250.559 31.5585 248.844 26.9182 246.625C22.3789 244.406 16.7299 242.287 14.4098 241.884C11.9888 241.581 10.3748 240.875 10.6775 240.371C11.7871 238.555 18.5457 239.564 26.0104 242.691ZM47.3958 253.585C47.3958 254.09 46.9923 254.594 46.387 254.594C45.8826 254.594 45.3783 254.09 45.3783 253.585C45.3783 252.98 45.8826 252.577 46.387 252.577C46.9923 252.577 47.3958 252.98 47.3958 253.585ZM32.9707 270.129C30.6506 273.659 27.927 277.997 27.0191 279.813C25.4051 282.637 24.9008 282.94 21.9754 282.334C20.1597 281.931 18.4448 281.427 18.1422 281.124C17.5369 280.62 35.3917 263.774 36.5013 263.673C36.9048 263.673 35.3917 266.598 32.9707 270.129Z" fill="#272727"></path><path d="M75.6406 119.928C75.6406 124.871 75.9432 126.586 76.952 126.183C77.759 125.981 78.1625 123.762 78.1625 119.928C78.1625 116.095 77.759 113.876 76.952 113.573C75.9432 113.271 75.6406 114.985 75.6406 119.928Z" fill="#272727"></path><path d="M67.1671 115.993C66.461 117.91 67.5706 125.476 68.5794 125.476C69.5881 125.476 70.3951 118.616 69.7899 116.094C69.2855 113.976 67.9741 113.875 67.1671 115.993Z" fill="#272727"></path><path d="M58.4917 119.927C58.4917 121.642 58.9961 122.449 59.8031 122.147C60.4083 121.945 61.0136 120.936 61.0136 119.927C61.0136 118.919 60.4083 117.91 59.8031 117.607C58.9961 117.405 58.4917 118.212 58.4917 119.927Z" fill="#272727"></path><path d="M177.019 119.423C176.313 121.743 177.221 125.476 178.633 125.476C179.138 125.476 179.541 123.66 179.541 121.441C179.541 117.204 178.129 115.993 177.019 119.423Z" fill="#272727"></path><path d="M100.355 17.4389C99.5476 20.1625 100.657 23.7939 102.17 23.2896C102.876 23.0878 103.381 21.373 103.381 19.5572C103.381 15.724 101.363 14.3117 100.355 17.4389Z" fill="#272727"></path><path d="M134.652 17.742C133.745 20.163 134.552 29.1408 135.661 28.939C137.073 28.5355 137.578 18.549 136.266 17.2376C135.56 16.5315 135.056 16.7332 134.652 17.742Z" fill="#272727"></path><path d="M145.244 23.3903C145.244 28.9384 145.546 30.7542 146.555 30.4515C148.472 29.7454 148.673 20.465 146.858 18.044C145.445 16.2282 145.345 16.6317 145.244 23.3903Z" fill="#272727"></path><path d="M109.534 22.5843C108.828 27.7289 109.232 29.6455 111.048 29.6455C111.552 29.6455 111.955 26.9219 111.955 23.593C111.955 16.2292 110.442 15.624 109.534 22.5843Z" fill="#272727"></path><path d="M155.332 22.0788C155.332 25.4077 155.735 26.6182 156.845 26.6182C157.954 26.6182 158.358 25.4077 158.358 22.0788C158.358 18.75 157.954 17.5395 156.845 17.5395C155.735 17.5395 155.332 18.75 155.332 22.0788Z" fill="#272727"></path><path d="M183.576 57.9902C183.576 61.4199 181.659 63.9418 176.717 67.1698C172.783 69.6916 172.48 70.0951 174.901 69.5907C176.414 69.1872 178.835 68.1785 180.247 67.2706C183.98 64.7488 187.409 55.8718 184.585 55.8718C184.08 55.8718 183.576 56.7797 183.576 57.9902Z" fill="#272727"></path><path d="M96.1181 64.1436C96.5216 70.4987 98.6399 74.0293 102.171 74.0293C104.087 74.0293 104.087 73.8275 101.464 71.1039C99.9513 69.4899 98.0347 65.9593 97.2277 63.3366L95.8154 58.3938L96.1181 64.1436Z" fill="#272727"></path><path d="M175.002 61.0173C170.563 63.0348 161.989 63.5391 156.542 62.026C154.726 61.4208 153.515 61.4208 153.717 61.8243C154.02 62.2278 156.945 63.4383 160.274 64.447C167.638 66.6662 172.379 65.9601 176.817 61.9251C180.55 58.4954 180.449 58.3945 175.002 61.0173Z" fill="#272727"></path><path d="M128.6 74.1305C125.876 77.5603 122.446 81.6961 121.034 83.411L118.512 86.5381L121.74 84.3188C126.078 81.2926 131.727 74.4332 133.038 70.9026C133.542 69.2886 133.946 67.9772 133.845 67.9772C133.744 67.9772 131.424 70.8017 128.6 74.1305Z" fill="#272727"></path><path d="M116.595 115.893C115.687 118.314 117.1 126.586 118.411 126.182C119.924 125.678 119.823 115.187 118.411 114.682C117.806 114.481 116.999 114.985 116.595 115.893Z" fill="#272727"></path><path d="M127.289 119.827C127.49 122.954 128.096 125.476 128.6 125.476C130.113 125.476 129.911 115.186 128.297 114.581C127.289 114.279 127.087 115.489 127.289 119.827Z" fill="#272727"></path><path d="M106.609 116.094C105.701 116.901 105.701 121.743 106.508 123.861C107.719 127.089 108.929 125.374 108.929 120.432C108.929 115.791 108.223 114.379 106.609 116.094Z" fill="#272727"></path><path d="M96.8242 121.844C96.8242 126.283 97.1268 127.493 98.4382 127.493C99.6487 127.493 99.8505 126.484 99.6487 122.248C99.2452 114.783 96.8242 114.48 96.8242 121.844Z" fill="#272727"></path><path d="M206.475 117.91C205.567 120.129 206.879 125.577 208.19 125.173C209.602 124.669 209.602 117.204 208.19 116.7C207.585 116.498 206.778 117.002 206.475 117.91Z" fill="#272727"></path><path d="M225.54 118.011C225.237 118.919 224.935 120.734 224.935 122.147C224.935 126.081 227.456 124.366 227.759 120.129C228.062 116.397 226.649 115.085 225.54 118.011Z" fill="#272727"></path><path d="M137.88 152.409C136.871 156.444 133.744 160.479 129.709 162.9C127.288 164.413 126.985 164.816 128.499 164.816C131.424 164.816 136.972 160.681 138.283 157.654C138.889 156.141 139.191 153.619 138.99 152.106L138.586 149.181L137.88 152.409Z" fill="#272727"></path><path d="M50.0185 154.931C48.7072 162.597 51.229 168.852 55.7684 168.852C57.5841 168.852 57.5841 168.65 55.1631 166.229C52.5404 163.707 51.8343 161.185 51.1281 153.72C50.8255 150.291 50.8255 150.392 50.0185 154.931Z" fill="#272727"></path><path d="M230.079 156.443C229.978 162.092 228.465 165.925 225.137 168.548C223.018 170.364 222.816 170.868 224.128 170.868C225.036 170.868 227.053 169.859 228.465 168.548C231.592 165.925 232.904 158.965 231.088 154.728C230.18 152.408 230.079 152.61 230.079 156.443Z" fill="#272727"></path><path d="M128.6 156.243C125.069 157.857 114.982 158.159 110.14 156.848C108.324 156.243 107.113 156.243 107.416 156.747C108.223 158.059 117.1 160.782 120.832 160.782C124.565 160.782 130.314 158.462 132.231 156.142C133.643 154.427 132.635 154.427 128.6 156.243Z" fill="#272727"></path><path d="M149.682 157.655C150.691 158.765 153.515 160.48 155.836 161.388C159.871 162.901 160.577 162.901 165.62 161.388C170.866 159.774 178.431 156.041 173.993 157.151C164.612 159.673 157.55 159.572 150.792 156.848C147.867 155.638 147.867 155.638 149.682 157.655Z" fill="#272727"></path><path d="M193.159 163.808C194.471 168.65 198.606 174.501 203.65 178.738C206.475 181.159 208.795 182.873 208.795 182.571C208.795 182.268 206.071 178.838 202.843 175.106C199.514 171.273 195.883 166.532 194.672 164.716C192.857 161.892 192.655 161.69 193.159 163.808Z" fill="#272727"></path><path d="M85.2239 165.826C84.1143 167.44 80.9872 171.273 78.2636 174.299C75.54 177.426 73.6234 180.251 73.8251 180.554C74.733 181.36 84.316 171.576 86.1318 167.944C88.4519 163.607 87.7458 162.093 85.2239 165.826Z" fill="#272727"></path><path d="M199.817 166.733C200.423 168.146 203.953 172.382 207.786 176.115C215.554 183.479 216.462 185.496 211.922 184.79C209.3 184.386 209.098 184.588 209.905 186.101C210.914 188.119 214.343 189.43 215.856 188.522C219.084 186.505 215.352 180.15 204.558 169.76C200.12 165.321 199.111 164.716 199.817 166.733Z" fill="#272727"></path><path d="M167.739 189.733C161.686 191.549 157.046 195.181 157.954 197.501C158.66 199.216 170.16 205.167 172.783 205.167C175.809 205.167 175.506 206.983 172.177 208.194C168.546 209.505 140.604 211.623 129.104 211.421C122.85 211.421 112.157 209.505 101.364 206.58C99.8504 206.176 99.0434 206.781 98.0347 209.101C96.8242 211.724 96.925 213.035 98.3373 217.777C100.657 225.947 103.885 228.974 112.964 231.495C117.1 232.605 123.556 233.816 127.187 234.118C131.424 234.522 133.845 235.127 133.845 235.934C133.845 236.64 134.45 239.263 135.156 241.886C135.863 244.508 136.165 246.828 135.863 247.131C135.56 247.434 131.121 245.618 125.977 243.096C117.503 238.859 115.99 238.456 109.232 238.456C103.381 238.456 101.464 238.859 99.9513 240.372C97.9338 242.39 96.2189 249.451 97.5303 250.46C98.0347 250.763 98.9425 252.175 99.5478 253.587C100.657 256.008 100.758 256.008 100.758 252.477C100.859 250.561 101.464 248.039 102.271 246.929C103.684 245.013 103.885 245.013 114.78 247.333C120.832 248.543 127.793 250.157 130.214 250.863L134.652 252.175L129.104 255.403C122.749 259.034 117.1 260.144 109.232 259.236C103.078 258.53 102.776 259.74 108.526 261.657C113.368 263.271 119.319 262.262 126.078 258.53C130.214 256.311 131.021 256.109 129.104 257.723C125.473 260.749 113.468 266.701 110.745 266.701C107.012 266.701 99.5478 261.052 97.5303 256.916L95.8154 253.083L96.3198 256.512C96.6224 258.429 97.5303 261.052 98.2364 262.161C102.877 269.223 119.924 269.525 127.49 262.867C128.499 261.96 129.205 261.657 129.003 262.262C128.801 262.968 126.582 264.986 124.06 266.902C117.403 271.946 112.762 278.402 113.166 282.235C113.468 285.06 113.872 285.362 117.201 285.665C120.126 285.867 121.135 285.564 122.043 283.95C122.85 282.336 122.85 282.034 121.841 282.336C121.135 282.639 119.218 282.437 117.604 282.034L114.679 281.227L123.556 271.442C128.398 266.095 132.635 261.657 132.735 261.657C132.937 261.657 131.727 263.876 130.113 266.499C126.683 272.047 123.758 278.806 124.363 279.512C124.968 280.016 134.652 264.784 135.56 261.859C135.963 260.648 136.77 259.639 137.376 259.639C138.889 259.639 137.678 276.687 135.56 284.354C133.442 292.323 133.341 293.432 135.156 293.432C138.485 293.432 139.696 287.884 139.998 271.442C140.503 248.745 143.226 251.065 143.226 274.266C143.226 280.319 143.731 287.077 144.336 289.095C145.345 293.029 147.867 294.239 148.875 291.415C150.086 288.288 167.033 291.112 168.142 294.542C168.748 296.257 167.134 296.56 151.902 298.476C140.2 299.989 136.165 300.09 126.986 299.182C120.933 298.577 115.082 297.568 113.973 296.963C109.534 294.542 112.359 292.827 123.758 290.81C131.222 289.498 133.845 288.187 132.231 286.573C131.121 285.463 117.1 288.288 112.762 290.507C107.618 293.13 109.938 297.467 118.815 301.906C122.85 303.923 124.161 304.024 140.503 303.621C162.998 302.915 172.984 300.292 171.169 295.551C169.857 292.121 156.643 285.867 150.59 285.867C149.38 285.867 148.169 285.06 147.867 284.051C146.454 279.31 144.336 260.648 144.84 257.42C145.446 253.99 145.647 253.789 147.968 254.898C149.279 255.504 151.902 258.53 153.919 261.758C155.836 265.087 159.064 268.617 161.081 269.828C165.822 272.753 171.471 277.696 171.471 278.906C171.471 279.411 170.261 279.814 168.849 279.814C166.629 279.814 166.327 280.016 167.436 281.327C168.142 282.134 169.756 282.841 171.068 282.841C172.984 282.841 173.489 282.336 173.489 280.117C173.489 277.999 172.076 276.082 167.739 272.249C157.551 263.271 150.792 256.311 151.902 255.907C152.507 255.705 156.138 257.319 159.972 259.539C163.805 261.758 168.949 263.775 171.471 264.078L176.011 264.683L171.471 262.867C168.949 261.859 162.897 258.832 157.853 256.008C146.858 250.056 148.573 249.149 162.292 253.587C167.537 255.201 172.783 256.613 173.892 256.613C176.717 256.613 180.55 253.89 180.55 251.872C180.55 250.46 180.247 250.46 178.532 252.074C177.322 253.183 175.002 253.99 173.186 253.89C168.647 253.789 153.314 249.552 153.314 248.442C153.314 247.938 153.818 247.535 154.423 247.535C155.029 247.535 158.559 246.122 162.393 244.508C171.169 240.675 175.607 240.574 178.432 244.105C180.046 246.122 180.55 246.425 180.55 245.114C180.55 244.206 179.339 242.188 177.927 240.776C174.397 237.245 169.555 237.951 157.954 243.399C153.011 245.618 148.674 247.333 148.472 247.03C147.463 246.122 149.582 244.71 158.358 240.372C165.721 236.842 167.638 236.337 171.774 236.741C174.901 237.044 177.423 237.951 179.037 239.465C182.567 242.793 182.164 241.28 178.432 236.943C175.91 234.118 174.598 233.412 171.572 233.412C164.814 233.412 157.651 236.237 152.204 241.079C149.38 243.6 146.858 245.416 146.555 245.114C146.253 244.912 146.354 242.289 146.757 239.565L147.463 234.421H151.296C155.634 234.421 173.388 229.175 177.826 226.553C182.87 223.627 184.787 220.097 184.988 213.641C185.089 205.974 183.072 205.268 182.265 212.733C181.559 219.996 180.046 222.215 173.489 225.746C168.647 228.368 167.134 228.671 152.91 229.377C143.428 229.781 135.358 229.68 131.424 229.075L125.271 227.965L125.372 222.417C125.573 215.053 123.758 214.649 122.648 221.812L121.841 227.36L115.082 227.259C111.451 227.158 107.315 226.855 105.903 226.452C102.675 225.544 99.8504 219.996 99.8504 214.347C99.8504 210.614 100.052 210.11 101.565 210.715C106.306 212.43 129.104 215.255 139.696 215.255C141.915 215.255 142.319 215.557 141.411 216.465C139.998 217.877 139.797 228.368 141.108 228.368C142.722 228.368 143.226 226.754 143.327 221.005L143.529 215.557L155.23 214.347C161.686 213.742 169.151 212.935 171.875 212.733C176.818 212.329 180.55 210.009 180.55 207.487C180.55 206.68 181.861 206.176 184.383 206.176H188.116L188.317 211.119C188.519 218.584 190.738 222.719 196.085 225.847C203.751 230.285 213.637 232.403 227.86 232.403C239.259 232.403 240.268 232.504 239.561 234.118C239.259 235.127 238.452 238.355 237.847 241.179C237.04 245.214 236.334 246.526 234.921 246.526C233.711 246.526 233.005 245.517 232.5 243.197C230.281 232.302 227.356 229.478 228.465 239.465C228.869 242.793 228.869 245.517 228.566 245.517C228.264 245.517 225.338 243.701 221.908 241.583C217.672 238.758 213.939 237.346 209.097 236.438C201.229 235.127 198.001 236.035 195.378 240.473L193.563 243.399L197.9 240.978C203.549 237.75 205.97 237.851 215.957 241.583C229.071 246.324 231.492 249.249 218.781 245.013C214.646 243.6 208.694 242.188 205.466 241.785C200.321 241.28 199.413 241.482 197.194 243.5C195.782 244.811 194.672 246.728 194.672 247.837C194.672 249.552 194.874 249.552 196.69 247.232C199.817 243.197 203.953 242.995 214.141 246.324L223.018 249.249L214.444 252.982C205.264 256.916 199.413 257.622 196.589 254.999C194.975 253.486 194.874 253.587 195.378 255.604C196.791 260.85 203.045 260.547 214.847 254.596C217.873 253.083 221.707 251.57 223.321 251.166C225.943 250.561 226.145 250.662 225.036 251.973C222.816 254.596 204.962 265.692 201.935 266.297C195.984 267.508 191.747 262.262 191.545 253.385C191.444 249.149 191.444 249.149 190.537 252.074C188.216 259.236 192.251 267.709 197.799 267.709C204.76 267.709 210.913 265.49 217.066 260.648C220.597 257.925 223.522 255.907 223.724 256.109C224.935 257.319 221.505 262.161 213.738 270.433C207.181 277.192 204.76 280.52 204.76 282.437C204.76 284.656 205.163 284.959 207.988 284.656C211.518 284.354 213.233 281.832 209.904 281.832C206.374 281.832 207.483 279.209 213.637 273.56C217.167 270.332 220.9 265.692 222.816 261.96C224.632 258.53 226.851 255.504 227.658 255.201C230.886 253.89 231.29 255.705 230.685 268.113C229.777 284.959 229.474 285.867 225.54 285.867C218.68 285.867 205.97 291.718 203.751 295.954C202.541 298.173 203.953 299.485 212.225 303.015C216.764 305.033 218.378 305.235 233.408 304.831C247.127 304.428 250.557 304.024 255.399 302.108C263.368 298.98 266.495 296.358 266.091 293.029C265.688 289.498 260.644 287.077 251.364 286.27C245.21 285.665 244.101 285.766 244.101 287.077C244.101 288.893 247.026 289.902 252.171 289.902C254.087 289.902 257.618 290.81 260.039 291.919C263.872 293.634 264.276 294.139 263.267 295.853C262.157 298.073 260.846 298.375 244.807 300.09C229.575 301.704 206.576 298.88 206.576 295.45C206.576 294.038 218.68 290.003 223.018 289.902C225.439 289.902 226.952 290.406 227.356 291.415C228.264 293.836 229.777 293.231 231.693 289.599C233.206 286.876 233.408 284.051 233.206 270.433C233.005 255.302 233.106 254.596 234.921 254.596C236.838 254.596 236.939 255.504 237.241 271.744C237.443 285.665 237.847 289.095 239.158 290.406C240.57 291.818 240.873 291.818 241.982 290.507C242.89 289.498 242.89 288.49 242.184 287.077C240.974 284.757 239.057 270.231 239.057 263.17V258.126L241.982 262.666C243.496 265.188 246.925 269.424 249.548 272.249C254.087 277.091 254.188 277.192 252.574 273.762C251.666 271.845 249.346 268.012 247.43 265.389C245.311 262.363 244.706 260.951 245.816 261.556C249.145 263.473 263.771 277.595 263.166 278.301C262.763 278.604 260.846 279.007 258.829 279.108C255.399 279.31 255.399 279.411 257.013 281.126C259.131 283.143 264.78 282.538 265.688 280.117C266.898 276.889 259.232 267.709 252.574 264.381C250.859 263.473 248.842 262.06 248.035 261.052C246.925 259.639 247.43 259.74 250.859 261.556C256.609 264.381 266.798 264.481 272.346 261.657C276.683 259.438 279.407 255.201 279.407 250.863C279.306 248.241 279.205 248.241 277.995 251.872C276.28 256.512 275.069 258.025 270.631 260.749C268.109 262.363 266.091 262.767 263.368 262.363C259.333 261.859 243.496 254.898 244.303 254.091C244.605 253.789 247.026 254.697 249.649 256.109C257.719 260.346 267.605 259.337 272.648 253.789C274.464 251.771 274.363 251.771 270.227 253.89C264.074 256.916 254.592 256.714 246.824 253.385L240.873 250.863L245.816 248.846C248.438 247.635 255.197 245.315 260.745 243.5L270.833 240.372L272.547 242.491C273.556 243.701 274.363 246.122 274.464 247.938L274.565 251.065L276.078 247.535C277.793 243.6 277.188 239.061 274.666 236.237C273.455 234.824 271.539 234.421 266.697 234.421C258.929 234.421 256.508 235.329 247.833 241.179C244.101 243.701 240.772 245.517 240.368 245.114C239.965 244.71 240.57 241.785 241.68 238.658C243.496 233.614 244.101 232.908 246.724 232.605C254.087 231.798 270.126 228.066 272.85 226.553C277.49 223.829 279.508 218.987 279.205 211.321L278.903 204.764L267.302 201.334C256.307 198.106 254.794 197.904 239.158 197.703C227.86 197.602 222.514 197.904 222.211 198.711C221.707 200.124 230.281 201.031 252.171 202.04C267.806 202.746 273.354 203.755 273.354 206.176C273.354 207.79 262.763 209.505 250.658 209.908C222.615 210.614 218.277 210.514 210.308 208.799C197.598 206.075 197.497 205.974 206.172 204.562C214.646 203.251 219.387 200.729 219.387 197.501C219.387 195.988 217.571 194.979 210.812 192.76C199.212 189.027 194.672 188.321 194.672 190.238C194.672 191.448 196.387 191.953 201.734 192.255C208.694 192.76 214.948 195.382 213.233 197.097C209.097 200.931 170.866 202.948 164.612 199.72C158.559 196.593 161.686 193.567 172.278 192.457C178.129 191.751 180.953 190.54 179.945 188.926C179.138 187.615 173.69 187.918 167.739 189.733ZM194.975 209.505C195.883 209.807 201.229 210.614 206.979 211.22C212.729 211.825 222.11 212.935 227.961 213.742C233.812 214.448 239.662 214.952 241.075 214.649C242.487 214.448 250.153 213.842 258.223 213.338C266.293 212.834 273.859 212.128 275.069 211.724C277.188 211.018 277.389 211.22 276.784 214.347C275.675 220.298 273.96 222.619 268.916 225.14C263.973 227.561 263.368 227.662 243.193 227.461C231.794 227.36 218.983 227.158 214.746 227.057L207.08 226.855L207.584 220.5C207.988 215.255 207.786 214.246 206.475 214.246C204.457 214.246 202.944 222.82 204.558 225.342C205.466 226.855 205.163 226.956 201.935 226.351C194.471 225.04 192.554 222.417 191.142 212.027C190.335 206.882 191.444 203.352 192.756 206.882C193.159 207.992 194.168 209.202 194.975 209.505ZM143.327 241.079C142.52 244.609 141.31 247.535 140.705 247.535C139.696 247.535 135.963 234.925 136.77 234.118C136.972 234.017 138.788 234.017 140.906 234.219L144.84 234.623L143.327 241.079ZM270.732 237.346C271.034 237.851 269.521 238.456 267.403 238.758C265.184 239.061 259.636 241.079 254.894 243.399C246.118 247.635 240.167 249.048 243.193 246.021C244 245.214 248.741 242.693 253.684 240.473C262.359 236.64 269.521 235.329 270.732 237.346ZM119.319 242.894C128.902 245.517 135.056 248.644 131.828 249.35C130.92 249.552 126.078 248.342 121.236 246.728C116.394 245.013 110.442 243.399 108.021 242.995C104.995 242.491 104.087 241.986 104.995 241.381C107.214 239.969 109.736 240.272 119.319 242.894ZM142.218 251.065C142.218 251.872 141.814 252.578 141.31 252.578C139.998 252.578 139.091 250.964 139.898 250.157C141.007 249.048 142.218 249.552 142.218 251.065ZM236.535 250.561C236.838 251.065 236.233 251.57 235.123 251.57C233.913 251.57 233.005 251.065 233.005 250.561C233.005 249.956 233.61 249.552 234.417 249.552C235.224 249.552 236.233 249.956 236.535 250.561Z" fill="#272727"></path><path d="M196.286 213.438C195.176 217.574 195.58 222.517 196.891 222.114C198.304 221.609 199.817 214.649 199.01 212.53C198.203 210.513 196.992 211.017 196.286 213.438Z" fill="#272727"></path><path d="M271.035 214.95C269.925 215.959 270.228 219.288 271.337 219.288C272.85 219.288 273.758 216.262 272.649 215.152C272.144 214.648 271.438 214.547 271.035 214.95Z" fill="#272727"></path><path d="M225.641 215.959C225.237 216.262 224.935 218.38 224.935 220.498C224.935 225.946 227.356 225.038 227.759 219.49C228.062 215.556 227.255 214.244 225.641 215.959Z" fill="#272727"></path><path d="M243.193 217.07C241.579 219.995 241.78 224.333 243.495 224.333C244.302 224.333 245.109 222.82 245.412 220.601C246.118 216.162 244.807 214.044 243.193 217.07Z" fill="#272727"></path><path d="M216.562 216.969C215.553 217.978 215.755 225.342 216.764 225.342C217.974 225.342 218.882 222.719 218.882 219.188C218.882 216.364 217.974 215.456 216.562 216.969Z" fill="#272727"></path><path d="M234.719 216.968C234.316 217.27 234.013 219.389 234.013 221.507C234.013 226.954 236.434 226.047 236.838 220.498C237.14 216.564 236.333 215.253 234.719 216.968Z" fill="#272727"></path><path d="M249.75 217.877C248.64 220.802 249.044 225.342 250.557 225.342C251.969 225.342 253.583 218.684 252.574 217.07C251.767 215.759 250.456 216.162 249.75 217.877Z" fill="#272727"></path><path d="M256.811 217.473C255.499 221.609 255.298 224.332 256.306 224.938C257.92 225.846 259.03 224.232 259.434 220.398C259.736 216.969 257.719 214.648 256.811 217.473Z" fill="#272727"></path><path d="M264.276 219.895C264.276 224.434 266.697 224.132 267.1 219.491C267.302 217.07 266.999 216.263 265.89 216.263C264.679 216.263 264.276 217.272 264.276 219.895Z" fill="#272727"></path><path d="M77.8602 212.934C76.6497 215.254 77.4567 220.5 79.0707 219.995C79.6759 219.794 80.2812 218.18 80.4829 216.263C80.8864 212.228 79.2724 210.211 77.8602 212.934Z" fill="#272727"></path><path d="M82.0964 213.74C81.3902 216.564 82.0964 219.288 83.5086 219.288C84.6182 219.288 85.9296 213.437 85.1226 212.126C84.1138 210.411 82.7016 211.218 82.0964 213.74Z" fill="#272727"></path><path d="M177.625 214.044C176.515 216.162 177.726 218.886 179.441 217.877C180.752 216.969 180.954 213.539 179.642 212.732C179.037 212.43 178.23 213.035 177.625 214.044Z" fill="#272727"></path><path d="M18.1421 219.389C18.1421 226.047 20.5631 225.644 20.9666 218.986C21.1683 215.254 20.9666 214.245 19.7561 214.245C18.5456 214.245 18.1421 215.455 18.1421 219.389Z" fill="#272727"></path><path d="M26.8175 215.86C25.607 218.987 26.1114 224.333 27.6245 224.333C29.1376 224.333 30.8525 217.07 29.7428 215.254C28.835 213.741 27.5236 214.044 26.8175 215.86Z" fill="#272727"></path><path d="M34.2817 216.161C32.9703 218.683 33.9791 225.643 35.6939 225.038C37.1062 224.534 37.8123 216.363 36.5009 215.052C35.7948 214.345 35.0887 214.749 34.2817 216.161Z" fill="#272727"></path><path d="M43.0582 214.951C42.6547 215.253 42.3521 218.28 42.3521 221.508C42.3521 226.047 42.6547 227.358 43.8652 227.358C45.0757 227.358 45.3783 225.946 45.3783 220.802C45.3783 214.749 44.773 213.236 43.0582 214.951Z" fill="#272727"></path><path d="M67.9743 216.666C67.1673 220.095 67.8734 225.644 69.2857 226.047C70.6979 226.551 71.2023 224.231 70.6979 218.582C70.3953 213.841 68.983 212.833 67.9743 216.666Z" fill="#272727"></path><path d="M115.688 214.951C114.376 217.17 113.973 224.232 114.981 224.837C116.797 225.947 118.008 223.425 118.008 218.482C118.008 214.649 116.898 212.934 115.688 214.951Z" fill="#272727"></path><path d="M53.1456 215.96C52.7421 216.263 52.4395 218.583 52.4395 221.004C52.4395 224.232 52.843 225.342 53.9526 225.342C55.0622 225.342 55.4657 224.131 55.4657 220.298C55.4657 215.658 54.7596 214.246 53.1456 215.96Z" fill="#272727"></path><path d="M59.9037 216.767C59.0967 218.785 60.3072 223.324 61.6186 223.324C63.1317 223.324 63.8378 220.601 63.1317 217.776C62.4256 214.952 60.7107 214.447 59.9037 216.767Z" fill="#272727"></path><path d="M105.499 216.766C104.591 219.187 104.793 223.121 105.802 223.727C107.315 224.735 109.131 221.608 108.727 218.683C108.425 215.455 106.407 214.345 105.499 216.766Z" fill="#272727"></path><path d="M155.937 216.867C155.029 219.288 155.231 227.157 156.239 227.762C157.853 228.771 159.064 225.946 159.266 220.499C159.467 216.464 159.165 215.253 158.055 215.253C157.248 215.253 156.239 215.96 155.937 216.867Z" fill="#272727"></path><path d="M165.116 215.96C164.814 216.363 164.41 218.583 164.309 220.802C164.007 223.828 164.309 224.837 165.419 224.837C166.428 224.837 167.033 223.626 167.235 220.903C167.537 217.17 166.226 214.144 165.116 215.96Z" fill="#272727"></path><path d="M171.471 219.289C171.471 222.215 171.875 223.324 172.984 223.324C174.094 223.324 174.497 222.215 174.497 219.289C174.497 216.364 174.094 215.254 172.984 215.254C171.875 215.254 171.471 216.364 171.471 219.289Z" fill="#272727"></path><path d="M130.718 217.876C129.507 221.003 130.012 227.358 131.525 227.358C133.139 227.358 134.148 224.332 134.148 219.49C134.148 216.06 131.827 214.951 130.718 217.876Z" fill="#272727"></path><path d="M148.976 216.969C148.673 217.473 148.27 219.087 148.169 220.802C147.866 223.021 148.169 223.828 149.279 223.828C150.287 223.828 150.893 222.618 151.094 219.995C151.397 216.666 150.187 214.951 148.976 216.969Z" fill="#272727"></path><path d="M182.568 244.406C183.072 245.515 183.576 248.945 183.576 251.971C183.576 256.813 183.173 258.024 180.449 261.151C178.028 263.875 177.726 264.682 178.936 264.682C179.844 264.682 181.761 263.572 183.072 262.16C185.09 260.243 185.594 258.73 185.594 254.594C185.594 249.853 183.476 242.489 182.063 242.489C181.761 242.489 181.962 243.397 182.568 244.406Z" fill="#272727"></path><path d="M89.4602 254.192C90.1663 259.437 88.2497 265.288 84.9209 268.415C81.3902 271.643 84.6182 271.542 88.4515 268.314C90.8724 266.196 91.2759 265.187 91.1751 260.042C91.1751 256.714 90.6707 253.183 90.0654 252.073C89.0567 250.358 88.9558 250.762 89.4602 254.192Z" fill="#272727"></path><path d="M222.917 267.405C212.829 279.611 213.132 279.208 215.452 277.997C219.487 275.879 229.171 263.37 227.759 262.16C227.557 262.059 225.439 264.379 222.917 267.405Z" fill="#272727"></path><path d="M52.4395 263.068C52.4395 265.288 57.9875 273.963 61.9216 277.695C67.9741 283.546 68.882 282.537 63.233 276.182C60.812 273.458 57.3823 269.222 55.6674 266.801C53.8517 264.38 52.4395 262.665 52.4395 263.068Z" fill="#272727"></path><path d="M149.278 263.27C149.278 265.993 162.594 277.997 164.006 276.585C164.208 276.283 160.98 273.055 156.844 269.322C152.708 265.59 149.278 262.866 149.278 263.27Z" fill="#272727"></path></svg> 