<?xml version="1.0" encoding="UTF-8"?> <svg xmlns="http://www.w3.org/2000/svg" width="204" height="170" viewBox="0 0 204 170" fill="none"><path d="M29.8385 0.000249387C30.0324 0.000735042 30.0324 0.000735042 30.2304 0.00123051C30.3659 0.000950228 30.5014 0.00066995 30.641 0.000381179C31.0913 -0.000325706 31.5415 0.000144429 31.9918 0.000683812C32.3032 0.000576167 32.6147 0.000421018 32.9261 0.0002201C33.5798 -1.61577e-05 34.2334 0.000328544 34.8871 0.00107431C35.7269 0.00198557 36.5668 0.00146112 37.4066 0.000502905C38.05 -7.37465e-05 38.6934 0.000108286 39.3368 0.000523344C39.6466 0.000630406 39.9564 0.000497836 40.2661 0.000126748C40.6983 -0.000277272 41.1304 0.000336802 41.5625 0.00123051C41.6919 0.000906737 41.8212 0.000582968 41.9544 0.000249387C42.8376 0.00365083 42.8376 0.00365082 43.0159 0.181873C43.3765 0.227121 43.7371 0.253484 44.0995 0.281215C44.4557 0.34182 44.4557 0.34182 44.9357 0.661714C45.2347 0.693132 45.5351 0.711603 45.8356 0.721694C46.655 0.774993 47.2321 0.947487 47.9586 1.31525C48.3175 1.47105 48.6172 1.52379 49.0054 1.56141C49.5753 1.62139 49.5753 1.62139 49.8953 1.94129C50.3905 2.07392 50.8889 2.17614 51.3908 2.28055C51.5308 2.32694 51.6708 2.37333 51.8151 2.42113C51.8679 2.57948 51.9207 2.73782 51.9751 2.90097C52.084 2.89107 52.1929 2.88117 52.3051 2.87098C52.9221 2.91035 53.3367 3.11818 53.8949 3.38081C53.8949 3.48637 53.8949 3.59194 53.8949 3.7007C54.0071 3.6908 54.1193 3.68091 54.2349 3.67071C54.7993 3.70751 55.1652 3.90735 55.6548 4.18054C55.6548 4.28611 55.6548 4.39167 55.6548 4.50044C55.9188 4.55322 56.1828 4.606 56.4547 4.66038C56.4547 4.76595 56.4547 4.87151 56.4547 4.98028C56.5603 4.99347 56.6659 5.00667 56.7747 5.02026C57.4131 5.17982 57.9563 5.47158 58.5346 5.78001C58.5346 5.88557 58.5346 5.99114 58.5346 6.0999C58.6467 6.1131 58.7589 6.12629 58.8745 6.13989C59.4389 6.28709 59.8146 6.57305 60.2944 6.89964C60.5074 6.95438 60.7206 7.008 60.9344 7.05958C61.2143 7.28951 61.2143 7.28951 61.4143 7.53942C61.4143 7.64499 61.4143 7.75055 61.4143 7.85932C61.5975 7.88901 61.5975 7.88901 61.7843 7.9193C62.2142 8.01926 62.2142 8.01926 62.6942 8.33916C62.6942 8.44472 62.6942 8.55029 62.6942 8.65905C62.8163 8.64915 62.9384 8.63926 63.0642 8.62906C63.4941 8.65905 63.4941 8.65905 63.7841 8.87898C63.9741 9.13889 63.9741 9.13889 63.9741 9.45878C64.2381 9.51157 64.5021 9.56435 64.774 9.61873C64.774 9.7243 64.774 9.82986 64.774 9.93862C64.9324 9.93862 65.0908 9.93862 65.254 9.93862C65.254 10.0442 65.254 10.1498 65.254 10.2585C65.518 10.3113 65.782 10.3641 66.0539 10.4185C66.0539 10.524 66.0539 10.6296 66.0539 10.7384C66.1595 10.7384 66.2651 10.7384 66.3739 10.7384C66.3739 10.8439 66.3739 10.9495 66.3739 11.0583C66.4663 11.0747 66.5587 11.0912 66.6539 11.1082C67.0709 11.2356 67.3296 11.4086 67.6538 11.698C67.6538 11.8036 67.6538 11.9092 67.6538 12.0179C67.7495 12.0344 67.8452 12.0509 67.9438 12.0679C68.3504 12.1957 68.4815 12.3539 68.7737 12.6577C68.9123 12.7369 69.0509 12.8161 69.1937 12.8976C69.5736 13.1376 69.5736 13.1376 69.7336 13.6174C69.9976 13.6702 70.2616 13.723 70.5336 13.7773C70.5336 13.8829 70.5336 13.9885 70.5336 14.0972C70.7018 14.1517 70.7018 14.1517 70.8735 14.2072C71.4445 14.4678 71.8193 14.8061 72.2934 15.2169C72.399 15.2696 72.5046 15.3224 72.6134 15.3768C72.6134 15.4824 72.6134 15.5879 72.6134 15.6967C72.752 15.761 72.752 15.761 72.8934 15.8267C73.2651 16.0228 73.5794 16.2163 73.8933 16.4964C73.8933 16.6548 73.8933 16.8131 73.8933 16.9763C73.989 16.9961 74.0847 17.0159 74.1833 17.0363C74.5332 17.1362 74.5332 17.1362 75.0132 17.4561C75.0132 17.5617 75.0132 17.6673 75.0132 17.776C75.1716 17.776 75.33 17.776 75.4931 17.776C75.7631 17.9959 75.7631 17.9959 75.9731 18.2559C75.9731 18.3614 75.9731 18.467 75.9731 18.5757C76.1315 18.6285 76.2899 18.6813 76.4531 18.7357C76.4531 18.8413 76.4531 18.9468 76.4531 19.0556C76.5752 19.0985 76.6972 19.1414 76.823 19.1855C77.2354 19.3677 77.4561 19.5057 77.733 19.8553C77.733 19.9609 77.733 20.0665 77.733 20.1752C77.8286 20.2214 77.9243 20.2676 78.0229 20.3152C78.3729 20.4951 78.3729 20.4951 78.8529 20.815C78.8529 20.9206 78.8529 21.0261 78.8529 21.1349C78.9585 21.1349 79.064 21.1349 79.1728 21.1349C79.1728 21.2405 79.1728 21.346 79.1728 21.4548C79.3312 21.4548 79.4896 21.4548 79.6528 21.4548C79.6528 21.6131 79.6528 21.7715 79.6528 21.9346C79.7749 21.9775 79.897 22.0204 80.0228 22.0646C80.4351 22.2467 80.6558 22.3847 80.9327 22.7344C80.9327 22.8399 80.9327 22.9455 80.9327 23.0543C81.0911 23.107 81.2495 23.1598 81.4126 23.2142C81.4126 23.3198 81.4126 23.4253 81.4126 23.5341C81.5182 23.5341 81.6238 23.5341 81.7326 23.5341C81.7326 23.6924 81.7326 23.8508 81.7326 24.0139C81.891 24.0139 82.0494 24.0139 82.2126 24.0139C82.2126 24.1195 82.2126 24.2251 82.2126 24.3338C82.3182 24.3338 82.4238 24.3338 82.5326 24.3338C82.5326 24.4922 82.5326 24.6505 82.5326 24.8137C82.6909 24.8137 82.8493 24.8137 83.0125 24.8137C83.0125 24.9192 83.0125 25.0248 83.0125 25.1336C83.1709 25.1863 83.3293 25.2391 83.4925 25.2935C83.4925 25.3991 83.4925 25.5046 83.4925 25.6134C83.6459 25.6777 83.6459 25.6777 83.8024 25.7434C84.1324 25.9333 84.1324 25.9333 84.2924 26.4131C84.4288 26.4803 84.4288 26.4803 84.568 26.5487C85.1622 26.8493 85.5744 27.3623 86.0276 27.8405C86.4833 28.3114 86.9314 28.6396 87.4921 28.9723C87.4921 29.0779 87.4921 29.1834 87.4921 29.2922C87.6505 29.345 87.8089 29.3977 87.9721 29.4521C87.9721 29.5577 87.9721 29.6633 87.9721 29.772C88.3681 29.9304 88.3681 29.9304 88.772 30.0919C88.772 30.2503 88.772 30.4086 88.772 30.5718C88.9304 30.5718 89.0888 30.5718 89.252 30.5718C89.252 30.7301 89.252 30.8884 89.252 31.0516C89.3576 31.0516 89.4632 31.0516 89.572 31.0516C89.572 31.1572 89.572 31.2627 89.572 31.3715C89.7304 31.4243 89.8887 31.4771 90.0519 31.5314C90.0519 31.637 90.0519 31.7426 90.0519 31.8513C90.1575 31.8513 90.2631 31.8513 90.3719 31.8513C90.6222 32.1221 90.8604 32.4041 91.0918 32.691C91.2189 32.8469 91.3459 33.0028 91.4768 33.1634C91.7473 33.5246 91.9333 33.8511 92.1318 34.2505C92.3438 34.3597 92.557 34.4666 92.7717 34.5704C92.8245 34.7288 92.8773 34.8871 92.9317 35.0503C93.0901 35.103 93.2485 35.1558 93.4116 35.2102C93.4116 35.3158 93.4116 35.4213 93.4116 35.5301C93.5172 35.5301 93.6228 35.5301 93.7316 35.5301C93.7316 35.6884 93.7316 35.8468 93.7316 36.0099C93.89 36.0099 94.0484 36.0099 94.2116 36.0099C94.2545 36.1386 94.2974 36.2673 94.3416 36.3998C94.4356 36.6027 94.4356 36.6027 94.5316 36.8097C94.6899 36.8625 94.8483 36.9152 95.0115 36.9696C95.0115 37.0752 95.0115 37.1808 95.0115 37.2895C95.1171 37.2895 95.2227 37.2895 95.3315 37.2895C95.5479 37.6073 95.7612 37.9273 95.9714 38.2492C96.077 38.302 96.1826 38.3548 96.2914 38.4091C96.2914 38.5675 96.2914 38.7258 96.2914 38.889C96.397 38.889 96.5026 38.889 96.6114 38.889C96.6114 38.9945 96.6114 39.1001 96.6114 39.2089C96.7698 39.2089 96.9282 39.2089 97.0913 39.2089C97.0913 39.3672 97.0913 39.5256 97.0913 39.6887C97.1969 39.6887 97.3025 39.6887 97.4113 39.6887C97.4113 39.7943 97.4113 39.8998 97.4113 40.0086C97.5697 40.0614 97.7281 40.1142 97.8913 40.1686C98.0007 40.3804 98.1072 40.5938 98.2112 40.8083C98.3696 40.9139 98.528 41.0195 98.6912 41.1282C98.6912 41.3394 98.6912 41.5505 98.6912 41.768C98.8496 41.768 99.008 41.768 99.1712 41.768C99.1712 41.8736 99.1712 41.9792 99.1712 42.0879C99.2768 42.0879 99.3823 42.0879 99.4911 42.0879C99.4911 42.2463 99.4911 42.4046 99.4911 42.5678C99.6495 42.6205 99.8079 42.6733 99.9711 42.7277C99.9711 42.8333 99.9711 42.9388 99.9711 43.0476C100.077 43.0476 100.182 43.0476 100.291 43.0476C100.344 43.3115 100.397 43.5754 100.451 43.8473C100.557 43.8473 100.662 43.8473 100.771 43.8473C100.771 43.9529 100.771 44.0585 100.771 44.1672C100.929 44.22 101.088 44.2728 101.251 44.3272C101.251 44.4327 101.251 44.5383 101.251 44.6471C101.568 44.6471 101.885 44.6471 102.211 44.6471C102.211 44.5415 102.211 44.4359 102.211 44.3272C102.912 43.8473 102.912 43.8473 103.331 43.8473C103.384 43.689 103.436 43.5306 103.491 43.3675C103.596 43.3675 103.702 43.3675 103.811 43.3675C103.811 43.2619 103.811 43.1564 103.811 43.0476C103.916 43.0476 104.022 43.0476 104.131 43.0476C104.131 42.8893 104.131 42.7309 104.131 42.5678C104.289 42.5678 104.448 42.5678 104.611 42.5678C104.627 42.4424 104.644 42.317 104.661 42.1879C104.771 41.768 104.771 41.768 105.251 41.4481C105.303 41.2898 105.356 41.1314 105.411 40.9683C105.516 40.9683 105.622 40.9683 105.731 40.9683C105.783 40.8099 105.836 40.6516 105.891 40.4885C105.996 40.4885 106.102 40.4885 106.211 40.4885C106.211 40.3301 106.211 40.1718 106.211 40.0086C106.316 40.0086 106.422 40.0086 106.531 40.0086C106.583 39.7975 106.636 39.5864 106.691 39.3688C106.796 39.3688 106.902 39.3688 107.011 39.3688C107.011 39.2105 107.011 39.0521 107.011 38.889C107.169 38.889 107.327 38.889 107.49 38.889C107.49 38.7306 107.49 38.5723 107.49 38.4091C107.596 38.4091 107.702 38.4091 107.81 38.4091C107.916 38.1452 108.022 37.8813 108.13 37.6094C108.289 37.6094 108.447 37.6094 108.61 37.6094C108.62 37.4939 108.63 37.3785 108.64 37.2595C108.811 36.6683 109.108 36.4048 109.57 36.0099C109.676 36.0099 109.781 36.0099 109.89 36.0099C109.89 35.8516 109.89 35.6932 109.89 35.5301C110.049 35.5301 110.207 35.5301 110.37 35.5301C110.39 35.4344 110.41 35.3388 110.43 35.2402C110.53 34.8903 110.53 34.8903 110.85 34.4105C110.956 34.4105 111.061 34.4105 111.17 34.4105C111.17 34.2521 111.17 34.0938 111.17 33.9306C111.329 33.9306 111.487 33.9306 111.65 33.9306C111.65 33.7723 111.65 33.6139 111.65 33.4508C111.756 33.4508 111.861 33.4508 111.97 33.4508C112.023 33.2924 112.076 33.1341 112.13 32.971C112.236 32.971 112.341 32.971 112.45 32.971C112.45 32.8654 112.45 32.7598 112.45 32.6511C112.556 32.6511 112.661 32.6511 112.77 32.6511C112.813 32.5488 112.856 32.4465 112.9 32.3412C113.09 32.0113 113.09 32.0113 113.57 31.8513C113.68 31.6395 113.786 31.426 113.89 31.2115C114.21 30.8517 114.21 30.8517 114.53 30.5718C114.635 30.5718 114.741 30.5718 114.85 30.5718C114.903 30.4134 114.955 30.2551 115.01 30.0919C115.115 30.0919 115.221 30.0919 115.33 30.0919C115.369 29.9732 115.409 29.8544 115.45 29.732C115.667 29.2554 115.891 28.9884 116.29 28.6524C116.395 28.6524 116.501 28.6524 116.61 28.6524C116.651 28.5592 116.692 28.466 116.735 28.37C116.945 27.9838 117.178 27.7219 117.49 27.4128C117.587 27.3147 117.684 27.2165 117.785 27.1154C118.05 26.893 118.05 26.893 118.37 26.893C118.409 26.7998 118.449 26.7066 118.49 26.6106C118.719 26.2002 118.974 25.9593 119.329 25.6534C119.442 25.5552 119.554 25.4571 119.669 25.356C119.969 25.1336 119.969 25.1336 120.289 25.1336C120.289 25.028 120.289 24.9224 120.289 24.8137C120.509 24.5538 120.509 24.5538 120.769 24.3338C120.875 24.3338 120.981 24.3338 121.089 24.3338C121.089 24.2283 121.089 24.1227 121.089 24.0139C121.248 24.0139 121.406 24.0139 121.569 24.0139C121.569 23.8556 121.569 23.6972 121.569 23.5341C121.675 23.5341 121.78 23.5341 121.889 23.5341C121.942 23.3757 121.995 23.2174 122.049 23.0543C122.155 23.0543 122.26 23.0543 122.369 23.0543C122.369 22.9487 122.369 22.8431 122.369 22.7344C122.475 22.7344 122.58 22.7344 122.689 22.7344C122.742 22.576 122.795 22.4177 122.849 22.2545C122.955 22.2545 123.06 22.2545 123.169 22.2545C123.209 22.1622 123.248 22.0698 123.289 21.9746C123.518 21.562 123.775 21.2851 124.129 20.9749C124.235 20.9749 124.34 20.9749 124.449 20.9749C124.449 20.8694 124.449 20.7638 124.449 20.6551C124.555 20.6551 124.66 20.6551 124.769 20.6551C124.822 20.4967 124.875 20.3384 124.929 20.1752C125.035 20.1752 125.14 20.1752 125.249 20.1752C125.292 20.0729 125.335 19.9707 125.379 19.8653C125.569 19.5354 125.569 19.5354 126.049 19.3755C126.102 19.2699 126.155 19.1644 126.209 19.0556C126.369 18.7357 126.369 18.7357 126.849 18.5757C126.902 18.4702 126.954 18.3646 127.009 18.2559C127.169 17.936 127.169 17.936 127.649 17.776C127.702 17.6177 127.754 17.4593 127.809 17.2962C127.914 17.2962 128.02 17.2962 128.129 17.2962C128.129 17.1906 128.129 17.085 128.129 16.9763C128.287 16.9763 128.446 16.9763 128.609 16.9763C128.609 16.8179 128.609 16.6596 128.609 16.4964C128.901 16.2621 128.901 16.2621 129.289 16.0266C129.823 15.6904 130.25 15.3531 130.689 14.897C130.794 14.897 130.9 14.897 131.009 14.897C131.009 14.7386 131.009 14.5803 131.009 14.4171C131.167 14.4171 131.325 14.4171 131.488 14.4171C131.488 14.3116 131.488 14.206 131.488 14.0972C131.781 13.8267 131.781 13.8267 132.168 13.5274C132.295 13.4283 132.421 13.3291 132.551 13.2269C132.928 12.9776 132.928 12.9776 133.286 12.8933C133.426 12.8558 133.426 12.8558 133.568 12.8177C133.621 12.6593 133.674 12.501 133.728 12.3378C133.834 12.3378 133.939 12.3378 134.048 12.3378C134.048 12.2323 134.048 12.1267 134.048 12.0179C134.259 12.0179 134.471 12.0179 134.688 12.0179C134.741 11.8596 134.794 11.7012 134.848 11.5381C134.954 11.5381 135.059 11.5381 135.168 11.5381C135.168 11.4325 135.168 11.327 135.168 11.2182C135.633 10.8916 135.872 10.7384 136.448 10.7384C136.448 10.58 136.448 10.4217 136.448 10.2585C136.57 10.2156 136.692 10.1727 136.818 10.1286C137.249 9.96925 137.249 9.96925 137.508 9.67871C137.617 9.56985 137.617 9.56985 137.728 9.45878C137.886 9.45878 138.045 9.45878 138.208 9.45878C138.208 9.35322 138.208 9.24765 138.208 9.13889C138.445 9.05972 138.445 9.05972 138.688 8.97894C138.741 8.87338 138.793 8.76781 138.848 8.65905C139.268 8.47114 139.691 8.32474 140.128 8.17921C140.128 8.07365 140.128 7.96808 140.128 7.85932C140.392 7.85932 140.656 7.85932 140.928 7.85932C140.928 7.75375 140.928 7.64819 140.928 7.53942C141.541 6.97572 142.332 6.57974 143.167 6.57974C143.167 6.47418 143.167 6.36861 143.167 6.25985C143.356 6.1816 143.356 6.1816 143.548 6.10178C143.716 6.03188 143.884 5.96199 144.057 5.88997C144.32 5.78111 144.32 5.78111 144.589 5.67005C144.969 5.51001 145.343 5.34317 145.717 5.17021C146.192 4.98624 146.505 4.9346 147.007 4.98028C147.06 4.82193 147.113 4.66358 147.167 4.50044C147.484 4.50044 147.801 4.50044 148.127 4.50044C148.127 4.39487 148.127 4.28931 148.127 4.18054C148.944 3.8758 149.641 3.63258 150.527 3.7007C150.527 3.59514 150.527 3.48957 150.527 3.38081C150.616 3.36328 150.705 3.34576 150.797 3.3277C151.41 3.20029 151.988 3.06434 152.567 2.82099C153.32 2.51866 154.1 2.43465 154.901 2.32991C155.313 2.30596 155.313 2.30596 155.486 2.10123C155.884 2.05567 156.281 2.02957 156.679 2.00189C157.081 1.96562 157.081 1.96562 157.382 1.78134C157.783 1.59507 158.078 1.57373 158.518 1.56079C158.667 1.55533 158.816 1.54986 158.969 1.54423C159.123 1.54001 159.277 1.53578 159.436 1.53142C159.743 1.52188 160.051 1.51171 160.358 1.50081C160.494 1.49698 160.63 1.49315 160.77 1.48921C161.086 1.49558 161.086 1.49558 161.246 1.3015C163.145 0.986446 165.428 0.945898 167.325 1.3015C167.378 1.35428 167.431 1.40707 167.485 1.46145C167.749 1.48277 168.014 1.49398 168.278 1.50081C168.44 1.50607 168.602 1.51132 168.768 1.51674C169.111 1.52646 169.453 1.53563 169.795 1.54423C170.039 1.55243 170.039 1.55243 170.288 1.56079C170.437 1.5648 170.586 1.5688 170.739 1.57293C171.196 1.62495 171.545 1.75898 171.965 1.94129C172.354 2.01207 172.354 2.01207 172.735 2.04125C172.861 2.05321 172.988 2.06517 173.118 2.07749C173.213 2.08533 173.307 2.09316 173.405 2.10123C173.405 2.2068 173.405 2.31236 173.405 2.42113C173.57 2.41556 173.57 2.41556 173.738 2.40988C173.882 2.407 174.026 2.40411 174.175 2.40113C174.318 2.39742 174.461 2.39371 174.608 2.38989C175.005 2.42113 175.005 2.42113 175.485 2.74102C175.829 2.82979 176.176 2.90878 176.525 2.98094C177.139 3.10825 177.519 3.19049 178.045 3.54075C178.557 3.70968 179.074 3.85624 179.593 4.00498C180.124 4.18026 180.589 4.40228 181.084 4.66038C181.527 4.86153 181.971 5.0586 182.415 5.25518C182.844 5.46012 182.844 5.46012 183.265 5.71316C183.696 5.97131 184.124 6.11486 184.604 6.25985C184.604 6.36541 184.604 6.47098 184.604 6.57974C184.762 6.57974 184.921 6.57974 185.084 6.57974C185.137 6.68531 185.19 6.79087 185.244 6.89964C185.613 7.06815 185.987 7.22868 186.364 7.37948C186.364 7.53782 186.364 7.69617 186.364 7.85932C186.479 7.84612 186.595 7.83293 186.714 7.81933C187.306 7.87197 187.521 8.11213 187.964 8.4991C188.23 8.65996 188.496 8.82006 188.764 8.97894C188.869 9.08451 188.975 9.19007 189.084 9.29884C189.415 9.40161 189.415 9.40161 189.724 9.45878C189.724 9.61713 189.724 9.77548 189.724 9.93862C189.829 9.93862 189.935 9.93862 190.044 9.93862C190.044 10.0442 190.044 10.1498 190.044 10.2585C190.308 10.3113 190.572 10.3641 190.844 10.4185C190.844 10.524 190.844 10.6296 190.844 10.7384C191.002 10.7384 191.16 10.7384 191.323 10.7384C191.323 10.8439 191.323 10.9495 191.323 11.0583C191.477 11.1176 191.477 11.1176 191.633 11.1782C191.963 11.3781 191.963 11.3781 192.083 11.718C192.097 11.817 192.11 11.916 192.123 12.0179C192.387 12.0179 192.651 12.0179 192.923 12.0179C192.963 12.1169 193.003 12.2159 193.043 12.3178C193.276 12.7138 193.464 12.8099 193.883 12.9776C193.883 13.0832 193.883 13.1887 193.883 13.2975C193.989 13.2975 194.094 13.2975 194.203 13.2975C194.203 13.4031 194.203 13.5086 194.203 13.6174C194.362 13.6702 194.52 13.723 194.683 13.7773C194.683 13.8829 194.683 13.9885 194.683 14.0972C194.789 14.0972 194.894 14.0972 195.003 14.0972C195.003 14.2028 195.003 14.3084 195.003 14.4171C195.162 14.4699 195.32 14.5227 195.483 14.5771C195.913 14.947 195.913 14.947 196.283 15.3768C196.283 15.5879 196.283 15.7991 196.283 16.0166C196.437 16.076 196.437 16.076 196.593 16.1366C196.923 16.3365 196.923 16.3365 197.043 16.6764C197.056 16.7753 197.069 16.8743 197.083 16.9763C197.241 16.9763 197.4 16.9763 197.563 16.9763C198.043 17.6516 198.043 17.6516 198.043 18.0959C198.149 18.0959 198.254 18.0959 198.363 18.0959C198.363 18.2543 198.363 18.4126 198.363 18.5757C198.521 18.6285 198.68 18.6813 198.843 18.7357C199.163 19.2155 199.163 19.2155 199.163 19.8553C199.321 19.8553 199.48 19.8553 199.643 19.8553C199.815 20.2795 199.978 20.7004 200.123 21.1349C200.228 21.1349 200.334 21.1349 200.443 21.1349C200.574 21.3877 200.703 21.6411 200.833 21.8946C200.905 22.0357 200.977 22.1767 201.052 22.322C201.243 22.7344 201.243 22.7344 201.328 23.0967C201.353 23.1883 201.377 23.2798 201.403 23.3742C201.508 23.4269 201.614 23.4797 201.723 23.5341C201.877 23.8546 201.877 23.8546 202.033 24.2639C202.088 24.4092 202.144 24.5546 202.201 24.7043C202.254 24.846 202.308 24.9876 202.363 25.1336C202.408 25.2439 202.453 25.3542 202.499 25.4678C202.793 26.1971 202.959 26.9177 203.094 27.6921C203.132 28.0108 203.132 28.0108 203.322 28.1726C203.334 28.5489 203.336 28.9256 203.332 29.3022C203.331 29.5086 203.33 29.715 203.328 29.9276C203.326 30.0874 203.324 30.2472 203.322 30.4118C203.428 30.4118 203.534 30.4118 203.642 30.4118C203.642 35.69 203.642 40.9683 203.642 46.4065C203.537 46.4065 203.431 46.4065 203.322 46.4065C203.328 46.6137 203.334 46.8209 203.339 47.0344C203.375 49.0015 203.256 50.8774 202.843 52.8044C202.79 52.8571 202.737 52.9099 202.683 52.9643C202.637 53.4395 202.611 53.9147 202.583 54.3913C202.523 54.8785 202.39 55.2333 202.203 55.6834C202.137 56.0671 202.137 56.0671 202.113 56.4431C202.059 57.1068 202.059 57.1068 201.883 57.2829C201.82 57.5514 201.764 57.8216 201.713 58.0926C201.684 58.2396 201.656 58.3866 201.627 58.5381C201.606 58.6517 201.585 58.7653 201.563 58.8823C201.457 58.8823 201.351 58.8823 201.243 58.8823C201.245 58.9959 201.246 59.1095 201.248 59.2266C201.25 59.4471 201.25 59.4471 201.253 59.6721C201.255 59.8187 201.256 59.9653 201.258 60.1163C201.243 60.4818 201.243 60.4818 201.083 60.6417C201.02 60.9103 200.964 61.1805 200.913 61.4515C200.884 61.5985 200.856 61.7455 200.827 61.8969C200.806 62.0106 200.785 62.1242 200.763 62.2412C200.657 62.2412 200.552 62.2412 200.443 62.2412C200.446 62.3358 200.45 62.4305 200.454 62.528C200.471 63.2642 200.45 63.8072 200.123 64.4805C199.837 65.2671 199.654 66.062 199.483 66.8797C199.377 66.8797 199.272 66.8797 199.163 66.8797C199.173 67.0644 199.183 67.2491 199.193 67.4395C199.193 68.1895 198.975 68.7575 198.683 69.4388C198.445 70.047 198.223 70.6498 198.043 71.2782C197.894 71.7993 197.714 72.2927 197.52 72.7977C197.347 73.2709 197.215 73.751 197.083 74.2372C196.977 74.2372 196.872 74.2372 196.763 74.2372C196.773 74.4253 196.773 74.4253 196.783 74.6171C196.763 75.0369 196.763 75.0369 196.443 75.3568C196.331 75.7284 196.225 76.1019 196.123 76.4765C196.02 76.7444 195.913 77.011 195.803 77.2762C195.726 77.4894 195.65 77.7027 195.573 77.916C195.43 78.302 195.289 78.6115 195.073 78.9656C194.788 79.4492 194.661 79.9334 194.523 80.4751C194.418 80.4751 194.312 80.4751 194.203 80.4751C194.203 80.739 194.203 81.003 194.203 81.2749C194.098 81.2749 193.992 81.2749 193.883 81.2749C193.887 81.4266 193.89 81.5784 193.893 81.7347C193.883 82.2346 193.883 82.2346 193.723 82.5544C193.618 82.5544 193.512 82.5544 193.403 82.5544C193.388 82.6454 193.372 82.7363 193.356 82.83C193.185 83.7107 192.926 84.3575 192.443 85.1136C192.338 85.1136 192.232 85.1136 192.123 85.1136C192.123 85.4831 192.123 85.8525 192.123 86.2332C192.018 86.2332 191.912 86.2332 191.803 86.2332C191.751 86.4971 191.698 86.761 191.643 87.033C191.538 87.033 191.432 87.033 191.323 87.033C191.323 87.3496 191.323 87.6663 191.323 87.9926C191.218 87.9926 191.112 87.9926 191.003 87.9926C190.951 88.2565 190.898 88.5205 190.844 88.7924C190.738 88.7924 190.632 88.7924 190.524 88.7924C190.533 88.9078 190.543 89.0233 190.554 89.1423C190.518 89.682 190.364 89.9609 190.044 90.3918C189.938 90.3918 189.832 90.3918 189.724 90.3918C189.733 90.5337 189.743 90.6755 189.754 90.8217C189.72 91.4099 189.598 91.6873 189.244 92.1512C189.138 92.1512 189.032 92.1512 188.924 92.1512C188.871 92.5207 188.818 92.8902 188.764 93.2709C188.658 93.2709 188.552 93.2709 188.444 93.2709C188.427 93.3533 188.411 93.4358 188.394 93.5208C188.207 94.1812 187.97 94.8108 187.554 95.3602C187.26 95.7563 187.153 96.1622 187.004 96.6298C186.898 96.7881 186.793 96.9465 186.684 97.1096C186.578 97.1096 186.473 97.1096 186.364 97.1096C186.374 97.2251 186.384 97.3405 186.394 97.4595C186.358 97.9992 186.204 98.2782 185.884 98.7091C185.778 98.7091 185.673 98.7091 185.564 98.7091C185.564 98.973 185.564 99.2369 185.564 99.5088C185.458 99.5616 185.353 99.6144 185.244 99.6687C185.064 100.006 185.064 100.006 184.904 100.399C184.847 100.531 184.791 100.663 184.733 100.799C184.69 100.901 184.648 101.003 184.604 101.108C184.498 101.108 184.393 101.108 184.284 101.108C184.284 101.267 184.284 101.425 184.284 101.588C184.178 101.588 184.073 101.588 183.964 101.588C183.911 101.852 183.858 102.116 183.804 102.388C183.698 102.388 183.593 102.388 183.484 102.388C183.464 102.48 183.445 102.573 183.424 102.668C183.323 103.031 183.182 103.336 183.004 103.667C182.899 103.667 182.793 103.667 182.684 103.667C182.684 103.826 182.684 103.984 182.684 104.147C182.579 104.2 182.473 104.253 182.364 104.307C182.252 104.574 182.14 104.841 182.032 105.109C181.751 105.714 181.37 106.404 180.764 106.706C180.745 106.802 180.725 106.898 180.704 106.996C180.572 107.46 180.307 107.654 179.964 107.986C179.767 108.327 179.767 108.327 179.644 108.626C179.539 108.626 179.433 108.626 179.324 108.626C179.324 108.784 179.324 108.942 179.324 109.106C179.219 109.106 179.113 109.106 179.004 109.106C178.952 109.37 178.899 109.633 178.845 109.905C178.739 109.905 178.633 109.905 178.525 109.905C178.525 110.011 178.525 110.116 178.525 110.225C178.419 110.225 178.313 110.225 178.205 110.225C178.152 110.489 178.099 110.753 178.045 111.025C177.939 111.025 177.833 111.025 177.725 111.025C177.725 111.183 177.725 111.342 177.725 111.505C177.566 111.505 177.408 111.505 177.245 111.505C177.215 111.688 177.215 111.688 177.185 111.875C177.085 112.305 177.085 112.305 176.765 112.784C176.659 112.784 176.553 112.784 176.445 112.784C176.43 112.871 176.415 112.958 176.399 113.047C176.251 113.536 176.009 113.913 175.735 114.344C175.587 114.58 175.587 114.58 175.435 114.821C175.301 115.001 175.301 115.001 175.165 115.184C175.059 115.184 174.954 115.184 174.845 115.184C174.792 115.395 174.739 115.606 174.685 115.823C174.579 115.823 174.474 115.823 174.365 115.823C174.352 115.909 174.338 115.995 174.325 116.083C174.161 116.603 173.89 116.989 173.565 117.423C173.459 117.423 173.354 117.423 173.245 117.423C173.171 117.611 173.171 117.611 173.095 117.803C172.925 118.223 172.925 118.223 172.765 118.542C172.607 118.542 172.448 118.542 172.285 118.542C172.269 118.638 172.252 118.734 172.235 118.832C172.109 119.233 171.943 119.376 171.645 119.662C171.592 119.82 171.54 119.979 171.485 120.142C171.255 120.412 171.255 120.412 171.005 120.622C170.9 120.622 170.794 120.622 170.685 120.622C170.685 120.78 170.685 120.938 170.685 121.102C170.527 121.102 170.368 121.102 170.205 121.102C170.162 121.217 170.119 121.333 170.075 121.451C169.885 121.901 169.681 122.299 169.405 122.701C169.3 122.701 169.194 122.701 169.085 122.701C169.021 122.854 169.021 122.854 168.955 123.011C168.765 123.341 168.765 123.341 168.285 123.501C168.233 123.765 168.18 124.029 168.125 124.301C168.02 124.301 167.914 124.301 167.805 124.301C167.753 124.459 167.7 124.617 167.645 124.78C167.54 124.78 167.434 124.78 167.325 124.78C167.325 124.939 167.325 125.097 167.325 125.26C167.22 125.26 167.114 125.26 167.005 125.26C166.953 125.471 166.9 125.682 166.846 125.9C166.74 125.9 166.634 125.9 166.526 125.9C166.461 126.093 166.461 126.093 166.396 126.29C166.302 126.493 166.302 126.493 166.206 126.7C166.047 126.753 165.889 126.805 165.726 126.86C165.706 126.949 165.686 127.038 165.666 127.13C165.51 127.705 165.17 128.025 164.766 128.459C164.66 128.459 164.554 128.459 164.446 128.459C164.446 128.618 164.446 128.776 164.446 128.939C164.34 128.939 164.235 128.939 164.126 128.939C164.088 129.026 164.05 129.112 164.011 129.201C163.751 129.68 163.43 130.076 163.086 130.498C162.895 130.735 162.895 130.735 162.701 130.976C162.535 131.155 162.535 131.155 162.366 131.338C162.26 131.338 162.155 131.338 162.046 131.338C161.993 131.497 161.94 131.655 161.886 131.818C161.78 131.818 161.675 131.818 161.566 131.818C161.523 131.92 161.48 132.023 161.436 132.128C161.246 132.458 161.246 132.458 160.766 132.618C160.766 132.776 160.766 132.934 160.766 133.098C160.608 133.098 160.449 133.098 160.286 133.098C160.243 133.22 160.2 133.342 160.156 133.467C159.974 133.88 159.836 134.1 159.486 134.377C159.381 134.377 159.275 134.377 159.166 134.377C159.166 134.483 159.166 134.588 159.166 134.697C158.938 134.916 158.938 134.916 158.636 135.157C158.29 135.441 158.034 135.673 157.766 136.037C157.667 136.165 157.667 136.165 157.566 136.297C157.408 136.297 157.25 136.297 157.086 136.297C157.086 136.455 157.086 136.613 157.086 136.776C156.847 137.022 156.847 137.022 156.536 137.266C156.101 137.603 156.101 137.603 155.806 138.056C155.648 138.056 155.49 138.056 155.326 138.056C155.326 138.162 155.326 138.267 155.326 138.376C155.221 138.376 155.115 138.376 155.007 138.376C154.954 138.534 154.901 138.693 154.847 138.856C154.741 138.856 154.635 138.856 154.527 138.856C154.527 138.961 154.527 139.067 154.527 139.176C154.275 139.429 154.275 139.429 153.937 139.715C153.82 139.814 153.704 139.913 153.583 140.015C153.472 140.107 153.361 140.2 153.247 140.295C153.095 140.424 152.943 140.553 152.787 140.685C152.447 140.935 152.447 140.935 152.127 140.935C152.127 141.041 152.127 141.146 152.127 141.255C151.968 141.255 151.81 141.255 151.647 141.255C151.594 141.413 151.541 141.572 151.487 141.735C151.381 141.735 151.276 141.735 151.167 141.735C151.114 141.893 151.061 142.051 151.007 142.215C150.796 142.215 150.584 142.215 150.367 142.215C150.314 142.426 150.261 142.637 150.207 142.854C149.996 142.907 149.785 142.96 149.567 143.014C149.567 143.12 149.567 143.225 149.567 143.334C149.318 143.554 149.06 143.762 148.797 143.964C148.223 144.403 148.223 144.403 147.695 144.894C147.487 145.094 147.487 145.094 147.167 145.094C147.167 145.199 147.167 145.305 147.167 145.414C147.009 145.414 146.85 145.414 146.687 145.414C146.634 145.572 146.582 145.73 146.527 145.893C146.422 145.893 146.316 145.893 146.207 145.893C146.207 145.999 146.207 146.104 146.207 146.213C145.943 146.377 145.676 146.537 145.407 146.693C145.318 146.782 145.229 146.871 145.137 146.963C145.068 147.032 144.999 147.102 144.927 147.173C144.822 147.173 144.716 147.173 144.607 147.173C144.607 147.278 144.607 147.384 144.607 147.493C144.387 147.753 144.387 147.753 144.127 147.973C144.022 147.973 143.916 147.973 143.807 147.973C143.807 148.078 143.807 148.184 143.807 148.293C143.543 148.457 143.276 148.616 143.008 148.772C142.918 148.861 142.829 148.951 142.738 149.042C142.668 149.112 142.599 149.181 142.528 149.252C142.422 149.252 142.316 149.252 142.208 149.252C142.208 149.358 142.208 149.463 142.208 149.572C141.654 150.052 141.654 150.052 141.248 150.052C141.248 150.158 141.248 150.263 141.248 150.372C141.02 150.578 141.02 150.578 140.718 150.792C140.57 150.899 140.57 150.899 140.42 151.008C140.128 151.172 140.128 151.172 139.648 151.172C139.648 151.33 139.648 151.488 139.648 151.651C139.489 151.651 139.331 151.651 139.168 151.651C139.168 151.757 139.168 151.863 139.168 151.971C138.968 152.231 138.968 152.231 138.688 152.451C138.477 152.451 138.266 152.451 138.048 152.451C137.995 152.61 137.942 152.768 137.888 152.931C137.782 152.931 137.677 152.931 137.568 152.931C137.568 153.037 137.568 153.142 137.568 153.251C137.357 153.251 137.146 153.251 136.928 153.251C136.875 153.409 136.822 153.568 136.768 153.731C135.894 154.53 135.894 154.53 135.488 154.53C135.488 154.636 135.488 154.742 135.488 154.85C135.224 154.903 134.96 154.956 134.688 155.01C134.688 155.116 134.688 155.221 134.688 155.33C134.419 155.571 134.419 155.571 134.068 155.83C133.953 155.916 133.838 156.002 133.72 156.091C133.408 156.29 133.408 156.29 133.088 156.29C133.088 156.395 133.088 156.501 133.088 156.61C132.93 156.61 132.772 156.61 132.608 156.61C132.556 156.768 132.503 156.926 132.448 157.09C132.343 157.09 132.237 157.09 132.128 157.09C132.128 157.195 132.128 157.301 132.128 157.41C131.985 157.429 131.985 157.429 131.838 157.45C131.392 157.602 131.284 157.838 131.009 158.209C130.85 158.209 130.692 158.209 130.529 158.209C130.476 158.368 130.423 158.526 130.369 158.689C130.119 158.911 130.119 158.911 129.819 159.119C129.67 159.224 129.67 159.224 129.519 159.331C129.249 159.489 129.249 159.489 128.929 159.489C128.876 159.647 128.823 159.806 128.769 159.969C128.352 160.232 128.151 160.289 127.649 160.289C127.649 160.447 127.649 160.605 127.649 160.768C127.49 160.768 127.332 160.768 127.169 160.768C127.169 160.874 127.169 160.98 127.169 161.088C126.806 161.359 126.806 161.359 126.329 161.658C126.173 161.757 126.017 161.856 125.856 161.959C125.409 162.208 125.409 162.208 125.042 162.292C124.907 162.33 124.907 162.33 124.769 162.368C124.716 162.526 124.663 162.685 124.609 162.848C124.193 163.111 123.991 163.168 123.489 163.168C123.436 163.326 123.384 163.484 123.329 163.647C123.118 163.647 122.907 163.647 122.689 163.647C122.636 163.806 122.584 163.964 122.529 164.127C122.049 164.447 122.049 164.447 121.409 164.447C121.409 164.553 121.409 164.658 121.409 164.767C120.862 165.173 120.488 165.305 119.809 165.247C119.809 165.405 119.809 165.564 119.809 165.727C118.75 166.207 118.75 166.207 118.21 166.207C118.21 166.312 118.21 166.418 118.21 166.526C118.101 166.569 117.992 166.612 117.88 166.656C117.535 166.796 117.192 166.94 116.85 167.086C116.086 167.413 115.316 167.712 114.536 167.998C114.235 168.116 113.942 168.255 113.65 168.396C112.979 168.647 112.52 168.643 111.81 168.606C111.81 168.711 111.81 168.817 111.81 168.926C111.657 168.958 111.657 168.958 111.501 168.99C111.369 169.018 111.236 169.047 111.1 169.076C110.902 169.117 110.902 169.117 110.701 169.16C110.374 169.215 110.374 169.215 110.21 169.406C109.646 169.451 109.082 169.477 108.517 169.505C107.995 169.528 107.995 169.528 107.673 169.727C107.238 169.928 106.907 169.926 106.428 169.927C106.157 169.928 106.157 169.928 105.88 169.93C105.685 169.929 105.491 169.929 105.29 169.928C105.09 169.928 104.889 169.928 104.683 169.929C104.259 169.929 103.836 169.929 103.412 169.927C102.87 169.925 102.327 169.926 101.785 169.928C101.266 169.93 100.748 169.929 100.23 169.928C100.035 169.928 99.8405 169.929 99.6396 169.93C99.4591 169.929 99.2786 169.928 99.0927 169.927C98.9337 169.927 98.7747 169.926 98.6109 169.926C98.2112 169.885 98.2112 169.885 97.7313 169.565C97.336 169.51 97.336 169.51 96.9014 169.495C96.078 169.436 95.4464 169.253 94.6915 168.926C94.6915 168.82 94.6915 168.715 94.6915 168.606C94.4045 168.626 94.4045 168.626 94.1116 168.646C93.3888 168.648 93.0372 168.389 92.4517 167.966C92.0808 167.829 91.7173 167.739 91.3318 167.646C91.3318 167.541 91.3318 167.435 91.3318 167.326C91.246 167.306 91.1602 167.287 91.0718 167.266C90.6177 167.147 90.1764 166.998 89.732 166.846C89.732 166.741 89.732 166.635 89.732 166.526C89.642 166.509 89.5521 166.491 89.4595 166.472C89.0416 166.352 88.7089 166.173 88.3321 165.957C88.2042 165.884 88.0763 165.811 87.9446 165.736C87.8481 165.68 87.7516 165.624 87.6521 165.567C87.6521 165.461 87.6521 165.356 87.6521 165.247C87.469 165.217 87.469 165.217 87.2822 165.187C86.8522 165.087 86.8522 165.087 86.3722 164.767C86.3722 164.662 86.3722 164.556 86.3722 164.447C86.2798 164.427 86.1874 164.408 86.0923 164.387C85.7285 164.286 85.4243 164.145 85.0923 163.967C85.0923 163.862 85.0923 163.756 85.0923 163.647C84.967 163.598 84.8416 163.548 84.7124 163.497C84.2924 163.328 84.2924 163.328 83.9724 163.168C83.9724 163.062 83.9724 162.956 83.9724 162.848C83.7613 162.795 83.5501 162.742 83.3325 162.688C83.3325 162.582 83.3325 162.477 83.3325 162.368C83.2071 162.318 83.0817 162.269 82.9525 162.218C82.5326 162.048 82.5326 162.048 82.2126 161.888C82.2126 161.782 82.2126 161.677 82.2126 161.568C82.0872 161.519 81.9618 161.469 81.8326 161.418C81.4126 161.248 81.4126 161.248 81.0927 161.088C81.0927 160.983 81.0927 160.877 81.0927 160.768C80.9343 160.768 80.7759 160.768 80.6127 160.768C80.6127 160.61 80.6127 160.452 80.6127 160.289C80.5269 160.275 80.4411 160.262 80.3527 160.249C79.833 160.084 79.4468 159.814 79.0128 159.489C79.0128 159.383 79.0128 159.278 79.0128 159.169C78.8545 159.169 78.6961 159.169 78.5329 159.169C78.4801 159.063 78.4273 158.958 78.3729 158.849C78.0503 158.668 78.0503 158.668 77.733 158.529C77.733 158.424 77.733 158.318 77.733 158.209C77.5746 158.209 77.4162 158.209 77.253 158.209C77.253 158.104 77.253 157.998 77.253 157.889C77.1474 157.889 77.0418 157.889 76.933 157.889C76.8802 157.784 76.8274 157.678 76.773 157.569C76.6245 157.54 76.6245 157.54 76.4731 157.509C76.0237 157.377 75.921 157.142 75.6531 156.77C75.4947 156.717 75.3364 156.664 75.1732 156.61C74.9565 156.4 74.7432 156.187 74.5332 155.97C74.3748 155.864 74.2164 155.759 74.0533 155.65C74.0533 155.545 74.0533 155.439 74.0533 155.33C73.8949 155.33 73.7365 155.33 73.5733 155.33C73.5733 155.225 73.5733 155.119 73.5733 155.01C73.4149 155.01 73.2565 155.01 73.0933 155.01C72.8201 154.75 72.5533 154.484 72.2934 154.211C72.1878 154.158 72.0822 154.105 71.9734 154.051C71.9734 153.945 71.9734 153.84 71.9734 153.731C71.815 153.678 71.6567 153.625 71.4935 153.571C71.4935 153.465 71.4935 153.36 71.4935 153.251C71.3351 153.251 71.1767 153.251 71.0135 153.251C71.0135 153.145 71.0135 153.04 71.0135 152.931C70.9277 152.891 70.8419 152.852 70.7535 152.811C70.2804 152.562 69.8461 152.286 69.4136 151.971C69.4136 151.866 69.4136 151.76 69.4136 151.651C69.2553 151.651 69.0969 151.651 68.9337 151.651C68.8941 151.523 68.8545 151.394 68.8137 151.262C68.7477 151.126 68.6817 150.991 68.6137 150.852C68.2969 150.746 68.2969 150.746 67.9738 150.692C67.8682 150.533 67.7626 150.375 67.6538 150.212C67.3258 150.021 67.3258 150.021 67.0138 149.892C67.0138 149.786 67.0138 149.681 67.0138 149.572C66.8555 149.572 66.6971 149.572 66.5339 149.572C66.5339 149.467 66.5339 149.361 66.5339 149.252C66.3755 149.199 66.2171 149.147 66.0539 149.092C66.0539 148.987 66.0539 148.881 66.0539 148.772C65.9681 148.733 65.8823 148.693 65.794 148.652C65.3208 148.403 64.8865 148.127 64.4541 147.813C64.4541 147.707 64.4541 147.602 64.4541 147.493C64.2957 147.493 64.1373 147.493 63.9741 147.493C63.9741 147.387 63.9741 147.282 63.9741 147.173C63.7629 147.12 63.5517 147.067 63.3342 147.013C63.3342 146.907 63.3342 146.802 63.3342 146.693C63.1758 146.693 63.0174 146.693 62.8542 146.693C62.8542 146.535 62.8542 146.376 62.8542 146.213C62.6958 146.213 62.5374 146.213 62.3742 146.213C62.3742 146.108 62.3742 146.002 62.3742 145.893C62.2158 145.841 62.0575 145.788 61.8943 145.733C61.8943 145.628 61.8943 145.522 61.8943 145.414C61.7887 145.414 61.6831 145.414 61.5743 145.414C61.5743 145.308 61.5743 145.202 61.5743 145.094C61.4159 145.041 61.2575 144.988 61.0943 144.934C61.0943 144.828 61.0943 144.723 61.0943 144.614C60.9822 144.584 60.87 144.554 60.7544 144.524C60.2052 144.249 59.9469 143.92 59.5788 143.439C59.3058 143.143 59.0562 143.025 58.6945 142.854C58.2546 142.454 58.2546 142.454 57.8946 142.055C57.8946 141.949 57.8946 141.844 57.8946 141.735C57.7362 141.682 57.5778 141.629 57.4147 141.575C57.4147 141.469 57.4147 141.364 57.4147 141.255C57.2563 141.255 57.0979 141.255 56.9347 141.255C56.8291 140.991 56.7235 140.727 56.6147 140.455C56.4563 140.455 56.2979 140.455 56.1348 140.455C56.0292 140.191 55.9236 139.927 55.8148 139.655C55.6564 139.655 55.498 139.655 55.3348 139.655C55.3348 139.497 55.3348 139.339 55.3348 139.176C55.0708 139.07 54.8069 138.964 54.5349 138.856C54.5349 138.697 54.5349 138.539 54.5349 138.376C54.3765 138.376 54.2181 138.376 54.0549 138.376C54.0549 138.27 54.0549 138.165 54.0549 138.056C53.9493 138.056 53.8437 138.056 53.735 138.056C53.735 137.95 53.735 137.845 53.735 137.736C53.6459 137.7 53.5568 137.663 53.465 137.626C52.9892 137.356 52.6598 137.022 52.2951 136.616C52.2951 136.511 52.2951 136.405 52.2951 136.297C52.0839 136.191 51.8727 136.085 51.6551 135.977C51.6551 135.818 51.6551 135.66 51.6551 135.497C51.5017 135.472 51.5017 135.472 51.3452 135.447C51.2363 135.411 51.1274 135.374 51.0152 135.337C50.9624 135.179 50.9096 135.02 50.8552 134.857C50.4545 134.662 50.4545 134.662 50.0553 134.537C50.0553 134.432 50.0553 134.326 50.0553 134.217C49.9497 134.217 49.8441 134.217 49.7353 134.217C49.7353 134.112 49.7353 134.006 49.7353 133.897C49.5769 133.845 49.4185 133.792 49.2553 133.737C49.2553 133.632 49.2553 133.526 49.2553 133.418C49.1621 133.375 49.0689 133.332 48.9729 133.288C48.6109 133.095 48.3265 132.884 48.0154 132.618C47.9173 132.535 47.8191 132.453 47.718 132.368C47.4955 132.138 47.4955 132.138 47.4955 131.818C47.3371 131.765 47.1787 131.712 47.0155 131.658C47.0155 131.553 47.0155 131.447 47.0155 131.338C46.9 131.302 46.7845 131.266 46.6655 131.228C46.1214 130.974 45.83 130.653 45.4157 130.219C45.2307 130.057 45.044 129.897 44.8557 129.739C43.5539 128.633 43.5539 128.633 43.3358 127.979C43.2302 127.979 43.1246 127.979 43.0159 127.979C43.0159 127.874 43.0159 127.768 43.0159 127.659C42.8575 127.607 42.6991 127.554 42.5359 127.499C42.2609 127.215 42.2609 127.215 41.9759 126.87C41.6354 126.458 41.3866 126.2 40.936 125.9C40.8832 125.742 40.8304 125.583 40.776 125.42C40.6737 125.371 40.5715 125.321 40.4661 125.27C40.0546 125.058 40.0139 124.868 39.8161 124.46C39.7039 124.378 39.5917 124.296 39.4761 124.211C39.3277 124.097 39.3277 124.097 39.1762 123.981C39.1762 123.822 39.1762 123.664 39.1762 123.501C38.9122 123.395 38.6482 123.29 38.3762 123.181C38.3762 123.023 38.3762 122.864 38.3762 122.701C38.2706 122.701 38.1651 122.701 38.0563 122.701C37.7963 122.481 37.7963 122.481 37.5763 122.221C37.5763 122.116 37.5763 122.01 37.5763 121.901C37.4707 121.901 37.3651 121.901 37.2563 121.901C36.7764 121.348 36.7764 121.348 36.7764 120.942C36.6708 120.942 36.5652 120.942 36.4564 120.942C36.2152 120.714 36.2152 120.714 35.9564 120.412C35.8271 120.264 35.8271 120.264 35.6952 120.114C35.4965 119.822 35.4965 119.822 35.4965 119.342C35.3381 119.342 35.1797 119.342 35.0165 119.342C35.0165 119.237 35.0165 119.131 35.0165 119.022C34.9109 119.022 34.8053 119.022 34.6965 119.022C34.6965 118.864 34.6965 118.706 34.6965 118.542C34.5382 118.542 34.3798 118.542 34.2166 118.542C34.2166 118.384 34.2166 118.226 34.2166 118.063C34.111 118.063 34.0054 118.063 33.8966 118.063C33.8966 117.957 33.8966 117.851 33.8966 117.743C33.7382 117.69 33.5798 117.637 33.4167 117.583C32.6167 116.727 32.6167 116.727 32.6167 116.143C32.4583 116.09 32.2999 116.038 32.1368 115.983C32.1368 115.878 32.1368 115.772 32.1368 115.663C32.0312 115.663 31.9256 115.663 31.8168 115.663C31.8168 115.505 31.8168 115.347 31.8168 115.184C31.6947 115.147 31.5726 115.111 31.4468 115.074C30.9213 114.817 30.809 114.571 30.5369 114.064C30.4132 113.945 30.4132 113.945 30.2869 113.824C30.0569 113.584 30.0569 113.584 29.8969 113.164C29.8441 113.039 29.7914 112.914 29.737 112.784C29.5786 112.732 29.4202 112.679 29.257 112.624C29.257 112.519 29.257 112.413 29.257 112.305C29.1514 112.305 29.0458 112.305 28.937 112.305C28.937 112.146 28.937 111.988 28.937 111.825C28.8314 111.825 28.7258 111.825 28.6171 111.825C28.5643 111.614 28.5115 111.402 28.4571 111.185C28.3515 111.185 28.2459 111.185 28.1371 111.185C27.8771 110.975 27.8771 110.975 27.6571 110.705C27.6571 110.547 27.6571 110.388 27.6571 110.225C27.5317 110.186 27.4064 110.146 27.2772 110.105C26.7845 109.871 26.75 109.748 26.5372 109.266C26.425 109.153 26.3128 109.041 26.1973 108.926C26.0983 108.827 25.9993 108.728 25.8973 108.626C25.8973 108.52 25.8973 108.415 25.8973 108.306C25.6861 108.253 25.4749 108.2 25.2573 108.146C25.2474 108.021 25.2375 107.895 25.2273 107.766C25.1844 107.627 25.1415 107.489 25.0973 107.346C24.7012 107.126 24.7012 107.126 24.2974 107.026C24.2974 106.868 24.2974 106.71 24.2974 106.546C24.1918 106.546 24.0862 106.546 23.9774 106.546C23.4865 106.162 23.2913 105.654 23.0175 105.107C22.9119 105.054 22.8063 105.001 22.6975 104.947C22.6777 104.851 22.6579 104.756 22.6376 104.657C22.5597 104.278 22.5597 104.278 22.2176 103.987C21.8768 103.647 21.8319 103.483 21.7376 103.028C21.632 102.975 21.5264 102.922 21.4177 102.868C21.4177 102.709 21.4177 102.551 21.4177 102.388C21.3121 102.388 21.2065 102.388 21.0977 102.388C20.8564 102.055 20.8564 102.055 20.5977 101.618C20.5115 101.475 20.4253 101.332 20.3365 101.185C20.1378 100.788 20.1378 100.788 20.1378 100.309C20.0322 100.309 19.9266 100.309 19.8178 100.309C19.8178 100.15 19.8178 99.9918 19.8178 99.8287C19.7122 99.8287 19.6066 99.8287 19.4978 99.8287C19.4285 99.6539 19.3592 99.479 19.2878 99.2989C19.0916 98.8395 18.8985 98.5753 18.5379 98.2292C18.2145 97.6938 17.9233 97.1612 17.648 96.5998C17.4374 96.1514 17.4374 96.1514 17.148 95.81C16.938 95.5101 16.938 95.5101 16.938 94.8703C16.8324 94.8703 16.7268 94.8703 16.6181 94.8703C15.9781 94.0236 15.9781 94.0236 15.9781 93.4308C15.8725 93.4308 15.7669 93.4308 15.6581 93.4308C15.6581 93.2725 15.6581 93.1141 15.6581 92.951C15.4997 92.8982 15.3414 92.8454 15.1782 92.791C15.1782 92.5799 15.1782 92.3688 15.1782 92.1512C15.0726 92.1512 14.967 92.1512 14.8582 92.1512C14.8582 91.9929 14.8582 91.8346 14.8582 91.6714C14.7526 91.6714 14.647 91.6714 14.5382 91.6714C14.459 91.1964 14.459 91.1964 14.3782 90.7117C14.2726 90.7117 14.1671 90.7117 14.0583 90.7117C14.0583 90.5534 14.0583 90.395 14.0583 90.2319C13.8999 90.1791 13.7415 90.1263 13.5783 90.0719C13.4077 89.7035 13.2481 89.3298 13.0983 88.9523C12.94 88.7148 12.94 88.7148 12.7784 88.4725C12.7784 88.2613 12.7784 88.0502 12.7784 87.8327C12.6728 87.8327 12.5672 87.8327 12.4584 87.8327C12.4056 87.5688 12.3528 87.3049 12.2984 87.033C12.1928 87.033 12.0872 87.033 11.9784 87.033C11.9784 86.769 11.9784 86.5051 11.9784 86.2332C11.8728 86.2332 11.7673 86.2332 11.6585 86.2332C11.6057 85.9693 11.5529 85.7054 11.4985 85.4335C11.3929 85.4335 11.2873 85.4335 11.1785 85.4335C10.853 84.8369 10.6985 84.5267 10.6985 83.834C10.593 83.834 10.4874 83.834 10.3786 83.834C9.89861 82.7944 9.89861 82.7944 9.89861 82.0746C9.79302 82.0746 9.68743 82.0746 9.57864 82.0746C9.25317 81.4781 9.09868 81.1679 9.09868 80.4751C8.99309 80.4751 8.8875 80.4751 8.77871 80.4751C8.72282 80.3384 8.66693 80.2017 8.60935 80.0609C8.53655 79.8842 8.46375 79.7075 8.38874 79.5255C8.31635 79.3492 8.24397 79.1729 8.16938 78.9913C8.01969 78.5773 8.01969 78.5773 7.81879 78.3958C7.81229 78.1293 7.81195 77.8626 7.81879 77.5961C7.7132 77.5961 7.60761 77.5961 7.49881 77.5961C7.05672 76.5419 6.61906 75.4866 6.20205 74.4222C6.06337 74.0754 6.06337 74.0754 5.8902 73.7455C5.73896 73.4375 5.73896 73.4375 5.58897 72.9077C5.43118 72.3143 5.43118 72.3143 5.17901 71.758C4.94153 71.2041 4.78447 70.6574 4.61906 70.0786C4.53986 69.8939 4.46067 69.7091 4.37908 69.5188C4.1391 68.959 4.1391 68.959 3.98911 68.4291C3.80892 67.8039 3.57574 67.218 3.33104 66.616C3.07193 65.9743 2.87402 65.3876 2.77921 64.7004C2.73407 64.1882 2.73407 64.1882 2.54923 63.8782C2.237 63.2217 2.16012 62.4902 2.02427 61.7801C1.94154 61.269 1.94154 61.269 1.57931 60.9616C1.53726 60.6464 1.49614 60.3309 1.46369 60.0144C1.40303 59.56 1.25217 59.1538 1.09935 58.7224C0.778772 57.6855 0.718463 56.6801 0.674385 55.6015C0.649086 55.0626 0.649086 55.0626 0.462132 54.6707C-0.307601 52.6514 0.116157 49.809 0.118181 47.6892C0.118073 47.2884 0.117918 46.8876 0.117717 46.4868C0.117483 45.6508 0.117821 44.8148 0.118572 43.9787C0.119303 43.1239 0.119345 42.269 0.118572 41.4141C0.117641 40.3753 0.1175 39.3365 0.11802 38.2977C0.118126 37.9042 0.117999 37.5107 0.117625 37.1172C0.117215 36.5663 0.117842 36.0153 0.118728 35.4644C0.118404 35.3046 0.11808 35.1447 0.117747 34.98C0.126609 31.9825 0.126609 31.9825 0.619389 31.0516C0.658147 30.6861 0.683586 30.3191 0.699383 29.952C0.739042 29.0341 0.902847 28.3033 1.26934 27.4628C1.44364 27.0318 1.44364 27.0318 1.49932 26.4631C1.57931 25.9333 1.57931 25.9333 1.89928 25.6134C1.96335 25.2419 2.01763 24.8685 2.05927 24.4938C2.16486 24.4938 2.27045 24.4938 2.37924 24.4938C2.37264 24.342 2.36604 24.1903 2.35924 24.0339C2.37924 23.5341 2.37924 23.5341 2.69922 23.2142C2.80284 22.803 2.80284 22.803 2.8592 22.4145C2.96479 22.4145 3.07038 22.4145 3.17918 22.4145C3.19897 22.2726 3.21877 22.1308 3.23917 21.9846C3.33022 21.5022 3.46174 21.1024 3.65914 20.6551C3.76473 20.6551 3.87032 20.6551 3.97911 20.6551C4.01004 20.5433 4.04098 20.4316 4.07285 20.3164C4.11451 20.1709 4.15617 20.0253 4.19909 19.8753C4.23992 19.7306 4.28076 19.5858 4.32283 19.4367C4.45907 19.0556 4.45907 19.0556 4.77904 18.7357C4.94461 18.3649 5.1047 17.9917 5.259 17.6161C5.3118 17.5105 5.36459 17.4049 5.41899 17.2962C5.52458 17.2962 5.63017 17.2962 5.73896 17.2962C5.7569 17.2063 5.77485 17.1164 5.79333 17.0238C5.91344 16.606 6.0928 16.2734 6.30891 15.8966C6.38171 15.7688 6.45451 15.641 6.52952 15.5093C6.58541 15.4128 6.6413 15.3163 6.69888 15.2169C6.80447 15.2169 6.91006 15.2169 7.01886 15.2169C7.03865 15.1212 7.05845 15.0255 7.07885 14.927C7.17884 14.5771 7.17884 14.5771 7.49881 14.0972C7.60441 14.0972 7.71 14.0972 7.81879 14.0972C7.81879 13.9389 7.81879 13.7805 7.81879 13.6174C7.92438 13.6174 8.02997 13.6174 8.13876 13.6174C8.17836 13.5019 8.21795 13.3865 8.25875 13.2675C8.47836 12.7735 8.73448 12.4162 9.09868 12.0179C9.20427 12.0179 9.30986 12.0179 9.41865 12.0179C9.41865 11.8596 9.41865 11.7012 9.41865 11.5381C9.63864 11.2682 9.63864 11.2682 9.89861 11.0583C10.0042 11.0583 10.1098 11.0583 10.2186 11.0583C10.2186 10.9527 10.2186 10.8471 10.2186 10.7384C10.4386 10.4784 10.4386 10.4784 10.6985 10.2585C10.8041 10.2585 10.9097 10.2585 11.0185 10.2585C11.0779 10.1051 11.0779 10.1051 11.1385 9.94862C11.3385 9.61873 11.3385 9.61873 11.6785 9.49877C11.7775 9.48558 11.8764 9.47238 11.9784 9.45878C12.0312 9.24765 12.084 9.03653 12.1384 8.819C12.3496 8.76622 12.5608 8.71343 12.7784 8.65905C12.8312 8.44792 12.884 8.23679 12.9384 8.01926C13.1495 7.96648 13.3607 7.9137 13.5783 7.85932C13.5783 7.70097 13.5783 7.54262 13.5783 7.37948C13.8423 7.27391 14.1063 7.16835 14.3782 7.05958C14.3782 6.90124 14.3782 6.74289 14.3782 6.57974C14.5366 6.57974 14.695 6.57974 14.8582 6.57974C14.911 6.4214 14.9638 6.26305 15.0182 6.0999C15.1238 6.0999 15.2294 6.0999 15.3382 6.0999C15.3382 5.99434 15.3382 5.88877 15.3382 5.78001C16.3985 5.16845 16.3985 5.16845 16.838 4.96028C17.1285 4.83607 17.1285 4.83607 17.258 4.50044C17.9064 4.09907 18.5766 3.79583 19.3378 3.7007C19.3378 3.59514 19.3378 3.48957 19.3378 3.38081C19.6546 3.32803 19.9714 3.27524 20.2977 3.22086C20.2977 3.1153 20.2977 3.00973 20.2977 2.90097C20.5617 2.90097 20.8257 2.90097 21.0977 2.90097C21.1505 2.74262 21.2033 2.58427 21.2577 2.42113C21.5714 2.28055 21.5714 2.28055 21.9576 2.17121C22.4502 2.02924 22.7413 1.91214 23.1775 1.62139C23.5505 1.51382 23.9239 1.40731 24.2974 1.3015C24.4723 1.21903 24.6472 1.13656 24.8274 1.05158C25.4606 0.804781 25.987 0.745534 26.6597 0.711072C27.0624 0.681917 27.0624 0.681917 27.4971 0.34182C27.8184 0.281215 27.8184 0.281215 28.1571 0.25185C28.7828 0.181224 29.1843 0.00276877 29.8385 0.000249387Z" fill="#E0B8B9"></path></svg> 