<?xml version="1.0" encoding="UTF-8"?> <svg xmlns="http://www.w3.org/2000/svg" width="1020" height="980" viewBox="0 0 1020 980" fill="none"><path d="M465.209 23.0417L453.221 48.0684L452.17 72.2537L451.328 96.4391L458.689 110.109L465.839 123.779L467.312 184.768C467.943 218.207 468.994 248.492 469.625 252.067C470.887 260.9 467.522 263.634 455.114 263.634C449.225 263.634 439.13 265.106 432.821 266.999C414.104 272.467 405.061 272.887 400.223 268.471C388.867 258.166 383.609 255.221 375.617 255.221C364.261 255.221 354.797 260.689 332.294 280.248C321.358 289.712 310.632 297.283 308.319 297.283C306.006 297.283 301.799 295.39 298.855 293.077C289.181 285.506 283.082 287.399 270.674 301.699C260.369 313.266 238.076 330.932 233.66 330.932C229.454 330.932 218.518 345.443 215.363 355.118C210.316 371.311 205.689 397.81 205.689 411.901C205.689 418.841 203.375 433.352 200.431 444.078C191.388 478.148 194.543 495.183 215.363 522.312L225.668 535.982L226.299 559.537L227.14 583.302H207.371C169.726 583.512 148.275 589.821 110.419 612.114C92.5433 622.839 60.7868 648.287 39.5458 669.528C28.8201 680.253 23.5624 687.614 15.9913 703.177C10.7336 714.113 4.84498 728.414 2.7419 735.144C-1.04364 746.711 -1.04364 747.342 3.58313 770.896C9.47175 800.549 14.7294 812.327 29.6613 828.52C51.5333 852.495 73.195 866.376 118.411 886.145C120.725 886.986 135.446 893.505 151.009 900.446C188.864 917.27 219.99 927.786 265.627 939.563C286.447 944.82 308.74 951.13 315.049 953.653C339.445 963.117 405.902 971.53 511.687 978.89C551.855 981.624 637.03 978.89 676.778 973.422C688.976 971.74 707.693 970.268 718.629 970.268C796.233 970.057 866.476 955.336 904.962 931.361C925.572 918.532 956.067 894.978 968.054 882.359C980.042 870.161 995.184 847.448 1002.97 830.413C1010.12 814.43 1017.27 778.467 1018.95 750.496C1020 730.938 1019.58 727.993 1013.27 708.435C1002.12 673.944 982.986 649.338 957.118 636.299C945.341 630.2 892.554 614.217 863.111 607.908C855.119 606.015 847.969 603.912 846.917 602.86C846.076 602.019 846.707 595.71 848.6 588.98C851.754 577.623 851.754 575.73 848.389 562.691C839.977 529.883 840.187 531.356 844.604 519.578C853.016 498.337 852.595 493.08 840.608 474.152C833.668 463.216 833.247 458.799 837.874 447.443C839.767 442.816 841.239 434.404 841.239 428.515C841.239 416.317 832.826 393.814 825.255 385.612C814.74 374.256 813.478 366.474 818.736 344.602C820.418 337.662 821.89 327.778 821.89 322.941C821.89 313.897 821.26 313.056 801.701 294.549C790.555 283.823 780.039 272.467 778.357 269.102C776.674 265.947 774.782 255.642 774.361 246.389C773.309 226.83 772.048 223.886 761.953 216.104C755.223 211.057 744.918 208.743 720.312 207.061C719.471 206.851 716.316 201.803 713.372 195.704C705.801 180.142 697.809 175.305 678.25 173.832C664.791 172.781 659.743 173.412 643.339 178.459L624.412 184.348L606.956 177.828C597.282 174.253 587.397 170.888 584.663 170.047C577.723 168.154 566.787 175.725 550.593 194.022C538.606 207.482 536.503 208.954 529.563 208.954C523.043 208.954 520.309 210.426 514 217.576C509.794 222.203 502.854 231.246 498.858 237.556C494.862 243.865 490.656 248.912 489.604 248.912C488.342 248.912 487.501 239.028 487.501 225.147C487.291 212.319 485.188 184.558 482.454 163.738C477.196 123.779 477.617 117.47 486.029 110.319C497.386 101.066 503.485 78.5629 499.909 58.1631C498.017 45.9652 482.874 3.6934 479.299 0.11817C478.037 -1.14368 472.569 7.89954 465.209 23.0417ZM484.136 45.3344C492.128 65.1033 494.862 78.7732 492.338 87.3958C490.235 94.7566 474.672 116.418 471.518 116.418C465.839 116.418 454.904 81.7176 456.796 69.5197C459.11 56.06 473.411 23.6727 476.145 26.4067C476.565 26.8273 480.14 35.4499 484.136 45.3344ZM597.913 192.129C598.754 193.391 603.17 196.335 607.797 198.649C617.892 203.696 629.249 203.275 659.743 196.125C683.929 190.447 689.186 192.339 698.23 209.164C706.221 224.306 711.479 227.671 734.402 231.246C743.446 232.719 751.227 234.401 751.858 235.032C752.489 235.663 753.33 245.547 753.54 257.114C753.961 281.931 754.802 283.613 776.043 300.858C784.666 307.588 793.078 316.631 795.181 320.837C798.546 327.778 798.757 330.301 796.023 351.542C794.55 364.582 794.13 376.779 794.971 379.513C796.023 382.037 801.491 389.608 807.169 396.548C821.68 413.794 821.47 412.111 816.422 460.271C815.161 472.469 815.371 473.311 822.732 482.143C831.144 492.238 831.775 495.183 826.938 506.539C822.732 517.055 822.732 536.824 827.148 553.858C829.882 564.374 830.303 570.893 829.041 582.25C828.2 590.242 827.359 607.908 827.359 621.157C827.148 642.188 827.779 646.814 831.985 655.858C834.719 661.957 836.402 668.266 835.561 671C834.93 673.524 828.62 679.833 821.26 685.09C814.109 690.138 805.907 696.868 803.173 699.812C798.336 705.07 797.074 705.28 775.833 705.28C758.588 705.28 750.386 706.332 739.45 709.696L725.359 714.323L707.904 706.752C685.821 697.288 676.147 695.606 663.949 699.812C643.55 706.962 621.678 706.121 600.436 697.078C593.286 693.923 585.294 693.292 560.478 693.082L529.352 692.872L514.21 683.198C500.12 673.944 498.437 673.524 488.553 674.575C482.874 675.206 472.78 676.468 466.26 677.099C451.539 678.781 435.976 675.206 423.988 667.425C416.838 662.798 411.58 661.326 398.962 660.484C388.867 659.854 378.562 657.54 370.149 653.965C362.999 651.021 353.745 648.497 349.329 648.497C340.286 648.497 326.195 642.608 320.937 636.72C319.045 634.617 315.469 627.256 312.946 620.736C307.688 606.435 298.435 597.813 284.975 594.027C271.515 590.242 266.888 584.353 263.313 566.267C258.266 542.081 252.587 529.463 240.179 515.372C233.87 508.222 228.192 500.23 227.561 497.496C226.72 494.972 227.771 486.77 229.664 479.199C234.711 458.799 234.08 447.653 226.72 432.932C223.355 425.991 220.41 418.631 220.41 416.528C220.41 411.48 229.033 398.231 241.651 384.35C253.008 371.732 258.266 361.847 258.266 353.015C258.266 346.074 266.047 334.507 275.301 327.567C282.031 322.52 283.503 322.31 299.696 323.571C319.465 325.044 324.302 323.361 336.08 310.953C344.282 302.33 356.69 295.18 363.209 295.18C365.733 295.18 373.725 297.704 381.506 300.858L395.386 306.537L405.061 301.069C433.452 284.875 436.607 283.823 452.38 286.347C460.371 287.609 467.943 289.502 469.204 290.764C470.466 292.025 471.938 311.584 472.569 337.662C473.2 362.268 474.672 383.719 475.514 384.981C478.668 390.029 484.978 387.715 489.815 379.934C493.81 373.414 495.072 367.946 495.914 349.86L496.965 327.778L509.583 312.005C536.082 278.566 561.319 256.273 587.397 243.024C600.647 236.504 638.082 235.873 653.224 241.972C664.58 246.599 681.195 262.582 686.873 274.149C688.345 277.304 699.071 289.291 710.638 300.648C722.415 312.005 735.454 326.095 739.66 331.984C747.021 341.658 756.695 367.105 756.695 376.569C756.695 378.672 760.06 390.239 764.056 402.437C774.992 434.614 776.254 439.872 776.674 456.065C776.885 464.057 778.357 478.779 779.829 488.663C781.511 501.281 781.932 521.471 780.88 557.013C778.988 624.942 777.936 648.707 776.464 653.124C774.992 657.75 769.103 657.961 760.901 653.755C755.013 650.81 753.961 650.81 744.077 655.858C733.561 661.115 723.466 662.588 719.891 659.223C715.264 655.227 704.328 653.544 691.5 654.806C683.929 655.437 670.259 655.016 661.005 653.755C648.807 651.862 637.24 651.862 619.364 653.334C596.861 655.227 593.707 655.016 586.766 651.652C580.878 648.707 573.938 647.656 559.006 647.656C540.078 647.445 538.185 647.025 528.301 640.505C517.575 633.775 511.266 632.514 503.274 635.668C500.751 636.93 496.334 636.299 491.707 634.406C487.712 632.514 480.561 630.831 475.934 630.621C471.308 630.2 462.264 627.887 455.955 625.573C449.646 623.26 441.444 621.367 437.658 621.157C432.401 621.157 429.456 619.264 424.199 612.745C418.52 605.594 416.207 604.332 409.687 604.332C404.43 604.332 398.751 602.229 392.652 598.023C387.605 594.658 377.51 589.821 370.149 587.297C362.999 584.984 356.269 581.198 355.007 579.306C353.956 577.203 349.96 574.258 346.174 572.786C336.921 569.211 311.263 549.652 304.113 540.819C283.292 514.952 278.455 506.539 276.142 493.08C275.301 488.032 273.198 480.461 271.305 476.255C269.202 471.208 267.94 461.744 267.94 448.705C267.73 424.73 270.464 418.21 289.181 399.072C306.637 380.986 328.929 371.522 377.09 361.427C385.292 359.744 398.541 356.8 406.953 354.907C419.151 351.963 423.568 351.753 431.349 353.856C443.757 356.8 445.44 356.8 445.44 353.015C445.44 351.122 441.233 348.808 434.083 346.705C423.568 343.551 421.675 343.761 407.374 347.547C398.751 349.65 385.292 352.594 377.09 354.066C369.098 355.538 357.321 358.483 351.011 360.796C344.702 362.899 338.183 364.582 336.29 364.582C328.509 364.582 302.43 376.779 289.391 386.454C272.987 398.441 266.047 407.695 261.42 422.416C255.952 440.713 257.845 458.589 269.833 502.333C271.725 509.273 275.511 517.265 278.035 520.209C280.769 523.154 284.344 527.78 286.447 530.725C293.597 541.45 316.521 563.112 329.77 571.735C337.341 576.782 345.123 582.671 347.436 584.984C349.539 587.508 357.321 591.504 364.471 593.817C371.832 596.341 381.716 600.967 386.343 604.543C391.18 607.908 395.597 610.641 396.438 610.641C403.168 610.641 414.735 616.11 421.044 622.208C427.353 628.097 430.718 629.569 437.238 629.569C442.285 629.569 447.963 631.252 451.328 633.775C456.796 637.771 460.161 638.402 497.806 641.557C509.584 642.398 516.524 644.501 526.829 649.759C538.185 655.647 542.602 656.909 553.958 656.909C561.529 656.909 569.521 657.961 571.835 659.223C580.878 663.849 601.698 665.742 618.523 663.008C631.772 661.115 636.609 661.115 644.811 663.429C650.49 665.111 662.688 666.163 673.624 665.952C686.032 665.742 696.126 666.794 702.856 668.897C709.796 671 716.737 671.631 724.939 670.79C731.458 670.159 744.918 668.686 755.223 667.635C789.293 664.06 789.503 663.639 788.662 569.421C788.452 532.197 787.4 495.393 786.138 487.401C785.087 479.41 784.035 466.16 784.035 458.168C783.825 447.653 781.722 436.507 776.464 419.261C772.258 406.012 767.631 388.346 766.159 380.355C762.163 360.375 754.382 339.345 747.021 329.46C734.192 312.215 723.677 300.648 713.582 292.656C707.904 288.029 699.281 278.355 694.654 271.205C683.929 254.801 667.104 239.448 651.752 232.508C641.657 227.881 637.24 227.04 621.047 227.461C603.381 227.671 600.436 228.512 583.612 236.294C560.899 247.019 541.761 263.423 516.524 293.708C506.219 306.116 496.965 315.79 495.914 315.159C495.072 314.739 493.81 310.743 492.969 306.326C492.338 301.91 491.076 295.18 490.445 291.605C489.394 285.926 490.866 282.141 498.858 269.102C504.116 260.69 508.532 253.118 508.532 252.487C508.532 251.857 511.476 246.599 515.052 240.71C521.361 230.826 522.412 229.985 529.983 229.985C541.971 229.985 549.752 225.147 567.839 206.64C580.878 193.181 585.084 190.026 590.342 190.026C593.707 190.026 597.282 191.078 597.913 192.129ZM267.73 609.8C282.241 620.736 283.713 622.629 286.868 633.565C293.597 656.699 310.632 666.794 352.694 672.472C377.51 676.047 387.184 679.412 390.76 686.352C394.335 692.872 401.485 694.134 462.054 697.919C473.411 698.76 483.716 700.864 491.497 704.018C499.909 707.593 511.266 709.696 531.666 711.379C547.229 712.851 569.942 715.795 582.14 717.898C594.338 720.002 615.158 722.736 628.407 723.997C644.601 725.259 661.215 728.414 678.461 733.461C712.741 743.346 724.518 743.556 744.708 733.882C756.905 728.204 763.425 726.731 778.777 725.47C789.293 724.839 800.229 723.577 803.173 722.946L808.641 721.684L810.113 755.123C810.744 773.42 812.006 790.875 812.637 794.03C814.109 800.76 814.53 800.339 793.499 804.125C776.043 807.279 756.695 815.271 750.176 822.211C744.497 828.31 740.081 828.52 732.93 823.052C722.625 814.85 694.234 818.426 682.667 829.572L676.147 835.671L668.156 828.31C663.739 824.314 657.64 820.529 654.486 819.687C643.97 816.953 620.836 820.318 608.428 826.417L596.651 832.306L588.028 823.263C573.938 808.962 565.105 805.176 544.284 805.176C528.721 805.176 524.936 806.017 515.472 810.854C509.373 814.219 503.485 816.743 502.223 816.743C501.171 816.743 497.806 812.958 494.862 808.331C491.918 803.494 486.87 798.657 483.716 797.395C474.672 794.03 461.633 794.871 451.749 799.918C441.023 805.386 437.869 804.545 436.186 795.081C433.452 779.939 415.155 769.634 399.382 774.261C386.974 778.046 385.292 777.626 382.558 767.952C381.085 763.115 377.09 756.385 373.725 753.02C367.626 747.131 366.785 746.921 353.115 747.762L338.603 748.814L337.341 740.822C334.818 724.628 319.465 717.898 302.01 725.049C293.177 728.834 290.863 727.573 287.709 716.426C286.237 711.589 281.82 704.439 277.824 700.233C271.095 693.292 267.73 692.031 251.957 689.928C249.643 689.507 249.012 687.194 249.433 682.146C250.695 663.429 250.695 612.955 249.223 605.804C248.171 600.757 248.381 598.023 249.853 598.023C251.115 598.023 259.107 603.281 267.73 609.8ZM233.029 609.59C235.553 611.062 235.763 614.848 233.239 618.633C232.398 620.105 221.252 623.681 208.633 626.415C156.897 637.561 109.789 662.377 78.8733 694.344C60.7868 713.061 54.2673 726.731 54.2673 745.238C54.2673 764.376 58.8941 772.578 80.7661 793.609C103.269 815.271 119.252 825.997 159.421 847.027C207.792 872.054 227.771 879.625 297.804 898.763C348.277 912.643 351.432 913.274 437.027 922.738C519.258 931.992 551.014 933.254 597.913 929.468C619.785 927.575 657.43 926.103 681.195 926.103C738.398 926.103 776.464 919.794 817.474 903.18C842.501 893.085 850.703 888.458 868.158 874.578C900.966 848.5 921.156 823.894 935.457 792.347C943.028 775.733 950.178 748.183 950.178 735.564C950.178 715.375 934.195 686.352 913.795 669.528C899.915 658.171 886.034 651.652 866.476 647.235C854.698 644.711 850.282 642.608 847.758 638.823C845.866 635.878 845.024 632.934 845.866 632.303C847.758 630.41 924.521 649.759 941.345 656.489C961.535 664.48 978.78 676.468 985.931 687.824C1006.33 720.002 1002.76 772.368 976.467 828.31C961.325 860.908 940.294 884.042 913.374 898.342C883.931 913.905 856.381 923.79 816.633 933.464C783.194 941.456 780.25 941.876 736.716 946.082C719.471 947.765 687.294 951.13 665.211 953.653C589.921 962.486 460.792 959.121 371.832 946.082C331.663 940.194 333.977 940.614 258.055 917.06C176.456 891.402 139.021 877.732 115.677 864.904C77.8217 843.873 51.1127 823.683 38.0736 806.648C24.8242 789.193 22.0902 764.797 29.451 732.62C35.7602 705.701 76.1393 658.802 112.102 636.299C144.91 616.11 159.421 610.221 180.031 608.749C201.693 607.277 229.874 607.697 233.029 609.59ZM234.711 651.441C235.132 657.12 232.819 674.365 229.664 689.928C222.093 728.834 222.934 738.719 235.973 750.917C242.493 757.226 247.75 760.17 253.849 761.222C259.317 762.063 264.365 764.587 267.309 767.952C269.833 770.896 275.932 777.416 280.558 782.463L289.391 791.506L300.958 790.244C312.525 788.772 312.735 788.982 313.997 794.871C319.255 818.005 323.671 821.37 348.908 821.37L365.523 821.16L374.356 830.834C388.657 845.766 396.859 849.341 419.362 849.341C437.869 849.551 438.92 849.761 446.071 856.071C454.693 863.642 469.835 867.638 482.244 865.324C489.394 863.852 492.549 864.693 503.274 870.582C527.88 883.831 550.804 886.776 568.049 878.574L575.2 875.209L584.874 884.672C596.02 896.029 607.377 899.815 622.939 897.712C634.506 896.239 654.696 886.776 660.795 880.046C666.263 873.947 669.838 874.578 673.413 881.728C677.199 889.089 686.032 892.454 700.753 892.454C718.84 892.244 727.462 889.299 736.295 880.046C745.338 870.161 748.072 869.741 756.695 876.05C766.159 882.99 785.297 883.831 797.495 877.732C814.109 869.741 836.612 841.559 836.612 828.731C836.612 825.997 833.247 813.378 829.041 800.76C821.68 778.888 821.26 776.574 821.049 747.552C820.839 718.319 821.049 717.268 825.676 713.903C853.226 694.344 859.115 686.352 856.591 671.631C855.75 667.214 856.171 663.008 857.222 662.377C860.166 660.484 889.399 670.369 899.073 676.468C919.263 689.297 931.881 707.593 934.405 727.993C936.508 744.187 928.727 782.673 920.735 797.184C896.129 840.718 837.664 885.934 784.035 902.549C747.231 914.116 662.688 920.845 561.109 920.635C493.18 920.425 486.87 920.004 433.873 908.437C419.992 905.283 397.279 901.076 383.399 898.553C355.849 893.926 270.253 872.475 246.699 864.483C225.878 857.122 178.559 837.143 156.687 825.997C128.927 812.116 85.1825 774.051 79.5042 758.698C75.2981 748.183 76.5599 735.564 82.2382 725.68C98.0113 698.76 162.155 658.381 209.895 645.342C219.779 642.608 229.243 640.505 230.926 640.716C233.239 641.136 234.291 644.291 234.711 651.441ZM265.206 707.173C268.361 709.276 272.567 713.061 274.459 715.585C278.666 721.894 278.666 740.401 274.459 744.608C269.833 749.234 257.635 746.5 249.433 739.14C243.965 734.302 242.703 731.358 241.862 721.684C241.231 712.851 241.862 709.486 244.596 706.752C249.223 702.125 257.845 702.336 265.206 707.173ZM320.727 737.247C328.298 744.397 327.457 757.857 319.045 765.007C302.641 778.888 275.721 762.904 286.657 745.869C294.859 733.461 312.105 729.045 320.727 737.247ZM368.046 762.063C373.935 767.952 374.356 769.214 372.884 778.467C369.939 799.077 360.686 810.434 347.436 810.434C341.968 810.434 339.445 808.751 334.607 802.442C321.358 785.197 320.517 777.416 331.453 768.793C349.96 754.282 358.583 752.599 368.046 762.063ZM422.516 792.768C427.143 798.446 427.564 818.846 423.147 828.31C418.52 838.194 413.263 839.667 400.434 834.83C387.395 829.782 377.721 818.846 377.3 808.962C377.09 801.601 377.721 800.76 387.605 795.292C400.013 788.562 417.889 787.09 422.516 792.768ZM477.617 815.692C480.982 816.322 483.926 819.477 486.45 824.945C490.656 834.409 489.604 841.98 483.295 848.289C474.252 857.332 452.38 851.023 447.963 838.194C443.757 826.207 455.955 811.275 467.943 813.588C470.677 814.219 475.093 815.061 477.617 815.692ZM819.998 814.64C826.728 818.426 825.045 829.782 815.792 845.766C804.014 866.165 793.709 873.526 777.726 873.526C762.584 873.526 748.703 863.221 751.437 854.178C756.485 838.194 775.202 819.267 790.555 815.061C800.229 812.116 814.95 812.116 819.998 814.64ZM559.006 818.846C570.152 822.001 581.509 832.096 582.981 840.718C584.874 851.023 576.882 863.642 565.946 867.427C555.01 871.213 535.241 870.792 520.52 866.376C506.85 862.38 500.12 854.598 500.12 842.611C500.12 824.314 532.297 811.275 559.006 818.846ZM730.827 834.199C734.613 837.774 736.716 853.968 734.823 861.959C732.51 870.792 722.205 875.629 705.17 875.629C685.401 875.629 680.143 872.685 679.302 861.959C678.04 845.345 699.912 828.31 719.681 830.413C724.097 830.834 729.145 832.516 730.827 834.199ZM655.747 838.405C658.692 839.877 662.688 844.504 664.791 848.92C668.576 856.281 668.576 857.122 665.211 862.17C659.954 870.372 650.7 874.788 633.244 877.732C609.269 881.938 590.552 875.419 590.552 863.011C590.552 857.332 606.325 840.718 614.106 838.405C623.781 835.25 649.438 835.25 655.747 838.405Z" fill="#E0B8B9"></path><path d="M529.562 404.329C529.562 405.381 535.241 417.368 542.391 430.828L555.22 455.434L549.121 461.743C543.863 467.421 543.233 469.104 543.653 481.722C543.863 497.495 548.701 506.118 557.323 507.17C563.212 507.801 568.049 503.174 570.993 493.92C572.676 488.873 574.148 487.821 578.144 488.242C590.972 489.504 594.968 489.083 598.543 485.929C600.647 483.825 604.011 482.353 605.904 482.353C607.797 482.353 612.424 479.619 616.209 476.254C622.729 470.366 623.149 469.314 622.939 455.644C622.939 447.863 622.098 436.927 621.046 431.459C619.785 423.257 618.943 421.785 616.209 423.257C614.317 424.308 610.741 424.308 607.797 423.257C603.591 421.574 601.488 422.205 597.702 425.781C590.131 432.931 587.818 442.815 589.5 460.481C590.552 471.628 590.131 477.096 588.449 479.199C584.032 484.456 578.985 479.199 569.521 459.85C557.113 433.772 542.602 409.166 537.344 405.591C532.086 402.016 529.562 401.595 529.562 404.329ZM616.63 443.657C619.785 451.648 617.892 461.112 612.424 465.318C607.376 469.314 606.745 469.314 601.908 466.16C596.651 462.795 593.496 455.013 595.389 449.966C596.651 446.601 606.745 440.923 611.793 440.502C613.686 440.292 615.999 441.764 616.63 443.657ZM563.212 476.885C565.525 484.246 564.263 494.131 560.688 496.234C556.272 498.968 552.696 492.238 552.696 481.091C552.696 471.207 553.327 469.735 556.692 469.735C559.426 469.735 561.529 472.048 563.212 476.885Z" fill="#E0B8B9"></path><path d="M459.111 455.014C457.429 457.538 459.742 465.529 462.056 465.529C465.21 465.529 468.996 459.22 467.734 456.065C466.472 452.49 461.004 451.859 459.111 455.014Z" fill="#E0B8B9"></path><path d="M468.573 476.884C466.891 478.987 466.47 483.404 467.311 489.082C470.676 514.108 471.097 529.671 468.573 540.187C465.629 552.174 467.101 563.11 471.307 561.638C472.779 561.217 474.041 556.801 474.462 551.543C475.513 538.504 477.616 537.453 486.449 545.234C499.909 557.011 519.047 551.754 519.047 536.401V530.933L511.266 535.98C504.536 540.607 503.064 541.028 499.278 538.504C491.497 533.457 483.295 514.529 483.295 501.49C483.295 489.713 478.247 476.043 473.62 474.571C472.359 474.15 470.045 475.202 468.573 476.884Z" fill="#E0B8B9"></path></svg> 