<?xml version="1.0" encoding="UTF-8"?> <svg xmlns="http://www.w3.org/2000/svg" width="158" height="132" viewBox="0 0 158 132" fill="none"><path d="M23.1508 0.000193492C23.3013 0.000570297 23.3013 0.000570297 23.4548 0.000954712C23.56 0.000737253 23.6651 0.000519794 23.7734 0.000295745C24.1228 -0.000252705 24.4721 0.000112058 24.8214 0.000530549C25.0631 0.00044703 25.3047 0.000326655 25.5464 0.000170769C26.0535 -1.25362e-05 26.5607 0.000254907 27.0678 0.000833523C27.7194 0.00154054 28.3711 0.00113364 29.0227 0.000390189C29.5219 -5.72177e-05 30.0211 8.40156e-05 30.5203 0.000406047C30.7606 0.000489113 31.0009 0.000386256 31.2413 9.83402e-05C31.5765 -0.000215127 31.9118 0.000261314 32.2471 0.000954712C32.3474 0.000703509 32.4478 0.000452307 32.5512 0.000193492C33.2364 0.00283257 33.2364 0.00283256 33.3747 0.14111C33.6545 0.176216 33.9343 0.19667 34.2155 0.218187C34.4919 0.265208 34.4919 0.265208 34.8642 0.513404C35.0962 0.53778 35.3293 0.552111 35.5625 0.55994C36.1982 0.601294 36.646 0.735127 37.2096 1.02046C37.4881 1.14134 37.7206 1.18226 38.0218 1.21145C38.464 1.25799 38.464 1.25799 38.7122 1.50619C39.0965 1.60909 39.4831 1.6884 39.8725 1.76941C39.9812 1.8054 40.0898 1.8414 40.2018 1.87848C40.2427 2.00134 40.2837 2.12419 40.3259 2.25077C40.4104 2.24309 40.4949 2.23542 40.5819 2.2275C41.0607 2.25806 41.3823 2.4193 41.8155 2.62307C41.8155 2.70497 41.8155 2.78688 41.8155 2.87126C41.9025 2.86358 41.9895 2.85591 42.0792 2.84799C42.5171 2.87654 42.801 3.0316 43.1809 3.24356C43.1809 3.32546 43.1809 3.40736 43.1809 3.49175C43.3857 3.5327 43.5905 3.57366 43.8015 3.61585C43.8015 3.69775 43.8015 3.77966 43.8015 3.86404C43.8834 3.87428 43.9654 3.88452 44.0498 3.89507C44.5451 4.01887 44.9665 4.24523 45.4152 4.48453C45.4152 4.56644 45.4152 4.64834 45.4152 4.73273C45.5022 4.74297 45.5893 4.75321 45.679 4.76375C46.1169 4.87796 46.4083 5.09983 46.7806 5.35322C46.9458 5.39569 47.1113 5.4373 47.2771 5.47732C47.4943 5.65571 47.4943 5.65571 47.6495 5.84961C47.6495 5.93152 47.6495 6.01342 47.6495 6.09781C47.7916 6.12084 47.7916 6.12084 47.9366 6.14434C48.2701 6.2219 48.2701 6.2219 48.6425 6.4701C48.6425 6.552 48.6425 6.63391 48.6425 6.7183C48.7373 6.71062 48.832 6.70294 48.9296 6.69503C49.2632 6.7183 49.2632 6.7183 49.4882 6.88893C49.6356 7.09059 49.6356 7.09059 49.6356 7.33878C49.8404 7.37974 50.0452 7.42069 50.2562 7.46288C50.2562 7.54479 50.2562 7.62669 50.2562 7.71108C50.3791 7.71108 50.502 7.71108 50.6286 7.71108C50.6286 7.79298 50.6286 7.87489 50.6286 7.95927C50.8334 8.00023 51.0382 8.04118 51.2492 8.08337C51.2492 8.16528 51.2492 8.24718 51.2492 8.33157C51.3312 8.33157 51.4131 8.33157 51.4975 8.33157C51.4975 8.41347 51.4975 8.49538 51.4975 8.57976C51.5692 8.59256 51.6409 8.60536 51.7147 8.61854C52.0383 8.71738 52.239 8.85162 52.4905 9.07615C52.4905 9.15806 52.4905 9.23996 52.4905 9.32435C52.5648 9.33715 52.639 9.34994 52.7155 9.36313C53.031 9.46227 53.1327 9.58504 53.3594 9.82074C53.467 9.88217 53.5745 9.9436 53.6853 10.0069C53.9801 10.193 53.9801 10.193 54.1042 10.5653C54.309 10.6063 54.5138 10.6472 54.7248 10.6894C54.7248 10.7713 54.7248 10.8532 54.7248 10.9376C54.8554 10.9799 54.8554 10.9799 54.9886 11.0229C55.4316 11.2251 55.7224 11.4876 56.0903 11.8063C56.1722 11.8473 56.2541 11.8882 56.3385 11.9304C56.3385 12.0123 56.3385 12.0942 56.3385 12.1786C56.446 12.2285 56.446 12.2285 56.5557 12.2794C56.8442 12.4316 57.088 12.5817 57.3315 12.7991C57.3315 12.9219 57.3315 13.0448 57.3315 13.1714C57.4058 13.1867 57.48 13.2021 57.5565 13.2179C57.8281 13.2955 57.8281 13.2955 58.2005 13.5437C58.2005 13.6256 58.2005 13.7075 58.2005 13.7919C58.3233 13.7919 58.4462 13.7919 58.5728 13.7919C58.7823 13.9625 58.7823 13.9625 58.9452 14.1642C58.9452 14.2461 58.9452 14.328 58.9452 14.4124C59.0681 14.4533 59.191 14.4943 59.3176 14.5365C59.3176 14.6184 59.3176 14.7003 59.3176 14.7847C59.4123 14.8179 59.5071 14.8512 59.6047 14.8855C59.9246 15.0268 60.0958 15.1339 60.3106 15.4051C60.3106 15.487 60.3106 15.569 60.3106 15.6533C60.3849 15.6892 60.4591 15.725 60.5356 15.7619C60.8072 15.9015 60.8072 15.9015 61.1795 16.1497C61.1795 16.2316 61.1795 16.3135 61.1795 16.3979C61.2615 16.3979 61.3434 16.3979 61.4278 16.3979C61.4278 16.4798 61.4278 16.5617 61.4278 16.6461C61.5507 16.6461 61.6736 16.6461 61.8002 16.6461C61.8002 16.769 61.8002 16.8918 61.8002 17.0184C61.8949 17.0517 61.9896 17.085 62.0872 17.1192C62.4072 17.2606 62.5784 17.3676 62.7932 17.6389C62.7932 17.7208 62.7932 17.8027 62.7932 17.8871C62.9161 17.9281 63.039 17.969 63.1656 18.0112C63.1656 18.0931 63.1656 18.175 63.1656 18.2594C63.2475 18.2594 63.3295 18.2594 63.4139 18.2594C63.4139 18.3823 63.4139 18.5051 63.4139 18.6317C63.5367 18.6317 63.6596 18.6317 63.7862 18.6317C63.7862 18.7136 63.7862 18.7955 63.7862 18.8799C63.8682 18.8799 63.9501 18.8799 64.0345 18.8799C64.0345 19.0027 64.0345 19.1256 64.0345 19.2522C64.1574 19.2522 64.2803 19.2522 64.4069 19.2522C64.4069 19.3341 64.4069 19.416 64.4069 19.5004C64.5298 19.5413 64.6527 19.5823 64.7793 19.6245C64.7793 19.7064 64.7793 19.7883 64.7793 19.8727C64.8983 19.9226 64.8983 19.9226 65.0198 19.9735C65.2758 20.1209 65.2758 20.1209 65.3999 20.4932C65.5058 20.5452 65.5058 20.5452 65.6138 20.5983C66.0748 20.8316 66.3946 21.2296 66.7462 21.6006C67.0998 21.9659 67.4475 22.2206 67.8825 22.4787C67.8825 22.5606 67.8825 22.6425 67.8825 22.7269C68.0054 22.7679 68.1283 22.8088 68.2549 22.851C68.2549 22.9329 68.2549 23.0148 68.2549 23.0992C68.5621 23.2221 68.5621 23.2221 68.8755 23.3474C68.8755 23.4703 68.8755 23.5931 68.8755 23.7197C68.9984 23.7197 69.1213 23.7197 69.2479 23.7197C69.2479 23.8426 69.2479 23.9654 69.2479 24.092C69.3298 24.092 69.4118 24.092 69.4962 24.092C69.4962 24.1739 69.4962 24.2558 69.4962 24.3402C69.6191 24.3811 69.7419 24.4221 69.8686 24.4643C69.8686 24.5462 69.8686 24.6281 69.8686 24.7125C69.9505 24.7125 70.0324 24.7125 70.1168 24.7125C70.311 24.9225 70.4958 25.1413 70.6754 25.364C70.774 25.4849 70.8725 25.6059 70.9741 25.7305C71.1839 26.0107 71.3283 26.264 71.4822 26.5739C71.6467 26.6587 71.8122 26.7416 71.9787 26.8221C72.0197 26.945 72.0607 27.0679 72.1029 27.1944C72.2258 27.2354 72.3486 27.2763 72.4753 27.3185C72.4753 27.4004 72.4753 27.4823 72.4753 27.5667C72.5572 27.5667 72.6391 27.5667 72.7235 27.5667C72.7235 27.6896 72.7235 27.8124 72.7235 27.939C72.8464 27.939 72.9693 27.939 73.0959 27.939C73.1292 28.0388 73.1625 28.1387 73.1968 28.2415C73.2697 28.3989 73.2697 28.3989 73.3442 28.5595C73.467 28.6005 73.5899 28.6414 73.7165 28.6836C73.7165 28.7655 73.7165 28.8474 73.7165 28.9318C73.7985 28.9318 73.8804 28.9318 73.9648 28.9318C74.1327 29.1784 74.2982 29.4266 74.4613 29.6764C74.5432 29.7173 74.6252 29.7583 74.7096 29.8005C74.7096 29.9233 74.7096 30.0462 74.7096 30.1728C74.7915 30.1728 74.8734 30.1728 74.9578 30.1728C74.9578 30.2547 74.9578 30.3366 74.9578 30.421C75.0807 30.421 75.2036 30.421 75.3302 30.421C75.3302 30.5438 75.3302 30.6667 75.3302 30.7933C75.4121 30.7933 75.4941 30.7933 75.5785 30.7933C75.5785 30.8752 75.5785 30.9571 75.5785 31.0415C75.7014 31.0824 75.8243 31.1234 75.9509 31.1656C76.0357 31.33 76.1184 31.4955 76.1991 31.662C76.322 31.7439 76.4449 31.8258 76.5715 31.9102C76.5715 32.074 76.5715 32.2378 76.5715 32.4065C76.6944 32.4065 76.8173 32.4065 76.9439 32.4065C76.9439 32.4885 76.9439 32.5704 76.9439 32.6547C77.0258 32.6547 77.1077 32.6547 77.1922 32.6547C77.1922 32.7776 77.1922 32.9005 77.1922 33.027C77.315 33.068 77.4379 33.1089 77.5645 33.1511C77.5645 33.233 77.5645 33.3149 77.5645 33.3993C77.6465 33.3993 77.7284 33.3993 77.8128 33.3993C77.8538 33.6041 77.8947 33.8089 77.9369 34.0198C78.0189 34.0198 78.1008 34.0198 78.1852 34.0198C78.1852 34.1017 78.1852 34.1836 78.1852 34.268C78.3081 34.309 78.431 34.3499 78.5576 34.3921C78.5576 34.474 78.5576 34.5559 78.5576 34.6403C78.8033 34.6403 79.0491 34.6403 79.3023 34.6403C79.3023 34.5584 79.3023 34.4765 79.3023 34.3921C79.8466 34.0198 79.8466 34.0198 80.1712 34.0198C80.2122 33.897 80.2532 33.7741 80.2954 33.6475C80.3773 33.6475 80.4592 33.6475 80.5436 33.6475C80.5436 33.5656 80.5436 33.4837 80.5436 33.3993C80.6256 33.3993 80.7075 33.3993 80.7919 33.3993C80.7919 33.2765 80.7919 33.1536 80.7919 33.027C80.9148 33.027 81.0377 33.027 81.1643 33.027C81.1771 32.9298 81.1899 32.8325 81.2031 32.7323C81.2884 32.4065 81.2884 32.4065 81.6608 32.1584C81.7018 32.0355 81.7427 31.9126 81.7849 31.7861C81.8668 31.7861 81.9488 31.7861 82.0332 31.7861C82.0741 31.6632 82.1151 31.5403 82.1573 31.4138C82.2392 31.4138 82.3212 31.4138 82.4056 31.4138C82.4056 31.2909 82.4056 31.168 82.4056 31.0415C82.4875 31.0415 82.5694 31.0415 82.6538 31.0415C82.6948 30.8777 82.7357 30.7139 82.7779 30.5451C82.8599 30.5451 82.9418 30.5451 83.0262 30.5451C83.0262 30.4222 83.0262 30.2994 83.0262 30.1728C83.1491 30.1728 83.272 30.1728 83.3986 30.1728C83.3986 30.0499 83.3986 29.9271 83.3986 29.8005C83.4805 29.8005 83.5624 29.8005 83.6469 29.8005C83.7288 29.5957 83.8107 29.391 83.8951 29.18C84.018 29.18 84.1409 29.18 84.2675 29.18C84.2752 29.0904 84.2829 29.0008 84.2908 28.9085C84.4233 28.4498 84.6533 28.2454 85.0123 27.939C85.0942 27.939 85.1761 27.939 85.2605 27.939C85.2605 27.8162 85.2605 27.6933 85.2605 27.5667C85.3834 27.5667 85.5063 27.5667 85.6329 27.5667C85.6483 27.4925 85.6636 27.4183 85.6795 27.3418C85.757 27.0703 85.757 27.0703 86.0053 26.698C86.0872 26.698 86.1691 26.698 86.2536 26.698C86.2536 26.5752 86.2536 26.4523 86.2536 26.3258C86.3764 26.3258 86.4993 26.3258 86.6259 26.3258C86.6259 26.2029 86.6259 26.08 86.6259 25.9535C86.7079 25.9535 86.7898 25.9535 86.8742 25.9535C86.9152 25.8306 86.9561 25.7077 86.9983 25.5812C87.0803 25.5812 87.1622 25.5812 87.2466 25.5812C87.2466 25.4993 87.2466 25.4174 87.2466 25.333C87.3285 25.333 87.4104 25.333 87.4948 25.333C87.5281 25.2536 87.5614 25.1743 87.5957 25.0925C87.7431 24.8366 87.7431 24.8366 88.1155 24.7125C88.2005 24.5482 88.2829 24.3825 88.3637 24.2161C88.612 23.9369 88.612 23.9369 88.8603 23.7197C88.9422 23.7197 89.0241 23.7197 89.1085 23.7197C89.1495 23.5968 89.1904 23.474 89.2326 23.3474C89.3146 23.3474 89.3965 23.3474 89.4809 23.3474C89.5116 23.2553 89.5423 23.1631 89.574 23.0682C89.7422 22.6983 89.9166 22.4912 90.2257 22.2305C90.3076 22.2305 90.3895 22.2305 90.4739 22.2305C90.5059 22.1582 90.5379 22.0859 90.5709 22.0114C90.7344 21.7118 90.9147 21.5086 91.1566 21.2688C91.2322 21.1926 91.3077 21.1165 91.3855 21.038C91.5911 20.8654 91.5911 20.8654 91.8394 20.8654C91.8701 20.7931 91.9008 20.7208 91.9324 20.6463C92.1106 20.328 92.3081 20.1411 92.5841 19.9037C92.6712 19.8275 92.7582 19.7514 92.8479 19.6729C93.0806 19.5004 93.0806 19.5004 93.3289 19.5004C93.3289 19.4185 93.3289 19.3366 93.3289 19.2522C93.4996 19.0505 93.4996 19.0505 93.7013 18.8799C93.7832 18.8799 93.8651 18.8799 93.9495 18.8799C93.9495 18.798 93.9495 18.7161 93.9495 18.6317C94.0724 18.6317 94.1953 18.6317 94.3219 18.6317C94.3219 18.5088 94.3219 18.386 94.3219 18.2594C94.4039 18.2594 94.4858 18.2594 94.5702 18.2594C94.6111 18.1365 94.6521 18.0137 94.6943 17.8871C94.7762 17.8871 94.8582 17.8871 94.9426 17.8871C94.9426 17.8052 94.9426 17.7233 94.9426 17.6389C95.0245 17.6389 95.1064 17.6389 95.1908 17.6389C95.2318 17.516 95.2728 17.3932 95.315 17.2666C95.3969 17.2666 95.4788 17.2666 95.5632 17.2666C95.5939 17.1949 95.6247 17.1233 95.6563 17.0494C95.8342 16.7293 96.0329 16.5144 96.308 16.2738C96.3899 16.2738 96.4718 16.2738 96.5562 16.2738C96.5562 16.1919 96.5562 16.11 96.5562 16.0256C96.6382 16.0256 96.7201 16.0256 96.8045 16.0256C96.8455 15.9028 96.8864 15.7799 96.9286 15.6533C97.0106 15.6533 97.0925 15.6533 97.1769 15.6533C97.2102 15.574 97.2435 15.4946 97.2777 15.4129C97.4251 15.1569 97.4251 15.1569 97.7975 15.0328C97.8385 14.9509 97.8795 14.869 97.9217 14.7847C98.0458 14.5365 98.0458 14.5365 98.4182 14.4124C98.4591 14.3305 98.5001 14.2486 98.5423 14.1642C98.6664 13.916 98.6664 13.916 99.0388 13.7919C99.0798 13.669 99.1207 13.5462 99.1629 13.4196C99.2449 13.4196 99.3268 13.4196 99.4112 13.4196C99.4112 13.3377 99.4112 13.2558 99.4112 13.1714C99.5341 13.1714 99.657 13.1714 99.7836 13.1714C99.7836 13.0485 99.7836 12.9257 99.7836 12.7991C100.011 12.6173 100.011 12.6173 100.311 12.4346C100.726 12.1737 101.057 11.912 101.397 11.5581C101.479 11.5581 101.561 11.5581 101.646 11.5581C101.646 11.4353 101.646 11.3124 101.646 11.1858C101.768 11.1858 101.891 11.1858 102.018 11.1858C102.018 11.1039 102.018 11.022 102.018 10.9376C102.245 10.7277 102.245 10.7277 102.545 10.4955C102.643 10.4186 102.741 10.3416 102.842 10.2624C103.135 10.0689 103.135 10.0689 103.412 10.0035C103.521 9.97446 103.521 9.97446 103.632 9.94484C103.673 9.82198 103.714 9.69912 103.756 9.57254C103.838 9.57254 103.92 9.57254 104.004 9.57254C104.004 9.49064 104.004 9.40874 104.004 9.32435C104.168 9.32435 104.332 9.32435 104.5 9.32435C104.541 9.20149 104.582 9.07864 104.625 8.95206C104.707 8.95206 104.788 8.95206 104.873 8.95206C104.873 8.87015 104.873 8.78825 104.873 8.70386C105.234 8.45049 105.419 8.33157 105.866 8.33157C105.866 8.20871 105.866 8.08585 105.866 7.95927C105.961 7.926 106.055 7.89273 106.153 7.85844C106.487 7.73484 106.487 7.73484 106.688 7.50942C106.773 7.42495 106.773 7.42495 106.859 7.33878C106.982 7.33878 107.105 7.33878 107.231 7.33878C107.231 7.25688 107.231 7.17498 107.231 7.09059C107.416 7.02916 107.416 7.02916 107.604 6.96649C107.645 6.88459 107.686 6.80268 107.728 6.7183C108.054 6.5725 108.382 6.45891 108.721 6.346C108.721 6.2641 108.721 6.18219 108.721 6.09781C108.926 6.09781 109.13 6.09781 109.342 6.09781C109.342 6.0159 109.342 5.934 109.342 5.84961C109.817 5.41225 110.431 5.10502 111.079 5.10502C111.079 5.02312 111.079 4.94121 111.079 4.85683C111.225 4.79612 111.225 4.79612 111.375 4.73418C111.505 4.67995 111.635 4.62572 111.77 4.56985C111.974 4.48539 111.974 4.48539 112.182 4.39922C112.477 4.27505 112.767 4.1456 113.058 4.01141C113.426 3.86867 113.669 3.82861 114.058 3.86404C114.099 3.74119 114.14 3.61833 114.183 3.49175C114.428 3.49175 114.674 3.49175 114.927 3.49175C114.927 3.40985 114.927 3.32794 114.927 3.24356C115.561 3.00712 116.102 2.81841 116.789 2.87126C116.789 2.78936 116.789 2.70745 116.789 2.62307C116.858 2.60947 116.927 2.59587 116.999 2.58186C117.475 2.48301 117.923 2.37753 118.372 2.18872C118.956 1.95415 119.562 1.88897 120.183 1.80771C120.503 1.78913 120.503 1.78913 120.637 1.63028C120.945 1.59494 121.253 1.57468 121.563 1.55321C121.875 1.52507 121.875 1.52507 122.108 1.38209C122.419 1.23757 122.648 1.22101 122.989 1.21097C123.105 1.20673 123.22 1.20249 123.339 1.19812C123.459 1.19484 123.578 1.19156 123.702 1.18819C123.94 1.18078 124.178 1.17289 124.417 1.16443C124.522 1.16146 124.628 1.15849 124.736 1.15543C124.982 1.16037 124.982 1.16037 125.106 1.00979C126.579 0.765354 128.351 0.733894 129.823 1.00979C129.864 1.05075 129.905 1.0917 129.947 1.13389C130.151 1.15044 130.357 1.15914 130.562 1.16443C130.687 1.16851 130.813 1.17259 130.942 1.17679C131.208 1.18433 131.473 1.19145 131.739 1.19812C131.928 1.20448 131.928 1.20448 132.121 1.21097C132.237 1.21408 132.352 1.21719 132.471 1.22039C132.826 1.26075 133.096 1.36474 133.422 1.50619C133.724 1.5611 133.724 1.5611 134.02 1.58375C134.118 1.59303 134.216 1.6023 134.317 1.61186C134.391 1.61794 134.464 1.62402 134.54 1.63028C134.54 1.71219 134.54 1.79409 134.54 1.87848C134.668 1.87416 134.668 1.87416 134.798 1.86975C134.91 1.86751 135.022 1.86527 135.137 1.86297C135.248 1.86009 135.359 1.85721 135.473 1.85424C135.781 1.87848 135.781 1.87848 136.153 2.12668C136.421 2.19554 136.69 2.25683 136.96 2.31282C137.437 2.4116 137.732 2.4754 138.139 2.74716C138.537 2.87823 138.938 2.99194 139.34 3.10734C139.752 3.24334 140.114 3.4156 140.498 3.61585C140.841 3.77192 141.185 3.92481 141.53 4.07734C141.863 4.23634 141.863 4.23634 142.19 4.43267C142.525 4.63296 142.856 4.74434 143.229 4.85683C143.229 4.93873 143.229 5.02064 143.229 5.10502C143.352 5.10502 143.474 5.10502 143.601 5.10502C143.642 5.18693 143.683 5.26883 143.725 5.35322C144.012 5.48396 144.302 5.60851 144.594 5.72551C144.594 5.84837 144.594 5.97123 144.594 6.09781C144.684 6.08757 144.773 6.07733 144.866 6.06678C145.325 6.10762 145.492 6.29395 145.835 6.5942C146.042 6.719 146.249 6.84322 146.456 6.96649C146.538 7.0484 146.62 7.1303 146.704 7.21469C146.961 7.29442 146.961 7.29442 147.201 7.33878C147.201 7.46164 147.201 7.5845 147.201 7.71108C147.283 7.71108 147.365 7.71108 147.449 7.71108C147.449 7.79298 147.449 7.87489 147.449 7.95927C147.654 8.00023 147.859 8.04118 148.07 8.08337C148.07 8.16528 148.07 8.24718 148.07 8.33157C148.193 8.33157 148.315 8.33157 148.442 8.33157C148.442 8.41347 148.442 8.49538 148.442 8.57976C148.561 8.62583 148.561 8.62583 148.683 8.67284C148.939 8.82796 148.939 8.82796 149.032 9.09167C149.042 9.16845 149.052 9.24524 149.063 9.32435C149.268 9.32435 149.472 9.32435 149.683 9.32435C149.714 9.40113 149.745 9.47792 149.776 9.55703C149.957 9.86426 150.103 9.93879 150.428 10.0689C150.428 10.1508 150.428 10.2327 150.428 10.3171C150.51 10.3171 150.592 10.3171 150.676 10.3171C150.676 10.399 150.676 10.4809 150.676 10.5653C150.799 10.6063 150.922 10.6472 151.049 10.6894C151.049 10.7713 151.049 10.8532 151.049 10.9376C151.131 10.9376 151.213 10.9376 151.297 10.9376C151.297 11.0195 151.297 11.1014 151.297 11.1858C151.42 11.2268 151.543 11.2677 151.669 11.3099C152.003 11.5969 152.003 11.5969 152.29 11.9304C152.29 12.0942 152.29 12.258 152.29 12.4268C152.409 12.4729 152.409 12.4729 152.531 12.5199C152.787 12.675 152.787 12.675 152.88 12.9387C152.89 13.0155 152.9 13.0923 152.911 13.1714C153.034 13.1714 153.156 13.1714 153.283 13.1714C153.655 13.6954 153.655 13.6954 153.655 14.0401C153.737 14.0401 153.819 14.0401 153.904 14.0401C153.904 14.1629 153.904 14.2858 153.904 14.4124C154.027 14.4533 154.15 14.4943 154.276 14.5365C154.524 14.9088 154.524 14.9088 154.524 15.4051C154.647 15.4051 154.77 15.4051 154.897 15.4051C155.03 15.7343 155.157 16.0608 155.269 16.3979C155.351 16.3979 155.433 16.3979 155.517 16.3979C155.619 16.5941 155.72 16.7907 155.82 16.9874C155.876 17.0968 155.932 17.2062 155.99 17.319C156.138 17.6389 156.138 17.6389 156.204 17.9201C156.224 17.9911 156.243 18.0621 156.262 18.1353C156.344 18.1762 156.426 18.2172 156.51 18.2594C156.63 18.5081 156.63 18.5081 156.751 18.8256C156.794 18.9384 156.837 19.0511 156.881 19.1673C156.923 19.2772 156.964 19.3871 157.007 19.5004C157.042 19.586 157.077 19.6715 157.113 19.7597C157.341 20.3255 157.47 20.8846 157.574 21.4855C157.604 21.7328 157.604 21.7328 157.752 21.8582C157.761 22.1502 157.762 22.4425 157.759 22.7347C157.758 22.8948 157.757 23.0549 157.756 23.2199C157.755 23.3439 157.753 23.4679 157.752 23.5956C157.834 23.5956 157.916 23.5956 158 23.5956C158 27.6908 158 31.7861 158 36.0054C157.918 36.0054 157.836 36.0054 157.752 36.0054C157.756 36.1662 157.76 36.3269 157.765 36.4926C157.793 38.0188 157.7 39.4742 157.379 40.9693C157.338 41.0102 157.297 41.0512 157.255 41.0934C157.22 41.4621 157.2 41.8308 157.178 42.2006C157.132 42.5785 157.028 42.8539 156.883 43.2031C156.832 43.5008 156.832 43.5008 156.813 43.7925C156.771 44.3074 156.771 44.3074 156.635 44.444C156.586 44.6524 156.543 44.8621 156.503 45.0723C156.481 45.1863 156.459 45.3004 156.436 45.4179C156.42 45.5061 156.403 45.5942 156.386 45.685C156.304 45.685 156.222 45.685 156.138 45.685C156.14 45.7732 156.141 45.8613 156.142 45.9521C156.144 46.1232 156.144 46.1232 156.146 46.2977C156.147 46.4115 156.149 46.5252 156.15 46.6424C156.138 46.926 156.138 46.926 156.014 47.0501C155.965 47.2584 155.922 47.4681 155.882 47.6783C155.86 47.7924 155.838 47.9065 155.816 48.024C155.799 48.1121 155.783 48.2003 155.766 48.2911C155.684 48.2911 155.602 48.2911 155.517 48.2911C155.52 48.3645 155.523 48.4379 155.526 48.5136C155.539 49.0848 155.523 49.506 155.269 50.0284C155.047 50.6388 154.905 51.2555 154.773 51.8899C154.691 51.8899 154.609 51.8899 154.524 51.8899C154.532 52.0332 154.54 52.1766 154.548 52.3242C154.548 52.9062 154.379 53.3469 154.152 53.8755C153.967 54.3474 153.795 54.815 153.655 55.3026C153.54 55.7069 153.4 56.0897 153.25 56.4815C153.116 56.8487 153.013 57.2212 152.911 57.5984C152.829 57.5984 152.747 57.5984 152.662 57.5984C152.67 57.7443 152.67 57.7443 152.678 57.8931C152.662 58.2189 152.662 58.2189 152.414 58.4671C152.327 58.7554 152.245 59.0451 152.166 59.3358C152.086 59.5437 152.003 59.7505 151.918 59.9563C151.858 60.1217 151.799 60.2872 151.739 60.4527C151.628 60.7521 151.519 60.9923 151.351 61.267C151.13 61.6422 151.032 62.0179 150.925 62.4382C150.843 62.4382 150.761 62.4382 150.676 62.4382C150.676 62.643 150.676 62.8477 150.676 63.0587C150.594 63.0587 150.513 63.0587 150.428 63.0587C150.431 63.1764 150.433 63.2942 150.436 63.4155C150.428 63.8033 150.428 63.8033 150.304 64.0515C150.222 64.0515 150.14 64.0515 150.056 64.0515C150.044 64.122 150.031 64.1926 150.019 64.2653C149.887 64.9486 149.685 65.4505 149.311 66.0371C149.229 66.0371 149.147 66.0371 149.063 66.0371C149.063 66.3237 149.063 66.6104 149.063 66.9057C148.981 66.9057 148.899 66.9057 148.814 66.9057C148.773 67.1105 148.733 67.3153 148.69 67.5262C148.608 67.5262 148.526 67.5262 148.442 67.5262C148.442 67.7719 148.442 68.0177 148.442 68.2708C148.36 68.2708 148.278 68.2708 148.194 68.2708C148.153 68.4756 148.112 68.6803 148.07 68.8913C147.988 68.8913 147.906 68.8913 147.821 68.8913C147.829 68.9809 147.837 69.0705 147.845 69.1628C147.817 69.5815 147.697 69.798 147.449 70.1323C147.367 70.1323 147.285 70.1323 147.201 70.1323C147.208 70.2423 147.216 70.3524 147.224 70.4658C147.198 70.9221 147.104 71.1374 146.828 71.4974C146.746 71.4974 146.665 71.4974 146.58 71.4974C146.539 71.784 146.498 72.0707 146.456 72.366C146.374 72.366 146.292 72.366 146.208 72.366C146.195 72.43 146.182 72.494 146.169 72.56C146.024 73.0723 145.84 73.5609 145.517 73.9871C145.289 74.2944 145.206 74.6093 145.091 74.9721C145.009 75.095 144.927 75.2178 144.842 75.3444C144.76 75.3444 144.678 75.3444 144.594 75.3444C144.602 75.434 144.609 75.5236 144.617 75.6159C144.589 76.0346 144.47 76.251 144.222 76.5854C144.14 76.5854 144.058 76.5854 143.973 76.5854C143.973 76.7901 143.973 76.9949 143.973 77.2059C143.892 77.2468 143.81 77.2878 143.725 77.33C143.585 77.5918 143.585 77.5918 143.461 77.8962C143.418 77.9987 143.374 78.1012 143.329 78.2069C143.296 78.2861 143.263 78.3653 143.229 78.4468C143.147 78.4468 143.065 78.4468 142.98 78.4468C142.98 78.5697 142.98 78.6926 142.98 78.8191C142.898 78.8191 142.817 78.8191 142.732 78.8191C142.691 79.0239 142.65 79.2287 142.608 79.4396C142.526 79.4396 142.444 79.4396 142.36 79.4396C142.344 79.5113 142.329 79.583 142.313 79.6568C142.235 79.9389 142.125 80.1749 141.987 80.4324C141.905 80.4324 141.824 80.4324 141.739 80.4324C141.739 80.5553 141.739 80.6781 141.739 80.8047C141.657 80.8457 141.575 80.8866 141.491 80.9288C141.404 81.1359 141.317 81.3431 141.233 81.5512C141.015 82.0201 140.719 82.5554 140.25 82.7903C140.234 82.8645 140.219 82.9387 140.203 83.0152C140.1 83.3748 139.895 83.5253 139.629 83.783C139.476 84.0478 139.476 84.0478 139.381 84.2794C139.299 84.2794 139.217 84.2794 139.132 84.2794C139.132 84.4023 139.132 84.5252 139.132 84.6517C139.05 84.6517 138.969 84.6517 138.884 84.6517C138.843 84.8565 138.802 85.0613 138.76 85.2722C138.678 85.2722 138.596 85.2722 138.512 85.2722C138.512 85.3541 138.512 85.436 138.512 85.5204C138.43 85.5204 138.348 85.5204 138.264 85.5204C138.223 85.7252 138.182 85.9299 138.139 86.1409C138.057 86.1409 137.976 86.1409 137.891 86.1409C137.891 86.2638 137.891 86.3866 137.891 86.5132C137.768 86.5132 137.645 86.5132 137.519 86.5132C137.496 86.6553 137.496 86.6553 137.472 86.8002C137.395 87.1337 137.395 87.1337 137.146 87.506C137.064 87.506 136.982 87.506 136.898 87.506C136.886 87.5732 136.875 87.6404 136.863 87.7096C136.748 88.089 136.56 88.3818 136.347 88.7159C136.232 88.8993 136.232 88.8993 136.115 89.0863C136.011 89.2255 136.011 89.2255 135.905 89.3675C135.823 89.3675 135.741 89.3675 135.657 89.3675C135.616 89.5313 135.575 89.6951 135.533 89.8638C135.451 89.8638 135.369 89.8638 135.284 89.8638C135.274 89.9304 135.264 89.9969 135.253 90.0655C135.126 90.4686 134.916 90.7682 134.664 91.1048C134.582 91.1048 134.5 91.1048 134.416 91.1048C134.358 91.2507 134.358 91.2507 134.299 91.3996C134.167 91.7253 134.167 91.7253 134.043 91.9735C133.92 91.9735 133.797 91.9735 133.671 91.9735C133.658 92.0477 133.645 92.122 133.632 92.1984C133.534 92.509 133.406 92.6204 133.174 92.8422C133.133 92.965 133.092 93.0879 133.05 93.2145C132.872 93.4239 132.872 93.4239 132.678 93.5868C132.596 93.5868 132.514 93.5868 132.429 93.5868C132.429 93.7096 132.429 93.8325 132.429 93.9591C132.307 93.9591 132.184 93.9591 132.057 93.9591C132.024 94.0487 131.991 94.1382 131.956 94.2305C131.809 94.5793 131.651 94.8878 131.436 95.2C131.354 95.2 131.273 95.2 131.188 95.2C131.138 95.3191 131.138 95.3191 131.087 95.4405C130.94 95.6964 130.94 95.6964 130.568 95.8205C130.527 96.0253 130.486 96.2301 130.443 96.441C130.361 96.441 130.28 96.441 130.195 96.441C130.154 96.5639 130.113 96.6867 130.071 96.8133C129.989 96.8133 129.907 96.8133 129.823 96.8133C129.823 96.9362 129.823 97.059 129.823 97.1856C129.741 97.1856 129.659 97.1856 129.574 97.1856C129.534 97.3494 129.493 97.5132 129.45 97.682C129.368 97.682 129.287 97.682 129.202 97.682C129.152 97.8317 129.152 97.8317 129.101 97.9845C129.028 98.1419 129.028 98.1419 128.954 98.3025C128.831 98.3434 128.708 98.3844 128.581 98.4266C128.566 98.4957 128.551 98.5648 128.535 98.636C128.414 99.0822 128.151 99.3307 127.837 99.6676C127.755 99.6676 127.673 99.6676 127.588 99.6676C127.588 99.7904 127.588 99.9133 127.588 100.04C127.507 100.04 127.425 100.04 127.34 100.04C127.311 100.107 127.281 100.174 127.251 100.243C127.049 100.615 126.8 100.922 126.533 101.25C126.385 101.433 126.385 101.433 126.235 101.62C126.106 101.759 126.106 101.759 125.975 101.901C125.893 101.901 125.811 101.901 125.727 101.901C125.686 102.024 125.645 102.147 125.602 102.274C125.52 102.274 125.439 102.274 125.354 102.274C125.321 102.353 125.288 102.432 125.253 102.514C125.106 102.77 125.106 102.77 124.733 102.894C124.733 103.017 124.733 103.14 124.733 103.266C124.611 103.266 124.488 103.266 124.361 103.266C124.328 103.361 124.295 103.456 124.26 103.553C124.119 103.873 124.012 104.044 123.74 104.259C123.659 104.259 123.577 104.259 123.492 104.259C123.492 104.341 123.492 104.423 123.492 104.507C123.315 104.677 123.315 104.677 123.081 104.864C122.812 105.085 122.614 105.265 122.406 105.547C122.329 105.647 122.329 105.647 122.251 105.748C122.128 105.748 122.005 105.748 121.879 105.748C121.879 105.871 121.879 105.994 121.879 106.121C121.693 106.311 121.693 106.311 121.452 106.501C121.114 106.762 121.114 106.762 120.885 107.113C120.763 107.113 120.64 107.113 120.513 107.113C120.513 107.195 120.513 107.277 120.513 107.362C120.431 107.362 120.349 107.362 120.265 107.362C120.224 107.484 120.183 107.607 120.141 107.734C120.059 107.734 119.977 107.734 119.892 107.734C119.892 107.816 119.892 107.898 119.892 107.982C119.697 108.179 119.697 108.179 119.435 108.401C119.344 108.478 119.254 108.554 119.161 108.633C119.075 108.705 118.988 108.777 118.899 108.851C118.782 108.951 118.664 109.05 118.543 109.153C118.279 109.347 118.279 109.347 118.031 109.347C118.031 109.429 118.031 109.511 118.031 109.595C117.908 109.595 117.785 109.595 117.658 109.595C117.617 109.718 117.576 109.841 117.534 109.968C117.452 109.968 117.37 109.968 117.286 109.968C117.245 110.091 117.204 110.213 117.162 110.34C116.998 110.34 116.834 110.34 116.665 110.34C116.624 110.504 116.583 110.668 116.541 110.836C116.377 110.877 116.213 110.918 116.044 110.96C116.044 111.042 116.044 111.124 116.044 111.209C115.852 111.379 115.651 111.541 115.447 111.697C115.002 112.038 115.002 112.038 114.592 112.419C114.431 112.574 114.431 112.574 114.183 112.574C114.183 112.656 114.183 112.738 114.183 112.822C114.06 112.822 113.937 112.822 113.81 112.822C113.769 112.945 113.728 113.068 113.686 113.194C113.604 113.194 113.522 113.194 113.438 113.194C113.438 113.276 113.438 113.358 113.438 113.442C113.233 113.57 113.026 113.693 112.817 113.815C112.748 113.884 112.679 113.953 112.608 114.024C112.554 114.078 112.5 114.132 112.445 114.187C112.363 114.187 112.281 114.187 112.196 114.187C112.196 114.269 112.196 114.351 112.196 114.435C112.026 114.637 112.026 114.637 111.824 114.808C111.742 114.808 111.66 114.808 111.576 114.808C111.576 114.889 111.576 114.971 111.576 115.056C111.371 115.183 111.164 115.307 110.955 115.428C110.886 115.497 110.817 115.566 110.746 115.637C110.692 115.691 110.638 115.745 110.583 115.8C110.501 115.8 110.419 115.8 110.335 115.8C110.335 115.882 110.335 115.964 110.335 116.048C109.905 116.421 109.905 116.421 109.59 116.421C109.59 116.503 109.59 116.585 109.59 116.669C109.413 116.829 109.413 116.829 109.179 116.995C109.064 117.078 109.064 117.078 108.947 117.162C108.721 117.289 108.721 117.289 108.348 117.289C108.348 117.412 108.348 117.535 108.348 117.662C108.226 117.662 108.103 117.662 107.976 117.662C107.976 117.744 107.976 117.826 107.976 117.91C107.821 118.112 107.821 118.112 107.604 118.282C107.44 118.282 107.276 118.282 107.107 118.282C107.066 118.405 107.025 118.528 106.983 118.655C106.901 118.655 106.819 118.655 106.735 118.655C106.735 118.736 106.735 118.818 106.735 118.903C106.571 118.903 106.407 118.903 106.238 118.903C106.197 119.026 106.156 119.148 106.114 119.275C105.436 119.896 105.436 119.896 105.121 119.896C105.121 119.977 105.121 120.059 105.121 120.144C104.916 120.185 104.712 120.226 104.5 120.268C104.5 120.35 104.5 120.432 104.5 120.516C104.292 120.703 104.292 120.703 104.019 120.904C103.93 120.971 103.841 121.038 103.749 121.106C103.507 121.261 103.507 121.261 103.259 121.261C103.259 121.342 103.259 121.424 103.259 121.509C103.136 121.509 103.013 121.509 102.887 121.509C102.846 121.632 102.805 121.755 102.763 121.881C102.681 121.881 102.599 121.881 102.514 121.881C102.514 121.963 102.514 122.045 102.514 122.129C102.403 122.145 102.403 122.145 102.289 122.16C101.943 122.279 101.859 122.462 101.646 122.75C101.523 122.75 101.4 122.75 101.273 122.75C101.232 122.873 101.191 122.995 101.149 123.122C100.956 123.294 100.956 123.294 100.722 123.456C100.607 123.537 100.607 123.537 100.49 123.62C100.28 123.743 100.28 123.743 100.032 123.743C99.9909 123.865 99.9499 123.988 99.9077 124.115C99.5847 124.319 99.4283 124.363 99.0388 124.363C99.0388 124.486 99.0388 124.609 99.0388 124.735C98.9159 124.735 98.793 124.735 98.6664 124.735C98.6664 124.817 98.6664 124.899 98.6664 124.984C98.3852 125.193 98.3852 125.193 98.0148 125.426C97.8938 125.503 97.7728 125.58 97.6482 125.659C97.301 125.852 97.301 125.852 97.0159 125.918C96.9113 125.947 96.9113 125.947 96.8045 125.976C96.7635 126.099 96.7226 126.222 96.6804 126.349C96.3573 126.553 96.2009 126.597 95.8115 126.597C95.7705 126.72 95.7295 126.843 95.6873 126.969C95.5235 126.969 95.3596 126.969 95.1908 126.969C95.1499 127.092 95.1089 127.215 95.0667 127.341C94.6943 127.59 94.6943 127.59 94.1978 127.59C94.1978 127.671 94.1978 127.753 94.1978 127.838C93.7735 128.153 93.4831 128.255 92.9565 128.21C92.9565 128.333 92.9565 128.456 92.9565 128.582C92.1342 128.955 92.1342 128.955 91.7152 128.955C91.7152 129.037 91.7152 129.118 91.7152 129.203C91.6307 129.236 91.5463 129.269 91.4592 129.304C91.1916 129.412 90.9254 129.524 90.6601 129.637C90.0677 129.891 89.47 130.123 88.8651 130.345C88.6312 130.436 88.4038 130.544 88.1776 130.653C87.6571 130.848 87.3009 130.845 86.7501 130.816C86.7501 130.898 86.7501 130.98 86.7501 131.064C86.6313 131.089 86.6313 131.089 86.5101 131.114C86.4075 131.136 86.3049 131.158 86.1992 131.181C86.0459 131.213 86.0459 131.213 85.8894 131.246C85.6358 131.289 85.6358 131.289 85.5088 131.437C85.0713 131.472 84.6337 131.492 84.1952 131.514C83.79 131.532 83.79 131.532 83.54 131.686C83.2026 131.842 82.9459 131.84 82.5745 131.841C82.3639 131.842 82.3639 131.842 82.149 131.843C81.998 131.843 81.8469 131.842 81.6913 131.842C81.5359 131.842 81.3804 131.842 81.2202 131.843C80.8917 131.843 80.5631 131.842 80.2346 131.841C79.8135 131.84 79.3925 131.841 78.9715 131.842C78.5696 131.843 78.1677 131.842 77.7658 131.842C77.6145 131.842 77.4632 131.843 77.3073 131.843C77.1673 131.843 77.0273 131.842 76.883 131.841C76.7596 131.841 76.6363 131.841 76.5092 131.84C76.1991 131.809 76.1991 131.809 75.8267 131.561C75.5201 131.518 75.5201 131.518 75.1828 131.506C74.544 131.461 74.054 131.318 73.4683 131.064C73.4683 130.982 73.4683 130.901 73.4683 130.816C73.2456 130.831 73.2456 130.831 73.0183 130.847C72.4575 130.849 72.1847 130.648 71.7305 130.32C71.4427 130.214 71.1607 130.143 70.8616 130.072C70.8616 129.99 70.8616 129.908 70.8616 129.823C70.795 129.808 70.7285 129.793 70.6599 129.777C70.3075 129.684 69.9651 129.569 69.6203 129.451C69.6203 129.369 69.6203 129.287 69.6203 129.203C69.5505 129.189 69.4808 129.175 69.4089 129.161C69.0847 129.068 68.8265 128.928 68.5342 128.761C68.435 128.704 68.3358 128.648 68.2335 128.59C68.1587 128.546 68.0838 128.503 68.0066 128.458C68.0066 128.376 68.0066 128.294 68.0066 128.21C67.8645 128.187 67.8645 128.187 67.7196 128.164C67.386 128.086 67.386 128.086 67.0136 127.838C67.0136 127.756 67.0136 127.674 67.0136 127.59C66.9419 127.574 66.8702 127.559 66.7964 127.543C66.5142 127.465 66.2781 127.355 66.0206 127.217C66.0206 127.135 66.0206 127.053 66.0206 126.969C65.9233 126.931 65.826 126.892 65.7258 126.853C65.3999 126.721 65.3999 126.721 65.1517 126.597C65.1517 126.515 65.1517 126.433 65.1517 126.349C64.9878 126.308 64.824 126.267 64.6551 126.225C64.6551 126.143 64.6551 126.061 64.6551 125.976C64.5579 125.938 64.4606 125.9 64.3603 125.86C64.0345 125.728 64.0345 125.728 63.7862 125.604C63.7862 125.522 63.7862 125.44 63.7862 125.356C63.689 125.317 63.5917 125.279 63.4914 125.239C63.1656 125.108 63.1656 125.108 62.9173 124.984C62.9173 124.902 62.9173 124.82 62.9173 124.735C62.7945 124.735 62.6716 124.735 62.545 124.735C62.545 124.612 62.545 124.49 62.545 124.363C62.4784 124.353 62.4118 124.343 62.3432 124.332C61.94 124.205 61.6404 123.995 61.3037 123.743C61.3037 123.661 61.3037 123.579 61.3037 123.494C61.1808 123.494 61.0579 123.494 60.9313 123.494C60.8903 123.412 60.8494 123.331 60.8072 123.246C60.5568 123.105 60.5568 123.105 60.3106 122.998C60.3106 122.916 60.3106 122.834 60.3106 122.75C60.1878 122.75 60.0649 122.75 59.9383 122.75C59.9383 122.668 59.9383 122.586 59.9383 122.502C59.8563 122.502 59.7744 122.502 59.69 122.502C59.649 122.42 59.6081 122.338 59.5659 122.253C59.4507 122.23 59.4507 122.23 59.3331 122.207C58.9845 122.104 58.9048 121.922 58.697 121.633C58.5741 121.592 58.4512 121.551 58.3246 121.509C58.1565 121.346 57.991 121.18 57.8281 121.012C57.7052 120.93 57.5823 120.849 57.4557 120.764C57.4557 120.682 57.4557 120.6 57.4557 120.516C57.3328 120.516 57.2099 120.516 57.0833 120.516C57.0833 120.434 57.0833 120.352 57.0833 120.268C56.9604 120.268 56.8375 120.268 56.7109 120.268C56.4989 120.066 56.2919 119.859 56.0903 119.647C56.0083 119.606 55.9264 119.565 55.842 119.523C55.842 119.441 55.842 119.359 55.842 119.275C55.7191 119.234 55.5962 119.193 55.4696 119.151C55.4696 119.069 55.4696 118.987 55.4696 118.903C55.3467 118.903 55.2238 118.903 55.0972 118.903C55.0972 118.821 55.0972 118.739 55.0972 118.655C55.0307 118.624 54.9641 118.593 54.8955 118.561C54.5284 118.368 54.1914 118.154 53.8559 117.91C53.8559 117.828 53.8559 117.746 53.8559 117.662C53.7331 117.662 53.6102 117.662 53.4836 117.662C53.4528 117.562 53.4221 117.462 53.3905 117.359C53.3393 117.254 53.2881 117.149 53.2353 117.041C52.9895 116.959 52.9895 116.959 52.7388 116.917C52.6569 116.794 52.5749 116.671 52.4905 116.545C52.2361 116.397 52.2361 116.397 51.994 116.297C51.994 116.215 51.994 116.133 51.994 116.048C51.8711 116.048 51.7482 116.048 51.6216 116.048C51.6216 115.967 51.6216 115.885 51.6216 115.8C51.4987 115.759 51.3759 115.718 51.2492 115.676C51.2492 115.594 51.2492 115.512 51.2492 115.428C51.1827 115.397 51.1161 115.367 51.0475 115.335C50.6804 115.142 50.3434 114.927 50.008 114.683C50.008 114.602 50.008 114.52 50.008 114.435C49.8851 114.435 49.7622 114.435 49.6356 114.435C49.6356 114.353 49.6356 114.271 49.6356 114.187C49.4717 114.146 49.3079 114.105 49.139 114.063C49.139 113.981 49.139 113.899 49.139 113.815C49.0162 113.815 48.8933 113.815 48.7667 113.815C48.7667 113.692 48.7667 113.569 48.7667 113.442C48.6438 113.442 48.5209 113.442 48.3943 113.442C48.3943 113.361 48.3943 113.279 48.3943 113.194C48.2714 113.153 48.1485 113.112 48.0219 113.07C48.0219 112.988 48.0219 112.906 48.0219 112.822C47.94 112.822 47.858 112.822 47.7736 112.822C47.7736 112.74 47.7736 112.658 47.7736 112.574C47.6507 112.533 47.5279 112.492 47.4012 112.45C47.4012 112.368 47.4012 112.286 47.4012 112.201C47.3142 112.178 47.2272 112.155 47.1375 112.132C46.7114 111.919 46.511 111.663 46.2254 111.29C46.0136 111.06 45.8199 110.969 45.5393 110.836C45.198 110.526 45.198 110.526 44.9187 110.216C44.9187 110.134 44.9187 110.052 44.9187 109.968C44.7958 109.927 44.6729 109.886 44.5463 109.844C44.5463 109.762 44.5463 109.68 44.5463 109.595C44.4234 109.595 44.3005 109.595 44.1739 109.595C44.092 109.391 44.01 109.186 43.9256 108.975C43.8028 108.975 43.6799 108.975 43.5533 108.975C43.4713 108.77 43.3894 108.565 43.305 108.354C43.1821 108.354 43.0592 108.354 42.9326 108.354C42.9326 108.232 42.9326 108.109 42.9326 107.982C42.7278 107.9 42.523 107.818 42.312 107.734C42.312 107.611 42.312 107.488 42.312 107.362C42.1891 107.362 42.0662 107.362 41.9396 107.362C41.9396 107.28 41.9396 107.198 41.9396 107.113C41.8577 107.113 41.7757 107.113 41.6913 107.113C41.6913 107.032 41.6913 106.95 41.6913 106.865C41.6222 106.837 41.5531 106.809 41.4819 106.78C41.1127 106.57 40.8572 106.311 40.5742 105.997C40.5742 105.915 40.5742 105.833 40.5742 105.748C40.4103 105.666 40.2465 105.585 40.0776 105.5C40.0776 105.377 40.0776 105.254 40.0776 105.128C39.9586 105.109 39.9586 105.109 39.8371 105.089C39.7527 105.061 39.6682 105.033 39.5811 105.004C39.5402 104.881 39.4992 104.758 39.457 104.631C39.1461 104.48 39.1461 104.48 38.8364 104.383C38.8364 104.301 38.8364 104.219 38.8364 104.135C38.7544 104.135 38.6725 104.135 38.5881 104.135C38.5881 104.053 38.5881 103.971 38.5881 103.887C38.4652 103.846 38.3423 103.805 38.2157 103.763C38.2157 103.681 38.2157 103.599 38.2157 103.515C38.1434 103.481 38.0711 103.448 37.9966 103.414C37.7157 103.265 37.4951 103.1 37.2537 102.894C37.1776 102.83 37.1014 102.766 37.0229 102.7C36.8503 102.522 36.8503 102.522 36.8503 102.274C36.7274 102.233 36.6045 102.192 36.4779 102.15C36.4779 102.068 36.4779 101.986 36.4779 101.901C36.3883 101.873 36.2987 101.845 36.2064 101.816C35.7842 101.619 35.5581 101.369 35.2366 101.033C35.0931 100.907 34.9482 100.783 34.8022 100.66C33.7921 99.8027 33.7921 99.8027 33.623 99.2953C33.541 99.2953 33.4591 99.2953 33.3747 99.2953C33.3747 99.2134 33.3747 99.1315 33.3747 99.0471C33.2518 99.0061 33.1289 98.9652 33.0023 98.923C32.789 98.7024 32.789 98.7024 32.5679 98.4343C32.3036 98.1151 32.1106 97.915 31.761 97.682C31.7201 97.5591 31.6791 97.4363 31.6369 97.3097C31.5575 97.2713 31.4782 97.2329 31.3964 97.1934C31.0772 97.029 31.0456 96.8816 30.8921 96.5651C30.8051 96.5011 30.718 96.4371 30.6283 96.3712C30.5131 96.2829 30.5131 96.2829 30.3956 96.1928C30.3956 96.07 30.3956 95.9471 30.3956 95.8205C30.1908 95.7386 29.986 95.6567 29.775 95.5723C29.775 95.4495 29.775 95.3266 29.775 95.2C29.693 95.2 29.6111 95.2 29.5267 95.2C29.325 95.0294 29.325 95.0294 29.1543 94.8278C29.1543 94.7459 29.1543 94.6639 29.1543 94.5796C29.0724 94.5796 28.9905 94.5796 28.9061 94.5796C28.5337 94.15 28.5337 94.15 28.5337 93.835C28.4517 93.835 28.3698 93.835 28.2854 93.835C28.0982 93.658 28.0982 93.658 27.8975 93.4239C27.7972 93.3094 27.7972 93.3094 27.6948 93.1927C27.5406 92.9663 27.5406 92.9663 27.5406 92.594C27.4178 92.594 27.2949 92.594 27.1683 92.594C27.1683 92.5121 27.1683 92.4302 27.1683 92.3458C27.0863 92.3458 27.0044 92.3458 26.92 92.3458C26.92 92.2229 26.92 92.1001 26.92 91.9735C26.7971 91.9735 26.6742 91.9735 26.5476 91.9735C26.5476 91.8506 26.5476 91.7278 26.5476 91.6012C26.4657 91.6012 26.3838 91.6012 26.2994 91.6012C26.2994 91.5193 26.2994 91.4374 26.2994 91.353C26.1765 91.3121 26.0536 91.2711 25.927 91.2289C25.3063 90.5651 25.3063 90.5651 25.3063 90.112C25.1834 90.0711 25.0605 90.0301 24.9339 89.9879C24.9339 89.906 24.9339 89.8241 24.9339 89.7397C24.852 89.7397 24.7701 89.7397 24.6857 89.7397C24.6857 89.6169 24.6857 89.494 24.6857 89.3675C24.591 89.3393 24.4962 89.3111 24.3986 89.2821C23.9909 89.0831 23.9038 88.8921 23.6926 88.4988C23.5966 88.4066 23.5966 88.4066 23.4987 88.3126C23.3203 88.1265 23.3203 88.1265 23.1961 87.8007C23.1552 87.7035 23.1142 87.6062 23.072 87.506C22.9491 87.465 22.8262 87.4241 22.6996 87.3819C22.6996 87.3 22.6996 87.2181 22.6996 87.1337C22.6177 87.1337 22.5358 87.1337 22.4514 87.1337C22.4514 87.0108 22.4514 86.888 22.4514 86.7614C22.3694 86.7614 22.2875 86.7614 22.2031 86.7614C22.1621 86.5976 22.1212 86.4338 22.079 86.265C21.997 86.265 21.9151 86.265 21.8307 86.265C21.629 86.1021 21.629 86.1021 21.4583 85.8927C21.4583 85.7699 21.4583 85.647 21.4583 85.5204C21.361 85.4897 21.2638 85.459 21.1635 85.4273C20.7813 85.2454 20.7545 85.1499 20.5894 84.7758C20.5024 84.6888 20.4153 84.6018 20.3257 84.5121C20.2488 84.4353 20.172 84.3586 20.0929 84.2794C20.0929 84.1975 20.0929 84.1156 20.0929 84.0312C19.9291 83.9903 19.7652 83.9493 19.5964 83.9071C19.5887 83.8099 19.581 83.7126 19.5731 83.6124C19.5398 83.5049 19.5066 83.3974 19.4723 83.2867C19.1649 83.1161 19.1649 83.1161 18.8516 83.0385C18.8516 82.9156 18.8516 82.7927 18.8516 82.6662C18.7697 82.6662 18.6878 82.6662 18.6034 82.6662C18.2225 82.3682 18.071 81.974 17.8586 81.5493C17.7767 81.5083 17.6947 81.4674 17.6103 81.4252C17.595 81.351 17.5796 81.2767 17.5638 81.2003C17.5034 80.9058 17.5034 80.9058 17.238 80.6806C16.9735 80.4162 16.9387 80.2896 16.8656 79.936C16.7836 79.8951 16.7017 79.8541 16.6173 79.8119C16.6173 79.6891 16.6173 79.5662 16.6173 79.4396C16.5354 79.4396 16.4535 79.4396 16.369 79.4396C16.1819 79.1812 16.1819 79.1812 15.9811 78.8424C15.9143 78.7315 15.8474 78.6207 15.7785 78.5065C15.6243 78.1986 15.6243 78.1986 15.6243 77.8264C15.5424 77.8264 15.4604 77.8264 15.376 77.8264C15.376 77.7035 15.376 77.5806 15.376 77.4541C15.2941 77.4541 15.2122 77.4541 15.1278 77.4541C15.074 77.3184 15.0202 77.1827 14.9648 77.043C14.8126 76.6866 14.6628 76.4816 14.383 76.2131C14.1321 75.7977 13.9061 75.3844 13.6925 74.9488C13.5292 74.601 13.5292 74.601 13.3046 74.3361C13.1417 74.1034 13.1417 74.1034 13.1417 73.607C13.0598 73.607 12.9779 73.607 12.8934 73.607C12.3969 72.95 12.3969 72.95 12.3969 72.4901C12.315 72.4901 12.2331 72.4901 12.1487 72.4901C12.1487 72.3673 12.1487 72.2444 12.1487 72.1179C12.0258 72.0769 11.9029 72.0359 11.7763 71.9938C11.7763 71.8299 11.7763 71.6661 11.7763 71.4974C11.6944 71.4974 11.6124 71.4974 11.528 71.4974C11.528 71.3745 11.528 71.2516 11.528 71.1251C11.4461 71.1251 11.3642 71.1251 11.2798 71.1251C11.2183 70.7565 11.2183 70.7565 11.1556 70.3805C11.0737 70.3805 10.9918 70.3805 10.9074 70.3805C10.9074 70.2576 10.9074 70.1348 10.9074 70.0082C10.7845 69.9672 10.6616 69.9263 10.535 69.8841C10.4026 69.5982 10.2788 69.3083 10.1626 69.0154C10.0397 68.8311 10.0397 68.8311 9.91435 68.6431C9.91435 68.4793 9.91435 68.3155 9.91435 68.1467C9.83243 68.1467 9.7505 68.1467 9.6661 68.1467C9.62513 67.942 9.58417 67.7372 9.54197 67.5262C9.46004 67.5262 9.37812 67.5262 9.29371 67.5262C9.29371 67.3215 9.29371 67.1167 9.29371 66.9057C9.21178 66.9057 9.12986 66.9057 9.04545 66.9057C9.00449 66.701 8.96353 66.4962 8.92132 66.2853C8.8394 66.2853 8.75747 66.2853 8.67306 66.2853C8.42054 65.8224 8.30068 65.5817 8.30068 65.0443C8.21875 65.0443 8.13683 65.0443 8.05242 65.0443C7.68003 64.2376 7.68003 64.2376 7.68003 63.6792C7.59811 63.6792 7.51618 63.6792 7.43178 63.6792C7.17925 63.2164 7.05939 62.9757 7.05939 62.4382C6.97747 62.4382 6.89554 62.4382 6.81113 62.4382C6.76777 62.3322 6.72441 62.2261 6.67973 62.1168C6.62325 61.9797 6.56676 61.8426 6.50857 61.7014C6.45241 61.5646 6.39624 61.4278 6.33838 61.2869C6.22224 60.9657 6.22224 60.9657 6.06636 60.8249C6.06132 60.6182 6.06106 60.4112 6.06636 60.2045C5.98444 60.2045 5.90251 60.2045 5.8181 60.2045C5.47509 59.3865 5.13553 58.5678 4.81198 57.7419C4.70439 57.4729 4.70439 57.4729 4.57003 57.2169C4.45269 56.9779 4.45269 56.9779 4.33632 56.5668C4.21389 56.1065 4.21389 56.1065 4.01824 55.6749C3.83398 55.2451 3.71212 54.8209 3.58378 54.3719C3.52234 54.2285 3.4609 54.0852 3.39759 53.9375C3.2114 53.5032 3.2114 53.5032 3.09503 53.0921C2.95522 52.607 2.77431 52.1524 2.58445 51.6853C2.38342 51.1874 2.22987 50.7323 2.1563 50.1991C2.12128 49.8017 2.12128 49.8017 1.97787 49.5611C1.73562 49.0518 1.67597 48.4842 1.57057 47.9333C1.50638 47.5367 1.50638 47.5367 1.22534 47.2983C1.19271 47.0537 1.16081 46.8089 1.13564 46.5634C1.08857 46.2108 0.971521 45.8956 0.852952 45.5609C0.604225 44.7564 0.557433 43.9764 0.523235 43.1396C0.503606 42.7214 0.503606 42.7214 0.358554 42.4174C-0.238658 40.8507 0.0901229 38.6453 0.0916931 37.0006C0.0916093 36.6896 0.0914887 36.3787 0.0913333 36.0677C0.0911512 35.4191 0.0914134 34.7704 0.0919962 34.1218C0.0925633 33.4585 0.0925959 32.7952 0.0919962 32.132C0.0912739 31.326 0.0911646 30.52 0.0915681 29.714C0.0916505 29.4087 0.0915519 29.1034 0.0912613 28.7981C0.0909435 28.3706 0.0914298 27.9432 0.0921174 27.5157C0.0918661 27.3917 0.0916149 27.2677 0.091356 27.14C0.0982318 24.8142 0.0982318 24.8142 0.480565 24.092C0.510636 23.8084 0.530374 23.5237 0.54263 23.2388C0.5734 22.5267 0.700492 21.9597 0.984839 21.3075C1.12008 20.9732 1.12008 20.9732 1.16327 20.5319C1.22534 20.1209 1.22534 20.1209 1.4736 19.8727C1.52331 19.5844 1.56541 19.2947 1.59772 19.004C1.67965 19.004 1.76157 19.004 1.84598 19.004C1.84086 18.8862 1.83574 18.7685 1.83047 18.6472C1.84598 18.2594 1.84598 18.2594 2.09424 18.0112C2.17463 17.6922 2.17463 17.6922 2.21837 17.3907C2.30029 17.3907 2.38222 17.3907 2.46663 17.3907C2.48199 17.2806 2.49735 17.1706 2.51317 17.0572C2.58382 16.6829 2.68586 16.3727 2.83901 16.0256C2.92094 16.0256 3.00286 16.0256 3.08727 16.0256C3.11127 15.9389 3.13527 15.8522 3.16 15.7629C3.19232 15.65 3.22465 15.537 3.25795 15.4207C3.28963 15.3084 3.32131 15.1961 3.35395 15.0804C3.45966 14.7847 3.45966 14.7847 3.70791 14.5365C3.83637 14.2488 3.96058 13.9592 4.0803 13.6678C4.12126 13.5859 4.16222 13.504 4.20443 13.4196C4.28635 13.4196 4.36828 13.4196 4.45269 13.4196C4.46661 13.3498 4.48053 13.2801 4.49487 13.2082C4.58806 12.8841 4.72722 12.626 4.8949 12.3337C4.95138 12.2345 5.00786 12.1354 5.06606 12.0332C5.10942 11.9583 5.15278 11.8834 5.19746 11.8063C5.27938 11.8063 5.36131 11.8063 5.44572 11.8063C5.46108 11.7321 5.47644 11.6579 5.49226 11.5814C5.56985 11.3099 5.56985 11.3099 5.8181 10.9376C5.90003 10.9376 5.98195 10.9376 6.06636 10.9376C6.06636 10.8148 6.06636 10.6919 6.06636 10.5653C6.14829 10.5653 6.23021 10.5653 6.31462 10.5653C6.34534 10.4757 6.37606 10.3862 6.40771 10.2939C6.57811 9.91058 6.77682 9.63334 7.05939 9.32435C7.14132 9.32435 7.22324 9.32435 7.30765 9.32435C7.30765 9.20149 7.30765 9.07864 7.30765 8.95206C7.47833 8.74264 7.47833 8.74264 7.68003 8.57976C7.76196 8.57976 7.84388 8.57976 7.92829 8.57976C7.92829 8.49786 7.92829 8.41595 7.92829 8.33157C8.09897 8.12991 8.09897 8.12991 8.30068 7.95927C8.3826 7.95927 8.46453 7.95927 8.54894 7.95927C8.59502 7.84026 8.59502 7.84026 8.64203 7.71883C8.79719 7.46288 8.79719 7.46288 9.06097 7.36981C9.13777 7.35957 9.21458 7.34933 9.29371 7.33878C9.33467 7.17498 9.37563 7.01117 9.41784 6.84239C9.58169 6.80144 9.74554 6.76049 9.91435 6.7183C9.95532 6.55449 9.99628 6.39068 10.0385 6.2219C10.2023 6.18095 10.3662 6.14 10.535 6.09781C10.535 5.97495 10.535 5.85209 10.535 5.72551C10.7398 5.64361 10.9446 5.5617 11.1556 5.47732C11.1556 5.35446 11.1556 5.2316 11.1556 5.10502C11.2785 5.10502 11.4014 5.10502 11.528 5.10502C11.569 4.98217 11.61 4.85931 11.6522 4.73273C11.7341 4.73273 11.816 4.73273 11.9004 4.73273C11.9004 4.65083 11.9004 4.56892 11.9004 4.48453C12.7231 4.01004 12.7231 4.01004 13.0641 3.84853C13.2895 3.75216 13.2895 3.75216 13.39 3.49175C13.893 3.18034 14.413 2.94507 15.0036 2.87126C15.0036 2.78936 15.0036 2.70745 15.0036 2.62307C15.2494 2.58211 15.4952 2.54116 15.7484 2.49897C15.7484 2.41706 15.7484 2.33516 15.7484 2.25077C15.9532 2.25077 16.158 2.25077 16.369 2.25077C16.41 2.12792 16.451 2.00506 16.4932 1.87848C16.7366 1.76941 16.7366 1.76941 17.0362 1.68458C17.4184 1.57442 17.6443 1.48357 17.9827 1.25799C18.2721 1.17452 18.5618 1.09189 18.8516 1.00979C18.9873 0.945807 19.123 0.881819 19.2628 0.815892C19.7541 0.624405 20.1625 0.578437 20.6845 0.551699C20.9969 0.529079 20.9969 0.529079 21.3342 0.265208C21.5834 0.218187 21.5834 0.218187 21.8462 0.195403C22.3317 0.140606 22.6432 0.0021482 23.1508 0.000193492Z" fill="#870505"></path></svg> 