<?xml version="1.0" encoding="UTF-8"?> <svg xmlns="http://www.w3.org/2000/svg" width="543" height="451" viewBox="0 0 543 451" fill="none"><path fill-rule="evenodd" clip-rule="evenodd" d="M37.2354 193.706C183.035 130.206 280.235 88.3061 328.835 68.1061C467.735 10.3061 496.535 0.30608 515.335 0.00608006C519.435 -0.0939199 528.735 1.00607 534.735 5.80607C539.835 9.90607 541.235 15.4061 541.835 19.3061C542.435 23.2061 543.335 32.1061 542.635 39.0061C535.135 118.106 502.535 309.906 486.035 398.506C479.035 436.006 465.235 448.506 451.835 449.806C422.835 452.506 400.735 430.606 372.635 412.206C328.635 383.406 303.735 365.406 261.035 337.206C211.635 304.706 243.635 286.806 271.835 257.606C279.235 250.006 407.135 133.606 409.635 123.006C409.935 121.706 410.235 116.806 407.335 114.206C404.435 111.606 400.135 112.506 396.935 113.206C392.535 114.206 322.235 160.706 186.035 252.606C166.035 266.306 148.035 273.006 131.835 272.606C113.935 272.206 79.6354 262.506 54.1354 254.206C22.8354 244.006 -2.06463 238.606 0.135366 221.406C1.23537 212.306 13.6354 203.106 37.2354 193.706Z" fill="white"></path></svg> 