<?xml version="1.0" encoding="UTF-8"?> <svg xmlns="http://www.w3.org/2000/svg" width="117" height="187" viewBox="0 0 117 187" fill="none"><path d="M116.749 178.564C117.06 178.108 116.942 177.486 116.485 177.175L109.044 172.112C108.588 171.801 107.966 171.92 107.655 172.376C107.344 172.833 107.462 173.455 107.919 173.766L114.533 178.266L110.033 184.88C109.722 185.337 109.84 185.959 110.297 186.269C110.754 186.58 111.376 186.462 111.686 186.005L116.749 178.564ZM7.61404 120.469L8.55279 120.124V120.124L7.61404 120.469ZM44.7488 1.80655C45.1942 1.48005 45.2906 0.854262 44.9641 0.408818C44.6376 -0.0366129 44.0118 -0.133029 43.5664 0.193469L44.1576 1.00001L44.7488 1.80655ZM115.922 178.002C115.736 177.019 115.736 177.019 115.736 177.019C115.735 177.02 115.735 177.02 115.734 177.02C115.732 177.02 115.729 177.021 115.724 177.022C115.716 177.023 115.702 177.026 115.684 177.029C115.647 177.036 115.591 177.046 115.516 177.059C115.366 177.085 115.14 177.123 114.844 177.17C114.251 177.264 113.374 177.394 112.246 177.533C109.989 177.811 106.729 178.128 102.731 178.283C94.7305 178.593 83.7949 178.25 72.0376 175.646C48.5495 170.445 21.8096 156.239 8.55279 120.124L7.61404 120.469L6.67529 120.813C20.2269 157.731 47.6412 172.292 71.6052 177.599C83.574 180.249 94.6889 180.596 102.808 180.282C106.869 180.125 110.186 179.802 112.491 179.518C113.643 179.376 114.543 179.243 115.157 179.146C115.464 179.097 115.7 179.057 115.86 179.029C115.94 179.015 116.001 179.004 116.043 178.996C116.064 178.993 116.08 178.99 116.091 178.988C116.096 178.987 116.101 178.986 116.104 178.985C116.105 178.985 116.107 178.985 116.108 178.985C116.109 178.984 116.109 178.984 115.922 178.002ZM7.61404 120.469L8.55279 120.124C-4.72188 83.9608 4.31676 54.4113 16.6894 33.863C22.8804 23.5809 29.9053 15.5578 35.3832 10.1056C38.1212 7.38033 40.4702 5.29997 42.1313 3.90338C42.9618 3.20515 43.6201 2.67804 44.0689 2.32691C44.2933 2.15134 44.4652 2.01979 44.5801 1.93285C44.6376 1.88939 44.6807 1.85708 44.709 1.836C44.7232 1.82546 44.7336 1.81773 44.7403 1.81282C44.7436 1.81036 44.746 1.80862 44.7474 1.80757C44.7481 1.80704 44.7484 1.80678 44.7488 1.80653C44.7489 1.80644 44.7488 1.80655 44.1576 1.00001C43.5664 0.193469 43.5658 0.193927 43.5649 0.194548C43.5643 0.195001 43.5632 0.195803 43.562 0.196693C43.5596 0.198487 43.5562 0.200976 43.5519 0.204176C43.5432 0.210592 43.5307 0.219826 43.5145 0.231878C43.4821 0.255995 43.4349 0.291417 43.3732 0.33804C43.25 0.431288 43.0695 0.569403 42.8364 0.751775C42.3703 1.11652 41.6937 1.65838 40.8443 2.37253C39.1456 3.80071 36.7546 5.91874 33.9723 8.68803C28.4095 14.2248 21.2718 22.3753 14.976 32.8314C2.37469 53.7594 -6.85845 83.9443 6.67529 120.813L7.61404 120.469Z" fill="#870505"></path></svg> 