<?xml version="1.0" encoding="UTF-8"?> <svg xmlns="http://www.w3.org/2000/svg" width="536" height="552" viewBox="0 0 536 552" fill="none"><path d="M215.885 77.9863C214.882 80.3008 214.342 83.0765 214.443 85.3358C214.566 87.3433 214.62 89.0697 214.625 89.2266C214.571 89.4162 213.21 89.8539 211.46 90.2685C207.132 91.3981 202.942 95.0062 196.687 103.276C192.326 109.055 190.471 110.885 185.999 114.091C177.552 120.146 172.154 127.141 171.494 132.778C171.331 134.226 170.681 138.261 170.101 141.697C168.073 153.205 168.004 152.924 176.283 169.078L183.539 183.088L180.38 179.575C178.646 177.665 176.439 174.98 175.44 173.62C173.904 171.36 173.601 171.209 172.287 172.18L170.855 173.216L174.575 180.328C176.582 184.243 179.714 189.766 181.478 192.618C183.586 195.996 184.574 197.922 184.221 198.119C183.869 198.315 181.67 196.823 179.307 194.863C176.912 192.842 174.926 191.471 174.814 191.694C174.733 191.978 175.999 193.27 177.505 194.588C179.836 196.485 180.84 198.003 183.175 202.852C185.409 207.359 186.477 209 187.787 209.789C188.729 210.303 191.038 212.452 192.985 214.483C194.932 216.514 197.322 218.378 198.287 218.64C200.637 219.249 200.997 220.247 199.156 220.632C198.297 220.87 194.983 221.915 191.791 223.052C186.618 224.891 185.737 225.381 183.011 228.015C181.417 229.62 179.3 231.676 178.311 232.545C174.858 235.823 173.959 243.349 176.475 248.258C177.621 250.495 178.483 251.293 180.844 252.216C186.928 254.66 196.377 252.918 198.91 248.874C199.424 248.109 201.406 246.528 203.403 245.417C206.399 243.75 207.765 243.47 212.101 243.533C218.292 243.683 223.565 242.187 232.957 237.682C239.819 234.425 240.053 234.294 242.307 230.885C243.592 228.973 245.794 224.873 247.162 221.797C251.795 211.395 252.757 210.62 263.531 208.221L270.297 206.694L271.924 204.271C274.665 200.192 273.375 200.031 267.185 203.714C264.194 205.537 259.927 207.671 257.771 208.471C252.716 210.244 248.692 213.441 244.444 218.997C237.435 228.006 235.751 229.581 230.417 231.989C221.196 236.239 217.407 237.389 212.836 237.456C205.487 237.551 204.42 237.825 196.384 241.736C188.406 245.614 186.267 246.005 183.067 244.033C181.666 243.215 181.774 242.836 184.045 240.934C190.746 235.45 192.92 234.241 199.324 232.595C204.127 231.361 206.694 230.332 209.712 228.414C212.319 226.725 214.706 225.637 216.786 225.278C220.889 224.593 227.452 221.342 232.031 217.757C234.831 215.561 236.476 214.646 238.701 214.127C243.658 213.046 246 208.63 243.866 204.467L242.911 202.603L233.159 208.027L223.349 213.484L221.929 212.038C220.822 211.057 219.169 210.778 215.169 210.927C210.065 211.131 209.702 211.013 202.582 206.989L195.217 202.782L190.103 194.129C187.294 189.383 185.043 185.286 185.155 185.063C185.177 184.812 186.426 184.596 187.828 184.535C189.231 184.473 192.134 183.657 194.318 182.762L198.3 181.106L201.665 183.546L205.088 185.954L205.226 190.348C205.332 192.764 205.309 195.811 205.14 197.103C204.92 199.62 206.402 202.07 208.04 201.877C208.547 201.835 209.536 200.966 210.311 199.975C211.285 198.635 211.547 196.494 211.418 190.497C211.19 181.362 212.725 175.078 216.601 169.09C219.54 164.661 221.763 163.105 227.126 161.639C230.296 160.754 231.809 161.35 230.904 162.971C229.35 165.832 232.664 178.042 237.668 187.953C240.438 193.359 244.942 198.759 248.696 201.222C252.386 203.561 259.169 203.541 263.517 201.123C265.396 200.077 267.59 199.496 269.92 199.478C279.035 199.438 278.827 199.474 279.45 197.451C280.766 193.685 278.587 192.821 273.915 195.34C272.798 195.961 270.451 196.388 268.776 196.361C266.083 196.262 265.567 195.991 264.883 194.215C264.173 192.534 263.624 192.2 261.406 191.997C259.94 191.934 258.329 192.032 257.859 192.293C256.155 193.241 249.493 191.437 246.859 189.389C239.567 183.704 235.939 175.741 236.722 167.401C236.969 164.788 237.156 160.293 237.126 157.435C237.097 149.866 237.285 149.202 240.953 145.166C245.457 140.106 247.996 135.34 249.838 128.327C250.828 124.663 251.944 122.126 252.708 121.701C255.821 119.969 261.065 121.364 268.318 125.794C270.815 127.279 273.484 128.509 274.353 128.585C275.222 128.66 277.252 129.528 278.871 130.624L281.799 132.508L281.732 136.059C281.706 141.901 283.195 150.256 285.289 155.079C286.323 157.538 287.217 160.314 287.247 161.256C287.407 163.483 289.283 166.112 290.84 166.204C292.61 166.417 296.075 162.574 297.198 159.314C298.155 156.467 298.038 151.821 296.859 145.69C296.148 142.093 295.57 140.818 294.049 139.029C291.693 136.347 287.997 128.103 286.698 122.917C285.974 119.886 286.035 118.973 287.11 117.977C288.879 116.274 288.855 115.489 286.435 110.767C283.983 105.983 279.905 100.825 274.17 95.2319C269.424 90.6854 269.382 90.3094 271.419 81.9106L272.718 76.6373L274.476 77.4161C275.717 77.9233 277.142 79.526 279.187 82.7799C280.733 85.3537 283.54 89.0624 285.428 91.1262C292.762 99.1034 295.328 107.497 295.991 125.732C296.125 129.969 296.473 133.448 296.745 133.537C297.049 133.687 297.839 133.168 298.566 132.524C300.191 130.981 301.157 124.616 301.125 116.01C301.032 108.317 300.221 104.377 296.769 96.3159C294.606 91.2113 293.788 89.9097 292.196 88.719C290.849 87.7115 289.409 85.638 287.467 81.8479C283.136 73.3977 282.115 72.2889 276.946 70.4528C273.408 69.1469 272.28 68.4174 271.633 66.8608C270.731 64.8072 268.305 62.7236 267.365 63.2464C267.071 63.4098 265.377 62.7552 263.582 61.7573C261.787 60.7595 259.858 60.2356 259.329 60.5297C258.801 60.8237 257.793 62.9813 257.179 65.3188C256.565 67.6563 255.675 69.7485 255.205 70.0099C253.442 70.9902 256.018 73.0706 261.214 74.8119C264.235 75.8462 266.776 76.828 266.84 76.9523C266.936 77.1387 266.547 79.0316 266.019 81.2417C265.49 83.4517 265.197 85.531 265.388 85.9038C266.471 88.0164 257.295 87.0518 252.043 84.4636C244.362 80.6713 241.767 79.8791 237.26 80.0704C231.948 80.3103 229.624 79.6065 224.039 75.9262C221.446 74.2545 219.507 73.4168 218.77 73.7467C218.092 74.044 216.807 75.9562 215.885 77.9863ZM224.989 84.2607C227.53 85.2425 231.107 85.8879 235.054 85.9286C240.435 85.9698 241.762 86.3496 246.896 89.0031C252.611 92.0525 253.576 92.3144 261.204 93.5008L265.17 94.1692L267.211 99.1823C269.311 104.163 274.125 110.906 277.123 113.072C277.98 113.713 278.112 114.118 277.534 114.759C276.47 116.07 277.814 117.957 280.032 118.16C282.432 118.423 283.282 119.787 282.773 122.624L282.362 124.769L278.408 123.535C276.053 122.769 273.529 121.378 272.353 120.116C269.204 116.917 263.835 114.394 259.308 113.958C255.773 113.688 255.256 113.417 254.817 111.824C252.911 104.421 251.459 102.914 246.141 102.997C241.539 103.001 238.903 105.665 233.765 115.23C232.58 117.486 231.149 120.438 230.682 121.735C230.124 123.004 229.476 124.243 229.182 124.406C228.301 124.896 227.639 122.869 228.123 121.162C228.554 119.645 228.404 119.649 226.018 120.736C223.161 122.086 222.272 121.382 223.229 118.535C223.831 116.763 225.187 116.169 229.924 115.69C231.086 115.602 229.431 112.371 226.925 109.692C225.319 108.031 224.996 107.252 225.017 105.085C224.898 101.318 223.746 95.0923 221.928 88.5983C221.082 85.4755 220.523 82.912 220.7 82.814C220.876 82.7159 222.778 83.3346 224.989 84.2607ZM214.7 95.4127C215.325 95.305 216.182 95.9462 216.596 96.7539C217.774 99.0529 218.012 110.418 217.084 117.003L216.253 122.894L212.356 124.423C205.95 126.948 202.616 129.281 200.074 133.011C197.414 136.806 195.819 143.122 196.902 145.234C197.316 146.042 197.099 147.68 196.433 149.328C195.763 150.819 195.355 154 195.493 156.478C195.675 160.369 195.908 161.118 197.514 162.779C198.535 163.888 200.294 166.583 201.44 168.82C203.478 172.796 204.83 173.961 207.092 173.661C207.657 173.586 207.557 175.158 206.809 177.97C206.11 180.435 205.246 182.432 204.766 182.38C204.318 182.389 202.753 181.104 201.243 179.629C199.822 178.183 197.197 176.449 195.471 175.733C191.901 174.365 192.056 174.518 178.318 151.1C176.231 147.47 176.575 144.164 180.102 134.697C183.158 126.371 184.629 124.674 194.378 118.214C200.671 113.995 203.612 110.602 207.642 102.852C210.348 97.6736 212.23 95.7485 214.7 95.4127ZM245.247 108.764C248.638 109.193 249.29 112.823 246.51 115.647C245.376 116.676 243.695 119.288 242.714 121.351C240.977 125.032 238.765 126.901 236.578 126.76C234.6 126.582 235.103 121.672 237.508 117.38C242.517 108.446 242.544 108.351 245.247 108.764ZM211.856 132.286C213.776 132.496 214.917 134.576 214.293 136.599C213.912 137.77 213.435 138.754 213.2 138.884C212.965 139.015 212.711 140.434 212.611 142.007C212.511 143.579 212.139 145.064 211.728 145.292C210.905 145.75 201.411 144.164 200.64 143.395C200.086 142.904 204.144 136.975 206.185 135.361C208.488 133.521 210.955 132.148 211.856 132.286ZM227.217 127.495C228.936 128.934 228.968 128.997 226.787 130.928C225.216 132.281 224.976 132.255 224.307 130.95C222.779 127.968 224.795 125.568 227.217 127.495ZM222.725 136.701C223.075 137.384 223.222 138.26 222.965 138.643C222.172 140.042 223.456 140.925 225.962 140.808C228.858 140.715 229.321 141.176 228.703 143.356C228.218 145.063 224.378 147.439 222.928 146.967C222.204 146.731 221.675 147.026 221.049 148.013C219.94 149.827 221.309 152.499 223.819 153.418C225.332 154.014 226.133 153.808 227.826 152.547C229.023 151.642 230.433 150.857 231.089 150.812C232.13 150.632 232.198 150.914 231.942 153.212L231.663 155.762L228.464 155.706C225.893 155.698 224.356 156.234 220.185 158.554C217.306 160.155 214.92 161.242 214.824 161.056C214.697 160.808 215.265 159.853 215.982 158.895C217.303 157.202 217.298 157.045 215.481 154.383C213.478 151.505 212.796 146.934 214.301 146.336C215.865 145.706 216.443 145.065 216.029 144.257C215.514 143.106 218.686 137.51 220.534 136.402C221.709 135.749 222.279 135.831 222.725 136.701ZM238.465 133.535L240.571 133.961L238.875 136.102C237.928 137.347 236.917 138.468 236.623 138.632C235.742 139.122 233.771 136.306 233.748 134.642C233.752 132.883 234.377 132.775 238.465 133.535ZM207.695 152.006C208.158 152.468 208.229 153.785 207.917 155.237C207.178 158.362 207.771 168.652 208.746 169.228C209.172 169.47 209.213 169.846 208.802 170.075C208.332 170.336 207.801 169.594 207.139 167.566C206.642 166.006 205.37 162.642 204.336 160.182C203.271 157.661 202.504 155.134 202.575 154.535C202.883 152.927 206.62 151.087 207.695 152.006Z" fill="#3D2A23"></path><path d="M231.213 112.019C231.372 112.33 231.92 112.664 232.31 112.687C232.758 112.677 232.961 112.484 232.77 112.111C232.611 111.801 232.121 111.434 231.673 111.444C231.284 111.421 231.022 111.647 231.213 112.019Z" fill="#3D2A23"></path><path d="M343.803 229.523C336.752 227.696 334.629 225.763 329.473 216.733C326.606 211.612 326.736 210.562 325.791 208.677L319.463 199.769C317.778 198.034 314.458 196.421 312.656 196.145C308.183 195.519 303.347 192.859 302.436 190.492C301.784 188.778 301.977 188.271 305.298 184.588C308.646 180.809 309.581 180.13 318.809 175.157C324.305 172.18 330.018 169.482 331.56 169.103C333.043 168.757 334.997 168.15 335.851 167.754C336.048 167.677 336.227 167.616 336.395 167.576L348.496 164.232C349.083 163.842 350.002 163.389 351.239 162.869C353.305 162.039 355.216 161.055 355.532 160.64C356.628 159.392 353.643 154.745 350.915 153.547C348.555 152.624 347.659 152.643 341.25 154.132C338.283 154.824 336.856 154.101 338.912 152.957C342.143 151.16 336.531 149.491 330.071 150.289C327.302 150.632 324.795 150.748 324.401 150.568C324.066 150.356 320.884 151.806 317.359 153.767C311.719 156.903 310.261 158.034 306.186 162.456C301.073 168.095 297.493 173.04 292.934 181.085L289.961 186.331L291.426 189.19C292.477 191.24 292.73 192.617 292.353 193.944C291.433 197.01 287.799 202.146 285.685 203.322C283.217 204.694 281.311 207.75 281.508 210.196C281.542 211.295 281.124 212.246 280.243 212.736C279.479 213.161 278.784 213.867 278.617 214.279C278.424 214.786 277.301 216.129 276.055 217.381C271.334 222.162 265.976 232.329 262.723 242.921C261.691 246.21 260.382 249.253 259.858 249.704C259.131 250.348 259.117 251.793 259.786 255.014C260.34 257.421 261.001 259.448 261.273 259.536C261.545 259.625 262.522 259.321 263.462 258.798C264.989 257.949 265.17 258.008 265.614 259.757C265.888 260.882 266.219 262.854 266.381 264.201C266.975 269.779 273.648 284.272 275.176 283.423C275.469 283.259 276.566 282.011 277.625 280.543C279.434 278.18 279.558 277.392 279.231 271.745C279.005 268.358 279.221 262.888 279.656 259.612C280.182 256.365 280.694 251.769 280.892 249.503C280.999 247.208 281.728 243.768 282.474 241.836C283.22 239.904 284.348 236.802 285.008 234.997C285.727 233.16 286.343 229.943 286.397 227.837C286.464 224.287 288.396 215.388 289.159 214.963C289.394 214.832 291.067 217.654 292.914 221.258C295.589 226.477 296.561 227.933 297.739 228.316C299.039 228.79 299.274 228.659 300.116 226.914C300.651 225.897 300.837 224.197 300.594 223.134C299.585 219.544 299.501 218.792 300.089 218.465C300.382 218.302 301.208 218.881 301.861 219.715C302.701 220.765 303.762 221.213 305.159 220.995C306.381 220.874 307.83 221.345 308.724 222.206C311.991 225.339 314.358 225.539 314.744 222.61C314.94 221.224 315.057 221.158 316.534 221.535C317.408 221.767 318.837 221.611 319.718 221.121C321.011 220.402 322.284 220.971 329.147 225.378C336.772 230.239 340.827 231.817 347.422 232.46C351.378 232.815 349.015 230.855 343.803 229.523ZM325.636 153.714C329.409 154.889 332.982 159.21 331.825 161.371C331.428 162.07 317.931 168.14 312.962 169.786C310.389 170.658 308.776 171.635 306.397 173.916C304.654 175.524 302.799 177.355 302.217 177.838C300.592 179.381 302.431 175.164 304.808 171.846C312.509 161.095 322.198 152.752 325.636 153.714ZM346.477 155.935C347.107 155.985 347.506 156.322 347.425 156.606C347.317 156.985 346.426 157.161 345.376 157.027C343.425 156.755 344.35 155.761 346.477 155.935ZM304.456 199.588C307.452 199.838 311.423 200.663 313.358 201.344C316.651 202.467 317.082 202.866 319.759 207.206C323.726 213.622 325.534 217.886 324.536 218.442C324.124 218.67 323.309 218.405 322.756 217.915C322.107 217.237 320.939 217.168 319.343 217.737C317.421 218.406 316.281 218.242 314.331 217.091C312.169 215.818 311.391 215.772 309.687 216.72C307.984 217.667 307.445 217.647 306.754 216.594C306.223 215.852 305.126 215.184 304.316 215.076C303.505 214.968 302.227 214.242 301.515 213.44C300.643 212.328 299.737 212.034 298.376 212.471C295.595 213.379 294.62 210.888 296.034 206.428C296.689 204.467 297.452 202.126 297.753 201.24C298.054 200.354 298.445 199.498 298.68 199.367C298.884 199.174 301.518 199.306 304.456 199.588ZM283.945 214.51C284.28 214.722 283.867 217.746 283.08 221.218C282.234 224.723 281.278 229.487 280.931 231.756C280.616 234.087 279.476 237.755 278.468 239.912C277.154 242.799 276.286 246.555 275.63 253.228C275.132 258.296 274.431 263.556 274.113 264.851L273.499 267.189L273.114 265.406C272.281 261.718 272.328 255.624 273.211 252.338C274.336 248.199 273.789 246.986 270.798 246.893C269.512 246.889 268.394 246.474 268.229 246.006C267.786 244.257 274.162 230.331 278.048 224.656C280.761 220.672 282.053 218.037 281.987 216.876C281.869 215.025 282.848 213.842 283.945 214.51Z" fill="#3D2A23"></path></svg> 