<?xml version="1.0" encoding="UTF-8"?> <svg xmlns="http://www.w3.org/2000/svg" width="135" height="59" viewBox="0 0 135 59" fill="none"><path d="M2.35073 28.8365L-9.38998e-05 32.5857C0.415399 33.495 0.0711929 34.8304 0.478723 34.864C0.930365 34.8225 2.79644 33.5851 4.70916 32.1065C6.62189 30.6279 9.67921 28.7362 11.496 27.9059C15.1297 26.2454 15.2361 26.3067 15.6886 30.3864C16.89 41.5975 18.1263 44.9893 22.9605 50.4188C25.305 52.9744 27.4106 55.6941 27.6573 56.4057C28.1559 57.4967 28.7555 57.6074 32.3479 57.2297C35.1668 56.8758 36.5399 56.9627 36.4673 57.4904C36.3404 58.7574 42.1056 59.53 44.2468 58.5515C45.285 58.0771 47.1616 57.5492 48.4749 57.3337C51.6598 56.9225 53.8087 55.4458 54.4001 53.3071C54.6517 52.3129 55.0305 51.4254 55.29 51.3068C55.5496 51.1882 57.6626 52.036 60.0301 53.0974C62.3535 54.2338 66.6496 55.5678 69.4764 56.0895C74.5953 56.9926 86.1929 56.9683 88.1394 56.0788C89.3723 55.5154 89.4807 52.6632 88.3174 50.1174C87.7357 48.8445 87.6862 47.8779 88.2078 47.4747C88.5997 47.1307 91.0526 46.8341 93.5003 46.8696C104.259 46.8988 105.142 46.7702 105.902 44.8292C106.348 43.746 106.608 43.6274 110.068 43.475C122.898 42.8874 134.181 40.9736 134.679 39.3171C134.975 38.2478 128.351 27.701 126.106 25.7048C124.05 23.9516 123.99 23.6492 124.322 21.6291C124.56 20.0913 124.259 18.7453 123.295 17.1522C121.787 14.7092 121.169 14.387 109.127 9.83351C105.241 8.36705 99.0754 5.68903 95.4307 3.89247C89.4626 0.959478 86.7656 0.378483 88.2611 2.27792C89.1879 3.44802 87.6591 3.70703 85.8497 2.66545C82.4853 0.795746 72.99 -0.415477 66.2595 0.132343C62.7113 0.434922 58.2415 0.609059 56.2454 0.532062C50.6854 0.380115 48.4895 0.724159 42.1461 2.63383C36.6435 4.32407 35.8 4.70953 30.8117 7.86835C24.5881 11.7566 21.5438 14.1919 19.3095 17.0264C18.4557 18.076 17.1269 19.2877 16.4132 19.6139C15.6994 19.9401 15.1727 20.6754 15.1624 21.3395C15.1471 22.3357 14.7993 22.6045 11.3447 23.7986C9.23166 24.5613 8.06176 24.9749 7.56247 25.0506L2.35073 28.8365ZM54.6377 21.2152C57.7966 21.0905 59.2634 22.0689 58.6122 23.9052C58.3216 24.6424 57.6859 25.4825 57.1668 25.7197C56.2584 26.1349 52.0191 23.8956 51.4582 22.6681C51.0012 21.668 51.7357 21.3873 54.6377 21.2152ZM71.511 14.7134C75.5524 14.4602 76.1053 14.812 74.4886 16.595C73.505 17.7039 72.9677 17.7296 68.6821 17.1052C66.0033 16.7357 63.5607 16.3682 63.1532 16.3346C61.5671 16.1252 68.0509 14.8658 71.511 14.7134ZM41.3195 22.7951C41.4857 23.1588 41.1769 23.6846 40.6578 23.9218C39.6196 24.3962 39.1108 23.9693 39.6609 23.1134C40.1254 22.2417 40.9871 22.0677 41.3195 22.7951ZM24.6842 25.0116C25.7044 25.6994 29.702 26.8951 33.6632 27.6677C40.472 29.0076 40.8977 29.2526 43.9456 32.1462C46.5704 34.6287 47.7204 35.2572 50.5264 35.7334C54.4045 36.3243 54.3994 36.6563 49.7911 31.893C48.48 30.5687 47.2597 28.9282 47.0986 28.2324C46.8362 27.1433 47.4774 27.3449 51.6568 29.2818C56.262 31.4638 60.4387 32.1929 61.9595 31.0583C62.2424 30.8191 62.3434 29.8387 62.2082 28.8564C61.408 25.0455 62.8588 24.2726 66.431 26.5969C69.323 28.4627 77.9633 37.7582 79.0644 40.1676C79.5422 41.2132 80.456 41.8398 81.9979 42.1243C83.4541 42.3931 84.1343 42.8516 84.124 43.5157C83.7017 47.2258 83.6971 50.3053 84.0918 51.1691C84.3619 51.7601 84.1803 52.3926 83.7261 52.6002C82.5581 53.1339 75.0228 52.9504 71.3394 52.2706C66.628 51.4011 55.055 44.2701 53.7462 41.4061C53.1022 39.9968 52.4767 40.1728 50.2967 42.2681C48.3555 44.1993 47.3671 47.014 47.8711 49.1467C48.0712 50.0994 47.9701 51.0798 47.6224 51.3486C47.2746 51.6175 45.2318 51.7816 43.1059 51.7639C39.6069 51.6593 39.0307 51.4281 36.8524 49.2362C35.4765 47.9415 33.6019 45.5559 32.5529 43.947C31.5247 42.3835 30.4473 41.2273 30.2526 41.3163C29.0846 41.85 27.4525 44.6292 27.253 46.4239C27.0743 48.2641 26.9212 48.444 25.984 47.938C25.387 47.6613 24.003 45.4911 22.8371 43.1113C21.0479 39.3677 20.7465 38.0217 20.8026 32.9952C20.7722 23.8318 21.3482 22.6893 24.6842 25.0116ZM46.7931 6.28041C49.0123 5.81581 53.8922 5.50922 57.6715 5.54068C61.3859 5.60178 66.4345 5.49285 68.8433 5.27136C73.2948 4.88572 85.8895 7.0436 86.4504 8.27104C86.5959 8.58927 86.0666 9.4906 85.2387 10.2536C82.9497 12.4537 83.5001 12.9715 87.6298 12.5681C92.577 12.0658 100.172 12.5517 101.361 13.4372C101.87 13.8641 103.817 14.3483 105.66 14.6051C107.503 14.862 111.137 15.949 113.72 16.9668C117.326 18.5064 118.473 19.3009 119.138 20.7557C119.53 21.7855 120.442 23.9518 121.125 25.618C121.808 27.2842 123.319 29.5612 124.526 30.6582C127.382 33.4747 129.148 37.3388 127.85 37.9319C126.422 38.5842 115.24 39.5177 109.958 39.4586C105.148 39.4035 103.401 39.872 101.806 41.7004C100.975 42.6295 100.264 42.7896 97.6448 42.7225C90.6675 42.5588 87.9056 42.0074 86.771 40.3827C86.14 39.517 84.6005 37.6927 83.3335 36.2933C82.0016 34.9236 79.5974 32.0655 77.9332 29.9685C76.2689 27.8714 74.0932 25.5134 73.1171 24.7505C70.6145 22.7068 70.4534 22.011 72.4677 22.2995C75.2971 22.6552 90.7009 27.8707 92.0171 28.8629C92.7389 29.4124 94.1043 29.9974 95.0674 30.2167C96.9078 30.6397 99.7343 29.7876 100.051 28.7637C100.188 28.2063 94.5705 24.8385 89.3475 22.3343C86.5335 20.9825 86.4737 20.6801 88.9656 20.6404C89.7599 20.6621 90.58 20.3972 90.7773 20.1422C91.2417 19.2705 88.181 17.2071 85.0582 16.3811C83.3683 15.9443 81.8731 15.4186 81.79 15.2368C81.7069 15.0549 79.233 13.9323 76.2659 12.7603C70.4173 10.4322 68.0994 10.3374 61.0706 12.1206C58.8929 12.6761 55.8353 13.1941 54.2882 13.2416C52.7412 13.2892 50.1768 13.8565 48.5131 14.5069C41.2094 17.4049 39.2679 17.9624 35.2006 18.5022C30.9619 19.0104 28.6958 18.3424 28.3605 16.4073C28.0096 14.0947 39.8577 7.58132 46.7931 6.28041Z" fill="#3D2A23"></path></svg> 