<?xml version="1.0" encoding="UTF-8"?> <svg xmlns="http://www.w3.org/2000/svg" width="1681" height="1513" viewBox="0 0 1681 1513" fill="none"><path d="M832.332 10.8387C831.96 11.0828 831.438 11.4546 830.763 11.9586C829.379 12.9915 827.428 14.525 824.967 16.5119C820.047 20.4827 813.134 26.2294 804.735 33.3273C787.94 47.5212 765.227 67.0976 740.688 88.6292L740.684 88.6331C691.253 131.701 623.004 191.515 588.189 221.774C267.903 502.275 89.9613 722.275 35.8554 903.8L35.8554 903.801C13.8827 978.021 7.1644 1067.5 18.4127 1134.96C49.4009 1318.87 192.245 1464.71 375.163 1499.85L377.317 1500.26C395.843 1503.72 426.943 1505.4 457.765 1505.32C487.63 1505.25 517.043 1503.53 534.334 1500.24L535.968 1499.92L535.98 1499.92L537.761 1499.56C574.779 1492.05 625.334 1474.69 656.643 1458.71L658.142 1457.93C722.933 1424.29 790.942 1362.9 826.714 1305.81L826.715 1305.81L828.454 1303.06C832.479 1296.72 836.237 1291.1 839.206 1286.89C840.901 1284.49 842.351 1282.53 843.453 1281.16C844.001 1280.48 844.486 1279.92 844.885 1279.52C845.082 1279.32 845.29 1279.13 845.499 1278.97C845.603 1278.89 845.738 1278.8 845.896 1278.73C846.036 1278.66 846.308 1278.54 846.658 1278.54C847.012 1278.53 847.289 1278.65 847.436 1278.72C847.599 1278.79 847.737 1278.88 847.842 1278.96C848.052 1279.12 848.258 1279.31 848.449 1279.51C848.837 1279.9 849.303 1280.45 849.826 1281.11C850.879 1282.44 852.26 1284.33 853.871 1286.62C857.099 1291.22 861.309 1297.52 865.78 1304.33L865.788 1304.34C876.242 1320.59 898.649 1345.65 922.801 1369.4C946.949 1393.16 972.675 1415.45 989.702 1426.24L989.703 1426.25C1017.93 1444.15 1068.7 1468.49 1097.13 1477.62L1097.14 1477.62C1150.54 1494.89 1239.67 1502.32 1293.48 1494.38C1459.68 1469.87 1600.51 1352.82 1652.51 1195.9L1653.12 1194.05C1670.74 1139.56 1674.64 1112.26 1673.91 1045.63C1672.51 950.281 1656.78 889.161 1609.43 794.605L1609.43 794.604C1542.71 661.674 1415.06 513.143 1198.87 316.954C1172.8 293.537 1082 216.874 997.154 146.049C954.74 110.641 913.825 76.7022 883.253 51.6187C867.966 39.0764 855.27 28.7509 846.265 21.5649C841.761 17.9708 838.189 15.1683 835.681 13.2678C834.424 12.3158 833.449 11.6011 832.763 11.1289C832.598 11.0151 832.455 10.9186 832.332 10.8387Z" stroke="#3D2A23" stroke-opacity="0.34" stroke-width="3"></path></svg> 