<?xml version="1.0" encoding="UTF-8"?> <svg xmlns="http://www.w3.org/2000/svg" width="794" height="630" viewBox="0 0 794 630" fill="none"><path d="M763.216 4.68148C751.341 20.5639 744.958 42.0868 741.988 76.2265C740.797 90.1793 739.318 104.578 738.422 108.288C735.752 121.796 735.157 151.779 736.936 202.544C738.576 252.269 738.87 261.472 740.65 283.589C741.694 297.986 742.73 301.846 746.738 306.447C749.113 309.268 750.304 312.533 750.451 316.689C750.598 326.337 751.488 330.939 753.716 334.501C755.054 336.431 755.65 339.548 755.201 342.071C754.312 346.079 754.459 346.227 758.62 345.04C766.783 342.962 778.812 342.517 780.445 344.149C783.562 347.266 778.959 349.048 767.525 349.344C754.165 349.641 751.789 350.978 762.032 352.462C766.187 353.056 769.606 354.094 769.606 354.688C769.606 356.618 764.26 357.805 760.253 356.915C758.025 356.321 756.091 356.618 755.496 357.657C753.569 360.923 756.981 361.813 765.15 360.477C773.614 359.141 778.511 359.735 778.511 362.258C778.511 363.001 777.026 363.297 775.246 362.852C773.319 362.555 767.82 363.001 762.922 364.039C754.312 365.821 754.017 365.969 753.275 371.016C752.826 373.836 752.974 378.141 753.863 380.516C755.054 384.375 752.973 494.81 751.047 529.84C750.745 535.926 750.003 549.285 749.414 559.527L748.37 578.081L756.981 590.698C767.974 606.729 769.459 608.51 772.871 608.51C779.996 608.51 789.651 596.487 792.026 584.315C794.548 571.847 793.063 511.137 789.651 482.49C789.202 479.669 788.165 467.35 787.276 455.029C786.386 442.709 785.489 432.319 785.195 431.725C784.746 431.28 784.452 418.663 784.452 403.671C784.305 388.828 783.857 375.617 783.415 374.579C782.224 371.461 773.018 369.086 765.746 370.274C760.4 371.016 759.209 370.719 759.209 368.937C759.209 367.156 761.738 366.563 771.386 366.266L783.562 365.821L784.004 359.883C784.746 347.415 784.305 340.736 782.967 339.103C781.93 337.915 782.525 336.876 784.901 335.837C787.864 334.501 788.165 333.462 787.717 323.665C787.276 316.392 786.68 313.127 785.489 313.572C784.305 313.869 783.857 316.986 784.158 322.478L784.746 330.939L775.694 331.236C770.643 331.384 764.555 331.532 762.032 331.532L757.429 331.681L756.981 321.588C756.687 311.494 756.687 311.494 760.995 310.603C766.635 309.416 767.672 307.486 762.922 306.447C760.841 306.002 757.576 305.408 755.496 304.963C745.4 302.885 743.179 285.221 741.392 194.38C740.054 129.069 740.797 106.952 744.363 93.4446C745.253 90.6248 745.848 84.242 745.848 79.3433C745.848 59.8988 751.194 37.6337 760.694 17.4468C767.378 3.19714 769.158 2.60341 771.091 13.5875C772.423 20.5639 771.834 22.6419 769.459 19.228C766.783 15.5172 769.305 64.9456 772.724 84.9844C775.54 101.906 775.694 106.952 774.805 162.466C772.724 287.002 773.165 304.22 777.474 304.22C778.959 304.22 779.106 293.682 778.812 258.8C778.364 231.785 778.665 213.676 779.555 214.121C780.297 214.567 781.04 226.145 781.187 239.949C781.629 268.448 783.857 299.768 785.937 304.666C786.827 306.744 787.276 278.838 787.276 228.52C787.276 184.88 787.864 144.357 788.607 138.717C789.504 132.928 789.945 115.264 789.798 99.382C789.504 68.6564 788.165 58.4145 779.996 24.5716C773.761 -0.662136 770.349 -4.81828 763.216 4.68148ZM779.106 50.5475C784.901 80.0857 786.827 100.57 784.746 111.851C783.709 117.046 782.967 123.725 782.967 126.694C782.967 129.811 782.371 131.889 781.629 131.444C780.886 130.998 780.297 124.764 780.143 117.64C780.143 110.366 779.401 101.163 778.665 96.8591C777.768 92.7029 776.437 79.047 775.54 66.4299C774.503 53.9614 773.319 40.7508 772.577 37.04C771.238 30.0637 772.128 26.2043 774.209 29.9152C774.952 31.1026 777.026 40.454 779.106 50.5475ZM782.525 178.349C782.077 179.388 781.783 178.646 781.783 176.568C781.783 174.49 782.077 173.748 782.525 174.638C782.82 175.677 782.82 177.459 782.525 178.349ZM777.026 339.845C777.026 340.587 773.761 341.329 769.606 341.329C765.599 341.329 762.18 340.587 762.18 339.845C762.18 338.954 765.599 338.36 769.606 338.36C773.761 338.36 777.026 338.954 777.026 339.845ZM781.482 354.094C781.482 355.43 780.445 356.172 778.959 355.876C775.246 355.133 774.805 351.719 778.364 351.719C780.143 351.719 781.482 352.61 781.482 354.094ZM777.474 374.579C778.665 377.547 775.842 378.289 767.672 377.398C756.687 376.063 759.356 373.242 771.981 372.649C774.805 372.649 777.026 373.391 777.474 374.579ZM780.445 385.117C779.702 398.624 779.849 423.859 780.739 435.139C781.482 443.896 781.187 448.201 780.143 448.201C779.401 448.201 778.364 445.975 777.922 443.303C776.136 432.467 775.842 431.429 776.437 438.553C776.731 442.561 777.474 457.998 778.069 472.693C778.959 493.919 779.401 497.63 780.143 490.505C780.739 485.606 781.334 477.294 781.482 471.951L781.93 462.303L783.114 471.802C784.9 485.606 787.57 538.746 786.533 540.378C785.048 542.902 781.629 541.715 780.886 538.301C780.592 536.519 780.445 543.347 780.886 553.589C781.93 583.573 776.878 594.26 769.011 578.675L765.15 570.808V515.145C765.15 455.475 763.959 421.483 761.885 421.483C761.29 421.483 760.547 425.343 760.547 429.944L760.253 438.553L759.062 429.647C758.466 424.749 757.429 412.28 756.834 401.89L755.797 383.039L759.356 382.297C765.297 380.961 771.533 380.219 776.283 380.516C780.298 380.664 780.739 381.109 780.445 385.117ZM762.18 510.395C762.18 526.129 761.738 539.637 761.29 540.378C760.841 541.121 759.51 541.715 758.172 541.715C756.238 541.715 755.944 538.152 756.54 513.067C756.981 497.481 757.724 483.38 758.466 481.896C761.29 475.513 762.327 483.528 762.18 510.395ZM787.423 547.801C787.423 548.542 786.386 549.136 785.195 549.136C784.004 549.136 782.967 548.098 782.967 546.91C782.967 545.574 783.857 545.129 785.195 545.574C786.386 546.168 787.423 547.058 787.423 547.801ZM759.209 572.737C759.209 574.518 756.238 576.448 755.201 575.409C754.165 574.37 756.091 571.402 757.878 571.402C758.62 571.402 759.209 571.995 759.209 572.737ZM762.18 578.675C762.18 580.456 758.025 581.94 757.135 580.456C756.687 579.714 756.687 578.823 757.282 578.229C758.62 576.893 762.18 577.19 762.18 578.675ZM788.018 579.565C787.122 581.94 784.452 582.682 784.452 580.604C784.452 578.972 786.085 577.339 787.57 577.339C788.313 577.339 788.46 578.378 788.018 579.565ZM785.937 585.503C785.937 586.69 784.901 587.729 783.709 587.729C781.334 587.729 780.739 585.948 782.525 584.315C784.158 582.534 785.937 583.128 785.937 585.503ZM777.621 596.338C778.959 598.416 775.842 601.533 773.466 600.643C770.047 599.307 770.496 595.151 773.908 595.151C775.54 595.151 777.18 595.744 777.621 596.338Z" fill="#3F496A"></path><path d="M350.553 28.1332C326.501 33.1799 307.788 40.8985 296.949 50.3982C289.081 57.3746 286.853 58.4136 275.272 61.3823C270.228 62.7182 259.981 66.8744 252.854 70.585C236.225 79.1944 226.871 88.694 221.08 103.092C215.141 118.084 215.29 117.787 208.608 118.826C201.777 119.716 192.572 125.505 174.755 140.349C159.907 152.669 150.85 163.356 140.753 180.278C129.915 198.239 127.687 209.519 131.845 225.995C132.587 228.667 131.251 231.339 126.203 237.276C118.185 246.628 116.552 252.268 115.215 276.017C114.473 291.306 114.621 294.72 116.997 299.618C119.521 305.407 119.521 305.704 116.552 311.939C114.622 315.946 113.73 319.806 114.324 322.477C114.77 324.852 114.324 327.524 113.136 328.86C111.503 330.938 111.652 331.68 114.622 333.758C119.521 337.469 117.739 342.813 111.652 342.813C106.158 342.813 104.822 345.782 107.049 352.906C108.088 356.023 108.237 358.992 107.346 360.476C106.307 362.406 105.564 361.664 103.634 357.062C99.7734 347.711 99.1792 333.164 102.298 322.032C105.415 310.899 105.564 301.845 103.04 292.345C101.852 288.338 101.406 279.877 101.704 270.822C102.149 258.948 103.04 254.643 105.712 249.3C109.573 242.026 120.709 227.034 122.491 227.034C122.936 227.034 123.381 220.503 123.381 212.488C123.381 195.863 126.203 185.621 135.705 167.809C145.95 148.81 158.273 135.154 177.873 121.35C187.82 114.373 207.42 103.834 210.389 103.834C211.725 103.834 212.765 103.092 212.765 102.201C212.765 99.3815 202.372 102.201 192.126 107.693C167.777 121.053 148.919 139.013 131.399 165.88C117.294 187.699 115.661 192.597 116.7 209.371C117.442 221.542 117.294 222.878 114.176 226.737C109.127 232.823 101.852 246.776 99.1792 255.533C95.913 266.666 96.21 286.853 99.9219 298.876L103.04 308.673L99.1792 319.212C93.0923 336.43 94.4284 359.14 102.001 365.226C104.673 367.453 104.822 368.343 103.337 373.39C99.9219 385.116 99.6249 392.538 102.149 403.077C104.97 414.655 111.503 425.936 117.888 430.537C121.897 433.357 122.194 434.396 122.194 442.708C122.342 464.528 133.775 491.543 154.71 519.894C163.619 532.065 181.881 546.315 193.908 550.769C197.175 551.956 200.59 554.479 201.629 556.557C206.678 566.354 236.225 590.251 255.081 599.9C262.206 603.611 273.787 607.173 281.066 608.063C289.382 608.954 307.788 605.986 316.552 602.274C323.531 599.306 326.354 600.493 324.869 605.689C324.273 607.619 326.354 608.806 334.663 611.478C340.457 613.407 348.031 614.892 351.443 614.892C363.767 614.892 380.4 612.665 383.069 610.735C386.929 607.915 385.003 606.876 379.061 608.509C370.745 610.884 343.274 612.071 338.524 610.141C334.965 608.806 334.663 608.212 336.296 605.689C338.671 601.83 335.553 598.118 329.913 598.118H325.457L327.832 593.517C334.222 581.346 331.251 565.463 322.641 565.463C317.148 565.463 313.729 568.877 313.729 574.517C313.729 578.377 312.839 579.267 306.898 581.791C303.185 583.424 299.92 584.759 299.625 584.759C299.324 584.759 299.478 579.861 299.773 573.924C300.81 558.042 300.662 557.448 297.993 555.518C289.677 549.432 277.948 558.635 280.324 569.322C283.883 585.205 287.007 586.986 287.007 572.885C287.007 562.049 287.897 559.526 292.199 559.526C295.317 559.526 295.464 560.12 295.17 568.728C295.022 573.924 294.427 579.267 293.831 580.603C293.243 581.939 293.39 584.166 294.133 585.65C297.103 590.994 292.346 596.486 286.412 594.259C285.074 593.814 283.588 591.885 283.147 589.955C282.404 587.134 281.066 586.54 272.603 585.65C267.257 585.056 260.573 583.721 257.605 582.384C248.697 578.673 232.661 564.573 223.01 551.956C218.11 545.424 213.656 540.378 213.211 540.823C212.023 541.862 215.586 550.175 219.743 556.706C223.01 561.752 247.063 582.384 253.596 585.947C255.378 586.837 261.911 587.728 268.294 587.877C278.544 588.322 279.728 588.619 279.133 590.994C278.243 594.407 283.294 598.118 288.64 598.118C290.868 598.118 294.728 596.337 297.25 594.259L301.853 590.4L304.824 593.963C307.788 597.376 307.788 597.376 310.016 594.407C311.354 592.775 313.288 590.251 314.472 588.915C315.663 587.431 317.148 583.424 317.589 580.01C319.523 567.244 325.611 567.541 325.611 580.307C325.611 589.064 321.751 594.259 310.758 600.196C303.486 604.204 302.148 604.352 290.125 603.611C272.897 602.72 265.176 599.9 247.657 588.619C225.237 574.072 217.665 568.432 209.202 559.823C205.044 555.518 195.245 547.651 187.376 542.456C179.655 537.26 169.261 528.8 164.361 523.605C154.562 513.066 140.308 490.356 134.518 476.254C130.954 467.349 126.796 448.646 126.648 440.63C126.648 438.553 123.827 432.467 120.561 427.271C111.355 413.17 108.682 406.045 108.237 394.171C107.346 368.937 114.324 354.836 131.696 347.266C140.753 343.109 147.286 344.148 152.631 350.531C156.789 355.578 157.086 360.179 153.077 362.703C150.998 363.89 149.514 363.297 145.505 359.437C139.714 353.797 136.893 353.352 137.487 357.953C137.784 360.922 137.041 361.367 131.548 361.812C126.351 362.257 124.421 363.297 120.709 367.749C113.285 376.656 110.018 391.35 113.285 400.108L114.918 404.116L118.185 400.85C120.115 399.217 122.342 397.733 123.233 397.733C126.054 397.733 126.796 402.483 124.421 405.154C123.233 406.491 122.194 410.053 122.194 413.021C122.194 417.623 123.381 419.701 128.726 424.896C134.814 430.686 135.408 432.021 136.744 441.521C138.971 457.552 146.544 480.262 154.413 493.918C167.034 516.183 193.166 538.745 206.529 538.745H212.023L206.083 535.628C195.096 529.69 186.93 523.308 174.606 511.285C163.916 500.746 161.392 497.184 155.007 483.676C150.998 475.215 147.435 466.606 146.989 464.528C143.872 449.239 136.151 427.568 132.439 423.263C126.5 416.436 125.609 412.131 129.469 407.233C131.251 405.007 132.587 402.335 132.587 401.295C132.587 399.811 134.518 399.217 138.971 399.217C152.186 399.217 162.282 393.428 162.282 385.858C162.282 379.328 158.126 376.804 149.217 377.991C143.129 378.585 140.902 378.288 138.823 376.507C136.596 374.429 135.408 374.28 131.399 375.765C127.687 377.249 126.351 377.249 124.866 375.765C121.451 372.351 125.46 368.789 132.735 368.789C136.299 368.789 140.456 368.195 141.793 367.453C143.129 366.859 145.505 367.007 147.286 367.898C151.741 370.421 154.71 369.827 158.57 365.819C165.995 358.546 161.392 346.375 149.365 341.031C143.277 338.359 141.644 338.211 135.705 339.696C125.609 342.219 124.421 342.219 124.421 339.844C124.421 335.836 120.264 324.406 117.888 321.587C115.958 319.212 116.255 318.469 122.194 312.384L128.726 305.704L123.975 300.806C119.224 295.908 119.224 295.759 119.224 280.916C119.224 261.768 121.154 252.862 127.093 243.956C137.635 228.222 137.19 229.706 135.557 220.652C130.36 193.34 159.313 152.075 201.036 127.435C212.468 120.607 215.883 120.459 217.22 126.842C220.337 141.833 232.958 149.997 241.867 142.724C248.697 137.232 246.47 130.553 237.858 130.553C235.482 130.553 233.552 130.404 233.552 130.107C234.294 124.912 239.491 110.514 240.828 110.068C241.718 109.771 243.203 111.553 244.094 114.225C245.43 117.935 246.47 118.678 248.993 118.084C250.924 117.638 254.042 118.529 256.566 120.162C266.367 126.545 272.603 121.943 268.294 111.405C265.477 104.28 258.348 99.3816 250.924 99.3816C247.954 99.3816 245.282 98.7876 244.837 98.0452C243.351 95.8186 257.754 84.8348 268 80.2331C273.198 77.8587 280.765 75.4836 284.779 74.8897C289.53 74.1473 294.28 72.2176 297.846 69.2493C308.684 60.7886 313.876 57.8199 323.082 54.8512C335.259 51.1404 356.789 47.4296 367.627 47.4296C380.4 47.4296 414.548 51.8826 421.379 54.4059C424.643 55.5934 428.357 56.6324 429.541 56.6324C430.732 56.6324 440.828 56.0387 451.96 55.445C471.262 54.4059 487.447 56.1871 487.447 59.1558C487.447 59.8979 484.63 61.5307 481.358 63.1635C472.895 66.8744 467.402 75.1867 468.74 82.4597C470.373 90.4752 472.601 94.4829 476.608 96.264C478.542 97.155 480.77 97.8967 481.512 97.8967C484.63 97.8967 487.447 92.8502 487.447 87.3583C487.447 81.8665 489.233 79.7883 491.16 83.0536C491.608 83.7961 493.388 84.5378 495.02 84.5378C497.101 84.5378 497.844 83.4991 497.844 80.827C497.844 76.6708 502.594 71.1789 506.006 71.1789C507.197 71.1789 508.234 72.3661 508.234 73.9995C508.234 75.4836 507.197 77.5617 506.006 78.6005C502.888 81.124 503.189 84.0924 506.749 85.2802C510.91 86.6159 510.462 88.694 505.712 90.7721C495.469 95.0768 491.755 103.538 497.543 108.733C503.484 114.076 515.808 109.92 521.602 100.569C524.124 96.4125 524.565 93.5927 524.271 83.0536L523.977 70.4365L530.955 70.585C539.713 70.585 541.646 72.3661 539.271 77.5617C536.889 82.7567 539.566 86.022 546.095 86.022C551.588 86.022 556.492 89.288 559.162 94.9284C560.353 97.3034 565.698 101.014 574.309 105.319C587.67 111.998 604.744 122.686 604.744 124.467C604.744 124.912 606.972 127.732 609.648 130.553C629.693 152.224 651.223 192.301 655.973 216.644C656.414 218.573 659.98 223.621 663.988 227.628C670.966 234.753 676.017 243.511 676.017 248.557C676.017 249.744 674.532 252.268 672.753 254.049C668.738 258.057 670.819 261.916 677.054 262.065C679.429 262.065 682.106 262.659 683.143 263.252C685.224 264.588 685.518 276.017 683.437 276.017C682.694 276.017 678.834 273.939 674.974 271.564C669.334 268.002 666.363 267.112 659.686 267.112C650.921 267.112 648.399 268.299 644.245 274.533C641.568 278.541 640.973 288.635 643.348 290.119C646.024 291.751 650.774 289.228 650.774 286.408C650.774 284.775 652.112 282.846 653.598 281.955C657.458 279.877 657.752 280.025 658.642 283.587C659.385 286.408 660.128 286.705 666.069 285.814C671.113 285.072 673.047 285.369 674.532 287.15C677.201 290.416 673.194 294.423 666.664 294.868C664.135 295.017 658.642 295.759 654.488 296.353C648.252 297.392 646.914 298.134 645.73 301.696C644.539 304.962 644.833 306.447 647.362 309.86C651.664 315.649 662.208 316.095 675.128 310.899C677.356 309.86 677.65 310.157 676.907 312.68C675.275 317.579 677.356 320.102 684.334 321.884C687.893 322.774 690.864 324.11 690.864 324.703C690.864 328.266 683.29 343.703 679.878 347.414C675.87 351.719 675.716 352.164 675.87 368.492C676.017 383.038 675.422 390.757 672.451 412.577C671.267 419.998 663.245 441.669 657.9 451.021C650.179 464.973 627.016 492.137 618.553 497.332C614.104 500.152 613.656 501.043 614.398 504.902C615.582 509.8 612.023 516.48 608.457 516.48C607.273 516.48 604.898 517.816 603.259 519.448C600.736 521.972 599.699 522.12 597.177 520.933C590.493 517.222 587.074 527.464 593.015 533.698C596.434 537.409 595.692 540.229 591.236 540.229C589.155 540.229 588.412 539.19 588.412 536.073C588.412 525.237 581.287 513.066 571.934 508.168C569.706 507.129 564.809 506.089 561.095 506.089C555.75 506.089 553.97 506.832 551.441 509.949C549.661 512.175 548.323 515.144 548.323 516.629C548.323 520.636 553.669 523.605 559.61 522.863C564.956 522.12 566.14 523.753 562.434 526.871C559.015 529.69 559.61 531.027 566.14 534.292C571.338 536.964 572.081 538.003 572.081 542.605C572.081 547.502 571.787 547.799 568.074 547.354C564.809 547.057 563.765 546.018 563.176 542.605C562.728 540.229 561.243 537.557 559.757 536.667C557.529 535.331 556.492 535.776 553.375 539.487C550.404 543.198 549.514 543.643 548.323 541.714C547.581 540.526 546.838 537.409 546.838 534.886C546.838 528.652 544.021 526.277 538.676 528.355C529.47 531.917 528.58 540.229 536.448 548.393C540.904 552.994 551.294 557.596 551.294 555.073C551.294 554.331 548.029 551.956 544.021 549.878C535.257 544.979 532.286 540.378 534.668 535.035C535.852 532.511 537.632 531.323 540.161 531.323C543.279 531.323 543.867 532.066 543.867 535.331C543.867 540.972 549.066 549.135 552.632 549.135C554.86 549.135 555.449 548.096 555.154 544.237C555.007 538.151 559.162 537.557 559.904 543.643C560.353 546.612 561.691 548.245 565.551 549.878L570.743 551.956L567.478 558.338C565.698 561.901 563.323 565.908 561.985 567.244C559.904 569.768 559.463 569.619 554.713 564.721C551.889 561.901 548.772 559.526 547.728 559.526C544.168 559.526 542.235 563.533 543.132 568.877C544.021 573.627 543.72 574.221 538.529 577.189C534.22 579.861 531.55 580.307 526.947 579.713C520.116 578.673 518.925 579.267 504.374 590.251C481.66 607.619 459.24 614.595 425.827 614.892C407.569 615.04 404.003 614.743 397.025 611.775C392.569 609.993 388.562 608.954 388.12 609.251C385.15 612.368 407.422 620.383 418.849 620.383C447.953 620.383 500.366 602.571 513.881 588.025C519.962 581.642 520.558 581.346 524.719 582.83C530.212 584.908 537.786 582.978 544.021 577.783C547.882 574.369 548.47 573.182 547.581 568.877C546.992 565.166 547.139 563.979 548.919 563.979C551.588 563.979 554.264 568.432 554.264 572.885C554.264 576.002 554.264 576.002 558.868 573.33C567.478 568.284 576.537 552.994 576.537 543.643C576.537 536.519 575.199 534.441 569.853 533.104C564.809 531.769 563.022 528.355 567.331 528.355C572.228 528.355 574.015 524.792 570.743 521.675C567.625 519.004 563.618 518.558 556.934 520.191C553.073 521.23 552.779 520.933 552.779 516.777C552.779 511.878 557.235 507.574 562.132 507.574C566.882 507.574 575.647 513.363 579.508 519.004C582.773 523.902 583.214 525.831 583.067 538.597C583.067 546.464 582.177 555.221 581.14 558.338C576.684 571.549 550.852 587.431 531.698 588.915C522.491 589.509 521.153 590.103 514.028 596.041C509.866 599.752 498.285 606.728 488.336 611.626C471.417 619.938 469.189 620.68 450.328 623.501C428.651 626.766 411.283 626.469 397.768 622.462C392.275 620.977 387.525 620.68 377.723 621.72C359.612 623.649 343.722 621.72 328.575 615.93C321.597 613.259 315.067 610.438 314.03 609.548C312.986 608.806 311.802 608.509 311.354 608.806C309.427 610.735 329.619 622.165 340.605 625.431C350.553 628.399 368.517 628.399 379.804 625.431C387.672 623.501 389.606 623.352 396.878 625.431C415.29 630.329 425.239 631.071 438.6 628.696C445.431 627.36 453.151 626.024 455.527 625.727C464.586 624.688 472.005 622.907 477.799 620.383C496.359 612.368 513.138 603.314 519.072 598.118C523.823 593.814 527.095 592.181 530.507 592.181C536.889 592.181 555.897 585.65 563.471 580.9C571.934 575.557 579.206 568.58 583.368 562.198C585.596 558.635 588.118 556.557 589.898 556.557C604.001 556.557 625.384 531.027 625.531 514.105C625.531 508.465 625.979 507.871 631.472 505.348C638.45 502.23 651.223 489.465 659.98 477.294C665.473 469.427 668.591 462.895 681.216 432.615C687.746 416.881 694.128 386.007 694.43 368.046C694.724 355.874 695.319 352.758 698.879 345.485C706.305 330.492 705.71 312.68 697.246 293.978C694.128 287.15 693.981 285.22 695.172 278.392C696.658 270.229 695.614 262.213 691.606 250.041C688.488 240.69 680.319 225.995 675.422 220.8C672.599 217.832 671.562 215.16 671.562 210.558C671.562 201.058 666.51 186.067 658.642 172.411C638.598 137.826 614.104 110.662 592.868 99.3816C585.89 95.6708 578.317 92.4048 575.794 91.9593C572.228 91.3661 570.743 89.7334 568.074 84.3893C561.838 71.3274 548.919 61.9761 529.764 57.0778C525.014 55.8903 519.073 54.8512 516.845 54.8512C514.028 54.8512 510.763 52.9216 506.307 48.3201C498.881 41.0469 487.601 36.5939 470.373 34.3674C457.902 32.7346 451.666 33.1799 442.607 36.1486C436.078 38.5235 435.629 38.3751 429.099 34.8127C412.768 25.6098 376.981 22.6411 350.553 28.1332ZM404.893 33.4767C411.43 34.8127 420.636 37.3361 425.239 39.2657C432.511 42.2344 434.739 42.5312 440.232 41.1953C455.232 37.7814 491.608 43.5703 503.337 51.1404C507.793 54.1091 506.749 55.8903 499.329 57.0778C494.726 57.8199 492.498 57.3746 489.233 54.9996C480.917 49.2108 452.115 47.2811 436.225 51.5856C432.96 52.4763 430.136 52.1794 425.827 50.2498C411.43 43.8672 375.642 39.5625 356.046 41.789C337.935 43.8672 311.501 53.07 304.67 59.6011C293.089 70.585 291.758 71.1789 280.618 71.1789C270.375 71.1789 269.184 71.4759 258.793 78.0072C239.788 89.5849 235.928 94.9284 233.552 113.779C232.661 120.162 231.622 126.842 231.325 128.771C230.731 131.294 231.473 132.779 235.037 134.709C240.234 137.677 240.531 138.865 236.522 140.201C226.128 143.466 217.962 122.537 223.455 106.655C226.425 97.7489 234.74 86.3189 242.015 80.9755C250.182 75.0382 269.184 66.5775 280.765 63.7573C285.522 62.7182 292.052 59.4527 297.398 55.445C327.244 33.4767 364.657 25.9067 404.893 33.4767ZM531.102 61.0854C534.367 61.8276 538.374 63.3119 540.007 64.351C560.5 76.9678 563.618 79.4914 566.735 85.8742C569.412 91.3661 570.897 92.8502 576.537 94.6314C580.25 95.8186 585.743 98.4906 588.714 100.42C591.831 102.201 594.949 103.834 595.692 103.834C596.435 103.834 600.883 106.803 605.788 110.365C613.361 116.154 627.465 132.185 639.046 148.365C651.223 165.286 665.032 191.41 666.363 199.574C666.664 201.949 667.407 206.55 667.848 209.519C668.297 212.488 670.966 218.276 673.642 222.136C680.319 231.932 684.032 239.355 687.746 250.487C691.312 261.619 693.386 281.064 691.158 282.549C688.488 284.181 687.15 280.025 687.599 271.119C688.04 264.291 687.452 261.768 684.775 258.057C681.657 253.604 681.657 253.604 679.429 256.573C677.503 259.393 673.047 260.877 673.047 258.799C673.047 258.354 674.385 255.979 676.017 253.604C680.621 247.222 677.944 238.909 667.848 228.816C660.576 221.542 659.833 220.058 658.201 211.003C653.892 186.215 633.252 149.849 609.942 126.099C601.927 117.787 582.772 105.467 571.633 101.163C563.618 98.1937 561.691 96.7095 561.691 93.5927C561.691 88.3971 556.044 84.5378 548.47 84.5378C543.132 84.5378 540.904 83.9446 540.308 82.0142C539.271 79.4914 541.646 77.1163 545.205 77.1163C548.624 77.1163 543.867 72.5146 537.19 69.5461C528.426 65.5385 506.307 65.6869 499.623 69.6946C496.954 71.3274 493.241 72.6631 491.307 72.6631C485.667 72.6631 482.402 77.5617 483.586 84.5378C484.329 89.288 484.035 90.7721 482.101 91.5146C478.689 92.8502 476.02 89.1395 474.976 81.2725C473.939 74.8897 474.233 73.9995 478.395 69.9917C482.844 65.8353 493.241 61.9761 506.749 59.4527C513.727 58.1167 521.448 58.7105 531.102 61.0854ZM521.006 74.8897C521.602 76.9678 521.602 82.4597 521.3 87.0614C520.705 94.3344 519.815 96.1156 515.212 100.272C508.234 106.655 502.594 108.287 499.77 104.428C496.653 100.123 497.991 97.4519 504.969 94.3344C511.947 91.0691 514.175 86.6159 511.506 80.827C508.977 75.3351 510.91 71.1789 515.808 71.1789C519.072 71.1789 520.264 72.0698 521.006 74.8897ZM255.675 105.912C259.833 108.139 264.735 114.225 264.735 117.194C264.735 120.013 258.793 118.678 255.527 114.967C253.745 112.889 251.221 111.553 250.033 111.85C248.697 112.295 246.173 110.662 244.242 108.139L240.679 103.834H246.173C249.142 103.834 253.448 104.873 255.675 105.912ZM676.017 275.72C684.033 279.58 688.783 285.22 696.062 299.767C701.408 310.009 701.555 311.048 700.959 321.884C700.518 329.751 699.033 335.985 696.062 342.813C692.944 350.234 691.606 356.171 690.716 368.046C690.121 376.656 688.937 386.304 688.194 389.569C687.297 392.835 685.966 399.069 685.076 403.522C681.657 420.444 672.451 447.607 664.731 463.935C660.87 472.246 645.429 491.098 636.524 498.371C629.693 504.011 621.524 508.019 619.597 506.832C616.325 504.902 618.553 501.933 627.906 495.847C639.487 488.277 643.649 483.825 651.068 471.802C659.238 458.294 674.084 422.225 676.613 409.608C682.4 379.624 683.143 369.976 680.473 358.398C679.282 352.906 679.429 352.312 684.922 346.375C688.937 341.922 691.011 337.915 692.496 331.977C694.724 321.884 693.239 319.509 685.224 318.766C680.915 318.469 679.731 317.727 679.731 315.352C679.731 312.829 680.621 312.384 685.518 312.532L691.158 312.68L690.268 306.298C688.488 292.494 677.054 281.064 666.811 282.697C661.017 283.439 659.833 282.4 662.951 279.283C664.289 277.947 663.988 277.353 662.061 276.611C660.429 276.017 657.157 277.205 652.855 280.322C649.142 282.846 645.576 284.923 644.833 284.923C640.23 284.923 647.509 272.01 652.554 271.267C658.642 270.377 669.186 272.307 676.017 275.72ZM682.547 294.275C684.922 297.986 680.473 304.369 672.753 308.228C662.503 313.571 650.774 312.087 650.774 305.704C650.774 303.329 651.517 302.884 655.23 303.626C657.9 304.22 659.686 303.923 659.686 303.032C659.686 302.142 662.65 300.954 666.363 300.361C673.495 299.321 677.503 296.65 677.503 292.791C677.503 290.119 680.473 290.86 682.547 294.275ZM687.893 304.962C687.893 307.931 687.15 308.673 684.18 308.673C680.025 308.673 679.878 308.228 681.952 304.072C684.18 299.915 687.893 300.509 687.893 304.962ZM114.77 351.719C114.77 352.461 113.73 353.203 112.543 353.203C111.355 353.203 110.316 352.461 110.316 351.719C110.316 350.828 111.355 350.234 112.543 350.234C113.73 350.234 114.77 350.828 114.77 351.719ZM125.609 379.179C127.242 380.218 129.32 380.812 130.212 380.515C131.251 380.069 133.032 380.812 134.072 382.147C136.299 384.819 148.919 385.265 151.592 382.593C154.264 379.921 156.64 383.929 154.71 387.639C152.928 390.905 142.387 393.874 136.151 392.835C133.626 392.389 130.805 392.538 130.212 393.132C129.469 393.874 126.054 394.022 122.639 393.577C116.997 392.983 116.255 392.538 116.255 389.273C116.255 385.413 120.115 376.952 121.897 376.952C122.491 376.952 124.124 377.991 125.609 379.179ZM621.376 518.41C614.398 534.292 600.589 549.878 591.089 552.994C587.228 554.182 586.633 553.291 587.817 548.542C588.412 545.87 590.493 543.792 593.758 542.456C599.104 540.229 602.222 535.628 599.104 534.589C595.839 533.55 592.721 529.542 593.163 527.168C593.464 525.534 595.391 524.644 599.104 524.644C602.074 524.495 605.641 523.308 606.972 521.972C608.31 520.488 610.391 519.448 611.428 519.448C612.619 519.448 614.693 517.667 616.178 515.293C621.972 506.238 625.685 508.465 621.376 518.41Z" fill="#3F496A"></path><path d="M39.1981 36.1355C37.862 37.6198 37.2679 55.5802 37.1194 99.5164C36.8223 154.585 36.5252 160.968 34.4472 161.414C32.517 161.711 31.9229 159.781 31.1802 149.539C30.5861 142.711 29.25 123.563 28.0625 106.79C26.7257 90.0168 25.6867 67.1581 25.6867 55.8771C25.6867 35.6901 24.3506 30.9402 21.2322 39.401C20.3417 41.6275 19.7476 67.3065 19.7476 101.743C19.7476 152.359 19.4505 160.226 17.5203 160.226C14.996 160.226 13.6599 155.625 14.1055 149.093C14.254 146.57 13.8084 136.328 13.2143 126.086C12.4724 115.844 12.0268 92.6888 12.0268 74.5798C12.0268 44.1508 11.2841 37.4713 8.3149 40.5884C6.08764 42.815 3.11774 74.5798 2.67285 102.337C2.37579 119.11 1.63314 144.492 1.03901 158.741L0 184.718L4.00893 192.436C6.08766 196.741 7.86932 202.233 7.86932 204.608C7.86932 211.139 10.0966 216.037 16.9262 224.052C22.1234 230.138 23.1624 232.662 24.3506 241.419C28.3595 269.919 27.1713 299.605 21.5292 306.137C19.599 308.214 19.599 309.55 21.0836 314.3C22.7168 319.05 22.7168 320.831 20.9351 324.394C16.4813 333.3 14.6996 345.323 16.4813 353.339C18.8564 363.284 18.7086 367.291 16.0357 369.517C14.4026 370.854 14.2541 372.041 15.4416 374.267C18.4115 379.759 14.5511 436.906 9.50246 463.773C7.57226 474.015 8.46346 486.186 12.3239 504.741L15.7386 520.623L10.3936 533.685C-2.52434 565.599 -0.742678 580.59 17.6688 598.996C27.0227 608.199 34.1501 611.168 40.6827 608.347C48.2556 605.23 60.7273 589.051 64.2906 577.919L67.2605 567.974L61.9156 550.162C56.7184 532.795 56.5698 531.756 57.461 515.131C57.9066 505.631 58.7971 493.756 59.2427 488.71C59.8368 482.773 59.2427 475.796 57.7581 469.414C54.7882 456.054 52.5609 434.383 51.0763 404.844C49.8888 381.986 50.0373 380.353 52.858 375.158C55.3823 370.408 55.6793 368.924 54.1947 365.807C52.858 362.838 52.7095 359.721 54.0463 352.596C55.5309 344.729 55.3823 342.651 53.4521 338.94C47.6615 328.104 46.6218 324.69 46.7703 315.042C46.7703 309.402 45.8798 298.269 44.6916 290.106C43.3555 281.199 42.4643 266.356 42.6129 252.849L42.7614 230.435L49.8887 219.896C53.7491 213.959 56.8669 207.577 56.8669 205.646C56.8669 203.717 59.0942 197.483 61.6185 191.991C66.3694 182.045 66.5179 181.155 66.5179 161.711C66.5179 150.726 65.3304 130.243 63.9943 116.438C62.509 102.485 61.3214 83.1892 61.1729 73.3926C61.0244 63.5957 60.4303 51.5726 59.8368 46.6743L58.7971 37.7682L58.3515 50.3851C58.203 58.6974 57.6096 61.666 57.0154 59.2911C55.2338 53.6506 53.6006 97.142 54.1947 130.836C54.4911 152.507 54.1948 160.523 52.858 161.859C51.819 162.898 50.6307 163.343 50.0373 162.898C48.552 161.265 45.1372 135.289 43.6526 113.469L42.3165 92.6888L42.7614 123.117C43.5041 163.195 44.6916 168.835 51.9675 167.351C55.6793 166.608 56.7184 159.484 57.0154 129.797C57.164 104.564 58.5001 104.415 60.2817 129.055C60.7273 134.399 61.767 145.68 62.6575 154.141C65.0333 175.96 61.6185 191.694 53.7492 195.998C51.2248 197.335 50.7792 198.522 51.5219 202.084C52.116 205.35 51.0763 208.764 46.9189 216.482L41.4253 226.576H32.9619C23.6079 226.724 22.1234 225.537 15.293 212.178L12.0268 205.646L14.996 203.124L18.1144 200.748L14.4026 197.186C5.93914 189.319 5.79058 188.28 5.93911 125.344C5.93911 57.5099 8.3149 40.1432 9.94804 94.6184C10.5422 113.618 10.6907 129.649 10.2451 130.243C9.79954 130.984 10.2451 138.407 11.2841 147.015C13.0658 162.007 13.2143 162.452 16.7776 162.452C21.6778 162.452 22.2719 159.187 22.7168 132.765L23.1624 111.985L25.0925 134.992C27.3198 159.632 28.953 166.164 33.1104 166.164C39.6437 166.164 39.7922 164.382 39.1981 105.454C39.0496 74.7283 39.1981 50.0882 39.6437 50.5335C40.2378 50.9788 41.1283 57.6584 41.8709 65.3769L43.0584 79.3299L43.3555 57.5099C43.5041 36.2839 42.6129 31.9793 39.1981 36.1355ZM24.2021 75.767C24.2021 97.142 23.7565 108.126 22.7168 107.532C20.6388 106.345 20.6388 42.9634 22.7168 42.9634C23.608 42.9634 24.2021 54.8381 24.2021 75.767ZM37.4164 239.638C35.4862 249.286 36.8223 270.513 40.5341 288.028C44.3945 306.137 44.3946 307.621 40.2378 306.284C38.3076 305.691 34.7435 305.394 32.0714 305.543C29.5471 305.691 27.0227 305.246 26.7257 304.652C26.4293 303.91 27.3198 294.114 28.8044 282.684C32.0714 257.45 32.2199 249.138 29.5471 240.38L27.6169 233.701L32.2199 232.068C34.7436 231.178 37.2679 230.732 37.862 231.325C38.4554 231.771 38.1591 235.482 37.4164 239.638ZM38.0105 311.926C38.6039 313.41 39.0495 313.41 40.6827 311.926C43.5041 309.254 45.4342 309.699 44.2467 312.667C43.504 314.151 42.6129 318.308 42.168 322.018L41.2768 328.698L33.259 329.144C28.8044 329.441 24.647 328.995 24.0535 328.401C23.3109 327.66 23.7565 324.245 24.7955 320.683C25.9838 316.675 27.1713 314.745 27.7654 315.785C29.25 318.308 31.6258 316.527 31.6258 312.964C31.6258 309.847 36.8223 308.957 38.0105 311.926ZM38.7525 332.409C40.6826 332.409 44.2467 334.487 46.7703 336.862C51.2248 341.315 51.2248 341.612 50.3336 352.151C49.7402 358.088 49.2946 364.619 49.2946 366.846C49.2946 371.447 46.4732 372.338 43.504 368.776C42.168 367.143 42.0194 364.174 43.207 356.604C44.9887 343.987 43.8011 341.315 36.3774 341.315C26.5779 341.315 23.6079 346.065 25.0925 359.127C25.8352 365.361 25.5382 368.627 24.2021 370.26C21.0836 373.97 20.3417 372.783 20.1932 363.877C20.1932 359.276 19.599 352.151 19.0049 348.143C17.8174 341.018 17.9659 340.721 23.4594 335.823C27.4683 332.261 30.1412 330.925 32.2199 331.519C34.0016 331.964 36.8223 332.409 38.7525 332.409ZM39.9407 355.417C40.2378 370.557 40.2378 370.557 43.8011 373.822C46.7703 376.643 46.9188 378.424 47.3644 402.47C47.513 419.094 48.8491 435.719 50.7793 449.375C52.5609 461.101 53.6006 471.195 53.155 471.937C52.4124 473.273 47.9586 474.163 47.9586 472.976C47.9586 472.827 47.2159 468.671 46.4733 463.773C44.2467 450.711 42.6129 432.453 41.1283 403.954C40.5341 392.673 40.8312 386.588 41.8709 385.251C43.8011 383.025 42.6129 378.424 40.0893 378.424C39.1981 378.424 37.2679 379.611 35.7833 380.947C33.1104 383.322 32.6648 383.322 28.6559 380.799C23.7565 377.978 23.4594 378.127 25.8352 383.47C26.8742 385.697 29.25 387.626 31.7744 388.072C36.8223 389.259 37.1194 390.15 38.1591 408.852C40.2378 442.25 42.3165 462.882 44.3946 469.858C46.3247 476.984 46.1769 478.022 43.3555 484.405C41.1283 489.6 40.5342 493.608 40.8312 501.179L41.2768 511.271L43.0584 499.694C44.8401 489.452 47.3644 482.179 49.4432 482.327C49.8888 482.327 51.2248 483.218 52.7095 484.257C54.9367 486.038 54.7882 487.226 51.6704 500.139C49.1461 510.827 47.6615 514.389 45.7313 514.686C44.2467 514.983 42.6129 514.389 41.8709 513.201C40.8312 511.568 40.5341 511.717 40.5341 513.35C40.5341 514.537 39.0495 517.061 37.4164 518.842C34.4472 521.959 34.0016 522.107 30.7346 520.029C28.953 518.694 25.8352 517.951 24.0535 518.248C21.0836 518.694 20.4902 517.506 17.2232 504.592C13.0658 487.967 13.2143 483.218 17.6688 482.624C20.3417 482.179 21.3807 483.367 23.3109 489.155C24.647 493.015 25.6867 498.803 25.6867 501.92C25.6867 508.749 28.5081 509.49 28.953 502.663C29.3985 494.499 28.6559 489.155 26.2808 483.218C24.647 478.913 24.3506 475.203 25.0925 469.858C25.6867 465.703 26.4294 460.953 26.5779 459.32C27.4684 452.789 27.0228 411.227 25.9838 402.173C25.2411 395.79 24.9441 403.954 24.9441 426.664C24.9441 461.398 23.4594 473.421 19.1535 473.421C15.1445 473.421 13.5114 469.562 15.1445 463.476C16.6298 458.132 20.1931 388.814 19.302 382.283C19.1534 380.502 20.6387 378.572 23.4594 376.94C29.6956 373.525 31.4773 365.955 28.0625 356.901C25.0926 349.479 26.1323 346.51 32.0714 345.323C39.3466 343.838 39.7922 344.581 39.9407 355.417ZM50.0373 521.81C50.4822 523.146 50.9278 525.67 50.9278 527.451C50.9278 529.232 51.6704 531.459 52.5609 532.35C55.2338 535.021 61.3214 559.958 61.3214 568.271C61.3214 573.317 60.2817 578.66 58.3515 582.371C55.5308 588.457 45.7313 599.59 43.3555 599.59C41.7224 599.59 39.0495 594.543 39.0495 591.278C39.0495 588.012 43.3555 583.262 46.3247 583.262C48.1071 583.262 48.1071 583.708 46.7703 585.043C45.7313 586.082 44.9887 588.16 44.9887 589.793C44.9887 592.316 45.5828 592.019 48.2557 588.012C50.9278 583.708 51.0763 582.52 49.4432 579.551C47.81 576.582 47.9586 575.544 50.7793 571.684C54.1948 566.934 54.9367 558.177 52.4124 553.427C49.5917 548.38 47.9586 550.459 47.9586 559.067C47.9586 565.302 47.0674 569.012 44.2467 573.763C41.1283 579.106 39.7922 579.997 34.595 580.59C29.25 581.036 28.3595 580.59 23.4594 574.801C17.3717 567.528 15.7386 561.591 17.9659 555.059C20.1932 548.677 17.2233 549.271 14.4026 555.802C11.2841 563.372 11.8782 566.637 16.7776 571.684C20.9351 575.841 21.2322 576.434 19.0049 578.809C15.8872 582.223 16.1842 582.965 20.1932 582.223C22.569 581.778 24.2021 582.668 26.1323 586.23C29.1015 591.278 28.5081 598.105 25.2411 598.105C22.5689 598.105 16.4813 591.278 11.4326 582.52C7.72077 576.138 7.12667 573.763 7.42373 564.708C8.01786 544.224 16.1843 529.974 24.9441 533.982C29.5471 536.06 29.3986 540.662 24.9441 541.404C19.4505 542.295 13.957 544.966 13.0658 547.193C12.3238 549.271 12.6209 549.271 14.6996 547.49C17.5203 545.263 33.2589 545.411 37.7134 547.786C40.0892 548.974 41.1283 548.38 43.6526 543.927C45.4342 541.107 47.6615 538.732 48.849 538.732C50.0373 538.732 50.9278 537.99 50.9278 537.247C50.9278 535.021 46.0284 535.466 42.3165 538.138C39.1981 540.216 39.0495 540.216 39.0495 537.396C39.0495 535.615 39.6436 534.279 40.3863 534.279C41.1282 534.279 43.6526 533.537 46.0284 532.498L50.1858 530.865L44.9887 529.974C41.4253 529.38 39.6436 528.193 39.3466 526.264C38.3076 520.92 48.1071 516.764 50.0373 521.81ZM28.0625 526.412C29.1015 528.639 30.1412 529.232 31.1802 528.193C32.2199 527.154 33.2589 527.451 34.595 529.084C37.862 532.943 34.1501 535.318 29.5471 532.201C27.4684 530.865 23.7565 529.826 21.2322 529.826C16.1842 529.826 15.5901 528.193 19.1535 524.631C22.2719 521.513 25.9838 522.256 28.0625 526.412ZM37.2679 590.684C37.5649 593.504 38.4554 596.77 39.3466 597.66C42.168 601.074 39.4951 604.34 34.2987 603.746C28.953 603.301 28.8044 602.855 31.0317 590.238C32.2199 582.817 36.5252 583.114 37.2679 590.684Z" fill="#3F496A"></path><path d="M40.4819 559.37C40.4819 563.378 40.037 567.98 39.5914 569.464C38.9973 571.542 39.4429 571.393 41.8187 568.573C44.9364 565.159 45.8276 559.073 44.0459 554.472C42.2642 549.722 40.4819 552.246 40.4819 559.37Z" fill="#3F496A"></path><path d="M22.8365 559.673C22.6879 562.494 23.7276 566.205 24.9152 567.837C27.588 571.251 27.588 571.103 24.9152 561.751C22.985 554.627 22.8365 554.478 22.8365 559.673Z" fill="#3F496A"></path><path d="M384.266 130.111C361.251 131.151 323.684 140.65 316.558 147.329C314.779 148.963 305.867 154.306 296.808 159.204C280.33 167.962 263.108 179.54 252.119 189.188C248.853 192.008 245.735 194.383 245.141 194.383C244.696 194.383 241.726 197.946 238.608 202.102C235.49 206.407 230.441 212.789 227.472 216.203C224.354 219.617 218.712 228.523 214.851 236.241C193.025 279.732 186.789 328.864 197.034 376.957C202.825 404.714 217.524 439.001 234.45 464.532C241.874 475.962 261.917 495.704 274.388 504.164C292.653 516.336 318.492 527.913 339.721 533.406C359.17 538.304 428.51 540.53 443.51 536.671C452.716 534.296 498.144 512.476 508.247 505.649C511.953 503.125 523.983 492.289 534.968 481.602C545.954 470.915 559.469 458.892 564.962 455.032C573.131 449.392 575.653 446.572 578.918 439.595C580.999 434.994 585.602 425.049 589.161 417.776C599.558 396.253 600.301 393.878 605.051 365.824C609.059 341.481 609.507 337.176 608.617 316.841C607.573 289.974 604.161 273.646 597.036 261.92C595.551 259.397 594.36 256.725 594.36 255.686C594.36 251.679 570.756 216.796 562.44 208.484C557.535 203.586 549.815 195.422 545.513 190.227C531.704 174.048 514.034 163.064 467.709 141.837C450.635 134.119 412.921 128.775 384.266 130.111ZM433.113 135.01C442.915 136.642 477.952 150.298 494.879 159.204C500.968 162.47 510.027 168.11 514.924 171.673C519.828 175.383 527.395 179.985 531.556 181.915C537.344 184.587 541.057 187.704 545.66 194.086C549.072 198.687 555.609 207 560.212 212.343C570.16 224.218 584.411 248.116 592.58 266.373C603.419 290.568 606.389 318.177 601.786 353.207C596.588 393.729 595.102 398.776 580.403 425.197C572.087 440.041 569.271 443.603 548.329 464.532C530.071 482.79 522.645 489.024 512.696 494.961C505.718 498.969 497.401 504.609 494.137 507.578C484.489 516.187 483.599 516.633 469.342 520.492C461.768 522.57 450.93 525.539 445.142 527.023C439.496 528.656 428.068 530.585 419.899 531.476C411.73 532.218 401.34 533.257 396.884 533.702C388.722 534.593 384.413 533.851 339.721 524.648C305.573 517.672 303.492 516.781 281.815 499.266C258.95 481.008 241.281 462.751 235.786 451.916C233.411 447.165 228.363 438.111 224.651 431.877C220.939 425.791 217.079 417.776 215.89 414.065C214.851 410.354 212.624 404.565 211.139 401.3C205.943 390.167 202.379 372.355 200.152 346.676C197.183 313.575 197.331 306.005 201.043 287.748C204.458 270.381 213.812 245.296 219.454 238.616C221.385 236.241 224.354 231.492 225.838 228.078C227.472 224.663 231.333 218.429 234.747 214.274C243.507 203.141 281.962 170.782 293.102 164.845C298.293 162.173 306.911 156.978 312.25 153.564C321.757 147.329 323.985 146.587 353.383 140.353C364.074 137.978 369.119 137.088 382.781 135.01C393.766 133.377 423.017 133.377 433.113 135.01Z" fill="#3F496A"></path><path d="M368.965 144.8C362.134 146.581 352.332 150.737 352.332 151.777C352.332 152.667 377.274 149.847 388.855 147.62C402.223 145.097 424.194 144.8 433.253 146.878C438.452 148.066 438.893 147.917 436.518 146.136C432.805 143.464 423.9 142.573 398.363 142.722C384.995 142.722 373.862 143.464 368.965 144.8Z" fill="#3F496A"></path><path d="M321.318 158.157C311.075 160.828 298.45 168.547 289.986 177.156C286.427 180.867 283.898 183.984 284.493 183.984C285.089 183.984 289.391 181.164 294.295 177.602C299.493 173.742 309.141 168.844 318.347 165.43C326.81 162.313 335.127 158.899 336.759 157.711C339.429 155.93 339.281 155.782 334.531 155.93C331.708 155.93 325.774 156.969 321.318 158.157Z" fill="#3F496A"></path><path d="M508.388 182.053C508.689 182.944 515.667 188.881 523.829 195.412C540.903 208.92 544.616 212.927 553.08 227.473C556.499 233.411 560.058 239.2 561.102 240.388C567.632 248.552 582.632 281.949 588.272 301.245C589.456 305.253 588.125 330.041 585.448 353.197C579.507 405.446 579.066 407.375 572.529 419.102C568.521 426.375 573.72 422.961 578.617 415.094C583.367 407.375 584.411 403.516 588.419 376.204C590.051 365.517 591.985 352.752 592.875 347.853C593.617 342.807 594.36 331.081 594.36 321.877C594.36 307.48 593.912 304.362 591.39 300.503C589.757 297.98 585.448 286.699 581.735 275.269C575.5 255.528 566.146 235.192 554.712 216.341C549.367 207.435 534.822 195.264 518.483 186.209C508.24 180.569 507.799 180.272 508.388 182.053Z" fill="#3F496A"></path><path d="M222.918 249.588C219.948 254.783 215.642 264.284 213.415 270.814C209.703 281.947 209.406 284.619 208.961 312.376C208.812 328.704 208.07 345.18 207.476 349.188C206.288 357.5 208.664 370.859 213.712 384.069C215.642 389.116 217.275 394.46 217.275 395.944C217.275 398.764 231.381 423.107 244.744 443.74C260.037 467.192 288.696 490.348 318.984 503.855C343.036 514.543 364.272 521.37 364.272 518.402C364.272 517.66 361.743 516.472 358.625 515.433C355.507 514.394 348.529 511.574 343.183 509.199C337.69 506.676 332.94 504.598 332.345 504.598C329.97 504.598 311.557 495.394 305.175 490.942C291.66 481.739 262.115 457.396 253.207 448.193C240.141 434.537 223.66 405.741 222.176 393.718C221.581 388.523 216.088 367.148 212.821 356.758C210.446 349.484 211.039 307.478 213.712 292.041C215.048 284.174 218.76 271.111 222.472 261.909C230.49 241.424 230.787 240.386 229.451 240.386C228.857 240.386 225.887 244.542 222.918 249.588Z" fill="#3F496A"></path><path d="M409.362 284.771C400.899 294.568 399.862 295.309 394.663 295.309C389.171 295.309 388.575 294.568 390.957 290.857C392.288 288.927 392.59 288.927 393.921 290.857C395.707 293.825 399.119 290.56 397.781 287.146C396.45 283.583 391.994 285.068 389.766 289.966L387.685 294.122L383.531 290.114C378.185 285.068 374.619 285.958 374.619 292.489C374.619 300.653 371.501 307.184 367.641 307.184C360.515 307.184 356.207 315.496 359.92 322.176C361.111 324.551 360.81 325.59 357.993 327.965L354.574 330.636L357.692 334.199C359.479 335.981 361.111 338.652 361.552 339.84C362.001 341.027 365.413 342.957 368.979 343.848C382.34 347.41 386.943 356.168 374.03 353.199C367.346 351.714 363.486 353.199 362.001 357.652C360.515 362.105 362.596 364.035 367.641 362.995C371.06 362.253 372.986 362.847 375.214 365.073C378.332 367.894 378.479 367.894 386.2 364.182C390.362 362.105 393.921 359.878 393.921 359.136C393.921 356.464 398.23 357.503 399.862 360.472C400.752 362.253 400.899 365.816 400.009 370.565C398.377 378.729 398.972 380.213 402.09 376.057C404.318 373.089 404.759 370.12 404.318 362.995C404.017 357.652 406.987 355.574 410.553 358.691C412.039 360.027 413.223 361.808 413.223 362.847C413.223 366.112 420.054 371.011 424.804 371.011C429.561 371.011 435.495 366.261 435.495 362.55C435.495 361.363 433.267 359.581 430.451 358.394C421.392 354.534 421.686 348.152 430.892 349.636C436.686 350.527 442.922 348.448 442.922 345.48C442.922 342.66 426.289 345.777 421.84 349.488C418.127 352.605 417.98 352.902 420.649 353.644C422.583 354.09 423.62 355.722 423.62 358.245C423.62 360.323 424.804 362.55 426.289 363.441C428.223 364.479 428.37 365.37 427.179 366.558C424.061 369.675 418.568 367.597 415.899 362.401C412.634 355.722 412.333 355.574 406.097 355.128C403.127 354.98 398.678 354.534 396.149 354.386C392.435 353.941 391.546 354.534 391.251 357.355C390.803 360.175 390.06 360.769 387.538 360.027C385.906 359.581 383.531 360.027 382.494 360.917C380.266 362.698 373.134 361.363 373.134 359.136C373.134 358.245 375.214 357.652 377.737 357.652C380.854 357.652 382.494 356.761 382.935 354.98C383.384 353.644 386.648 351.121 390.362 349.636C396.296 347.261 397.935 347.113 402.833 348.745C406.84 350.082 409.215 350.23 410.553 349.191C411.59 348.301 415.009 346.816 418.127 345.777C421.245 344.886 424.804 342.363 426.142 340.434C428.818 336.277 433.569 335.832 436.385 339.394C438.172 341.918 438.466 341.918 440.841 339.543C444.26 336.277 442.326 333.902 436.091 333.902C430.15 333.902 429.561 331.527 434.9 329.152C437.87 327.668 439.503 327.817 443.363 329.746C451.385 333.754 452.871 333.902 456.283 330.192L459.547 326.777L456.283 324.996C454.503 323.957 451.238 323.512 449.01 323.957C446.929 324.403 442.179 325.441 438.466 326.332C434.753 327.074 431.635 327.52 431.341 327.223C430.003 325.887 434.458 320.544 436.981 320.544C440.694 320.544 445.444 313.567 443.363 311.489C441.437 309.559 431.782 314.755 431.782 317.574C431.782 318.614 430.892 319.801 429.708 320.247C428.223 320.692 428.076 319.801 428.819 315.942C429.407 313.27 430.598 309.856 431.488 308.52C433.267 305.551 444.106 300.95 446.187 302.138C448.415 303.473 453.312 298.13 453.312 294.419C453.312 289.966 452.128 289.372 445.892 290.708C441.584 291.45 440.547 292.489 440.246 295.755C439.951 298.13 438.172 300.802 436.091 302.286C431.488 305.254 430.15 304.067 433.12 299.317C435.348 296.052 435.348 295.458 433.267 293.825C432.083 292.786 431.039 292.192 430.892 292.489C430.892 292.786 430.598 294.567 430.451 296.497C429.855 301.098 426.591 304.364 425.4 301.247C424.958 300.059 422.877 297.387 420.649 295.309C416.936 291.895 416.789 291.301 418.723 288.333C419.907 286.552 420.502 284.325 419.907 283.435C418.421 280.912 411.892 281.802 409.362 284.771ZM409.664 291.895C408.178 293.38 406.84 291.154 408.178 289.224C409.068 287.591 409.362 287.591 409.958 289.224C410.259 290.263 410.105 291.45 409.664 291.895ZM381.303 295.309C380.413 296.646 379.965 296.646 378.928 295.161C377.442 292.638 378.928 290.114 380.854 292.044C381.751 292.935 381.898 294.419 381.303 295.309ZM447.966 296.052C447.378 297.239 446.488 298.278 445.745 298.278C445.003 298.278 444.407 297.239 444.407 296.052C444.407 294.864 445.444 293.825 446.635 293.825C447.966 293.825 448.415 294.716 447.966 296.052ZM407.289 297.387C407.289 297.684 407.73 299.168 408.325 300.653C409.068 302.731 408.62 303.028 405.355 302.138C398.377 300.505 386.943 303.919 382.935 308.965C379.222 313.715 379.376 316.387 383.236 320.988C385.31 323.215 385.163 323.809 382.494 326.926C380.854 328.707 379.817 331.082 380.112 331.973C381.008 334.496 379.67 334.348 375.361 331.527C370.913 328.559 370.464 324.996 374.619 326.035C378.185 326.926 378.633 324.106 375.214 320.395C373.729 318.762 373.288 316.981 374.177 315.793C374.773 314.755 375.361 311.637 375.361 308.817C375.361 304.661 376.251 303.325 380.413 300.95C383.531 299.168 387.097 298.278 389.472 298.724C391.546 299.168 394.222 299.021 395.406 298.13C397.634 296.794 407.289 296.2 407.289 297.387ZM420.649 300.208C420.649 301.989 421.987 304.661 423.62 306.145C428.664 310.301 427.333 314.902 418.723 323.066C411.296 330.192 410.848 330.34 407.583 328.262C403.428 325.59 401.2 327.223 405.208 330.043C407.877 332.121 407.877 332.27 403.722 336.722C400.752 339.84 397.935 341.324 394.818 341.324C389.766 341.324 383.531 336.277 383.531 332.27C383.531 329.004 389.024 324.996 393.178 324.996C396.296 324.996 399.862 322.473 399.862 320.247C399.862 319.653 398.524 319.059 396.891 319.059C395.259 319.059 393.921 318.317 393.921 317.574C393.921 315.199 400.899 315.793 403.575 318.465C405.355 320.395 406.399 320.544 408.031 319.059C409.215 318.02 410.259 315.942 410.259 314.458C410.259 312.825 411.002 311.637 411.892 311.637C412.929 311.637 413.223 313.121 412.929 315.348C412.48 317.426 412.781 319.059 413.377 319.059C414.12 319.059 414.708 318.317 414.708 317.574C414.708 316.684 415.304 316.09 416.193 316.09C416.936 316.09 417.083 317.129 416.642 318.614C416.046 320.247 416.193 320.692 417.384 319.95C419.76 318.465 419.458 310.153 416.936 305.7C413.818 300.356 414.12 296.794 417.679 296.794C419.76 296.794 420.649 297.833 420.649 300.208ZM405.803 307.926C406.84 309.114 407.141 310.153 406.399 310.301C405.656 310.301 401.494 310.598 397.039 310.895C387.987 311.489 388.281 311.34 387.538 316.239C386.796 320.692 384.42 320.988 383.825 316.536C382.935 310.45 385.906 307.332 393.627 306.739C397.487 306.442 401.347 306.145 402.237 305.997C403.127 305.848 404.759 306.739 405.803 307.926ZM371.207 315.496C370.758 318.465 369.869 321.285 369.427 321.731C368.383 322.769 362.743 317.575 362.743 315.348C362.743 312.825 366.008 310.153 369.126 310.153C371.655 310.153 371.95 310.895 371.207 315.496ZM438.466 316.09C438.466 316.832 437.723 317.574 436.834 317.574C436.091 317.574 435.797 316.832 436.238 316.09C436.686 315.199 437.429 314.606 437.87 314.606C438.172 314.606 438.466 315.199 438.466 316.09ZM425.105 327.223C425.105 329.152 425.848 331.23 426.738 331.676C427.627 332.418 427.333 333.457 425.547 334.644C424.061 335.684 422.429 336.277 421.84 335.981C421.098 335.535 420.649 336.574 420.649 338.207C420.649 341.918 416.341 344.441 413.076 342.66C411.149 341.769 410.406 342.066 409.811 344.293C409.362 346.074 407.73 347.261 405.95 347.261C402.384 347.261 402.237 346.223 404.318 340.581C405.656 337.168 406.399 336.722 410.259 337.613C416.193 338.949 419.164 336.426 419.164 330.34C419.164 325.441 421.686 321.582 423.914 322.918C424.51 323.363 425.105 325.293 425.105 327.223ZM453.018 327.52C453.312 328.707 452.275 329.449 450.496 329.449C448.709 329.449 447.378 328.559 447.378 327.074C447.378 324.403 451.981 324.848 453.018 327.52ZM365.413 331.379C366.008 334.051 363.339 334.644 359.92 332.567C358.883 331.824 358.435 330.489 359.03 329.598C360.515 327.074 364.824 328.262 365.413 331.379ZM414.708 332.418C414.708 333.16 413.965 333.902 413.076 333.902C412.333 333.902 412.039 333.16 412.48 332.418C412.929 331.527 413.671 330.933 414.12 330.933C414.414 330.933 414.708 331.527 414.708 332.418ZM372.839 337.168C372.097 339.394 365.714 340.73 365.714 338.652C365.714 336.574 367.494 335.387 370.611 335.387C372.097 335.387 373.134 336.129 372.839 337.168ZM387.987 342.808C389.171 345.035 388.876 345.926 386.648 347.261C382.641 349.339 381.597 349.191 382.641 346.519C383.236 344.886 382.494 344.293 379.817 344.293C377.442 344.293 376.104 343.402 376.104 342.066C376.104 338.503 386.053 339.097 387.987 342.808ZM370.17 355.277C370.17 355.574 370.611 356.909 371.06 358.097C371.501 359.581 370.913 360.175 368.685 360.027C367.052 360.027 365.714 359.433 365.714 358.691C365.714 358.097 365.714 356.909 365.714 356.168C365.714 355.277 366.751 354.683 367.942 354.683C369.126 354.683 370.17 354.98 370.17 355.277Z" fill="#3F496A"></path><path d="M16.0339 185.467C14.6978 189.92 16.628 192.146 19.1523 188.881C21.0825 186.357 21.5281 186.506 26.279 191.998L31.3276 197.935L37.4153 192.443C43.7993 186.654 47.5111 185.616 50.7781 188.732C52.2627 190.365 52.5598 189.92 52.1142 186.951C51.3722 180.865 45.2846 181.311 38.7514 187.694C33.5549 192.889 33.2578 193.037 31.7725 190.217C28.9518 185.022 25.537 182.498 21.231 182.498C18.2611 182.498 16.628 183.389 16.0339 185.467Z" fill="#3F496A"></path><path d="M21.2122 204.011C20.0239 205.495 20.321 206.237 22.5482 206.979C24.1813 207.424 25.963 209.206 26.4086 210.838C27.5962 214.55 30.269 214.401 33.5353 210.542C36.0596 207.573 36.3567 207.573 39.0295 209.948C42.4443 213.065 44.9687 211.729 44.9687 206.831C44.9687 202.378 41.4046 200.745 36.9508 203.268C34.7235 204.308 32.0507 204.605 29.9719 203.862C24.1814 201.933 22.8453 201.933 21.2122 204.011Z" fill="#3F496A"></path></svg> 