<?xml version="1.0" encoding="UTF-8"?> <svg xmlns="http://www.w3.org/2000/svg" width="716" height="93" viewBox="0 0 716 93" fill="none"><path d="M251.133 4.40004C249.133 6.93338 246.867 9.73338 246.067 10.6667C244.867 12.1334 244.067 12 241.667 9.86671C236.867 5.33338 224.2 8.26671 200.6 19.2C194.067 22.2667 191.267 24.4 190.067 27.0667C189 29.7334 187.533 30.9334 185.4 30.9334C183.667 30.9334 180.867 32.4 179 34.2667C177.133 36.1334 174.2 37.6 172.467 37.6C170.2 37.6 168.867 38.5334 168.333 40.5334C167.8 42.5334 164.6 45.2 158.733 48.2667C153.8 50.8 146.067 55.3334 141.533 58.4C135.267 62.5334 132.2 63.7334 129.267 63.3334C127.133 62.9334 122.067 63.7334 118.067 64.9334C114.067 66.1334 105.8 67.4667 99.5332 67.7334C93.2665 68 83.6665 68.5334 78.0665 68.9334C70.3332 69.4667 63.7999 68.9334 51.1332 66.4C35.2665 63.3334 30.5999 61.6 9.13318 51.3334C0.599848 47.2 -1.26682 48.1334 0.733182 55.8667C2.73318 62.9334 6.33318 66 19.6665 71.7334C25.7999 74.2667 32.7332 77.3334 35.1332 78.4C39.5332 80.4 63.7998 84.2667 71.2665 84.2667C73.6665 84.2667 76.4665 85.0667 77.6665 86.1334C78.9998 87.6 80.4665 87.8667 82.5998 87.0667C84.1998 86.4 90.0665 85.4667 95.5332 84.9334C101.133 84.4 112.2 81.7334 120.867 78.8C129.267 76 137.8 73.6 139.667 73.6C141.933 73.6 144.067 72.4 145.4 70.2667C148.733 65.0667 153.8 62.2667 156.067 64.2667C158.6 66.2667 163.533 63.8667 163.533 60.5334C163.667 55.8667 167.267 53.0667 173.533 52.9334C181.133 52.6667 190.733 46.6667 189.533 42.9334C188.6 40 192.6 37.3334 197.267 37.8667C203 38.4 210.333 36 212.467 32.6667C213.933 30.4 215.667 29.6 218.067 29.7334C222.733 30.1334 226.733 28.8 234.067 24C238.733 20.9334 241.267 20.2667 244.733 20.8C247.533 21.2 250.333 20.6667 252.333 19.3334C255.4 17.4667 255.8 17.4667 258.2 19.6C260.333 21.4667 261.533 21.6 264.733 20.5334C268.067 19.3334 269.267 19.6 272.2 21.8667C274.333 23.4667 278.867 24.9334 283.933 25.6C292.6 26.6667 301.267 29.6 302.733 32.1334C303.267 32.9334 305.667 33.6 308.067 33.6C310.6 33.6 313.4 34.5334 314.333 35.7334C315.267 36.9334 317.4 38.4 319 39.0667C320.733 39.6 322.2 41.4667 322.467 43.2C322.733 45.3334 324.867 47.3334 329.933 49.8667C333.933 51.8667 339.533 55.7334 342.6 58.4C345.667 61.0667 350.2 64.5334 352.6 65.8667C354.867 67.3334 356.867 69.2 356.867 70.1334C356.867 72.5334 362.467 77.0667 366.6 78.1334C368.6 78.5334 370.733 80.1334 371.533 81.6C372.333 83.2 374.333 84.2667 376.2 84.2667C377.933 84.2667 379.667 84.8 380.2 85.6C381.267 87.3334 389.267 89.6 399.267 90.9334C405.533 91.7334 408.6 91.6 411.133 90.2667C413.933 88.8 415.267 88.8 419 90.4C425.4 93.0667 429.4 92.6667 436.867 88.6667C447.8 82.8 447.667 75.2 436.6 76.8C416.333 79.6 414.733 79.6 404.2 78C394.067 76.2667 388.2 73.2 386.333 68.5334C384.467 64.1334 375.533 58 369.267 56.8C366.6 56.2667 363.8 54.5334 362.2 52.2667C360.733 50.1334 356.6 46.6667 353.133 44.5334C349.667 42.4 344.467 38.4 341.533 35.6C338.6 32.9334 333.8 28.4 330.867 25.6C325.267 20.4 307.267 10.9334 302.733 10.9334C301.4 10.9334 297.267 9.46671 293.533 7.60004C289.933 5.86671 285.267 4.26671 283.267 4.26671C281.267 4.26671 278.2 3.73338 276.467 3.06671C274.733 2.40004 269 1.33338 263.933 0.933377L254.733 4.40249e-05L251.133 4.40004Z" fill="#E0B8B9"></path><path d="M551.535 24.9341C550.601 26.0008 547.801 26.9341 545.268 26.9341C542.468 26.9341 538.601 28.4008 535.135 30.6675C532.068 32.8008 526.201 35.7341 522.201 37.2008C518.068 38.6675 512.468 41.6008 509.535 43.4675C506.735 45.4675 502.868 47.3341 501.001 47.7341C499.135 48.2675 494.868 50.2675 491.535 52.2675C480.335 59.2008 458.201 68.2675 452.335 68.2675C449.535 68.2675 448.068 74.4008 450.201 76.9341C451.535 78.5341 451.401 79.6008 449.535 82.4008C446.601 86.8008 448.201 88.1341 455.001 87.0675C459.668 86.4008 461.535 85.0675 466.735 78.5341C473.135 70.6675 476.868 68.9341 476.868 73.6008C476.868 75.0675 477.135 76.2675 477.535 76.2675C477.935 76.2675 481.268 73.8675 484.868 71.0675C488.468 68.1341 493.801 65.0675 496.468 64.1341C503.668 61.8675 515.535 52.6675 515.535 49.6008C515.535 48.2675 516.201 46.6675 516.868 46.2675C517.668 45.7341 517.935 44.9341 517.535 44.2675C517.135 43.7341 517.801 42.5341 518.735 41.7341C520.335 40.4008 521.268 40.9341 523.668 44.1341C526.735 48.2675 526.468 48.2675 534.868 43.8675C537.668 42.5341 539.668 42.1341 540.868 42.9341C544.335 45.2008 547.401 44.4008 551.135 40.2675C555.001 35.8675 558.735 35.0675 560.601 38.4008C561.535 40.0008 562.868 39.3341 567.935 34.2675C572.735 29.4675 574.868 28.1341 577.668 28.5341C583.268 29.2008 582.735 31.2008 575.535 36.9341C571.935 39.8675 568.868 42.9341 568.868 43.8675C568.868 46.6675 573.801 45.8675 574.601 42.9341C575.401 39.6008 578.468 38.4008 582.868 39.4675C585.001 40.0008 586.201 41.2008 586.201 42.9341C586.201 44.9341 587.135 45.6008 590.068 45.6008C592.335 45.6008 594.468 46.1341 594.868 46.9341C596.601 49.7341 599.535 48.2675 599.535 44.5341C599.535 40.8008 603.001 36.2675 605.801 36.2675C608.735 36.2675 613.001 42.6675 612.601 46.4008C612.201 49.8675 612.735 50.2675 616.201 50.6675C618.335 50.9341 622.201 50.4008 624.868 49.6008C629.268 48.1341 630.335 48.4008 637.535 52.0008C649.801 58.2675 652.868 59.2008 652.868 56.9341C652.868 54.0008 662.335 52.2675 669.001 54.1341C671.001 54.6675 674.735 54.5341 677.535 53.7341C684.201 52.0008 689.135 53.8675 688.601 57.8675C688.201 60.4008 688.868 61.0675 692.601 61.3341C696.868 61.7341 700.868 59.8675 700.868 57.4675C700.868 56.8008 699.268 56.2675 697.401 56.2675C695.401 56.2675 692.601 54.9341 690.868 53.0675C688.335 50.2675 686.601 49.8675 672.468 49.3341C660.601 48.8008 656.201 48.1341 654.335 46.4008C653.135 45.2008 650.468 44.2675 648.468 44.2675C646.601 44.2675 644.735 43.7341 644.335 43.2008C643.935 42.5341 639.135 39.7341 633.535 36.9341C622.735 31.6008 608.068 28.8008 602.735 31.2008C600.601 32.1341 597.668 31.6008 591.401 29.0675C584.201 26.2675 580.601 25.7341 569.001 25.7341C560.601 25.6008 554.735 25.0675 554.201 24.2675C553.668 23.3341 552.735 23.4675 551.535 24.9341Z" fill="#E0B8B9"></path><path d="M705.667 52.0002C705.267 52.6669 707.134 53.6002 709.801 54.0002C714.467 54.8002 716.734 54.4002 715.267 52.9335C713.934 51.4669 706.467 50.8002 705.667 52.0002Z" fill="#E0B8B9"></path></svg> 