<?xml version="1.0" encoding="UTF-8"?> <svg xmlns="http://www.w3.org/2000/svg" width="354" height="485" viewBox="0 0 354 485" fill="none"><path d="M160.908 51.5C160.908 71.8333 147.742 96.3333 121.408 125C97.0749 151.333 73.7415 164.5 51.4082 164.5C32.7415 164.5 23.4082 155.333 23.4082 137C23.4082 114.667 35.4082 91 59.4082 66C83.4082 40.6667 106.575 28 128.908 28C130.908 28 132.242 28.5 132.908 29.5C132.575 29.5 131.575 29.6667 129.908 30C124.908 30.6667 115.575 38 101.908 52C62.9082 92 43.4082 123.833 43.4082 147.5C43.4082 155.167 47.2415 159 54.9082 159C69.5749 159 88.4082 143.333 111.408 112C133.742 81.6667 144.908 58.6667 144.908 43C144.908 37.3333 141.908 32.8333 135.908 29.5C137.242 28.8333 138.908 28.5 140.908 28.5C146.575 28.5 151.242 30.8333 154.908 35.5C158.908 40.1667 160.908 45.5 160.908 51.5ZM353.721 18C353.721 20 353.387 21.5 352.721 22.5C348.387 18.5 344.221 14.5 340.221 10.5C336.221 7.49999 330.387 5.99999 322.721 5.99999C295.721 5.99999 261.554 28.1667 220.221 72.5C191.554 103.167 177.221 127.667 177.221 146C177.221 155.667 181.387 160.5 189.721 160.5C200.721 160.5 213.721 151 228.721 132C244.054 113 251.721 97.8333 251.721 86.5C251.721 80.8333 248.887 78 243.221 78C238.887 78 234.387 79.3333 229.721 82C222.387 86 218.221 88.1667 217.221 88.5L216.221 87.5C216.887 83.5 220.721 79.8333 227.721 76.5C234.721 73.1667 240.554 71.5 245.221 71.5C261.554 71.5 269.721 79.8333 269.721 96.5C269.721 113.833 260.887 129.667 243.221 144C225.887 158 208.221 165 190.221 165C171.221 165 161.721 156 161.721 138C161.721 106 180.554 74.6667 218.221 44C254.554 14.6667 289.221 -1.13249e-05 322.221 -1.13249e-05C328.554 -1.13249e-05 335.054 1.49999 341.721 4.49999C349.721 8.16666 353.721 12.6667 353.721 18ZM160.908 211.5C160.908 231.833 147.742 256.333 121.408 285C97.0749 311.333 73.7415 324.5 51.4082 324.5C32.7415 324.5 23.4082 315.333 23.4082 297C23.4082 274.667 35.4082 251 59.4082 226C83.4082 200.667 106.575 188 128.908 188C130.908 188 132.242 188.5 132.908 189.5C132.575 189.5 131.575 189.667 129.908 190C124.908 190.667 115.575 198 101.908 212C62.9082 252 43.4082 283.833 43.4082 307.5C43.4082 315.167 47.2415 319 54.9082 319C69.5749 319 88.4082 303.333 111.408 272C133.742 241.667 144.908 218.667 144.908 203C144.908 197.333 141.908 192.833 135.908 189.5C137.242 188.833 138.908 188.5 140.908 188.5C146.575 188.5 151.242 190.833 154.908 195.5C158.908 200.167 160.908 205.5 160.908 211.5ZM353.721 178C353.721 180 353.387 181.5 352.721 182.5C348.387 178.5 344.221 174.5 340.221 170.5C336.221 167.5 330.387 166 322.721 166C295.721 166 261.554 188.167 220.221 232.5C191.554 263.167 177.221 287.667 177.221 306C177.221 315.667 181.387 320.5 189.721 320.5C200.721 320.5 213.721 311 228.721 292C244.054 273 251.721 257.833 251.721 246.5C251.721 240.833 248.887 238 243.221 238C238.887 238 234.387 239.333 229.721 242C222.387 246 218.221 248.167 217.221 248.5L216.221 247.5C216.887 243.5 220.721 239.833 227.721 236.5C234.721 233.167 240.554 231.5 245.221 231.5C261.554 231.5 269.721 239.833 269.721 256.5C269.721 273.833 260.887 289.667 243.221 304C225.887 318 208.221 325 190.221 325C171.221 325 161.721 316 161.721 298C161.721 266 180.554 234.667 218.221 204C254.554 174.667 289.221 160 322.221 160C328.554 160 335.054 161.5 341.721 164.5C349.721 168.167 353.721 172.667 353.721 178ZM155.559 368.5C155.559 400.167 116.892 430.667 39.5586 460V460.5C43.5586 459.167 47.2253 458.5 50.5586 458.5C55.2253 458.5 61.5586 459.833 69.5586 462.5C77.8919 464.833 84.0586 466 88.0586 466C97.0586 466 105.392 462.667 113.059 456C122.392 448.333 127.059 444.5 127.059 444.5L128.059 446C126.059 452.667 118.892 460.5 106.559 469.5C94.2253 478.5 84.2253 483 76.5586 483C70.8919 483 62.7253 481.167 52.0586 477.5C41.7253 473.5 33.7253 471.5 28.0586 471.5C23.0586 471.5 18.2253 472.833 13.5586 475.5C6.22526 480.167 2.05859 482.667 1.05859 483L0.0585927 480C5.72526 474.333 14.8919 468.333 27.5586 462C48.2253 451.667 68.5586 439 88.5586 424C116.559 402.333 130.559 384.167 130.559 369.5C130.559 360.833 126.059 356.5 117.059 356.5C105.725 356.5 94.3919 360.667 83.0586 369C70.7253 378 64.5586 388 64.5586 399C64.5586 404 66.2253 407 69.5586 408C70.5586 408.333 74.0586 408.5 80.0586 408.5C80.7253 408.5 81.2253 408.667 81.5586 409C81.5586 412.333 77.3919 414 69.0586 414C59.3919 414 54.5586 410 54.5586 402C54.5586 388.667 63.7253 375.833 82.0586 363.5C98.7253 352.5 114.225 347 128.559 347C146.559 347 155.559 354.167 155.559 368.5ZM349.57 338C349.57 340 349.237 341.5 348.57 342.5C344.237 338.5 340.07 334.5 336.07 330.5C332.07 327.5 326.237 326 318.57 326C291.57 326 257.404 348.167 216.07 392.5C187.404 423.167 173.07 447.667 173.07 466C173.07 475.667 177.237 480.5 185.57 480.5C196.57 480.5 209.57 471 224.57 452C239.904 433 247.57 417.833 247.57 406.5C247.57 400.833 244.737 398 239.07 398C234.737 398 230.237 399.333 225.57 402C218.237 406 214.07 408.167 213.07 408.5L212.07 407.5C212.737 403.5 216.57 399.833 223.57 396.5C230.57 393.167 236.404 391.5 241.07 391.5C257.404 391.5 265.57 399.833 265.57 416.5C265.57 433.833 256.737 449.667 239.07 464C221.737 478 204.07 485 186.07 485C167.07 485 157.57 476 157.57 458C157.57 426 176.404 394.667 214.07 364C250.404 334.667 285.07 320 318.07 320C324.404 320 330.904 321.5 337.57 324.5C345.57 328.167 349.57 332.667 349.57 338Z" fill="white"></path></svg> 