<?xml version="1.0" encoding="UTF-8"?> <svg xmlns="http://www.w3.org/2000/svg" width="728" height="1502" viewBox="0 0 728 1502" fill="none"><path d="M0 115.843L46.3922 124.223L92.249 108.449L184.498 101.055L239.098 95.1392L274.784 66.3016H364L411.82 106.97L448.576 98.5898H492.471L535.651 117.322L605.596 109.928L630.933 105.984L645.922 67.0411L728 16.7603V1415.75L631.647 1429.06L536.722 1408.85L481.051 1411.81L449.647 1429.06L417.529 1420.68L362.929 1447.3L324.388 1470.47L268.361 1473.42L210.906 1483.28L188.424 1455.19L169.867 1462.58L152.024 1419.69L133.467 1390.12L114.91 1378.78L22.8392 1349.69L0 1370.4V115.843Z" fill="#F7F2EC"></path><path d="M0 132.583V102.513H6.42353C29.9765 132.086 43.1804 100.053 45.6784 101.039C48.1765 102.025 96.7098 100.053 97.7804 100.053C98.6369 100.053 99.3268 95.781 99.5647 93.6449C104.418 82.6029 117.527 87.0692 123.475 90.6826L137.035 82.3071C147.598 73.6312 157.614 84.2758 161.302 90.6826C181.643 86.7394 198.059 88.7154 206.624 88.2225C215.188 87.7295 233.745 75.4058 234.102 75.4058C234.459 75.4058 233.031 79.8423 237.314 82.3071C241.596 84.7718 242.31 81.3212 246.235 75.4058C250.161 69.4904 252.302 71.9552 254.086 74.9128C255.871 77.8705 254.8 74.4199 255.157 71.9552C255.514 69.4904 256.584 63.575 258.369 59.1385C260.153 54.7019 258.725 61.1103 260.867 64.5609C263.008 68.0116 262.294 58.1526 266.22 51.7442C270.145 45.3359 270.145 43.3641 280.494 49.7724C290.843 56.1808 295.482 53.716 296.553 53.716C297.624 53.716 299.051 55.1949 302.263 57.1667C305.475 59.1385 306.902 50.7583 308.329 48.2936C309.471 46.3218 313.326 46.4861 315.11 46.8148C328.314 36.4628 338.663 50.7583 349.369 48.2936C360.075 45.8289 361.859 56.6737 364.357 58.1526C366.855 59.6314 368.996 58.6455 372.922 61.1103C376.847 63.575 376.49 71.4622 378.275 73.434C380.059 75.4058 381.843 67.0257 384.698 71.4622C387.553 75.8988 401.827 82.3071 403.255 84.7718C404.682 87.2366 412.176 100.546 417.886 93.6449C423.596 86.7436 438.227 86.2507 441.082 87.2366C443.937 88.2225 452.502 85.2648 458.212 81.3212C463.922 77.3776 466.776 86.7436 471.416 88.7154C475.127 90.2929 484.144 88.3868 488.188 87.2366C490.329 74.4199 498.537 89.2084 500.678 90.1943C502.391 90.983 503.533 90.5229 503.89 90.1943C507.816 76.3917 515.31 98.5744 517.451 101.532C519.592 104.49 521.02 98.5744 521.733 99.0674C522.447 99.5603 523.161 107.94 527.086 111.391C531.012 114.842 533.153 101.039 534.937 98.5744C536.722 96.1097 535.651 99.0674 538.149 102.518C540.147 105.279 558.252 102.682 567.055 101.039C585.612 89.7013 583.471 92.1661 591.678 88.7154C599.886 85.2648 601.671 96.1097 604.882 95.1238C608.094 94.1379 623.439 96.1097 630.576 96.1097C636.286 96.1097 641.044 67.5186 642.71 53.2231C662.337 59.1385 658.769 29.0686 671.973 32.0263C675.143 32.7364 674.471 30.0545 676.255 27.5897C678.039 25.125 678.039 27.5897 680.537 26.6038C683.035 25.6179 685.177 15.759 686.604 14.7731C688.031 13.7872 689.816 23.1532 693.741 22.1673C697.667 21.1814 699.451 14.2801 701.235 11.3224C703.02 8.36473 705.518 11.8154 706.231 10.3365C706.945 8.85768 707.659 5.40548 710.871 0.968939C714.082 -3.4676 718.722 8.85466 721.22 7.37582C723.218 6.19274 726.573 6.88287 728 7.37582V40.8964C727.643 40.5677 726.787 39.8119 726.216 39.4175C725.502 38.9246 723.718 40.4034 720.506 40.8964C717.294 41.3893 713.726 36.4579 710.871 33.9932C708.016 31.5284 707.659 40.8945 706.588 42.8663C705.518 44.8381 705.875 43.3592 701.949 43.8522C698.024 44.3451 690.886 56.1759 690.173 55.6829C689.459 55.19 688.745 51.7404 687.318 49.2757C685.89 46.8109 681.608 55.684 676.969 62.5853C673.257 68.1063 666.62 67.1861 663.765 66.0359C658.769 89.2045 645.565 83.2891 643.78 84.768C641.996 86.2468 637 110.894 635.573 119.274C634.145 127.655 630.933 124.204 626.294 125.19C621.655 126.176 609.165 126.176 604.169 125.19C599.173 124.204 597.745 120.26 589.537 116.81C581.329 113.359 568.482 131.105 564.914 132.091C561.345 133.077 537.078 131.105 535.294 127.162C533.51 123.218 526.016 140.964 524.945 140.964C523.875 140.964 521.376 128.64 521.02 128.148C520.663 127.655 518.522 130.612 516.737 131.105C514.953 131.598 508.173 114.838 507.459 114.838C506.745 114.838 503.89 122.232 501.749 120.753C499.608 119.274 493.898 105.472 490.329 111.387C486.761 117.303 478.91 117.796 474.984 117.796C471.059 117.796 470.345 103.5 463.565 113.359C456.784 123.218 437.157 109.415 425.024 120.753C415.317 129.824 405.515 118.946 401.827 112.373C397.902 111.387 389.48 108.331 387.196 103.993C384.912 99.655 379.821 101.528 377.561 103.007C377.204 100.542 373.278 88.2186 369.71 90.1904C366.855 91.7679 363.762 88.5459 362.573 86.7377C357.719 77.6657 348.179 77.371 344.016 78.3576C326.886 70.0753 317.608 74.9066 315.11 78.3576C314.039 76.8787 311.541 74.7097 310.114 77.8646C308.329 81.8082 300.122 89.2024 299.051 86.7377C297.98 84.2729 296.91 83.78 292.271 85.7528C289.416 85.7528 274.784 75.8938 269.431 77.3726C265.149 78.5557 261.937 89.3677 260.867 94.6258C260.986 93.8044 260.438 91.8657 257.298 90.6826C253.976 89.4312 253.976 103.005 254.055 106.015C254.075 106.156 254.086 106.304 254.086 106.457C254.086 106.76 254.069 106.562 254.055 106.015C253.813 104.338 252.219 103.499 251.231 103.499C248.733 105.471 243.238 109.908 241.239 111.879C239.241 113.851 234.935 109.086 233.031 106.457C228.035 109.908 206.267 118.781 203.412 116.809C200.557 114.837 192.349 116.809 187.353 116.809C183.356 116.809 168.32 119.109 161.302 120.26C148.455 96.1051 123.475 120.26 122.404 120.26C121.333 120.26 121.333 114.344 109.557 116.809C97.7804 119.274 99.9216 126.175 99.9216 127.654C99.9216 128.837 97.3046 128.147 95.9961 127.654C66.7333 136.034 49.6039 126.668 46.749 130.119C44.4651 132.879 36.9948 139.813 33.5451 142.935C22.1255 153.287 6.78039 132.583 5.35294 132.583H0Z" fill="#F7F2EC"></path><path d="M0 1385.17V1354.12C4.04643 1342.78 14.5671 1324.54 24.2786 1342.28C24.9926 1342.12 28.206 1342.19 35.3467 1343.76C44.2727 1345.74 42.1305 1345.74 48.9142 1346.72C55.6979 1347.71 61.0535 1345.24 62.4816 1343.76C63.7907 1346.23 66.5518 1351.26 67.1231 1351.65C67.8372 1352.14 68.9083 1344.26 72.4787 1349.19C76.049 1354.12 86.0461 1363.97 93.9009 1359.05C94.7578 1359.05 96.8762 1355.76 97.8283 1354.12C97.7093 1358.39 97.9712 1367.13 99.9706 1367.92C102.47 1368.9 99.2565 1367.92 103.898 1365.95C108.539 1363.97 107.468 1366.93 111.039 1362.99C114.609 1359.05 114.966 1355.1 117.822 1360.52C120.679 1365.95 116.751 1369.89 121.75 1370.38C126.748 1370.88 138.531 1368.41 139.245 1376.79C139.959 1385.17 139.245 1390.1 139.245 1393.55C139.245 1397 151.027 1403.9 159.953 1428.06C160.191 1426.91 160.738 1424.11 161.024 1422.14C161.381 1419.68 167.094 1440.38 170.307 1444.33C173.52 1448.27 173.877 1445.31 175.306 1440.38C176.734 1435.45 177.448 1434.47 179.59 1434.96C181.732 1435.45 183.517 1435.95 184.946 1434.96C186.374 1433.97 185.66 1423.62 191.729 1440.38L191.729 1440.38C197.799 1457.14 201.012 1466.02 202.44 1466.51C203.869 1467 204.226 1468.48 207.796 1466.51C211.366 1464.54 210.295 1465.03 215.651 1465.03C221.006 1465.03 221.72 1460.59 228.147 1454.18C234.574 1447.78 234.931 1454.18 238.858 1454.18C242.786 1454.18 243.143 1448.76 248.141 1450.73C253.14 1452.71 255.639 1457.14 258.495 1455.66C261.352 1454.18 258.852 1459.11 264.208 1455.66C269.564 1452.21 271.349 1444.33 274.205 1444.33C277.061 1444.33 280.989 1447.78 281.703 1454.18C282.274 1459.31 283.131 1459.28 283.488 1458.62L284.353 1453.84C284.411 1453.43 284.482 1453.04 284.559 1452.71L284.353 1453.84C283.963 1456.63 284.181 1460.74 287.415 1461.09C292.057 1461.58 291.343 1458.62 293.842 1457.14C295.841 1455.96 297.531 1454.68 298.127 1454.18C298.841 1453.03 300.412 1450.73 300.983 1450.73C301.697 1450.73 303.482 1448.27 309.195 1452.71C314.907 1457.14 314.907 1455.66 316.692 1455.66C318.478 1455.66 319.906 1458.62 320.977 1458.62C322.048 1458.62 323.476 1463.06 325.618 1458.62C327.761 1454.18 328.832 1454.18 328.832 1449.25C328.832 1445.31 329.784 1444.33 330.26 1444.33C330.141 1446.13 331.402 1448.27 337.401 1442.35C343.399 1436.44 346.089 1431.67 346.684 1430.03C352.277 1431.84 364.107 1435.06 366.678 1433.48C369.248 1431.9 369.891 1429.87 369.891 1429.04C370.724 1430.36 372.605 1432.59 373.461 1431.02C374.533 1429.04 375.961 1426.09 378.817 1425.1C381.673 1424.11 379.888 1431.02 384.53 1430.03C389.171 1429.04 389.528 1427.07 392.384 1423.13C395.241 1419.18 394.527 1430.52 398.454 1423.13C402.382 1415.73 404.524 1404.4 406.309 1406.86C408.094 1409.33 409.165 1413.27 412.022 1411.3C414.307 1409.72 416.306 1407.68 417.02 1406.86C419.519 1403.74 424.946 1397.99 426.66 1399.96C428.374 1401.93 430.707 1405.38 431.659 1406.86C433.801 1404.07 438.442 1400.65 439.871 1409.33C442.846 1417.21 456.009 1425.3 484.857 1394.54C485.928 1394.54 493.783 1382.21 503.78 1394.54C506.518 1390.92 514.206 1385.37 523.06 1392.07C527.821 1392.73 537.842 1394.64 539.841 1397C542.34 1399.96 545.554 1404.89 550.552 1404.89C555.551 1404.89 560.906 1407.85 564.477 1402.42C568.047 1397 566.619 1394.54 570.546 1394.54C574.474 1394.54 582.329 1397.99 586.256 1402.42C590.183 1406.86 584.828 1405.88 593.397 1409.33C601.966 1412.78 608.749 1422.14 614.105 1419.68C619.461 1417.21 617.318 1415.73 623.388 1416.23C629.458 1416.72 641.597 1419.68 646.595 1416.23C651.594 1412.78 666.947 1391.09 683.37 1414.26C688.25 1412.45 698.723 1409.92 701.579 1414.26C704.793 1417.21 711.719 1421.75 713.718 1416.23C716.218 1409.33 724.073 1396.51 728 1399.47V1429.04C726.215 1428.39 720.859 1430.72 713.718 1445.31C701.579 1445.31 692.296 1437.03 685.155 1445.31C683.37 1445.31 670.16 1416.23 648.738 1445.31C646.595 1447.12 639.954 1449.65 630.529 1445.31C627.077 1445.15 619.889 1445.61 618.746 1448.76C616.426 1455.17 601.252 1446.79 588.041 1436.44C584.471 1430.85 575.616 1420.76 568.761 1425.1C565.905 1429.37 559.478 1437.62 556.622 1436.44C553.051 1434.96 531.986 1421.65 526.988 1422.64C521.989 1423.62 512.349 1415.24 505.208 1422.64C504.494 1422.64 505.208 1419.68 498.068 1420.66C490.927 1421.65 487.714 1415.73 484.857 1421.65C482.001 1427.56 453.438 1446.79 447.368 1446.3C442.513 1445.9 439.156 1437.26 438.085 1432.99C435.943 1433.64 431.659 1435.25 431.659 1436.44C431.659 1437.92 429.159 1427.07 426.66 1428.55C424.161 1430.03 418.448 1433.97 417.734 1436.44C417.163 1438.41 415.354 1438.57 414.521 1438.41C413.331 1440.71 410.665 1444.82 409.522 1442.85C408.379 1440.87 406.551 1437.95 406.232 1436.87C405.55 1437.99 403.001 1441.76 400.239 1453.2C398.692 1452.38 395.598 1450.44 395.598 1449.25C395.598 1447.78 390.956 1461.58 388.814 1461.58C387.1 1461.58 382.863 1456.65 380.959 1454.18L374.176 1463.55C373.604 1464.34 370.367 1463.88 368.82 1463.55C366.44 1465.36 358.823 1467.49 347.398 1461.58L335.615 1477.35L328.832 1478.34C328.475 1483.6 327.332 1494.01 325.618 1493.62C323.476 1493.13 318.121 1489.18 318.121 1487.7C318.121 1486.23 316.692 1492.14 304.196 1482.78C303.244 1482.12 300.911 1481.89 299.198 1486.23L296.698 1487.7C294.794 1489.51 290.843 1493.42 290.272 1494.61C289.558 1496.08 287.415 1494.61 284.559 1485.24C284.44 1487.87 284.059 1493.03 283.488 1492.63C282.774 1492.14 279.918 1481.3 279.204 1479.32C278.489 1477.35 275.99 1473.41 272.063 1479.32C268.921 1484.06 266.945 1485.9 266.35 1486.23L263.494 1487.7C263.494 1488.2 263.065 1489.28 261.352 1489.68C259.209 1490.17 254.211 1490.17 252.783 1487.7C251.355 1485.24 248.498 1480.31 244.571 1482.78C241.429 1484.75 239.929 1486.88 239.572 1487.7C237.192 1485.73 231.432 1482.97 227.433 1487.7C223.434 1492.44 221.006 1497.89 220.292 1500.03C218.745 1500.52 215.365 1501.21 214.223 1500.03C212.794 1498.55 208.51 1497.07 207.796 1498.06C207.225 1498.85 204.94 1501.01 203.869 1502C199.227 1487.54 188.23 1459.9 181.375 1465.03C180.304 1466.18 177.805 1468.28 176.377 1467.49C174.591 1466.51 174.591 1479.32 172.449 1479.32C170.307 1479.32 161.024 1454.68 161.024 1452.71C161.024 1451.13 160.31 1456.65 159.953 1459.61C155.906 1449.75 146.243 1429.24 139.959 1426.09C139.245 1422.14 139.245 1407.35 137.46 1405.38C135.674 1403.41 126.748 1397.5 121.393 1398.48C120.679 1398.48 117.465 1386.65 114.966 1386.65C112.467 1386.65 111.039 1390.59 110.325 1392.07C109.753 1393.26 106.278 1394.21 104.612 1394.54L100.685 1398.48L97.1143 1383.2C93.0678 1388.29 82.4757 1394.14 72.4787 1376.79C71.2885 1376.63 68.5512 1376.89 67.1231 1379.26L63.5527 1370.38C61.8865 1372.52 58.1257 1376.79 56.412 1376.79C54.2697 1376.79 35.9652 1363.05 25.3497 1370.38C22.4934 1372.35 14.2815 1344.26 0 1385.17Z" fill="#F7F2EC"></path></svg> 