<?xml version="1.0" encoding="UTF-8"?> <svg xmlns="http://www.w3.org/2000/svg" width="355" height="337" viewBox="0 0 355 337" fill="none"><path d="M289.766 0.0218069C290.539 0.0146106 291.311 0.00741435 292.107 0C308.156 0.0679547 322.472 5.31006 333.894 14.8334C345.665 24.9754 350.644 38.5626 352.908 52.3625C352.98 52.7961 353.052 53.2297 353.126 53.6764C358.291 87.2245 351.788 122.243 334.852 152.757C334.078 154.153 333.315 155.554 332.551 156.955C321.996 176.191 308.98 194.656 295.334 212.418C294.676 213.289 294.018 214.161 293.362 215.033C292.68 215.938 291.998 216.842 291.314 217.746C290.318 219.065 289.324 220.386 288.332 221.707C284.445 226.869 280.422 231.942 276.336 236.99C275.345 238.22 274.362 239.454 273.382 240.69C268.747 246.521 263.923 252.214 258.972 257.853C258.654 258.216 258.335 258.578 258.008 258.952C256.502 260.668 254.994 262.382 253.482 264.093C252.256 265.48 251.037 266.87 249.822 268.264C246.709 271.828 243.559 275.344 240.227 278.763C239.006 280.02 237.812 281.292 236.624 282.571C231 288.577 225.053 294.358 218.982 300.037C217.752 301.191 217.752 301.191 216.766 302.409C216.494 302.699 216.223 302.989 215.942 303.288C215.542 303.288 215.143 303.288 214.73 303.288C214.597 303.565 214.463 303.843 214.326 304.129C213.245 305.767 211.8 307.058 210.299 308.419C210.012 308.683 209.724 308.948 209.429 309.22C207.603 310.895 205.727 312.521 203.822 314.13C203.43 314.47 203.039 314.809 202.636 315.159C200.334 317.148 197.977 319.037 195.491 320.856C194.149 321.857 192.839 322.882 191.532 323.916C174.863 337.083 174.863 337.083 167.454 336.985C157.183 336.208 146.916 327.285 140.071 321.26C138.993 320.341 137.871 319.513 136.702 318.68C133.742 316.517 131.188 314.045 128.568 311.591C127.263 310.371 125.928 309.187 124.544 308.031C122.769 306.545 121.135 304.979 119.511 303.375C118.239 302.127 116.943 300.9 115.642 299.674C109.8 294.152 104.052 288.542 98.5594 282.765C96.8621 280.981 95.1176 279.26 93.2944 277.569C90.7988 275.239 88.5284 272.793 86.2629 270.302C84.3334 268.188 82.3163 266.173 80.1997 264.193C64.3544 248.945 51.1186 231.212 39.6288 213.414C38.9578 212.387 38.2691 211.371 37.5763 210.355C14.7621 176.636 -0.17689 135.916 0.00158173 96.894C0.00248502 96.4007 0.00338832 95.9075 0.00431899 95.3993C0.0296802 87.6668 0.414723 80.1278 2.0091 72.4985C2.0967 72.0586 2.18429 71.6188 2.27454 71.1656C4.7052 59.2387 9.79035 47.9263 19.5844 38.9385C20.339 38.2337 20.339 38.2337 21.1089 37.5146C34.0593 25.9334 52.9622 19.1857 71.6757 18.6976C96.8153 18.381 119.149 25.4628 137.763 39.9711C138.577 40.8276 139.386 41.6877 140.187 42.5526C140.645 42.8495 141.103 43.1463 141.574 43.4521C143.468 44.7958 144.915 46.3136 146.399 47.9739C146.69 48.2956 146.98 48.6173 147.28 48.9487C147.872 49.6055 148.463 50.2632 149.052 50.9219C149.782 51.7331 150.527 52.5346 151.273 53.3346C158.54 61.2505 163.947 70.2854 169.277 79.2104C169.677 79.2104 170.077 79.2104 170.489 79.2104C171.405 78.0097 172.242 76.8104 173.065 75.564C173.612 74.7548 174.159 73.9461 174.708 73.1378C175.152 72.4825 175.152 72.4825 175.604 71.814C178.66 67.351 181.858 62.959 185.034 58.5582C185.352 58.117 185.669 57.6758 185.996 57.2213C194.805 45.015 204.677 32.6375 217.761 23.4493C218.272 23.0652 218.784 22.6812 219.311 22.2855C238.749 7.92758 264.186 0.162277 289.766 0.0218069Z" fill="#882920"></path></svg> 