<svg width="412" height="344" viewBox="0 0 412 344" fill="none" xmlns="http://www.w3.org/2000/svg">
<path d="M70.622 0.00390625C72.2635 0.0174414 72.2635 0.0174414 73.9382 0.03125C90.2774 0.375611 103.519 4.31628 117.622 12.4414C118.209 12.7772 118.795 13.113 119.399 13.459C138.653 24.6138 155.68 39.4441 171.345 55.1758C173.549 57.4678 173.549 57.4678 175.997 59.2539C178.857 61.6375 181.129 64.2167 183.54 67.043C185.527 69.3324 187.57 71.5617 189.634 73.7822C194.911 79.4611 199.881 85.3011 204.622 91.4414C207.485 91.1027 208.529 90.5382 210.56 88.4297C211.24 87.5467 211.921 86.6637 212.622 85.7539C213.398 84.7729 214.174 83.792 214.974 82.7812C215.394 82.2474 215.815 81.7136 216.248 81.1636C218.773 77.9989 221.38 74.9054 223.997 71.8164C224.509 71.2006 225.021 70.5849 225.548 69.9504C229.276 65.5568 231.5 63.4999 231.5 63.4999C231.5 63.4999 233.5 61.6923 234.622 60.4414C236.236 58.6424 237.908 56.8953 239.622 55.1914C240.509 54.2994 241.396 53.4073 242.31 52.4883C244.622 50.4414 246.622 50.4414 246.622 50.4414C246.622 50.4414 247.158 49.2452 247.435 48.6289C248.621 46.4429 249.718 45.0281 251.622 43.4414C252.454 42.7483 253.015 42.5039 253.015 42.5039C253.015 42.5039 253.515 42.0039 254 41.4999C255.737 39.6968 256.5 38.4999 258.536 36.5938C259.124 36.0762 259.712 35.5586 260.318 35.0254C260.955 34.4821 261.591 33.9387 262.247 33.3789C262.909 32.8111 263.572 32.2432 264.254 31.6582C274.376 23.1286 285.132 15.0883 297.622 10.4414C298.771 10.0018 299.919 9.56227 301.102 9.10938C322.882 1.11349 346.249 0.99288 367.477 10.4648C386.226 19.2201 401.695 33.0292 409.622 52.4414C411.148 57.7992 411.893 62.4988 411.958 68.1055C411.966 68.8114 411.975 69.5173 411.983 70.2447C412.003 72.5188 412.003 74.7922 411.997 77.0664C411.996 78.2377 411.996 78.2377 411.995 79.4327C411.954 92.4915 410.782 104.738 407.622 117.441C407.397 118.394 407.172 119.347 406.94 120.329C404.007 132.721 400.493 144.678 395.622 156.441C395.161 157.579 395.161 157.579 394.69 158.74C390.194 169.799 385.195 180.569 379.872 191.254C379.329 192.345 378.786 193.436 378.227 194.56C373.698 203.538 368.529 211.712 362.685 219.879C359.542 224.29 356.415 228.689 353.497 233.254C350.833 237.308 347.769 240.978 344.623 244.667C341.969 247.787 339.461 250.971 337.013 254.258C326.918 267.676 314.529 280.07 301.267 290.367C297.893 293.013 294.673 295.82 291.435 298.629C287.293 302.202 283.143 305.689 278.716 308.906C276.515 310.52 274.358 312.183 272.202 313.856C249.785 331.231 229.475 346.871 199.622 343.441C184.697 340.822 172.451 331.331 160.622 322.441C159.578 321.672 159.578 321.672 158.513 320.887C150.033 314.611 141.91 307.909 133.912 301.034C130.952 298.47 130.952 298.47 127.622 296.441C127.622 295.781 127.622 295.121 127.622 294.441C126.804 294.099 126.804 294.099 125.97 293.75C122.948 292.066 120.566 289.854 118.06 287.504C117.536 287.02 117.013 286.535 116.475 286.036C111.91 281.779 107.522 277.36 103.134 272.922C101.041 270.855 98.922 268.909 96.6845 267.004C89.011 260.436 81.8669 253.109 75.3212 245.422C73.3417 243.115 71.2956 240.875 69.247 238.629C65.2954 234.255 61.566 229.736 57.872 225.145C55.7147 222.553 53.4485 220.131 51.122 217.691C46.019 212.091 42.4327 205.817 38.6909 199.276C37.1174 196.575 35.4257 193.952 33.747 191.316C21.0639 170.7 11.1206 148.758 4.62201 125.441C4.41028 124.737 4.19855 124.032 3.98041 123.307C0.323545 110.847 0.177686 98.2008 0.0595093 85.3164C0.0373032 84.0472 0.0373032 84.0472 0.0146484 82.7523C-0.208722 67.4032 2.09175 52.5491 9.49701 38.8789C9.83579 38.2282 10.1746 37.5774 10.5236 36.907C14.4884 29.4977 19.4554 23.1568 25.622 17.4414C26.1363 16.9103 26.6507 16.3792 27.1806 15.832C31.3241 11.8044 35.7841 9.13247 40.997 6.69141C41.5969 6.40991 42.1968 6.12841 42.8149 5.83838C52.0579 1.70379 60.4796 -0.096833 70.622 0.00390625Z" fill="#740109"/>
</svg>
