<?xml version="1.0" encoding="UTF-8"?> <svg xmlns="http://www.w3.org/2000/svg" width="121" height="154" viewBox="0 0 121 154" fill="none"><rect x="1" y="1" width="119" height="152" rx="59.5" stroke="#272727" stroke-width="2"></rect><path d="M107.66 63.71C107.66 64.06 106.82 63.78 105.35 64.27C104.44 64.55 103.25 65.11 101.78 65.95C100.31 66.72 99.26 67.42 98.63 67.98C100.1 69.73 101.36 72.39 101.36 75.26C101.36 77.01 100.73 79.04 99.54 80.79C97.79 83.17 95.55 84.92 92.68 86.04C89.88 87.16 87.36 87.86 85.19 88.14C88.48 90.1 90.37 93.46 90.37 96.89C90.37 98.64 89.88 100.67 88.76 102.42C86.8 105.64 83.58 108.09 79.1 109.77C74.62 111.52 69.72 112.36 64.47 112.36C57.75 112.36 53.06 111.59 47.81 110.4C46.41 110.12 45.15 109.63 43.96 109.56C46.2 117.12 52.15 120.97 59.99 120.97C63.7 120.97 66.99 119.78 69.02 118.38C69.51 118.03 70.14 117.68 70.21 117.75C70.56 118.03 70 118.59 69.65 118.94C67.41 120.62 63.98 121.95 59.71 121.95C51.03 121.95 44.8 117.33 42.84 109.77C41.37 110.12 38.36 110.61 36.61 110.61C35.14 110.61 33.88 110.33 33.81 109.49C33.74 108.79 34.3 108.3 35.49 107.95C36.68 107.6 37.73 107.39 38.78 107.39C39.97 107.39 41.44 107.6 42.35 107.67C42.28 106.62 42.07 105.29 42.07 102.98C42.07 98.57 43.12 93.74 45.22 88.56C47.32 83.38 50.26 78.97 54.04 75.26C61.88 67.42 73.01 63.01 84.77 63.01C90.72 63.01 95.41 64.97 97.86 67.14C99.54 65.95 102.83 64.2 104.86 63.64C105.7 63.36 106.26 63.29 106.75 63.29C107.31 63.29 107.66 63.43 107.66 63.71ZM97.02 67.7C95.06 65.95 90.58 64.06 84.91 64.06C78.96 64.06 73.5 65.32 68.67 67.77C63.84 70.22 59.71 73.16 56.21 76.59C52.08 80.65 48.86 85.13 46.62 89.96C44.38 94.79 43.26 99.2 43.26 103.19C43.26 105.22 43.33 106.76 43.61 107.88C43.96 107.95 44.73 108.09 45.36 108.09C49.28 108.09 53.62 106.55 58.31 103.4C63 100.25 68.53 95.21 74.9 88.14C82.18 79.95 90.09 71.97 97.02 67.7ZM97.86 68.61C94.5 71.27 91.42 74.28 88.69 77.57L81.34 86.39C81.97 86.32 83.02 86.6 84.21 87.44C87.92 87.09 92.75 85.48 96.74 79.88C98.49 77.29 99.19 74.84 99.19 73.09C99.19 70.78 98.35 69.17 97.86 68.61ZM85.26 101.44C86.66 99.41 87.29 97.1 87.29 95.07C87.36 91.99 85.96 89.26 83.23 88.14C83.16 88.21 82.67 88.28 82.46 88.28C81.62 88.28 80.71 87.86 80.71 87.09C79.66 88.56 78.05 90.38 76.02 92.55C73.99 94.72 72.1 96.54 70.35 98.01C65.52 102.07 61.04 104.87 56.98 106.34C52.92 107.81 49.28 108.65 46.13 109C50.4 109.84 56.63 111.24 64.47 111.24C73.15 111.24 80.99 108.16 85.26 101.44Z" fill="black"></path><path d="M85.87 36.06C85.8 36.41 84.96 36.13 83.56 36.62C81.81 37.18 78.73 38.86 77.33 39.98C78.94 41.73 80.06 44.39 80.06 47.19C80.06 49.36 79.43 52.09 77.96 54.12C74.81 58.67 68.72 61.26 63.61 61.26C62.7 61.26 61.72 61.19 60.53 60.91C59.9 60.84 59.06 60.35 59.41 59.72C59.76 59.37 60.25 59.44 60.81 59.72C61.86 60.28 62.07 60.42 63.4 60.42C67.81 60.42 72.01 57.83 75.58 52.58C77.47 49.99 78.17 47.47 78.17 45.44C78.17 43.41 77.47 41.52 76.56 40.61C72.5 43.69 68.93 47.12 65.92 50.97C62.91 54.75 60.32 57.9 58.01 60.42C51.01 68.33 44.71 73.44 39.11 75.82C33.58 78.13 28.12 79.6 22.87 80.09C29.31 81.28 36.38 82.61 40.93 82.61C45.69 82.61 50.1 81.21 53.11 77.22C53.32 76.94 53.53 76.8 53.6 76.87C53.95 76.94 53.74 77.71 53.53 78.27C52.2 82.19 49.75 85.27 46.18 87.44C42.61 89.68 38.97 90.8 35.12 90.8C27.77 90.8 21.75 87.09 19.72 80.58C18.39 80.72 16.78 81.07 14.75 81.7C12.79 82.33 10.83 82.61 8.94 82.61C7.19 82.61 6.28 82.33 6.28 81.56C6.28 80.65 6.98 80.09 8.45 79.81C9.92 79.46 11.25 79.32 12.58 79.32C14.75 79.32 17.13 79.46 19.44 79.53C19.09 77.92 18.88 76.24 18.88 74.28C18.95 65.39 22.66 55.94 30.78 47.89C34.56 44.18 39.18 41.03 44.64 38.44C50.1 35.85 56.05 34.52 62.42 34.52C66.34 34.52 69.42 35.08 71.73 36.13C74.04 37.18 75.58 38.16 76.49 39.07C78.17 37.95 80.9 36.55 83.07 35.99C84.26 35.64 85.94 35.57 85.87 36.06ZM75.65 39.56C73.62 37.67 69.63 35.64 62.98 35.64C57.38 35.64 51.92 36.97 46.67 39.56C41.42 42.15 36.8 45.51 32.81 49.64C24.69 58.04 20.21 66.44 20 74.28C19.93 76.24 20.07 78.06 20.56 79.53C32.39 78.76 43.1 71.41 53.53 60.14C56.96 56.43 60.53 52.65 64.24 48.94C67.95 45.23 71.73 42.08 75.65 39.56ZM52.41 79.18C51.22 80.51 49.68 81.63 47.93 82.68C46.18 83.73 43.52 84.29 40.09 84.29C37.36 84.29 34.7 84.01 32.04 83.38C29.45 82.75 25.95 81.84 21.68 80.51C21.4 80.44 21.05 80.37 20.84 80.44C22.87 86.81 28.96 89.75 35.19 89.75C41.7 89.75 48.7 86.18 52.41 79.18Z" fill="black"></path></svg> 