<?xml version="1.0" encoding="UTF-8"?> <svg xmlns="http://www.w3.org/2000/svg" width="701" height="698" viewBox="0 0 701 698" fill="none"><path d="M337.99 0.492364C129.39 11.3924 -8.31024 174.992 0.38976 381.292C4.18976 471.592 40.4898 549.292 49.0898 634.992C51.2898 657.192 44.8898 684.592 70.4898 694.292C101.99 706.192 150.29 686.192 176.69 667.892C185.69 661.792 194.29 654.692 200.89 645.892C228.19 663.992 254.09 681.492 286.59 689.292C429.69 723.592 586.49 645.092 656.19 518.992C787.19 282.092 610.09 -13.7076 337.99 0.492364ZM256.99 494.892C245.69 503.692 234.79 515.692 222.29 522.592C204.19 532.292 198.59 522.192 191.79 506.192C170.39 455.292 167.79 368.592 180.29 315.292C197.09 242.792 253.19 178.992 330.29 172.192C408.29 165.292 480.69 204.892 513.39 276.392C585.79 435.492 400.49 592.592 256.99 494.992V494.892Z" fill="#212121"></path></svg> 