<?xml version="1.0" encoding="UTF-8"?> <svg xmlns="http://www.w3.org/2000/svg" width="422" height="553" viewBox="0 0 422 553" fill="none"><path d="M214.5 1.5C305.91 1.5 380.5 92.3125 380.5 205C380.5 317.687 305.91 408.5 214.5 408.5C123.09 408.5 48.5 317.687 48.5 205C48.5 92.3125 123.09 1.5 214.5 1.5Z" stroke="#FBF8EF" stroke-width="3"></path><path d="M376.92 157.738C376.99 158.51 375.19 157.346 369.332 159.389C358.149 163.288 346.725 175.635 335.123 196.604C323.459 217.396 313.962 235.84 306.633 251.935C295.852 276.401 287.932 297.082 284.769 309.136C282.559 317.074 281.18 320.542 278.872 321.346C276.742 322.089 274.154 319.806 274.65 312.665C275.101 306.534 278.173 296.503 283.628 282.456C289.083 268.408 294.793 255.665 300.697 244.049C318.881 208.838 337.019 183.2 352.757 168.952C329.91 185.082 313.961 205.577 299.147 226.472C287.364 242.925 277.232 258.405 268.512 272.794L241.257 318.535C240.588 321.755 239.688 325.454 238.54 328.443C235.62 336.628 232.805 339.402 231.075 339.01C229.168 338.679 228.995 334.758 230.96 330.688C233.851 324.702 235.77 321.643 238.33 317.565C240.139 310.762 242.278 302.052 244.686 291.257C247.032 280.285 249.403 271.096 251.558 263.575C254.569 253.366 258.698 242.369 263.946 230.584C269.372 218.737 276.428 208.71 285.354 200.62C277.567 205.127 267.044 213.774 256.317 229.262C247.688 241.629 240.719 253.616 231.932 271.812C225.227 285.699 219.793 296.951 215.808 305.509C211.762 313.888 208.001 321.372 204.169 328.084C188.958 354.692 169.563 371.013 150.391 377.699C131.752 384.199 120.375 378.41 115.385 365.814C109.29 350.618 113.383 332.665 126.747 314.466C135.145 302.577 146.796 293.736 156.357 288.61C154.45 288.28 150.904 285.534 149.055 280.803C144.375 269.095 147.77 256.563 159.478 243.321C171.125 229.901 189.406 218.947 214.258 210.281C228.814 205.205 242.322 201.689 254.958 199.671C267.533 197.477 277.445 196.21 284.215 195.641C289.441 195.212 296.219 195.238 299.555 195.668C301.045 195.944 302.837 196.514 302.374 197.472C302.382 198.066 301.132 197.905 299.224 197.575C297.317 197.244 294.461 197.046 292.268 197.611C290.076 198.177 286.481 200.426 282.818 206.482C275.147 219.311 269.134 240.323 262.226 261.049C257.196 275.745 252.228 290.618 246.117 304.496C252.41 295.134 259.557 283.085 267.736 268.286C275.915 253.488 285.754 238.31 297.253 222.752C305.543 211.698 316.311 199.182 329.2 185.33C342.267 171.415 355.338 162.079 368.296 157.56C374.154 155.517 377.205 156.842 376.92 157.738ZM288.223 197.429C272.251 199.017 245.628 204.319 216.693 214.409C195.924 221.652 178.7 231.64 165.138 244.135C151.576 256.629 147.223 268.699 152.027 280.762C153.381 284.073 157.112 287.351 158.896 287.326C161.852 286.097 164.923 284.627 167.586 283.699C181.787 278.746 193.185 281.741 196.837 292.214C198.632 297.362 197.571 302.311 195.841 301.919C194.768 301.696 196.341 299.356 194.298 293.498C191.017 284.089 180.462 281.797 168.568 285.945C155.787 290.402 141.383 302.194 130.656 317.682C125.405 324.889 121.589 332.79 118.856 341.508C116.122 350.227 115.989 357.839 118.403 364.762C122.551 376.656 132.891 380.615 147.093 375.663C156.146 372.506 165.096 366.199 174.299 356.619C183.502 347.038 191.854 336.162 199.063 324.29C203.365 317.215 207.25 310.086 210.896 302.841C214.542 295.597 219.468 286.313 225.434 274.875C230.591 265.112 234.939 257.026 238.771 250.314C242.602 243.602 247.26 236.403 252.92 228.655C265.76 211.235 277.882 202.031 288.223 197.429Z" fill="#FBF8EF"></path><path d="M84.2554 175.752C78.1924 173.307 74.4932 168.301 72.4775 163.142C67.56 149.659 71.339 136.835 83.3601 124.612C95.3812 112.388 111.394 102.897 131.139 96.0139C152.239 88.658 171.496 84.1152 189.232 82.0568L224.772 78.1337C227.945 77.8957 236.692 77.4517 241.171 77.8442C243.183 78.0111 246.559 78.3539 245.928 79.6591C245.55 80.4423 242.426 79.5775 240.684 80.1848C233.522 82.6818 225.539 91.5436 218.745 101.945C210.108 115.16 201.786 132.39 196.072 145.888C200.789 149.454 204.546 154.006 206.773 160.394C207.853 163.491 208.352 166.791 208.667 170.806C212.927 159.985 218.029 149.088 222.829 139.816C233.447 119.832 245.127 101.648 257.743 85.5267C270.485 69.1439 284.924 58.2487 301.184 52.5799C309.507 49.678 319.937 49.0813 324.654 52.6473C326.094 53.6649 326.769 55.6006 325.869 56.1316C325.288 56.3341 324.505 55.9558 322.484 55.1407C316.682 52.8214 310.056 51.8748 302.507 54.5068C286.247 60.1755 271.642 73.0829 258.818 92.9677C245.994 112.853 235.939 131.338 228.198 148.366C216.742 173.418 210.08 193.543 206.427 206.106C203.95 214.568 203.112 219.636 200.276 220.842C196.665 222.318 195.559 217.276 196.136 212.082C196.695 205.591 200.668 192.699 205.667 179.016C206.614 172.39 205.885 166.565 204.266 161.919C202.376 156.499 199.073 152.006 194.752 148.953C190.55 159.319 185.912 170.923 180.945 182.207C166.967 212.481 152.09 233.95 135.927 246.749C119.765 259.548 106.394 267.901 95.3605 271.747C87.8111 274.379 80.0415 275.134 71.6646 274.147C63.3551 273.353 57.3063 267.212 53.3922 255.984C49.883 245.919 50.556 233.526 55.4112 218.808C60.3926 203.828 69.9878 189.628 84.2554 175.752ZM235.237 80.1298C228.242 80.6147 215.431 82.4758 196.61 85.7809C177.915 88.8249 156.856 94.4297 133.433 102.595C115.044 109.007 99.8636 117.772 87.6987 128.961C75.5337 140.149 71.3409 151.163 75.1875 162.197C76.8072 166.843 80.565 171.394 86.5605 173.646C101.67 159.695 120.461 149.453 136.14 143.986C156.272 136.968 175.313 135.54 189.536 142.088C195.85 129.683 204.09 115.955 212.037 104.501C219.984 93.046 227.832 83.7971 235.237 80.1298ZM188.082 144.766C174.381 138.47 157.091 139.939 141.024 145.54C130.571 149.185 119.766 155.557 108.543 164.463C97.3189 173.369 88.0398 182.249 80.6468 191.556C60.5702 216.792 50.7531 238.451 56.9618 256.26C60.2011 265.551 65.4578 270.666 72.6644 271.41C80.0646 272.086 86.7988 271.476 93.1868 269.248C103.64 265.604 114.949 258.188 126.988 247.261C139.026 236.334 151.237 219.05 163.621 195.411C171.893 179.284 178.927 162.72 188.082 144.766Z" fill="#FBF8EF"></path></svg> 