<?xml version="1.0" encoding="UTF-8"?> <svg xmlns="http://www.w3.org/2000/svg" width="1664" height="1495" viewBox="0 0 1664 1495" fill="none"><path d="M831.646 1491.47C831.922 1491.28 832.249 1491.05 832.629 1490.77C834.009 1489.77 835.964 1488.26 838.444 1486.31C843.398 1482.4 850.368 1476.73 858.842 1469.73C875.786 1455.73 898.709 1436.4 923.479 1415.15L923.486 1415.14C973.382 1372.62 1042.29 1313.56 1077.44 1283.68C1400.78 1006.73 1580.93 788.865 1636.93 608.246V608.245C1659.51 534.974 1667.25 446.546 1657.13 379.321L1656.89 377.741C1627.99 193.915 1487.08 46.8435 1304.96 9.771L1302.82 9.34033C1284.43 5.69684 1253.42 3.67591 1222.62 3.4126C1191.8 3.1492 1161.52 4.64749 1144.56 7.93604L1144.55 7.93799L1144.54 7.93994L1142.76 8.27588C1105.15 15.4771 1053.45 32.6831 1022.19 48.4849V48.4858C957.178 81.3414 888.638 141.858 852.345 198.392L852.344 198.393C847.581 205.802 843.074 212.431 839.614 217.221C837.888 219.611 836.403 221.572 835.266 222.951C834.703 223.633 834.187 224.22 833.747 224.654C833.533 224.866 833.281 225.096 833.012 225.292C832.877 225.389 832.687 225.517 832.453 225.627C832.25 225.724 831.822 225.903 831.261 225.903C830.693 225.903 830.259 225.72 830.046 225.616C829.806 225.499 829.612 225.364 829.478 225.262C829.209 225.059 828.963 224.82 828.759 224.607C828.339 224.169 827.854 223.582 827.331 222.909C826.274 221.548 824.901 219.621 823.312 217.303C820.125 212.657 815.979 206.304 811.582 199.445L811.575 199.435L811.569 199.424C801.357 183.154 779.294 157.923 755.413 133.911C731.538 109.904 706.12 87.3901 689.306 76.4692H689.305C661.34 58.2921 610.917 33.4363 582.674 24.022L582.669 24.02C530.432 6.49331 443.483 -1.91685 389.516 4.81494L386.971 5.14697L385.018 5.41748C219.772 28.684 78.8792 143.635 25.4893 298.991L24.8633 300.828C6.68642 355.01 2.50039 382.153 2.5 448.695C2.84995 543.882 17.8588 605.023 64.1084 699.975L64.1074 699.976C129.273 833.46 255.173 983.286 469.175 1181.83L469.174 1181.83C494.979 1205.52 584.907 1283.16 668.961 1354.91C710.983 1390.78 751.518 1425.16 781.81 1450.58C796.956 1463.29 809.535 1473.75 818.455 1481.03C822.917 1484.67 826.451 1487.51 828.928 1489.43C830.086 1490.32 830.993 1491.01 831.646 1491.47Z" stroke="#FBF8EF" stroke-width="5"></path></svg> 