<?xml version="1.0" encoding="UTF-8"?> <svg xmlns="http://www.w3.org/2000/svg" width="140" height="136" viewBox="0 0 140 136" fill="none"><path d="M137.464 34.7927C138.153 33.5109 138.226 37.3547 139.119 34.6299C139.304 35.139 139.485 35.653 139.655 36.1657C139.182 36.3741 138.709 36.5817 138.234 36.7827C137.99 36.1154 137.733 35.4537 137.461 34.7931C137.462 34.793 137.463 34.7928 137.464 34.7927ZM131.161 35.1091C132.67 35.3568 133.377 37.1685 134.301 34.9235C133.79 34.8563 133.279 34.7903 132.769 34.7333C133.001 33.9792 133.212 33.2052 133.401 32.4203C133.157 32.2176 132.911 32.0186 132.667 31.8222C133.399 31.2859 134.126 30.7337 134.843 30.1602C134.811 30.4886 134.775 30.8195 134.736 31.1438C135.716 32.1138 136.161 33.1293 136.594 34.7053C136.765 34.5271 136.933 34.3474 137.101 34.1659C136.93 35.0557 136.733 35.9279 136.514 36.7802C136.079 36.1323 135.58 35.424 135.151 34.8504C134.045 36.1051 135.035 37.7113 135.413 38.6157C135.928 39.8357 135.266 39.614 135.61 40.5203C135.663 40.6654 136.16 40.6434 136.19 40.9407C136.356 42.4473 136.129 45.3213 134.941 43.6757C135.022 41.2572 133.925 39.3002 133.909 36.9264C132.674 37.7401 132.067 36.5805 131.161 35.1091ZM126.94 77.5309C126.786 76.5663 127.762 75.4859 128.653 74.8503C128.654 74.8494 128.654 74.8483 128.655 74.8473C128.853 74.7058 129.858 74.6949 129.456 75.316C128.802 76.3093 127.354 76.0622 127.813 77.0722C127.522 77.2151 127.238 77.3785 126.94 77.5309ZM125.636 79.6672C124.962 80.0679 124.3 79.2244 125.015 78.6534C125.014 78.653 125.014 78.6525 125.013 78.6521C125.31 78.4131 125.594 79.4556 125.625 77.9127C126.307 78.0377 126.933 78.1403 127.605 78.2382C127.432 78.5273 127.29 78.7765 127.109 79.0681C126.355 78.3016 126.308 79.2633 125.636 79.6672ZM135.538 44.8875C136.483 44.9969 136.479 44.5204 137.115 43.6703C137.104 44.4593 137.075 45.2502 137.033 46.0296C136.538 45.6399 136.04 45.2616 135.538 44.8875ZM132.346 26.7563C132.346 26.7552 132.345 26.754 132.345 26.7529C132.106 26.5626 131.865 26.3754 131.626 26.1944C131.873 25.9155 132.117 25.6351 132.358 25.349C131.677 24.6026 130.968 23.8831 130.238 23.2067C131.203 22.8094 131.855 24.4198 132.894 25.002C133.198 26.4418 132.864 27.2885 132.084 27.6832C132.175 27.3782 132.264 27.07 132.346 26.7563ZM20.8256 89.0131C20.4382 88.9356 20.0525 88.8604 19.6653 88.7816C19.7487 89.1584 19.858 89.5168 19.9282 89.9085C21.4925 90.0518 20.6156 90.7209 21.3629 91.735C23.6766 94.8425 24.7063 92.8999 24.3109 97.368C22.8551 94.9739 22.3563 96.6059 20.562 95.7574C21.0172 95.0365 23.4061 95.4596 23.0817 94.3137C21.3186 93.1465 19.6461 91.9851 18.0254 90.4208C17.9459 90.5466 17.8658 90.6725 17.7864 90.7985C18.0438 91.0459 18.3008 91.2903 18.5595 91.5372C18.0541 91.4155 17.556 91.2981 17.0442 91.171C17.9921 91.1398 16.9505 90.3483 17.833 89.9861C18.2255 89.8248 19.0034 89.97 19.5108 90.0233C19.255 89.2158 18.9788 88.4029 18.7196 87.5862C19.2284 87.7737 19.7406 87.9637 20.2463 88.142C20.4397 88.43 20.6301 88.7175 20.8253 89.0057C20.8254 89.0082 20.8255 89.0106 20.8256 89.0131ZM85.752 6.91159C84.9892 8.23444 83.2 9.20866 81.7214 8.75263C83.0251 8.0783 84.3715 7.45933 85.752 6.91159ZM131.444 28.024C131.551 27.8433 131.658 27.6656 131.763 27.4821C132.262 27.9114 132.753 28.3607 133.235 28.8208C132.82 29.084 132.405 29.3461 131.989 29.6045C131.819 29.0767 131.638 28.547 131.444 28.024ZM132.338 63.2258C132.442 62.8071 132.471 62.7726 132.69 62.2762C132.689 62.2767 132.689 62.2771 132.688 62.2776C132.785 62.0831 133.502 60.4355 133.806 60.7098C133.603 61.5774 133.336 62.4996 133.05 63.3858C132.811 63.3387 132.581 63.2694 132.338 63.2258ZM134.581 53.5533C134.582 53.5523 134.582 53.5513 134.583 53.5503C134.677 53.2603 134.825 52.9904 134.881 52.6819C135.323 53.8692 134.268 53.9137 134.413 54.9581C134.556 55.9953 135.009 56.7464 133.455 57.3287C133.304 56.9712 133.062 56.5912 132.872 56.2286C133.669 54.9116 133.191 54.4504 132.782 53.2574C133.383 53.3559 133.98 53.4537 134.581 53.5533ZM28.0643 104.857C28.7878 104.659 28.3942 105.296 28.405 105.325C28.4041 105.325 28.4031 105.325 28.4021 105.325C30.2714 106.811 27.9072 105.308 29.0906 107.137C28.7585 106.978 28.4213 106.828 28.0889 106.671C28.0753 106.071 28.0906 105.432 28.0643 104.857ZM85.772 118.894C85.9204 119.037 86.0723 119.178 86.2208 119.32C85.188 120.129 85.4596 120.953 84.1417 121.093C84.6979 120.352 85.2287 119.629 85.7704 118.892C85.771 118.893 85.7715 118.894 85.772 118.894ZM128.272 69.1803C128.573 67.683 128.891 66.5611 130.001 65.4677C130.002 65.4669 130.003 65.4662 130.005 65.4655C130.072 65.4016 130.318 65.9377 130.459 65.8771C130.51 65.58 130.542 65.2316 130.582 64.912C130.918 64.9946 131.253 65.0782 131.588 65.1583C131.167 65.9921 130.756 66.7303 130.306 67.5078C130.543 67.4695 130.779 67.4263 131.015 67.3853C130.811 68.1171 130.575 68.8757 130.352 69.5755C129.958 69.097 129.557 68.6302 129.151 68.1632C128.86 68.5077 128.572 68.8443 128.272 69.1803ZM67.315 130.532C67.6284 130.581 67.51 131.13 67.9067 131.08C68.3021 131.029 68.5859 130.306 68.8338 130.906C68.4945 131.259 68.1567 131.624 67.8079 131.984C69.7364 131.999 70.4195 130.212 71.2764 131.326C69.7996 131.964 68.9483 132.793 67.9331 133.995C67.3357 133.053 67.9839 131.4 66.6113 131.096C66.8453 130.91 67.0965 130.703 67.3138 130.536C67.3142 130.535 67.3146 130.533 67.315 130.532ZM109.48 22.6459C108.992 22.2669 107.532 22.0603 107.014 21.1575C106.894 20.9323 106.992 18.7476 107.076 18.4887C107.412 17.6298 108.338 17.8491 107.609 16.9303C107.935 17.0447 108.243 17.1272 108.575 17.2448C108.751 16.6484 108.924 16.0524 109.095 15.4565C108.653 15.3794 108.219 15.3152 107.771 15.2565C107.82 15.0562 107.868 14.8555 107.916 14.655C109.42 15.2038 108.798 14.1298 109.873 13.7589C109.275 13.1155 108.647 12.4908 107.965 11.8738C108.411 12.0679 108.929 12.2865 109.297 12.4816C109.721 11.5168 108.676 11.4059 108.569 11.1681C107.999 9.7632 112.55 12.0703 113.57 10.9682C112.877 10.4472 112.139 9.94273 111.369 9.45624C111.677 9.37572 111.988 9.29951 112.298 9.2254C113.72 10.9629 115.538 12.3108 117.045 14.0915C117.24 14.1675 117.434 14.2445 117.622 14.3237C117.842 13.8994 118.06 13.4771 118.274 13.05C118.572 13.1842 118.87 13.3249 119.161 13.4668C117.488 14.1993 118.598 14.916 119.137 16.5892C118.196 16.5228 117.621 15.6927 117.077 16.5613C119.681 17.469 121.093 20.3969 123.286 21.8479C123.837 22.2235 124.92 21.426 125.695 22.8054C125.544 22.8402 125.321 22.9762 125.143 23.0526C127.099 24.9279 128.232 26.3256 128.648 29.1438C129.033 28.8252 129.418 28.5027 129.797 28.1728C129.352 27.6917 128.892 27.2265 128.428 26.7804C128.958 26.0796 129.563 26.4853 128.721 24.8273C128 23.484 128.122 24.4512 127.723 24.2024C127.181 23.8801 127.47 23.1417 126.853 22.8213C126.377 22.58 126.107 23.3349 125.596 22.2694C126.554 22.1917 127.551 22.1446 128.539 22.1385C128.54 22.5001 128.53 22.8596 128.516 23.2172C128.17 23.0631 127.827 22.9181 127.48 22.7784C128.375 23.475 129.197 24.1806 130.067 25.0096C128.825 25.2208 129.731 26.0363 130.109 26.5512C130.698 27.3477 129.608 26.9187 129.979 27.4398C130.345 27.9548 131.471 28.2592 131.661 29.4158C130.953 29.0158 130.768 29.9547 130.245 29.9631C129.725 29.971 129.239 28.9403 129.094 30.1499C130.15 32.0198 131.226 29.2276 131.971 30.5453C132.859 32.201 129.939 33.3597 129.179 33.0465C128.581 32.8046 128.305 31.5067 127.686 31.3061C127.486 33.7897 129.219 33.3315 129.685 33.6509C131.315 34.8223 127.67 34.6093 129.259 36.0421C128.607 36.1335 128.021 36.2198 127.395 36.3088C127.567 36.5676 127.759 36.727 127.912 37.0555C128.991 35.8065 129.091 36.6519 129.166 37.0963C129.284 37.7912 129.724 36.6135 129.913 36.7689C130.427 37.2005 130.352 38.043 130.836 37.4612C130.61 37.7247 130.384 38.0034 130.157 38.2651C130.598 39.015 133.536 40.7949 132.776 38.8965C133.812 38.9604 133.396 39.6637 133.285 40.1721C133.174 40.6818 133.821 40.6189 133.734 41.0697C133.369 42.8515 132.185 41.7588 131.299 41.5625C132.013 43.7479 132.343 41.5364 132.816 44.7815C133.53 45.1011 134.271 43.5476 134.694 44.8334C133.459 45.0845 132.593 46.0111 132.11 47.769C132.386 47.9533 132.664 48.1385 132.938 48.3278C131.743 49.2541 130.608 48.6485 131.871 50.5438C129.359 49.3679 130.977 50.1868 129.763 51.6255C129.517 51.9165 129.059 51.135 128.741 51.5422C128.597 51.7245 128.948 52.2498 128.576 52.6855C128.394 52.8977 127.256 53.8406 127.606 54.6448C128.939 54.2803 129.762 55.9193 130.991 54.8164C130.364 57.1298 130.615 58.8428 129.418 55.9424C128.943 56.4486 128.457 56.9739 127.971 57.4593C128.186 57.9112 128.388 58.388 128.589 58.8531C127.907 58.742 127.56 58.6526 127.353 59.0688C127.252 59.2606 127.183 59.581 127.104 60.0948C127.074 59.7133 127.035 59.3397 126.986 58.9737C126.943 58.6508 126.9 58.3161 126.856 57.9784C126.657 57.9115 126.464 57.7728 126.261 57.7527C126.324 58.0174 126.339 58.4054 126.328 58.8308L126.331 58.8177C126.323 59.7763 126.071 61.066 126.131 61.4869C126.217 62.099 126.625 61.1107 126.83 61.3376C128.49 63.3303 126.972 62.7243 126.969 63.7982C126.958 64.4459 127.705 63.1802 127.677 63.5161C127.564 64.7979 126.284 64.8154 125.846 65.7674C126.604 65.6989 127.372 65.6248 128.134 65.541C127.666 66.57 127.12 67.7267 126.844 68.751C126.732 69.1587 127.314 69.1011 127.313 69.1765C127.318 69.5541 126.9 70.9249 126.836 71.0402C126.316 71.9995 125.704 71.6915 125.138 72.5961C125.3 72.2037 125.449 71.8373 125.598 71.4572C124.72 70.7547 123.838 70.0571 122.948 69.3698C122.411 70.1803 121.828 71.0277 121.261 71.807C121.944 71.3945 122.638 70.9409 123.321 70.4846C123.529 71.9373 123.716 73.3755 123.844 74.8622C123.047 75.0966 122.254 75.3127 121.468 75.5066C120.692 76.9415 122.709 77.9351 120.649 77.4803C120.504 77.9836 120.373 78.46 120.224 78.9524C120.036 78.7344 119.847 78.5171 119.658 78.3C119.465 78.8714 119.263 79.4452 119.056 80.024C120.22 80.1067 121.423 80.2171 122.566 80.2624C122.06 81.3484 121.359 80.8769 121.088 80.8961C120.369 80.9462 120.418 82.1405 119.792 82.12C119.578 82.1135 119.809 80.8736 119.063 80.8104C118.914 80.8066 116.157 80.5882 116.003 81.6692C116.35 81.914 116.808 82.1726 117.198 82.4228C116.599 83.6225 114.46 82.7469 114.078 82.2313C114.004 83.0274 113.407 83.8244 113.845 84.3616C113.637 84.6436 113.428 84.9239 113.218 85.2057C112.168 83.8801 111.494 85.1707 112.52 86.1577C112.931 85.7211 113.334 85.2918 113.746 84.8419C114.807 86.289 116.784 85.5715 113.104 87.4638C111.942 87.4369 114.031 86.5521 113.129 86.5702C112.171 87.1006 111.784 88.0642 110.672 88.383C109.281 88.7766 109.704 87.1553 108.585 89.9336C114.588 86.9003 109.324 91.7302 107.862 94.411C105.484 93.3219 103.249 94.5741 101.397 97.5054C102.139 97.7383 102.634 96.7235 103.225 96.4399C103.817 96.1548 103.646 96.9225 104.416 96.5891C105.188 96.2553 106.638 95.3644 107.529 95.1243C107.37 95.8761 105.756 98.9055 106.458 96.559C104.838 97.2661 103.811 97.3189 102.316 98.654C102.661 99.8371 103.169 100.286 101.802 101.691C101.566 99.8143 99.2595 100.635 98.5185 99.1894C99.7452 98.4819 100.261 100.089 101.335 100.035C101.444 100.03 102.088 98.8486 102.316 98.654C100.439 98.6296 99.7741 98.58 99.1921 96.8867C98.6521 97.6287 98.11 97.8809 98.5919 98.4847C98.2228 98.3816 97.8532 98.2783 97.4869 98.1718C97.2831 98.3848 97.1156 98.5929 96.888 98.8075C98.0069 99.3323 96.9117 99.4089 96.8511 100.2C96.7896 100.992 98.004 101.091 96.8297 102.242C97.4126 102.057 97.9348 101.876 98.4949 101.688C97.9412 102.644 97.3792 103.601 96.8115 104.552C97.8418 104.551 99.7467 104.175 100.363 104.873C99.7634 104.966 98.9634 106.587 98.8444 106.734C98.3871 107.3 98.268 106.603 98.2184 106.63C97.2019 107.201 96.6572 107.982 95.7377 107.623C95.391 108.494 94.7691 108.757 94.12 109.383C93.7633 109.727 94.2751 110.144 93.9772 110.248C91.9907 110.931 92.8031 109.071 91.1052 112.748C91.7442 112.789 92.387 112.839 93.0316 112.878C92.8312 113.289 92.6327 113.698 92.4311 114.107C92.1648 114.233 91.9 114.356 91.634 114.481C90.9843 113.738 90.3342 112.992 89.6844 112.249C89.4194 112.412 89.1545 112.576 88.8897 112.737C89.2188 112.318 89.5486 111.897 89.8768 111.475C89.7973 111.313 89.7153 111.153 89.6357 110.992C88.8741 111.309 88.1143 111.617 87.3544 111.923C87.5695 112.191 87.7864 112.461 88.0014 112.729C86.3583 113.529 86.1398 113.333 85.4946 115.134C84.5111 115.963 84.6317 117.739 84.4499 118.681C84.1214 118.706 83.7916 118.728 83.4619 118.752C83.5155 119.08 83.5605 119.413 83.6104 119.743C83.0918 119.657 82.5709 119.573 82.0564 119.486C82.4852 120.301 82.5856 120.586 83.82 119.972C84.1796 121.135 82.0589 122.243 81.0734 122.555C80.326 122.793 80.3655 121.556 80.2225 121.526C79.7421 121.419 79.0243 122.427 78.7902 122.532C77.8071 122.979 77.2497 123.482 76.3697 123.912C76.1975 123.996 75.4243 123.849 75.3788 123.861C75.0465 123.993 74.2155 124.276 74.1309 124.33C69.9172 127.016 75.7129 125.82 71.8539 128.414C72.1697 128.601 72.4757 128.792 72.7902 128.98C72.519 129.211 72.2455 129.441 71.9768 129.669C71.4513 129.708 71.5713 128.975 71.1172 129.832C70.9131 129.463 70.709 129.093 70.5082 128.724C70.3359 129.134 70.1903 129.521 69.9966 129.945C68.6207 129.161 66.6365 130.196 65.7717 128.717C65.4738 128.218 66.3798 126.824 65.3521 126.807C64.7441 127.097 65.5135 127.394 65.316 127.582C63.8477 128.952 63.3712 128.093 62.8712 128.765C63.0085 129.177 63.1449 129.6 63.2816 130.017C62.9733 130.084 62.6312 130.174 62.3077 130.251C62.4079 130.521 62.5056 130.794 62.6055 131.065C62.856 130.914 63.1394 130.739 63.3739 130.598C63.664 131.725 61.1616 134.024 61.6985 132.54C61.9128 131.942 62.7984 131.523 61.5721 130.816C60.953 131.466 60.1729 132.221 59.4909 132.894C59.3143 132.681 59.1393 132.466 58.9631 132.252C58.0179 133.089 59.5696 133.385 59.8965 133.876C59.6622 134.05 59.4332 134.218 59.1795 134.403C58.9254 134.25 58.671 134.083 58.4187 133.938C58.6415 134.299 59.027 135.228 58.0919 135.39C57.5224 135.481 57.6413 134.238 56.9541 134.721L57.4695 134.796C57.4423 134.768 57.411 134.738 57.3753 134.708C56.9261 135.199 56.5832 136.033 55.6342 135.273C56.0755 134.728 56.4425 134.185 56.9282 133.637C55.4478 132.946 55.8209 131.744 54.0837 130.893C53.0088 130.382 50.678 130.302 52.2745 128.043C51.8028 127.367 51.4564 127.99 51.1852 127.898C49.9286 127.493 50.3538 126.014 50.2764 125.803C49.8081 124.479 49.0566 124.251 48.8453 123.04C48.4982 123.398 48.1547 123.718 47.8099 124.058C49.0053 124.355 49.3294 124.81 50.0844 125.981C49.7124 125.684 49.3351 125.384 48.9566 125.077C48.6949 125.391 48.4327 125.705 48.1708 126.016C52.1775 128.401 49.6014 129.208 46.8373 126.697C47.2119 125.981 47.5692 125.246 47.9548 124.539C45.7509 123.609 45.8752 122.204 44.57 120.184C44.4161 119.947 43.4294 119.388 43.137 119.05C43.1393 119.058 43.1417 119.065 43.144 119.073C42.4222 119.29 42.3991 119.783 41.9339 120.206C41.7236 120.066 41.5129 119.924 41.3017 119.783C41.3437 119.061 41.7718 118.972 41.0218 118.196C40.7355 118.603 40.4482 119.009 40.1623 119.416C39.4165 118.488 39.3711 117.585 38.5211 116.849C38.7764 116.886 39.0304 116.919 39.2852 116.954C38.1938 114.785 41.5698 114.584 39.3786 114.016C39.5036 113.777 39.6323 113.54 39.7574 113.301C40.2531 113.851 40.7367 114.386 41.2376 114.937C41.5204 114.738 41.8027 114.541 42.0836 114.339C41.516 113.773 40.9625 113.227 40.4018 112.663C40.9342 112.978 41.4666 113.291 41.9961 113.6C41.5786 112.785 41.1592 111.964 40.7383 111.136C40.3141 112.678 39.4285 111.77 38.5704 112.72C38.4332 110.806 38.7771 108.973 36.58 107.493C36.1456 107.202 35.5967 107.941 35.627 106.176C34.7017 107.281 33.1269 106.242 32.186 107.209C32.5295 107.57 32.8645 107.959 33.2105 108.297C33.2602 107.585 34.232 106.764 35.0217 107.202C36.0251 107.756 36.2368 109.513 37.3284 108.619C37.5246 108.993 37.7249 109.327 37.922 109.682C37.5428 109.759 37.1636 109.84 36.7856 109.918C37.9124 110.51 38.2135 111.204 37.844 112.176C36.8491 111.197 35.8656 110.219 34.8788 109.226C34.9524 109.426 35.0273 109.628 35.1025 109.826C33.7555 109.522 33.71 110.895 32.3943 109.439C32.7329 109.204 33.0702 108.967 33.4104 108.731C32.1025 108.815 30.95 107.226 30.2955 108.478C30.2622 107.772 30.391 107.53 29.6417 107.661C29.5022 105.83 29.9136 104.31 31.4149 103.911C30.8904 103.582 30.3653 103.25 29.8423 102.918C29.7117 103.42 29.5837 103.921 29.4547 104.424C28.8906 103.593 28.3232 102.751 27.7661 101.919C28.6714 101.165 29.1718 103.291 29.6918 102.207C29.7959 101.989 29.1166 101.811 29.132 101.626C29.3238 99.6674 29.9129 102.115 30.464 101.187C29.4368 99.1991 31.8044 99.7077 28.9254 97.9993C29.1585 97.7399 29.394 97.4718 29.6291 97.2188C29.0465 96.3391 28.4638 96.8442 27.8304 96.1754C27.4336 95.7547 28.1469 94.4094 27.0368 94.4028C26.8338 94.4026 26.0624 96.2074 24.8774 94.3119C23.9618 92.8375 25.331 92.7948 25.161 91.791C24.9912 90.7894 22.4768 89.8752 23.6767 88.3557C23.7372 88.8994 23.9615 89.4886 24.09 90.0513C24.5084 90.0422 24.9203 90.0296 25.3351 90.0178C24.275 89.2343 24.0425 87.8679 22.8808 87.6202C23.0988 85.5446 21.1096 84.6073 20.124 85.8015C20.5906 86.1545 20.8214 85.3135 20.8744 86.1716C20.6253 86.4179 20.3801 86.6671 20.1314 86.9139C19.4807 85.7902 19.0114 85.035 20.2042 84.9905C20.1214 84.8081 20.0398 84.6271 19.9561 84.442C19.294 84.8034 18.6315 85.1694 17.9691 85.5302C17.7706 85.3674 17.5726 85.2033 17.375 85.0404C17.3777 84.7248 17.3827 84.4084 17.3876 84.0906C18.5989 83.7899 18.9409 84.293 18.4754 82.2078C18.1179 82.4125 17.7604 82.6139 17.4029 82.8185C16.9786 81.0647 17.8277 80.5483 16.7354 78.6992C18.7853 79.4207 17.0406 81.4506 19.5174 80.0052C19.5594 80.4513 19.6034 80.9035 19.6505 81.3533C20.0405 81.1954 20.4305 81.0364 20.8187 80.8754C19.5183 79.1306 15.3363 77.2693 16.2466 75.1073C15.9683 75.0567 15.7168 74.9944 15.4201 74.9431C15.7118 73.1528 13.2514 73.7464 13.8536 71.7851C13.9225 71.584 16.1173 70.8367 15.238 69.2057C14.9874 69.3773 14.5423 69.6176 14.2175 69.8159C14.2061 69.3664 14.208 68.9194 14.2109 68.4793C13.9292 68.5309 13.6459 68.5788 13.362 68.6304C13.5515 69.2965 13.7567 69.9831 13.9632 70.6531C13.6268 70.1798 13.283 69.6805 12.9538 69.2002C12.8628 70.0751 13.0129 70.3955 12.1572 70.2882C11.9066 69.8382 11.6597 69.3909 11.4193 68.9463C11.3458 68.8096 11.2728 68.6732 11.2004 68.5369C11.0024 68.5503 10.8025 68.5648 10.6044 68.5777C10.3501 68.9361 10.1035 69.2961 9.85429 69.6601C9.73726 69.8263 9.61971 69.9934 9.50061 70.1617C9.4816 70.0558 9.46182 69.9514 9.44152 69.8484C9.10149 68.1786 8.6282 66.8586 9.09311 65.2862C9.17929 65.0066 10.145 65.475 8.96757 64.2927C9.31445 64.1292 9.58817 63.9765 9.90736 63.8216C8.21827 62.4503 8.29975 61.7566 8.38215 59.6377C8.11651 61.0752 8.1863 59.8492 7.71672 59.6686C7.39193 59.544 7.71154 60.3532 7.41643 60.3525C7.12178 60.3532 5.69168 59.6298 5.88182 60.6022C8.84607 62.1117 6.48845 63.6739 8.68138 66.1227C8.2248 65.7954 7.76926 65.4638 7.31854 65.1335C7.21512 65.4153 7.12146 65.6698 7.01627 65.9765C6.78549 64.2003 6.83628 65.1058 6.23966 64.5571C5.64236 64.0026 4.90681 62.897 4.51769 62.088C4.39526 61.8336 4.97759 61.9391 4.8151 61.3302C4.70359 60.9158 3.61299 60.0657 4.38451 59.5238C4.89214 59.1872 6.98617 60.4203 6.20302 58.0083C6.60753 57.3833 6.80251 58.5889 6.87894 58.5939C7.59313 58.5868 7.6126 56.9708 6.91922 56.4584C6.8595 56.416 6.50945 57.1014 6.13594 56.5827C5.23761 55.3063 5.61649 54.3518 6.17982 53.2276C5.21645 53.3662 3.78819 52.4743 3.80611 50.8602C3.51851 50.8417 3.22925 50.8265 2.93955 50.8068C3.13325 51.0123 3.32609 51.2176 3.52195 51.4221C3.40925 51.7161 3.35025 52.0261 3.20808 52.318C2.6226 50.8354 1.28084 50.8915 0.649156 50.2375C-1.49017 47.9102 2.28566 48.8862 2.96545 49.2131C2.78646 49.5894 2.58055 49.965 2.3926 50.337C2.71578 50.2334 3.04151 50.1294 3.36758 50.0293C2.6444 46.277 5.39721 49.0406 5.68795 47.0891C3.97144 46.8841 3.57969 45.4982 4.43349 43.6141C4.40419 43.4223 4.38194 43.2299 4.35256 43.0398C4.10854 43.0317 3.74055 43.07 3.57646 43.031C3.09405 40.8814 5.65879 40.3723 5.88379 40.1659C6.91196 39.2587 5.41364 38.6543 5.39568 38.3851C5.3283 37.3039 5.99042 36.9983 5.73185 35.9766C5.46274 34.8808 4.93124 35.6052 4.49128 35.2479C4.14155 34.953 4.128 34.0572 3.7853 33.666C4.07876 33.834 4.36607 34.0155 4.6624 34.1787C5.15517 33.0507 5.64663 32.1656 5.92398 30.903C3.92379 29.0893 7.89458 28.5367 4.79254 28.4597C4.34943 29.6508 3.90677 30.3112 3.04299 30.8897C3.05472 30.0416 3.09846 29.1596 3.16066 28.3089C3.538 28.1221 3.89312 28.0113 4.28676 27.7967C3.71116 27.0378 4.36301 25.6612 4.32536 25.0513C4.17128 22.181 2.79837 22.4536 5.61651 20.8641C5.12466 22.6163 6.06736 22.936 5.41218 24.5445C6.19235 24.4023 6.32672 23.5315 6.95858 24.3265C7.27368 22.7369 6.40407 22.9713 5.99999 22.1215C5.65205 21.3909 6.09069 20.291 5.37674 20.0505C5.80446 20.1078 6.20782 20.1886 6.63213 20.255C7.08915 19.2407 7.58706 18.2818 8.15504 17.3262C8.28449 17.9511 8.43612 18.5646 8.60668 19.1597C8.91055 18.9371 9.21181 18.7307 9.52312 18.521C9.58287 16.8561 11.2208 15.4149 12.0759 14.4092C12.7399 13.6082 12.951 12.8874 11.7077 12.0816C12.5727 11.0798 13.0001 11.2801 13.9447 11.2897C13.8321 11.0467 13.7477 10.8366 13.6187 10.57C14.4263 10.2215 14.3216 9.06398 15.0812 8.79364C15.8357 8.52931 16.5163 9.16775 15.7095 7.86207C16.3678 7.92769 16.9734 7.95281 17.5952 8.0314C17.6444 7.58296 17.7034 7.13734 17.7706 6.68894C18.2602 6.59916 18.7494 6.52026 19.2352 6.45531C19.0853 5.68903 20.842 5.11764 21.3826 4.35319C22.4186 4.76171 23.3354 7.03142 24.7129 6.0487C24.4662 5.48423 24.2174 4.92251 23.9652 4.36021C24.3872 4.34375 24.8098 4.3351 25.2305 4.3358C25.3141 4.51969 25.3943 4.70471 25.477 4.88893C25.2691 4.88952 25.0611 4.89253 24.8502 4.89612C25.1239 5.16192 25.3905 5.43006 25.6501 5.70357C26.0487 5.04859 26.4818 4.40064 26.9528 3.76191C26.0568 3.597 25.1442 3.47008 24.2089 3.38786C25.0916 2.61206 25.9414 2.83664 26.7309 2.11984C27.7313 2.75113 27.5258 3.30436 27.4422 4.27053C27.7009 4.12696 27.9684 3.98833 28.2318 3.85199C28.2446 4.79771 28.8084 5.20806 27.2367 5.52021C27.4106 5.74637 27.5782 5.96221 27.7455 6.20198C27.9842 6.10043 28.1971 6.27817 28.4479 6.1184C29.1191 5.68448 29.4426 3.99161 29.2954 3.44077C29.2108 3.15133 28.514 3.86205 28.4643 3.44602C28.3306 2.43129 30.3625 2.48671 27.3759 2.05058C28.1637 1.20949 28.4884 1.64493 29.5467 1.6615C29.4136 1.33705 29.2783 1.01541 29.1425 0.691962C29.6605 0.765581 30.1746 0.850326 30.6808 0.947147C30.2883 2.74995 33.6346 3.05118 30.8751 4.89905C31.7292 4.8663 32.5887 4.86958 33.4362 4.91085C33.2705 5.09926 33.1084 5.28709 32.9503 5.47788C32.565 5.40775 32.1868 5.34541 31.7989 5.29143C32.2755 5.57338 32.7417 5.86428 33.1922 6.16725C34.193 5.70361 34.595 5.08006 35.0905 4.30365C33.8154 3.74995 34.2412 4.51582 33.2767 4.71128C33.2848 4.21992 33.2141 3.77206 33.2756 3.25309C33.8496 4.22867 35.4901 3.47444 35.9055 3.44458C37.107 3.33228 36.1333 4.2954 36.922 4.35186C37.2807 4.38022 37.6781 4.28598 38.0662 4.28172C38.5251 4.27687 38.9431 4.39327 39.2254 4.96358C39.2779 4.41141 39.2916 3.83542 39.3001 3.32826C40.5888 3.29941 40.2348 3.92647 40.3551 4.02591C42.1543 5.71741 43.3886 4.75992 45.6917 5.33491C45.4679 5.08043 45.2219 4.84118 44.9751 4.60017C47.0486 4.02222 45.8055 3.96381 44.3437 3.1738C45.764 3.6717 46.9026 3.00568 48.0635 3.12845C49.2285 3.24191 50.7655 4.55157 51.1604 5.24004C49.4891 5.06559 48.1496 4.00972 46.446 3.62532C46.4527 4.22349 46.4712 4.73598 46.44 5.38405C47.786 4.60851 48.0578 5.59375 48.2804 5.86176C48.9601 6.67091 49.3805 5.75403 49.4024 6.98698C49.5525 6.64089 49.6803 6.35072 49.8176 6.02606C51.5841 7.08414 52.9137 8.81586 54.8091 8.54838C54.3459 9.33475 53.871 10.0704 53.394 10.8713C54.4501 10.848 54.5256 11.8417 55.1321 12.1823C55.7428 12.5315 56.0513 11.8165 56.8426 12.1862C56.9924 12.2591 56.8959 12.8037 57.4045 12.8334C57.8165 12.8529 59.7379 12.3574 59.6713 13.0575C59.6583 13.2224 59.5373 13.4517 59.2654 13.7668C59.7646 14.2846 60.1768 14.8315 60.6276 15.3715C60.0706 14.9542 59.5112 14.5441 58.9461 14.1504C58.9749 14.938 58.9856 15.7169 58.9834 16.4953C59.3801 16.2224 59.7842 15.945 60.1763 15.6766C61.6671 16.4322 61.8346 17.809 62.9849 18.8964C63.1774 19.0802 63.5027 17.9949 64.069 19.0577C64.6343 20.127 63.7997 21.8923 65.568 23.0474C65.6577 23.1046 67.084 22.7439 66.7946 23.8854C66.7297 24.1449 66.0577 23.7933 66.0716 24.2609C66.0835 24.7278 66.9508 26.1978 66.5218 26.716C66.6933 26.5561 66.8167 26.322 66.971 26.1337C67.2388 26.2912 67.5099 26.4514 67.7801 26.6121C67.4765 26.8918 67.174 27.1737 66.8724 27.4524C67.1334 27.5554 67.3959 27.6389 67.654 27.7085L70.1334 30.467L71.8614 27.4608C71.6719 26.0671 71.3744 24.6112 73.0558 23.3956C72.1674 23.485 71.2685 23.6123 70.3597 23.799C70.5706 24.2103 70.7944 24.613 71.0168 25.0161C70.6268 25.3977 70.2438 25.8018 69.891 26.2031L69.7153 26.5088L69.4631 26.2283C69.163 25.7266 68.8688 25.2229 68.5782 24.7186C68.0882 24.8702 67.6016 25.0235 67.1101 25.1724C66.9734 24.8988 66.8371 24.6279 66.7008 24.3535C67.0192 24.1994 67.3364 24.0466 67.6562 23.8943C67.2242 23.4813 66.7912 23.0678 66.3617 22.6572C68.7044 22.3428 68.2919 25.3969 69.5351 24.214C69.4917 24.5848 69.4487 24.958 69.4076 25.3324C69.863 25.0603 70.0897 25.1896 70.3217 25.5259L68.956 25.6063C69.1016 25.4139 69.3192 25.1962 69.5708 24.9206C69.1037 24.8762 68.6261 24.864 68.1628 24.82C69.1919 24.2741 70.2041 22.8922 71.0349 22.2963C71.4019 22.0276 71.5577 22.7573 71.6977 22.7054C72.3859 22.4734 72.4944 20.8532 72.7526 20.7187C74.2419 19.942 76.2517 20.8023 76.6999 18.7479C75.1598 19.599 75.9752 19.1056 75.0297 18.9542C74.7354 18.9041 72.6861 20.0828 74.9966 18.3347C75.264 18.0441 80.2036 16.1215 79.4512 17.9735C79.9109 17.2378 80.2188 16.5657 80.6653 15.8598C83.6504 17.2672 81.7836 15.3718 80.5692 14.4296C80.8296 14.2628 81.0773 14.0976 81.3533 13.9364C81.547 15.5483 84.4693 13.9998 85.2085 12.8647C85.4575 12.4708 84.2576 12.4969 84.9891 11.9066C85.4294 11.8208 85.932 11.7495 86.3995 11.6825C85.4109 11.0639 86.4915 10.2158 86.1251 9.32412C87.2705 9.79733 88.475 11.3161 88.3966 12.3982C88.8768 11.7935 89.3901 11.1964 89.9241 10.611C89.5545 10.4838 89.1748 10.3664 88.7953 10.2513C91.0854 10.0869 93.7118 8.17017 94.5114 10.1204C94.7962 10.0593 95.086 10.0036 95.374 9.95037C95.4179 9.5978 95.4621 9.24492 95.5117 8.89241C96.8992 9.01856 98.2682 9.23765 99.5891 9.54598C98.405 9.76105 98.1625 10.2583 96.9165 9.95303C97.4217 10.3074 97.9131 10.6766 98.3733 11.0557C100.112 9.96844 100.478 9.21123 103.233 9.85301C103.374 9.86721 105.274 11.1169 105.298 11.2311C105.52 11.6879 104.929 12.1474 105.022 12.3739C105.314 12.9882 107.018 14.9511 106.884 15.1534C105.514 17.2305 99.4364 16.2752 97.6638 16.8009C89.4436 18.0074 80.3127 23.7048 75.7395 29.9362L70.9565 38.2578L64.0931 30.622C60.5029 25.9859 57.7031 21.882 54.3419 18.3869C49.9285 13.501 46.3547 11.1631 40.8765 10.1667C40.6892 10.1357 40.6984 10.5308 40.6166 10.5322C40.1072 10.5348 39.7168 9.86723 39.5228 9.81447C39.1248 9.70691 39.2737 10.2889 38.9821 10.2509C38.513 10.1901 38.0587 10.134 37.583 10.0808C35.0331 9.79595 32.5701 9.66756 30.1307 10.2094C29.9438 10.2518 30.0521 9.77651 29.7319 9.92083C29.5638 9.99795 29.1813 10.7797 28.8182 10.8836C27.5333 11.2488 26.3972 11.3996 25.0937 11.9765C24.384 12.289 23.3115 12.7662 22.5592 13.226C22.225 13.4273 22.046 13.906 21.7342 14.1221C21.2904 14.4319 21.0277 13.85 20.9348 13.8646C20.5257 13.9372 20.8816 14.5368 20.5884 14.7279C20.0417 15.0901 19.7283 14.7405 19.0862 15.308C18.6238 15.7126 17.8188 16.9197 17.3515 17.5436C16.9697 17.747 16.599 18.0068 16.2464 18.3054C15.2941 19.0474 14.5551 20.3892 14.097 21.493C13.7498 22.335 13.1352 22.1405 12.9642 22.4889C12.3706 23.758 12.7589 25.0618 12.3854 26.315C11.895 27.9899 11.0083 29.441 10.696 31.2276C10.6475 31.5126 11.2461 31.5317 11.2225 31.8123C11.1309 32.87 11.1217 34.2137 10.9915 35.1589C10.8489 36.213 9.97696 36.5989 10.1539 37.6669C10.2086 37.9791 10.9656 38.0599 11.0747 38.5778C11.2466 39.3901 10.6308 40.3466 10.5995 40.9365C10.5625 41.7463 11.2718 40.9845 11.2654 42.0771C11.2651 42.1212 10.7318 42.3419 10.7816 42.5685C10.9285 43.2374 11.3478 43.1157 11.4352 44.1225C11.4373 44.2111 11.1085 45.6023 11.1328 45.743C11.2418 46.5168 11.3596 48.1323 11.5666 48.5594C12.3061 50.1191 12.8293 48.6318 11.394 50.442C11.9666 50.9537 12.5512 51.455 13.1375 52.0002C12.6353 51.6725 12.5472 53.5645 12.6268 53.6873C13.2147 54.6361 13.7039 53.8297 13.9814 55.137C11.9096 53.9089 14.2997 56.8846 14.6069 57.5859C15.7656 60.4418 16.6271 63.1941 17.8192 66.027C18.0856 66.6604 18.3758 67.3082 18.6979 67.9708C19.2594 69.1283 20.36 70.5416 21.0075 71.7776C21.1605 72.067 20.7063 72.0286 20.8345 72.287C20.9627 72.5392 21.1941 72.0598 21.3263 72.355C22.1482 74.201 22.2386 76.0144 24.0577 77.1289C23.9767 77.2814 23.875 77.3371 23.8121 77.549C25.3682 78.4263 25.8576 81.591 26.3155 82.638C27.0304 84.28 27.7864 84.321 28.3744 85.4719C29.1437 86.9854 29.5542 89.7829 30.5809 87.7413C31.2698 88.6763 31.9072 89.6023 32.412 90.6805C32.468 90.8008 32.0002 91.0075 32.021 91.0568C32.1473 91.3731 32.5815 91.2103 32.7246 91.3846C33.1129 91.8578 32.1073 91.3374 32.7209 91.9724C33.0462 92.3063 33.5163 92.301 34.2449 93.3447C38.6368 99.6453 43.5034 106.459 48.3328 112.752C48.6658 113.185 48.8287 112.603 49.2241 113.158C50.5942 115.09 52.6087 118.92 53.9866 120.427C55.3715 121.947 55.6189 121.123 56.6684 121.929C56.8698 122.081 56.4286 122.184 56.5654 122.36C57.4815 123.527 58.1566 125.319 58.861 126.297C59.3215 126.939 59.7821 126.495 60.174 126.884C60.7469 127.454 60.8322 128.541 61.0966 128.878C61.5463 129.448 62.0583 129.961 62.4997 130.369L53.3863 129.049C54.1852 128.42 55.0063 127.712 56.0556 127.216C55.9167 127.139 55.8045 127.058 55.6767 126.977C57.5847 125.737 59.3942 124.504 61.2723 123.183C61.1088 123.142 60.9481 123.098 60.7842 123.055C62.9772 121.562 63.5486 122.853 61.627 120.623C61.7213 120.426 61.8156 120.208 61.9085 120.022C62.7506 121.28 64.6878 121.236 66.5863 120.281C66.7356 120.205 66.6335 118.428 67.6053 119.879C67.5556 119.38 67.5016 119.051 67.4507 118.618C68.1169 118.772 68.7879 118.913 69.4606 119.057C69.6004 118.849 69.7525 118.635 69.8854 118.431C69.7028 118.141 69.4639 117.877 69.3168 117.567C70.1306 116.87 72.186 115.78 72.8185 115.214C74.4404 113.772 75.5293 111.679 77.4639 111.362C78.0209 110.762 76.9722 110.768 77.9518 110.055C78.2751 110.226 78.5834 110.392 78.9186 110.566C78.6955 108.768 79.4605 109.33 80.6914 108.691C81.5277 108.256 81.7414 107.58 82.4518 107.057C82.6321 106.924 82.9013 107.28 83.0069 107.168C83.3587 106.8 84.0395 105.382 84.2963 105.13C86.6183 102.848 88.7136 101.017 91.0695 99.0094C91.3214 98.7931 90.7073 98.7704 90.9688 98.5478C91.3885 98.1889 91.6189 98.9013 91.8735 98.7043C92.5806 98.1506 92.0939 97.6329 92.96 96.7426C95.8105 93.8112 99.48 90.8365 102.383 87.7345C102.473 87.6367 102.16 87.361 102.254 87.2521C102.87 86.548 103.919 86.2245 104.484 85.5779C105.418 84.5108 105.658 83.3394 106.56 82.2785C108.291 80.232 110.045 78.5325 111.705 76.3492C113.059 74.5605 114.141 72.9412 115.444 70.9402C118.275 66.5839 120.405 61.7475 121.146 57.5831L121.136 57.6253C122.048 52.586 122.399 47.4373 122.471 42.5265C122.475 42.2775 122.848 42.3555 122.828 42.2804C122.62 41.5642 122.116 41.5517 123.132 41.2041C122.841 40.2976 122.036 40.1037 121.941 39.0318C121.884 38.4628 123.153 38.6928 122.371 37.8274C121.642 37.0676 121.229 38.1291 121.309 35.5106C121.311 35.4438 121.945 34.9307 121.613 34.469C121.279 34.0169 120.954 34.7339 120.427 33.606C119.201 31.0021 118.147 27.6162 115.883 25.4269C115.756 25.2724 114.166 24.2429 113.765 24.1661C113.001 23.979 112.778 24.4993 112.005 24.073C111.417 23.7608 111.292 22.9182 110.525 22.5938C110.432 22.5567 109.976 23.0208 109.48 22.6459ZM17.4666 85.963C16.8032 86.079 14.5856 86.8869 14.4141 85.2276C14.3987 85.0723 16.155 84.916 15.9499 84.0776C16.5059 84.6849 16.9594 85.3328 17.4687 85.9618C17.468 85.9622 17.4673 85.9626 17.4666 85.963ZM109.964 6.84136C111.123 7.3553 112.226 7.90364 113.333 8.5175C112.434 8.42649 111.528 8.36377 110.66 8.34449C110.441 7.84298 110.211 7.34209 109.964 6.84136ZM80.0344 122.986C80.0352 122.985 80.0361 122.985 80.0369 122.984C79.3073 123.956 78.5752 124.922 77.8229 125.894C77.7849 125.645 77.7464 125.394 77.7082 125.145C78.234 124.289 78.7403 123.444 79.2425 122.596C79.5061 122.726 79.7702 122.856 80.0344 122.986ZM85.6902 115.262C86.4245 114.976 86.5732 115.428 87.1646 115.484C87.1641 115.483 87.1636 115.483 87.163 115.482C87.3181 115.496 87.7657 115.238 87.9251 115.122C87.6901 114.961 87.4416 114.817 87.2037 114.661C88.0876 113.017 92.2289 112.526 89.5064 116.18C89.3288 115.874 89.1499 115.571 88.972 115.265C87.3645 116.795 85.0092 117.801 85.6902 115.262ZM8.06009 70.6898C7.99708 70.6465 7.93574 70.6041 7.87602 70.5625C6.18698 69.3466 5.74123 68.8378 5.56762 66.4289C5.99117 66.6146 6.41564 66.7985 6.84107 66.9807C6.68628 67.4649 6.53802 67.9534 6.38505 68.4314C6.38548 68.4324 6.38591 68.4334 6.38634 68.4344C6.73421 68.3686 7.08257 68.3021 7.42888 68.2322C7.61023 68.9799 7.80454 69.7381 8.01005 70.5014C8.02665 70.5641 8.04333 70.6269 8.06009 70.6898ZM130.864 59.6191C132.626 59.6031 132.308 59.5158 132.11 60.1731L132.105 60.1926C132.037 60.4167 131.978 60.7216 131.994 61.1449C132.015 61.7443 132.547 61.3094 132.515 61.6749C132.305 63.6958 130.787 63.2988 130.169 62.6747C130.421 61.7484 130.647 60.7922 130.816 59.8855L130.819 59.8734C130.834 59.7897 130.849 59.706 130.863 59.6223C130.864 59.6212 130.864 59.6201 130.864 59.6191ZM120.514 16.1883C120.513 16.1875 120.512 16.1868 120.512 16.186C120.834 15.7313 121.514 16.1246 121.202 15.159C121.706 15.5929 122.189 16.039 122.659 16.4989C122.484 16.4005 122.309 16.3015 122.133 16.2076C122.126 16.4627 122.116 16.7185 122.103 16.9707C122.71 16.6735 122.617 17.0939 122.934 17.7281C123.295 17.1213 123.647 16.5067 123.987 15.8839C124.44 16.6248 124.851 17.3712 125.235 18.1336C125.111 18.2528 124.987 18.3721 124.863 18.491C125.229 18.5816 125.594 18.6753 125.959 18.7799C125.853 18.9741 125.743 19.1628 125.635 19.3558C125.987 19.5506 126.336 19.7532 126.685 19.9611C126.348 20.3459 125.707 19.8167 126.643 20.9051C125.974 20.8386 125.311 20.7926 124.65 20.7653C123.438 19.1111 122.044 17.5669 120.514 16.1883ZM126.005 72.9747C127.035 70.9798 127.029 71.696 127.76 72.7048C127.176 72.7994 126.59 72.8914 126.005 72.9747ZM44.2491 122.547C43.2535 122.531 42.2738 122.52 41.2947 122.477C40.1589 121.733 40.4785 119.871 41.4977 120.281C42.7355 120.791 42.8905 122.172 44.2491 122.547ZM26.6268 99.5234C27.2238 101.008 25.6373 100.324 24.9981 100.334C25.4547 99.4909 25.0503 99.0382 24.5852 98.1809C25.1448 98.903 26.5298 99.2775 26.6288 99.522C26.6281 99.5225 26.6274 99.5229 26.6268 99.5234ZM64.6378 133.421C65.1634 133.027 65.5247 132.51 66.1354 132.396C66.4209 133.095 65.1275 133.189 66.4046 133.621C66.0896 133.866 65.777 134.107 65.4467 134.363C65.4024 133.844 64.9221 133.768 64.6405 133.422C64.6396 133.421 64.6387 133.421 64.6378 133.421ZM114.104 90.7073C112.637 91.0742 112.768 91.4894 112.385 92.8308C111.74 92.4912 111.842 90.5903 112.243 89.7257C112.862 90.0551 113.482 90.383 114.104 90.7073ZM71.768 18.3427C72.1486 19.2084 70.6176 20.9078 69.6701 21.6363C69.6588 21.4438 69.6488 21.2483 69.6407 21.0517C70.3045 20.12 71.0318 19.2033 71.768 18.3427ZM24.3757 97.7651C24.4452 97.9142 24.5156 98.0525 24.5852 98.1809C24.486 98.053 24.4109 97.9154 24.3757 97.7651ZM4.22318 36.6279C5.06849 37.1394 5.36702 35.6652 5.02043 37.4527C5.02125 37.4527 5.02206 37.4527 5.02287 37.4527C4.80969 38.6259 4.76023 38.9113 4.74157 40.0051C3.63116 39.6705 3.14926 37.3783 3.05887 40.5519C3.06062 40.5944 3.70337 40.4733 3.64637 40.9873C3.62909 41.1438 3.1265 41.6666 3.03918 42.4488C3.01144 42.7016 3.02169 44.5862 2.77923 42.0399C2.02619 42.1775 1.24658 42.1021 0.510461 42.1664C0.2162 41.1641 1.65778 40.2631 1.58659 39.2219C1.48046 37.6318 -0.00372021 36.8011 1.97746 36.5166C2.42838 37.8584 2.52348 40.0838 1.35931 40.456C1.42025 41.7759 2.42515 42.0313 2.83583 40.9935C2.03967 36.6354 4.16909 39.7542 3.40932 35.9748C3.13537 35.9229 2.84405 35.7579 2.58481 35.7736C3.59247 34.6571 3.91492 36.4444 4.22318 36.6279ZM2.71867 45.8071C2.03896 45.1506 1.35922 44.4294 0.698957 43.7276C1.64378 43.6307 2.52409 43.9567 3.20672 45.0812C3.0428 45.3276 2.87872 45.5636 2.71867 45.8071ZM37.1289 1.43775C37.267 0.928877 37.5957 0.475081 37.8557 0.00175894C37.8933 0.0807537 38.1002 0.170563 38.4005 0.270989C39.8175 0.706528 43.1538 1.62366 40.7528 1.59578C40.4762 1.59432 39.336 1.05495 38.3385 1.01418C37.8284 0.990963 37.3753 1.09471 37.1289 1.43775ZM118.977 83.5003C118.309 83.8042 117.63 84.1132 116.97 84.3909C117.4 83.493 117.839 82.5556 118.245 81.6455C118.493 82.2606 118.739 82.8776 118.977 83.5003ZM38.5981 113.836C38.7459 114.062 37.6401 113.782 38.3722 114.556C37.5323 114.204 36.777 113.844 35.9735 113.489C36.1015 113.102 36.2272 112.715 36.3557 112.328C36.0752 112.313 35.7934 112.295 35.5125 112.28C35.9683 112.073 36.4075 111.863 36.873 111.655C36.8213 113.327 37.939 112.835 38.5981 113.836ZM65.1544 128.549C65.9675 129.273 64.7831 130.899 66.4104 129.94C66.5274 130.715 66.2672 131.354 65.4224 132.028C65.1273 131.91 64.8347 131.792 64.5418 131.672C64.9328 132.269 64.8651 132.642 64.6378 133.421C64.6369 133.42 64.636 133.42 64.635 133.42C63.2844 134.419 63.2437 134.152 62.2589 133.405C64.0459 132.985 63.5226 132.039 64.1128 130.847C64.5112 130.031 65.4997 129.568 65.1544 128.549ZM31.1547 1.60492C32.3465 0.593929 31.139 -0.172756 33.5249 0.644948C33.3838 0.878615 33.2451 1.11118 33.1106 1.34637C32.4593 1.41637 31.8068 1.5019 31.1547 1.60492ZM72.2043 127.867C71.0944 126.647 69.4 126.321 70.8438 128.579C72.0803 128.332 70.7235 127.457 72.2043 127.867ZM29.0431 98.4924C30.2166 100.311 28.4695 101.044 27.1941 100.839C27.3914 100.533 27.5895 100.226 27.7874 99.9235C27.4439 99.6983 27.1004 99.4727 26.759 99.2448C27.5205 98.9957 28.2831 98.7443 29.0431 98.4924ZM100.106 101.428C99.7413 103.433 101.844 100.63 101.53 101.969C101.279 103.043 99.5713 103.055 99.3864 102.2C99.6018 101.961 99.847 101.7 100.103 101.431C100.104 101.43 100.105 101.429 100.106 101.428ZM93.3629 108.294C94.4115 109.033 93.8783 109.029 94.6905 107.972C94.924 107.674 97.4269 105.972 95.8005 106.073C95.0228 106.804 94.1887 107.553 93.3629 108.294ZM14.1179 78.2303C14.5907 77.964 16.745 79.3601 16.6356 79.7652C16.6363 79.7648 16.637 79.7644 16.6377 79.764C16.3224 80.8636 15.0209 78.8065 14.5648 80.2768C14.2855 77.7733 11.8569 78.2753 14.6987 76.9217C15.4763 78.0575 14.5986 77.8017 14.1179 78.2303ZM99.5748 9.0576C99.5759 9.05761 99.577 9.05762 99.5781 9.05763C99.4289 9.02298 98.0949 8.25061 98.2381 7.97275C99.8707 8.17468 99.5446 8.70234 101.087 7.89918C101.154 8.18263 101.208 8.45716 101.277 8.74345C100.68 8.87344 100.356 9.19234 99.5748 9.0576ZM42.9015 3.30292C42.317 3.31956 41.4123 2.5521 40.7554 2.49311C43.2293 0.551116 45.2831 3.28786 42.9015 3.30292ZM131.158 35.1047C131.159 35.1062 131.16 35.1076 131.161 35.1091C131.16 35.1088 131.159 35.1084 131.157 35.1082C131.158 35.107 131.158 35.1059 131.158 35.1047ZM4.93663 20.0021C5.10216 19.9918 5.23649 20.005 5.34548 20.0367C5.35516 20.0409 5.36483 20.0452 5.37451 20.0495C5.23188 20.0305 5.08658 20.0138 4.93663 20.0021ZM11.725 74.0676C11.9699 72.8746 14.491 75.1483 14.7284 76.176C14.3885 76.2779 14.1057 76.4174 13.675 76.459C14.0727 75.305 11.6826 74.2745 11.725 74.0676ZM53.7089 133.206C52.1071 131.298 56.4801 131.79 54.7717 133.478C54.7346 133.507 53.7462 133.243 53.7089 133.206ZM22.048 91.1021C23.1611 91.1439 22.6603 89.9341 23.6524 91.7426C23.5208 91.972 23.389 92.202 23.2579 92.4319C22.8532 91.9891 22.4489 91.546 22.048 91.1021ZM46.3532 118.027C44.0102 115.883 41.4652 114.04 40.7359 117.201C40.9462 117.34 41.1523 117.478 41.3662 117.622C42.3545 116.897 42.3759 118.014 43.1351 119.044C43.6273 118.883 44.1664 119.386 44.5729 119.233C45.3606 118.942 45.2918 117.949 46.3532 118.027ZM129.352 52.0723C129.554 52.1464 129.757 52.22 129.956 52.2948C130.132 52.8188 130.301 53.3438 130.463 53.8811C130.077 53.7439 129.691 53.6079 129.305 53.4734C129.326 52.9988 129.34 52.5449 129.35 52.0753C129.351 52.0743 129.351 52.0733 129.352 52.0723ZM5.76498 48.4215C3.45343 48.5525 4.03697 49.503 5.61543 51.2237C5.64418 50.2719 5.69952 49.3656 5.76498 48.4215ZM80.6707 115.57C81.1393 116.03 81.6062 116.489 82.0777 116.947C82.4632 115.736 81.8265 115.292 80.8796 114.958C80.8089 115.162 80.7414 115.365 80.6707 115.57ZM92.0894 105.172C91.6709 105.373 92.1953 105.607 92.154 105.631C91.138 106.19 90.8573 106.12 90.1027 107.342C90.0705 107.558 90.0449 107.778 90.015 107.997C91.4082 108.584 91.2517 107.721 92.7989 107.393C92.3 107.214 91.8022 107.032 91.3035 106.848C91.9274 106.412 92.545 105.977 93.1639 105.537C93.1308 105.371 93.0985 105.205 93.0651 105.038C92.7425 105.084 92.3981 105.117 92.0894 105.172ZM130.339 46.3808C130.408 45.6506 130.465 44.9047 130.505 44.1694C130.167 44.1487 129.827 44.1296 129.489 44.11C129.788 44.8508 130.071 45.6171 130.339 46.3808ZM3.7853 33.666C3.67019 33.6003 3.55439 33.5353 3.43633 33.4741C3.58474 33.4906 3.69577 33.5648 3.7853 33.666ZM101.431 10.9848C102.21 11.2761 103.368 11.2647 104.223 11.4756C104.313 10.6119 102.022 10.5107 101.243 9.97421C101.102 10.1176 101.1 10.861 101.431 10.9848ZM30.7005 100.987C31.1656 100.913 31.6292 100.84 32.0925 100.764C32.3469 101.201 32.6004 101.639 32.8577 102.077C33.1474 101.888 33.4394 101.697 33.7291 101.508C32.0718 99.9592 33.1812 99.7948 33.3526 98.3343C32.4685 99.2174 31.5836 100.099 30.7005 100.987ZM123.084 25.1089C124.066 26.2545 124.701 26.5725 125.177 25.2824C124.691 24.9114 124.198 24.5578 123.7 24.2279C123.499 24.5259 123.294 24.8205 123.084 25.1089ZM17.426 9.43164C18.3003 8.36324 19.0595 9.53026 19.7389 8.2194C19.0221 8.34016 18.301 8.48659 17.5809 8.66298C17.5269 8.9183 17.4733 9.17689 17.426 9.43164ZM15.6873 67.3068C15.7204 67.2009 15.6895 67.1127 15.6168 67.0316C15.2101 66.5705 13.5086 66.2723 14.329 64.5244C13.7176 64.3807 13.1812 64.3527 12.6 64.2469C13.0282 63.8686 13.4554 63.4681 13.887 63.1059C13.8866 63.105 13.8862 63.104 13.8858 63.1031C13.203 61.8939 12.9062 62.9712 12.3625 63.1572C12.1353 63.2327 12.1252 62.1217 11.7625 62.6129C11.1319 63.4565 12.4169 65.2335 11.4293 65.6652C11.4537 64.8229 10.6373 63.5841 10.1284 64.2533C9.56759 64.9889 11.3409 65.8015 11.0816 66.8503C12.172 65.0141 12.706 67.5905 11.6331 68.4243C11.7922 68.5259 11.9333 68.602 12.0574 68.6552C12.5767 68.8673 12.7973 68.685 12.8221 68.3064C12.8442 67.8754 12.6259 67.1948 12.312 66.53C13.6259 66.9922 12.5598 65.9303 13.2523 65.3916C13.7012 65.753 14.1823 66.8326 14.6444 67.4752C15.04 68.0182 15.4057 68.2181 15.6873 67.3068ZM54.9154 127.888C54.1845 127.122 53.5552 125.454 52.4355 125.446C51.7783 125.437 52.5438 126.972 51.2038 126.585C51.9239 127.336 52.3132 127.322 52.728 126.743C52.9469 126.877 53.165 127.013 53.3799 127.145C53.3473 127.316 53.3178 127.487 53.285 127.658C53.5825 127.572 53.8782 127.487 54.1729 127.397C54.292 127.627 54.4008 127.844 54.5268 128.084C54.6554 128.015 54.7836 127.975 54.9154 127.888ZM52.8196 9.16834C52.5819 9.00708 52.3412 8.84911 52.0981 8.69772C52.0306 8.85463 51.9636 9.02035 51.8961 9.183C51.8405 9.31007 51.7846 9.43692 51.7283 9.56356C51.8875 9.07269 51.1585 7.63692 50.3862 7.80716C50.0123 7.89849 50.1027 8.99835 49.0083 8.58902C49.7715 8.93849 50.5061 9.22889 51.2381 9.61895C51.0234 9.80698 50.8127 10.0015 50.6032 10.1936C50.6033 10.1942 50.6035 10.1948 50.6037 10.1954C50.7912 10.3913 50.9783 10.5959 51.1578 10.7969C51.704 10.2467 52.2564 9.70383 52.8196 9.16834ZM79.1706 115.136C78.735 116.199 78.6513 116.63 79.5763 117C79.5774 117 79.5784 116.999 79.5795 116.999C79.6248 116.46 79.6697 115.92 79.7138 115.38C79.5334 115.299 79.353 115.216 79.1706 115.136ZM8.05459 25.8786C5.43467 22.9626 6.13364 28.0489 7.48835 27.4291C7.54222 27.3982 7.64148 25.9617 8.05459 25.8786ZM29.6552 97.5845C30.0145 98.0557 30.374 98.5291 30.7376 99.0013C30.993 98.6551 31.2457 98.3075 31.5018 97.9621C30.8871 97.8377 30.2701 97.7122 29.6552 97.5845ZM124.499 31.5196C123.838 32.3584 123.928 33.75 125.06 34.1803C125.077 33.7922 125.087 33.4027 125.09 33.0122C125.402 33.6543 125.706 34.302 125.977 34.9804C127.218 34.727 126.322 34.0703 126.297 32.7565C126.305 32.5665 127.402 30.8305 126.124 30.8061C125.871 30.8093 126.146 32.1229 125.176 31.4814C125.254 31.8762 125.374 32.1997 125.457 32.5696C125.176 32.6856 124.895 32.8007 124.615 32.9178C124.586 32.4512 124.548 31.9865 124.499 31.5196ZM50.8762 123.161C49.9972 121.97 49.5015 122.161 48.6085 122.482C49.121 122.955 49.6156 123.406 50.1373 123.885C50.3821 123.643 50.6298 123.404 50.8762 123.161ZM126.33 43.3836C126.207 44.1372 126.925 43.7963 127.072 44.0986C127.615 45.2525 127.086 46.0457 127.373 47.2094C127.235 47.1276 127.106 47.0529 126.972 46.9751C126.972 46.9761 126.972 46.9771 126.972 46.9781C126.034 52.3521 127.924 49.6585 127.76 46.3214C128.033 46.2502 128.306 46.1809 128.576 46.1073C128.13 44.6022 127.617 43.2676 126.33 43.3836ZM7.01975 43.7174C7.1822 43.638 8.31011 44.0299 7.70081 43.1169C6.05389 42.5097 6.96249 43.6941 6.40445 44.0953C6.22158 43.8419 6.04392 43.5814 5.86502 43.3301C5.60517 45.0097 6.02789 45.2126 7.08684 44.4674C7.15723 44.4152 6.85792 43.7985 7.01975 43.7174ZM7.59926 33.3163C5.29879 32.8899 6.19275 35.0108 6.92653 34.9638C6.96939 34.6899 6.58988 34.4518 6.78282 34.173C6.97693 33.8935 7.52087 33.8598 7.59926 33.3163ZM25.857 88.1469C25.8317 88.0889 26.3168 87.0407 25.7075 87.5044C24.6017 89.129 26.4305 89.8039 26.8077 89.23C26.5011 88.8172 26.0872 88.6778 25.859 88.1455C25.8583 88.146 25.8577 88.1464 25.857 88.1469ZM120.024 24.2954C119.999 24.3562 120.455 25.6542 120.845 25.601C121.265 25.4918 121.672 25.311 122.089 25.1732C121.347 24.729 120.655 23.3279 120.026 24.2976C120.025 24.2969 120.025 24.2962 120.024 24.2954Z" fill="#F3F2EE"></path></svg> 