<?xml version="1.0" encoding="UTF-8"?> <svg xmlns="http://www.w3.org/2000/svg" width="582" height="827" viewBox="0 0 582 827" fill="none"><path d="M213.726 0.54714C212.907 1.36614 213.563 3.57744 214.873 4.47834C215.364 4.80594 229.124 5.13354 245.34 5.13354C261.638 5.13354 276.707 5.46114 278.919 5.87064C281.13 6.28014 298.82 6.85344 318.149 7.18104C337.559 7.42674 354.84 8.00004 356.642 8.40954C358.444 8.90094 361.228 9.31044 362.784 9.39234C365.405 9.63804 365.651 9.80184 365.405 12.095C364.914 18.0737 361.31 26.9189 357.051 32.57C354.021 36.5831 336.167 51.8165 334.447 51.8165C334.201 51.8165 332.563 52.8812 330.843 54.2735C329.123 55.5839 327.404 56.7305 326.994 56.7305C326.666 56.7305 325.274 57.7133 323.882 58.9418C322.571 60.1703 319.295 62.7911 316.511 64.7567C310.532 69.0974 299.148 80.7272 297.592 84.167C296.937 85.4774 296.118 87.1973 295.708 87.8525C293.743 91.4561 293.169 92.8484 293.169 94.0769C293.169 94.814 292.596 96.5339 292.023 97.9262C291.368 99.4004 290.712 101.612 290.549 102.922C290.385 104.233 289.648 105.707 288.829 106.198C286.617 107.509 281.703 101.776 281.703 97.9262C281.703 96.452 281.376 95.2235 280.884 95.2235C280.475 95.2235 279.82 93.7493 279.574 91.9475C279.246 90.1457 278.673 88.4258 278.345 88.1801C277.936 87.9344 277.608 87.0335 277.608 86.0507C277.608 83.8394 275.315 79.0892 272.531 75.4856C271.302 73.8476 270.237 72.0458 270.237 71.5544C270.237 71.063 269.91 70.6535 269.5 70.6535C269.091 70.6535 268.517 69.8345 268.272 68.7698C267.289 65.2481 252.465 51.8165 249.517 51.8165C248.78 51.8165 248.124 51.4889 247.961 51.1613C247.879 50.7518 245.504 49.3595 242.801 48.0491C232.481 42.8075 227.24 39.941 226.175 38.9582C225.602 38.3849 224.783 37.8935 224.373 37.8935C222.899 37.8935 213.726 28.6388 213.726 27.1646C213.726 26.3456 212.825 23.9705 211.679 21.923C210.123 18.9746 209.631 16.6814 209.468 11.4398L209.222 4.72404H206.765H204.308L204.062 10.7846C203.898 15.1253 204.144 17.3366 205.127 18.7289C205.782 19.7936 206.355 21.2678 206.355 22.0049C206.355 23.1515 207.584 25.9361 209.713 29.7035C210.123 30.3587 210.696 31.5053 211.024 32.1605C212.006 34.3718 221.671 43.6265 223.063 43.6265C223.8 43.6265 224.373 43.9541 224.373 44.4455C224.373 44.855 225.274 45.4283 226.421 45.7559C227.567 46.0016 228.468 46.5749 228.468 46.9025C228.468 47.2301 229.369 47.8034 230.516 48.0491C231.662 48.3767 232.563 48.95 232.563 49.3595C232.563 49.8509 233.219 50.1785 234.119 50.1785C234.938 50.1785 236.085 50.7518 236.658 51.407C237.232 52.0622 238.214 52.6355 238.87 52.6355C239.525 52.6355 240.59 53.2088 241.245 53.864C241.982 54.5192 243.21 55.0925 244.111 55.0925C244.93 55.0925 245.667 55.4201 245.667 55.9115C245.667 56.321 246.159 56.7305 246.732 56.7305C247.961 56.7305 249.844 58.0409 256.724 64.1015C262.211 68.8517 267.862 75.8132 269.992 80.4815C270.319 81.1367 271.056 82.2014 271.63 82.7747C272.203 83.348 272.694 84.4127 272.694 85.0679C272.694 85.805 273.268 86.8697 273.923 87.5249C274.578 88.262 275.151 89.6543 275.151 90.719C275.151 91.7837 275.561 92.9303 275.97 93.176C276.462 93.4217 276.789 94.3226 276.789 95.0597C276.789 95.7968 277.363 97.5167 278.018 98.8271C278.755 100.138 279.328 102.922 279.492 104.97L279.656 108.737L276.38 108.983C274.578 109.147 272.039 108.737 270.647 108.082C263.685 104.724 260.737 103.25 259.59 102.595C257.051 101.202 252.301 99.3185 251.073 99.3185C250.336 99.3185 249.762 98.909 249.762 98.4995C249.762 98.0081 248.943 97.6805 247.961 97.6805C246.896 97.6805 245.012 97.1072 243.702 96.452C242.473 95.7968 240.016 95.2235 238.378 95.2235C236.74 95.1416 233.219 94.6502 230.516 93.995C224.291 92.4389 216.347 92.4389 213.726 93.995C212.58 94.6502 210.532 95.1416 209.222 95.2235C206.437 95.2235 201.359 97.5986 198.411 100.138C197.346 101.038 196.2 101.776 195.79 101.776C194.971 101.776 191.531 105.052 190.221 107.181C186.208 113.405 184.816 121.186 187.027 125.608C187.764 127.001 188.337 128.721 188.337 129.376C188.337 131.096 198.739 141.088 200.459 141.088C200.868 141.088 201.687 141.661 202.26 142.316C202.834 142.971 204.308 143.545 205.536 143.545C206.765 143.545 208.239 144.118 208.812 144.773C209.468 145.592 211.269 146.002 213.726 146.002C216.101 146.002 217.821 146.411 217.985 146.984C218.231 147.721 221.589 148.049 229.451 148.213C238.46 148.377 240.753 148.213 241.572 147.23C242.228 146.493 244.029 146.002 246.486 146.002C248.943 146.002 250.745 145.51 251.4 144.773C252.056 143.954 253.939 143.545 256.888 143.545H261.392L260.819 146.002C260.164 148.95 258.198 153.127 257.051 153.782C256.642 154.11 256.314 155.011 256.314 155.83C256.314 157.222 254.84 160.334 248.452 172.21C247.551 173.766 246.732 175.24 246.404 175.486C246.159 175.731 245.094 177.369 244.029 179.171C241.736 183.02 234.365 189.9 230.188 192.111C228.55 192.93 225.438 195.387 223.145 197.599C220.934 199.728 218.231 201.775 217.33 202.021C214.627 202.84 212.907 205.215 213.481 207.263C214.136 209.802 219.132 211.276 222.817 209.965C224.21 209.474 226.257 209.065 227.322 209.065C230.598 209.065 240.016 202.594 246.323 196.206C249.517 192.766 252.219 189.736 252.219 189.409C252.219 188.999 252.711 188.18 253.284 187.607C254.922 185.805 259.59 175.486 259.59 173.602C259.59 172.865 259.918 172.128 260.327 171.882C260.737 171.554 261.31 169.834 261.638 167.869C261.965 165.985 262.539 164.02 262.866 163.61C263.194 163.119 263.685 161.644 263.931 160.334C264.586 156.403 266.306 152.472 269.418 147.64C270.974 145.183 272.94 141.825 273.759 140.269C276.38 135.191 277.526 134.044 279.001 135.027C282.768 137.402 283.587 142.726 282.932 161.235C282.195 182.038 282.195 209.065 282.932 225.772C283.669 242.725 283.178 246.82 280.229 248.54C277.526 250.096 274.824 250.424 271.056 249.687C268.19 249.114 251.4 250.178 241.572 251.571C232.563 252.799 226.175 256.239 224.783 260.498C223.718 264.101 220.524 264.593 203.489 263.856C181.54 262.955 128.387 262.955 126.912 263.937C126.011 264.511 126.257 264.838 128.141 265.575C129.533 266.067 131.335 266.804 132.236 267.213C133.219 267.623 155.659 268.032 185.635 268.196C225.684 268.36 237.641 268.688 238.46 269.425C239.197 270.244 244.275 270.489 257.952 270.489C275.643 270.489 276.626 270.571 278.018 272.127C279.41 273.684 279.492 274.257 278.509 278.106C277.936 280.481 277.281 283.593 277.035 284.986C276.789 286.46 276.298 287.688 275.97 287.688C275.561 287.688 275.069 288.344 274.824 289.081C274.169 291.128 265.241 300.301 257.952 306.607C254.594 309.474 251.728 312.095 251.564 312.422C251.4 312.832 250.827 313.077 250.172 313.077C249.599 313.077 248.698 313.651 248.124 314.306C246.814 315.944 240.098 320.448 239.033 320.448C238.624 320.448 238.296 320.776 238.296 321.267C238.296 321.677 237.723 322.086 236.986 322.086C234.038 322.086 212.907 341.251 212.907 343.954C212.907 344.527 212.58 345.018 212.252 345.018C211.843 345.018 210.696 346.656 209.713 348.704C208.73 350.67 207.584 352.553 207.092 352.799C206.683 353.127 206.355 354.765 206.355 356.484C206.355 358.204 206.028 359.76 205.536 359.924C205.127 360.006 204.554 362.217 204.308 364.674C204.062 367.131 203.325 369.916 202.67 370.899C200.131 374.83 195.708 370.162 195.708 363.528C195.708 361.398 195.135 358.368 194.48 356.73C193.825 355.174 193.251 352.963 193.251 351.898C193.251 350.915 192.924 349.851 192.514 349.523C192.105 349.277 191.45 347.885 191.122 346.493C190.876 345.018 189.73 342.561 188.747 340.923C187.764 339.367 186.699 337.32 186.372 336.419C186.126 335.518 183.833 332.652 181.376 330.031C178.919 327.41 176.462 324.707 175.889 323.888C173.513 320.776 165.405 315.289 153.939 309.31C152.383 308.409 150.909 307.59 150.663 307.344C150.418 307.099 148.78 306.28 146.978 305.379C145.176 304.56 143.129 303.577 142.473 303.168C141.818 302.758 140.672 302.185 140.016 301.857C139.361 301.53 138.378 300.874 137.805 300.465C135.102 298.09 134.283 297.516 133.71 297.516C131.99 297.516 127.895 291.374 126.585 286.706C125.766 283.839 124.619 280.399 123.964 278.925C123.309 277.533 122.817 274.175 122.817 271.39C122.817 266.231 122.408 265.657 119.459 267.213C118.149 267.951 117.903 268.933 117.903 273.192C117.985 276.059 118.477 279.171 119.132 280.317C119.787 281.464 120.278 283.757 120.36 285.395C120.36 287.115 120.688 288.507 121.179 288.507C121.589 288.507 122.162 289.408 122.49 290.555C122.735 291.702 123.309 292.602 123.636 292.602C123.964 292.602 124.619 293.585 125.111 294.814C126.011 297.516 132.727 304.232 136.495 306.28C137.969 307.099 139.197 308 139.197 308.327C139.197 308.737 139.853 308.982 140.753 308.982C141.572 308.982 142.719 309.556 143.292 310.211C143.866 310.866 144.848 311.439 145.422 311.439C146.077 311.439 148.043 312.34 149.844 313.487C151.646 314.634 153.284 315.534 153.612 315.534C153.857 315.534 155.495 316.599 157.215 317.991C158.935 319.302 160.573 320.448 160.819 320.448C161.147 320.448 163.358 321.923 165.815 323.724C172.203 328.393 182.768 339.449 184.734 343.544C189.156 352.389 190.794 356.239 190.794 357.959C190.794 358.941 191.286 360.661 191.941 361.644C193.251 363.61 193.907 372.783 192.924 374.421C192.187 375.567 190.467 375.158 183.423 371.882C175.643 368.278 175.315 368.196 169.091 366.722C165.979 365.985 161.556 364.838 159.345 364.183C153.776 362.545 138.296 362.627 134.447 364.347C126.421 367.787 123.227 370.244 122.49 373.356C122.162 374.421 121.589 375.321 121.179 375.321C120.688 375.321 120.36 378.434 120.36 382.692C120.36 386.706 120.688 390.063 121.097 390.063C121.507 390.063 122.244 391.046 122.735 392.275C123.882 395.387 125.192 396.861 128.141 398.417C133.71 401.284 136.658 401.857 146.405 402.185C154.595 402.348 156.888 402.185 158.526 401.202C159.59 400.465 161.31 399.891 162.457 399.891C163.522 399.891 165.487 399.318 166.716 398.663C168.026 398.008 170.565 397.434 172.449 397.434C174.251 397.434 176.052 397.107 176.544 396.697C177.69 395.633 189.893 394.977 190.467 395.878C190.712 396.37 190.385 397.353 189.648 398.172C188.911 398.991 188.337 399.973 188.337 400.465C188.337 402.021 182.195 412.095 178.837 416.026C177.936 417.009 176.462 418.892 175.479 420.203C173.104 423.233 171.466 425.035 158.771 438.466C152.957 444.609 147.387 450.751 146.405 451.98C145.422 453.29 144.275 454.601 143.866 454.846C143.456 455.174 143.292 456.239 143.456 457.303C143.62 458.778 144.193 459.187 145.586 459.023C146.65 458.941 148.043 458.286 148.698 457.631C149.435 456.976 150.418 456.402 151.073 456.402C151.646 456.402 152.301 456.157 152.465 455.747C152.629 455.42 154.758 453.782 157.215 452.144C166.634 445.755 175.397 435.6 181.048 424.461C182.031 422.414 183.751 419.629 184.816 418.155C185.798 416.763 186.699 415.207 186.699 414.715C186.699 414.306 188.665 411.931 191.122 409.556C194.07 406.689 195.626 404.396 195.872 402.84C195.954 401.529 196.527 400.301 197.019 400.137C199.148 399.482 198.902 409.392 196.691 418.319C196.2 420.203 195.626 441.087 195.299 467.213L194.726 512.913H196.855C198.411 512.913 199.23 512.34 199.803 510.866C200.295 509.637 201.196 508.818 202.178 508.818C203.079 508.818 204.062 508.491 204.308 507.999C204.717 507.344 204.799 443.217 204.39 411.849C204.308 404.724 204.554 402.021 205.373 401.775C207.174 401.038 210.205 403.823 212.252 407.836C217.985 419.629 231.662 435.354 239.197 439.04C241.982 440.35 244.357 440.841 248.78 440.841H254.676V438.548C254.676 437.156 253.694 435.108 252.219 433.47C250.827 431.996 249.762 430.522 249.762 430.276C249.762 430.031 248.37 428.884 246.65 427.737C245.012 426.591 243.456 425.526 243.21 425.28C242.965 424.953 240.999 423.479 238.706 421.923C235.02 419.384 232.154 417.172 229.779 415.043C229.287 414.552 227.567 413.323 226.011 412.258C224.455 411.194 221.179 407.672 218.804 404.478C215.446 399.973 214.545 398.09 214.709 396.206L214.955 393.749L221.507 393.831C225.11 393.913 231.744 394.077 236.249 394.158C245.913 394.404 252.793 393.585 255.086 392.029C255.987 391.374 257.625 390.882 258.853 390.882C260.082 390.882 261.228 390.309 261.556 389.654C261.802 388.999 262.539 388.425 263.276 388.425C264.013 388.425 266.716 387.033 269.255 385.395C279.001 379.007 279.983 378.516 281.867 379.498C282.686 379.99 283.423 381.628 283.669 383.757C284.242 388.507 285.143 423.888 286.044 478.925C286.29 491.783 285.553 508.163 284.57 512.668C284.242 514.142 283.505 515.37 283.014 515.37C282.44 515.37 280.802 516.271 279.328 517.336L276.544 519.384L278.919 519.957C280.802 520.448 281.54 520.121 283.341 517.991C285.143 515.862 286.126 515.37 288.747 515.37C291.695 515.37 292.105 515.616 292.76 517.991C293.825 521.431 295.135 521.103 295.463 517.336C295.626 515.37 295.217 513.896 294.316 512.832C293.087 511.439 293.006 509.719 293.415 495.551C293.661 486.869 294.316 478.352 294.807 476.55C295.872 472.946 295.544 450.506 294.07 431.177C293.333 421.841 293.333 417.009 294.07 411.931C295.463 401.775 295.463 401.939 293.415 401.939C292.514 401.939 291.368 401.693 291.04 401.284C289.893 400.219 289.73 393.503 290.794 392.848C292.187 392.029 293.988 394.732 293.988 397.68C293.988 399.236 294.316 399.973 295.053 399.646C296.609 399.072 302.834 400.383 309.14 402.676C314.545 404.642 315.856 404.724 330.434 404.724C342.391 404.724 346.486 404.478 348.042 403.577C349.189 402.922 351.482 402.43 353.12 402.348C354.84 402.348 356.396 401.857 356.806 401.202C357.788 399.4 360.655 399.236 360.982 400.874C361.146 401.775 360.491 402.676 359.181 403.249C358.034 403.823 357.051 404.478 357.051 404.805C357.051 405.543 350.581 413.651 346.077 418.483C344.357 420.366 341.982 423.151 340.753 424.543C339.607 426.018 337.723 428.147 336.576 429.294C335.43 430.44 332.645 433.798 330.434 436.746C328.223 439.695 325.929 442.561 325.356 443.135C324.783 443.708 324.291 444.936 324.291 445.755C324.291 446.574 323.964 447.475 323.554 447.721C323.145 447.967 322.981 448.868 323.227 449.769C323.554 451.079 323.964 451.161 326.175 450.424C333.3 447.885 348.534 435.027 350.09 430.276C350.336 429.294 350.991 428.556 351.4 428.556C351.81 428.556 352.137 428.147 352.137 427.656C352.137 426.673 360.982 412.013 361.965 411.357C365.896 408.573 368.517 405.87 368.517 404.478C368.517 403.495 369.418 401.775 370.565 400.547C371.711 399.318 372.612 397.926 372.612 397.434C372.612 396.124 374.005 396.452 374.578 397.926C375.315 399.973 375.151 403.823 374.25 404.396C372.448 405.543 370.729 410.457 369.664 417.5C368.517 425.362 368.353 450.342 369.418 455.911C369.746 457.795 370.401 461.071 370.81 463.2C371.466 466.476 371.384 467.377 370.073 469.015C368.599 470.899 368.599 470.981 370.237 472.127C371.629 473.028 371.793 473.52 371.138 475.239C370.647 476.386 369.91 484.658 369.418 493.667L368.517 510.047L365.978 512.34C363.112 514.961 363.112 517.336 366.06 517.664C367.616 517.827 368.435 517.336 369.5 515.534C370.237 514.306 372.203 512.504 373.759 511.685C375.315 510.866 376.789 509.556 376.953 508.818C377.69 505.788 377.526 451.407 376.625 444.936C376.134 441.087 375.561 431.341 375.315 423.233C374.905 409.31 374.987 408.409 376.543 407.017C379.082 404.642 381.785 406.362 392.678 417.336C411.679 436.337 427.158 449.85 429.942 449.85C430.434 449.85 431.007 450.342 431.253 450.915C431.416 451.488 433.3 452.717 435.266 453.536C437.313 454.437 438.951 455.42 438.951 455.747C438.951 456.157 440.18 456.402 441.736 456.402C443.21 456.402 444.93 456.976 445.503 457.631C446.077 458.286 447.059 458.859 447.796 458.859C448.452 458.859 449.68 459.351 450.335 460.006C452.383 461.726 457.461 462.217 458.689 460.825C459.508 459.842 459.017 459.023 456.068 456.321C454.103 454.519 451.4 452.226 450.172 451.243C448.861 450.26 447.305 448.95 446.732 448.376C446.077 447.885 445.339 447.393 445.094 447.393C444.766 447.393 443.128 446.247 441.408 444.936C439.688 443.544 438.05 442.479 437.723 442.479C437.477 442.479 436.658 441.988 436.085 441.415C433.382 439.04 432.399 438.384 431.744 438.384C431.335 438.384 429.697 437.32 428.222 435.927C426.666 434.617 425.192 433.47 424.783 433.47C423.964 433.47 415.692 427.819 406.601 421.104C400.376 416.517 384.078 401.529 384.078 400.465C384.078 399.154 390.548 398.335 402.67 398.09C412.579 397.926 417.084 397.516 417.821 396.779C418.312 396.288 420.114 395.796 421.752 395.796C423.39 395.796 425.438 395.223 426.339 394.568C427.158 393.913 429.041 393.339 430.434 393.339C431.826 393.339 433.464 392.766 434.037 392.111C434.611 391.456 436.249 390.882 437.723 390.882C439.361 390.882 440.589 390.391 440.917 389.654C441.163 388.999 441.982 388.425 442.719 388.425C443.456 388.425 446.24 386.951 448.943 385.149C451.646 383.348 454.185 381.873 454.512 381.873C455.413 381.873 470.073 367.131 470.073 366.312C470.073 365.903 470.565 365.084 471.138 364.511C472.776 362.709 474.987 358.122 474.987 356.484C474.987 355.747 475.561 354.601 476.216 354.027C477.117 353.29 477.444 351.243 477.444 346.247C477.444 340.268 477.117 338.958 474.905 334.781C472.448 330.195 469.746 327.082 468.108 327C467.698 327 466.633 326.345 465.814 325.608C463.603 323.643 450.663 323.724 447.878 325.69C446.814 326.427 445.094 327 444.111 327C443.046 327 442.227 327.328 442.227 327.738C442.227 328.147 441.326 328.72 440.18 328.966C439.033 329.294 438.132 329.867 438.132 330.276C438.132 330.768 437.477 331.095 436.658 331.095C435.839 331.095 434.037 332.16 432.727 333.552C431.416 334.863 430.024 336.009 429.697 336.009C428.878 336.009 429.942 334.945 410.941 353.618C395.544 368.851 386.453 376.632 383.587 377.123C382.522 377.287 381.949 376.632 381.621 374.83C380.884 371.308 381.867 355.747 382.85 355.01C383.341 354.683 384.406 352.963 385.307 351.161C386.208 349.359 387.109 347.721 387.436 347.475C387.682 347.23 388.747 345.346 389.811 343.135C390.876 341.005 392.023 339.285 392.432 339.285C392.76 339.285 393.087 338.712 393.087 338.057C393.087 337.32 393.661 336.583 394.316 336.337C394.971 336.009 395.544 335.518 395.544 335.027C395.544 334.617 396.036 333.716 396.691 333.061C397.346 332.488 398.001 331.669 398.165 331.341C398.738 329.867 412.252 319.548 415.2 318.237C415.855 317.91 416.593 317.418 416.838 317.172C417.084 316.845 418.968 315.78 421.097 314.797C423.226 313.896 425.192 312.75 425.438 312.258C425.683 311.849 426.584 311.439 427.403 311.439C429.123 311.439 438.378 306.689 438.787 305.625C438.951 305.215 439.525 304.887 440.098 304.887C441.49 304.887 448.452 297.435 449.762 294.65C450.253 293.503 450.991 292.602 451.4 292.602C451.728 292.602 452.055 291.865 452.055 290.883C452.055 289.982 452.465 288.426 452.956 287.525C453.775 285.969 454.676 281.874 455.823 273.765C456.15 271.554 455.905 270.326 454.594 268.851C453.12 267.132 452.792 266.968 452.055 268.032C451.646 268.688 451.236 269.998 451.236 270.899C451.236 273.11 449.189 282.529 447.878 286.05C445.831 291.865 439.852 298.991 435.184 301.202C433.71 301.857 432.235 302.84 431.99 303.249C431.744 303.741 430.597 304.068 429.451 304.068C428.386 304.068 427.485 304.396 427.485 304.806C427.485 305.215 426.666 305.87 425.683 306.116C422.981 306.853 418.149 309.31 417.821 309.965C417.657 310.375 417.002 310.62 416.429 310.62C415.774 310.62 414.791 311.112 414.217 311.603C413.644 312.177 411.679 313.405 409.877 314.306C404.144 317.172 397.1 323.479 394.316 328.311C393.169 330.276 391.859 331.914 391.449 331.914C390.958 331.914 390.63 332.324 390.63 332.815C390.63 333.307 389.566 335.109 388.173 336.828C386.863 338.548 385.716 340.514 385.716 341.251C385.716 341.988 385.389 342.561 384.897 342.561C384.488 342.561 383.833 343.544 383.587 344.773C383.259 346.083 382.113 348.704 381.048 350.67C379.901 352.881 379.164 355.747 379.164 358.041C379.082 360.088 378.591 362.709 377.936 363.855C377.281 365.002 376.789 367.213 376.707 368.851C376.707 371.718 374.742 374.502 372.776 374.502C372.203 374.502 371.793 375.076 371.793 375.731C371.793 376.468 371.302 376.714 370.565 376.468C369.418 375.977 369.5 375.813 370.729 374.83C371.875 374.011 372.039 373.602 371.22 372.783C370.647 372.209 370.155 370.489 370.155 369.097C370.155 367.623 369.828 366.231 369.418 365.985C369.009 365.739 368.435 363.118 368.108 360.17C367.862 357.222 367.207 354.683 366.797 354.437C366.388 354.109 366.06 353.372 366.06 352.635C366.06 351.98 364.996 350.014 363.603 348.294C362.293 346.575 361.146 344.937 361.146 344.691C361.146 344.445 360.491 343.544 359.754 342.725C358.935 341.824 357.379 340.023 356.232 338.548C355.086 337.074 353.284 334.945 352.137 333.798C349.598 331.259 340.999 324.543 340.262 324.543C339.934 324.543 338.542 323.724 337.15 322.742C335.675 321.677 333.546 320.285 332.399 319.629C326.503 316.272 314.3 306.198 304.635 296.697C298.001 290.227 296.773 287.688 295.872 279.498C295.626 277.451 295.053 275.322 294.644 274.748C293.579 273.438 293.497 273.52 298.657 271.882C301.605 270.899 305.946 270.489 312.58 270.489C317.903 270.408 323.882 270.08 325.929 269.589C328.141 269.097 352.956 268.606 386.945 268.36C418.476 268.114 445.094 267.787 446.077 267.623C447.387 267.295 447.796 266.804 447.387 265.739C447.059 265.002 446.486 264.101 445.995 263.774C444.848 262.955 386.371 263.2 365.651 264.019C355.577 264.429 349.353 264.347 347.96 263.856C346.732 263.364 345.094 261.726 344.275 260.17C343.456 258.614 341.49 256.73 339.852 255.911C338.296 255.092 335.921 253.782 334.529 253.127C330.024 250.67 325.602 249.933 314.054 249.769C303.734 249.605 302.588 249.769 302.342 250.997C302.178 252.062 302.588 252.471 303.98 252.471C305.045 252.553 306.765 253.045 307.911 253.7C309.222 254.437 312.416 254.847 316.675 254.928C320.36 254.928 324.209 255.256 325.274 255.666C326.339 256.157 328.468 256.648 330.024 256.976C333.546 257.549 335.512 258.942 335.921 261.071C336.167 262.627 335.512 262.709 326.748 263.282C321.589 263.528 314.791 264.183 311.597 264.675C304.635 265.739 266.388 265.821 261.228 264.756C259.181 264.347 251.728 263.774 244.685 263.446C234.611 263.037 231.744 262.627 231.335 261.726C231.089 261.071 231.089 260.252 231.335 259.842C232.154 258.532 237.395 256.566 240.18 256.566C241.818 256.566 243.292 256.239 243.538 255.911C243.784 255.502 247.879 254.928 252.547 254.683C257.297 254.437 261.802 253.864 262.621 253.454C263.44 253.045 266.634 252.471 269.664 252.226C273.841 251.898 275.479 252.144 276.38 253.045C277.035 253.7 278.264 254.109 279.001 253.946C280.475 253.7 283.178 249.605 283.259 247.476C283.341 246.329 286.535 243.462 287.846 243.462C288.092 243.462 288.255 245.264 288.255 247.476C288.255 252.881 290.385 256.566 293.415 256.566C295.135 256.566 295.626 256.157 295.626 254.765C295.626 253.782 295.053 252.39 294.398 251.652C293.415 250.588 293.251 243.381 293.169 203.086C293.087 177.124 293.333 155.502 293.579 155.011C294.234 153.946 297.264 156.321 297.264 157.877C297.264 158.45 297.838 159.106 298.493 159.433C299.148 159.679 299.721 160.416 299.721 160.989C299.721 161.644 300.786 163.201 302.178 164.511C303.489 165.821 304.635 167.214 304.635 167.541C304.635 168.852 317.084 182.038 318.313 182.038C318.64 182.038 319.869 182.857 321.015 183.921C325.766 188.262 338.296 192.685 339.77 190.473C340.016 189.982 341.736 189.327 343.456 188.917C349.926 187.361 349.517 183.839 342.555 180.727C339.934 179.499 335.757 177.697 333.3 176.55C326.093 173.356 319.623 169.916 317.576 168.36C310.205 162.627 299.312 149.441 297.674 144.364C297.346 143.463 296.773 142.726 296.363 142.726C295.954 142.726 295.626 142.07 295.626 141.251C295.626 140.432 295.053 138.958 294.316 137.975C293.497 136.747 293.169 134.781 293.333 131.915L293.579 127.574L299.23 127.328C302.997 127.165 305.372 127.492 306.601 128.229C307.502 128.884 309.959 129.622 312.006 129.949C313.972 130.277 316.019 130.85 316.511 131.178C316.92 131.587 320.852 132.16 325.11 132.488C339.443 133.717 351.646 133.061 356.642 130.85C362.457 128.229 365.159 127.165 365.896 127.165C366.388 127.165 366.879 126.919 367.043 126.509C367.207 126.182 369.336 124.544 371.793 122.906C377.69 118.893 384.242 112.177 386.945 107.181C388.992 103.577 389.156 102.595 388.828 95.7149C388.583 88.6715 388.337 88.0163 385.471 83.5118C382.276 78.5978 378.018 75.3218 373.841 74.5028C372.53 74.2571 369.91 73.6838 368.026 73.2743C365.733 72.7829 363.603 72.8648 361.064 73.6019C359.099 74.2571 356.314 74.7485 354.922 74.7485C353.53 74.7485 351.892 75.3218 351.318 75.977C350.745 76.6322 349.844 77.2055 349.271 77.2055C347.96 77.2055 338.706 82.1195 338.378 83.0204C338.214 83.4299 337.723 83.7575 337.232 83.7575C336.331 83.7575 329.779 88.6715 329.369 89.6543C329.205 90.0638 328.714 90.3095 328.304 90.3095C327.567 90.3095 314.709 99.6461 313.644 100.957C312.989 101.776 304.635 106.69 303.898 106.69C303.571 106.69 302.096 107.263 300.704 108C297.428 109.556 293.661 109.228 293.333 107.345C293.169 106.526 293.661 104.724 294.316 103.25C295.053 101.857 295.626 99.8918 295.626 98.8271C295.626 96.9434 297.674 92.4389 299.558 90.4733C300.049 89.9 300.54 88.8353 300.54 88.1801C300.54 87.5249 300.95 87.0335 301.359 87.0335C301.851 87.0335 302.178 86.5421 302.178 85.9688C302.178 84.5765 314.054 73.1105 318.558 70.1621C320.606 68.8517 322.408 67.6232 322.653 67.3775C322.899 67.1318 327.404 64.0196 332.645 60.4979C337.969 56.9762 343.374 53.045 344.684 51.8984C350.008 47.1482 351.318 46.0835 351.974 46.0835C352.301 46.0835 354.431 44.1179 356.724 41.7428C362.539 35.6822 368.517 26.2637 368.517 23.2334C368.517 22.3325 368.845 21.4316 369.254 21.1859C370.81 20.2031 371.793 6.36204 370.319 5.05164C369.991 4.72404 363.685 4.23264 356.232 3.98694C348.779 3.74124 336.658 3.16794 329.205 2.75844C321.752 2.26704 306.11 1.93944 294.398 1.93944C282.686 1.85754 267.207 1.44804 260 1.03854C242.637 -0.10806 214.627 -0.35376 213.726 0.54714ZM377.608 83.348C381.949 87.6068 384.242 94.3226 382.522 97.5167C382.031 98.4176 381.621 100.219 381.621 101.53C381.621 102.758 380.557 105.379 379.328 107.263C376.707 111.194 369.5 118.156 368.026 118.156C367.453 118.156 366.879 118.483 366.715 118.811C366.306 119.957 355.823 124.708 353.693 124.708C352.629 124.708 349.926 125.281 347.715 125.936C342.637 127.492 335.184 127.492 328.796 125.936C326.093 125.281 321.916 124.789 319.541 124.708C317.166 124.708 314.463 124.298 313.562 123.807C311.924 122.988 307.748 122.087 299.476 120.694C294.644 119.957 292.596 117.664 294.644 115.453C295.381 114.634 297.264 113.405 298.82 112.75C300.458 112.013 302.342 111.112 302.997 110.703C303.653 110.293 305.045 109.638 306.028 109.228C306.929 108.737 307.993 108 308.321 107.59C308.567 107.099 309.549 106.69 310.45 106.69C311.269 106.69 312.006 106.28 312.006 105.871C312.006 105.379 312.498 105.052 313.071 105.052C313.726 105.052 315.282 104.069 316.593 102.922C317.903 101.776 319.705 100.465 320.606 100.056C321.507 99.6461 324.128 98.1719 326.339 96.8615C328.632 95.4692 331.171 93.995 332.072 93.5855C332.973 93.0941 334.856 92.0294 336.167 91.1285C337.559 90.2276 339.197 89.3267 339.852 88.9991C340.508 88.7534 341.654 88.262 342.309 87.8525C345.913 85.7231 353.612 82.1195 354.676 82.1195C355.331 82.1195 356.56 81.5462 357.379 80.891C358.526 79.9901 361.146 79.6625 366.47 79.6625H373.923L377.608 83.348ZM228.878 101.776C229.124 102.185 232.072 102.595 235.266 102.595C239.115 102.676 241.736 103.086 242.719 103.823C243.62 104.478 245.34 105.052 246.568 105.052C247.797 105.052 249.107 105.379 249.353 105.871C249.599 106.28 250.663 106.69 251.728 106.69C252.711 106.69 254.267 107.263 255.168 107.918C255.987 108.573 257.543 109.147 258.444 109.147C259.427 109.147 260.655 109.72 261.228 110.375C261.802 111.03 263.44 111.604 264.914 111.604C266.388 111.604 268.026 112.177 268.599 112.832C269.173 113.487 270.074 114.061 270.647 114.061C273.186 114.061 276.789 116.927 276.789 118.975C276.789 122.332 274.332 128.229 272.449 129.54C271.466 130.277 269.336 131.997 267.698 133.471C265.405 135.518 263.931 136.174 261.556 136.174C259.754 136.174 257.625 136.747 256.806 137.402C255.905 138.057 254.021 138.631 252.629 138.631C251.237 138.631 249.68 139.04 249.271 139.45C248.698 140.023 242.391 140.35 232.563 140.35C222.735 140.35 216.429 140.023 215.856 139.45C215.446 139.04 214.136 138.631 213.071 138.631C211.351 138.631 208.894 137.648 204.717 135.273C204.062 134.863 202.67 134.208 201.687 133.717C199.394 132.734 195.708 127.328 195.708 124.953C195.708 123.97 195.299 122.251 194.807 121.104C192.596 116.272 201.769 105.052 207.993 105.052C208.73 105.052 209.877 104.478 210.45 103.823C211.024 103.086 212.907 102.595 214.873 102.513C216.675 102.513 218.968 102.185 219.869 101.776C222.162 100.793 228.305 100.793 228.878 101.776ZM295.135 295.633C298.493 297.762 304.472 302.84 312.252 310.129C314.136 311.849 317.494 314.797 319.787 316.681C321.998 318.483 325.11 321.267 326.585 322.824C329.287 325.526 329.287 325.608 327.649 327.082C326.748 327.983 325.684 328.638 325.356 328.638C325.028 328.638 323.554 329.621 322.244 330.932C320.852 332.16 318.804 333.716 317.576 334.371C314.463 336.173 303.816 346.083 303.816 347.23C303.816 347.721 302.342 349.769 300.54 351.652C298.739 353.618 297.264 355.502 297.264 355.993C297.264 356.403 296.363 357.877 295.299 359.269C294.234 360.661 293.087 363.036 292.842 364.511C292.023 368.032 290.303 371.472 288.337 373.192C286.781 374.584 286.699 374.584 285.798 372.946C285.143 371.718 285.143 370.735 285.798 369.507C286.945 367.541 287.109 357.303 286.126 356.566C285.143 355.911 281.703 350.915 281.703 350.26C281.703 349.932 280.802 348.868 279.656 347.803C278.509 346.738 277.608 345.592 277.608 345.182C277.608 344.773 276.626 343.462 275.397 342.316C271.466 338.548 270.237 337.156 270.237 336.255C270.237 335.19 265.405 330.195 258.444 323.97L252.793 318.974L258.444 313.651C275.725 297.353 280.475 293.749 283.423 294.486C284.242 294.732 285.225 294.568 285.471 294.159C286.372 292.602 291.613 293.421 295.135 295.633ZM256.478 330.195C262.047 335.272 266.388 340.76 265.651 341.824C265.405 342.234 264.259 342.561 263.112 342.561C261.965 342.561 259.918 343.053 258.526 343.708C257.051 344.281 253.694 345.51 250.991 346.329C245.258 348.131 238.051 352.389 232.645 357.303C231.908 357.959 227.977 361.153 223.964 364.429C219.869 367.623 215.692 371.226 214.627 372.373C212.498 374.666 209.795 375.158 208.157 373.52C207.011 372.373 206.847 367.459 207.911 366.804C208.321 366.558 208.812 364.347 208.976 361.89C209.222 358.696 209.959 356.566 211.515 354.519C212.744 352.963 213.726 351.407 213.726 350.997C213.726 350.014 227.567 335.928 231.581 332.733C235.266 329.867 242.883 325.69 245.422 325.199C248.861 324.543 251.646 325.772 256.478 330.195ZM337.232 330.604C338.46 331.177 340.753 332.406 342.391 333.225C345.094 334.617 352.793 341.415 355.004 344.363C357.461 347.557 363.603 358.122 363.603 359.105C363.603 359.76 364.013 360.661 364.504 361.153C364.914 361.562 365.569 364.183 365.815 366.804C366.06 369.425 366.634 371.882 367.125 372.127C367.534 372.455 367.698 373.356 367.371 374.093C366.142 377.369 356.806 373.028 348.861 365.657C346.241 363.2 335.184 356.484 333.874 356.484C333.3 356.484 332.072 355.911 331.171 355.256C330.352 354.601 329.042 354.027 328.304 354.027C327.567 354.027 325.847 353.454 324.619 352.799C322.899 351.816 320.36 351.57 315.282 351.734C311.433 351.898 308.157 351.652 307.993 351.325C307.666 350.506 312.825 343.38 313.726 343.38C314.054 343.38 314.873 342.889 315.446 342.316C317.903 339.859 326.666 334.371 328.141 334.371C329.042 334.371 330.761 333.225 332.072 331.914C334.775 329.048 334.447 329.13 337.232 330.604ZM464.176 331.587C465.569 332.242 467.616 333.962 468.599 335.436C470.237 337.729 470.401 338.958 470.401 345.674C470.319 351.407 469.991 353.618 468.927 354.765C468.19 355.502 467.616 356.648 467.616 357.222C467.616 360.252 456.724 372.537 452.055 374.748C450.581 375.403 447.715 377.205 447.141 377.778C446.896 378.024 444.193 379.416 440.999 380.973C437.887 382.447 434.283 384.167 433.054 384.822C431.908 385.477 430.352 385.968 429.697 385.968C429.041 385.968 427.403 386.542 426.175 387.197C424.864 387.852 422.817 388.425 421.588 388.425C420.36 388.425 419.131 388.753 418.886 389.244C418.64 389.654 417.002 390.063 415.282 390.063C413.562 390.063 410.532 390.637 408.648 391.292C403.98 392.93 391.04 392.93 387.109 391.292C385.471 390.637 383.751 389.326 383.259 388.425C382.44 386.951 383.014 386.132 387.6 381.628C392.678 376.632 393.988 375.567 399.475 371.063C400.95 369.834 405.536 365.821 409.631 362.054C413.726 358.286 418.067 354.519 419.213 353.618C421.834 351.652 425.356 348.622 428.304 345.756C429.533 344.609 431.089 343.38 431.662 343.053C432.317 342.807 433.955 341.824 435.266 340.923C436.658 340.023 438.378 339.04 439.197 338.794C439.934 338.466 440.589 337.975 440.589 337.647C440.589 336.828 445.258 334.371 446.732 334.371C447.305 334.371 448.206 333.798 448.779 333.143C449.353 332.488 450.991 331.914 452.383 331.833C453.775 331.833 455.659 331.505 456.56 331.095C459.099 330.031 461.392 330.113 464.176 331.587ZM271.712 349.687C273.022 350.424 274.742 352.389 275.561 353.946C276.298 355.584 277.445 357.959 278.1 359.187C278.755 360.498 279.246 363.855 279.246 366.722C279.246 371.39 279.001 372.045 276.707 374.339C275.315 375.731 271.712 378.024 268.681 379.498C265.733 380.891 262.621 382.447 261.884 382.774C261.065 383.184 259.427 383.511 258.198 383.511C256.888 383.511 255.168 384.085 254.349 384.74C253.448 385.477 250.909 385.968 248.616 385.968C246.323 385.968 242.965 386.378 241.163 386.787C237.314 387.688 213.481 388.098 212.17 387.279C211.679 386.951 211.269 385.395 211.269 383.839C211.269 381.464 212.006 380.235 215.61 376.796C219.623 372.864 237.723 358.941 238.706 358.941C239.033 358.941 240.426 358.041 241.9 356.894C243.374 355.747 245.012 354.846 245.422 354.846C245.913 354.846 246.732 354.273 247.305 353.618C247.879 352.963 249.107 352.389 250.09 352.389C250.991 352.389 252.547 351.816 253.366 351.161C254.267 350.506 256.724 349.932 258.853 349.932C260.983 349.932 263.03 349.523 263.276 349.113C264.095 347.803 269.009 348.131 271.712 349.687ZM323.882 360.252C325.684 360.989 328.141 362.054 329.369 362.709C330.516 363.364 332.072 363.855 332.809 363.855C333.546 363.855 334.119 364.183 334.119 364.674C334.119 365.084 334.856 365.493 335.675 365.493C336.576 365.493 337.805 365.985 338.378 366.558C338.951 367.131 340.016 367.869 340.671 368.196C341.327 368.524 343.046 369.507 344.357 370.407C345.749 371.308 347.551 372.373 348.452 372.783C349.353 373.192 352.055 374.83 354.512 376.468C356.888 378.106 359.099 379.416 359.345 379.416C360.982 379.416 366.142 382.611 366.961 384.085C368.435 386.787 367.289 389.982 364.586 390.555C363.358 390.882 361.228 391.947 359.754 393.012C358.362 394.077 356.069 394.977 354.84 394.977C353.53 394.977 352.055 395.387 351.564 395.878C350.745 396.697 336.249 398.09 327.158 398.253C321.752 398.417 310.041 396.779 309.713 395.878C309.549 395.387 308.812 394.977 307.993 394.977C307.256 394.977 305.864 394.404 304.963 393.749C304.144 393.094 302.834 392.52 302.178 392.52C301.523 392.52 299.721 390.719 298.247 388.507C295.872 384.822 295.626 383.839 295.626 378.024C295.626 374.175 296.118 370.244 297.019 367.95C298.411 364.101 301.687 359.924 303.98 359.023C306.519 358.122 320.524 358.941 323.882 360.252ZM164.341 371.636C165.897 372.291 168.272 372.864 169.582 372.864C170.811 372.864 172.121 373.192 172.367 373.683C172.613 374.093 173.513 374.502 174.251 374.502C174.988 374.502 177.854 375.649 180.475 376.959C183.096 378.352 185.962 379.416 186.781 379.416C187.6 379.416 189.32 380.317 190.549 381.382C193.743 384.167 192.76 385.559 184.979 389.326C184.242 389.654 182.277 390.227 180.639 390.473C179.001 390.801 177.445 391.374 177.199 391.783C176.953 392.193 174.742 392.52 172.367 392.52C169.91 392.52 166.47 393.094 164.668 393.831C160.573 395.469 133.382 395.223 132.809 393.503C132.645 393.012 132.072 392.52 131.581 392.52C129.861 392.52 127.731 387.606 127.731 383.757C127.731 378.106 131.335 375.158 142.064 371.8C147.551 370.162 160.409 369.998 164.341 371.636Z" fill="#3F496A"></path><path d="M277.445 335.519C277.117 336.993 277.609 337.976 279.329 339.204C280.639 340.187 281.949 340.924 282.441 340.924C282.85 340.924 283.342 341.497 283.669 342.153C283.915 342.808 284.98 343.381 285.962 343.381C287.027 343.381 288.583 343.954 289.402 344.61C291.532 346.248 295.872 346.166 299.148 344.528C302.015 343.053 304.718 340.105 304.144 339.122C303.571 338.139 297.428 338.303 296.855 339.286C296.609 339.696 294.316 340.105 291.941 340.105C287.764 340.105 287.273 339.859 284.406 336.829C280.803 333.062 278.018 332.488 277.445 335.519Z" fill="#3F496A"></path><path d="M266.553 20.4495C240.017 20.6133 217.986 21.0228 217.658 21.3504C217.249 21.7599 220.361 22.6608 224.538 23.3979C230.598 24.4626 239.935 24.7902 269.419 25.1178C291.041 25.3635 307.912 25.9368 309.55 26.4282C313.154 27.4929 335.021 27.4929 337.56 26.5101C338.625 26.1006 340.426 25.5273 341.737 25.2816C343.948 24.7902 344.439 23.6436 343.293 21.678C342.392 20.3676 327.159 20.04 266.553 20.4495Z" fill="#3F496A"></path><path d="M275.234 65.1661C273.76 66.6403 274.169 67.8688 277.445 71.5543C280.23 74.5027 281.213 75.076 285.062 75.6493C292.76 76.6321 300.541 73.9294 300.541 70.162C300.541 68.524 300.131 68.1964 298.166 68.1964C296.774 68.1964 295.545 68.524 295.217 69.0154C294.972 69.4249 293.498 70.162 291.941 70.5715C288.174 71.5543 283.67 70.3258 282.032 67.7869C280.475 65.4118 276.544 63.8557 275.234 65.1661Z" fill="#3F496A"></path><path d="M131.664 284.168C130.108 286.134 134.449 286.625 155.988 287.199C167.7 287.444 184.817 287.936 194.072 288.181C203.326 288.427 216.43 289 223.146 289.492C238.953 290.556 242.065 290.556 250.828 289.574C258.936 288.591 260.247 287.936 258.855 285.315L257.872 283.595L195.218 283.431C146.242 283.267 132.319 283.431 131.664 284.168Z" fill="#3F496A"></path><path d="M326.994 283.43C316.92 283.594 316.183 283.758 315.692 285.314C315.364 286.296 315.528 287.443 316.02 288.016C318.149 290.064 440.589 288.016 442.719 285.805C443.046 285.477 442.965 284.822 442.555 284.413C441.818 283.676 351.646 282.857 326.994 283.43Z" fill="#3F496A"></path><path d="M188.91 327.574C187.6 328.803 188.583 330.523 192.514 334.29C196.281 337.894 197.182 338.303 201.523 338.795C205.372 339.286 207.01 339.04 209.959 337.73C213.48 336.092 215.2 333.635 214.136 331.915C213.399 330.686 211.105 330.932 209.058 332.324C208.075 332.98 205.618 333.799 203.652 334.044C200.131 334.536 199.803 334.372 195.872 330.768C192.105 327.165 190.139 326.346 188.91 327.574Z" fill="#3F496A"></path><path d="M380.393 328.475C379.082 329.13 377.035 330.604 375.888 331.669C374.414 332.979 372.858 333.553 370.401 333.553C368.517 333.553 366.716 333.143 366.47 332.734C366.224 332.242 365.078 331.915 364.013 331.915C362.948 331.915 361.474 331.341 360.819 330.604C359.672 329.458 359.426 329.458 359.017 330.522C358.444 332.079 360.655 335.436 363.358 337.32C365.897 338.876 376.052 339.286 376.544 337.73C376.707 337.238 377.281 336.829 377.854 336.829C378.427 336.829 380.639 335.518 382.768 333.962C389.074 329.048 387.354 324.789 380.393 328.475Z" fill="#3F496A"></path><path d="M216.348 511.194C215.693 511.603 215.365 512.504 215.529 513.323C215.938 515.698 220.279 517.664 225.193 517.828C227.65 517.909 231.581 518.237 233.792 518.647C236.086 519.138 239.853 519.711 242.228 519.957C245.668 520.448 247.142 521.104 249.272 523.233C250.828 524.789 251.974 526.018 251.974 526.099C251.073 526.673 240.918 527 220.525 526.918C205.537 526.918 195.545 527.246 195.299 527.656C194.726 528.638 191.614 528.72 191.614 527.819C191.614 527.492 182.114 527.164 170.484 527.164C147.634 527 144.112 526.673 144.112 524.543C144.194 520.285 149.845 518.974 170.484 518.155C183.26 517.664 185.226 517.418 186.454 516.026C187.683 514.715 187.683 514.388 186.618 513.323C185.963 512.668 184.161 512.095 182.605 512.095C176.954 512.095 160.001 513.651 157.216 514.47C155.66 514.961 153.203 515.371 151.729 515.371C147.224 515.371 138.379 521.431 138.379 524.543C138.379 526.509 133.629 528.556 131.581 527.492C130.762 527.082 125.521 526.837 120.033 526.918C111.024 527.164 109.796 527.328 108.895 528.72C108.076 530.113 108.24 530.604 110.287 532.242C112.499 534.126 112.908 534.208 125.275 533.88C153.039 533.143 173.596 533.061 181.868 533.716L190.631 534.453L191.041 541.497C191.204 545.346 191.123 548.868 190.713 549.277C190.304 549.769 182.441 549.932 171.794 549.687C143.621 549.195 118.068 549.277 117.413 549.932C115.201 552.144 124.21 552.963 160.901 553.7C193.989 554.437 191.778 553.864 197.756 562.954C202.179 569.67 211.598 579.253 213.727 579.253C214.628 579.253 215.447 579.58 215.774 579.99C216.02 580.399 219.05 582.201 222.572 583.921C226.012 585.641 229.943 588.016 231.254 589.162L233.629 591.374L230.598 593.995C228.96 595.469 226.585 597.434 225.357 598.335C224.128 599.318 222.982 600.301 222.736 600.628C222.49 600.956 220.852 601.939 219.132 602.84C217.331 603.823 213.317 607.344 210.123 610.702C202.67 618.565 202.261 619.056 202.261 620.448C202.261 621.022 201.688 622.25 201.032 623.151C200.377 623.97 199.804 625.526 199.804 626.427C199.804 627.41 199.231 628.638 198.575 629.212C197.838 629.867 197.347 631.587 197.347 633.798C197.347 635.682 197.019 637.483 196.61 637.811C196.2 638.057 195.545 640.35 195.218 642.971C194.89 645.51 194.153 648.458 193.498 649.441C192.351 651.161 192.187 651.161 189.485 649.932C187.355 648.868 186.7 648.049 186.7 646.329C186.7 643.708 183.67 636.583 182.605 636.583C182.114 636.583 181.786 638.548 181.786 640.923C181.786 643.38 181.54 645.51 181.295 645.837C180.23 646.82 167.781 638.876 164.259 635.026C163.358 634.044 162.212 633.307 161.72 633.307C161.147 633.307 160.246 632.733 159.673 632.078C158.936 631.259 157.052 630.85 153.367 630.85C149.517 630.85 148.043 631.177 147.716 632.078C147.388 632.733 146.897 633.307 146.487 633.307C145.177 633.307 140.836 636.828 140.836 637.893C140.836 638.384 140.263 639.285 139.607 639.859C138.707 640.596 138.379 642.561 138.379 646.902C138.379 652.062 138.707 653.536 140.508 656.32C143.047 660.334 147.634 665.002 149.845 665.657C150.746 665.985 151.483 666.558 151.483 666.967C151.483 667.377 152.056 667.705 152.793 667.705C153.53 667.705 155.087 668.196 156.233 668.851C157.462 669.424 159.919 670.653 161.72 671.472C163.522 672.373 165.16 673.274 165.242 673.601C165.406 674.011 166.061 674.257 166.716 674.257C167.453 674.257 169.992 675.157 172.449 676.304C174.906 677.451 177.2 678.352 177.609 678.352C178.019 678.352 178.674 678.843 179.165 679.416C179.82 680.153 179.411 681.464 177.691 684.166C175.316 688.098 168.191 694.732 166.471 694.732C165.897 694.732 165.406 695.059 165.406 695.551C165.406 695.96 164.915 696.37 164.259 696.37C163.604 696.37 162.539 696.861 161.966 697.434C160.492 698.908 155.578 701.284 153.94 701.284C153.203 701.284 152.22 701.693 151.729 702.184C150.582 703.331 142.72 706.198 140.672 706.198C139.853 706.198 139.198 706.525 139.198 706.935C139.198 707.344 138.461 707.999 137.478 708.245C136.25 708.655 135.922 709.392 136.086 710.948C136.331 713.159 136.413 713.159 142.392 712.995C146.978 712.831 149.599 712.258 152.875 710.702C155.25 709.555 157.625 708.655 158.035 708.655C159.509 708.655 163.932 705.542 169.337 700.628C176.135 694.486 181.54 689.981 183.588 688.917C184.652 688.343 184.98 687.606 184.571 686.132C184.243 684.658 184.489 683.921 185.39 683.593C186.127 683.347 186.7 682.365 186.7 681.382C186.7 680.481 187.109 678.433 187.683 676.959C188.829 673.765 191.286 673.356 192.351 676.058C192.924 677.533 192.597 678.433 190.713 680.399C189.403 681.791 188.338 683.266 188.338 683.675C188.338 684.003 187.765 684.985 187.109 685.723C186.045 686.951 185.717 690.964 185.39 709.965C184.734 746.247 184.816 790.636 185.471 794.486C185.881 796.861 185.717 798.417 185.144 798.99C184.652 799.482 184.243 800.71 184.243 801.611C184.243 803.413 181.95 806.116 180.394 806.116C179.329 806.116 176.462 809.31 177.036 809.883C177.281 810.129 178.674 810.374 180.148 810.374C184.079 810.538 187.928 805.952 188.666 800.464C189.075 797.434 189.648 796.042 190.959 795.387C192.515 794.568 192.597 794.65 192.105 796.533C191.86 797.68 191.942 798.826 192.351 799.154C192.761 799.4 193.17 802.184 193.17 805.297C193.17 808.491 193.416 811.439 193.661 811.849C194.726 813.568 197.838 812.668 199.313 810.129C200.623 807.917 200.623 807.508 199.558 806.279C198.903 805.542 198.166 803.413 197.92 801.611C197.675 799.809 197.101 796.697 196.61 794.65C196.118 792.438 195.791 778.597 195.709 760.907C195.709 744.363 195.299 728.065 194.808 724.625C193.989 718.81 193.661 693.257 194.235 684.904C194.644 680.071 195.299 679.171 198.494 679.171C200.459 679.171 201.851 679.908 203.981 682.119C207.339 685.641 217.74 693.094 219.214 693.094C219.788 693.094 220.279 693.339 220.279 693.667C220.279 694.732 225.193 697.189 227.077 697.189C228.059 697.189 229.943 697.762 231.254 698.417C234.448 700.055 246.241 700.055 249.435 698.417C250.746 697.762 252.466 697.189 253.285 697.189C255.414 697.189 255.168 693.012 252.875 691.456C250.91 690.227 248.78 689.818 234.611 688.18C230.107 687.688 226.094 686.869 225.602 686.46C225.193 686.05 223.883 685.723 222.654 685.723C221.426 685.723 220.033 685.149 219.46 684.494C218.887 683.839 217.658 683.266 216.675 683.266C214.71 683.266 209.386 678.843 208.567 676.632C208.322 675.731 209.059 674.912 211.106 673.929C212.826 673.11 215.201 671.963 216.43 671.308C217.74 670.653 219.296 670.162 219.951 670.162C221.753 670.162 230.516 660.907 232.646 656.73C233.711 654.601 234.857 652.635 235.185 652.471C235.512 652.225 236.741 652.963 237.887 654.109C239.034 655.338 240.508 656.239 241.163 656.239C241.819 656.239 242.556 656.648 242.801 657.139C243.129 657.549 244.194 658.368 245.095 658.777C246.077 659.187 248.043 660.252 249.353 661.153C250.746 662.053 252.384 663.036 253.039 663.282C255.578 664.347 260.082 666.23 261.638 666.886C262.539 667.295 264.587 667.786 266.225 668.114C270.975 668.851 271.385 669.834 269.828 677.696C269.091 681.464 268.19 686.869 267.863 689.818C267.453 692.766 266.225 697.27 264.996 699.809C263.85 702.348 262.867 704.969 262.785 705.542C262.785 706.116 262.048 707.672 261.229 709.064C260.328 710.374 259.1 712.668 258.362 714.142C257.625 715.534 255.414 718.319 253.367 720.366C250.254 723.56 248.862 724.297 244.03 725.362C240.918 726.099 237.642 726.673 236.741 726.673C235.43 726.673 233.383 729.621 234.366 730.276C238.051 732.979 240.181 734.044 241.737 734.044C246.405 734.044 259.427 728.065 262.13 724.707C263.276 723.315 266.225 717.827 269.419 711.112C269.747 710.374 270.32 708.655 270.566 707.18C270.893 705.788 271.548 704.396 271.958 704.15C272.367 703.822 272.695 702.922 272.695 702.103C272.695 700.465 275.234 695.551 276.053 695.551C277.363 695.551 278.346 698.008 278.428 701.693C278.51 703.986 278.1 713.732 277.609 723.397C277.036 733.061 276.708 755.092 276.708 772.209C276.79 797.107 276.544 803.577 275.725 803.904C274.579 804.314 260.983 803.167 258.69 802.43C257.953 802.184 256.479 802.348 255.332 802.758C253.203 803.577 235.43 804.068 219.869 803.74C205.209 803.495 206.192 803.331 206.52 805.87C206.684 807.754 207.339 808.245 210.369 809.146C215.201 810.538 216.02 811.439 214.3 813.323C213.563 814.142 212.908 815.37 212.908 816.025C212.908 818.728 209.878 819.138 189.812 819.711C162.785 820.366 132.728 819.465 130.598 817.827C128.96 816.681 128.96 816.681 131.008 815.125C132.073 814.306 134.612 813.405 136.659 813.077C138.625 812.749 140.836 812.176 141.573 811.849C143.129 810.948 157.052 809.392 167.453 808.818C175.562 808.409 177.609 807.508 173.924 806.116C169.747 804.478 143.293 805.215 139.853 807.016C139.116 807.426 137.724 807.754 136.741 807.754C135.758 807.754 133.793 808.245 132.4 808.9C130.926 809.555 128.469 810.292 126.913 810.538C123.064 811.275 120.525 813.405 119.87 816.517C119.378 818.974 119.542 819.22 123.064 820.776C125.111 821.758 127.486 822.496 128.305 822.496C129.206 822.496 130.353 822.987 130.844 823.56C132.318 824.953 197.019 825.444 207.011 824.052C215.365 822.905 213.563 822.905 277.609 823.56C304.882 823.888 329.042 823.806 331.417 823.396C335.922 822.741 341.163 823.888 342.392 825.935C342.965 826.754 351.319 827 385.881 827C423.8 826.918 429.288 826.754 433.547 825.526C436.167 824.789 438.542 823.97 438.706 823.806C439.607 822.987 437.887 820.12 436.331 819.547C435.348 819.301 434.202 818.728 433.71 818.319C429.697 815.043 426.257 812.668 425.438 812.668C424.865 812.668 423.309 812.094 422.081 811.439C420.77 810.784 418.968 810.211 417.986 810.211C417.085 810.211 416.02 809.883 415.529 809.473C414.71 808.654 404.063 807.016 395.791 806.361L390.631 805.952V808.327C390.631 810.047 391.204 811.03 392.515 811.685C394.562 812.831 402.834 814.224 412.171 815.043C415.61 815.37 418.968 816.107 419.46 816.599C420.033 817.172 421.589 817.582 422.981 817.582C425.602 817.582 429.124 820.284 428.059 821.431C427.732 821.677 424.046 822.086 419.951 822.25C415.774 822.414 411.024 822.905 409.468 823.315C405.619 824.379 361.229 824.297 354.595 823.233C348.452 822.25 345.586 820.694 345.586 818.401C345.586 815.862 348.289 813.732 353.694 812.176C356.479 811.357 358.69 810.211 358.69 809.719C358.69 807.917 353.776 806.197 351.237 807.098C349.681 807.672 347.552 807.59 344.767 807.016C342.474 806.525 337.724 806.116 334.202 806.116C330.68 806.116 326.012 805.542 323.801 804.887C321.589 804.232 318.559 803.659 317.085 803.659C315.611 803.659 311.27 803.085 307.421 802.266C300.869 801.038 300.459 801.038 298.903 802.43C297.019 804.15 296.774 806.361 298.33 807.508C299.886 808.736 309.059 810.129 319.214 810.702C328.141 811.193 328.469 811.275 330.434 813.65C331.581 814.961 332.318 816.353 332.072 816.763C331.827 817.09 330.107 817.663 328.223 817.991C323.555 818.81 292.924 818.81 288.256 817.991C286.208 817.663 280.803 817.745 275.971 818.319C259.591 820.12 238.215 819.957 228.633 817.909C224.865 817.172 224.374 815.288 227.322 812.913C229.288 811.357 230.68 811.03 235.021 811.03C237.969 811.03 242.146 810.456 244.358 809.801C250.091 808.081 267.781 808.081 271.221 809.883C274.251 811.439 277.118 810.866 279.738 807.999C281.54 806.034 281.868 805.952 283.751 806.935C284.898 807.59 286.045 808.9 286.29 809.965C287.109 813.077 289.321 813.732 291.532 811.439C293.252 809.555 293.334 809.31 292.351 804.314C290.385 794.65 289.812 786.05 289.157 756.566C288.747 740.35 288.01 724.707 287.519 721.759C286.372 714.797 286.536 686.46 287.765 681.218C288.911 676.222 290.795 675.485 293.661 678.843C294.726 680.071 295.627 681.546 295.627 682.119C295.627 682.692 295.873 683.266 296.282 683.429C297.019 683.757 299.722 688.589 303.981 697.189C305.864 701.038 307.666 704.232 308.076 704.396C308.403 704.56 308.731 705.133 308.731 705.706C308.731 707.18 319.46 717.172 322.654 718.646C328.141 721.103 333.792 722.004 336.577 720.776C340.344 719.138 339.771 716.926 333.956 711.603C331.09 708.982 328.059 706.525 327.158 706.198C322.572 704.396 303.571 683.511 300.787 677.287C300.05 675.649 299.149 674.257 298.739 674.257C298.412 674.257 298.084 673.765 298.084 673.11C298.084 672.537 297.511 671.554 296.855 670.981C296.2 670.407 295.627 668.605 295.627 666.886C295.627 663.118 298.084 661.153 302.752 661.153C304.472 661.153 306.602 660.579 307.421 659.924C308.321 659.269 309.878 658.696 310.86 658.696C311.843 658.696 313.727 658.204 315.037 657.549C322.982 653.454 326.749 653.044 326.749 656.239C326.749 658.04 330.434 661.153 332.482 661.153C333.301 661.153 334.366 661.726 334.939 662.381C335.512 663.036 336.413 663.61 336.986 663.61C337.642 663.61 338.215 664.019 338.379 664.51C338.788 665.657 352.793 665.575 354.185 664.429C354.759 664.019 357.461 663.364 360.246 663.118L365.242 662.545V665.166C365.242 669.67 362.785 675.567 359.099 679.908C357.134 682.201 354.677 685.313 353.694 686.787C352.629 688.18 349.845 691.537 347.47 694.158C345.095 696.779 343.129 699.4 343.129 699.973C343.129 700.628 342.556 701.529 341.9 702.103C341.163 702.758 340.672 704.56 340.672 706.689C340.672 709.801 340.918 710.293 342.474 710.293C344.767 710.293 354.595 702.676 354.595 700.874C354.595 700.628 355.496 699.564 356.479 698.581C358.362 696.861 361.884 691.374 363.522 687.77C364.423 685.641 365.979 684.33 367.945 683.921C369.419 683.675 369.501 684.904 369.91 706.198C370.156 719.302 369.91 735.354 369.419 744.445C368.19 765.084 368.272 775.567 369.992 797.107C370.484 804.232 370.729 804.887 372.367 805.133C374.742 805.46 376.135 807.262 377.117 811.357C378.182 815.288 381.622 817.663 383.751 815.944C385.144 814.715 385.226 813.896 383.833 812.504C381.212 809.719 379.902 806.443 379.165 800.546C378.182 793.012 379.411 753.044 380.639 750.751C381.458 749.195 381.376 740.514 380.557 738.139C380.312 737.483 379.902 726.918 379.656 714.797C379.329 702.594 378.674 689.981 378.182 686.705C377.445 682.037 377.445 680.399 378.182 679.171C378.755 678.27 379.165 676.795 379.165 675.976C379.165 675.076 379.984 673.765 380.967 673.11C382.605 671.963 383.014 671.963 385.635 673.683C387.273 674.666 390.303 677.287 392.351 679.58C394.398 681.791 397.511 685.149 399.149 686.951C400.787 688.753 403.325 691.701 404.718 693.503C406.11 695.305 408.731 697.844 410.451 699.236C412.253 700.546 414.873 702.676 416.348 703.904C417.904 705.215 419.624 706.198 420.361 706.198C421.016 706.198 421.999 706.771 422.572 707.426C424.21 709.392 427.076 708.655 427.322 706.198C427.486 704.56 426.257 703.003 421.262 698.417C406.929 685.231 384.734 662.872 385.307 662.053C385.553 661.562 388.174 661.153 391.04 661.153C393.907 661.153 397.511 660.661 398.985 660.006C400.459 659.351 402.998 658.286 404.718 657.549C406.356 656.812 408.321 656.239 409.222 656.239C410.041 656.239 412.498 654.764 414.628 652.963L418.559 649.768L421.589 651.406C423.227 652.225 426.667 654.846 429.124 657.058C431.581 659.351 433.874 661.153 434.202 661.153C434.529 661.153 435.758 662.053 436.986 663.2C438.215 664.347 439.853 665.248 440.672 665.248C441.491 665.248 442.719 665.903 443.538 666.64C444.767 667.95 446.651 668.114 459.099 667.95C466.798 667.95 474.333 667.623 475.725 667.295C478.837 666.64 480.066 668.605 477.936 670.899C477.199 671.718 476.626 672.946 476.626 673.601C476.626 674.83 474.333 679.826 473.35 680.809C473.104 681.054 472.285 682.692 471.384 684.494C470.565 686.296 469.583 688.343 469.173 688.999C468.764 689.654 468.19 690.8 467.945 691.456C467.699 692.111 467.126 693.339 466.716 694.158C462.293 702.348 460.655 705.133 457.953 709.228C456.151 711.849 454.022 715.288 453.203 716.845C452.384 718.401 450.664 721.103 449.435 722.905C448.125 724.625 447.142 726.591 447.142 727.164C447.142 727.737 446.896 728.311 446.569 728.474C445.422 728.966 442.228 733.962 442.228 735.19C442.228 735.845 441.9 736.664 441.409 736.91C440.18 737.647 440.426 740.35 441.736 740.841C444.931 742.07 448.78 740.35 453.858 735.272C460.082 729.048 461.065 727.901 461.065 726.591C461.065 726.017 461.556 724.953 462.212 724.297C464.013 722.332 470.074 710.211 470.074 708.655C470.074 707.917 470.647 706.607 471.302 705.706C471.958 704.887 472.531 703.249 472.531 702.103C472.531 700.956 473.104 698.99 473.759 697.68C474.415 696.451 474.988 694.732 474.988 693.994C474.988 693.175 475.561 691.865 476.216 690.964C476.872 690.145 477.445 688.589 477.445 687.606C477.445 686.623 477.773 685.641 478.182 685.395C478.592 685.149 479.165 683.593 479.411 682.037C479.738 680.481 480.311 679.171 480.639 679.171C481.049 679.171 481.54 678.515 481.868 677.696C482.687 675.239 485.225 671.554 486.7 670.653C488.911 669.261 490.467 672.209 490.549 678.024C490.549 680.727 490.958 683.347 491.368 683.757C491.941 684.33 492.105 689.326 491.777 698.499C491.532 706.116 491.122 729.949 490.877 751.406L490.467 790.473L488.01 792.52C485.144 794.895 480.721 795.387 479.083 793.421C477.691 791.783 463.604 791.783 456.151 793.421C453.203 794.076 448.698 794.568 446.159 794.65C443.538 794.65 441.409 794.977 441.409 795.387C441.409 795.796 440.344 796.369 438.952 796.697C437.642 797.025 436.495 797.516 436.495 797.926C436.495 798.253 435.594 798.826 434.447 799.072C431.581 799.809 429.124 802.43 429.124 804.887C429.124 806.034 429.452 806.935 429.861 806.935C430.271 806.935 430.926 807.672 431.171 808.573C431.581 809.965 432.154 810.129 434.775 809.719C436.741 809.392 438.133 809.555 438.461 810.129C438.87 810.784 453.858 811.03 490.877 811.03C535.103 811.03 542.883 810.866 544.275 809.801C545.094 809.146 547.142 808.573 548.78 808.573C551.319 808.573 551.892 808.245 552.302 806.443C553.039 803.74 551.974 802.512 547.142 800.219C545.094 799.154 543.293 798.089 543.129 797.68C542.965 797.352 542.228 797.107 541.409 797.107C540.672 797.107 539.279 796.533 538.379 795.878C537.56 795.223 535.184 794.65 533.137 794.65C531.089 794.65 528.551 794.076 527.404 793.421C526.257 792.766 523.227 792.274 520.688 792.193C518.149 792.193 515.774 791.783 515.528 791.374C514.791 790.145 512.171 790.391 511.024 791.783C510.451 792.438 510.205 793.831 510.533 795.059C510.942 796.697 511.597 797.107 513.563 797.107C514.873 797.107 517.33 797.68 518.968 798.335C520.524 798.99 524.128 799.564 526.913 799.564C533.383 799.564 543.62 802.84 544.439 805.215C545.34 807.999 539.443 808.327 496.691 807.835C495.381 807.835 483.178 807.999 469.664 808.245C445.832 808.654 445.012 808.654 441.163 806.935C438.297 805.706 437.314 804.805 437.642 803.904C437.887 803.249 438.133 802.512 438.133 802.348C438.133 802.184 438.952 802.021 440.017 802.021C441.081 802.021 442.637 801.447 443.538 800.792C444.603 799.973 447.224 799.645 451.892 799.564C455.66 799.564 459.509 799.154 460.492 798.581C462.048 797.762 473.514 797.107 486.208 797.107C489.32 797.107 489.812 796.861 491.45 793.831C492.515 792.029 493.907 790.555 494.562 790.555C496.528 790.636 499.394 793.339 499.722 795.469C499.804 796.533 500.459 797.516 501.032 797.762C502.67 798.253 502.179 793.093 500.213 788.998C498.411 785.477 498.329 784.412 498.657 772.946C499.148 756.566 498.985 723.56 498.329 698.827C497.838 680.972 497.592 678.597 496.282 677.123C495.135 675.813 494.89 674.666 495.217 671.554C495.791 666.64 497.265 666.886 498.166 672.209C498.821 676.222 501.196 679.089 503.735 679.171C504.472 679.171 508.321 682.201 512.252 685.886C516.184 689.654 519.787 692.848 520.197 693.012C520.606 693.094 521.917 694.158 523.063 695.223C524.21 696.288 525.52 697.189 525.93 697.189C526.421 697.189 527.895 697.68 529.288 698.335C530.762 698.99 533.219 699.727 534.775 699.891C536.331 700.137 540.098 700.792 543.129 701.365C548.207 702.348 549.107 702.266 553.776 700.71C560.082 698.663 561.31 696.451 557.625 693.831C555.332 692.275 554.84 692.193 551.564 693.094C548.862 693.831 547.306 693.913 545.34 693.175C543.866 692.684 540.59 692.275 538.051 692.275C534.365 692.275 532.318 691.701 528.551 689.736C525.93 688.343 523.637 686.869 523.473 686.46C523.309 686.05 522.818 685.723 522.326 685.723C521.835 685.723 519.623 683.921 517.248 681.709C514.955 679.498 512.089 676.877 510.86 675.976C509.714 674.994 506.765 671.636 504.39 668.442C500.623 663.364 500.213 662.381 501.114 660.989C501.851 659.76 501.851 658.859 501.114 656.648C500.295 654.519 500.295 653.372 501.196 651.243C502.916 646.902 509.959 638.302 511.761 638.221C512.007 638.221 514.054 636.501 516.347 634.453C518.559 632.406 521.425 629.949 522.736 628.966C523.964 627.983 525.848 626.509 526.749 625.69C527.732 624.953 528.796 624.298 529.206 624.298C529.697 624.298 531.171 623.479 532.564 622.414C535.594 620.284 537.969 618.81 539.689 618.073C540.344 617.827 542.064 617.09 543.538 616.435C544.931 615.78 546.814 615.289 547.715 615.289C548.698 615.289 549.681 614.879 549.926 614.47C550.172 613.978 552.793 613.651 555.741 613.651C562.703 613.651 565.078 615.125 565.078 619.465C565.078 621.185 564.75 622.741 564.341 623.069C563.931 623.315 563.358 624.625 563.03 625.936C562.703 627.328 562.129 628.393 561.72 628.393C561.31 628.393 560.983 628.966 560.983 629.621C560.983 630.358 560.41 631.095 559.754 631.341C559.099 631.669 558.526 632.324 558.526 632.897C558.526 634.207 548.125 643.544 543.456 646.492C541.573 647.639 539.116 648.868 538.051 649.195C536.904 649.523 535.266 650.096 534.365 650.424C528.551 652.717 526.339 653.29 520.852 653.7C516.839 654.027 513.89 654.764 512.416 655.747L510.123 657.303L511.925 659.187C514.054 661.48 517.166 661.726 522.981 659.924C525.193 659.269 527.813 658.696 528.714 658.696C529.697 658.696 531.581 658.122 532.809 657.467C534.12 656.812 536.003 656.239 537.068 656.239C538.051 656.239 538.87 655.911 538.87 655.501C538.87 655.092 540.017 654.519 541.409 654.191C544.849 653.372 547.551 651.898 551.892 648.294C560.819 640.841 569.992 629.703 569.992 626.263C569.992 625.526 570.647 623.642 571.384 622.086C572.449 619.793 572.531 618.892 571.794 617.664C571.22 616.845 570.811 615.37 570.811 614.551C570.811 612.586 567.043 608.9 564.505 608.245C563.44 607.918 562.621 607.344 562.621 606.935C562.621 605.952 552.793 606.525 547.879 607.918C542.474 609.392 534.365 613.405 532.154 615.698C531.171 616.845 529.861 617.746 529.288 617.746C528.796 617.746 528.223 618.073 528.059 618.401C527.977 618.728 526.175 620.284 524.128 621.841C522.162 623.397 519.378 625.854 517.985 627.328C515.938 629.539 508.649 634.126 507.257 634.126C506.192 634.126 507.257 629.539 509.058 626.509C511.679 622.332 521.835 612.34 526.994 608.818C529.042 607.426 531.171 605.952 531.745 605.461C534.038 603.577 542.965 597.271 543.456 597.271C543.702 597.271 544.439 596.779 545.012 596.206C547.551 593.995 548.616 593.176 549.189 593.176C549.435 593.176 551.073 592.029 552.793 590.719C554.513 589.408 556.233 588.262 556.724 588.262C557.134 588.262 561.065 584.74 565.405 580.481C573.268 572.782 578.428 565.821 579.492 561.726C579.738 560.579 580.311 559.351 580.721 559.105C581.13 558.859 581.458 554.683 581.458 549.85C581.458 536.91 584.98 537.975 541.327 537.32C489.566 536.583 444.767 535.19 440.999 534.289C436.986 533.307 423.637 533.798 422.162 535.027C421.589 535.518 418.477 535.682 414.3 535.436C399.64 534.535 378.51 534.289 376.217 534.945C374.906 535.272 372.859 535.272 371.63 534.945C370.32 534.617 361.884 534.126 352.793 533.798C343.62 533.47 335.84 532.979 335.512 532.815C335.185 532.57 335.267 531.914 335.84 531.259C336.413 530.522 338.543 530.113 341.819 530.031C344.521 530.031 349.026 529.539 351.728 528.966L356.642 527.901L352.629 527.41C350.418 527.082 345.75 526.837 342.146 526.837C338.543 526.837 334.857 526.427 333.874 525.854C332.891 525.28 330.025 524.625 327.568 524.38C323.719 524.052 323.063 523.724 322.818 522.086C322.572 520.448 322.818 520.285 326.913 520.285C329.452 520.203 331.909 519.711 332.81 519.056C333.874 518.237 336.413 517.828 340.262 517.828C343.457 517.828 346.405 517.5 346.814 517.09C347.306 516.681 349.599 516.19 351.974 515.944C357.298 515.452 358.362 514.633 357.052 512.095C356.151 510.457 355.66 510.293 351.974 510.702C349.681 511.03 347.47 511.603 346.896 512.013C346.405 512.422 337.232 512.995 326.012 513.159C307.175 513.487 306.028 513.569 304.39 515.207L302.67 516.927L305.045 517.828C306.356 518.319 309.059 518.974 311.106 519.22C313.154 519.466 315.119 520.039 315.365 520.448C316.102 521.595 315.365 524.625 313.727 526.755L312.253 528.72L287.273 528.638C266.143 528.556 261.884 528.311 259.1 527.164C255.905 525.854 255.905 525.854 257.789 524.625C258.772 523.888 259.591 522.66 259.591 521.841C259.591 520.94 260.164 520.285 260.819 520.285C261.475 520.285 262.048 519.875 262.048 519.384C262.048 518.647 264.014 518.565 268.928 518.974C275.561 519.466 275.807 519.384 275.398 517.828C274.906 516.026 270.402 513.733 267.29 513.733C265.324 513.733 260 514.797 254.431 516.435C252.138 517.09 251.073 517.009 250.418 516.353C249.845 515.78 248.207 515.371 246.651 515.371C245.177 515.371 241.655 514.797 238.87 514.142C233.629 512.914 219.706 510.457 218.231 510.457C217.822 510.457 216.921 510.784 216.348 511.194ZM252.138 535.108C255.496 535.846 283.751 536.91 338.215 538.221C367.535 538.958 368.027 539.122 367.453 544.855C367.289 546.902 366.634 549.687 365.979 550.997L364.832 553.454L349.271 553.372C340.672 553.372 327.24 552.881 319.378 552.389C310.041 551.734 286.946 551.488 253.367 551.57C192.515 551.816 198.166 552.881 198.166 541.906V535.108L200.869 534.781C206.684 534.044 248.78 534.289 252.138 535.108ZM430.762 539.203C435.021 539.695 443.866 540.35 450.418 540.678C456.97 541.087 462.375 541.415 462.539 541.497C463.112 541.824 462.539 548.786 461.802 550.997C459.836 556.321 460 556.321 419.624 556.321C380.312 556.321 380.066 556.321 376.544 551.898C374.742 549.687 374.579 543.79 376.298 542.398C376.954 541.824 377.527 540.678 377.527 539.859C377.527 538.384 378.51 538.303 400.295 538.384C412.744 538.384 426.503 538.794 430.762 539.203ZM534.775 543.217C563.44 543.872 573.268 544.527 575.561 545.919C576.953 546.82 576.79 549.85 575.233 554.027C570.975 565.248 566.962 569.916 547.633 586.214C545.34 588.18 538.952 592.357 538.297 592.357C537.969 592.357 536.495 593.421 535.021 594.65C529.779 599.154 526.175 601.693 522.572 603.495C519.296 605.133 506.11 620.448 506.11 622.66C506.11 623.069 505.782 623.479 505.373 623.479C504.963 623.479 504.308 624.625 504.062 626.099C503.735 627.492 502.752 629.785 501.933 631.177C501.114 632.569 500.213 634.289 499.886 634.945C499.64 635.6 498.903 637.156 498.248 638.384C497.592 639.531 497.101 641.497 497.101 642.643C497.101 643.79 496.937 644.773 496.691 644.773C495.217 644.773 488.911 638.302 488.911 636.828C488.911 635.6 487.273 631.505 485.144 627.328C484.488 626.017 483.997 624.134 483.997 623.069C483.997 622.086 483.424 620.776 482.768 620.203C482.113 619.629 481.54 618.728 481.54 618.073C481.54 617.5 480.639 615.289 479.492 613.159C478.346 611.03 477.445 608.9 477.445 608.409C477.445 607.099 465.979 593.995 463.931 592.848C463.031 592.357 462.13 591.783 461.884 591.538C460.492 590.145 453.776 585.968 452.302 585.477C451.237 585.149 450.418 584.494 450.418 584.085C450.418 583.675 449.845 583.348 449.189 583.348C446.487 583.348 448.207 579.826 453.694 574.339C456.888 571.144 460.574 566.804 461.884 564.592C464.996 559.597 467.207 558.368 472.04 559.105C475.152 559.597 475.807 559.433 475.807 558.45C475.807 557.549 474.742 556.976 472.531 556.648C470.729 556.321 468.927 555.665 468.682 555.174C468.354 554.683 468.19 551.898 468.272 548.95C468.436 545.1 468.927 543.298 469.91 542.561C471.057 541.66 474.66 541.579 488.092 541.988C497.347 542.316 518.313 542.889 534.775 543.217ZM254.677 554.273C260.328 554.519 266.225 555.01 267.781 555.42C269.337 555.829 279.656 556.402 290.713 556.648C301.769 556.894 314.873 557.549 319.787 558.04C324.783 558.532 334.284 558.696 341.081 558.45C354.923 557.877 359.755 558.45 360.164 560.661C360.328 561.644 358.035 564.511 353.285 569.015C349.271 572.864 345.832 575.977 345.504 575.977C345.176 575.977 343.866 577.041 342.556 578.27C340.017 580.891 327.977 589.9 327.077 589.9C326.831 589.9 325.193 590.882 323.555 592.111C320.033 594.814 317.904 596.206 315.692 597.189C314.792 597.598 311.679 600.219 308.731 602.922L303.407 607.918L301.933 605.87C300.623 604.15 299.722 603.823 296.036 603.823C293.252 603.823 291.368 604.232 290.713 605.051C288.338 607.918 275.152 605.133 275.152 601.775C275.152 600.383 272.695 598.909 270.238 598.909C267.535 598.909 266.471 602.758 268.436 605.379C269.255 606.607 270.729 607.918 271.712 608.409C272.695 608.9 274.661 610.293 276.135 611.521C278.756 613.732 279.083 613.814 285.635 613.405C289.403 613.159 292.924 612.586 293.416 612.094C294.562 610.948 299.722 610.948 299.722 612.013C299.722 612.504 298.33 614.797 296.692 617.172C292.433 623.151 291.614 624.379 290.631 626.918C290.14 628.229 289.403 629.212 288.993 629.212C288.584 629.212 288.256 630.031 288.256 631.013C288.256 632.078 287.683 633.634 287.027 634.453C286.208 635.518 285.799 637.975 285.799 641.251C285.799 645.428 285.471 646.82 284.079 648.294C283.178 649.277 282.605 650.751 282.851 651.488C283.014 652.307 283.096 652.963 282.932 652.963C282.769 652.963 282.113 653.126 281.458 653.454C280.557 653.782 280.148 652.881 279.738 650.014C279.493 647.885 278.919 645.755 278.51 645.264C278.1 644.773 277.609 642.479 277.445 640.268C277.036 635.764 275.48 629.293 273.842 625.526C270.647 617.909 269.828 616.353 268.6 614.47C267.863 613.323 265.815 610.211 264.014 607.508C258.199 598.499 253.53 592.357 252.548 592.357C251.974 592.357 250.5 591.456 249.272 590.309C248.043 589.162 246.159 588.016 245.095 587.77C244.03 587.443 243.211 586.951 243.211 586.542C243.211 586.132 242.638 585.805 241.901 585.805C241.163 585.805 239.198 584.658 237.478 583.348C235.758 581.955 233.792 580.891 233.055 580.891C232.318 580.891 230.271 579.99 228.469 578.843C226.667 577.696 225.029 576.796 224.702 576.796C224.456 576.796 222.9 576.14 221.262 575.403C217.412 573.683 212.335 569.588 205.619 563.036C200.213 557.713 199.968 556.402 204.39 556.321C205.291 556.321 206.438 555.911 207.011 555.338C208.895 553.454 223.883 553.126 254.677 554.273ZM415.201 559.105C432.973 559.351 448.944 559.678 450.664 560.006C453.448 560.579 453.694 560.825 453.694 563.2C453.694 565.002 452.793 566.886 450.664 569.425C445.422 575.485 437.15 583.348 435.922 583.348C435.594 583.348 434.284 584.248 433.137 585.313C431.99 586.378 430.271 587.443 429.37 587.77C428.469 588.098 426.749 589.162 425.602 590.145C423.309 592.193 421.835 593.176 417.412 595.633C415.692 596.533 413.317 598.171 412.089 599.318C410.86 600.465 409.468 601.366 408.977 601.366C408.485 601.366 407.011 602.43 405.701 603.823C404.39 605.133 402.998 606.28 402.67 606.28C401.524 606.28 393.088 614.633 393.088 615.698C393.088 616.189 392.023 617.5 390.631 618.565C389.321 619.711 388.256 621.022 388.174 621.595C388.174 622.086 387.683 623.56 387.027 624.871C386.372 626.099 385.226 628.556 384.407 630.194C383.588 631.914 382.687 633.307 382.441 633.307C382.113 633.307 381.294 634.863 380.475 636.746C377.773 643.38 375.971 646.001 373.841 646.82C370.893 647.885 369.746 646.247 368.436 638.958C367.863 635.764 367.126 633.061 366.716 632.815C366.389 632.569 366.061 631.669 366.061 630.85C366.061 628.474 361.229 617.746 360.164 617.746C359.918 617.746 359.345 616.927 359.099 615.862C358.772 614.879 357.052 612.176 355.332 609.801C353.53 607.426 352.138 605.133 352.138 604.642C352.138 604.232 351.892 603.823 351.565 603.823C351.155 603.823 349.517 601.775 347.715 599.318C345.995 596.943 344.112 594.732 343.457 594.486C340.918 593.503 344.112 589.572 355.496 579.58C358.936 576.468 364.914 569.998 369.255 564.511C373.022 559.76 373.923 559.105 376.954 558.778C378.837 558.532 380.967 558.45 381.622 558.532C382.277 558.696 397.429 558.941 415.201 559.105ZM445.094 589.162C445.422 589.572 446.487 590.309 447.388 590.8C448.37 591.21 449.763 591.865 450.418 592.275C451.073 592.684 453.121 593.667 454.922 594.486C461.229 597.516 476.626 614.715 476.626 618.892C476.626 619.465 477.199 620.448 477.854 621.022C478.51 621.595 479.083 622.66 479.083 623.397C479.083 624.134 479.656 625.444 480.311 626.263C480.967 627.164 481.54 628.556 481.54 629.375C481.54 630.194 481.868 630.85 482.277 630.85C482.768 630.85 483.342 632.569 483.669 634.699C483.997 636.91 484.734 639.367 485.307 640.268C488.01 644.117 485.799 646.165 482.195 643.135C481.212 642.316 478.1 639.695 475.397 637.402C472.695 635.19 468.108 632.16 465.16 630.686C462.212 629.212 459.673 627.819 459.427 627.574C458.117 626.099 445.831 624.871 438.215 625.362C435.676 625.526 435.266 625.198 433.465 621.922C430.844 617.336 427.65 613.814 425.52 613.159C424.538 612.913 423.227 612.176 422.572 611.521C421.507 610.62 420.934 610.62 418.968 611.603C417.658 612.258 416.266 612.832 415.856 612.832C415.447 612.832 413.891 613.732 412.498 614.797C409.632 616.927 400.131 621.841 398.903 621.841C398.493 621.841 398.575 620.776 399.067 619.302C399.968 616.845 405.864 611.194 407.502 611.194C407.912 611.194 408.895 610.538 409.55 609.719C411.679 607.426 414.464 605.297 421.753 600.547C431.253 594.404 431.745 594.076 433.792 593.257C434.693 592.766 435.758 592.029 436.085 591.619C436.331 591.128 437.232 590.719 438.051 590.719C438.87 590.719 440.017 590.145 440.59 589.49C441.736 588.098 444.357 587.852 445.094 589.162ZM251.155 602.594C254.923 606.443 258.362 610.375 258.772 611.439C259.263 612.422 260.328 614.306 261.229 615.698C262.867 618.319 265.242 622.987 267.208 627.574C267.945 629.13 269.337 632.488 270.402 634.945C272.04 638.63 272.531 641.988 271.958 644.773C271.876 645.018 271.466 644.527 270.975 643.708C270.566 642.971 269.009 641.742 267.535 641.005C266.061 640.268 264.751 639.367 264.505 639.121C263.768 638.221 253.53 633.47 251.401 633.061C250.254 632.815 247.961 632.242 246.159 631.832C242.965 630.931 237.724 631.341 236.168 632.569C235.349 633.225 232.236 632.488 226.995 630.358C223.883 629.048 218.969 628.884 218.231 630.031C217.986 630.44 217.003 630.85 216.184 630.85C215.365 630.85 214.136 631.423 213.399 632.078C212.744 632.733 212.007 633.307 211.761 633.307C211.188 633.307 203.899 638.221 202.425 639.695C201.032 641.005 199.804 640.268 199.804 638.057C199.804 636.255 201.933 631.177 203.489 629.212C204.063 628.556 205.701 625.772 207.175 623.069C209.96 617.991 219.132 607.918 222.736 605.952C223.883 605.379 226.34 604.068 228.305 603.085C230.189 602.021 231.991 600.874 232.236 600.465C232.482 600.055 233.301 599.728 234.038 599.728C234.857 599.728 236.413 598.827 237.478 597.762C241.245 593.995 243.539 594.814 251.155 602.594ZM343.375 603.904C346.814 607.508 349.681 610.866 349.681 611.275C349.681 611.767 350.172 612.668 350.746 613.241C353.612 616.517 355.168 619.056 357.871 625.362C360.082 630.44 359.673 631.832 356.069 631.177C354.595 630.85 353.039 630.276 352.629 629.949C352.138 629.539 351.155 629.212 350.418 629.212C349.599 629.212 346.978 627.246 344.603 624.789C339.198 619.302 334.366 617.09 328.796 617.5C322.163 617.991 313.645 622.741 306.274 630.031C304.636 631.587 301.442 634.371 299.067 636.173C296.774 637.893 294.808 639.695 294.808 640.104C294.808 640.432 294.398 640.514 293.907 640.186C292.351 639.285 293.579 632.733 295.955 629.703C297.101 628.147 298.084 626.673 298.084 626.345C298.084 626.099 298.493 625.444 298.903 624.871C299.394 624.298 300.541 622.987 301.442 621.841C307.257 614.715 314.71 608.327 321.344 604.805C324.046 603.331 326.749 601.693 327.158 601.12C328.633 599.4 332.81 597.352 334.939 597.271C336.413 597.271 338.706 598.99 343.375 603.904ZM424.128 620.694C426.257 622.414 426.667 623.397 426.667 626.345C426.667 628.311 426.339 630.194 425.848 630.44C425.438 630.686 425.029 631.669 425.029 632.651C425.029 633.634 422.572 636.828 419.132 640.35C413.399 646.329 406.11 650.751 396.364 654.355C391.696 656.075 383.915 655.747 381.786 653.782C380.803 652.799 379.984 651.98 379.984 651.816C379.984 651.325 382.769 646.001 383.178 645.592C383.424 645.346 384.407 643.79 385.307 641.988C387.191 638.302 392.023 633.88 400.049 628.556C407.175 623.806 409.304 622.66 411.106 622.66C411.925 622.66 412.99 622.086 413.563 621.431C414.136 620.776 415.447 620.203 416.511 620.203C417.494 620.203 418.641 619.793 418.886 619.384C419.705 617.991 421.507 618.483 424.128 620.694ZM336.331 624.461C338.461 626.509 338.788 629.375 336.986 630.85C336.331 631.423 335.758 632.406 335.758 632.979C335.758 636.501 327.077 646.165 323.309 646.984C321.999 647.23 321.016 647.721 321.016 647.967C321.016 648.786 311.352 652.635 307.093 653.536C305.946 653.782 304.308 654.519 303.407 655.092C302.507 655.747 301.196 656.239 300.459 656.239C299.722 656.239 298.002 656.812 296.61 657.549C292.351 659.678 291.122 658.859 291.122 654.191C291.122 650.587 291.45 649.768 293.825 647.475C295.381 646.083 298.084 643.544 299.968 641.742C303.162 638.794 309.468 633.552 315.119 629.212C316.593 628.065 318.641 626.509 319.542 625.69C320.525 624.953 321.917 624.298 322.736 624.298C323.555 624.298 324.456 623.888 324.701 623.479C324.947 622.987 327.24 622.66 329.779 622.66C333.383 622.66 334.857 623.069 336.331 624.461ZM453.284 633.307C459.017 634.781 462.703 636.501 465.078 638.712C466.225 639.777 467.453 640.678 467.699 640.678C468.026 640.678 470.402 642.07 473.022 643.872C475.725 645.592 479.492 647.885 481.54 649.031C486.863 651.898 486.863 654.191 481.786 657.877C474.742 662.954 474.824 662.954 460.082 663.036C450.09 663.2 446.159 662.954 445.422 662.135C444.849 661.644 443.784 661.153 443.129 661.153C439.28 661.153 423.882 647.475 424.783 644.936C426.012 641.497 435.43 634.126 438.706 634.126C439.525 634.126 440.917 633.47 441.818 632.815C443.62 631.423 446.651 631.587 453.284 633.307ZM350.009 636.992C350.664 637.647 351.565 638.221 351.974 638.221C353.448 638.221 360.328 646.738 361.065 649.523C362.294 653.782 360.983 656.239 357.543 656.239C355.987 656.239 354.595 656.648 354.431 657.221C354.185 657.795 351.401 658.286 347.142 658.532C341.573 658.777 339.935 658.614 338.87 657.631C338.133 656.894 336.086 655.501 334.284 654.601C328.469 651.57 328.469 651.488 336.659 643.216C344.439 635.436 347.142 634.126 350.009 636.992ZM158.854 637.402C158.854 637.811 159.673 638.221 160.738 638.221C161.802 638.221 164.259 639.859 166.634 642.152C171.712 646.984 176.872 652.717 176.872 653.454C176.872 653.7 177.363 655.092 177.937 656.484C181.54 665.084 182.851 670.571 181.786 672.7C180.885 674.257 180.803 674.175 176.217 671.8C173.678 670.489 171.057 669.343 170.566 669.343C169.992 669.343 169.501 668.933 169.501 668.524C169.501 668.032 168.846 667.705 168.109 667.705C167.29 667.623 165.16 666.722 163.358 665.657C161.557 664.51 159.509 663.446 158.854 663.118C158.199 662.872 157.052 662.299 156.397 661.89C155.742 661.48 154.431 660.825 153.53 660.334C148.862 658.122 144.112 651.734 144.112 647.475C144.112 643.462 147.388 638.221 150.009 638.221C150.746 638.221 151.647 637.811 151.892 637.402C152.138 636.91 153.858 636.583 155.66 636.583C157.38 636.583 158.854 636.91 158.854 637.402ZM227.978 638.384C230.435 641.906 229.124 650.587 225.193 657.221C223.883 659.433 217.167 665.248 215.938 665.248C215.529 665.248 214.055 666.148 212.58 667.295C211.106 668.442 208.731 669.588 207.339 669.834C205.783 670.162 204.554 670.981 204.227 671.963C203.735 673.519 203.653 673.519 202.343 672.291C201.114 670.981 201.114 670.817 202.507 669.752C203.899 668.769 203.735 668.524 201.114 666.394C196.037 662.217 195.299 657.303 198.739 651.406C200.869 647.721 205.209 643.135 206.684 643.135C207.011 643.135 208.731 641.988 210.451 640.678C212.171 639.285 214.3 638.221 215.283 638.221C216.266 638.221 217.003 637.811 217.003 637.402C217.003 636.91 219.132 636.583 221.835 636.583C226.012 636.583 226.913 636.828 227.978 638.384ZM249.763 640.35C251.81 640.678 254.186 641.415 255.086 641.988C255.987 642.643 257.134 643.135 257.789 643.135C259.1 643.135 266.798 647.967 269.501 650.587C272.777 653.7 275.316 658.45 274.988 660.907C274.742 663.118 274.579 663.2 270.647 663.036C268.436 662.872 265.488 662.217 264.095 661.644C262.785 660.989 260.082 659.76 258.199 659.023C256.233 658.204 254.677 657.303 254.677 656.976C254.677 656.648 253.776 656.157 252.629 655.911C251.483 655.583 250.582 655.01 250.582 654.601C250.582 654.109 250.009 653.782 249.353 653.782C248.698 653.782 248.125 653.536 248.125 653.126C248.125 652.799 246.487 651.652 244.521 650.587C240.344 648.294 239.362 646.82 238.625 642.234L238.051 638.876L242.064 639.367C244.276 639.613 247.715 640.022 249.763 640.35ZM191.041 741.169C192.105 747.639 191.123 773.356 189.812 774.666C188.502 775.894 187.683 741.005 188.911 738.712C189.73 737.32 190.631 738.384 191.041 741.169Z" fill="#3F496A"></path><path d="M512.253 557.141C510.451 557.468 503.735 558.042 497.265 558.369C490.877 558.697 485.471 559.27 485.226 559.598C484.407 560.908 540.918 562.546 548.698 561.482C552.793 560.908 553.203 560.663 553.203 558.779V556.731L534.366 556.649C524.046 556.568 514.054 556.813 512.253 557.141Z" fill="#3F496A"></path><path d="M481.949 602.185C481.622 602.676 482.113 604.478 482.85 606.28C484.734 610.538 489.32 612.75 497.756 613.323C503.407 613.814 504.308 613.651 506.028 612.095C507.092 611.194 508.321 610.375 508.73 610.375C509.795 610.375 509.468 606.28 508.403 606.198C506.028 605.952 503.489 606.443 501.359 607.59C498.493 609.064 494.316 609.064 493.006 607.508C492.432 606.853 491.368 606.28 490.549 606.28C489.812 606.28 488.337 605.133 487.273 603.823C485.389 601.366 482.932 600.629 481.949 602.185Z" fill="#3F496A"></path><path d="M359.837 602.595C358.936 604.806 361.147 608.328 364.259 609.966C365.897 610.785 367.863 612.013 368.518 612.505C369.255 613.16 372.941 613.651 377.527 613.815C384.652 613.979 385.553 613.815 388.338 612.013C391.614 609.802 392.269 606.936 389.566 606.444C388.256 606.199 384.407 607.509 380.639 609.556C377.363 611.358 373.678 610.457 370.156 607.099C364.095 601.285 360.819 599.892 359.837 602.595Z" fill="#3F496A"></path><path d="M388.993 512.095C388.338 512.505 385.554 512.914 382.851 512.914C378.51 512.914 374.825 513.897 375.889 514.716C378.101 516.436 381.213 516.927 384.735 516.19C387.273 515.617 391.45 515.617 397.183 516.19C401.934 516.681 409.141 517.337 413.318 517.664C417.495 517.992 421.344 518.729 421.917 519.22C422.409 519.794 423.719 520.285 424.784 520.285C426.34 520.285 426.667 520.695 426.667 522.66C426.667 523.971 426.176 525.363 425.685 525.772C425.111 526.182 420.197 526.591 414.792 526.755C409.386 526.837 402.179 527.328 398.821 527.82C395.463 528.229 389.73 528.803 386.127 529.048C373.842 529.785 377.609 530.932 393.17 531.096C419.051 531.505 418.395 531.505 423.473 529.048C426.012 527.82 429.37 526.837 430.926 526.837C433.137 526.837 433.956 526.428 434.284 525.199C435.021 522.333 433.956 520.285 430.844 518.975C429.206 518.319 426.831 517.255 425.439 516.6C420.689 514.552 415.529 513.487 407.011 512.75C402.261 512.423 396.61 511.849 394.317 511.686C392.106 511.44 389.649 511.604 388.993 512.095Z" fill="#3F496A"></path><path d="M10.8605 527.082C9.87766 527.738 9.95956 528.065 11.5157 529.785L13.3175 531.751H51.4009C95.545 531.751 96.0364 531.833 98.5753 537.975C99.3124 539.859 99.8857 542.643 99.7219 544.2L99.4762 546.902L85.5532 547.557C67.3714 548.376 56.233 548.786 46.6507 548.868C39.7712 548.95 35.6762 549.769 36.8228 550.833C37.6418 551.571 55.6597 552.144 76.6261 552.226H98.002L100.213 554.273C101.442 555.42 102.343 557.14 102.343 558.368C102.343 559.515 102.67 560.416 103.08 560.416C103.489 560.416 104.145 561.153 104.39 562.054C105.045 564.019 120.197 579.253 121.507 579.253C122.081 579.253 123.637 580.317 125.111 581.71C128.387 584.74 127.896 586.296 122.572 588.917C120.606 589.9 117.986 591.62 116.757 592.766C115.529 593.913 114.382 594.814 114.136 594.814C113.645 594.814 113.072 595.305 106.929 601.284C104.39 603.659 102.343 605.788 102.343 605.952C102.343 606.116 101.196 607.836 99.8857 609.72C98.5753 611.521 97.4287 613.896 97.4287 614.961C97.4287 616.026 97.1011 617.091 96.6097 617.336C96.2002 617.582 95.7907 618.647 95.7907 619.629C95.7907 620.612 95.2993 622.414 94.6441 623.643C93.9889 624.871 93.2518 626.919 92.9242 628.311C92.5966 629.703 92.0233 631.014 91.6138 631.259C91.2043 631.587 90.8767 632.406 90.8767 633.225C90.8767 634.945 87.6007 638.221 85.8808 638.221C84.3247 638.221 79.4107 629.949 79.4107 627.328C79.4107 626.181 79.0831 624.953 78.5917 624.707C78.1822 624.462 77.7727 622.66 77.7727 620.776C77.7727 618.892 77.1994 616.599 76.5442 615.78C75.889 614.879 75.3157 613.405 75.3157 612.504C75.3157 611.521 74.7424 610.047 74.0872 609.228C73.432 608.327 72.8587 607.017 72.8587 606.28C72.8587 605.461 72.0397 603.987 71.0569 602.84C69.9922 601.693 68.518 599.482 67.6171 597.926C65.0782 592.93 52.4656 581.382 45.4222 577.533C44.1119 576.714 40.9178 574.994 38.4608 573.602C36.0038 572.209 31.2536 569.752 27.9776 568.114C19.5419 563.937 12.1709 556.976 10.7786 551.734C10.2053 549.523 9.22246 546.657 8.56726 545.428C7.91206 544.118 7.33876 542.234 7.33876 541.169C7.33876 540.186 6.76546 538.876 6.11026 538.303C5.45506 537.729 4.88176 536.419 4.88176 535.354C4.88176 532.979 4.14466 532.57 1.85146 533.471C-0.359842 534.29 -0.605542 537.566 1.19626 540.76C1.85146 541.906 2.34286 544.036 2.42476 545.51C2.42476 546.984 2.75236 548.786 3.24376 549.605C3.65326 550.342 5.12746 553.454 6.51976 556.485C9.46816 563.037 16.7573 570.817 21.5075 572.373C22.2446 572.701 22.8998 573.11 22.8998 573.438C22.8998 573.684 24.7835 574.83 26.9948 575.895C29.288 576.96 31.0898 578.188 31.0898 578.516C31.0898 578.925 31.745 579.253 32.6459 579.253C33.4649 579.253 34.6115 579.826 35.1848 580.481C35.7581 581.136 36.7409 581.71 37.3142 581.71C37.9694 581.71 38.4608 582.037 38.4608 582.447C38.4608 582.856 39.2798 583.512 40.3445 583.839C44.3576 585.068 51.4828 590.473 58.5262 597.598C64.5868 603.741 66.5524 606.362 69.5008 612.422C71.4664 616.517 73.432 620.53 73.9234 621.431C74.4148 622.332 75.07 625.117 75.3157 627.656L75.7252 632.242L73.2682 631.423C70.4017 630.44 62.785 625.854 62.3755 624.953C62.2117 624.625 61.6384 624.298 61.0651 624.298C60.4918 624.298 57.9529 623.151 55.414 621.841C52.8751 620.448 50.1724 619.384 49.5172 619.384C48.862 619.384 47.6335 619.056 46.8145 618.647C44.6852 617.5 36.0038 615.78 32.3183 615.862C30.5165 615.862 27.4043 616.353 25.3568 616.927C15.7745 619.629 12.3347 622.496 10.6967 629.048C9.55006 633.798 10.1234 636.337 13.3994 640.923C15.4469 643.79 26.4215 652.144 28.0595 652.144C28.6328 652.144 29.4518 652.389 29.7794 652.717C30.7622 653.7 37.9694 656.239 39.6893 656.239C40.5902 656.239 42.0644 656.73 42.9653 657.385C43.9481 658.041 48.1249 658.614 53.6122 658.941C62.6212 659.433 70.8931 660.743 71.5483 661.89C71.794 662.217 71.2207 663.364 70.4017 664.429C58.69 679.498 54.8407 683.839 50.5819 687.033C47.8792 688.999 45.1765 690.637 44.5214 690.637C43.8662 690.637 43.3748 690.964 43.3748 691.456C43.3748 691.865 42.7196 692.275 41.8187 692.275C40.9997 692.275 39.8531 692.848 39.2798 693.503C38.7065 694.158 37.7237 694.732 37.1504 694.732C36.4133 694.732 36.0038 695.633 36.0038 697.025C36.0038 701.529 45.2584 703.904 49.9267 700.71C52.7932 698.663 57.871 693.257 60.4099 689.408C61.6384 687.606 63.4402 685.231 64.5049 684.085C65.4877 682.938 66.3067 681.71 66.3067 681.218C66.3067 680.809 67.7809 678.843 69.5008 676.959C71.3026 675.076 73.432 672.291 74.251 670.817C77.2813 665.412 78.7555 664.838 80.5573 668.442C81.622 670.407 81.7858 678.925 81.8677 726.673C82.0315 780.563 81.9496 782.61 80.4754 784.166C78.346 786.214 71.794 786.378 69.5827 784.412C68.3542 783.347 67.1257 783.102 63.6859 783.511C61.3108 783.757 54.2674 784.412 48.1249 784.904C41.9006 785.477 36.8228 786.214 36.8228 786.623C36.8228 786.951 36.2495 787.279 35.5124 787.279C34.8572 787.279 32.564 788.016 30.4346 788.999C21.098 793.094 20.1971 793.749 20.6066 796.861C20.9342 800.055 25.8482 801.693 38.0513 802.84C48.862 803.822 83.7514 803.741 86.3722 802.758C88.0921 802.103 77.3632 801.529 70.3198 801.939C68.1904 802.021 65.242 801.611 63.6859 800.956C61.8022 800.137 55.9873 799.564 47.1421 799.154C39.6893 798.827 33.5468 798.253 33.5468 797.844C33.5468 797.434 32.8097 797.107 31.9907 797.107C31.0898 797.107 29.7794 796.861 29.0423 796.533C27.8957 796.124 28.3052 795.714 30.7622 794.486C32.4002 793.667 34.9391 793.012 36.3314 793.012C37.7237 793.012 39.6074 792.438 40.4264 791.783C41.4911 790.964 43.9481 790.555 47.3878 790.555C50.3362 790.555 54.6769 790.063 56.8882 789.49C61.8841 788.18 72.613 788.18 75.07 789.572C77.8546 791.128 78.8374 790.8 80.9668 787.606C83.6695 783.593 85.0618 783.02 88.2559 784.576C90.0577 785.477 90.8767 786.46 90.8767 787.688C90.8767 789.408 92.269 790.555 94.2346 790.555C94.6441 790.555 94.9717 789.981 94.9717 789.326C94.9717 788.671 94.6441 788.098 94.1527 788.098C93.7432 788.098 93.3337 787.606 93.3337 786.951C93.3337 786.296 92.9242 785.641 92.4328 785.477C91.0405 784.985 90.3853 769.097 90.9586 749.605C91.2862 740.35 91.1224 727.655 90.7129 721.349C90.3034 715.043 89.7301 701.939 89.5663 692.193C89.2387 677.041 89.3206 674.339 90.4672 673.438C91.9414 672.209 95.7088 673.683 99.1486 676.878C102.261 679.662 110.451 685.068 114.218 686.869C116.02 687.688 118.477 688.917 119.706 689.49C120.852 690.145 123.227 690.637 125.029 690.637C126.749 690.637 129.615 691.21 131.417 691.865C133.219 692.52 136.086 693.012 137.805 693.094C140.262 693.094 140.836 692.848 140.836 691.456C140.836 689.818 135.43 685.723 133.137 685.723C132.564 685.723 131.581 685.149 131.008 684.494C130.434 683.839 129.124 683.266 128.141 683.266C127.158 683.266 125.848 682.692 125.275 682.037C124.701 681.382 123.555 680.809 122.736 680.809C121.835 680.809 119.706 679.908 117.904 678.761C116.102 677.615 114.136 676.714 113.481 676.714C112.908 676.714 111.925 676.14 111.352 675.485C110.778 674.83 109.878 674.257 109.386 674.257C108.813 674.257 106.52 672.701 104.145 670.735C101.851 668.851 99.0667 666.64 97.9201 665.821C95.3812 664.019 94.9717 659.76 97.2649 659.023C99.1486 658.368 112.253 652.226 113.809 651.243C114.464 650.833 115.692 650.26 116.43 650.014C117.167 649.769 117.986 649.032 118.231 648.376C118.477 647.721 119.05 647.23 119.542 647.23C120.033 647.23 120.934 646.738 121.589 646.165C122.163 645.674 123.882 644.281 125.357 643.135C129.697 639.859 134.284 634.699 134.284 633.225C134.284 632.488 134.857 631.669 135.512 631.341C136.495 631.014 136.741 629.294 136.741 623.233C136.741 613.159 136.086 612.504 126.831 612.586C122.326 612.668 119.706 613.077 118.313 613.978C117.249 614.715 115.447 615.289 114.3 615.289C113.235 615.289 112.171 615.862 111.843 616.517C111.597 617.172 110.86 617.746 110.205 617.746C108.813 617.746 104.226 620.121 102.507 621.677C100.705 623.315 99.9676 621.841 100.459 617.5C100.869 613.978 101.524 612.914 105.946 608.491C111.27 603.168 114.136 600.711 116.43 599.318C121.425 596.288 128.305 593.176 129.779 593.176C130.844 593.176 132.072 592.602 132.646 591.947C133.219 591.292 134.366 590.719 135.185 590.719C136.004 590.719 136.905 590.309 137.15 589.9C137.396 589.408 138.87 589.081 140.426 589.081C141.982 589.081 143.457 589.408 143.702 589.9C143.948 590.309 144.849 590.719 145.586 590.719C148.78 590.719 166.225 607.181 167.945 611.849C168.272 612.75 168.927 613.733 169.419 613.978C170.402 614.634 174.66 620.858 175.479 622.824C175.725 623.643 176.38 624.298 176.872 624.298C177.281 624.298 177.691 624.871 177.691 625.608C177.691 626.263 178.018 626.673 178.428 626.427C179.247 625.854 177.527 618.892 176.217 617.582C175.643 617.009 175.234 616.19 175.234 615.616C175.234 615.125 174.66 614.224 174.005 613.651C173.35 613.077 172.777 611.931 172.777 611.112C172.777 610.211 172.531 609.556 172.203 609.556C171.384 609.556 168.682 604.806 168.682 603.413C168.682 600.956 153.694 587.115 148.043 584.331C145.914 583.266 143.948 582.119 143.702 581.628C143.375 581.218 142.31 580.891 141.163 580.891C140.099 580.891 139.198 580.563 139.198 580.154C139.198 579.744 138.379 579.089 137.396 578.843C136.331 578.516 134.366 577.369 132.891 576.304C131.499 575.24 129.861 574.339 129.288 574.339C128.796 574.339 127.158 573.356 125.684 572.046C124.21 570.817 121.753 568.933 120.279 567.787C115.611 564.347 109.714 558.45 109.714 557.14C109.714 556.485 109.14 555.174 108.485 554.355C107.83 553.454 107.257 551.325 107.257 549.687C107.257 547.967 106.929 546.411 106.52 546.165C106.11 545.838 105.537 543.79 105.209 541.579C104.882 539.286 104.308 537.484 103.899 537.484C103.489 537.484 103.162 536.829 103.162 535.928C103.162 535.109 101.606 533.061 99.8038 531.423C96.8554 528.884 95.7907 528.475 92.3509 528.475C90.1396 528.475 86.7817 528.147 84.898 527.656C80.6392 526.673 12.5804 526.182 10.8605 527.082ZM128.551 619.384C128.551 623.724 123.145 635.764 121.262 635.764C120.934 635.764 118.313 637.975 115.447 640.678C112.498 643.38 109.14 646.001 107.912 646.575C106.602 647.148 105.619 647.885 105.619 648.213C105.619 648.622 105.209 648.868 104.718 648.868C104.226 648.868 102.67 649.359 101.278 650.014C99.8038 650.67 97.7563 651.325 96.6097 651.57C95.4631 651.816 93.6613 652.308 92.5966 652.635C90.631 653.208 90.631 653.127 91.2043 649.605C91.5319 647.639 92.1052 645.674 92.5966 645.182C93.0061 644.773 93.3337 643.626 93.3337 642.643C93.3337 641.661 93.907 640.432 94.5622 639.859C95.2174 639.285 95.7907 638.466 95.7907 638.057C95.7907 636.501 102.588 628.475 105.864 626.263C107.748 624.953 110.123 623.151 111.188 622.25C112.171 621.431 114.218 620.285 115.692 619.711C118.887 618.565 128.551 618.237 128.551 619.384ZM42.8015 623.97C45.1765 624.707 47.7973 625.526 48.6982 625.936C49.5991 626.263 52.2199 627.246 54.4312 627.983C56.7244 628.802 59.0995 629.867 59.7547 630.44C60.4099 630.932 63.1126 632.406 65.7334 633.716C68.5999 635.19 71.5483 637.402 73.1044 639.449C74.4967 641.251 75.9709 642.971 76.3804 643.217C77.6089 644.118 77.4451 650.915 76.1347 652.963C75.1519 654.601 61.3108 654.191 57.9529 652.471C56.7244 651.816 54.7588 651.325 53.5303 651.325C51.4009 651.325 44.3576 649.359 41.573 647.967C40.754 647.557 39.5255 647.23 38.7884 647.23C37.6418 647.23 34.8572 646.001 31.0898 643.872C30.4346 643.462 29.288 642.889 28.6328 642.643C22.3265 640.186 16.3478 635.027 16.3478 632.16C16.3478 631.177 17.003 629.867 17.822 629.212C21.5075 626.263 24.5378 624.298 25.6844 624.298C26.3396 624.298 27.1586 623.888 27.4043 623.479C28.2233 622.168 38.0513 622.496 42.8015 623.97Z" fill="#3F496A"></path><path d="M74.1691 593.094C72.9406 594.978 76.7899 602.185 79.0012 602.185C79.5745 602.185 81.0487 602.677 82.3591 603.332C84.5704 604.478 89.6482 605.052 94.1527 604.724C97.3468 604.478 101.032 601.12 100.295 598.991C99.9676 597.763 99.0667 597.271 97.4287 597.271C96.1183 597.271 94.8898 597.599 94.6441 598.008C94.3165 598.418 92.3509 598.991 90.0577 599.319C85.6351 599.892 82.6048 598.663 78.6736 594.487C76.6261 592.357 74.9062 591.784 74.1691 593.094Z" fill="#3F496A"></path><path d="M176.053 599.319C175.234 600.302 175.234 600.793 176.135 601.94C178.837 605.543 183.178 608.574 187.437 609.884C189.976 610.621 193.088 611.604 194.316 612.013C197.429 612.996 204.39 609.475 204.963 606.608C205.127 605.543 205.127 604.479 204.881 604.233C204.062 603.414 199.312 603.823 198.329 604.806C197.101 606.035 191.614 607.918 191.614 607.099C191.614 606.69 190.549 606.199 189.157 605.871C187.846 605.543 186.7 604.97 186.7 604.561C186.7 604.151 186.29 603.823 185.881 603.823C185.389 603.823 183.669 602.513 182.031 600.957C178.755 597.763 177.609 597.435 176.053 599.319Z" fill="#3F496A"></path><path d="M101.115 784.985C99.8864 786.787 99.9683 786.951 102.261 787.852C103.572 788.425 104.882 789.244 105.21 789.735C105.537 790.227 110.206 790.554 117.085 790.554C125.357 790.554 129.043 790.882 130.763 791.701C131.991 792.356 133.711 793.093 134.53 793.339C136.987 794.076 136.004 796.042 132.483 797.352C130.026 798.253 124.62 798.826 115.038 799.236C104.718 799.645 100.132 800.137 97.4294 801.201C92.5973 803.167 94.6448 803.986 101.442 802.921C104.882 802.348 107.257 802.348 108.895 803.003C110.288 803.413 112.171 803.658 113.236 803.413C114.219 803.085 119.624 802.676 125.275 802.348C132.155 802.02 135.922 801.447 136.823 800.71C137.478 800.055 139.854 799.563 141.901 799.563C145.423 799.563 145.75 799.4 145.75 797.68C145.75 795.305 142.556 792.192 140.181 792.192C139.198 792.192 136.823 791.21 135.021 790.063C133.138 788.916 130.435 787.77 128.879 787.524C127.323 787.278 126.094 786.705 126.094 786.378C126.094 785.968 123.064 785.64 119.379 785.64C115.611 785.559 111.107 785.067 109.305 784.412C104.718 782.774 102.671 782.856 101.115 784.985Z" fill="#3F496A"></path></svg> 