<?xml version="1.0" encoding="UTF-8"?> <svg xmlns="http://www.w3.org/2000/svg" width="404" height="359" viewBox="0 0 404 359" fill="none"><path d="M320.956 0.224615C315.802 1.77907 262.46 28.532 243.234 39.3313C208.463 58.8029 196.191 66.1661 186.783 73.5293C175.247 82.5287 170.502 88.5829 162.648 104.209C159.457 110.591 153.239 129.244 152.421 134.889C151.112 143.725 150.13 142.743 146.694 129.571C145.549 124.826 143.994 120.081 143.258 119.017C142.031 117.136 141.704 117.136 135.731 117.545C128.532 118.199 116.996 120.735 89.425 127.935C63.572 134.644 62.3448 134.971 46.064 138.162C23.9744 142.58 1.72122 148.879 0.3304 151.088C-0.651358 152.561 0.494027 158.37 4.58469 174.159C5.8937 179.068 8.18447 188.313 9.6571 194.613C11.1297 200.912 13.1751 209.176 14.2386 213.021C18.7384 229.792 19.7201 234.783 19.5565 240.674C19.3929 245.91 19.6383 247.055 21.3564 249.264C24.5471 253.682 25.5289 256.873 28.556 273.972C30.8467 287.062 32.483 293.689 34.8556 300.152C36.001 303.261 36.9009 306.615 36.7373 307.515C36.6555 308.415 35.101 311.278 33.3011 313.978C30.0286 318.887 29.865 320.196 32.5648 320.196C33.4647 320.196 34.2011 319.378 34.5283 318.151C34.8556 317.005 36.4918 314.142 38.2917 311.769C42.8733 305.879 50.2364 290.743 52.2 283.38C55.227 271.844 56.127 268.981 58.745 261.7C60.1358 257.609 61.5267 253.6 61.7721 252.7C62.0175 251.8 63.8174 248.609 65.7809 245.664C68.9717 240.837 69.9534 240.019 74.944 237.728C78.0529 236.256 81.6527 235.11 83.0435 235.11C84.4344 235.11 85.9888 234.619 86.4797 233.965C87.7069 232.492 84.6798 230.201 68.9717 220.793C57.2724 213.757 56.6179 213.266 54.4907 209.012C51.9545 204.103 51.5455 200.667 53.3453 199.194C54.9816 197.803 57.1088 199.031 57.1088 201.24C57.1088 204.267 59.8086 208.93 63.8174 212.693C68.4808 217.111 70.8534 218.666 79.8528 223.247C84.0253 225.375 88.0341 227.993 88.6886 229.056C91.143 232.738 88.1978 238.301 83.698 238.383C80.6709 238.465 74.8622 242.064 72.5714 245.337C71.2624 247.137 69.2989 251.146 68.2353 254.336C66.3536 259.736 65.7809 262.354 62.4266 280.189C61.6903 284.116 60.4631 289.516 59.5631 292.298C56.7815 301.461 44.1823 319.378 40.5007 319.378C39.5189 319.378 38.1281 319.705 37.4736 320.196C36.2464 320.932 36.3282 321.014 40.1734 322.16C40.6643 322.323 41.8097 325.677 42.6278 329.686C43.4459 333.695 45.6549 341.713 47.5366 347.603C50.8091 357.748 51.0546 358.239 53.3453 358.485C55.7179 358.812 75.5167 355.867 80.8346 354.558C82.389 354.148 87.5433 353.003 92.2884 352.103C97.0336 351.203 106.197 349.076 112.742 347.276C119.287 345.558 129.023 342.94 134.422 341.467C143.585 339.013 156.266 335.086 179.665 327.559C185.883 325.514 191.201 324.287 193.737 324.287C197.746 324.287 197.909 324.205 200.282 320.441C201.673 318.314 202.736 316.105 202.736 315.533C202.736 313.569 200.691 314.469 199.546 317.005C198.155 320.196 196.191 320.851 189.81 320.441C185.31 320.196 184.328 320.441 182.365 322.078C180.074 323.959 176.556 325.187 154.466 331.65C139.331 336.068 130.413 338.522 121.741 340.649C117.896 341.631 112.742 342.858 110.287 343.513C107.833 344.167 102.106 345.394 97.6063 346.294C93.1066 347.194 82.2254 349.485 73.4714 351.367C64.7174 353.167 56.5361 354.885 55.3907 355.13C53.509 355.457 53.0999 355.212 52.3636 352.758C51.8727 351.285 51.2182 348.585 50.9728 346.785C50.4001 343.186 49.0911 336.886 46.8821 327.477L45.4095 321.26L48.1093 317.414C50.0728 314.633 51.3818 313.651 52.609 313.815C53.9998 314.06 54.2453 314.633 54.2453 318.56C54.2453 321.178 54.818 324.123 55.6361 325.596C56.3724 326.986 57.436 329.932 58.0087 332.141C60.2177 341.222 63.0811 343.267 68.399 339.504C70.117 338.359 72.4078 337.377 73.5532 337.377C74.6986 337.377 76.8257 336.313 78.3802 334.922C81.8163 332.059 82.5527 331.977 84.5162 334.104C85.3343 335.004 87.0524 335.741 88.2796 335.741C90.5703 335.741 91.3067 335.25 93.4338 332.141C94.4974 330.586 94.8246 330.586 97.9335 331.65C101.288 332.713 101.533 332.713 110.124 328.868C120.596 324.205 123.786 323.305 130.413 323.141C133.113 323.141 135.895 322.65 136.549 322.16C138.431 320.687 149.067 317.742 150.948 318.232C151.848 318.478 153.976 317.987 155.612 317.169C158.639 315.614 158.721 315.614 164.529 317.578C167.802 318.642 173.038 319.705 176.147 319.869L181.874 320.114L175.738 319.051C172.384 318.478 167.393 317.251 164.693 316.269C162.075 315.287 159.212 314.469 158.475 314.469C157.739 314.469 153.648 312.996 149.394 311.278C145.222 309.478 138.186 306.942 133.768 305.47C126.323 303.015 124.196 301.87 125.341 300.806C125.586 300.561 129.759 301.297 134.586 302.443C139.495 303.588 145.794 304.979 148.74 305.551C159.702 307.515 173.12 310.542 179.992 312.424C187.355 314.551 194.882 315.042 197.009 313.651C198.073 312.915 197.827 312.424 195.618 310.542C193.573 308.824 192.591 306.942 191.201 301.788C188.746 292.543 188.337 289.107 189.892 289.107C190.546 289.107 195.046 290.58 199.873 292.38C204.7 294.261 214.436 297.125 221.471 298.925C249.288 305.797 264.342 309.888 278.413 314.469C299.276 321.26 304.839 322.978 316.866 326.168C341.982 332.959 348.855 334.268 351.309 332.632C352.7 331.732 354.091 328.705 354.091 326.414C354.091 325.268 357.609 313.896 361.781 301.215C366.035 288.452 371.926 269.799 374.871 259.654C377.735 249.509 383.298 231.265 387.225 219.157C393.606 199.031 398.188 182.832 402.36 165.16C406.615 147.325 402.688 129.08 389.434 105.764C383.789 95.8643 377.08 83.7559 373.48 77.2108C372.171 74.7564 370.781 72.3021 370.453 71.893C370.126 71.4021 366.444 64.448 362.272 56.3485C352.291 37.0406 347.546 28.4502 341.573 19.5325C331.019 3.74258 325.783 -1.16621 320.956 0.224615ZM325.947 9.87857C331.756 15.9327 338.301 26.9775 350.736 51.5215C356.136 62.239 364.154 77.129 368.49 84.574C378.88 102.409 384.362 113.045 388.37 123.272C394.179 138.243 398.761 158.779 397.779 165.978L397.206 169.823L393.934 169.414C388.452 168.678 388.125 167.778 389.598 158.942C391.97 144.952 391.234 141.189 383.298 128.753C377.816 120.081 369.144 105.273 364.154 96.0279C339.446 50.2943 322.265 24.1141 315.557 21.9869C309.421 20.0234 259.515 48.1672 226.462 72.3021C223.517 74.4292 216.726 78.6835 211.327 81.7106C198.646 88.8283 193.164 92.7553 189.564 97.0914C186.537 100.609 183.919 105.109 183.919 106.664C183.919 108.627 186.128 106.991 195.046 98.4823C205.6 88.5011 211.981 84.0013 231.125 73.202C238.243 69.1932 250.106 62.0754 257.469 57.4121C281.441 42.3584 293.794 35.0771 306.475 28.532C310.648 26.4049 310.811 26.323 312.939 27.7139C317.029 30.4137 318.42 32.3772 331.183 53.485C338.71 66.0843 340.755 69.1113 352.045 84.9831C358.999 94.7189 368.408 110.018 372.335 117.79C375.198 123.599 381.498 139.798 383.871 147.325C385.425 152.397 385.671 165.569 384.198 167.042C383.625 167.614 382.316 168.023 381.089 168.023C377.489 168.023 367.099 171.132 361.945 173.669C359.163 175.059 352.945 179.314 347.955 183.159C336.01 192.486 328.647 196.985 306.475 208.276C296.249 213.512 285.613 219.32 282.831 221.202C277.023 225.047 277.268 225.047 267.041 220.793C263.033 219.075 255.915 216.784 251.251 215.639L242.825 213.512L239.225 206.148C237.261 202.058 233.58 195.595 231.044 191.749C228.507 187.904 219.099 170.151 210.099 152.315C201.182 134.398 193.082 118.608 192.019 117.217C189.482 113.618 182.937 109.691 175.165 107.073C171.402 105.845 168.375 104.455 168.375 103.964C168.375 99.7095 175.002 88.4193 179.501 84.8195C183.019 82.1196 194.228 74.7564 194.882 74.7564C195.128 74.7564 198.646 72.7111 202.736 70.2567C206.827 67.8023 210.345 65.757 210.59 65.757C210.836 65.757 219.017 61.4209 228.753 56.103C238.57 50.7852 249.615 44.8128 253.46 42.8493C264.096 37.4496 280.95 28.3684 288.231 24.1141C297.394 18.7144 309.502 11.3512 314.82 7.99687C317.275 6.52423 319.811 5.21522 320.384 5.21522C320.874 5.21522 323.411 7.34236 325.947 9.87857ZM178.192 116.154C191.037 125.644 196.764 134.316 213.781 169.987C220.653 184.468 228.589 199.522 233.743 208.276L235.625 211.384L233.662 212.121C230.716 213.266 223.435 214.575 216.644 215.066C209.772 215.639 204.209 217.602 191.201 224.147C182.365 228.565 179.501 230.611 180.238 231.838C180.81 232.82 181.792 232.41 191.282 227.911C207.89 220.057 211.327 218.584 213.863 218.175C217.135 217.602 236.771 221.938 259.187 228.156C263.442 229.383 271.705 231.592 277.513 233.147C284.468 234.947 288.804 236.583 290.031 237.728C292.731 240.265 298.949 250.164 305.003 261.7C314.329 279.535 315.802 282.071 325.047 296.061C338.301 316.269 343.7 325.105 343.209 325.677C342.964 325.923 338.546 324.778 333.474 323.223C328.401 321.587 317.766 318.56 309.912 316.433C275.55 307.27 268.023 305.142 258.778 302.197C230.389 293.034 193.164 282.562 188.828 282.562C188.092 282.562 186.864 281.907 186.21 281.089C185.474 280.353 182.692 270.454 179.91 259.245C177.211 247.955 174.02 235.847 172.956 232.247C171.402 227.256 170.911 224.066 170.993 218.748C171.075 213.103 170.747 211.221 169.438 208.93C168.538 207.376 167.311 203.694 166.82 200.749C165.02 190.849 160.275 173.014 155.612 159.188C153.73 153.379 154.139 148.225 157.003 142.416C160.275 136.116 162.811 128.671 164.611 120.163C166.738 110.754 167.229 109.691 169.438 110.427C170.42 110.672 174.347 113.29 178.192 116.154ZM140.231 120.735C140.558 121.226 141.131 123.026 141.458 124.581C141.785 126.217 143.013 132.189 144.158 137.916C146.776 150.843 147.431 153.788 150.948 165.978C152.503 171.378 154.303 177.759 154.957 180.05C155.53 182.423 157.739 188.722 159.784 194.04C164.611 206.885 164.693 207.212 160.602 208.685C158.803 209.257 156.266 209.666 154.876 209.585L152.421 209.339V202.303C152.421 194.613 151.439 192.404 147.185 190.849C145.549 190.195 145.385 189.704 145.876 187.413C146.694 183.323 146.367 179.314 145.058 177.841C144.403 177.105 143.831 174.978 143.831 173.014C143.831 171.132 143.094 168.187 142.276 166.551C140.476 163.278 138.349 157.061 137.367 152.479C137.04 150.925 136.304 148.797 135.731 147.734C134.995 146.425 134.995 145.525 135.649 144.216C136.386 142.907 136.386 141.925 135.649 140.125C134.831 138.243 134.177 137.753 132.05 137.753C130.659 137.834 128.041 138.489 126.323 139.307C123.459 140.698 122.805 140.698 120.432 139.716C116.587 138.08 114.869 138.325 112.087 140.616C109.551 142.743 106.688 143.316 105.788 141.843C105.542 141.352 104.151 141.025 102.842 141.025C101.042 141.025 100.224 141.516 99.6516 143.07C98.9971 144.789 98.3426 145.116 95.3155 145.116C92.7793 145.116 91.3067 145.607 90.2431 146.752C89.0977 147.979 87.8705 148.388 85.5797 148.225C83.0435 148.061 82.0618 148.552 79.9346 150.679C77.2348 153.461 76.0076 153.87 74.535 152.397C73.0623 150.925 67.2536 152.397 63.9811 155.015C62.263 156.406 60.3813 157.224 59.5631 156.979C57.8451 156.406 51.1364 158.451 48.2729 160.333C46.8821 161.315 44.4277 161.887 41.5642 161.887C34.9374 162.051 28.2287 163.197 26.8379 164.424C26.1016 164.996 23.6472 165.896 21.2746 166.387C14.5659 167.86 13.0933 171.214 16.3658 177.023C18.1657 180.132 18.1657 180.295 16.7749 182.668C14.8113 185.941 14.975 187.168 17.8384 190.358C19.1474 191.913 20.2928 194.04 20.2928 195.104C20.2928 196.249 21.2746 198.54 22.42 200.258C24.3017 202.958 24.4653 203.776 23.8108 206.067C23.1563 208.112 23.3199 209.257 24.4653 211.466C25.2834 213.021 25.9379 215.066 26.0197 216.048C26.0197 217.03 26.7561 219.402 27.5742 221.447C28.4741 223.411 29.1286 226.356 29.0468 227.911C29.0468 229.629 29.7013 231.756 30.8467 233.31L32.6466 235.928H28.556H24.4653L23.5653 232.41C23.0745 230.529 20.8655 222.347 18.7384 214.248C13.9114 196.249 7.93903 171.869 5.81188 161.642C3.93018 152.97 4.25743 152.07 9.24804 151.415C23.3199 149.37 30.6013 147.897 53.0999 142.334C68.1535 138.571 73.7986 137.016 100.47 128.917C125.096 121.39 138.922 118.527 140.231 120.735ZM131.886 142.58C132.131 142.989 131.968 144.461 131.477 145.852C130.741 147.897 130.822 148.797 131.886 150.434C132.622 151.579 133.195 153.788 133.031 155.261C132.95 156.815 133.277 158.533 133.768 159.188C134.259 159.76 135.077 161.887 135.649 163.933C136.14 165.978 137.531 168.433 138.595 169.496C140.885 171.623 141.049 173.669 139.331 177.023C138.186 179.314 138.186 179.396 140.558 181.114C143.258 183.077 143.667 185.368 142.031 189.786C141.213 192.24 141.295 192.895 143.258 196.494C144.649 199.112 145.467 201.812 145.467 204.021C145.467 205.903 145.876 208.194 146.367 209.094C147.431 211.057 146.612 212.039 143.831 212.366C142.113 212.612 141.704 212.039 139.986 206.476C138.922 203.121 136.058 192.567 133.686 183.159C129.268 166.06 126.895 159.106 124.441 156.324C122.968 154.77 120.514 154.524 116.096 155.67C114.46 156.161 108.896 157.47 103.742 158.697C94.8246 160.824 76.4985 165.978 75.2713 166.714C74.944 166.878 68.0717 168.596 59.9722 170.396C51.8727 172.196 43.7732 174.159 41.9733 174.65C37.0645 175.959 31.8285 179.314 31.3376 181.359C30.9285 182.913 35.101 201.321 36.2464 203.203C36.4918 203.694 37.8008 208.685 39.1917 214.412C40.5007 220.22 42.1369 226.847 42.7914 229.302C43.6914 232.656 43.7732 234.047 43.0369 234.865C41.8097 236.337 36.5736 235.928 35.8373 234.292C35.5101 233.638 34.6101 231.838 33.8738 230.447C32.9739 228.647 32.6466 226.847 32.9739 225.047C33.3829 223.002 33.1375 222.02 31.8285 220.875C29.7831 218.993 29.7013 217.848 31.3376 214.657C32.483 212.448 32.4012 212.284 29.7013 210.239C27.0833 208.194 26.9197 207.866 27.3288 204.512C27.7378 202.058 27.4106 200.258 26.4288 198.294C25.6925 196.822 25.2016 194.695 25.447 193.467C25.7743 191.831 25.2834 190.768 23.0745 188.722C20.6201 186.513 20.2928 185.695 20.3746 182.586C20.4564 180.705 20.211 177.596 19.8838 175.878C19.3111 173.26 19.4747 172.523 20.7019 171.623C21.6018 170.969 23.2381 170.478 24.4653 170.478C25.6107 170.478 27.5742 169.742 28.7196 168.842C30.9285 167.124 33.792 166.714 34.6101 168.023C35.5101 169.496 38.1281 168.842 39.4371 166.714C41.237 164.015 44.0186 163.033 45.9822 164.424C47.7002 165.569 49.4183 165.16 51.9545 162.869C54.4089 160.742 60.4631 160.006 61.9357 161.806C63.4902 163.687 64.1447 163.442 66.0264 160.251C68.0717 156.733 71.9169 154.933 77.153 154.933C79.1983 154.933 81.98 154.361 83.289 153.706C84.7616 152.97 86.5615 152.724 88.1978 152.97C89.9977 153.379 91.143 153.133 92.2884 152.07C93.1884 151.252 95.5609 150.352 97.6063 149.943C99.6516 149.534 102.351 148.47 103.742 147.488C105.788 145.934 106.442 145.77 108.242 146.588C109.96 147.407 110.86 147.325 112.742 146.343C114.051 145.688 116.751 145.116 118.796 145.116C121.087 145.116 123.541 144.461 125.177 143.48C128.041 141.761 131.15 141.352 131.886 142.58ZM123.705 163.36C124.032 165.651 125.505 170.723 127.059 174.569C130.822 184.141 131.722 187.086 135.24 200.994C137.122 208.194 138.022 213.348 137.613 213.757C137.204 214.166 129.677 216.784 120.923 219.566C112.169 222.347 102.679 225.702 99.8152 227.093C97.0336 228.402 94.3337 229.22 93.8429 228.974C93.4338 228.647 92.1248 226.52 90.8976 224.229C87.0524 216.457 75.1077 201.894 68.3172 196.576C63.4084 192.649 60.954 192.567 54.0817 195.758C47.6184 198.867 47.1275 200.258 50.3183 207.866C54.7362 218.257 63.9811 227.338 72.4896 229.465C76.5803 230.611 77.3984 231.511 75.5985 233.31C74.535 234.374 71.9987 234.701 61.6085 234.865C50.2364 235.028 48.8456 234.865 48.1911 233.556C47.7002 232.738 45.6549 225.538 43.6096 217.439C41.4824 209.421 39.1099 200.012 38.2099 196.658C37.31 193.304 36.001 188.968 35.2646 187.004C33.6284 182.668 34.2829 181.85 40.7461 180.377C45.2458 179.396 53.2635 176.859 82.4708 167.369C90.8158 164.669 100.715 161.806 104.56 161.069C108.406 160.251 113.723 159.188 116.423 158.697C119.123 158.124 121.741 157.96 122.232 158.37C122.723 158.779 123.459 160.988 123.705 163.36ZM393.77 176.205C394.097 176.696 392.788 181.195 390.907 186.186C376.507 224.475 363.254 266.608 359.572 285.834C354.254 313.242 353.109 318.887 351.718 322.078C348.773 328.95 349.673 330.014 333.883 301.379C328.074 290.825 320.956 277.899 318.175 272.744C312.12 261.618 300.912 244.601 295.512 238.546C293.467 236.174 289.54 232.738 286.84 230.938C284.222 229.138 282.095 227.256 282.34 226.684C282.504 226.193 285.368 224.638 288.722 223.247C295.022 220.548 309.584 212.448 317.275 207.294C328.81 199.603 340.591 193.958 351.8 190.522C357.036 188.968 366.526 185.45 372.989 182.668C382.889 178.414 390.007 175.796 392.706 175.468C393.034 175.387 393.525 175.796 393.77 176.205ZM64.9628 200.094C68.808 203.612 81.6527 218.257 81.6527 219.075C81.6527 220.629 64.3083 210.485 62.0175 207.539C61.0358 206.312 60.054 204.267 59.8086 203.04C59.5631 201.731 58.9905 200.503 58.6632 200.258C57.7633 199.767 59.3177 196.658 60.4631 196.658C60.8722 196.658 62.9175 198.213 64.9628 200.094ZM168.375 215.066C168.457 216.375 168.538 217.93 168.457 218.42C168.293 220.22 162.566 222.02 145.876 225.293C143.176 225.865 138.758 227.174 136.14 228.32C131.886 230.12 130.577 230.283 124.686 229.792C119.778 229.383 115.687 229.711 108.733 230.938C103.579 231.838 99.1607 232.41 98.9153 232.165C98.179 231.429 102.106 228.565 103.824 228.565C104.724 228.565 106.769 227.993 108.487 227.256C111.269 226.111 119.614 223.738 135.24 219.566C138.431 218.748 145.958 216.621 152.012 214.739C158.066 212.939 163.793 211.384 164.693 211.139C166.902 210.73 168.211 212.121 168.375 215.066ZM167.884 225.456C168.047 226.029 168.538 227.829 169.111 229.383C169.602 230.938 171.32 238.465 172.874 246.155C177.538 269.472 178.11 271.763 183.019 286.571C188.501 303.097 190.137 309.397 189.155 310.378C188.337 311.115 180.565 310.051 178.438 308.824C177.374 308.251 176.965 306.942 176.801 303.67C176.556 295.57 175.329 288.371 173.938 286.98C172.956 285.998 172.793 285.016 173.283 283.38C173.856 281.498 173.529 280.517 171.974 278.308C170.338 276.099 170.093 275.035 170.502 272.172C170.993 268.981 170.747 268.49 168.375 266.199C166.166 264.154 165.838 263.418 166.329 261.291C166.738 259.409 166.493 258.263 165.429 257.118C164.366 255.973 164.039 254.418 164.202 251.473C164.284 248.855 163.875 246.728 163.057 245.582C162.402 244.601 161.83 242.719 161.83 241.41C161.83 240.183 161.257 237.81 160.602 236.174C159.293 233.065 158.966 228.729 160.03 227.256C161.666 224.802 167.393 223.493 167.884 225.456ZM155.612 229.874C155.857 230.611 156.348 233.638 156.594 236.747C157.33 244.519 157.657 244.437 138.513 239.937C131.477 238.301 128.204 237.974 115.605 237.974C101.451 237.974 100.797 238.056 99.0789 239.774C97.279 241.574 95.1519 241.737 90.8976 240.346C88.9341 239.774 89.834 237.81 92.9429 235.601C96.2973 233.31 98.0153 232.983 99.4062 234.374C100.142 235.11 102.679 235.028 109.469 234.292C125.096 232.41 145.303 234.947 150.13 239.365C152.012 241.083 153.894 240.755 153.157 238.792C152.83 238.137 150.621 236.092 148.085 234.292L143.503 231.101L146.367 229.874C150.13 228.156 154.957 228.156 155.612 229.874ZM63.4902 239.119C65.1264 240.183 62.672 244.437 59.8086 245.582C51.3 249.019 29.7013 250.982 26.347 248.609C24.0562 247.055 22.2563 242.637 23.3199 241.574C23.8108 241.083 31.5012 240.346 40.337 239.937C49.2547 239.528 56.7815 239.037 56.9451 238.792C57.5996 238.137 62.3448 238.383 63.4902 239.119ZM132.868 243.537C137.858 245.255 142.767 246.564 143.667 246.564C146.203 246.564 145.876 248.037 143.258 249.1C140.722 250.164 133.85 249.346 120.923 246.646C116.669 245.828 111.515 244.846 109.469 244.519C104.479 243.782 102.924 243.292 102.924 242.473C102.924 240.919 107.915 240.101 115.605 240.346C122.396 240.51 125.341 241.083 132.868 243.537ZM90.6522 243.292C90.6522 243.701 92.5339 244.601 94.7428 245.337C100.715 247.3 101.697 249.346 104.969 266.199C106.933 276.344 108.733 284.198 109.551 286.407C110.615 289.271 110.451 290.743 108.978 290.743C107.26 290.743 105.951 287.307 101.779 270.863C97.9335 256.054 95.97 251.064 92.452 247.137C88.6068 243.046 86.5615 244.846 90.1613 249.1C92.6157 251.964 96.87 263.254 100.47 276.344C101.942 281.744 103.66 287.143 104.315 288.371C105.951 291.643 110.615 295.897 116.996 299.906C120.105 301.87 122.559 303.997 122.559 304.733C122.559 305.715 120.187 306.697 113.396 308.66C108.324 310.133 100.879 312.342 96.7881 313.651C87.2978 316.596 75.6803 319.378 72.5714 319.378C69.7898 319.378 69.4625 318.723 67.3354 309.56C66.5991 306.206 65.2901 301.215 64.5537 298.434C63.1629 293.525 63.1629 293.279 65.2901 280.435C67.499 267.508 70.2807 256.218 72.326 252.291C73.7986 249.428 77.562 245.419 80.0164 244.11C83.7798 242.064 90.6522 241.574 90.6522 243.292ZM158.966 246.973C161.175 249.1 161.584 251.473 160.03 253.927C159.212 255.155 159.293 255.727 160.521 257.118C161.666 258.345 161.911 259.572 161.584 262.027C161.257 264.727 161.502 265.463 163.548 267.263C165.511 268.899 165.92 269.963 165.92 272.908C165.92 274.79 166.493 277.49 167.147 278.799C167.802 280.026 168.375 282.316 168.375 283.707C168.375 285.098 169.111 287.798 170.011 289.516C170.993 291.316 171.565 293.525 171.32 294.343C171.075 295.243 171.647 297.697 172.547 299.825C175.083 305.551 174.511 306.779 169.602 306.451C167.311 306.37 163.63 305.715 161.257 305.061C158.966 304.406 155.366 303.833 153.321 303.833C147.676 303.833 148.412 301.87 154.794 299.743C162.975 297.043 162.893 297.206 161.83 288.862C160.848 280.68 155.366 261.209 152.339 255.155C150.212 250.737 149.803 247.464 151.358 245.91C152.994 244.273 156.839 244.764 158.966 246.973ZM115.769 249.918C131.641 255.564 134.831 256.054 145.549 254.255C149.149 253.682 149.476 254.091 150.13 259.818C150.539 264.318 152.83 272.663 157.084 285.671C159.457 292.952 159.457 293.361 158.066 294.916C157.33 295.734 156.266 296.47 155.775 296.47C155.285 296.47 152.012 297.534 148.494 298.925C142.194 301.297 142.031 301.379 137.04 300.234C134.259 299.579 129.104 298.434 125.586 297.616C115.769 295.488 114.051 293.198 110.778 277.244C108.078 264.236 106.769 259.163 104.888 254.009C103.824 251.146 103.17 248.446 103.415 248.119C104.233 246.728 108.569 247.382 115.769 249.918ZM57.7633 254.5C57.436 258.263 55.7997 258.918 55.0634 255.645C54.4907 252.782 54.9816 251.473 56.7815 251.473C57.6814 251.473 57.9269 252.209 57.7633 254.5ZM33.6284 254.009C37.5554 255.073 38.9462 257.282 39.4371 263.254C39.6825 266.69 40.337 268.572 41.5642 269.881C43.1187 271.517 43.2823 272.335 42.7914 275.935C42.3006 279.862 42.3824 280.189 44.9186 282.562C47.6184 285.016 47.6184 285.016 46.5548 288.862C45.4095 293.443 42.3824 299.088 40.9916 299.497C40.4189 299.743 39.7644 298.843 39.5189 297.534C39.1917 296.307 37.719 290.661 36.0828 285.016C31.2558 267.754 27.8196 254.009 28.3105 253.6C28.965 252.946 30.1104 253.027 33.6284 254.009ZM49.4183 253.764C50.7273 254.664 53.8362 262.6 53.8362 265.218C53.8362 268.163 50.8091 277.653 49.3365 279.208C48.4366 280.108 48.1093 279.78 47.4548 277.571C46.9639 276.017 46.3912 273.153 46.1458 271.108C45.6549 266.608 43.6096 257.691 42.7914 256.3C41.4824 254.255 47.0457 252.127 49.4183 253.764ZM62.0175 300.888C62.0175 304.079 64.881 315.369 66.6809 318.969L68.2353 322.241L72.6533 322.078C77.3166 321.832 86.3979 320.114 93.5156 318.151C100.224 316.269 116.832 311.278 123.541 309.069C130.577 306.86 131.15 306.86 140.558 310.542C149.394 314.06 149.639 314.551 143.831 316.433C139.249 317.905 138.84 317.905 137.449 316.678C135.404 314.878 134.913 314.878 132.622 317.414C131.231 318.969 130.004 319.46 128.041 319.296C124.114 318.969 117.078 321.832 113.069 325.35L109.551 328.459L106.606 325.841L103.742 323.305L100.47 325.514C98.0972 327.15 96.7063 327.559 94.9883 327.232C93.2702 326.823 91.9612 327.232 89.834 328.786C87.7887 330.341 86.0706 330.832 82.9617 330.832C80.5891 330.832 78.1347 331.404 77.2348 332.059C75.1077 333.613 71.4261 333.613 68.9717 331.977C67.499 330.995 66.6809 330.914 65.3719 331.568C62.0175 333.368 61.0358 332.795 61.6085 329.195C62.0994 326.25 61.8539 325.596 60.054 323.714C57.6814 321.423 57.436 319.705 58.9086 316.514C59.7268 314.715 59.5631 314.142 57.6814 312.178C55.0634 309.397 55.0634 309.397 57.2724 304.733C60.1358 298.597 62.0175 297.043 62.0175 300.888Z" fill="#3D332F"></path><path d="M211.736 120.571C211.736 121.635 213.372 122.371 222.78 125.726C229.244 128.016 253.542 135.052 257.06 135.625C257.469 135.625 257.878 135.298 258.124 134.725C258.942 132.516 245.279 127.525 224.989 122.617C212.063 119.426 211.736 119.426 211.736 120.571Z" fill="#3D332F"></path><path d="M272.932 138.735C273.504 139.471 275.468 140.289 277.35 140.535C281.359 141.189 282.34 141.516 311.957 151.252C339.855 160.334 348.118 162.788 348.936 161.97C351.963 158.943 294.53 139.798 276.941 137.999C272.441 137.508 271.95 137.589 272.932 138.735Z" fill="#3D332F"></path></svg> 