<?xml version="1.0" encoding="UTF-8"?> <svg xmlns="http://www.w3.org/2000/svg" width="1598" height="230" viewBox="0 0 1598 230" fill="none"><path d="M648 0.0976562C649.458 0.070652 650.917 0.0512584 652.375 0.0351562C653.187 0.0235547 653.999 0.0119531 654.836 0C657 0.0976562 657 0.0976562 659 1.09766C661.889 1.00827 664.744 0.863608 667.625 0.660156C668.427 0.607949 669.229 0.555742 670.055 0.501953C672.037 0.372173 674.018 0.235559 676 0.0976562C676 0.757656 676 1.41766 676 2.09766C678.395 2.43511 680.791 2.76774 683.188 3.09766C683.861 3.19305 684.535 3.28844 685.229 3.38672C688.146 3.78523 690.935 4.09924 693.883 4.02734C694.581 4.05055 695.28 4.07375 696 4.09766C696.835 5.14953 696.835 5.14953 697.688 6.22266C701.539 11.0114 707.189 14.1605 713 16.0977C723.83 16.7295 734.641 15.7704 745.422 14.8093C766.849 12.9639 766.849 12.9639 774 16.0977C774.33 17.0877 774.66 18.0777 775 19.0977C773 21.0977 773 21.0977 770.898 21.2227C770.066 21.1814 769.233 21.1402 768.375 21.0977C764.31 21.0102 760.991 21.4419 757.105 22.5647C750.196 24.314 743.016 24.2315 735.938 24.1602C735.072 24.1556 734.206 24.1511 733.314 24.1465C731.21 24.1349 729.105 24.1169 727 24.0977C727 24.7577 727 25.4177 727 26.0977C728.98 26.4277 730.96 26.7577 733 27.0977C733.33 28.0877 733.66 29.0777 734 30.0977C734.701 30.2008 735.402 30.3039 736.125 30.4102C740.678 31.4988 744.271 33.6022 748.125 36.2227C750.733 38.1466 750.733 38.1466 753 38.5977C755 39.0977 755 39.0977 757.875 41.0352C760.814 43.1827 760.814 43.1827 763.812 43.9727C768.977 45.7953 774.248 48.7573 777.57 53.1953C779.73 56.0693 782.73 56.9003 786 58.0977C786.915 58.4496 786.915 58.4496 787.848 58.8086C788.475 59.0484 789.103 59.2881 789.75 59.5352C790.744 59.9161 790.744 59.9161 791.758 60.3047C793.399 60.885 795.065 61.3936 796.742 61.8594C802.17 63.4847 805.148 64.5827 807.938 69.6602C809.703 72.8272 810.506 73.8981 813.922 75.2773C816.032 75.7671 818.157 76.1998 820.293 76.5625C823 77.0977 823 77.0977 826 79.0977C829.56 78.8151 832.818 78.4261 836.25 77.4727C838.433 77.0048 839.853 77.561 842 78.0977C843.336 77.7752 844.669 77.4399 846 77.0977C848.333 77.0588 850.667 77.0528 853 77.0977C853.062 76.3964 853.124 75.6952 853.188 74.9727C854.585 70.0284 857.8 66.8979 862 64.0977C868.113 63.5707 873.432 64.4292 879 67.0977C880.029 68.0678 881.034 69.065 882 70.0977C885.064 71.6296 887.798 71.0093 891.188 70.7852C892.48 70.7065 893.773 70.6279 895.105 70.5469C902.198 69.8016 902.198 69.8016 908 66.0977C912.849 65.8552 917.225 66.1427 922 67.0977C922 66.4377 922 65.7777 922 65.0977C928.249 62.8722 932.378 62.0981 939 63.0977C941.34 62.1125 943.673 61.113 946 60.0977C949.438 60.4102 949.438 60.4102 952 61.0977C952 58.4577 952 55.8177 952 53.0977C958.227 51.0643 963.489 50.6815 970 51.7227C974.084 52.2688 977.142 51.6557 981 50.0977C983.596 47.9223 985.114 45.9274 987 43.0977C990.23 42.8398 990.23 42.8398 994.188 42.9727C999.251 43.1241 1004.04 43.2397 1009 42.0977C1010.84 38.7543 1010.84 38.7543 1012 35.0977C1013.38 33.0977 1013.38 33.0977 1015 32.0977C1017.69 32.4102 1017.69 32.4102 1020 33.0977C1019.67 34.7477 1019.34 36.3977 1019 38.0977C1020.92 37.9831 1022.83 37.8556 1024.75 37.7227C1026.35 37.6182 1026.35 37.6182 1027.98 37.5117C1030.84 37.1193 1032.51 36.4472 1035 35.0977C1037.77 34.9248 1040.14 34.8446 1042.81 35.6328C1045.65 36.2366 1048.11 35.9849 1051 35.7227C1052.14 35.6221 1053.29 35.5216 1054.46 35.418C1055.63 35.3123 1056.8 35.2066 1058 35.0977C1061.15 34.8575 1064.29 34.618 1067.44 34.3789C1069.72 34.1287 1071.8 33.7187 1074 33.0977C1074.33 34.0877 1074.66 35.0777 1075 36.0977C1076.05 35.9945 1077.1 35.8914 1078.19 35.7852C1082.37 35.7483 1085.42 36.9633 1089.25 38.5977C1094.86 40.9237 1099.22 41.5226 1105.25 41.0781C1108 41.0977 1108 41.0977 1110.91 42.0742C1114.45 43.2477 1117.33 43.3298 1121.06 43.2852C1122.25 43.2787 1123.44 43.2723 1124.66 43.2656C1127.94 43.1824 1127.94 43.1824 1130.87 42.5234C1131.57 42.3829 1132.28 42.2424 1133 42.0977C1133.33 42.4277 1133.66 42.7577 1134 43.0977C1139.56 43.6893 1143.31 42.3684 1148.39 40.168C1150.91 39.1348 1153.38 38.376 1156 37.6602C1159.66 36.6215 1162.83 35.2467 1166.19 33.4727C1173 29.938 1179.48 29.9443 1187 30.0977C1188.06 31.9727 1188.06 31.9727 1189 34.0977C1187.38 37.345 1184.25 37.7992 1181 39.0977C1181.49 43.4691 1182.84 45.1385 1186 48.0977C1186 48.7577 1186 49.4177 1186 50.0977C1187.49 49.8502 1187.49 49.8502 1189 49.5977C1195.61 48.6812 1201.26 49.0037 1207.7 50.5938C1210.06 51.11 1212.35 51.3786 1214.75 51.5977C1218.17 51.9297 1220.85 52.696 1224 54.0977C1225.66 54.4664 1227.32 54.8105 1229 55.0977C1229.33 56.0877 1229.66 57.0777 1230 58.0977C1246.52 59.325 1246.52 59.325 1262.04 56.0391C1264.6 54.8097 1266.2 55.0645 1269 55.4102C1269.96 55.5184 1270.91 55.6267 1271.89 55.7383C1272.92 55.8569 1273.94 55.9755 1275 56.0977C1277.23 56.293 1279.46 56.4807 1281.69 56.6602C1282.7 56.7439 1283.72 56.8277 1284.76 56.9141C1285.5 56.9746 1286.24 57.0352 1287 57.0977C1287 56.4377 1287 55.7777 1287 55.0977C1288.79 55.438 1288.79 55.438 1290.62 55.7852C1294.93 56.3555 1297.19 55.1748 1301 53.0977C1303.25 53.5352 1303.25 53.5352 1305 54.0977C1305.66 53.4377 1306.32 52.7777 1307 52.0977C1310.62 52.4727 1310.62 52.4727 1314 53.0977C1314.33 54.4177 1314.66 55.7377 1315 57.0977C1315.87 57.0564 1316.73 57.0152 1317.62 56.9727C1321 57.0977 1321 57.0977 1323.88 58.0977C1327.79 59.3504 1330.9 59.2389 1335 59.0977C1335.66 61.4077 1336.32 63.7177 1337 66.0977C1338.26 65.747 1339.52 65.3964 1340.81 65.0352C1343.95 64.1616 1344.78 64.0253 1348 65.0977C1350.1 65.2996 1352.21 65.4616 1354.31 65.5977C1357.69 65.8172 1360.93 66.0845 1364.26 66.6914C1367.52 67.1751 1369 66.3286 1372 65.0977C1374.81 65.4727 1374.81 65.4727 1377 66.0977C1377 68.4077 1377 70.7177 1377 73.0977C1379.56 72.6189 1382.13 72.1396 1384.69 71.6602C1385.77 71.4581 1385.77 71.4581 1386.87 71.252C1387.58 71.1198 1388.28 70.9877 1389.01 70.8516C1389.7 70.7237 1390.39 70.5958 1391.11 70.4641C1392.65 70.1658 1394.18 69.8185 1395.71 69.457C1399.94 68.794 1403.96 69.8261 1408 71.0977C1409.68 72.4109 1411.35 73.7438 1413 75.0977C1415.96 76.0045 1418.95 76.5919 1422 77.0977C1422 76.4377 1422 75.7777 1422 75.0977C1422.71 74.9765 1423.42 74.8553 1424.15 74.7305C1425.07 74.5629 1425.99 74.3953 1426.94 74.2227C1427.85 74.0602 1428.77 73.8978 1429.71 73.7305C1430.47 73.5216 1431.22 73.3128 1432 73.0977C1432.33 72.4377 1432.66 71.7777 1433 71.0977C1434.49 70.6027 1434.49 70.6027 1436 70.0977C1436.62 69.4583 1437.24 68.8189 1437.88 68.1602C1440.87 65.2555 1443.54 64.146 1447.72 64.0078C1448.64 64.0581 1449.55 64.1084 1450.5 64.1602C1455.09 64.2706 1457.12 63.5755 1461 61.0977C1464.62 61.0977 1464.62 61.0977 1468 62.0977C1468.41 62.9433 1468.82 63.7889 1469.25 64.6602C1469.83 65.4645 1470.4 66.2689 1471 67.0977C1475.55 67.8397 1480.1 67.8592 1484.41 66.1289C1487.61 64.8525 1490.58 64.5408 1494 64.1602C1502.67 63.1103 1511.23 61.6328 1519.38 58.4102C1528.51 55.1971 1539.56 56.8536 1549 58.0977C1549 57.4377 1549 56.7777 1549 56.0977C1553.29 56.0977 1557.58 56.0977 1562 56.0977C1562 55.4377 1562 54.7777 1562 54.0977C1563.26 53.8076 1563.26 53.8076 1564.55 53.5117C1566.2 53.1211 1566.2 53.1211 1567.88 52.7227C1568.97 52.4674 1570.06 52.2122 1571.18 51.9492C1574.1 51.3086 1574.1 51.3086 1576 49.0977C1578.66 48.5325 1581.29 48.3598 1584 48.0977C1583.67 47.1077 1583.34 46.1177 1583 45.0977C1582.93 43.5365 1582.91 41.9726 1582.94 40.4102C1582.95 39.6019 1582.96 38.7937 1582.96 37.9609C1582.98 37.3461 1582.99 36.7312 1583 36.0977C1586.94 34.9308 1589.95 35.4461 1594 36.0977C1595.32 36.0977 1596.64 36.0977 1598 36.0977C1598 68.7677 1598 101.438 1598 135.098C1593.55 136.583 1593.55 136.583 1589 138.098C1588.34 138.428 1587.68 138.758 1587 139.098C1584.75 139.196 1582.5 139.227 1580.25 139.223C1579.04 139.225 1577.83 139.228 1576.58 139.23C1573.28 139.108 1570.25 138.649 1567 138.098C1559.59 137.72 1552.58 137.934 1545.34 139.586C1525.38 143.958 1505.23 140.719 1486.43 133.656C1476.37 129.959 1466.7 131.05 1456.32 132.386C1451.44 132.995 1446.72 133.243 1441.79 132.973C1439.74 132.92 1439.74 132.92 1438 135.098C1435.06 135.223 1435.06 135.223 1431.44 135.098C1425.59 135.008 1420.61 135.554 1415 137.098C1411.49 137.923 1409.69 138.339 1406.28 137.152C1397.37 134.285 1386.76 135.005 1377.44 134.91C1376.7 134.897 1375.96 134.884 1375.2 134.871C1369.92 134.862 1364.43 135.048 1360.21 138.605C1359.79 139.139 1359.37 139.673 1358.94 140.223C1356.65 142.739 1356.32 143.054 1352.75 143.535C1350 143.098 1350 143.098 1348 142.098C1347.67 143.748 1347.34 145.398 1347 147.098C1337.4 149.266 1330.02 146.165 1321.1 142.83C1319.09 142.127 1317.08 141.595 1315.01 141.086C1313.52 140.597 1313.52 140.597 1312 140.098C1311.67 139.108 1311.34 138.118 1311 137.098C1308.7 135.619 1308.7 135.619 1305.88 134.41C1304.48 133.755 1304.48 133.755 1303.05 133.086C1300.03 131.934 1300.03 131.934 1296.84 132.105C1291.59 132.095 1286.83 130.876 1281.75 129.66C1280.76 129.43 1279.76 129.2 1278.74 128.963C1275.11 128.114 1271.54 127.278 1268 126.098C1263.67 125.651 1261.57 125.755 1257.8 128.031C1256.79 128.858 1255.79 129.684 1254.75 130.535C1249.38 134.893 1246.78 136.212 1239.88 135.91C1234.46 135.856 1230.96 136.585 1226.21 139.074C1222.34 140.865 1218.19 141.433 1214 142.098C1213.91 142.725 1213.81 143.353 1213.71 144C1213.36 145.038 1213.36 145.038 1213 146.098C1210.3 147.326 1207.82 148.238 1205 149.098C1204.17 149.379 1203.34 149.66 1202.49 149.949C1196.51 151.907 1191.28 153.239 1185.12 151.098C1179.76 149.381 1174.4 149.597 1169 151.098C1162.64 152.472 1156.62 153.243 1150.11 152.906C1148.82 152.849 1147.53 152.792 1146.21 152.732C1143.54 152.604 1140.87 152.466 1138.2 152.326C1126.11 151.415 1126.11 151.415 1115.09 155.51C1114 156.516 1112.92 157.538 1111.86 158.574C1108.98 160.937 1105.72 162.004 1102.23 163.238C1099.77 164.092 1099.77 164.092 1097 166.098C1095.87 166.221 1094.73 166.345 1093.56 166.473C1089.99 166.739 1089.99 166.739 1088.19 168.973C1082.1 174.885 1071.59 174.784 1063.56 175.9C1051.32 177.347 1051.32 177.347 1041 183.098C1038.97 183.66 1038.97 183.66 1036.5 184.098C1035.6 184.261 1034.7 184.425 1033.78 184.594C1032.4 184.843 1032.4 184.843 1031 185.098C1029.35 185.451 1027.71 185.805 1026.06 186.16C1022.42 186.913 1018.9 187.259 1015.19 187.473C1010.47 187.816 1008.63 189.069 1005 192.098C1003.93 191.933 1002.86 191.768 1001.75 191.598C996.08 190.842 991.993 193.371 987.156 196.161C984.681 197.236 983.073 197.287 980.387 197.188C979.48 197.166 978.573 197.144 977.639 197.121C976.665 197.093 975.691 197.064 974.688 197.035C965.337 196.887 956.406 197.605 947.162 198.961C941.533 199.784 935.995 200.361 930.312 200.598C924.449 200.882 919.177 201.814 913.551 203.477C910.938 204.113 908.678 204.209 906 204.098C906 203.438 906 202.778 906 202.098C896.255 203.082 896.255 203.082 887.062 206.223C880.762 209.042 873.767 208.825 867 208.098C866.34 207.438 865.68 206.778 865 206.098C860.902 206.258 857.856 207.011 854.375 209.098C851.372 210.877 849.408 211.685 846 212.098C845.959 212.716 845.918 213.335 845.875 213.973C845.586 214.674 845.298 215.375 845 216.098C844.031 216.407 843.061 216.716 842.062 217.035C841.052 217.386 840.041 217.736 839 218.098C838.732 218.861 838.464 219.624 838.188 220.41C836.246 224.805 832.316 226.307 828 228.098C824.552 228.822 821.205 228.982 817.688 229.035C816.768 229.063 815.848 229.091 814.9 229.12C806.924 229.28 799.465 228.584 791.867 226.055C786.882 224.821 782.117 224.718 777 224.598C768.917 224.343 761.168 223.665 753.176 222.43C749.304 222.025 745.836 222.451 742.004 223C739.02 223.145 737.388 221.776 735 220.098C733.824 219.933 732.649 219.768 731.438 219.598C727.82 219.071 726.722 218.366 724 216.098C722.352 215.386 720.688 214.707 719 214.098C719 213.438 719 212.778 719 212.098C718.107 212.121 718.107 212.121 717.196 212.145C714.506 212.208 711.816 212.247 709.125 212.285C708.188 212.31 707.251 212.335 706.285 212.361C704.941 212.376 704.941 212.376 703.57 212.391C702.329 212.414 702.329 212.414 701.063 212.438C700.382 212.326 699.701 212.213 699 212.098C698.34 211.108 697.68 210.118 697 209.098C694.361 208.523 694.361 208.523 692.352 208.348C689.237 208.017 686.156 207.52 683.062 207.035C681.919 206.859 680.776 206.682 679.598 206.5C678.74 206.367 677.883 206.234 677 206.098C676.702 205.144 676.404 204.19 676.098 203.207C674.841 199.648 674.317 198.799 671 197.098C668.649 196.553 666.31 196.097 663.926 195.723C663.29 195.516 662.655 195.31 662 195.098C661.67 194.108 661.34 193.118 661 192.098C659.979 192.345 659.979 192.345 658.938 192.598C655.584 193.169 652.396 193.164 649 193.098C648.34 191.778 647.68 190.458 647 189.098C644.03 189.428 641.06 189.758 638 190.098C637.67 189.438 637.34 188.778 637 188.098C631.637 187.651 628.611 188.463 623.992 191.223C621.443 192.342 619.761 192.442 617 192.098C614.973 190.785 614.973 190.785 613.062 189.098C609.443 186.165 607.66 185.994 603 186.098C602.278 185.335 601.556 184.571 600.812 183.785C597.289 180.419 594.359 179.881 589.703 178.785C587 178.098 587 178.098 583.375 176.473C580.544 175.319 578.905 174.872 575.973 174.605C570.648 174.074 565.36 173.35 560.062 172.598C558.646 172.402 558.646 172.402 557.201 172.203C556.301 172.076 555.4 171.948 554.473 171.816C553.661 171.702 552.849 171.588 552.012 171.471C550 171.098 550 171.098 548 170.098C548 169.438 548 168.778 548 168.098C546.396 167.952 544.792 167.806 543.188 167.66C542.188 167.566 541.189 167.472 540.16 167.375C538.108 167.195 536.053 167.04 533.996 166.914C528.622 166.556 525.627 165.874 521 163.098C518.138 162.725 515.309 162.535 512.426 162.406C510 162.098 510 162.098 508 160.098C508 159.108 508 158.118 508 157.098C505.414 155.65 503.225 154.901 500.312 154.16C499.219 153.81 498.126 153.459 497 153.098C496.67 152.108 496.34 151.118 496 150.098C493.813 149.928 491.625 149.762 489.438 149.598C488.219 149.505 487.001 149.412 485.746 149.316C481.996 149.035 481.996 149.035 478.223 149.254C474.555 149.076 474.32 148.65 472 146.098C469.695 145.809 469.695 145.809 467.125 146.035C460.622 146.226 454.365 145.431 448 144.098C447.67 143.768 447.34 143.438 447 143.098C438.685 141.874 433.057 143.308 426.227 148.141C423.386 150.637 422.134 152.52 421 156.098C419.35 155.768 417.7 155.438 416 155.098C416.33 152.788 416.66 150.478 417 148.098C413.562 148.279 413.562 148.279 410 149.098C409.301 150.414 408.633 151.748 408 153.098C403.623 154.291 398.17 155.183 394 153.098C393.375 150.535 393.375 150.535 393 148.098C392.274 148.073 391.548 148.048 390.8 148.022C387.492 147.905 384.183 147.783 380.875 147.66C379.733 147.621 378.591 147.582 377.414 147.541C376.305 147.499 375.197 147.457 374.055 147.414C372.531 147.359 372.531 147.359 370.976 147.303C368 147.098 368 147.098 364.822 146.543C361.37 145.998 358.977 146.604 355.625 147.535C354.565 147.823 353.506 148.11 352.414 148.406C351.617 148.634 350.821 148.863 350 149.098C349.67 150.418 349.34 151.738 349 153.098C344.966 153.148 340.931 153.184 336.897 153.208C335.53 153.217 334.164 153.231 332.798 153.249C324.646 153.35 316.899 153.02 308.874 151.531C305.95 151.017 305.95 151.017 302.756 151.1C300 151.098 300 151.098 298.016 150.074C295.12 148.671 292.928 149.14 289.75 149.473C285.715 149.856 281.853 150.146 277.805 149.961C268.997 149.373 268.997 149.373 261.188 153.035C260.624 153.58 260.061 154.126 259.48 154.688C256.359 157.66 252.862 157.174 248.812 157.098C243.752 157.058 238.986 157.235 234 158.098C233.67 158.428 233.34 158.758 233 159.098C230.672 159.465 228.338 159.8 226 160.098C225.01 163.068 225.01 163.068 224 166.098C223.092 166.015 222.185 165.933 221.25 165.848C217.305 166.151 216.529 167.207 214 170.098C213.34 170.098 212.68 170.098 212 170.098C210.375 171.556 210.375 171.556 209 173.098C207.732 172.653 207.732 172.653 206.438 172.199C202.977 171.09 199.55 170.243 196 169.473C194.824 169.212 193.649 168.952 192.438 168.684C189.209 168.133 186.266 167.988 183 168.098C182.658 169.064 182.317 170.031 181.965 171.027C180 174.098 180 174.098 176.629 175.043C175.276 175.14 173.919 175.198 172.562 175.223C171.853 175.251 171.143 175.28 170.411 175.31C163.236 175.422 156.285 173.8 150.16 169.938C147.478 168.895 145.199 169.128 142.365 169.329C133.034 169.945 127.166 167.889 119.273 163.078C115.587 160.848 112.076 159.429 108 158.098C108 157.438 108 156.778 108 156.098C105.583 156.044 103.167 156.004 100.75 155.973C99.7271 155.948 99.7271 155.948 98.6836 155.922C94.9392 155.886 92.1765 156.018 89 158.098C87.515 157.108 87.515 157.108 86 156.098C83.6761 155.704 81.3421 155.363 79 155.098C78.34 157.408 77.68 159.718 77 162.098C75.68 162.098 74.36 162.098 73 162.098C73 161.108 73 160.118 73 159.098C72.34 159.098 71.68 159.098 71 159.098C70.8556 159.861 70.7113 160.624 70.5625 161.41C68.1235 165.605 64.4912 165.855 60 167.098C58.5612 167.636 57.1237 168.178 55.6875 168.723C48.9318 170.944 41.977 171.199 34.9102 171.012C24.2863 170.745 15.4421 171.842 5.76172 176.734C3 178.098 3 178.098 1 178.098C0.505 179.088 0.505 179.088 0 180.098C0 154.358 0 128.618 0 102.098C0.33 102.758 0.66 103.418 1 104.098C1.78375 103.912 2.5675 103.726 3.375 103.535C6 103.098 6 103.098 8 104.098C8.26812 103.53 8.53625 102.963 8.8125 102.379C10.4774 99.1805 12.5272 96.288 14.5625 93.3164C16.0326 91.1626 16.0326 91.1626 17.0039 88.9219C18.3625 86.4337 20.2118 85.6949 22.7891 84.6836C26.3626 83.7365 29.9621 83.5739 33.6445 83.4062C36.1874 83.3164 36.1874 83.3164 38 81.0977C42.691 79.3836 46.1605 78.6346 51 80.0977C53 83.0977 53 83.0977 52.8125 86.1602C52 89.0977 52 89.0977 49 91.0977C48.01 91.0977 47.02 91.0977 46 91.0977C45.34 92.7477 44.68 94.3977 44 96.0977C44.66 96.0977 45.32 96.0977 46 96.0977C46 96.7577 46 97.4177 46 98.0977C49.7349 97.5997 51.8124 97.2227 55 95.0977C56.5469 94.8811 56.5469 94.8811 58.125 94.6602C61.2447 94.2073 63.3767 93.6371 66.25 92.5352C71.4881 90.6715 76.5032 90.8202 82 91.0977C82.495 89.6127 82.495 89.6127 83 88.0977C83.66 87.7677 84.32 87.4377 85 87.0977C85.5775 85.9633 86.155 84.8289 86.75 83.6602C88.2935 80.8909 88.8275 80.1878 91.75 78.6602C95.6068 77.9926 99.0894 77.9628 103 78.0977C103.495 76.6127 103.495 76.6127 104 75.0977C106.904 73.1599 109.009 72.9284 112.438 73.1602C116.46 73.2529 118.826 72.7757 122 70.0977C122.961 67.2155 123.106 65.3992 123.062 62.4102C123.053 61.6019 123.044 60.7937 123.035 59.9609C123.024 59.3461 123.012 58.7312 123 58.0977C125.688 57.3477 125.688 57.3477 129 57.0977C131.875 58.8477 131.875 58.8477 134 61.0977C134 62.0877 134 63.0777 134 64.0977C135.751 63.983 137.501 63.8555 139.25 63.7227C140.225 63.653 141.199 63.5834 142.203 63.5117C144.953 63.1047 146.556 62.3319 149 61.0977C156.714 59.7796 164.274 60.1091 172 61.0977C172.33 62.0877 172.66 63.0777 173 64.0977C177.655 64.9123 182.31 65.5316 187 66.0977C187 65.4377 187 64.7777 187 64.0977C189.97 64.4277 192.94 64.7577 196 65.0977C196.33 63.7777 196.66 62.4577 197 61.0977C197.773 61.5308 197.773 61.5308 198.562 61.9727C202.6 63.8363 206.727 64.9194 211.125 65.5352C214 66.0977 214 66.0977 216.332 67.667C219.584 69.4106 220.98 69.2198 224.562 68.5508C226.129 68.2723 226.129 68.2723 227.727 67.9883C228.807 67.7769 229.887 67.5655 231 67.3477C232.62 67.0538 232.62 67.0538 234.273 66.7539C237.187 66.2216 240.094 65.6681 243 65.0977C243.92 64.9568 244.841 64.816 245.789 64.6709C246.519 64.4817 247.248 64.2926 248 64.0977C248.69 62.4407 249.353 60.7721 250 59.0977C251.883 57.2245 253.878 55.7122 256 54.0977C258.255 55.1447 259.915 56.0128 261.688 57.7852C265.335 59.8556 269.003 58.9732 273 58.0977C273.33 57.7677 273.66 57.4377 274 57.0977C277.095 56.8197 280.206 56.8659 283.312 56.8477C284.181 56.827 285.049 56.8064 285.943 56.7852C290.694 56.756 293.353 56.7856 297 60.0977C300.587 59.8459 303.593 59.2332 307 58.0977C308.426 55.7804 309.729 53.4942 311 51.0977C311.995 49.4279 312.993 47.7599 314 46.0977C314.66 46.4483 315.32 46.7989 316 47.1602C319.247 48.1747 321.496 47.9289 324.816 47.3828C327.836 46.9884 330.788 47.119 333.824 47.2578C336.08 47.2184 336.08 47.2184 338.25 46.0703C341.998 44.7446 345.428 45.1255 349.312 45.4727C350.053 45.5294 350.794 45.5861 351.557 45.6445C353.372 45.7851 355.186 45.9399 357 46.0977C357.66 44.7777 358.32 43.4577 359 42.0977C362.96 42.0977 366.92 42.0977 371 42.0977C371.66 40.7777 372.32 39.4577 373 38.0977C377.039 34.9305 381.274 32.4559 386.312 31.4102C389.996 32.3523 391.382 34.3582 394 37.0977C396.92 38.9226 399.936 40.5289 403 42.0977C403 41.4377 403 40.7777 403 40.0977C407.383 40.9195 411.679 41.9992 416 43.0977C416.33 41.4477 416.66 39.7977 417 38.0977C424.625 36.8477 424.625 36.8477 428 39.0977C428.464 40.0567 428.464 40.0567 428.938 41.0352C430.211 43.5077 431.786 44.4741 434 46.0977C434 46.7577 434 47.4177 434 48.0977C435.485 47.6027 435.485 47.6027 437 47.0977C440.716 47.1049 444.42 47.1725 448.133 47.3125C454.322 47.4256 459.101 46.623 463.938 42.4102C464.288 41.977 464.639 41.5439 465 41.0977C465.822 41.5308 466.645 41.9639 467.492 42.4102C474.674 45.9926 480.002 48.0205 488 47.0977C488.771 47.0396 489.542 46.9816 490.336 46.9219C497.519 46.2967 503.832 44.993 510 41.0977C511.052 40.7883 512.104 40.4789 513.188 40.1602C516.112 39.3992 516.112 39.3992 517.125 37.0977C517.414 36.4377 517.702 35.7777 518 35.0977C521.121 33.0731 523.461 32.9227 527.125 33.0977C529.693 33.2649 529.693 33.2649 532 33.0977C532.66 32.4377 533.32 31.7777 534 31.0977C536.135 31.1315 538.269 31.1694 540.404 31.229C543.194 31.0878 545.338 30.4466 547.98 29.5586C555.655 27.3671 563 28.2992 570.855 28.9473C577.284 29.5323 577.284 29.5323 583.082 27.2031C583.715 26.5083 584.348 25.8135 585 25.0977C588.312 23.8477 588.312 23.8477 591 23.0977C591 22.4377 591 21.7777 591 21.0977C591.639 20.6645 592.279 20.2314 592.938 19.7852C595.521 17.6716 595.494 16.3035 596 13.0977C598.761 11.7172 600.932 11.9773 604 12.0977C604.804 12.3658 605.609 12.6339 606.438 12.9102C609.534 13.1368 609.907 12.6028 612.25 10.7227C615.712 8.00696 618.21 7.58793 622.531 7.34375C626.302 6.9679 629.808 5.82291 633.422 4.71875C636.887 3.88387 639.758 3.47687 643 5.09766C644.32 5.09766 645.64 5.09766 647 5.09766C647.33 3.44766 647.66 1.79766 648 0.0976562Z" fill="#DDD3CA"></path></svg> 