<?xml version="1.0" encoding="UTF-8"?> <svg xmlns="http://www.w3.org/2000/svg" width="683" height="684" viewBox="0 0 683 684" fill="none"><path d="M375.002 25.002C375.002 25.002 452.785 32.073 551.779 131.068C650.772 230.063 657.845 307.845 657.845 307.845" stroke="#212121" stroke-width="50" stroke-linecap="round"></path><path d="M398.568 142.857C398.568 142.857 431.568 152.286 481.065 201.783C530.562 251.281 539.992 284.279 539.992 284.279" stroke="#212121" stroke-width="50" stroke-linecap="round"></path><path d="M446.484 476.459L461.668 460.476L425.414 426.042L410.231 442.026L446.484 476.459ZM511.624 453.746L575.308 490.402L600.251 447.069L536.568 410.412L511.624 453.746ZM587.598 566.399L540.244 616.252L576.498 650.686L623.851 600.832L587.598 566.399ZM511.754 632.226C463.921 636.949 339.111 632.919 203.639 490.292L167.387 524.726C315.031 680.169 455.871 687.986 516.665 681.986L511.754 632.226ZM203.639 490.292C74.4355 354.262 52.7628 239.521 50.0615 189.194L0.133502 191.873C3.44184 253.514 29.6145 379.679 167.387 524.726L203.639 490.292ZM249.484 269.055L259.045 258.99L222.792 224.556L213.231 234.621L249.484 269.055ZM266.555 133.673L224.523 74.2232L183.697 103.089L225.729 162.538L266.555 133.673ZM82.2565 61.4066L29.9365 116.49L66.1892 150.924L118.509 95.8409L82.2565 61.4066ZM231.358 251.838C213.231 234.621 213.209 234.645 213.185 234.67C213.177 234.678 213.154 234.703 213.138 234.72C213.106 234.754 213.074 234.788 213.041 234.823C212.976 234.894 212.908 234.968 212.838 235.045C212.698 235.198 212.55 235.365 212.394 235.544C212.082 235.903 211.739 236.313 211.373 236.776C210.64 237.702 209.811 238.84 208.942 240.198C207.198 242.924 205.307 246.513 203.705 251.013C200.449 260.166 198.674 272.286 200.891 287.421C205.248 317.159 224.734 357.149 275.645 410.749L311.898 376.316C264.311 326.212 252.588 295.356 250.363 280.173C249.29 272.848 250.38 268.988 250.812 267.776C251.054 267.095 251.213 266.905 251.057 267.148C250.982 267.265 250.832 267.486 250.58 267.805C250.454 267.964 250.303 268.148 250.121 268.357C250.031 268.461 249.932 268.571 249.826 268.688C249.773 268.746 249.718 268.806 249.661 268.867C249.633 268.898 249.604 268.929 249.574 268.96C249.56 268.976 249.537 269 249.53 269.007C249.507 269.031 249.484 269.055 231.358 251.838ZM275.645 410.749C326.408 464.192 364.745 485.202 393.995 489.952C409.005 492.389 421.154 490.442 430.354 486.816C434.851 485.042 438.408 482.959 441.078 481.066C442.411 480.119 443.521 479.222 444.415 478.439C444.865 478.046 445.258 477.679 445.601 477.346C445.774 477.182 445.934 477.022 446.081 476.876C446.154 476.802 446.224 476.729 446.291 476.659C446.324 476.626 446.358 476.592 446.391 476.559C446.408 476.542 446.431 476.516 446.438 476.509C446.461 476.482 446.485 476.459 428.358 459.242C410.231 442.026 410.254 442.002 410.278 441.979C410.284 441.969 410.308 441.946 410.321 441.929C410.351 441.899 410.381 441.869 410.411 441.839C410.471 441.779 410.528 441.719 410.581 441.662C410.694 441.552 410.801 441.446 410.901 441.349C411.101 441.156 411.284 440.989 411.444 440.849C411.761 440.569 411.998 440.389 412.151 440.282C412.464 440.059 412.431 440.136 412.008 440.302C411.364 440.556 408.334 441.626 402.011 440.599C388.591 438.419 359.638 426.576 311.898 376.316L275.645 410.749ZM224.523 74.2232C190.737 26.4372 123.129 18.3752 82.2565 61.4066L118.509 95.8409C135.937 77.4926 166.618 78.9339 183.697 103.089L224.523 74.2232ZM50.0615 189.194C49.3472 175.884 55.1428 162.554 66.1892 150.924L29.9365 116.49C12.0748 135.295 -1.50116 161.418 0.133502 191.873L50.0615 189.194ZM540.244 616.252C530.944 626.046 521.214 631.292 511.754 632.226L516.665 681.986C541.568 679.526 561.721 666.246 576.498 650.686L540.244 616.252ZM259.045 258.99C291.298 225.034 293.581 171.895 266.555 133.673L225.729 162.538C239.801 182.441 237.643 208.92 222.792 224.556L259.045 258.99ZM575.308 490.402C602.668 506.152 608.024 544.896 587.598 566.399L623.851 600.832C667.348 555.036 654.681 478.399 600.251 447.069L575.308 490.402ZM461.668 460.476C474.515 446.949 494.534 443.909 511.624 453.746L536.568 410.412C499.951 389.336 454.538 395.379 425.414 426.042L461.668 460.476Z" fill="#212121"></path></svg> 