<?xml version="1.0" encoding="UTF-8"?> <svg xmlns="http://www.w3.org/2000/svg" width="117" height="84" viewBox="0 0 117 84" fill="none"><path d="M113.885 19.1506L116.015 23.0544C115.681 24.346 116.015 25.9091 115.664 26.094C115.273 26.1998 113.63 25.2928 111.939 24.0983C110.249 22.9037 107.56 21.5888 105.97 21.178C102.791 20.3563 102.701 20.4708 102.421 25.7722C101.689 40.326 100.714 45.0345 96.6913 53.571C94.7382 57.6132 92.9955 61.7787 92.802 62.762C92.4015 64.312 91.8872 64.6613 88.7778 65.4424C86.3364 65.9827 85.1542 66.5728 85.2311 67.2127C85.375 68.7655 80.4224 71.7571 78.5486 71.2729C77.6401 71.0381 76.0069 71.0295 74.868 71.2174C72.1093 71.8135 70.2154 70.7041 69.6471 68.2149C69.4031 67.0495 69.0522 66.0633 68.8251 66.0046C68.5979 65.9459 66.798 67.7542 64.7845 69.9207C62.811 72.1665 59.1409 75.3517 56.7164 76.9986C52.3249 79.9285 42.3192 83.9566 40.6157 83.5165C39.5369 83.2377 39.3659 79.68 40.3004 76.0635C40.7677 74.2552 40.7842 73.0194 40.3232 72.6936C39.9758 72.3972 37.8516 72.8817 35.741 73.783C26.4599 77.5851 25.6951 77.7319 24.9866 75.5509C24.5723 74.3416 24.3451 74.2829 21.3561 75.3017C10.2715 79.0511 0.485704 80.587 0.0110806 78.6732C-0.273043 77.4286 5.15488 61.8147 7.038 58.5122C8.76422 55.5826 8.80756 55.1804 8.46644 52.7499C8.21894 50.8948 8.44238 49.0924 9.23018 46.7469C10.4653 43.1392 10.9896 42.5169 21.2548 32.5621C24.5674 29.3534 29.8134 23.8198 32.9089 20.2794C37.9779 14.4933 40.2888 12.817 39.0502 15.7349C38.2824 17.5344 39.6083 17.3259 41.141 15.3796C43.9927 11.8451 52.1513 6.99521 57.9725 5.33039C61.0418 4.47008 64.9025 3.12536 66.6224 2.32974C71.4148 0.19239 73.3186 -0.14238 78.8429 0.0450651C83.6358 0.250179 84.3739 0.440915 88.763 2.67737C94.2377 5.40101 96.93 7.4057 98.9345 10.1971C99.6996 11.2215 100.879 12.284 101.503 12.4454C102.128 12.6068 102.602 13.3495 102.629 14.1831C102.67 15.4336 102.977 15.6508 105.99 15.947C107.833 16.1691 108.854 16.2811 109.286 16.2018L113.885 19.1506ZM68.5709 27.8413C65.8424 28.7896 64.6036 30.5363 65.2152 32.6233C65.4858 33.4511 66.0571 34.2876 66.5114 34.405C67.3063 34.6104 70.9027 30.3039 71.3533 28.5602C71.7204 27.1395 71.0791 27.0426 68.5709 27.8413ZM53.838 25.5498C50.3446 26.645 49.8771 27.282 51.3203 28.9639C52.1989 30.0177 52.6631 29.862 56.3433 27.5751C58.6443 26.1718 60.7415 24.8536 61.0922 24.6687C62.4548 23.8496 56.8271 24.531 53.838 25.5498ZM80.1033 25.1721C79.9698 25.6887 80.2505 26.2435 80.7047 26.3609C81.6132 26.5957 82.0406 25.8794 81.5428 24.9929C81.1184 24.0566 80.3703 24.1388 80.1033 25.1721ZM94.5146 22.1446C93.6531 23.3687 90.2369 26.275 86.8406 28.6354C81.0031 32.7072 80.6425 33.1652 78.0916 37.8797C75.8947 41.9278 74.9196 43.1225 72.5118 44.7049C69.1823 46.8069 69.1957 47.2238 73.042 39.6061C74.1371 37.4778 75.1453 34.9826 75.2653 34.0492C75.4621 32.5844 74.9145 33.0629 71.3615 36.9673C67.4478 41.3296 63.8645 43.7105 62.5217 42.8123C62.2711 42.6098 62.1574 41.4093 62.2473 40.1235C62.8342 35.0394 61.5616 34.5727 58.5431 38.753C56.0988 42.1171 48.8972 56.8593 48.0128 60.2821C47.629 61.7674 46.8576 62.8771 45.5352 63.7754C44.2862 64.6239 43.7119 65.44 43.7388 66.2736C44.2038 70.8029 44.2914 74.6835 43.9743 75.9105C43.7574 76.7501 43.9312 77.4839 44.3287 77.5866C45.3507 77.8507 51.8464 74.9824 55.0056 72.8363C59.0464 70.0914 68.8368 57.0516 69.8881 52.983C70.4055 50.981 70.9499 50.9839 72.8874 52.8624C74.6145 54.6177 75.5436 57.8201 75.1667 60.6851C75.0199 61.9562 75.1337 63.1567 75.441 63.3739C75.7484 63.5911 77.5151 63.0832 79.3486 62.3169C82.3643 60.9605 82.8552 60.4673 84.6748 56.9417C85.8267 54.8282 87.3791 51.1646 88.2404 48.7693C89.085 46.4385 89.9831 44.6038 90.1534 44.6478C91.1755 44.9119 92.659 47.8443 92.8798 50.037C93.084 52.2943 93.2209 52.4675 94.0157 51.5017C94.5232 50.9439 95.6582 47.7237 96.5995 44.3156C98.0413 38.9701 98.2648 37.1678 98.0799 30.8508C97.8574 19.2882 97.3295 18.0495 94.5146 22.1446ZM74.9329 6.26842C73.0058 6.45937 68.7877 7.78063 65.5281 9.14291C62.3254 10.5199 57.9671 12.1494 55.883 12.7131C52.0323 13.7848 41.2255 20.9129 40.7749 22.6565C40.6581 23.1086 41.1392 24.0596 41.8741 24.7318C43.9085 26.7042 43.4478 27.5496 39.8742 28.4863C35.5926 29.5845 29.0536 32.855 28.0519 34.3874C27.6245 35.1037 25.9581 36.3954 24.3751 37.3642C22.7922 38.333 19.6865 40.9751 17.4859 43.1622C14.4171 46.3649 13.4487 47.7681 12.9147 49.8347C12.6044 51.2701 11.8768 54.3201 11.3328 56.6597C10.7888 58.9992 9.54701 62.3985 8.53533 64.2039C6.1481 68.754 4.72963 74.2433 5.86526 74.5367C7.11446 74.8595 16.7865 72.123 21.3418 70.2C25.4897 68.4472 27.0093 68.4265 28.4358 70.173C29.1774 71.0536 29.7954 71.0066 32.053 70.0054C38.0677 67.3572 40.4355 65.6956 41.3702 63.2503C41.891 61.9381 43.1697 59.0995 44.2247 56.892C45.3365 54.6991 47.333 50.2548 48.7118 47.0287C50.0906 43.8025 51.9035 40.0685 52.7249 38.7652C54.8284 35.3129 54.9485 34.3795 53.2186 35.4481C50.7874 36.8866 37.6402 48.8524 36.5316 50.5638C35.9239 51.5091 34.7618 52.7244 33.937 53.338C32.3607 54.5152 29.8992 54.4303 29.5984 53.2503C29.4646 52.5957 34.2196 46.384 38.6575 41.3993C41.0484 38.7103 41.0917 38.3081 38.941 39.1302C38.2563 39.4355 37.5416 39.3886 37.3645 39.1362C36.9402 38.1998 39.5246 34.5274 42.1962 32.3932C43.6422 31.2512 44.9178 30.0652 44.9846 29.8069C45.0513 29.5485 47.1551 27.2676 49.6829 24.7517C54.6652 19.7699 56.6624 18.8393 62.7744 18.6274C64.6682 18.5656 67.32 18.1486 68.6559 17.6671C69.9918 17.1856 72.2195 17.0034 73.6724 17.2411C80.0519 18.3385 81.742 18.3618 85.2655 17.6189C88.9359 16.7761 90.8728 15.141 91.1095 12.5842C91.3494 9.54603 80.9514 5.48127 74.9329 6.26842Z" fill="#3D2A23"></path></svg> 