<?xml version="1.0" encoding="UTF-8"?> <svg xmlns="http://www.w3.org/2000/svg" width="462" height="566" viewBox="0 0 462 566" fill="none"><path d="M308.037 15.8085C306.145 24.8517 303.831 33.4743 302.99 34.9465C302.149 36.4187 295.419 40.6248 288.058 44.4103C274.809 51.1402 268.92 56.8185 272.075 59.9731C272.916 60.8144 280.066 62.0762 287.637 62.7071L301.728 63.7587L302.149 72.171C303.2 88.575 307.406 108.765 310.351 111.288C312.033 112.55 313.716 113.391 314.136 112.971C314.347 112.55 316.45 102.666 318.342 91.0987C320.445 79.5317 322.549 68.3854 323.18 66.4927C323.81 64.1793 329.489 61.235 340.004 58.0803C363.559 50.9299 362.507 46.7237 336.008 41.6763L324.021 39.363L322.759 27.3754C320.235 6.76527 318.553 0.666339 314.977 0.0354163C312.454 -0.385199 310.771 2.97972 308.037 15.8085ZM321.287 47.1443L329.068 50.299L323.81 54.9257C317.501 60.1834 313.295 69.0163 313.295 76.3771C313.295 79.3214 312.454 81.6348 311.192 81.6348C310.14 81.6348 309.089 78.0596 309.089 73.6431C309.089 63.1277 304.462 56.8185 296.05 55.9773C285.955 54.9257 286.796 51.1402 297.943 47.565C310.982 43.1485 312.033 43.1485 321.287 47.1443Z" fill="#E0B8B9"></path><path d="M148.414 52.6122C147.993 54.0844 146.941 66.7028 146.31 80.5831C144.838 116.756 135.585 143.045 116.026 167.651C101.936 185.106 74.8058 197.304 50.4101 197.304C36.5298 197.304 31.4824 198.776 31.4824 202.562C31.4824 206.557 36.5298 207.819 52.3029 207.819C81.746 207.819 98.3603 219.386 113.292 250.301C128.645 282.058 132.43 295.938 134.954 330.849C137.267 365.971 137.688 368.494 140.842 366.602C142.104 365.76 142.946 351.459 142.946 329.798C142.946 293.415 145.89 270.701 152.409 258.083C154.302 254.718 162.084 247.778 169.865 242.52C183.956 233.267 195.522 229.06 229.382 220.438C250.833 214.97 253.357 213.498 251.675 209.081C250.623 206.347 246.207 205.716 224.545 205.716C199.939 205.716 198.256 205.296 187.951 199.617C176.805 193.098 169.444 185.106 162.294 170.595C153.882 154.401 153.04 144.517 155.774 105.82C158.298 69.4368 157.036 52.4019 151.778 50.5091C150.517 50.0885 148.834 50.9298 148.414 52.6122ZM147.152 153.56C151.148 170.385 158.508 183.424 171.337 196.042C181.642 206.137 186.059 208.871 198.256 212.867C202.042 214.129 203.304 218.335 199.518 218.335C198.256 218.335 190.475 221.489 182.063 225.275C161.873 234.739 146.941 249.671 140.632 266.705C138.108 273.646 135.374 278.693 134.323 278.272C133.482 277.641 131.168 272.173 129.276 266.075C120.653 239.786 103.197 214.549 87.8449 206.557C84.48 204.875 81.9563 202.772 81.9563 201.72C81.9563 200.879 88.0552 197.094 95.416 193.308C110.558 185.947 128.224 168.492 136.636 152.508C139.581 147.04 142.525 142.624 143.156 142.624C143.997 142.624 145.89 147.671 147.152 153.56Z" fill="#E0B8B9"></path><path d="M347.155 208.239C346.103 210.973 344 222.12 342.738 233.056C338.112 271.963 332.223 302.667 327.806 311.5C312.875 340.733 279.856 363.236 233.378 375.013C210.244 381.112 205.828 383.005 209.403 386.58C210.665 387.842 218.236 387.001 230.224 384.267C240.739 381.953 256.512 379.64 265.345 378.799C293.316 376.696 304.462 383.636 316.24 410.345C326.124 432.848 328.017 448.621 328.017 509.61C328.017 558.191 328.437 565.342 331.171 565.342C333.064 565.342 334.957 564.08 335.378 562.608C336.009 561.346 337.27 534.006 338.112 502.249C339.794 447.569 340.004 443.994 344.631 434.951C362.297 400.671 385.431 385.949 439.059 374.803C456.094 371.228 463.876 367.232 461.562 363.236C459.459 360.081 447.892 361.133 431.488 365.549C409.616 371.648 396.367 371.228 385.641 363.867C373.023 355.455 361.876 341.995 357.039 329.377C350.52 312.973 349.679 278.272 354.516 238.734C357.881 211.604 357.881 207.188 355.147 205.505C350.52 202.771 349.048 203.192 347.155 208.239ZM345.683 322.436C347.786 329.377 351.571 338.84 354.305 343.467C358.932 351.249 374.705 368.283 383.328 374.593C387.113 377.116 386.693 377.747 379.122 382.795C374.705 385.739 367.134 392.048 362.087 396.885C353.043 405.718 338.532 426.539 338.532 430.745C338.532 431.796 337.691 432.848 336.639 432.848C334.957 432.848 333.905 430.955 327.176 411.607C319.184 389.525 307.196 376.485 289.741 371.859C285.535 370.597 281.328 368.914 280.908 367.863C280.277 366.811 286.166 362.185 294.157 357.347C306.986 349.776 334.326 323.698 334.326 319.071C334.326 314.655 338.953 306.243 340.425 307.925C341.266 308.977 343.58 315.496 345.683 322.436Z" fill="#E0B8B9"></path><path d="M58.1919 399.831C57.561 401.513 56.5094 412.449 55.6682 424.016C54.827 435.793 52.9342 446.309 51.6724 447.36C50.4105 448.412 42.4188 451.356 34.0065 453.88C-1.11487 464.185 -9.52718 471.335 11.083 473.859C16.9716 474.49 27.6973 475.752 34.6374 476.593L47.2559 478.065L48.7281 487.529C55.0373 527.277 57.561 538.423 61.1362 542.84C67.0248 549.78 68.497 545.784 71.4413 514.028C75.0165 476.803 74.5959 477.855 90.9999 476.172C111.4 474.069 126.542 469.232 125.701 464.816C125.28 462.082 120.022 460.399 104.039 457.455C92.4721 455.352 81.5361 452.828 79.8536 451.987C78.1711 450.935 76.0681 446.098 75.2268 441.051C74.3856 436.003 72.4928 426.119 71.231 419.179C68.0764 401.934 61.3465 391.839 58.1919 399.831ZM73.5444 459.558C76.4887 460.82 81.1154 462.923 84.0597 463.974C89.1071 465.867 89.1071 466.077 85.1113 467.55C70.3897 472.597 69.7588 473.228 67.6557 481.851C66.3939 486.688 64.7114 495.941 63.8702 502.25C62.1877 515.5 59.2434 511.714 59.0331 495.941C58.6125 481.43 55.0373 470.704 50.6208 470.704C46.8353 470.704 40.526 465.236 42.2085 463.554C42.6291 463.133 47.0456 460.82 52.093 458.296C56.93 455.772 61.1362 452.197 61.3465 450.094C61.3465 448.201 61.7671 445.467 61.9774 444.416C62.3981 443.154 62.8187 441.261 63.029 440.21C63.2393 438.948 64.5011 442.313 65.9733 447.57C67.6557 454.09 70.1794 457.665 73.5444 459.558Z" fill="#E0B8B9"></path></svg> 