<?xml version="1.0" encoding="UTF-8"?> <svg xmlns="http://www.w3.org/2000/svg" width="652" height="707" viewBox="0 0 652 707" fill="none"><path d="M307.173 0.814115C305.623 1.29846 300.586 1.97655 296.033 2.36403C291.48 2.75151 286.055 3.62334 283.924 4.30143C281.89 5.07638 278.596 5.6576 276.562 5.6576C274.528 5.6576 271.331 6.33569 269.49 7.11065C267.553 7.8856 264.647 8.56369 263.097 8.56369C261.547 8.56369 259.029 9.14491 257.479 9.91986C254.476 11.4698 247.889 13.3103 242.658 14.0853C240.817 14.3759 238.395 15.2477 237.33 15.9258C236.264 16.7007 234.036 17.282 232.389 17.282C230.743 17.282 228.805 17.8632 228.224 18.6381C227.546 19.4131 225.318 20.2849 223.187 20.6724C221.153 21.0599 219.215 21.738 218.925 22.1254C218.634 22.6098 216.406 23.2879 214.081 23.6754C211.659 23.966 209.431 24.6441 209.141 25.1284C208.85 25.6127 207.203 26.0002 205.46 26.0002C203.619 26.0002 201.682 26.6783 201.004 27.4533C200.326 28.2282 198.291 29.1001 196.354 29.4875C194.513 29.875 191.801 30.7468 190.445 31.4249C189.089 32.1999 186.473 32.7811 184.826 32.7811C183.083 32.7811 181.63 33.1686 181.63 33.7498C181.63 34.2341 179.983 34.9122 178.046 35.2028C176.011 35.4935 173.202 36.4621 171.749 37.2371C170.393 38.0121 168.165 38.5933 166.906 38.5933C165.743 38.6902 163.612 39.2714 162.256 40.0463C160.9 40.8213 158.672 41.4025 157.315 41.4994C155.862 41.4994 154.216 42.1775 153.538 42.9524C152.763 43.8242 150.631 44.4055 147.725 44.4055C144.819 44.4055 142.688 44.9867 141.913 45.8585C141.235 46.6335 139.491 47.3115 138.135 47.3115C136.682 47.3115 134.648 47.9896 133.582 48.7646C132.614 49.5396 130.676 50.2176 129.32 50.2176C127.964 50.2176 125.639 50.8957 124.089 51.6707C122.636 52.4456 119.924 53.1237 118.18 53.1237C116.436 53.1237 114.499 53.8018 113.821 54.5768C113.143 55.3517 111.69 56.0298 110.527 56.0298C109.462 56.0298 107.234 56.7079 105.684 57.4829C104.231 58.2578 102.487 58.9359 101.809 58.9359C101.228 58.9359 99.0968 59.8077 97.0625 60.8733C95.1251 61.9389 92.6065 62.8107 91.5409 62.8107C90.4754 62.8107 89.6035 63.1982 89.6035 63.6825C89.6035 64.1669 88.6348 64.845 87.4724 65.1356C84.082 66.0074 80.5947 69.3978 81.2727 71.0446C82.0477 73.0789 92.3159 73.0789 93.0908 71.0446C93.4783 70.1728 94.9314 69.5916 96.9656 69.5916C98.9999 69.5916 100.55 69.0104 100.84 68.1385C101.131 67.3636 102.875 66.4917 104.715 66.1043C106.556 65.8137 108.299 65.1356 108.59 64.6512C108.881 64.1669 110.527 63.7794 112.271 63.7794C114.112 63.7794 116.049 63.1982 116.63 62.4232C117.211 61.7451 119.052 60.8733 120.699 60.4858C122.345 60.1952 124.283 59.2265 125.058 58.4516C125.93 57.6766 127.673 56.9985 129.126 56.9985C130.579 56.9985 132.614 56.3204 133.582 55.5455C134.648 54.7705 136.876 54.0924 138.62 54.0924C140.46 54.0924 141.913 53.5112 142.301 52.6394C142.688 51.5738 144.238 51.1863 147.628 51.1863C150.922 51.1863 152.569 50.7989 152.956 49.7333C153.247 48.8615 154.7 48.2802 156.734 48.2802C158.575 48.2802 160.609 47.6022 161.287 46.8272C161.965 46.0522 164.096 45.3742 166.131 45.3742C168.165 45.3742 170.296 44.6961 170.974 43.9211C171.652 43.0493 173.783 42.4681 176.011 42.4681C178.433 42.4681 179.983 41.9837 180.274 41.015C180.661 40.1432 182.114 39.562 183.955 39.562C185.601 39.562 188.217 38.8839 189.767 38.1089C191.22 37.334 194.126 36.6559 196.16 36.6559C198.194 36.6559 200.326 35.9778 201.004 35.2028C201.779 34.331 203.91 33.7498 206.525 33.7498C209.334 33.7498 210.884 33.2655 211.272 32.2968C211.562 31.5218 213.403 30.65 215.34 30.3594C217.375 29.9719 220.087 29.1001 221.54 28.3251C222.896 27.5501 225.609 26.9689 227.546 26.9689C229.483 26.9689 231.033 26.4846 231.033 26.0002C231.033 25.419 233.067 25.0315 235.683 25.0315C239.073 25.0315 240.72 24.5472 241.98 23.0941C243.045 21.8348 244.789 21.1567 247.21 21.1567C249.245 21.1567 251.763 20.4787 252.732 19.7037C253.798 18.9287 256.219 18.2507 258.06 18.2507C259.997 18.2507 262.419 17.5726 263.388 16.7976C264.647 15.8289 267.553 15.3446 271.331 15.3446C275.787 15.3446 277.434 14.9571 277.918 13.8915C278.306 12.826 279.856 12.4385 283.343 12.4385C286.055 12.4385 289.833 11.7604 291.771 10.9854C294.289 9.91986 298.939 9.53238 308.916 9.53238C318.313 9.53238 323.059 9.14491 323.834 8.36995C328.872 3.33273 316.957 -2.09197 307.173 0.814115Z" fill="#3F496A"></path><path d="M108.977 417.157C108.977 417.641 107.233 418.707 105.102 419.675C97.8367 422.872 91.7339 430.912 90.0871 439.631C89.6996 441.471 89.0215 443.505 88.5372 444.087C88.0528 444.668 87.181 449.027 86.6967 453.774C86.2123 458.52 85.3405 464.526 84.8561 467.238C84.3718 469.854 83.8874 484.481 83.8874 499.69C83.7906 522.357 84.0812 527.782 85.2436 530.107C86.0186 531.56 86.6967 534.466 86.6967 536.403C86.7935 541.537 93.7681 552.387 100.646 557.908C103.649 560.427 109.752 564.302 114.111 566.53C118.47 568.758 123.41 571.373 124.96 572.439C126.607 573.408 128.835 574.667 130.094 575.248C131.257 575.732 132.225 576.604 132.225 577.089C132.225 577.573 133 578.251 133.969 578.542C136.003 579.317 137.166 579.995 148.209 587.26C153.052 590.457 158.671 594.428 160.802 596.075C162.933 597.819 165.452 599.465 166.42 599.756C167.292 600.144 168.067 600.822 168.067 601.403C168.067 601.887 168.745 602.372 169.52 602.372C170.295 602.372 170.973 602.856 170.973 603.34C170.973 603.922 171.748 604.6 172.717 604.987C174.557 605.665 181.241 610.606 183.857 613.221C184.826 614.19 186.182 614.965 186.957 614.965C187.732 614.965 188.41 615.352 188.41 615.933C188.41 616.418 189.088 616.902 189.863 616.902C190.541 616.902 191.606 617.483 191.994 618.161C192.381 618.839 194.513 620.486 196.644 621.746C200.615 624.167 200.809 624.361 204.781 627.558C206.04 628.623 207.687 629.495 208.462 629.495C209.14 629.495 209.721 629.883 209.721 630.367C209.721 631.432 224.058 641.119 225.608 641.119C226.189 641.119 227.448 641.894 228.32 642.766C230.742 645.382 232.776 646.932 233.745 646.932C234.52 646.932 235.973 647.997 240.429 651.775C241.107 652.259 241.882 652.744 242.172 652.744C242.56 652.744 245.853 654.584 249.535 656.812C253.312 659.137 257.09 661.462 257.962 661.946C258.834 662.528 261.45 664.174 263.678 665.627C266.002 667.081 268.23 668.243 268.715 668.243C269.296 668.243 270.071 668.824 270.458 669.502C270.846 670.277 271.911 671.149 272.686 671.44C273.461 671.827 275.496 672.99 277.046 674.055C278.692 675.121 281.114 676.477 282.664 677.058C284.117 677.639 285.279 678.511 285.279 678.899C285.279 679.286 286.345 679.964 287.701 680.255C289.057 680.642 290.123 681.32 290.123 681.805C290.123 682.386 290.704 682.773 291.382 682.773C292.06 682.773 294.87 684.323 297.776 686.164C300.585 688.004 303.491 689.554 304.266 689.554C305.041 689.554 305.622 689.942 305.622 690.329C305.622 690.814 308.044 692.364 310.95 693.913C313.953 695.366 316.568 697.013 316.859 697.401C317.634 698.66 326.74 698.466 327.515 697.207C328.193 696.045 320.443 688.586 318.506 688.586C317.925 688.586 316.762 688.004 316.084 687.326C314.05 685.583 311.241 683.839 308.334 682.483C306.785 681.902 305.622 681.03 305.622 680.642C305.622 680.255 304.75 679.867 303.782 679.867C302.716 679.867 301.263 679.286 300.585 678.608C298.163 676.38 293.126 673.086 292.06 673.086C291.576 673.086 291.092 672.796 291.092 672.311C291.092 671.924 288.767 670.568 286.054 669.212C283.245 667.952 278.499 665.046 275.496 662.721C272.59 660.397 269.78 658.556 269.393 658.556C269.005 658.556 267.649 657.781 266.39 656.812C265.227 655.941 263.193 654.487 262.031 653.713C260.868 652.938 259.318 651.775 258.737 651.194C258.059 650.613 256.606 649.741 255.444 649.45C254.281 649.063 253.312 648.288 253.312 647.803C253.312 647.319 252.731 646.932 252.053 646.932C251.278 646.932 249.728 646.06 248.469 644.994C247.21 643.929 245.853 643.057 245.272 643.057C244.788 643.057 242.754 641.701 240.719 640.151C238.685 638.504 236.651 637.245 236.07 637.245C235.585 637.245 234.907 636.567 234.52 635.792C234.229 635.017 232.97 634.339 231.614 634.339C230.354 634.339 229.095 633.66 228.708 632.886C228.417 632.111 227.545 631.432 226.77 631.432C226.092 631.432 225.22 630.754 224.833 629.979C224.542 629.204 223.38 628.526 222.314 628.526C221.249 628.526 220.086 627.848 219.796 627.073C219.408 626.298 218.827 625.62 218.343 625.62C217.374 625.62 211.659 621.842 210.69 620.68C210.399 620.292 209.237 619.808 208.074 619.421C206.815 619.033 205.846 618.258 205.846 617.774C205.846 617.29 205.362 616.902 204.781 616.902C204.296 616.902 201.778 615.352 199.356 613.512C196.934 611.671 194.319 610.121 193.641 610.121C192.866 610.121 192.285 609.637 192.285 609.152C192.285 608.571 191.316 607.699 190.153 607.215C186.957 605.859 184.535 604.212 181.145 601.209C179.595 599.659 177.754 598.497 177.076 598.497C176.398 598.497 175.526 597.916 175.139 597.238C174.751 596.463 173.686 595.591 172.911 595.203C169.811 593.75 166.808 591.813 166.227 590.941C165.645 589.972 155.765 582.998 155.087 582.998C154.796 582.998 153.149 581.641 151.406 580.092C149.662 578.445 147.918 577.185 147.434 577.185C146.95 577.185 144.915 575.829 142.881 574.279C140.847 572.633 138.716 571.373 138.134 571.373C137.456 571.373 136.778 570.695 136.488 569.92C136.1 569.145 135.325 568.467 134.744 568.467C134.066 568.467 132.225 567.208 130.675 565.561C129.126 564.011 127.188 562.655 126.316 562.655C125.445 562.655 124.185 562.074 123.604 561.299C122.926 560.524 121.376 559.652 120.117 559.361C118.761 558.974 117.695 558.296 117.695 557.812C117.695 557.23 116.92 556.843 115.951 556.843C114.983 556.843 113.336 556.165 112.27 555.39C111.302 554.615 109.849 553.937 109.074 553.937C107.524 553.937 106.942 553.452 99.5803 546.381C94.8337 541.828 94.5431 541.247 93.9619 535.241C92.9932 526.426 94.3494 456.776 95.4149 455.711C95.9961 455.13 96.3836 453.095 96.3836 450.964C96.3836 442.343 100.065 441.374 109.17 447.671C119.632 454.839 122.054 456.583 122.345 457.261C122.538 457.745 123.313 458.036 123.991 458.036C124.766 458.036 125.735 458.617 126.123 459.295C127.091 460.748 135.519 467.723 136.488 467.723C137.553 467.723 146.756 474.891 146.756 475.666C146.756 476.054 147.24 476.441 147.821 476.441C148.306 476.441 152.181 478.96 156.249 482.059C160.318 485.159 164.774 488.356 166.13 489.228C167.486 490.003 169.617 491.746 170.973 492.909C172.329 494.071 174.461 495.718 175.817 496.59C177.173 497.462 180.757 500.077 183.76 502.305C186.763 504.63 189.669 506.471 190.347 506.471C190.928 506.471 191.606 507.149 191.897 507.924C192.285 508.699 193.06 509.377 193.834 509.377C194.513 509.377 195.481 509.958 195.869 510.636C196.256 511.314 202.068 515.383 208.752 519.839C224.155 529.913 224.058 529.913 226.673 531.85C227.933 532.819 229.386 533.594 229.967 533.594C230.548 533.594 231.032 533.982 231.032 534.369C231.032 534.853 232.001 535.725 233.26 536.403C234.423 536.985 236.748 538.341 238.298 539.406C239.944 540.472 242.366 541.828 243.916 542.409C245.369 542.99 246.532 543.862 246.532 544.347C246.532 544.831 247.21 545.218 248.081 545.218C248.953 545.218 251.278 546.478 253.312 548.125C255.347 549.674 257.672 551.031 258.447 551.031C259.318 551.031 260.384 551.612 260.771 552.387C261.159 553.162 263.484 554.712 265.906 555.971C268.327 557.23 270.846 558.78 271.524 559.458C272.202 560.136 273.268 560.718 273.752 560.718C274.236 560.718 275.205 561.202 275.883 561.686C279.274 564.592 286.248 569.436 286.926 569.436C287.604 569.436 297.679 575.926 298.841 577.185C299.616 577.96 302.813 579.801 307.172 582.029C309.4 583.095 312.209 584.935 313.372 585.904C314.631 586.969 316.568 587.841 317.731 587.841C318.99 587.841 320.443 588.519 321.121 589.294C322.671 591.135 324.027 590.263 324.027 587.357C324.027 584.838 320.443 580.77 313.275 575.248C308.722 571.567 307.269 570.695 301.263 567.402C299.132 566.336 297.001 564.786 296.613 564.011C296.226 563.236 295.063 562.655 294.095 562.655C293.126 562.655 291.77 561.977 291.092 561.202C290.414 560.427 289.057 559.749 288.089 559.749C287.12 559.749 285.958 559.168 285.57 558.49C285.183 557.908 282.761 556.359 280.242 555.099C277.627 553.84 275.592 552.484 275.592 552.096C275.592 551.709 273.171 550.353 270.265 548.996C267.359 547.737 264.937 546.381 264.937 545.897C264.937 545.509 264.356 545.218 263.678 545.218C262.903 545.218 261.353 544.347 260.093 543.281C258.834 542.216 257.284 541.344 256.509 541.344C255.831 541.344 255.25 540.956 255.25 540.472C255.25 539.988 254.281 539.213 253.119 538.825C251.859 538.438 250.697 537.953 250.406 537.566C249.631 536.597 243.722 532.625 243.044 532.625C242.754 532.625 240.816 531.269 238.782 529.719C236.748 528.073 234.81 526.813 234.423 526.813C234.035 526.813 232.098 525.554 230.161 524.101C228.223 522.551 225.995 521.001 225.22 520.71C224.445 520.323 220.474 517.611 216.502 514.705C212.53 511.798 208.559 509.086 207.784 508.699C206.621 508.214 202.94 505.502 197.612 501.337C197.128 500.949 194.222 498.915 191.316 496.784C188.41 494.653 185.504 492.521 184.826 491.94C184.148 491.456 183.373 490.971 182.985 490.971C182.598 490.971 180.466 489.422 178.142 487.581C175.914 485.741 173.686 484.191 173.201 484.191C172.717 484.191 170.876 482.931 169.036 481.285C167.195 479.735 165.064 478.475 164.483 478.378C163.805 478.378 163.224 477.894 163.224 477.41C163.224 476.829 162.255 475.957 161.093 475.472C157.799 474.019 155.087 472.276 154.215 470.823C153.827 470.241 152.859 469.66 152.181 469.66C151.406 469.66 150.631 468.982 150.243 468.207C149.953 467.432 148.79 466.754 147.725 466.754C146.659 466.754 145.497 466.076 145.206 465.301C144.818 464.526 143.947 463.848 143.269 463.848C142.494 463.848 141.622 463.17 141.331 462.395C140.944 461.62 140.169 460.942 139.491 460.942C138.716 460.942 137.553 460.361 136.875 459.683C135.035 458.036 132.225 456.292 129.513 455.13C128.254 454.548 126.607 453.483 125.832 452.708C124.96 451.933 123.701 451.255 122.926 451.255C122.151 451.255 121.57 450.771 121.57 450.286C121.57 449.705 120.989 449.318 120.31 449.318C119.632 449.318 118.179 448.639 117.211 447.864C109.752 442.149 106.071 439.631 105.199 439.631C103.358 439.631 100.258 436.337 100.258 434.496C100.258 432.268 103.552 428.878 108.977 425.584C113.626 422.775 117.792 418.319 117.017 417.157C116.436 416.091 108.977 416.188 108.977 417.157Z" fill="#3F496A"></path><path d="M330.422 42.9554C329.356 43.7304 326.45 44.4085 323.931 44.4085C321.122 44.4085 318.991 44.9897 318.216 45.8615C317.538 46.6365 315.601 47.3146 313.954 47.3146C312.21 47.3146 309.982 47.9927 308.917 48.7676C307.948 49.5426 305.526 50.2207 303.589 50.2207C301.748 50.2207 299.327 50.8987 298.261 51.6737C297.292 52.4487 295.064 53.1267 293.418 53.1267C291.771 53.1267 289.833 53.708 289.252 54.4829C288.671 55.2579 286.152 56.1297 283.827 56.4203C281.406 56.8078 279.275 57.4859 278.984 57.8734C278.79 58.3577 276.853 58.9389 274.819 59.2295C272.784 59.617 269.781 60.5857 268.038 61.3607C266.391 62.2325 264.55 62.62 263.969 62.3294C263.388 61.9419 261.547 62.62 259.707 63.6855C257.963 64.848 255.929 65.7198 255.348 65.7198C254.67 65.7198 253.507 66.3979 252.732 67.1728C251.86 67.9478 250.117 68.6259 248.664 68.6259C247.211 68.6259 245.176 69.304 244.208 70.0789C243.142 70.8539 241.108 71.532 239.655 71.532C238.202 71.532 236.846 72.0163 236.652 72.5975C236.458 73.1788 234.23 73.8569 231.712 74.1475C229.193 74.4381 226.674 75.3099 226.093 75.988C225.512 76.7629 223.962 77.3442 222.8 77.3442C221.54 77.3442 219.312 78.0222 217.859 78.7972C216.309 79.5722 213.597 80.2503 211.853 80.2503C209.625 80.2503 207.882 81.1221 205.847 83.1563C204.297 84.7063 201.973 86.0624 200.81 86.0624C199.551 86.0624 197.323 86.7405 195.773 87.5155C194.32 88.2904 191.801 88.9685 190.348 88.9685C188.798 88.9685 186.958 89.5497 186.28 90.2278C185.602 91.0028 183.277 91.8746 181.146 92.2621C179.111 92.6496 176.496 93.6183 175.43 94.3932C174.365 95.1682 172.718 95.7494 171.846 95.7494C170.974 95.7494 168.94 96.4275 167.487 97.2024C165.937 97.9774 163.612 98.6555 162.256 98.6555C160.9 98.6555 158.962 99.3336 157.994 100.109C156.928 100.883 154.991 101.562 153.731 101.562C152.472 101.562 150.825 102.24 150.05 103.015C149.179 103.79 147.144 104.468 145.498 104.468C143.754 104.468 141.526 105.146 140.557 105.921C139.492 106.696 137.361 107.374 135.811 107.374C134.358 107.374 132.42 108.052 131.645 108.827C130.773 109.602 128.933 110.28 127.48 110.28C126.027 110.28 123.992 110.958 122.927 111.733C121.958 112.508 120.408 113.186 119.536 113.186C118.665 113.186 117.405 113.864 116.727 114.639C116.049 115.414 114.79 116.092 113.918 116.092C111.884 116.092 107.718 120.645 108.493 121.904C109.365 123.357 113.046 122.97 115.177 121.42C116.243 120.645 118.18 119.967 119.44 119.967C120.699 119.967 122.346 119.289 123.121 118.514C123.992 117.739 126.027 117.061 127.867 117.061C129.805 117.061 131.258 116.48 131.645 115.608C131.936 114.736 133.389 114.155 135.423 114.155C137.264 114.155 139.298 113.477 139.976 112.702C140.654 111.927 142.591 111.249 144.238 111.249C145.885 111.249 148.113 110.57 149.082 109.795C150.147 109.021 152.569 108.342 154.603 108.342C156.928 108.342 158.381 107.858 158.769 106.889C159.059 106.018 160.512 105.436 162.159 105.436C163.709 105.436 165.646 104.855 166.325 104.177C167.003 103.402 169.327 102.53 171.459 102.24C173.59 101.852 175.43 101.174 175.624 100.593C175.818 100.109 177.658 99.6242 179.693 99.6242C182.114 99.6242 183.761 99.043 184.342 98.0743C184.924 97.1056 187.055 96.3306 189.961 96.04C192.576 95.7494 195.289 95.0713 195.967 94.4901C196.838 93.812 197.517 93.812 198.292 94.587C198.97 95.265 200.229 95.7494 201.198 95.7494C202.166 95.7494 203.232 96.4275 203.522 97.2024C203.813 97.9774 205.072 98.8492 206.138 99.2367C208.172 99.8179 215.437 105.049 216.6 106.696C217.181 107.471 220.184 109.408 223.284 110.958C224.059 111.345 225.318 112.217 225.996 112.895C226.674 113.573 227.934 114.155 228.612 114.155C229.387 114.155 230.355 114.736 230.743 115.317C231.615 116.673 248.373 125.198 252.345 126.36C253.701 126.651 255.057 127.426 255.348 128.007C256.316 129.46 275.787 129.46 276.368 127.91C276.562 127.329 277.531 126.748 278.403 126.748C280.824 126.748 285.087 122.582 285.765 119.676C286.152 118.32 287.121 116.964 287.896 116.673C291.286 115.317 287.412 107.761 278.693 98.8492C276.95 97.0087 275.012 94.8776 274.334 93.9089C273.753 93.037 271.234 90.809 268.91 88.9685C262.419 83.9313 255.251 76.2786 255.251 74.4381C255.251 72.5975 259.126 69.5946 261.547 69.5946C262.322 69.5946 264.647 68.7228 266.585 67.6572C268.619 66.5916 271.234 65.7198 272.397 65.7198C273.656 65.7198 274.625 65.2355 274.625 64.7511C274.625 64.1699 277.047 63.7824 279.953 63.7824C283.634 63.7824 285.474 63.3949 285.862 62.4262C286.152 61.6513 288.477 60.7795 291.286 60.4888C293.999 60.1014 296.808 59.1327 297.583 58.3577C298.358 57.5828 300.78 57.0015 303.298 57.0015C305.914 57.0015 308.335 56.4203 309.11 55.5485C309.982 54.7735 312.307 54.0954 314.341 54.0954C316.666 54.0954 318.216 53.6111 318.604 52.6424C318.894 51.7706 320.444 51.1894 322.575 51.1894C324.513 51.1894 326.741 50.5113 327.516 49.7363C328.388 48.9614 330.422 48.2833 332.069 48.2833C335.362 48.2833 340.206 44.3116 339.043 42.4711C338.171 41.018 332.553 41.3087 330.422 42.9554ZM254.863 81.897C264.938 90.2278 276.562 103.305 279.275 109.699C281.212 114.058 279.371 118.029 274.334 120.839C270.847 122.776 269.103 123.067 264.163 122.679C260.482 122.389 257.576 121.614 256.413 120.645C255.445 119.773 253.701 118.998 252.635 118.998C251.57 118.998 250.117 118.32 249.439 117.545C248.761 116.77 247.211 116.092 246.048 116.092C244.886 116.092 243.336 115.414 242.658 114.639C241.98 113.864 240.914 113.186 240.139 113.186C239.461 113.186 237.427 111.83 235.683 110.28C233.94 108.633 231.712 107.374 230.743 107.374C229.871 107.374 228.805 106.696 228.515 105.921C228.127 105.146 227.449 104.468 226.965 104.468C225.803 104.468 219.312 99.5273 214.566 95.0713C212.725 93.3277 210.497 91.8746 209.528 91.8746C208.56 91.8746 207.785 91.4871 207.785 91.0028C207.785 89.1623 212.144 87.0311 215.631 87.0311C217.569 87.0311 219.7 86.353 220.378 85.5781C221.056 84.8031 222.8 84.125 224.253 84.125C225.706 84.125 227.449 83.447 228.127 82.672C228.805 81.897 230.937 81.2189 232.971 81.2189C235.296 81.2189 236.846 80.7346 237.136 79.8628C237.621 78.6035 239.849 78.1191 247.114 77.5379C248.373 77.441 251.57 79.2816 254.863 81.897Z" fill="#3F496A"></path><path d="M337.879 174.019C337.104 174.504 337.007 175.279 337.588 176.15C338.17 176.925 338.557 178.96 338.557 180.703C338.557 182.35 339.235 184.384 340.01 185.256C340.785 186.031 341.463 187.968 341.463 189.422C341.463 190.971 342.141 193.103 342.916 194.168C343.691 195.137 344.369 197.171 344.369 198.527C344.369 199.98 345.047 201.627 345.822 202.305C346.597 202.983 347.275 204.243 347.275 205.018C347.275 205.889 349.503 211.023 352.119 216.448C354.831 221.873 356.962 227.298 356.962 228.363C356.962 231.172 360.256 234.563 362.484 234.078C364.034 233.788 364.228 232.916 363.937 227.491C363.743 223.81 363.065 220.614 362.193 219.645C361.418 218.87 360.837 217.611 360.837 216.933C360.837 215.867 357.834 208.408 356.091 205.211C355.606 204.339 354.928 202.208 354.541 200.368C354.153 198.527 353.184 196.493 352.506 195.718C351.731 195.04 351.15 193.587 351.15 192.715C351.15 191.746 350.472 190.39 349.697 189.712C348.922 189.034 348.244 187.775 348.244 186.903C348.244 186.031 347.566 184.481 346.791 183.512C346.016 182.447 345.338 180.8 345.338 179.928C345.338 178.088 341.366 173.244 339.913 173.244C339.429 173.244 338.557 173.632 337.879 174.019Z" fill="#3F496A"></path><path d="M87.3751 380.739C86.6971 382.677 88.8282 386.358 90.5718 386.358C91.4437 386.358 92.9936 387.036 94.0592 387.811C95.0278 388.586 97.0621 389.264 98.5152 389.264C99.9682 389.264 101.712 389.942 102.584 390.717C103.359 391.492 104.327 392.17 104.715 392.17C105.102 392.17 107.233 393.139 109.558 394.301C112.464 395.657 113.821 397.014 113.821 398.273C113.821 399.338 115.177 402.341 116.727 404.957C118.373 407.475 119.633 410.672 119.633 411.931C119.633 414.547 126.607 419.778 128.932 418.906C131.063 418.131 130.676 412.125 128.351 410.091C127.285 409.122 126.414 407.282 126.414 406.022C126.414 404.86 126.026 403.794 125.542 403.794C125.057 403.794 124.379 402.438 123.992 400.888C123.604 399.242 123.023 397.982 122.539 397.982C122.054 397.982 121.376 396.626 121.086 394.882C120.698 393.236 119.052 390.426 117.405 388.586C114.886 385.777 113.821 385.389 109.849 385.389C107.33 385.389 103.843 384.614 102.002 383.742C100.259 382.871 97.6433 381.611 96.1903 380.836C92.9936 379.286 87.9564 379.19 87.3751 380.739Z" fill="#3F496A"></path><path d="M483.379 223.228C477.663 229.427 477.082 230.202 477.082 231.171C477.082 231.655 476.21 232.818 475.145 233.786C474.079 234.755 473.207 235.918 473.207 236.402C473.207 236.886 472.723 237.758 472.239 238.436C469.526 241.633 464.78 248.511 464.198 249.964C463.908 250.932 463.133 251.707 462.552 251.707C462.067 251.707 461.583 252.967 461.583 254.613C461.583 256.454 462.067 257.52 462.939 257.52C464.78 257.52 468.751 253.645 471.754 248.704C473.304 246.38 475.629 243.28 477.082 241.73C478.535 240.277 480.666 237.08 481.829 234.755C482.991 232.333 484.347 230.396 484.832 230.396C485.316 230.396 485.897 229.04 486.285 227.49C486.672 225.843 487.35 224.584 487.835 224.584C488.9 224.584 488.997 220.031 488.028 219.45C487.544 219.256 485.51 220.903 483.379 223.228Z" fill="#3F496A"></path><path d="M463.713 184.868C462.551 186.418 461.582 187.968 461.582 188.259C461.582 188.743 456.448 195.911 453.93 199.011C453.445 199.592 452.767 200.949 452.477 202.111C452.089 203.274 451.314 204.242 450.83 204.242C450.345 204.242 449.958 205.114 449.958 206.083C449.958 207.148 449.28 208.601 448.505 209.473C447.73 210.248 446.664 211.895 446.083 213.154C445.599 214.414 444.727 216.157 444.146 217.029C443.661 217.998 442.693 219.548 442.208 220.419C441.627 221.388 440.852 223.132 440.368 224.294C439.787 225.36 438.915 226.619 438.43 227.007C436.687 227.975 437.171 233.303 439.012 233.981C440.852 234.659 445.696 229.622 447.246 225.263C447.73 223.81 448.602 222.647 449.086 222.647C449.57 222.647 449.958 221.969 449.958 221.194C449.958 220.516 450.539 219.451 451.314 219.063C452.089 218.676 453.93 215.963 455.48 213.057C459.354 205.695 460.226 204.242 461.485 202.983C462.067 202.402 462.551 201.142 462.551 200.174C462.551 199.205 463.713 196.59 465.166 194.265C470.107 186.612 471.366 183.609 470.01 182.737C467.782 181.284 465.845 181.962 463.713 184.868Z" fill="#3F496A"></path><path d="M87.8596 134.205C84.8567 136.821 83.113 139.146 80.9819 143.892C80.4975 144.958 79.5288 146.217 79.0445 146.605C78.4633 146.895 77.9789 147.961 77.9789 148.93C77.9789 149.898 77.3008 151.255 76.5259 151.933C75.7509 152.611 75.0728 154.257 75.0728 155.711C74.976 157.067 74.3948 159.295 73.6198 160.651C72.8448 162.007 72.2636 164.913 72.1667 167.141C72.1667 169.369 71.6824 172.372 71.0043 173.922C69.745 177.022 67.7107 211.217 66.4514 251.708C65.9671 268.467 65.1921 281.06 64.4172 283.675C63.5453 286.872 63.1579 298.787 63.061 327.267C62.9641 361.752 63.1579 367.08 64.6109 371.633C65.4827 374.345 66.9358 377.639 67.7107 378.801C68.5826 379.964 69.2607 381.804 69.2607 382.87C69.2607 384.71 72.8448 388.682 75.2666 389.554C79.1414 390.91 81.5631 385.485 77.9789 383.257C76.9134 382.579 76.0415 381.514 76.0415 380.836C76.0415 380.254 75.4603 379.092 74.7822 378.414C72.3605 375.992 71.0043 363.593 70.52 340.344C70.2294 324.845 70.52 315.158 71.2949 311.283C71.973 307.699 72.6511 288.422 73.0386 261.202C73.4261 227.782 73.9104 216.642 74.8791 215.673C75.7509 214.801 76.0415 209.764 76.0415 197.268C76.0415 184.093 76.429 179.153 77.4946 176.441C78.2695 174.6 78.9476 170.338 78.9476 167.044C79.0445 163.363 79.5288 160.457 80.4007 159.295C81.1756 158.229 81.8537 156.582 81.8537 155.614C81.8537 154.645 82.5318 153.579 83.3068 153.289C84.0817 152.901 84.7598 152.029 84.7598 151.351C84.7598 150.576 86.9878 147.767 89.6033 145.055C92.3156 142.343 94.4468 139.727 94.4468 139.243C94.4468 138.758 94.8342 138.371 95.3186 138.371C96.5779 138.371 97.256 135.949 96.6748 133.624C95.8998 130.718 91.6376 131.009 87.8596 134.205Z" fill="#3F496A"></path><path d="M411.695 165.592C411.211 166.27 410.533 173.342 410.145 181.382C409.661 189.422 409.08 198.721 408.692 201.918C408.305 205.89 408.401 208.118 409.176 208.505C409.758 208.893 410.242 210.636 410.242 212.38C410.242 214.124 410.823 216.352 411.598 217.32C412.857 219.064 412.954 219.064 413.439 217.223C414.601 213.542 414.698 166.658 413.536 165.495C412.664 164.623 412.179 164.623 411.695 165.592Z" fill="#3F496A"></path><path d="M8.3302 135.272C5.23037 138.759 3.68046 145.346 3.00237 157.261C2.71176 162.589 2.13054 171.307 1.6462 176.635C-0.194327 197.172 -0.678675 332.983 1.16185 335.114C1.74307 335.889 2.51802 338.117 2.9055 340.151C3.29298 342.185 4.64916 345.673 5.90846 347.901C7.16777 350.129 8.62081 352.841 9.10516 353.907C10.0739 356.135 25.9605 371.634 32.9351 377.155C35.6474 379.287 39.4254 382.677 41.4596 384.614C44.5595 387.617 53.6652 394.204 60.4461 398.467C61.3179 398.951 62.3835 400.017 62.771 400.598C63.1584 401.276 64.6115 401.857 65.9677 401.857C67.227 401.857 68.5831 402.535 68.8737 403.31C69.2612 404.279 70.8111 404.763 73.3298 404.763C75.4609 404.763 77.8826 405.151 78.8513 405.635C79.82 406.216 85.6322 406.894 91.735 407.282C102.391 407.863 102.972 407.863 105.975 405.635C107.622 404.473 108.978 403.02 108.978 402.632C108.978 401.082 104.231 400.017 95.7066 399.435C75.9452 398.176 69.8424 397.401 69.455 396.239C69.2612 395.657 68.2925 395.076 67.227 395.076C65.3864 395.076 59.4774 391.492 58.7993 389.942C58.6056 389.555 57.8306 389.264 57.1525 389.264C56.3776 389.264 55.4089 388.683 55.0214 388.005C54.6339 387.327 52.1153 385.002 49.4029 382.968C46.7875 380.836 42.8158 377.252 40.6847 374.927C38.5535 372.699 36.4224 370.859 36.0349 370.859C35.7443 370.859 33.9038 369.406 32.0633 367.662C30.3196 366.015 27.801 363.594 26.5417 362.431C22.7638 359.138 15.9829 351.679 15.9829 351.001C15.9829 350.71 15.3048 349.741 14.5299 348.966C13.7549 348.094 13.0768 346.448 13.0768 345.285C13.0768 344.026 12.3987 342.476 11.6238 341.798C10.8488 341.12 10.1707 339.57 10.1707 338.214C10.1707 336.954 9.49264 334.339 8.71768 332.402C7.55525 329.592 7.26464 323.586 7.26464 299.756C7.26464 283.676 7.74899 267.79 8.3302 264.302C8.91142 260.815 9.68638 245.8 9.97699 230.785C10.4613 212.477 11.0426 203.081 11.8175 202.209C12.3987 201.434 13.0768 195.815 13.3674 188.744C13.658 182.06 14.2393 174.698 14.8205 172.276C15.4017 169.854 15.886 162.105 15.9829 154.936C15.9829 143.603 15.6923 141.471 13.8518 137.306C12.5925 134.691 11.43 132.559 11.1394 132.559C10.8488 132.559 9.58951 133.819 8.3302 135.272Z" fill="#3F496A"></path><path d="M55.0206 80.0539C52.7926 80.2476 50.4677 81.0226 49.8865 81.7976C49.2084 82.4756 48.2397 83.1537 47.7553 83.1537C46.3023 83.1537 36.0341 91.2908 32.4499 95.4562C28.4783 99.8153 24.7972 104.465 22.763 107.371C21.988 108.534 20.535 110.374 19.6631 111.44C18.6944 112.602 17.9195 114.055 17.9195 114.636C17.9195 115.314 17.2414 116.089 16.4664 116.477C15.6915 116.768 15.0134 117.639 15.0134 118.317C15.0134 119.092 14.3353 120.255 13.5604 120.933C11.9136 122.289 11.7198 124.614 13.076 126.745C13.851 127.908 14.7228 127.52 17.7258 124.226C19.8569 121.998 21.7943 119.48 22.0849 118.608C22.4724 117.736 23.1505 117.058 23.7317 117.058C24.216 117.058 24.7004 116.477 24.7004 115.799C24.7004 115.218 26.2503 113.086 28.0908 111.246C29.9313 109.405 31.4812 107.565 31.4812 107.081C31.4812 106.596 33.0312 104.853 34.9686 103.206C37.0028 101.462 39.6183 99.1372 40.9745 97.8779C42.3306 96.7155 43.9774 95.7468 44.6555 95.7468C45.4305 95.7468 46.0117 95.3593 46.0117 94.875C46.0117 94.3906 47.1741 93.7125 48.724 93.325C55.6018 91.6783 61.5108 87.1254 61.5108 83.4443C61.5108 81.1195 58.8954 79.7633 55.0206 80.0539Z" fill="#3F496A"></path><path d="M351.733 22.8002C350.764 23.7689 351.054 27.9343 352.12 27.9343C352.701 27.9343 353.089 28.5155 353.089 29.0967C353.089 29.7748 355.995 33.2621 359.385 36.8463C362.873 40.4305 365.682 43.8209 365.682 44.3053C365.682 44.7896 366.36 45.3708 367.135 45.7583C367.91 46.0489 368.588 46.9208 368.588 47.5988C368.588 48.3738 369.266 49.5363 370.041 50.2143C370.816 50.8924 371.494 52.4423 371.494 53.6048C371.494 54.7672 372.172 56.3171 372.947 56.9952C373.722 57.6733 374.4 59.5138 374.4 61.0637C374.4 62.6136 375.175 65.2291 376.144 66.9728C377.694 69.782 377.79 73.7537 377.597 114.148C377.5 138.366 376.919 163.068 376.337 168.977C375.756 174.886 374.884 190.191 374.4 202.881C374.013 215.571 373.141 227.583 372.56 229.423C371.881 231.554 371.494 243.276 371.494 260.325C371.494 291.614 371.494 291.517 363.454 300.526L359.191 305.272L351.054 299.072C346.502 295.682 341.271 292.001 339.236 290.935C337.299 289.87 335.652 288.707 335.652 288.223C335.652 287.836 334.683 287.061 333.521 286.479C328.968 284.445 318.991 277.858 317.925 276.211C317.538 275.533 316.278 274.952 315.31 274.952C314.341 274.952 313.082 274.371 312.694 273.693C312.307 273.111 309.885 271.562 307.366 270.302C304.751 269.043 302.716 267.687 302.716 267.299C302.716 266.912 300.295 265.943 297.389 265.265C291.964 263.909 290.608 262.262 293.223 259.647C293.998 258.872 294.483 255.094 294.676 249.475C294.773 244.535 294.87 239.982 294.87 239.304C294.967 238.723 295.645 238.141 296.517 238.141C298.551 238.141 302.813 243.469 305.526 249.475C306.107 250.735 306.979 251.703 307.56 251.703C308.044 251.703 308.529 252.381 308.529 253.156C308.529 253.834 309.11 254.9 309.788 255.287C310.369 255.675 312.694 258.194 314.825 260.906C316.956 263.521 319.184 266.331 319.862 267.009C320.541 267.687 321.122 268.849 321.122 269.527C321.122 270.205 324.318 273.596 328.193 276.986C331.971 280.377 335.362 283.38 335.652 283.767C336.524 284.833 341.561 285.704 343.499 285.123C345.727 284.348 346.017 279.602 343.886 277.858C343.111 277.18 342.433 276.308 342.433 275.921C342.433 274.177 302.62 233.298 300.876 233.298C300.295 233.298 299.132 232.136 298.164 230.586C297.195 229.133 296.032 227.68 295.451 227.292C294.095 226.323 294.386 191.063 295.839 189.319C296.42 188.641 297.195 183.701 297.486 178.47C297.873 172.948 298.648 168.008 299.423 166.749C300.392 165.295 300.779 161.421 300.779 154.64C300.779 149.118 301.263 143.112 301.845 141.272C302.91 137.881 303.879 125.482 305.138 98.6491C305.816 84.8937 305.816 84.6031 303.685 83.3438C301.942 82.2782 301.263 82.2782 299.229 83.6344C296.711 85.2812 296.711 85.4749 296.517 104.171C296.42 109.595 295.936 113.567 295.258 114.245C294.483 115.02 294.386 115.989 295.161 117.636C295.936 119.282 295.936 120.929 295.161 123.545C294.579 125.579 293.804 135.944 293.514 146.503C293.223 157.062 292.545 166.555 292.061 167.524C291.48 168.492 291.092 174.207 290.995 180.213C290.995 186.219 290.608 195.713 290.027 201.331C288.186 221.189 288.089 226.905 289.252 230.682C290.22 233.589 290.22 234.848 289.348 236.301C288.67 237.367 288.186 242.21 288.186 248.507C288.186 258.29 287.992 259.162 285.861 261.1C284.602 262.359 282.858 263.328 282.083 263.328C281.308 263.328 280.146 264.006 279.468 264.781C278.79 265.556 277.724 266.234 277.046 266.234C276.271 266.234 274.527 266.815 272.977 267.59C267.553 270.302 262.903 272.046 261.159 272.046C260.191 272.046 258.835 272.724 258.156 273.499C257.478 274.274 255.541 274.952 253.797 274.952C252.054 274.952 250.116 275.63 249.438 276.405C248.76 277.18 247.016 277.858 245.66 277.858C244.207 277.858 242.173 278.536 241.107 279.311C240.139 280.086 238.201 280.764 236.845 280.764C235.489 280.764 233.164 281.442 231.614 282.217C230.161 282.992 227.449 283.67 225.705 283.67C223.961 283.67 222.024 284.348 221.346 285.123C220.668 285.898 218.052 286.867 215.437 287.158C212.821 287.545 210.69 288.126 210.69 288.611C210.69 288.998 208.656 289.676 206.137 290.064C203.522 290.451 201.197 291.129 200.906 291.614C200.519 292.195 198.291 292.873 195.772 293.067C193.351 293.357 191.316 293.938 191.316 294.423C191.316 294.81 189.67 295.488 187.732 295.779C185.698 296.07 182.889 297.038 181.436 297.813C180.08 298.588 177.658 299.169 176.011 299.169C174.461 299.169 172.621 299.847 171.942 300.622C171.264 301.397 169.327 302.075 167.583 302.075C165.84 302.075 163.902 302.754 163.224 303.529C162.546 304.303 160.609 304.982 158.865 304.982C157.121 304.982 155.184 305.66 154.506 306.435C153.828 307.21 152.084 307.888 150.631 307.888C149.178 307.888 147.434 308.566 146.756 309.341C146.078 310.116 144.141 310.794 142.397 310.794C140.654 310.794 138.716 311.375 138.135 312.15C137.457 312.925 135.229 313.797 133.098 314.184C131.063 314.572 129.32 315.25 129.32 315.637C129.32 316.122 127.382 316.8 124.961 317.187C122.539 317.478 120.602 318.156 120.602 318.64C120.602 319.125 119.633 319.512 118.47 319.512C117.211 319.609 114.499 320.384 112.368 321.449C110.236 322.515 107.621 323.387 106.555 323.387C105.49 323.387 103.746 324.065 102.778 324.84C101.712 325.615 99.9683 326.293 98.9027 326.293C97.7403 326.293 95.9966 326.971 95.0279 327.746C93.9624 328.521 92.4125 329.199 91.5406 329.199C90.6688 329.199 88.9251 330.265 87.6658 331.621C85.9222 333.461 85.6316 334.333 86.5034 335.205C88.0533 336.755 95.3185 336.27 98.0309 334.43C99.1933 333.752 101.228 333.074 102.584 333.074C103.843 333.074 105.587 332.396 106.459 331.621C107.234 330.846 109.268 330.168 110.915 330.168C112.561 330.168 114.111 329.586 114.402 328.811C114.692 328.037 116.436 327.165 118.18 326.874C120.02 326.487 122.733 325.615 124.186 324.84C125.639 324.065 128.06 323.387 129.61 323.387C131.063 323.387 132.226 322.902 132.226 322.418C132.226 321.837 133.001 321.449 133.97 321.449C134.841 321.449 137.263 320.578 139.297 319.512C141.235 318.446 143.753 317.575 144.916 317.575C145.981 317.575 147.531 316.897 148.306 316.122C149.178 315.347 151.115 314.669 152.665 314.669C154.312 314.669 156.25 313.99 157.025 313.215C157.896 312.441 160.221 311.762 162.255 311.762C164.58 311.762 166.13 311.278 166.518 310.309C166.808 309.438 168.261 308.856 170.296 308.856C172.136 308.856 174.17 308.178 174.849 307.403C175.527 306.628 177.464 305.95 179.111 305.95C180.758 305.95 182.986 305.272 183.954 304.497C185.02 303.722 187.345 303.044 189.088 303.044C191.123 303.044 192.576 302.463 192.866 301.591C193.254 300.622 194.804 300.138 197.516 300.138C199.744 300.138 202.456 299.557 203.522 298.782C204.588 298.007 207.106 297.135 209.044 296.748C211.078 296.36 212.918 295.682 213.209 295.198C213.5 294.713 215.146 294.326 216.987 294.326C218.73 294.326 220.862 293.745 221.54 293.067C222.218 292.292 224.543 291.42 226.674 291.032C228.708 290.645 231.324 289.676 232.389 288.901C233.455 288.126 235.973 287.545 238.008 287.545C240.042 287.545 241.689 287.158 241.689 286.576C241.689 286.092 243.239 285.414 245.273 285.026C247.21 284.639 249.923 283.767 251.279 283.089C252.635 282.314 255.153 281.733 256.8 281.733C258.641 281.733 260.094 281.152 260.481 280.28C260.772 279.408 262.225 278.827 263.775 278.827C265.325 278.827 267.165 278.149 267.843 277.374C268.521 276.599 270.265 275.921 271.815 275.921C273.365 275.921 274.624 275.533 274.624 274.952C274.624 274.468 275.787 273.693 277.143 273.402C278.596 273.015 280.63 271.949 281.793 270.883C282.955 269.915 284.505 268.462 285.28 267.687C286.055 267.009 288.38 266.137 290.414 265.749C293.514 265.168 293.998 265.265 293.998 266.815C294.095 267.88 294.773 269.527 295.742 270.593C297.582 272.724 305.138 278.827 305.913 278.827C306.204 278.827 308.432 280.086 310.757 281.733C313.178 283.283 315.31 284.639 315.6 284.639C315.891 284.639 318.409 286.189 321.219 288.029C324.125 289.87 326.934 291.42 327.612 291.42C328.29 291.42 328.871 291.71 328.871 292.195C328.871 292.873 329.743 293.454 335.265 296.263C336.815 297.038 338.655 298.201 339.333 298.879C340.011 299.557 341.271 300.138 342.046 300.138C344.37 300.138 353.089 307.21 353.767 309.534C354.057 310.794 354.639 311.762 355.123 311.762C356.867 311.762 355.898 313.409 353.573 314.475C349.989 316.122 350.183 321.159 354.057 324.937C355.607 326.487 356.964 328.23 356.964 328.908C356.964 329.49 357.351 330.168 357.932 330.361C358.417 330.555 359.095 332.008 359.482 333.655C359.966 336.464 359.773 336.852 356.092 338.692C353.864 339.855 350.667 340.823 348.923 340.823C347.18 340.823 344.855 341.501 343.789 342.276C342.821 343.051 341.077 343.729 340.011 343.729C338.946 343.729 336.815 344.408 335.265 345.182C333.812 345.957 331.584 346.636 330.421 346.636C329.356 346.636 327.128 347.314 325.578 348.089C324.125 348.864 321.994 349.542 321.025 349.542C319.959 349.542 317.538 350.413 315.6 351.479C313.566 352.545 311.047 353.416 309.982 353.416C308.916 353.416 307.172 354.094 306.204 354.869C305.138 355.644 303.298 356.322 302.135 356.322C300.876 356.322 299.617 356.71 299.326 357.291C299.035 357.776 297.582 358.26 296.129 358.26C294.676 358.26 292.255 359.132 290.608 360.197C289.058 361.263 286.927 362.135 285.958 362.135C284.989 362.135 283.536 362.813 282.761 363.588C281.89 364.363 279.952 365.041 278.402 365.041C276.852 365.041 275.593 365.428 275.593 366.009C275.593 366.494 273.849 367.269 271.815 367.559C269.684 367.947 267.747 368.819 267.456 369.497C267.165 370.272 265.712 370.853 264.162 370.853C262.612 370.853 260.772 371.531 260.094 372.306C259.416 373.081 257.672 373.759 256.219 373.759C254.766 373.759 253.022 374.437 252.344 375.212C251.666 375.987 249.826 376.665 248.276 376.665C246.726 376.665 245.273 377.246 244.982 378.118C244.595 378.893 243.529 379.571 242.464 379.571C240.817 379.571 237.62 380.83 228.611 384.899C222.024 387.902 218.537 389.258 217.665 389.258C217.084 389.258 215.243 390.033 213.403 390.905C211.659 391.777 209.044 393.036 207.59 393.811C206.234 394.489 204.297 395.07 203.425 395.07C202.553 395.07 201.197 395.748 200.422 396.523C199.55 397.298 197.904 397.976 196.741 397.976C195.482 397.976 193.932 398.655 193.254 399.429C192.576 400.204 191.026 400.883 189.863 400.883C188.701 400.883 187.151 401.561 186.473 402.336C185.795 403.111 184.245 403.789 183.082 403.789C181.92 403.789 180.37 404.467 179.692 405.242C179.014 406.017 177.27 406.695 175.817 406.695C174.364 406.695 172.621 407.373 171.942 408.148C171.264 408.923 170.005 409.601 169.133 409.601C168.165 409.601 166.615 410.279 165.549 411.054C164.58 411.829 162.837 412.507 161.771 412.507C160.706 412.507 158.962 413.088 157.896 413.863C156.831 414.541 154.506 415.51 152.762 415.897C148.597 416.769 145.4 418.416 141.913 421.516C140.363 422.969 137.651 424.422 135.907 424.906C133.001 425.584 132.71 426.069 132.42 429.75C132.129 433.14 132.71 434.496 135.519 438.274C137.457 440.696 141.913 444.958 145.594 447.767C149.275 450.48 152.956 453.483 153.925 454.355C154.893 455.323 156.25 456.098 157.025 456.098C157.799 456.098 158.381 456.389 158.381 456.873C158.381 457.551 159.253 458.132 164.774 460.942C168.068 462.588 169.521 463.751 171.749 465.979C172.621 466.948 173.88 467.723 174.655 467.723C175.333 467.723 176.398 468.207 177.077 468.691C181.629 472.566 182.986 473.535 183.954 473.535C184.536 473.535 185.795 474.31 186.667 475.182C189.185 477.894 193.254 480.606 196.935 482.253C198.097 482.737 199.066 483.609 199.066 484.19C199.066 484.675 199.647 485.159 200.422 485.159C201.197 485.159 202.456 485.74 203.134 486.418C203.813 487.097 205.072 487.968 205.847 488.356C208.462 489.712 211.175 491.456 214.565 494.071C216.406 495.524 219.021 497.171 220.377 497.655C221.733 498.237 224.155 499.593 225.705 500.658C227.352 501.724 229.774 503.08 231.324 503.661C232.777 504.242 233.939 505.114 233.939 505.599C233.939 506.083 234.52 506.47 235.198 506.47C236.651 506.47 243.723 509.958 244.498 511.023C245.176 511.992 247.598 513.445 253.313 516.448C255.735 517.707 259.222 519.742 261.063 520.807C262.903 521.97 266.875 524.101 269.781 525.554C272.687 527.007 275.496 528.75 275.884 529.429C276.271 530.107 277.53 530.688 278.499 530.688C279.468 530.688 280.63 531.172 280.921 531.753C281.308 532.238 282.568 533.206 283.633 533.691C286.927 535.144 290.22 537.178 291.383 538.341C291.964 538.922 293.03 539.406 293.611 539.406C294.289 539.406 296.807 540.665 299.132 542.312C301.554 543.862 303.879 545.218 304.363 545.218C304.848 545.218 305.913 545.993 306.785 546.865C309.497 549.868 311.338 551.031 312.791 551.031C313.566 551.031 314.631 551.612 315.019 552.29C315.406 553.065 317.925 554.905 320.444 556.455C323.059 558.005 326.353 560.039 327.709 560.911C329.162 561.88 331.002 562.945 331.777 563.236C332.552 563.624 333.909 564.495 334.877 565.27C336.621 566.82 347.18 567.305 350.958 566.142C353.767 565.173 353.67 563.817 350.764 562.655C349.505 562.171 348.148 561.299 347.761 560.814C347.47 560.233 346.114 559.749 344.952 559.749C343.692 559.749 342.142 559.071 341.464 558.296C340.786 557.521 339.43 556.843 338.461 556.843C337.59 556.843 336.137 556.165 335.265 555.39C334.49 554.615 333.424 553.937 332.94 553.937C332.455 553.937 331.293 553.065 330.324 551.999C329.356 550.934 327.806 550.062 326.74 550.062C325.771 550.062 324.997 549.577 324.997 549.093C324.997 548.512 324.318 548.124 323.543 548.124C322.769 548.124 321.315 547.253 320.444 546.187C319.475 545.121 318.216 544.25 317.634 544.25C316.956 544.25 316.278 543.572 315.891 542.797C315.6 542.022 314.728 541.344 314.05 541.344C313.275 541.344 312.113 540.665 311.435 539.89C310.757 539.116 309.497 538.437 308.529 538.437C307.56 538.437 306.591 537.759 306.204 536.984C305.913 536.209 304.848 535.531 303.782 535.531C302.716 535.531 301.554 535.047 301.263 534.466C300.876 533.981 299.617 533.013 298.551 532.528C295.258 531.075 292.545 529.332 290.802 527.782C287.217 524.488 286.249 523.907 284.505 523.907C283.439 523.907 282.083 523.229 281.405 522.454C280.727 521.679 279.661 521.001 278.983 521.001C278.402 521.001 276.852 520.129 275.593 519.064C274.334 517.998 272.784 517.126 272.009 517.126C271.331 517.126 270.749 516.836 270.749 516.351C270.749 515.964 267.553 514.123 263.678 512.283C259.9 510.442 255.25 507.536 253.41 505.792C251.569 504.049 249.535 502.596 248.954 502.596C248.276 502.596 247.21 501.918 246.532 501.143C245.854 500.368 244.498 499.69 243.432 499.69C242.464 499.69 241.398 499.108 241.107 498.333C240.817 497.558 239.267 496.59 237.717 496.299C236.167 495.912 234.908 495.234 234.908 494.749C234.908 494.265 234.423 493.877 233.939 493.877C233.067 493.877 227.642 490.487 226.189 489.034C225.899 488.743 223.671 487.581 221.249 486.418C218.827 485.256 215.631 482.931 213.984 481.381C212.434 479.734 210.497 478.378 209.722 478.378C208.947 478.378 205.847 476.635 202.941 474.503C200.035 472.372 196.644 470.241 195.482 469.66C194.222 469.176 193.254 468.304 193.254 467.723C193.254 467.238 192.769 466.754 192.285 466.754C191.123 466.754 185.214 462.782 184.729 461.62C184.535 461.232 183.857 460.942 183.179 460.942C182.404 460.942 180.467 459.682 178.723 458.229C177.077 456.679 173.589 454.451 171.071 453.095C168.649 451.836 166.227 450.189 165.84 449.511C165.452 448.93 164.677 448.349 164.096 448.349C163.612 448.349 162.643 447.864 161.965 447.38C161.287 446.799 157.218 443.699 152.956 440.502C144.528 434.399 142.882 431.687 145.594 428.684C147.531 426.553 154.215 423.163 156.54 423.163C157.412 423.163 158.671 422.581 159.253 421.806C159.931 421.031 162.159 420.16 164.29 419.772C166.324 419.385 168.068 418.707 168.068 418.222C168.068 417.738 168.552 417.35 169.133 417.35C170.199 417.35 176.398 414.638 181.823 411.926C183.179 411.151 185.214 410.569 186.279 410.569C187.345 410.569 188.41 409.891 188.798 409.116C189.088 408.245 190.541 407.663 192.285 407.663C194.029 407.663 195.482 407.082 195.772 406.21C196.16 405.435 197.322 404.757 198.582 404.757C199.744 404.757 201.294 404.079 201.972 403.304C202.65 402.529 204.394 401.851 205.847 401.851C207.3 401.851 209.044 401.173 209.722 400.398C210.4 399.623 211.659 398.945 212.531 398.945C213.5 398.945 215.049 398.267 216.115 397.492C217.084 396.717 219.312 396.039 220.958 396.039C222.605 396.039 224.543 395.361 225.221 394.586C225.899 393.811 227.449 393.133 228.805 393.133C230.064 393.133 231.324 392.552 231.614 391.777C231.905 391.002 233.455 390.033 235.101 389.743C236.651 389.355 239.073 388.483 240.526 387.708C241.979 386.933 244.304 386.352 245.854 386.352C247.307 386.352 248.469 385.965 248.469 385.383C248.469 384.899 250.019 384.221 251.86 383.833C253.7 383.543 255.25 382.865 255.25 382.477C255.25 381.993 256.703 381.315 258.447 381.024C260.094 380.637 262.419 379.668 263.484 378.99C264.55 378.215 266.487 377.634 267.843 377.634C269.2 377.634 271.137 376.956 272.106 376.181C273.171 375.406 275.012 374.728 276.271 374.728C277.53 374.728 278.79 374.05 279.08 373.275C279.468 372.306 281.018 371.822 283.343 371.822C285.377 371.822 287.508 371.144 288.186 370.369C288.864 369.594 290.317 368.916 291.48 368.916C292.642 368.916 294.483 368.237 295.548 367.462C296.517 366.688 299.035 366.009 300.973 366.009C302.91 366.009 304.944 365.428 305.332 364.75C305.719 363.975 307.851 363.103 309.885 362.813C312.016 362.425 313.953 361.747 314.244 361.263C314.535 360.778 316.472 360.1 318.506 359.713C320.444 359.325 322.381 358.647 322.672 358.163C322.962 357.679 324.318 357.291 325.675 357.291C326.934 357.291 329.162 356.419 330.518 355.354C331.874 354.288 333.909 353.416 335.071 353.416C336.137 353.416 337.977 352.738 338.946 351.963C340.011 351.188 342.239 350.51 343.983 350.51C345.63 350.51 347.567 349.832 348.245 349.057C348.923 348.282 350.861 347.604 352.604 347.604C354.348 347.604 356.285 346.926 356.964 346.151C357.642 345.376 359.191 344.698 360.451 344.698C361.613 344.698 362.873 344.311 363.26 343.826C364.326 341.986 370.622 345.764 376.822 351.866C383.796 358.841 384.959 361.457 381.181 361.941C379.922 362.135 377.984 362.91 376.919 363.685C375.853 364.46 374.206 365.041 373.238 365.041C372.269 365.041 371.494 365.428 371.494 365.913C371.494 366.397 370.235 367.269 368.588 367.85C367.038 368.334 365.682 369.303 365.682 369.787C365.682 370.369 364.907 370.853 363.841 370.853C362.873 370.853 361.516 371.531 360.838 372.306C360.16 373.081 358.998 373.759 358.223 373.759C357.545 373.759 356.673 374.437 356.382 375.212C355.995 375.987 355.123 376.665 354.348 376.665C353.573 376.665 351.345 378.312 349.311 380.249C347.373 382.284 344.661 384.802 343.402 385.965C337.783 390.614 326.45 403.885 320.637 412.507C317.15 417.641 314.341 422.097 314.341 422.581C314.341 422.969 313.663 423.938 312.888 424.712C312.113 425.584 311.435 427.037 311.435 427.909C311.435 428.878 310.757 430.234 309.982 430.912C309.207 431.59 308.529 432.85 308.529 433.818C308.529 434.787 307.851 436.821 307.076 438.274C306.301 439.824 305.623 441.955 305.623 443.021C305.623 444.086 304.944 445.83 304.17 446.799C303.395 447.864 302.716 450.092 302.716 451.836C302.716 453.676 302.135 455.13 301.263 455.517C300.198 455.904 299.81 457.551 299.81 461.717C299.81 464.816 299.132 469.563 298.357 472.179C297.582 474.794 296.904 479.056 296.904 481.672C296.904 487.387 294.095 490.874 289.639 490.971C288.089 490.971 285.861 491.649 284.892 492.424C283.827 493.199 281.793 493.877 280.34 493.877C278.983 493.877 277.24 494.459 276.562 495.234C275.98 496.009 274.14 496.783 272.493 496.977C269.2 497.268 263.291 503.564 264.356 505.405C265.422 507.052 273.365 506.761 274.043 505.017C274.334 504.146 275.787 503.564 277.337 503.564C278.887 503.564 280.727 502.886 281.405 502.111C282.083 501.336 283.73 500.658 284.989 500.658C286.346 500.658 288.574 500.077 289.93 499.399C291.383 498.624 294.289 497.268 296.42 496.299C298.551 495.427 300.973 494.265 301.748 493.877C303.491 493.006 304.073 488.259 302.91 483.997C302.038 480.509 303.298 461.62 304.654 458.52C305.138 457.454 305.816 455.226 306.107 453.483C306.398 451.836 307.366 449.899 308.141 449.22C308.916 448.639 309.497 447.38 309.497 446.411C309.497 445.443 310.175 444.183 310.95 443.505C311.725 442.827 312.403 441.083 312.403 439.63C312.403 438.177 313.082 436.434 313.856 435.756C314.631 435.077 315.31 433.915 315.31 433.237C315.31 432.559 316.278 430.04 317.441 427.812C319.475 423.937 320.056 423.066 322.575 419.966C323.834 418.513 326.934 413.766 328.871 410.376C331.681 405.532 344.274 391.583 350.279 386.836C353.864 384.027 358.223 381.024 359.87 380.249C360.645 379.862 362.679 378.699 364.229 377.634C365.876 376.568 367.813 375.503 368.588 375.115C369.363 374.825 370.719 374.146 371.494 373.662C372.269 373.178 373.625 372.5 374.4 372.209C375.175 371.918 377.112 371.047 378.565 370.175C380.309 369.303 384.184 368.722 389.609 368.625C397.552 368.528 398.036 368.625 398.811 370.756C399.586 372.887 399.974 372.984 405.011 372.5C408.014 372.209 411.114 371.337 412.082 370.562C412.954 369.787 414.601 368.819 415.86 368.528C417.023 368.141 417.991 367.366 417.991 366.881C417.991 366.397 419.057 366.009 420.413 366.009C421.672 366.009 423.125 365.234 423.61 364.363C425.063 361.941 438.043 361.844 439.4 364.266C439.981 365.331 441.531 366.009 443.468 366.009C445.212 366.009 447.44 366.688 448.408 367.462C449.474 368.237 451.315 368.916 452.477 368.916C453.639 368.916 456.061 369.69 457.708 370.562C461.292 372.597 469.72 380.54 470.592 382.865C470.979 383.737 471.657 384.415 472.238 384.415C472.723 384.415 473.207 384.996 473.207 385.674C473.207 386.352 474.757 389.161 476.598 392.067C479.407 396.33 479.988 398.073 479.988 402.336C479.988 405.435 480.472 407.663 481.15 407.857C482.797 408.438 482.313 418.222 480.375 424.131C478.244 430.621 476.113 431.784 473.401 428.006C472.238 426.456 471.27 424.519 471.27 423.841C471.27 423.066 470.592 421.903 469.817 421.225C469.042 420.547 468.364 419.288 468.364 418.319C468.364 417.35 467.686 416.091 466.911 415.413C466.136 414.735 465.458 413.669 465.458 413.088C465.458 412.507 464.198 410.569 462.551 408.826C461.002 407.082 459.645 405.242 459.645 404.854C459.645 402.723 449.087 392.164 444.824 390.033C442.596 388.871 440.175 387.321 439.496 386.643C438.818 385.965 437.365 385.383 436.397 385.383C435.428 385.383 434.459 384.899 434.265 384.318C434.072 383.833 431.941 383.058 429.616 382.865C427.194 382.574 424.288 381.896 423.125 381.315C422.06 380.734 419.638 380.54 417.798 380.83C410.436 382.09 402.589 384.027 401.911 384.608C401.524 385.093 399.489 385.383 397.455 385.383C395.13 385.383 393.483 385.868 393.193 386.74C392.902 387.515 391.449 388.483 389.899 388.774C388.349 389.064 386.896 390.033 386.606 390.808C386.315 391.583 385.249 392.164 384.281 392.164C383.215 392.164 381.859 392.842 381.181 393.617C380.503 394.392 379.34 395.07 378.469 395.07C377.694 395.07 375.466 396.523 373.431 398.17C371.494 399.914 368.297 402.723 366.36 404.467C364.422 406.113 362.776 407.857 362.776 408.245C362.776 408.632 360.935 410.763 358.61 412.894C356.382 415.122 353.379 418.61 352.12 420.741C350.764 422.872 348.73 425.778 347.47 427.134C346.211 428.587 344.274 431.396 343.208 433.431C342.142 435.562 340.593 437.596 339.914 437.984C339.139 438.371 338.558 439.63 338.558 440.696C338.558 441.762 337.88 442.827 337.105 443.118C336.33 443.505 335.652 444.764 335.652 446.024C335.652 447.38 334.974 448.639 334.199 448.93C333.424 449.317 332.746 450.286 332.746 451.255C332.746 452.223 332.068 453.676 331.293 454.548C330.518 455.323 329.84 456.776 329.84 457.745C329.84 458.714 329.259 460.36 328.484 461.426C327.806 462.492 326.837 465.204 326.45 467.432C326.062 469.757 325.384 471.791 324.9 472.179C324.415 472.469 324.028 474.794 324.028 477.506C324.028 481.962 324.222 482.253 326.45 482.253C329.162 482.253 330.809 479.347 330.809 474.407C330.809 472.857 331.196 471.597 331.777 471.597C332.262 471.597 332.94 470.435 333.327 468.885C333.909 466.366 335.652 462.007 338.268 456.873C338.946 455.517 339.527 453.386 339.527 452.32C339.527 451.158 340.205 449.995 340.98 449.705C341.755 449.317 342.433 448.155 342.433 446.896C342.433 445.733 343.111 444.183 343.886 443.505C344.661 442.827 345.339 441.665 345.339 440.89C345.339 440.115 346.695 437.79 348.245 435.756C349.892 433.721 351.151 431.687 351.151 431.203C351.151 430.718 352.507 428.878 354.251 427.037C355.898 425.197 358.901 421.613 360.838 419.191C362.679 416.769 368.007 411.538 372.463 407.663C377.016 403.692 380.89 400.204 381.181 399.914C382.053 399.042 390.577 395.07 391.74 395.07C392.321 395.07 392.805 394.586 392.805 394.102C392.805 393.52 394.355 393.133 396.196 393.133C398.327 393.133 399.877 392.552 400.167 391.68C400.555 390.808 402.686 390.033 405.495 389.646C408.111 389.258 410.532 388.58 410.823 388.193C411.501 387.03 423.513 387.03 424.191 388.193C424.482 388.58 426.516 389.258 428.744 389.549C430.972 389.839 433.103 390.421 433.394 390.905C433.684 391.292 436.106 392.745 438.721 394.102C443.274 396.427 455.771 407.76 455.771 409.698C455.771 410.182 456.158 410.569 456.642 410.569C458.192 410.569 464.489 421.419 464.489 424.131C464.489 425.584 465.167 427.328 465.942 428.006C466.717 428.684 467.395 429.75 467.395 430.428C467.395 432.559 471.463 442.536 472.335 442.536C473.691 442.536 485.8 429.943 485.8 428.587C485.8 427.909 486.866 426.069 488.222 424.519C489.578 422.969 490.644 421.516 490.644 421.225C490.644 420.935 492.678 419.578 495.293 418.319C497.812 416.963 500.234 415.316 500.621 414.638C501.009 414.057 502.268 413.476 503.237 413.476C504.302 413.476 505.174 413.185 505.174 412.701C505.174 412.313 506.433 411.344 507.983 410.376C511.567 408.438 514.086 404.564 513.311 402.432C512.536 400.495 507.499 400.301 506.724 402.336C506.433 403.111 505.368 403.789 504.496 403.789C503.527 403.789 501.299 405.048 499.556 406.695C497.812 408.245 495.971 409.601 495.487 409.601C495.003 409.601 494.228 410.279 493.743 411.151C493.259 412.023 491.419 412.701 489.578 412.797C486.575 412.991 486.284 412.701 485.994 410.085C485.8 408.438 485.025 405.823 484.25 404.079C483.572 402.432 482.894 400.301 482.894 399.236C482.894 398.267 482.216 395.748 481.441 393.617C480.666 391.486 480.085 388.289 479.988 386.546C479.988 384.899 479.6 383.446 479.116 383.446C478.632 383.446 477.857 382.477 477.566 381.218C476.694 378.312 466.426 367.947 464.392 367.947C463.52 367.947 462.261 367.269 461.583 366.494C460.905 365.719 459.452 365.041 458.289 365.041C457.224 365.041 455.092 364.46 453.736 363.685C452.38 363.006 450.055 362.135 448.602 361.747C447.052 361.36 445.212 360.391 444.437 359.713C443.565 358.841 441.143 358.26 438.14 358.26C434.944 358.26 432.522 357.679 431.456 356.71C429.809 355.257 429.906 355.063 432.425 352.545C433.975 350.995 435.912 348.67 436.881 347.314C438.915 344.214 441.531 344.02 444.146 346.636C445.212 347.701 446.762 348.573 447.537 348.573C448.312 348.573 448.99 348.96 448.99 349.445C448.99 349.929 450.152 350.51 451.702 350.801C453.155 351.188 456.545 353.416 459.161 355.838C461.873 358.357 464.973 361.069 466.232 361.844C467.395 362.619 468.364 363.781 468.364 364.46C468.364 365.041 470.01 366.3 472.045 367.172C473.982 368.141 477.082 370.175 478.826 371.822C480.569 373.372 482.313 374.728 482.603 374.728C482.894 374.728 484.735 375.89 486.672 377.343C491.419 381.024 493.55 382.38 496.746 383.737C498.199 384.318 499.362 385.19 499.362 385.577C499.362 385.965 499.943 386.352 500.621 386.352C501.299 386.352 504.69 389.161 508.177 392.552C514.474 398.655 519.22 401.851 522.126 401.851C522.901 401.851 523.579 402.239 523.579 402.82C523.579 403.304 525.614 404.757 528.229 406.017C534.816 409.31 539.078 411.926 539.078 412.701C539.078 413.185 539.66 413.476 540.338 413.476C541.016 413.476 542.275 414.251 543.05 415.122C546.053 418.513 551.478 423.163 552.35 423.163C552.834 423.163 554.674 424.422 556.515 426.069C558.355 427.619 560.39 428.878 561.068 428.975C561.649 428.975 562.327 429.265 562.521 429.653C562.908 430.718 567.752 433.915 572.402 436.24C574.436 437.306 576.276 438.759 576.567 439.34C576.858 440.018 577.826 440.599 578.698 440.599C579.57 440.599 580.829 441.083 581.41 441.665C582.767 443.021 586.254 445.055 589.741 446.508C591.194 447.089 592.357 447.961 592.357 448.446C592.357 448.93 592.938 449.317 593.616 449.317C594.391 449.317 595.941 450.189 597.2 451.255C598.46 452.32 600.009 453.192 600.784 453.192C601.463 453.192 602.044 453.58 602.044 454.064C602.044 454.548 603.4 455.226 604.95 455.614C606.597 456.001 607.856 456.583 607.856 457.067C607.856 457.551 608.631 458.132 609.6 458.423C610.568 458.811 612.603 460.942 614.056 463.363C616.768 467.626 616.962 467.723 621.999 467.723C626.261 467.723 627.327 468.11 628.295 469.757C629.167 471.404 628.973 472.082 627.327 473.632C626.261 474.6 624.614 475.472 623.549 475.472C622.58 475.472 620.933 476.15 619.868 476.925C618.899 477.7 617.155 478.378 616.09 478.378C615.024 478.378 613.377 479.25 612.409 480.316C611.537 481.381 609.6 482.253 608.147 482.253C606.597 482.253 604.562 482.931 603.594 483.706C602.528 484.481 600.784 485.159 599.622 485.159C598.46 485.159 597.103 485.643 596.522 486.225C595.941 486.806 593.616 487.29 591.485 487.29C589.354 487.29 587.223 487.775 586.835 488.453C585.673 490.293 578.02 493.877 575.114 493.877C573.661 493.877 571.627 494.555 570.658 495.33C569.592 496.105 567.752 496.783 566.589 496.783C565.427 496.783 564.265 497.462 563.877 498.237C563.586 499.011 562.133 499.69 560.68 499.69C559.227 499.69 557.096 500.368 556.128 501.143C555.062 501.918 553.028 502.596 551.575 502.596C550.218 502.596 548.475 503.274 547.797 504.049C547.119 504.824 545.181 505.502 543.438 505.502C541.5 505.502 540.047 506.083 539.66 506.955C539.369 507.73 538.11 508.408 536.85 508.408C535.494 508.408 533.944 509.086 533.266 509.861C532.588 510.636 530.651 511.508 528.81 511.895C526.97 512.186 525.226 512.864 524.935 513.348C524.645 513.833 523.192 514.22 521.642 514.22C520.092 514.22 518.445 514.898 517.961 515.77C517.477 516.545 515.345 517.514 513.117 517.804C510.889 518.095 509.049 518.676 509.049 519.16C509.049 519.548 507.402 520.226 505.465 520.613C503.43 521.001 501.202 521.873 500.524 522.648C499.846 523.326 498.199 523.907 497.037 523.907C495.778 523.907 494.228 524.585 493.55 525.36C492.872 526.135 491.128 526.813 489.675 526.813C488.222 526.813 486.478 527.491 485.8 528.266C485.122 529.041 482.991 529.719 480.957 529.719C478.922 529.719 476.791 530.397 476.113 531.172C475.435 531.947 473.885 532.625 472.723 532.625C471.56 532.625 470.01 533.303 469.332 534.078C468.654 534.853 466.911 535.531 465.458 535.531C464.004 535.531 462.261 536.209 461.583 536.984C460.905 537.759 459.161 538.437 457.611 538.437C456.158 538.437 454.317 539.116 453.446 539.89C452.671 540.665 450.443 541.344 448.505 541.344C446.374 541.344 444.824 541.925 444.534 542.797C444.146 543.572 442.79 544.25 441.24 544.25C439.69 544.25 437.85 544.928 436.978 545.703C436.203 546.478 434.072 547.446 432.328 547.834C430.584 548.124 428.938 548.802 428.647 549.19C428.356 549.577 426.419 550.062 424.385 550.256C422.351 550.352 420.51 551.031 420.219 551.709C419.929 552.387 417.991 553.259 415.957 553.549C413.923 553.937 411.695 554.808 411.114 555.487C410.532 556.261 408.886 556.843 407.433 556.843C406.076 556.843 404.042 557.521 403.073 558.296C402.008 559.071 400.361 559.749 399.296 559.749C398.327 559.749 396.874 560.427 396.099 561.202C395.227 561.977 393.386 562.655 391.837 562.655C390.287 562.655 388.93 563.333 388.543 564.108C388.252 564.883 386.799 565.561 385.249 565.561C383.796 565.561 381.665 566.239 380.6 567.014C379.631 567.789 377.597 568.467 376.241 568.467C374.788 568.467 373.141 569.145 372.463 569.92C371.785 570.695 369.847 571.373 368.103 571.373C366.263 571.373 364.713 571.954 364.422 572.729C364.132 573.407 362.194 574.376 360.16 574.764C358.126 575.151 355.995 575.829 355.317 576.41C354.736 576.895 352.411 577.282 350.279 577.379C348.148 577.379 345.823 578.057 345.242 578.735C344.661 579.51 343.402 580.091 342.53 580.091C338.752 580.188 334.393 586.194 331.39 595.203C329.549 601.209 329.259 619.227 331.002 623.392C331.777 625.233 332.165 636.954 332.359 660.881C332.649 690.523 332.94 695.851 334.199 697.304C334.974 698.176 335.652 699.241 335.652 699.629C335.652 700.016 336.815 701.857 338.171 703.697C341.077 707.378 344.177 707.959 348.826 705.538C350.376 704.763 352.604 704.085 353.67 704.085C354.832 704.085 356.285 703.406 356.964 702.632C357.642 701.857 359.579 701.178 361.226 701.178C362.873 701.178 365.101 700.5 366.069 699.725C367.135 698.95 369.169 698.272 370.622 698.272C371.978 698.272 373.722 697.594 374.4 696.819C375.078 696.044 376.531 695.366 377.694 695.366C378.856 695.366 380.697 694.688 381.762 693.913C382.731 693.138 384.378 692.46 385.346 692.46C386.412 692.46 388.349 691.879 389.705 691.201C393.774 689.167 400.652 685.97 411.404 681.417C413.342 680.545 415.57 679.867 416.345 679.867C417.216 679.867 417.991 679.48 418.185 679.092C418.573 678.027 426.419 674.055 428.066 674.055C428.841 674.055 430.681 673.474 432.231 672.699C433.684 671.924 436.493 670.665 438.334 669.89C440.175 669.115 444.534 667.08 448.021 665.434C451.508 663.787 454.996 662.431 455.867 662.431C456.739 662.431 457.999 661.753 458.677 660.978C459.355 660.203 460.517 659.525 461.292 659.525C462.067 659.525 464.295 658.653 466.232 657.684C468.17 656.618 471.56 655.069 473.691 654.1C475.823 653.228 478.729 651.872 480.182 651.097C481.538 650.419 483.378 649.838 484.153 649.838C484.928 649.838 487.931 648.481 490.934 646.931C493.937 645.285 497.037 644.025 497.812 644.025C498.49 644.025 499.653 643.347 500.331 642.572C501.009 641.797 502.559 641.119 503.721 641.119C504.883 641.119 506.433 640.441 507.111 639.666C507.79 638.891 509.243 638.213 510.405 638.213C511.471 638.213 513.311 637.535 514.28 636.76C515.345 635.985 517.186 635.307 518.348 635.307C519.608 635.307 520.77 634.92 521.061 634.435C521.836 633.273 529.101 629.786 532.588 628.914C534.041 628.623 535.494 627.945 535.785 627.461C536.075 626.976 537.335 626.589 538.594 626.589C539.853 626.589 541.5 625.911 542.372 625.136C543.147 624.361 544.891 623.683 546.15 623.683C547.506 623.683 549.056 623.005 549.734 622.23C550.412 621.455 551.478 620.777 552.059 620.777C552.64 620.777 554.771 619.905 556.806 618.839C558.743 617.774 560.971 616.902 561.746 616.902C562.424 616.902 564.361 616.224 565.814 615.449C567.364 614.674 569.592 613.996 570.852 613.996C572.014 613.996 572.983 613.511 572.983 613.027C572.983 612.446 573.564 612.058 574.242 612.058C574.92 612.058 577.051 611.187 579.086 610.121C581.023 609.055 583.445 608.184 584.51 608.184C585.479 608.184 586.835 607.506 587.513 606.731C588.191 605.956 589.548 605.278 590.419 605.278C591.388 605.278 593.519 604.599 595.166 603.824C596.813 603.05 599.525 601.693 601.172 600.918C602.819 600.143 605.144 599.465 606.403 599.465C607.565 599.465 609.115 598.787 609.793 598.012C610.471 597.237 612.409 596.559 614.152 596.559C615.896 596.559 617.543 595.978 617.833 595.203C618.124 594.525 620.158 593.653 622.289 593.266C624.517 592.975 626.261 592.2 626.261 591.716C626.261 591.135 626.842 590.747 627.52 590.747C632.364 590.747 641.76 582.901 641.76 578.832C641.76 577.573 644.085 576.12 647.863 574.86C650.769 573.892 651.641 569.726 650.866 558.78C650.575 553.162 649.8 548.124 649.413 547.543C648.929 546.962 648.057 542.603 647.572 537.856C647.088 533.11 646.216 527.297 645.732 524.876C645.151 522.454 644.763 512.283 644.666 502.305C644.666 490.971 644.279 483.319 643.601 482.059C643.02 480.994 642.438 477.506 642.342 474.31C642.148 468.207 641.179 466.754 637.014 466.754C635.754 466.754 633.139 465.591 631.202 464.042C629.264 462.588 627.036 460.942 626.067 460.457C625.196 459.876 620.74 456.97 616.284 453.87C611.828 450.867 607.856 448.349 607.468 448.349C607.081 448.349 606.112 447.767 605.434 447.089C602.528 444.571 601.366 443.796 594.488 439.534C590.613 437.209 586.254 434.496 584.801 433.624C583.348 432.656 581.12 431.396 579.764 430.815C578.408 430.331 576.083 428.781 574.436 427.619C572.886 426.359 570.561 425.1 569.399 424.712C568.139 424.325 567.171 423.55 567.171 423.066C567.171 422.581 566.783 422.194 566.299 422.194C565.814 422.194 563.102 420.644 560.293 418.803C557.387 416.963 554.771 415.413 554.287 415.413C553.415 415.413 553.125 415.122 547.312 410.085C545.181 408.245 542.953 406.695 542.275 406.695C541.597 406.695 540.725 406.113 540.338 405.435C539.95 404.757 537.625 403.111 535.204 401.948C528.423 398.558 527.067 397.686 524.548 395.264C523.192 394.005 520.77 392.358 519.026 391.68C517.38 391.002 515.055 389.452 513.989 388.386C512.924 387.321 509.727 384.802 506.918 382.865C504.108 380.83 501.493 378.893 501.202 378.409C500.912 377.924 498.878 376.568 496.65 375.406C494.518 374.243 491.225 372.015 489.481 370.562C486.769 368.237 479.213 362.813 471.27 357.291C469.139 355.838 466.136 353.416 463.52 351.285C462.745 350.607 460.614 349.251 458.677 348.185C456.836 347.217 455.092 346.151 454.802 345.764C453.93 344.698 448.602 341.211 446.859 340.533C445.115 339.855 444.437 335.98 445.987 335.98C446.471 335.98 447.246 335.011 447.633 333.752C448.021 332.589 448.505 331.427 448.893 331.136C449.183 330.846 451.121 328.23 453.155 325.227C455.189 322.224 458.774 317.962 461.098 315.831C463.52 313.603 465.458 311.569 465.458 311.084C465.458 310.697 457.514 302.269 447.924 292.388L430.488 274.564L421.188 274.758C414.504 274.855 411.404 275.339 410.242 276.405C409.079 277.471 406.27 277.858 399.296 277.858C392.902 277.858 388.64 278.342 386.024 279.408C382.343 280.958 381.956 280.861 380.115 279.214C378.081 277.471 378.081 276.696 378.469 253.641C378.856 235.042 379.34 229.133 380.503 226.517C381.472 224.192 382.053 219.93 382.053 213.73C382.15 208.596 382.537 203.268 383.118 201.912C383.603 200.556 384.281 186.026 384.571 169.655C384.862 153.187 385.54 138.075 386.121 135.944C387.381 130.616 386.509 86.8311 384.862 74.4317C384.184 68.8133 383.021 63.2917 382.343 62.1293C381.762 60.9669 381.181 58.9326 381.181 57.6733C381.181 56.3171 380.503 54.7672 379.728 54.0891C378.953 53.411 378.275 51.8611 378.275 50.6987C378.275 49.4394 377.597 48.2769 376.822 47.8895C376.047 47.5989 375.369 46.9208 375.369 46.3395C375.369 44.5959 365.972 32.8747 360.645 28.128C355.704 23.4783 352.798 21.8315 351.733 22.8002ZM432.425 286.673C434.847 289.482 439.787 294.713 443.468 298.491C447.052 302.172 449.958 305.757 449.958 306.435C449.958 307.113 450.636 307.985 451.508 308.275C452.477 308.663 452.864 309.728 452.671 311.472C452.38 313.894 452.089 314.184 448.99 313.894C447.149 313.7 444.921 312.925 444.049 312.15C443.177 311.375 440.465 310.794 437.656 310.794C433.394 310.794 432.522 310.406 429.809 307.403C428.066 305.563 426.71 303.819 426.71 303.529C426.71 302.85 422.932 297.426 421.188 295.488C420.51 294.81 419.929 293.648 419.929 292.97C419.929 292.195 419.251 291.129 418.476 290.451C417.023 289.289 416.441 283.573 417.701 282.411C417.991 282.023 420.51 281.733 423.125 281.733C427.775 281.733 428.26 281.927 432.425 286.673ZM398.327 286.092C398.617 286.964 398.133 288.417 397.261 289.386C396.389 290.354 395.711 291.904 395.711 292.97C395.711 294.035 394.452 295.973 392.805 297.232C390.771 298.976 389.996 300.526 389.899 302.754C389.899 304.497 389.512 305.95 388.93 305.95C388.446 305.95 387.962 306.628 387.962 307.5C387.962 308.566 389.027 308.081 391.449 305.757C397.164 300.526 399.586 297.813 399.586 296.651C399.586 296.07 400.167 295.004 400.942 294.326C401.717 293.745 402.492 292.001 402.686 290.645C402.977 288.417 403.461 288.029 406.464 287.739C409.951 287.448 410.048 287.545 413.051 293.648C414.698 297.038 416.926 300.913 417.991 302.172C419.057 303.432 420.219 304.982 420.704 305.466C421.382 306.338 423.804 312.44 423.804 313.312C423.804 313.506 417.023 313.7 408.692 313.7C395.227 313.7 393.29 313.506 390.868 311.762C388.252 309.922 388.156 309.922 385.928 311.666C382.44 314.378 377.597 315.347 370.525 314.765C365.004 314.281 364.229 313.894 363.938 312.053C363.744 310.6 364.907 308.566 367.813 305.757C370.138 303.432 372.753 299.944 373.819 298.007C375.853 293.842 381.472 288.223 385.54 286.189C389.415 284.155 397.552 284.155 398.327 286.092ZM443.662 321.449C444.146 323.871 443.759 324.84 440.853 327.843C438.915 329.877 437.365 332.008 437.365 332.589C437.365 333.268 436.687 334.333 435.912 335.011C435.137 335.689 434.459 337.045 434.459 338.111C434.459 339.08 433.781 340.145 433.006 340.436C432.231 340.823 431.553 341.598 431.553 342.373C431.553 343.148 431.166 343.729 430.584 343.729C430.1 343.729 429.035 344.892 428.26 346.345C427.485 347.895 425.838 350.22 424.579 351.673C423.319 353.029 421.576 355.354 420.607 356.613C419.444 358.163 417.604 359.132 415.376 359.422C410.823 360.004 410.242 357.969 413.923 354.869C415.57 353.513 417.12 351.092 417.507 349.542C417.895 347.895 418.476 346.636 418.96 346.636C419.444 346.636 420.026 345.279 420.413 343.729C420.801 342.083 421.479 340.823 421.963 340.823C422.447 340.823 423.125 339.661 423.416 338.111C423.804 336.658 425.16 333.849 426.322 331.911C427.581 329.974 428.841 327.165 429.228 325.615C430.391 320.771 433.297 318.543 438.431 318.543C442.693 318.543 443.081 318.737 443.662 321.449ZM375.369 320.674C384.474 320.578 385.734 320.771 387.768 322.612C389.512 324.355 389.899 325.712 389.899 330.749C389.899 334.817 390.384 337.045 391.352 337.917C392.127 338.595 392.805 340.145 392.805 341.308C392.805 342.47 393.483 344.02 394.258 344.698C395.033 345.376 395.711 346.732 395.711 347.701C395.711 348.67 396.583 350.026 397.649 350.704C400.652 352.641 400.167 355.354 396.777 355.354C393.871 355.354 387.962 352.545 387.962 351.188C387.962 350.801 386.412 349.057 384.474 347.314C382.634 345.57 378.953 341.598 376.337 338.402C373.819 335.205 369.944 331.524 367.716 330.168C365.585 328.811 363.744 327.068 363.744 326.196C363.744 325.324 363.066 324.065 362.291 323.387C359.966 321.449 360.451 319.221 362.969 320.093C364.229 320.481 369.75 320.674 375.369 320.674ZM411.404 320.965C416.151 321.062 420.219 321.449 420.51 321.643C421.479 322.709 419.154 333.946 417.701 335.495C416.829 336.367 416.054 337.917 416.054 338.886C416.054 339.855 415.763 340.823 415.279 341.017C414.892 341.114 413.148 344.311 411.307 347.895C408.208 354.288 405.592 356.71 402.783 355.644C402.105 355.354 401.136 352.738 400.458 349.735C399.877 346.636 398.811 343.148 398.036 341.792C397.358 340.436 396.486 337.336 396.196 334.817C395.905 332.299 395.227 329.974 394.646 329.683C394.161 329.296 393.774 327.358 393.774 325.324C393.774 320.868 395.711 319.221 399.974 320.093C401.427 320.384 406.561 320.771 411.404 320.965ZM633.333 487.871C633.72 491.456 634.398 508.311 634.786 525.457C635.27 545.993 635.851 557.036 636.529 557.908C637.111 558.683 637.886 560.911 638.273 562.849C638.66 564.786 639.339 566.53 639.823 566.723C640.404 566.917 641.082 569.242 641.373 571.954C641.954 576.798 641.954 576.895 639.242 577.476C637.692 577.767 635.076 577.767 633.333 577.476C631.008 577.088 630.039 577.379 629.555 578.541C629.264 579.413 627.908 580.091 626.649 580.091C625.292 580.091 624.033 580.769 623.743 581.544C623.452 582.319 621.708 583.191 619.868 583.579C618.027 583.869 616.574 584.547 616.574 585.032C616.574 585.516 615.993 585.904 615.315 585.904C614.637 585.904 612.506 586.775 610.471 587.841C608.534 588.907 606.015 589.778 604.95 589.778C603.884 589.778 603.012 590.166 603.012 590.747C603.012 591.231 601.85 591.91 600.397 592.297C597.781 592.878 593.422 594.622 588.288 597.237C586.932 597.915 584.801 598.497 583.735 598.497C582.573 598.497 581.41 599.175 581.12 599.95C580.732 600.725 579.57 601.403 578.408 601.403C577.245 601.403 575.405 602.081 574.339 602.856C573.37 603.631 571.336 604.309 569.98 604.309C568.527 604.309 566.88 604.987 566.202 605.762C565.524 606.537 563.49 607.215 561.746 607.215C559.421 607.215 558.452 607.699 558.452 608.668C558.452 609.54 557.581 610.121 556.418 610.121C554.578 610.121 549.734 612.058 543.728 615.061C542.76 615.546 540.919 615.933 539.563 615.933C538.207 615.933 536.85 616.611 536.56 617.386C536.269 618.161 534.429 619.033 532.491 619.42C530.457 619.808 528.617 620.486 528.326 620.97C528.035 621.455 526.098 622.133 523.967 622.423C521.933 622.811 519.608 623.586 518.93 624.361C518.251 625.039 516.605 625.62 515.442 625.62C514.183 625.62 512.633 626.298 511.955 627.073C511.277 627.848 509.533 628.526 508.08 628.526C506.627 628.526 504.883 629.204 504.205 629.979C503.527 630.754 501.396 631.432 499.362 631.432C497.328 631.432 495.197 632.11 494.518 632.885C493.84 633.66 491.806 634.338 489.966 634.338C487.931 634.338 486.478 634.92 486.188 635.791C485.8 636.566 484.444 637.245 482.991 637.245C481.538 637.245 479.504 637.923 478.438 638.698C477.469 639.473 475.726 640.151 474.66 640.151C473.595 640.151 471.56 640.732 470.107 641.507C468.751 642.282 465.748 643.154 463.617 643.541C461.389 643.929 459.645 644.607 459.645 645.091C459.645 645.575 458.87 645.963 457.999 645.963C457.03 646.06 454.511 646.835 452.38 647.9C450.249 648.966 447.827 649.741 446.955 649.838C446.084 649.838 442.984 651.097 439.981 652.744C436.978 654.294 433.684 655.65 432.619 655.65C431.65 655.65 430.294 656.328 429.616 657.103C428.938 657.878 427.775 658.556 427 658.556C425.741 658.556 423.9 659.428 417.991 662.527C417.216 662.915 413.051 665.046 408.789 667.274C404.527 669.405 399.78 672.118 398.133 673.086C396.583 674.152 394.161 675.508 392.805 676.186C390.384 677.445 389.027 678.317 386.702 680.448C386.024 681.03 384.378 681.901 383.118 682.289C381.762 682.676 380.503 683.258 380.212 683.645C378.759 685.389 373.238 688.585 371.591 688.585C370.622 688.585 369.557 689.264 369.169 690.038C368.878 690.813 367.619 691.492 366.36 691.492C365.004 691.492 363.454 692.17 362.776 692.945C362.098 693.72 360.741 694.398 359.773 694.398C358.901 694.398 357.448 695.076 356.576 695.851C355.801 696.626 353.67 697.304 351.829 697.304C349.989 697.304 347.955 697.982 347.277 698.757C345.533 700.791 343.499 700.597 341.367 697.982C339.721 695.948 339.624 693.332 339.333 655.65C339.043 597.915 339.236 592.006 341.561 589.681C342.53 588.713 344.661 587.841 346.211 587.841C347.761 587.841 349.505 587.163 350.183 586.388C350.764 585.71 353.282 584.741 355.607 584.354C357.932 584.063 359.87 583.385 359.87 582.997C359.87 582.513 361.226 581.932 362.873 581.544C364.519 581.157 366.941 580.285 368.394 579.51C369.847 578.735 371.688 578.154 372.463 578.154C373.238 578.154 374.788 577.476 375.756 576.701C376.822 575.926 378.856 575.248 380.309 575.248C381.762 575.248 384.378 574.473 386.218 573.601C387.962 572.729 390.577 571.47 392.03 570.695C393.386 570.017 395.711 569.436 397.164 569.436C398.521 569.436 400.361 568.758 401.136 567.983C402.008 567.208 403.848 566.53 405.301 566.53C406.851 566.53 408.595 565.852 409.273 565.077C409.951 564.302 411.695 563.624 413.148 563.624C414.601 563.624 416.345 562.945 417.023 562.171C417.701 561.396 419.444 560.717 420.897 560.717C422.351 560.717 424.094 560.136 424.675 559.361C425.353 558.586 427.581 557.715 429.713 557.327C431.747 556.94 433.684 556.358 433.975 555.874C434.265 555.487 436.397 554.808 438.818 554.518C441.143 554.13 443.371 553.452 443.662 552.871C444.049 552.387 445.018 551.999 445.89 551.999C446.859 551.999 449.183 551.127 451.218 550.062C453.155 548.996 455.577 548.124 456.449 548.124C457.417 548.124 459.064 547.446 460.033 546.671C461.098 545.896 462.842 545.218 463.908 545.218C465.07 545.218 466.814 544.54 467.782 543.765C468.848 542.99 470.785 542.312 472.045 542.312C473.304 542.312 474.951 541.634 475.726 540.859C476.598 540.084 478.244 539.406 479.407 539.406C480.666 539.406 482.216 538.728 482.894 537.953C483.572 537.178 485.219 536.5 486.672 536.5C488.028 536.5 490.062 535.822 491.031 535.047C492.097 534.272 494.325 533.594 496.068 533.594C497.715 533.594 499.653 532.916 500.331 532.141C501.009 531.366 502.365 530.688 503.334 530.688C504.205 530.688 505.658 530.01 506.53 529.235C507.305 528.46 509.436 527.782 511.277 527.782C513.117 527.782 515.152 527.104 515.83 526.329C516.508 525.554 517.767 524.876 518.639 524.876C519.511 524.876 521.061 524.294 522.126 523.52C523.192 522.841 525.71 521.97 527.745 521.582C529.682 521.195 531.329 520.517 531.329 520.032C531.329 519.548 532.976 518.87 535.01 518.482C536.947 518.095 539.466 517.223 540.531 516.545C541.597 515.77 543.341 515.189 544.406 515.189C545.472 515.189 547.215 514.511 548.184 513.736C549.25 512.961 550.897 512.283 551.962 512.283C552.931 512.283 554.384 511.605 555.159 510.83C556.031 510.055 557.387 509.377 558.355 509.377C559.227 509.377 562.618 508.02 565.718 506.47C568.817 504.824 572.595 503.564 574.048 503.564C575.501 503.564 576.954 503.177 577.245 502.693C577.633 502.208 579.861 500.852 582.476 499.69C584.995 498.624 588.288 496.977 589.741 496.299C591.291 495.524 593.616 494.846 594.875 494.846C596.232 494.846 597.491 494.168 597.781 493.393C598.072 492.618 599.913 491.746 601.85 491.456C603.884 491.068 606.597 490.196 608.05 489.421C609.406 488.646 611.537 488.065 612.603 488.065C613.765 488.065 614.637 487.581 614.637 487.097C614.637 486.515 615.315 486.128 616.09 486.128C616.865 486.128 619.19 485.256 621.127 484.19C623.161 483.125 625.292 482.253 625.971 482.253C626.649 482.253 627.23 481.866 627.23 481.381C627.23 480.122 630.427 479.541 631.589 480.509C632.073 480.994 632.848 484.287 633.333 487.871Z" fill="#3F496A"></path><path d="M444.146 453.682C443.468 454.456 442.5 455.135 441.918 455.135C440.465 455.135 432.619 459.009 431.941 460.075C431.65 460.559 430.681 460.947 429.713 460.947C428.744 460.947 427.388 461.625 426.71 462.4C426.032 463.175 424.482 463.853 423.319 463.853C422.157 463.853 420.607 464.531 419.929 465.306C419.251 466.081 417.313 466.759 415.667 466.759C414.02 466.856 411.598 467.437 410.242 468.212C408.886 468.987 405.98 469.568 403.655 469.665C401.33 469.665 398.521 470.246 397.358 470.827C394.84 472.28 381.859 474.218 368.394 475.283C363.066 475.671 358.514 476.446 357.739 477.124C357.157 477.802 355.026 478.383 353.089 478.383C350.764 478.383 349.311 478.964 348.536 480.224C347.858 481.289 346.114 482.258 344.661 482.452C342.918 482.646 341.852 483.42 341.658 484.583C341.174 487.005 342.918 488.651 344.661 487.295C345.339 486.714 348.923 485.939 352.605 485.552C356.382 485.164 359.676 484.486 359.967 484.002C360.257 483.517 364.81 482.742 370.138 482.355C375.369 481.871 381.665 480.999 384.087 480.418C386.509 479.933 390.481 479.449 392.902 479.352C395.421 479.352 398.714 478.674 400.168 477.899C401.717 477.124 404.527 476.446 406.464 476.446C408.401 476.446 410.533 475.768 411.211 474.993C411.889 474.218 413.826 473.54 415.473 473.54C417.12 473.54 419.348 472.862 420.316 472.087C421.382 471.312 423.61 470.634 425.354 470.634C427.194 470.634 428.647 470.052 429.035 469.181C429.325 468.406 430.585 467.728 431.941 467.728C433.2 467.728 434.459 467.05 434.847 466.275C435.137 465.5 436.106 464.822 436.978 464.822C437.85 464.822 439.593 463.95 440.95 462.884C442.306 461.819 443.953 460.947 444.534 460.947C445.987 460.947 452.865 454.553 452.865 453.294C452.865 451.647 445.503 452.035 444.146 453.682Z" fill="#3F496A"></path><path d="M461.583 585.709C458.483 587.744 457.708 588.809 457.708 591.134C457.708 593.072 457.902 593.072 472.723 591.134C476.791 590.65 477.857 590.844 479.31 592.49C481.15 594.428 481.054 594.525 476.985 596.462C474.757 597.624 472.335 598.496 471.851 598.496C469.72 598.593 464.295 604.115 464.683 605.858C465.07 608.183 468.073 608.764 470.107 606.924C471.948 605.374 478.826 604.018 483.863 604.212C485.703 604.308 490.741 604.502 494.906 604.599C499.362 604.696 502.752 605.277 502.946 605.858C503.334 607.118 493.065 614.092 490.837 614.092C489.869 614.092 488.125 613.802 486.769 613.511C483.378 612.639 480.86 614.77 482.022 617.58C482.7 619.517 483.475 619.808 488.609 619.808C492.097 619.808 495.681 619.13 497.618 618.161C499.362 617.289 501.977 616.03 503.43 615.255C504.787 614.577 507.112 613.995 508.468 613.995C511.18 613.995 514.474 610.121 513.602 607.796C513.311 607.118 513.699 605.277 514.474 603.727C515.249 602.274 515.83 599.271 515.636 597.043L515.345 593.168L510.599 592.878C501.881 592.297 499.071 594.428 502.946 598.69C504.399 600.337 504.399 600.627 503.14 601.984C501.881 603.146 501.106 603.243 498.781 602.274C497.231 601.596 494.712 600.918 493.162 600.724C491.516 600.531 489.191 599.368 487.834 598.109C486.381 596.946 484.444 595.59 483.475 595.203C481.732 594.622 481.732 594.428 483.088 593.072C484.25 591.812 485.025 591.715 486.575 592.587C487.641 593.168 489.481 593.653 490.547 593.653C491.709 593.653 493.453 594.234 494.518 594.815C497.231 596.559 498.974 594.718 497.521 591.812C496.843 590.65 495.972 589.778 495.487 589.778C495.003 589.778 494.034 589.197 493.356 588.519C489.288 584.838 485.703 583.966 474.854 584.063C466.329 584.063 463.52 584.45 461.583 585.709Z" fill="#3F496A"></path><path d="M610.278 468.691C609.988 469.176 607.566 469.66 604.95 469.66C601.754 469.66 600.107 470.144 599.719 471.113C599.429 471.888 598.169 472.566 596.91 472.566C595.554 472.566 594.004 473.244 593.326 474.019C592.648 474.794 590.517 475.472 588.482 475.472C586.448 475.472 584.317 476.15 583.639 476.925C582.961 477.797 580.83 478.378 578.602 478.378C576.277 478.378 574.63 478.863 574.339 479.831C574.049 480.606 571.821 481.478 569.302 481.866C566.784 482.156 564.362 482.834 563.781 483.222C563.296 483.609 560.971 484.287 558.743 484.675C556.419 485.062 554.578 485.74 554.578 486.225C554.578 486.709 552.931 487.097 550.897 487.097C548.475 487.097 546.732 487.775 545.569 489.034C544.697 490.1 542.76 490.971 541.307 490.971C539.757 490.971 537.723 491.649 536.754 492.424C535.688 493.199 533.654 493.877 532.201 493.877C530.748 493.877 528.326 494.556 526.873 495.33C525.323 496.105 523.386 496.784 522.514 496.784C521.642 496.784 520.674 497.462 520.286 498.237C519.996 499.108 518.543 499.69 516.993 499.69C515.443 499.69 513.602 500.368 512.924 501.143C512.246 501.918 510.115 502.596 508.081 502.596C506.046 502.596 503.915 503.274 503.237 504.049C502.559 504.824 500.622 505.502 498.878 505.502C497.134 505.502 495.197 506.18 494.519 506.955C493.841 507.73 492.291 508.408 491.032 508.408C489.869 508.408 488.222 508.989 487.544 509.667C486.866 510.442 484.638 511.314 482.604 511.701C480.667 512.089 479.02 512.767 479.02 513.251C479.02 513.833 477.567 514.22 475.726 514.22C473.886 514.22 471.755 514.801 471.076 515.576C470.301 516.254 468.267 517.223 466.427 517.61C464.586 517.998 462.455 518.676 461.583 519.16C457.999 521.098 450.928 523.907 449.475 523.907C448.603 523.907 447.246 524.585 446.472 525.36C445.6 526.135 443.759 526.813 442.306 526.813C440.756 526.813 439.013 527.491 438.334 528.266C437.656 529.041 435.719 529.719 434.072 529.719C432.425 529.719 430.197 530.397 429.229 531.172C428.163 531.947 426.613 532.625 425.645 532.625C424.773 532.625 423.513 533.303 422.835 534.078C422.157 534.853 420.607 535.531 419.348 535.531C418.186 535.531 416.539 536.209 415.667 536.984C414.892 537.759 413.148 538.437 411.792 538.437C410.533 538.437 408.789 539.116 407.917 539.891C407.142 540.665 405.593 541.344 404.43 541.344C403.365 541.344 402.202 542.022 401.911 542.797C401.524 543.572 400.458 544.25 399.393 544.25C398.327 544.25 396.39 545.121 395.034 546.187C393.678 547.253 391.74 548.124 390.771 548.124C389.706 548.124 388.931 548.512 388.931 548.996C388.931 549.481 387.575 550.352 385.928 550.934C384.281 551.515 383.216 552.387 383.603 552.968C384.475 554.421 388.253 554.13 391.45 552.484C392.999 551.709 395.227 551.031 396.293 551.031C397.455 551.031 398.618 550.352 399.005 549.577C399.296 548.803 400.458 548.124 401.524 548.124C402.686 548.124 404.236 547.446 405.011 546.671C405.883 545.896 407.627 545.218 409.08 545.218C410.533 545.218 412.567 544.54 413.536 543.765C414.601 542.99 416.636 542.312 418.186 542.312C419.639 542.312 420.898 541.925 420.898 541.344C420.898 540.859 422.06 540.181 423.61 539.794C426.129 539.212 430.197 537.663 435.719 534.95C437.269 534.175 439.497 533.594 440.756 533.594C441.919 533.594 443.469 532.916 444.147 532.141C444.825 531.366 446.762 530.688 448.506 530.688C450.249 530.688 452.187 530.01 452.865 529.235C453.543 528.46 455.48 527.588 457.321 527.201C459.161 526.91 460.905 526.232 461.196 525.748C461.486 525.263 462.939 524.876 464.489 524.876C466.039 524.876 467.88 524.294 468.558 523.616C469.236 522.841 471.076 521.97 472.626 521.582C474.176 521.195 476.017 520.226 476.792 519.548C477.567 518.773 479.407 518.095 480.957 518.095C482.41 518.095 484.929 517.417 486.382 516.642C487.932 515.867 490.16 515.189 491.419 515.189C492.678 515.189 494.325 514.511 495.1 513.736C495.972 512.961 497.812 512.283 499.266 512.283C500.815 512.283 502.559 511.605 503.237 510.83C503.915 510.055 505.659 509.377 507.015 509.377C508.468 509.377 510.502 508.698 511.568 507.924C512.537 507.149 514.958 506.47 516.896 506.47C518.833 506.47 520.964 505.792 521.642 505.017C522.32 504.242 524.452 503.564 526.486 503.564C528.811 503.564 530.361 503.08 530.748 502.111C531.039 501.336 532.492 500.658 534.042 500.658C535.495 500.658 537.626 499.98 538.691 499.205C539.66 498.43 541.888 497.752 543.535 497.752C545.085 497.752 547.313 497.074 548.378 496.299C549.347 495.524 551.575 494.846 553.222 494.846C554.869 494.846 556.806 494.168 557.484 493.393C558.065 492.715 560.584 491.746 562.909 491.359C565.234 491.068 567.171 490.39 567.171 490.003C567.171 489.518 568.915 488.937 571.046 488.55C573.177 488.162 574.921 487.484 574.921 487C574.921 486.515 576.471 486.128 578.311 486.128C580.539 486.128 581.992 485.547 582.283 484.675C582.67 483.9 584.608 482.931 586.642 482.641C588.676 482.253 590.904 481.381 591.485 480.703C592.067 479.928 593.713 479.347 595.166 479.347C596.523 479.347 598.557 478.669 599.526 477.894C600.591 477.119 602.238 476.441 603.207 476.441C604.175 476.441 605.241 475.763 605.532 474.988C605.919 474.213 606.985 473.535 608.05 473.535C609.794 473.535 614.637 469.563 614.637 468.11C614.637 467.335 610.859 467.723 610.278 468.691Z" fill="#3F496A"></path><path d="M536.754 558.295C536.463 559.07 535.591 559.748 534.816 559.748C534.138 559.748 533.267 560.426 532.879 561.201C532.588 561.976 531.523 562.654 530.554 562.654C528.52 562.654 522.127 570.694 521.158 574.569C520.77 576.022 520.092 577.185 519.511 577.185C519.027 577.185 518.736 579.703 518.93 582.706C519.124 586.581 519.608 588.228 520.48 588.034C521.061 587.937 522.127 587.743 522.805 587.55C523.386 587.453 524.161 588.228 524.355 589.293C524.742 591.134 528.132 594.524 529.682 594.621C530.07 594.621 530.36 593.749 530.36 592.587C530.36 589.1 532.007 587.453 537.529 584.934C541.694 583.094 542.953 582.125 542.953 580.478C542.953 577.572 538.788 576.894 535.785 579.219C534.526 580.284 533.073 581.059 532.685 581.059C532.298 581.059 531.135 581.737 530.167 582.706C528.52 584.159 528.423 584.062 528.423 579.8C528.423 577.281 528.811 575.247 529.295 575.247C529.682 575.247 531.62 573.794 533.557 572.05C535.398 570.404 538.497 567.594 540.435 565.948C543.05 563.72 543.922 562.17 543.922 559.845C543.922 557.036 543.632 556.842 540.629 556.842C538.594 556.842 537.141 557.423 536.754 558.295Z" fill="#3F496A"></path></svg> 