<?xml version="1.0" encoding="UTF-8"?> <svg xmlns="http://www.w3.org/2000/svg" width="1664" height="1495" viewBox="0 0 1664 1495" fill="none"><path d="M831.636 1492.68C832.011 1492.44 832.537 1492.08 833.218 1491.58C834.613 1490.56 836.58 1489.05 839.063 1487.09C844.026 1483.17 851.002 1477.5 859.479 1470.5C876.429 1456.49 899.356 1437.17 924.131 1415.91L924.135 1415.9C974.036 1373.38 1042.94 1314.32 1078.09 1284.45C1401.44 1007.49 1581.79 789.459 1637.89 608.541V608.54C1660.68 534.566 1668.38 445.168 1657.88 377.583C1628.91 193.345 1487.68 45.9469 1305.16 8.7915L1303.01 8.35889C1284.53 4.69657 1253.45 2.67602 1222.63 2.4126C1191.8 2.14913 1161.43 3.64593 1144.37 6.95459L1144.36 6.95654L1142.57 7.29248C1105.47 14.3953 1054.73 31.201 1023.25 46.8374L1021.74 47.5933C956.582 80.5224 887.902 141.155 851.504 197.851L851.503 197.852L849.733 200.587C845.639 206.875 841.819 212.461 838.804 216.636C837.083 219.019 835.611 220.96 834.494 222.314C833.939 222.987 833.448 223.543 833.044 223.942C832.845 224.138 832.635 224.33 832.425 224.483C832.32 224.559 832.183 224.649 832.024 224.724C831.884 224.791 831.61 224.903 831.261 224.903C830.907 224.903 830.631 224.788 830.484 224.716C830.322 224.637 830.185 224.544 830.081 224.465C829.873 224.308 829.669 224.111 829.48 223.915C829.097 223.514 828.637 222.959 828.121 222.295C827.083 220.958 825.723 219.051 824.137 216.738C820.96 212.105 816.819 205.762 812.424 198.905L812.416 198.893C802.141 182.523 780.011 157.226 756.122 133.206C732.237 109.188 706.758 86.6127 689.851 75.6313L689.85 75.6304C661.823 57.4133 611.324 32.5185 582.99 23.0737L582.987 23.0728C529.778 5.21954 440.733 -3.19276 386.836 4.15674C220.382 26.8392 78.2695 142.334 24.5439 298.666L23.916 300.507C5.69909 354.809 1.50022 382.061 1.5 448.699C1.85059 544.053 16.9018 605.342 63.21 700.414L63.209 700.415C128.459 834.071 254.472 984 468.494 1182.56C494.311 1206.27 584.26 1283.92 668.312 1355.67C710.334 1391.54 750.872 1425.93 781.167 1451.35C796.315 1464.06 808.897 1474.52 817.822 1481.8C822.286 1485.45 825.828 1488.29 828.314 1490.22C829.56 1491.18 830.528 1491.91 831.208 1492.39C831.372 1492.5 831.514 1492.6 831.636 1492.68Z" stroke="#3D2A23" stroke-width="3"></path></svg> 