<?xml version="1.0" encoding="UTF-8"?> <svg xmlns="http://www.w3.org/2000/svg" width="247" height="190" viewBox="0 0 247 190" fill="none"><path d="M26.6641 0.713005C26.6641 1.09331 26.9973 1.426 27.3782 1.426C27.7591 1.426 28.0924 1.09331 28.0924 0.713005C28.0924 0.332705 27.7591 0 27.3782 0C26.9973 0 26.6641 0.332705 26.6641 0.713005Z" fill="#272727"></path><path d="M0 6.12994C0 6.41514 0.238101 6.74795 0.476101 6.89055C0.761801 7.03315 0.952202 6.84295 0.952202 6.46275C0.952202 6.03495 0.761801 5.70215 0.476101 5.70215C0.238101 5.70215 0 5.89234 0 6.12994Z" fill="#272727"></path><path d="M58.0867 8.50598C56.2298 10.3598 55.8965 11.8809 56.9916 14.115C57.801 15.7787 57.8486 15.8262 57.9914 14.7329C58.2295 12.5939 59.0865 11.0728 60.2768 10.5024C62.7526 9.40918 64.3714 10.2172 65.419 13.1168L66.085 14.9706L66.609 13.6872C68.514 8.83878 61.8004 4.75088 58.0867 8.50598Z" fill="#272727"></path><path d="M161.883 8.0799C161.883 8.3175 162.121 8.55519 162.359 8.55519C162.645 8.55519 162.835 8.3175 162.835 8.0799C162.835 7.7947 162.645 7.60449 162.359 7.60449C162.121 7.60449 161.883 7.7947 161.883 8.0799Z" fill="#272727"></path><path d="M139.023 11.4079C139.023 11.6456 139.261 11.8832 139.5 11.8832C139.785 11.8832 139.976 11.6456 139.976 11.4079C139.976 11.1227 139.785 10.9326 139.5 10.9326C139.261 10.9326 139.023 11.1227 139.023 11.4079Z" fill="#272727"></path><path d="M124.836 12.8794C124.932 13.2121 125.313 13.5924 125.646 13.6874C126.027 13.83 126.217 13.6399 126.074 13.2596C125.979 12.9269 125.598 12.5466 125.265 12.4516C124.884 12.309 124.694 12.4991 124.836 12.8794Z" fill="#272727"></path><path d="M60.6087 13.3072C59.0851 13.9252 59.228 14.9709 60.942 15.6839C62.1323 16.1593 62.5608 16.1593 63.5607 15.4938C64.2272 15.066 64.7509 14.3055 64.7509 13.7826C64.7509 13.022 64.4177 12.8319 63.2274 12.8794C62.3704 12.8794 61.1801 13.0696 60.6087 13.3072Z" fill="#272727"></path><path d="M67.421 15.3048C70.04 19.7254 91.465 42.1611 97.036 46.2491C98.75 47.5331 99.035 47.9601 98.845 49.0541C98.607 50.2891 98.654 50.3371 100.606 50.1941C101.701 50.1471 103.273 49.7191 104.082 49.2911C105.987 48.2931 119.842 43.5871 123.793 42.6371C127.84 41.5911 129.888 41.3531 134.744 41.3061C143.981 41.2581 150.028 44.3481 153.122 50.6701C155.598 55.8511 155.646 60.9851 153.265 69.1601C152.265 72.5351 148.361 79.8551 147.409 80.0931C147.123 80.1411 145.266 80.7111 143.314 81.3291C139.601 82.4701 139.839 83.2781 143.6 82.2321C144.79 81.8991 145.838 81.7571 145.981 81.8991C146.266 82.1851 143.6 85.9401 142.6 86.6051C142.362 86.7951 141.505 86.9851 140.696 87.0331C139.934 87.0331 138.506 87.3661 137.601 87.7461L135.934 88.4111L138.839 88.2691L141.743 88.1261L140.077 90.3601C138.506 92.4991 138.267 92.6421 135.506 92.9271C131.269 93.4021 130.554 94.0681 134.173 94.1151H137.22L135.649 96.0641C133.887 98.2511 134.03 98.2031 130.364 98.6311C127.126 99.0111 126.603 99.9151 129.745 99.7721C130.888 99.6771 131.983 99.7241 132.078 99.8671C132.221 99.9621 131.602 100.865 130.792 101.863C129.602 103.289 128.84 103.717 127.222 103.907C125.127 104.145 122.841 104.858 122.841 105.238C122.841 105.381 123.936 105.333 125.317 105.191L127.793 104.906L126.174 106.854C124.555 108.898 124.27 109.041 121.365 109.516C120.365 109.707 119.366 110.134 119.08 110.467C118.651 110.99 118.889 111.037 120.556 110.752C121.699 110.515 122.651 110.42 122.698 110.467C122.794 110.515 121.889 111.513 120.746 112.606L118.651 114.65L117.128 112.606C115.366 110.182 112.367 104.43 112.367 103.432C112.367 103.099 113.271 101.721 114.414 100.485C121.508 92.4991 133.935 74.0091 139.648 62.8861C142.124 58.1331 145.362 50.0991 145.124 49.3861C145.028 49.1491 143.838 51.2881 142.505 54.0921L139.982 59.2731L137.077 59.6061C130.412 60.3671 120.603 64.0271 115.414 67.7821C108.605 72.5831 105.653 76.4331 99.511 88.1741C94.131 98.5361 90.465 109.992 90.37 116.837C90.37 119.118 89.894 119.546 82.752 124.204C72.134 131.097 58.327 137.561 48.0904 140.413C44.1863 141.507 37.2349 142.6 34.3306 142.6C32.9022 142.6 31.9024 142.742 32.0452 142.885C32.4261 143.313 39.8536 143.265 42.8055 142.837C44.5196 142.6 45.6622 142.79 47.5667 143.55C48.9951 144.073 50.233 144.406 50.3758 144.311C50.471 144.168 49.9949 143.836 49.2331 143.55C48.4713 143.265 47.5191 142.933 47.1382 142.742C46.7097 142.6 47.5667 142.172 49.2331 141.792C51.8042 141.174 52.1851 141.221 53.9943 142.029C56.3749 143.123 58.7555 143.741 58.3746 143.17C58.2318 142.933 57.1367 142.362 55.8988 141.887C53.4706 140.984 53.5658 140.651 56.6606 139.653C58.6127 139.035 58.946 139.035 60.2315 139.7C61.9931 140.698 65.659 141.887 65.945 141.602C66.183 141.364 63.9452 140.176 61.517 139.272L59.9458 138.654L61.9455 137.751C64.6594 136.563 65.659 136.515 68.135 137.704C70.182 138.654 73.325 139.463 73.325 139.035C73.325 138.702 70.42 137.324 68.373 136.658L66.421 136.088L69.23 134.804L72.039 133.521L74.467 134.472C77.324 135.612 81.133 136.325 79.99 135.517C79.61 135.232 77.896 134.567 76.229 133.996L73.134 132.95L75.848 131.572C78.562 130.241 78.61 130.241 80.847 130.954C83.514 131.905 86.847 132.38 86.466 131.762C86.228 131.382 83.799 130.526 81.276 130.003C79.657 129.671 79.895 129.243 82.562 127.674C84.323 126.676 84.894 126.533 86.228 126.914C87.132 127.199 88.513 127.389 89.37 127.389C90.179 127.389 91.036 127.579 91.179 127.864C91.56 128.482 93.798 134.662 93.798 135.089C93.798 135.66 84.894 141.649 81.038 143.693C68.373 150.348 48.8046 154.721 39.0442 153.057C34.9019 152.344 32.9975 151.631 30.9978 149.92C28.2839 147.638 27.8554 146.307 27.903 139.985C27.9506 133.806 28.9981 128.007 31.1882 121.685C31.9024 119.736 32.569 117.787 32.7118 117.359C32.8546 116.837 33.2831 116.694 34.0925 116.837C34.7591 116.932 35.2352 116.837 35.2352 116.504C35.2352 116.219 34.8067 115.981 34.283 115.981C33.3784 115.981 33.426 115.743 35.0448 112.511C37.7587 107.14 40.6154 103.147 44.9957 98.6311C47.2334 96.3501 49.0427 94.2581 49.0427 94.0201C49.0427 93.0221 43.6625 96.4921 37.3778 101.483C32.6642 105.238 25.2367 112.368 25.2367 113.129C25.2367 113.937 30.474 110.61 37.3778 105.428L38.8061 104.335L38.0443 105.524C35.6637 109.231 33.2831 113.319 32.4261 115.125C31.6643 116.789 30.8073 117.645 28.141 119.308C26.2842 120.497 24.7606 121.59 24.7606 121.828C24.7606 122.255 27.2364 121.067 29.2361 119.641C30.5693 118.69 30.6169 118.69 30.2836 119.546C30.0931 120.021 29.617 121.4 29.2361 122.636C28.6172 124.489 28.1887 124.965 25.9985 126.106C24.5701 126.866 22.9513 128.007 22.3324 128.672L21.1897 129.861L23.5703 128.625C24.9034 127.959 26.4746 127.009 27.0936 126.581C28.2363 125.725 28.2839 125.725 27.903 126.914C27.7125 127.579 27.284 129.005 26.9984 130.051C26.5698 131.477 25.8557 132.475 24.3321 133.616C21.9039 135.517 19.1424 138.797 20.7136 137.989C21.2373 137.704 22.7133 136.515 23.9988 135.422L26.3318 133.331L26.0461 135.232C25.8557 136.278 25.7128 137.704 25.7128 138.369C25.7128 139.035 25.2843 139.985 24.8082 140.556C23.7131 141.697 22.6181 143.836 22.1895 145.547C21.761 147.496 22.1419 147.211 23.7131 144.406C25.0463 142.124 25.1891 142.029 25.4272 143.075C26.427 147.448 26.6651 149.017 26.3794 149.825C25.9985 151.061 26.6175 154.103 27.1888 153.77C27.4269 153.58 27.5221 153.247 27.3316 153.01C27.1888 152.724 27.1888 152.011 27.3316 151.346L27.6649 150.158L29.4742 151.726C30.5693 152.629 31.5691 154.008 31.8548 155.006C32.1404 155.957 32.9498 157.098 33.6164 157.573L34.8543 158.381L33.5212 156.099L32.1881 153.865L33.3784 154.198C39.5203 155.909 40.3297 156.004 46.6621 155.767C52.2803 155.529 55.5655 155.054 62.374 153.533C63.2787 153.342 64.7546 153.01 65.612 152.82C68.135 152.249 67.373 152.915 63.4691 154.768C49.5664 161.233 34.521 163.229 24.4273 159.902C16.8094 157.43 10.8579 148.114 10.1913 137.704C9.90567 132.855 10.5246 125.298 11.6673 120.354C12.81 115.506 13.9527 111.513 14.286 111.085C14.4764 110.895 15.5239 111.133 16.7142 111.655C17.8569 112.226 19.5233 112.654 20.4279 112.654H22.0467L20.1898 111.228C17.2379 108.898 10.9531 102.529 10.9531 101.863C10.9531 101.198 9.23907 101.008 8.85817 101.626C8.52487 102.196 10.6675 106.474 12.2863 108.328L13.667 109.944L12.0958 114.365C9.33427 122.303 7.62027 132.142 7.90597 138.084C8.38207 148.732 13.8098 158.286 21.3801 161.898C30.8549 166.367 48.2809 164.941 62.136 158.571C68.326 155.719 83.18 146.83 91.37 141.031C94.893 138.512 96.179 138.084 96.179 139.32C96.179 139.89 100.797 146.925 102.844 149.492C105.939 153.342 111.938 159.284 115.937 162.374C118.556 164.418 129.935 172.071 131.126 172.594C131.697 172.831 132.887 173.497 133.792 174.02C144.79 180.674 162.264 186.521 176.833 188.47C184.308 189.468 197.83 189.278 203.163 188.042C222.398 183.716 232.396 175.113 240.586 155.909C243.299 149.492 244.49 145.357 245.394 138.797C246.299 132.047 246.347 128.863 245.49 123.254C243.871 112.606 240.728 106.046 232.634 96.6821C224.159 86.7951 215.494 79.7601 203.639 73.2011C190.117 65.6901 179.261 61.6981 166.692 59.7011C164.216 59.2731 162.169 58.8931 162.073 58.7981C161.978 58.7031 162.216 57.6101 162.645 56.3741C163.121 54.9951 163.549 54.3301 163.787 54.6631C164.026 55.0431 164.216 54.9951 164.454 54.4251C164.883 53.3321 164.835 53.2371 164.026 53.2371C163.502 53.2371 163.407 52.9041 163.692 51.6681C164.264 49.1491 164.073 42.2091 163.359 39.6891C161.074 31.4662 155.932 26.5703 147.361 24.5264C142.076 23.1954 132.078 23.4331 125.174 25.0017C124.127 25.2393 123.698 24.9541 122.175 22.8627C119.937 19.8205 115.509 15.8277 113.985 15.5425C113.271 15.4474 112.557 15.6851 112.081 16.208C111.319 17.0636 111.319 17.1111 112.224 17.1111C112.795 17.1111 114.081 18.2044 115.509 19.8205C116.794 21.3416 118.889 23.5281 120.223 24.7165L122.651 26.8555L119.366 28.6618L116.08 30.468L114.462 29.5174C113.604 28.9945 112.081 28.4241 111.081 28.2815C107.177 27.616 107.224 27.7586 108.415 22.9102C108.843 21.1515 107.32 22.1497 105.844 24.6214C103.225 28.9945 102.701 31.0384 104.177 30.8483C104.606 30.8008 105.415 30.8483 105.939 30.8483C106.796 30.9434 106.748 31.0385 105.701 31.5138C104.511 32.0366 104.511 32.0366 106.177 32.2268C107.129 32.2743 109.367 32.0366 111.176 31.7039C113.033 31.3236 114.604 31.086 114.7 31.1811C114.795 31.2761 114.271 31.8465 113.509 32.4169C108.986 35.8871 101.368 44.3001 102.13 45.0611C102.416 45.3461 105.32 43.3501 108.605 40.5931C110.034 39.3571 112.367 37.4081 113.795 36.2201C115.223 34.9841 118.032 32.4645 119.984 30.6107C123.841 26.9981 125.079 26.3326 128.84 26.19C130.888 26.0949 131.602 26.3326 133.744 27.8062C136.934 29.9452 137.934 29.9452 135.506 27.8062L133.649 26.1425H136.506C139.363 26.1425 139.41 26.19 141.172 28.329C143.219 30.8008 143.886 30.8008 142.457 28.2815C141.315 26.3801 141.41 26.3326 144.933 26.9506C146.6 27.1882 146.885 27.4734 148.123 30.1353C149.266 32.512 149.504 32.7972 149.504 31.7039C149.504 30.9434 149.266 29.9452 148.98 29.3748C148.218 27.9488 148.742 27.8537 151.123 28.9945C153.36 30.0402 153.503 30.3254 154.027 33.6528C154.456 36.1721 155.36 35.7441 155.122 33.1299L154.932 31.2286L156.741 33.2725C158.36 35.0791 158.55 35.6021 158.598 37.9781C158.645 39.4521 158.741 40.2601 158.883 39.7851C159.645 36.8371 161.121 42.1141 161.121 47.7701C161.121 52.0481 160.502 54.8531 158.455 60.2241C157.931 61.6021 157.455 62.7431 157.407 62.7431C157.407 62.7431 157.36 60.3191 157.36 57.3721C157.312 52.5241 157.217 51.8111 155.979 49.4341C153.551 44.5851 153.075 43.7301 152.789 43.7301C152.599 43.7301 151.218 42.9691 149.694 42.0661C143.981 38.6441 136.649 37.4081 128.65 38.5011C123.508 39.2141 119.794 40.3551 114.414 42.8271C112.129 43.8721 110.462 44.5381 110.7 44.3001C110.986 44.0631 112.367 42.8271 113.795 41.5911C119.842 36.3151 123.746 32.6546 124.032 31.9891C124.222 31.4187 124.127 31.3712 123.698 31.7039C117.366 36.5051 110.653 42.1141 107.034 45.5841C104.511 47.9601 102.32 49.9091 102.13 49.9091C101.94 49.9091 101.94 49.1491 102.082 48.1981C102.559 45.8211 101.463 44.3001 99.035 43.9201C98.035 43.7301 96.797 43.2071 96.369 42.7321C95.417 41.6861 95.417 41.7331 99.654 41.8281C101.13 41.8761 102.368 41.7811 102.368 41.6381C102.368 41.2111 99.035 39.6421 96.75 38.9291C94.893 38.4061 93.893 37.5501 93.893 36.4571C93.846 34.3181 92.132 27.7586 91.417 26.9506C90.941 26.4277 90.417 31.5613 90.703 34.0811C90.798 35.2211 90.798 36.1241 90.703 36.1241C90.608 36.1241 88.799 34.3661 86.704 32.1793C83.085 28.4716 82.942 28.234 83.609 27.2358C83.942 26.6654 84.276 25.7622 84.276 25.1918C84.276 24.4788 84.609 24.2411 85.609 24.1936C90.798 24.0035 98.988 22.9577 103.32 21.8169C111.224 19.868 111.224 19.868 109.986 19.3927C109.034 19.06 101.892 19.2501 98.559 19.7254C93.322 20.486 89.751 21.1039 86.989 21.7219C84.609 22.2923 83.466 22.3398 82.704 21.9595C81.038 21.1515 79.705 21.0088 78.848 21.4842C78.086 21.912 78.181 22.1497 79.705 23.5281C80.657 24.3837 81.419 25.4295 81.419 25.8573C81.419 26.9505 80.895 26.5703 77.134 23.0053C75.42 21.3891 73.277 19.4402 72.373 18.7272C71.468 17.9667 70.087 16.7783 69.278 16.0654C67.802 14.6869 66.85 14.3066 67.421 15.3048ZM169.834 62.2681C172.929 62.7911 176.214 63.4091 177.119 63.6461C178.023 63.9321 180.071 64.5021 181.642 64.9301C186.546 66.3081 190.117 67.6391 193.307 69.3501C199.258 72.4881 207.4 77.6691 212.114 81.2341C217.732 85.5121 229.873 97.1581 230.206 98.5841C230.349 99.1541 230.301 100.2 230.063 100.913L229.73 102.244L228.111 100.295C227.111 99.0111 226.445 97.5851 226.207 96.1121C225.873 94.0201 225.873 93.9731 225.493 95.2561L225.159 96.6351L223.302 94.8281C222.303 93.8301 221.35 92.5471 221.207 91.9291C221.017 91.3111 220.684 90.7881 220.398 90.7881C220.112 90.7881 220.065 91.0731 220.303 91.3591C220.493 91.6911 219.732 91.2161 218.636 90.3131C217.494 89.4101 216.018 88.2211 215.304 87.6981C214.589 87.1761 212.828 85.8451 211.304 84.7041C209.828 83.6111 208.495 82.7071 208.352 82.7071C208.257 82.7071 206.876 81.8991 205.353 80.8541C200.972 78.0021 184.213 69.8731 182.594 69.8731C182.213 69.8731 181.832 69.6831 181.69 69.4461C181.547 69.2081 180.928 68.9231 180.356 68.7801C179.737 68.6371 177.119 67.8771 174.5 67.1161C171.882 66.3081 167.692 65.3101 165.216 64.8821C162.74 64.4541 160.597 64.0271 160.407 63.8841C160.217 63.7891 160.312 63.1711 160.597 62.5061C161.312 61.0321 162.264 60.9851 169.834 62.2681ZM137.41 63.6461C136.887 64.6451 136.125 65.1201 134.411 65.5951C123.032 68.6371 116.556 72.7731 111.843 79.9981C109.034 84.2761 108.32 87.2231 108.367 93.8781C108.415 101.626 109.986 106.664 114.557 113.699C115.699 115.506 116.652 117.407 116.652 117.93C116.652 118.453 116.842 118.785 117.128 118.595C117.366 118.453 118.27 119.118 119.127 120.116C126.412 128.625 138.41 137.894 149.075 143.408C164.835 151.536 179.785 154.911 197.592 154.293C214.113 153.77 219.113 152.582 226.778 147.448C232.825 143.455 235.824 139.035 237.776 131.477C239.014 126.819 239.3 124.87 238.538 126.676C238.253 127.341 238.11 126.866 238.11 124.965C238.062 123.491 238.395 121.495 238.776 120.544C239.538 118.738 239.3 118.263 238.3 119.641C237.776 120.354 237.634 120.211 237.062 118.453C236.539 116.694 236.586 116.076 237.253 114.175C238.348 111.085 238.253 110.657 236.967 112.796L235.824 114.65L234.967 112.416C234.206 110.42 234.206 109.849 234.729 107.615C235.063 106.189 235.491 105.048 235.682 105.048C236.158 105.048 239.824 111.75 240.824 114.555C242.538 119.261 243.014 122.303 243.061 128.102C243.061 137.846 240.633 142.98 233.349 148.732C228.778 152.297 219.303 156.337 217.018 155.719C216.446 155.576 215.78 155.767 215.494 156.147C214.018 158.001 195.878 159.094 186.641 157.858C176.786 156.527 166.93 154.246 156.836 150.918C146.552 147.496 133.221 138.559 121.603 127.294C104.225 110.42 99.369 96.2071 106.177 82.4221C110.319 74.1041 119.366 67.0691 129.745 64.1691C131.84 63.5991 134.078 62.9331 134.744 62.7431C135.411 62.5061 136.411 62.3151 137.03 62.3151C138.077 62.2681 138.077 62.3151 137.41 63.6461ZM163.549 66.7841C169.882 67.7821 181.642 71.9171 191.307 76.5761C208.209 84.7511 220.922 94.6381 227.826 105.048C232.444 112.036 235.682 120.972 235.682 126.819C235.682 132.903 233.301 138.75 229.159 142.79C225.016 146.925 225.064 146.925 223.493 143.218C220.589 136.373 215.161 128.672 209.019 122.636C197.735 111.465 181.213 101.531 167.12 97.3951C165.406 96.8721 163.407 96.3021 162.597 96.0171C160.502 95.3511 150.361 93.7351 145.79 93.3071L141.886 92.9271L143.41 90.7411C144.267 89.5521 145.124 88.5071 145.362 88.3641C145.552 88.2691 146.79 89.0771 148.076 90.2181C149.409 91.3591 150.456 92.0241 150.456 91.7391C150.456 91.1211 147.219 87.9361 146.6 87.9361C145.695 87.9361 146.266 86.7951 148.933 83.1351C154.217 75.8151 155.17 74.3411 157.217 70.2061C159.074 66.4031 159.36 66.0711 160.455 66.2611C161.121 66.4031 162.502 66.5941 163.549 66.7841ZM135.22 66.9261C135.22 67.7341 127.269 79.2371 120.794 87.8411C115.033 95.4461 111.652 99.2491 111.081 98.7261C110.891 98.4891 110.7 95.5891 110.7 92.3091C110.7 86.5581 110.795 86.1301 112.176 83.1831C115.414 76.2901 121.508 70.9191 128.84 68.4951C131.173 67.7341 133.506 67.0211 134.03 66.8791C134.554 66.7361 135.03 66.6411 135.125 66.5941C135.173 66.5941 135.22 66.6891 135.22 66.9261ZM100.416 95.3041C100.464 105.143 106.225 115.553 117.699 126.676C123.079 131.905 124.127 132.855 128.079 135.945C146.362 150.3 173.167 160.425 195.211 161.28C210.542 161.898 225.255 158.143 234.015 151.441C237.015 149.159 240.538 145.167 242.014 142.362C242.728 141.031 242.776 141.031 242.823 142.029C242.871 145.785 236.3 160.425 231.301 167.602C222.445 180.389 205.448 187.281 184.499 186.473C172.262 186.046 156.408 182.481 144.79 177.585C138.458 174.923 123.174 165.368 122.508 163.705C122.365 163.324 121.984 163.039 121.603 163.039C120.556 163.039 112.557 156.052 108.605 151.679C97.226 138.987 91.56 124.917 93.274 113.699C94.179 107.995 96.417 99.6291 98.083 95.7791C98.321 95.2561 98.75 94.0201 99.083 93.0701C99.892 90.7411 100.368 91.5961 100.416 95.3041ZM149.409 95.8271C157.074 97.0151 165.311 99.2971 172.12 102.006C193.164 110.42 213.066 127.294 220.684 143.123C221.588 145.072 222.35 146.878 222.35 147.163C222.35 147.448 221.112 148.256 219.636 148.922C213.352 151.679 203.972 153.057 193.307 152.82C173.357 152.344 152.98 144.691 135.268 131.049C128.84 126.058 120.794 118.31 120.984 117.264C121.08 116.837 122.698 114.935 124.555 113.034C128.459 108.994 137.363 98.8211 138.934 96.5871C139.934 95.2091 140.267 95.0661 142.41 95.0661C143.695 95.0661 146.838 95.3991 149.409 95.8271ZM233.92 102.719C235.158 104.383 235.158 104.478 234.444 105.904C233.396 108.043 233.015 108.09 231.92 106.189C231.206 105.048 230.92 103.717 230.92 101.863C230.92 99.2491 230.968 99.2021 231.777 100.105C232.253 100.58 233.206 101.768 233.92 102.719ZM90.703 124.585C90.894 125.393 90.894 126.153 90.751 126.296C90.608 126.438 89.465 126.343 88.227 126.106L85.942 125.725L87.846 124.394C88.894 123.681 89.894 123.111 90.084 123.111C90.227 123.111 90.513 123.776 90.703 124.585Z" fill="#272727"></path><path d="M153.172 88.6032C153.743 89.5532 156.362 92.4532 157.076 92.9282C158.076 93.5462 156.742 91.2652 155.076 89.4582C153.6 87.9372 152.457 87.4142 153.172 88.6032Z" fill="#272727"></path><path d="M161.36 91.1192C162.884 93.5432 164.741 95.5872 164.741 94.7322C164.741 94.0192 161.265 89.2182 160.551 88.9802C160.218 88.8852 160.599 89.8362 161.36 91.1192Z" fill="#272727"></path><path d="M167.594 90.9777C167.594 91.9277 170.879 97.2047 171.212 96.8237C171.546 96.5387 169.689 92.8787 168.498 91.3097C167.784 90.4067 167.594 90.3597 167.594 90.9777Z" fill="#272727"></path><path d="M174.258 92.3561C174.258 93.0221 176.591 97.7281 177.305 98.6311C178.114 99.5821 178.114 99.5821 177.829 98.3931C177.353 96.5391 175.734 93.3071 174.924 92.6891C174.591 92.3561 174.258 92.2141 174.258 92.3561Z" fill="#272727"></path><path d="M181.398 95.1612C181.398 95.9222 183.398 100.96 184.017 101.863C184.779 102.909 184.779 102.909 184.493 101.483C183.969 99.0112 182.827 96.1122 182.065 95.5412C181.732 95.2092 181.398 95.0662 181.398 95.1612Z" fill="#272727"></path><path d="M188.356 99.5831C188.689 101.627 190.308 105.81 190.689 105.478C191.022 105.145 189.737 100.677 188.832 99.1081L188.07 97.6821L188.356 99.5831Z" fill="#272727"></path><path d="M217.586 102.197C217.586 102.434 217.824 102.672 218.062 102.672C218.348 102.672 218.538 102.434 218.538 102.197C218.538 101.912 218.348 101.721 218.062 101.721C217.824 101.721 217.586 101.912 217.586 102.197Z" fill="#272727"></path><path d="M194.734 103.384C194.734 104.906 195.639 108.423 196.258 109.041C196.829 109.754 196.734 107.995 195.972 105.096C195.163 102.101 194.734 101.531 194.734 103.384Z" fill="#272727"></path><path d="M200.445 106.758C200.445 108.184 201.54 112.937 201.969 113.365C202.683 114.078 201.874 108.326 201.112 107.186C200.731 106.663 200.445 106.473 200.445 106.758Z" fill="#272727"></path><path d="M206.205 113.365C206.205 114.411 206.538 116.027 206.919 116.93L207.586 118.594L207.395 115.885C207.109 112.51 206.157 110.466 206.205 113.365Z" fill="#272727"></path><path d="M211.541 119.687C211.636 121.066 211.969 122.444 212.207 122.682C212.874 123.347 212.493 118.974 211.827 117.928C211.493 117.358 211.398 117.833 211.541 119.687Z" fill="#272727"></path><path d="M216.208 124.585C216.208 125.488 216.446 126.629 216.684 127.152C216.97 127.77 217.018 127.342 216.827 125.726C216.446 122.874 216.161 122.303 216.208 124.585Z" fill="#272727"></path><path d="M234.012 127.388C233.87 127.626 233.965 127.863 234.203 127.863C234.489 127.863 234.727 127.626 234.727 127.388C234.727 127.103 234.631 126.913 234.536 126.913C234.393 126.913 234.155 127.103 234.012 127.388Z" fill="#272727"></path><path d="M220.016 129.767C220.016 130.148 220.206 130.908 220.444 131.431C220.682 132.049 220.873 132.097 220.873 131.669C220.873 131.289 220.682 130.528 220.444 130.005C220.206 129.387 220.016 129.34 220.016 129.767Z" fill="#272727"></path><path d="M220.922 134.709C220.922 135.089 221.16 135.564 221.398 135.707C221.684 135.849 221.874 135.659 221.874 135.279C221.874 134.899 221.684 134.423 221.398 134.281C221.16 134.138 220.922 134.328 220.922 134.709Z" fill="#272727"></path><path d="M109.504 124.535C111.552 128.528 121.217 138.938 127.597 143.976C140.928 154.481 160.64 162.61 175.447 163.703C179.637 163.988 179.637 163.988 175.209 162.8C167.734 160.803 161.449 158.807 157.83 157.333C157.307 157.096 155.926 156.525 154.736 156.05C150.974 154.529 142.261 150.108 138.071 147.589C129.216 142.218 121.979 136.466 114.027 128.48C111.218 125.676 109.171 123.87 109.504 124.535Z" fill="#272727"></path><path d="M95.2266 126.201C95.2266 126.582 95.4646 126.914 95.7026 126.914C95.9876 126.914 96.1786 126.582 96.1786 126.201C96.1786 125.821 95.9876 125.488 95.7026 125.488C95.4646 125.488 95.2266 125.821 95.2266 126.201Z" fill="#272727"></path><path d="M115.935 128.341C115.792 128.579 116.078 128.817 116.602 128.817C117.125 128.817 117.697 128.579 117.84 128.341C117.982 128.056 117.697 127.866 117.173 127.866C116.649 127.866 116.078 128.056 115.935 128.341Z" fill="#272727"></path><path d="M99.9843 130.908C101.746 135.567 105.46 141.366 110.459 147.212C112.411 149.494 113.982 151.633 113.887 151.966C113.792 152.298 114.125 152.584 114.554 152.584C114.982 152.584 117.077 154.057 119.267 155.863C126.361 161.853 135.931 168.032 143.216 171.359C144.835 172.12 146.168 173.023 146.168 173.403C146.168 173.831 146.454 173.974 146.93 173.784C147.358 173.593 148.929 173.879 150.405 174.402C162.404 178.585 176.259 181.151 185.924 181.056L190.209 181.009L180.925 179.44C161.118 176.113 148.644 171.787 134.979 163.516C120.124 154.532 109.316 144.645 102.365 133.665C99.7943 129.625 99.2223 128.959 99.9843 130.908Z" fill="#272727"></path><path d="M234.629 155.293C234.963 155.436 235.391 155.388 235.534 155.245C235.724 155.103 235.439 154.96 234.915 155.008C234.391 155.008 234.248 155.15 234.629 155.293Z" fill="#272727"></path><path d="M228.058 158.284C228.725 158.474 230.011 158.664 230.915 158.664C232.439 158.664 232.486 158.617 231.391 158.284C230.725 158.094 229.439 157.904 228.535 157.904C227.011 157.904 226.963 157.951 228.058 158.284Z" fill="#272727"></path><path d="M220.442 159.76C221.918 160.758 224.537 161.946 225.918 162.279C227.156 162.564 227.251 162.517 226.632 161.946C225.87 161.233 221.157 159.237 220.252 159.237C219.966 159.237 220.062 159.474 220.442 159.76Z" fill="#272727"></path><path d="M215.871 162.801C217.157 163.704 218.395 164.465 218.585 164.465C218.776 164.465 219.3 164.607 219.776 164.797C221.442 165.415 219.918 163.989 217.443 162.563C214.015 160.614 213.015 160.757 215.871 162.801Z" fill="#272727"></path><path d="M208.776 163.798C210.775 165.605 213.251 167.078 213.585 166.698C213.727 166.555 212.918 165.747 211.775 164.891C207.871 161.849 205.633 161.041 208.776 163.798Z" fill="#272727"></path><path d="M200.922 163.37C200.969 163.798 204.969 166.983 205.826 167.268C206.112 167.363 205.778 166.745 204.969 165.889C203.493 164.368 200.922 162.705 200.922 163.37Z" fill="#272727"></path><path d="M195.73 165.225C196.635 165.891 197.73 166.651 198.206 166.889C199.729 167.745 198.158 165.701 196.539 164.798C194.397 163.562 193.873 163.847 195.73 165.225Z" fill="#272727"></path><path d="M130.93 123.966C130.93 124.631 131.453 124.964 132.168 124.679C132.548 124.536 132.691 124.251 132.548 124.013C132.215 123.491 130.93 123.443 130.93 123.966Z" fill="#272727"></path><path d="M204.259 130.906C204.259 131.334 204.259 131.809 204.211 132C204.211 132.19 204.354 132.427 204.592 132.475C205.163 132.665 205.258 130.811 204.687 130.478C204.449 130.288 204.259 130.526 204.259 130.906Z" fill="#272727"></path><path d="M153.312 136.896C153.312 137.134 153.552 137.371 153.79 137.371C154.075 137.371 154.266 137.134 154.266 136.896C154.266 136.611 154.075 136.421 153.79 136.421C153.552 136.421 153.312 136.611 153.312 136.896Z" fill="#272727"></path><path d="M56.0871 16.209C55.611 16.4467 55.2301 16.5417 55.2301 16.3991C55.2301 16.0188 52.3734 17.54 50.6593 18.8709C49.7547 19.5364 48.8501 19.869 48.374 19.6789C47.8502 19.4888 47.6122 19.6315 47.6122 20.3445C47.6122 20.8673 47.3265 21.3902 46.9932 21.5328C43.8032 22.7211 21.6637 41.2588 22.4255 42.0198C22.5207 42.1628 23.8062 41.4968 25.2346 40.5938C27.8532 38.9298 30.7099 38.4548 31.7098 39.4528C32.0907 39.8328 32.424 39.7378 32.8525 39.2158C33.1858 38.8348 33.9475 38.5028 34.5665 38.5028C35.1378 38.5028 35.8044 38.2648 35.9949 37.9798C36.2329 37.5518 35.4711 37.4568 33.1381 37.6468C31.3765 37.7898 30.091 37.7897 30.329 37.5987C30.5195 37.4087 31.9002 36.4108 33.3286 35.3178C35.7568 33.5588 36.1853 33.4162 39.2325 33.3211C43.0414 33.2736 43.708 32.9884 41.1369 32.5606C37.8993 32.0377 37.8993 31.9427 40.518 29.9463C42.5653 28.4252 43.4699 28.0449 45.0411 28.0449C48.1359 28.0449 49.2786 27.3794 46.7075 27.0942L44.6602 26.8566L46.9932 24.8602C48.2787 23.7669 49.7547 22.8162 50.2784 22.7211C51.1355 22.5785 51.1831 22.8637 50.9926 27.0942C50.8974 29.566 50.7546 31.705 50.6593 31.8001C50.5165 31.9427 49.8023 31.6575 48.9929 31.1821C46.5171 29.7086 45.0411 29.0431 44.8507 29.2333C44.3746 29.6611 46.898 32.418 50.9926 35.8878C53.5637 38.0748 55.2301 39.2628 55.0396 38.6928C54.8968 38.2168 54.5635 35.7458 54.2778 33.2736C54.0398 30.8019 53.4684 27.2844 53.0399 25.4781C52.3734 22.7211 52.3258 22.1506 52.8971 21.8179C53.3732 21.5327 53.1828 21.3902 52.2305 21.3902H50.8974L52.2305 19.7264C52.9447 18.8233 54.135 17.8251 54.8492 17.5399C55.5634 17.2547 56.4204 16.7318 56.7061 16.3515C57.325 15.591 57.1822 15.5436 56.0871 16.209Z" fill="#272727"></path><path d="M134.266 19.0135C134.266 19.2511 134.599 19.4888 135.027 19.4888C135.408 19.4888 135.599 19.2511 135.456 19.0135C135.313 18.7283 134.98 18.5381 134.694 18.5381C134.456 18.5381 134.266 18.7283 134.266 19.0135Z" fill="#272727"></path><path d="M67.2289 20.7704C68.1339 21.7686 70.2289 23.9552 71.8469 25.6664C75.0849 29.0888 75.0369 28.661 73.6569 34.603C72.5619 39.213 72.1809 42.493 72.7999 42.113C73.0849 41.923 73.5139 40.925 73.7999 39.831C74.1799 38.596 75.0369 37.312 76.2279 36.219C77.4659 35.078 78.0849 34.127 78.0849 33.3193C78.0849 32.1785 78.2269 32.226 80.5129 34.508L82.9409 36.932L81.4649 38.405C80.6559 39.213 79.9889 40.212 79.9889 40.592C79.9889 41.828 82.5129 41.543 83.8929 40.164L85.0839 38.976L89.5589 43.111C92.0349 45.44 94.5579 47.722 95.1769 48.245L96.3679 49.196L95.3679 47.77C92.9399 44.347 67.0859 19.0117 66.0389 19.0117C65.7529 19.0117 66.2769 19.8197 67.2289 20.7704ZM77.7509 32.7489C77.4179 33.652 75.7039 35.648 75.2279 35.648C75.0369 35.648 75.1329 34.365 75.3709 32.7964L75.8469 29.8969L76.9419 30.9426C77.5609 31.5606 77.8939 32.2736 77.7509 32.7489Z" fill="#272727"></path><path d="M62.2773 21.4846C62.6582 21.9124 62.801 22.5304 62.6106 22.8156C62.4677 23.0533 62.6582 23.2909 63.0391 23.2909C63.6104 23.2909 63.8009 23.7662 63.8009 25.1922C63.8009 27.3787 64.9435 29.9456 65.896 29.9456C67.467 29.9456 66.943 24.0989 65.277 23.0532C64.8483 22.8155 64.8483 22.5303 65.324 21.9599C65.848 21.3419 65.848 21.2945 65.324 21.5797C64.9912 21.7698 64.4198 21.6748 64.0389 21.3896C63.4676 20.9142 63.3247 20.9142 63.3247 21.3896C63.3247 21.8174 63.1343 21.8174 62.5153 21.342C61.7535 20.7241 61.7059 20.7716 62.2773 21.4846Z" fill="#272727"></path><path d="M114.268 22.8148C113.745 23.1475 113.697 23.5278 114.078 24.5735C114.554 25.9995 115.554 26.3798 117.411 25.952C119.03 25.5242 118.982 23.7655 117.363 23.7655C116.697 23.7655 116.03 23.4327 115.887 23.0525C115.554 22.2444 115.268 22.1969 114.268 22.8148Z" fill="#272727"></path><path d="M161.169 22.8142C161.312 23.0519 161.55 23.2896 161.692 23.2896C161.788 23.2896 161.883 23.0519 161.883 22.8142C161.883 22.529 161.645 22.3389 161.359 22.3389C161.121 22.3389 161.026 22.529 161.169 22.8142Z" fill="#272727"></path><path d="M27.8556 24.2397C27.4747 24.8577 28.8078 25.3805 29.8553 25.0003C30.5695 24.7151 30.5695 24.62 29.9981 24.2397C29.0459 23.6218 28.2365 23.6693 27.8556 24.2397Z" fill="#272727"></path><path d="M119.266 25.6657C119.123 25.9034 119.313 26.141 119.742 26.141C120.17 26.141 120.361 25.9034 120.218 25.6657C120.075 25.3805 119.837 25.1904 119.742 25.1904C119.647 25.1904 119.408 25.3805 119.266 25.6657Z" fill="#272727"></path><path d="M99.4168 27.6636C98.0838 30.1354 96.6078 33.8431 96.8458 34.0811C96.9408 34.1761 98.5118 34.3661 100.321 34.4611C104.416 34.6511 106.035 33.9381 102.512 33.5103C98.8928 32.9874 98.7978 32.8448 99.7498 29.8026C100.75 26.6654 100.56 25.4771 99.4168 27.6636Z" fill="#272727"></path><path d="M126.222 28.2341C126.317 28.3292 127.174 28.5193 128.078 28.7094C129.269 28.8996 129.554 28.852 129.031 28.5193C128.364 28.0915 125.745 27.8063 126.222 28.2341Z" fill="#272727"></path><path d="M59.9922 31.7034C59.9922 36.2669 62.0871 43.254 63.5155 43.254C63.7535 43.254 63.8488 41.3049 63.7059 38.8329C63.5155 35.6009 63.1346 33.6999 62.2299 31.6084C60.5635 27.7106 59.9922 27.7105 59.9922 31.7034Z" fill="#272727"></path><path d="M68.845 35.6963C68.035 39.5463 67.607 54.8043 68.274 55.5173C68.607 55.8503 69.9879 52.2853 70.4159 50.0033C70.6539 48.8623 70.94 47.8643 71.035 47.7693C71.13 47.6263 72.13 48.8623 73.273 50.4313C75.32 53.3313 75.3679 53.6633 73.7969 55.1373C73.6539 55.2793 72.6539 56.4203 71.6539 57.7043C70.4639 59.1773 70.083 59.8433 70.702 59.5103C72.321 58.6543 77.1289 54.1393 77.1289 53.5213C77.1289 53.1403 75.7489 51.2393 74.1299 49.1953C71.1779 45.6303 71.0829 45.3923 70.9869 42.5883C70.8919 39.5463 70.2259 35.9813 69.5589 34.7923C69.2729 34.3173 69.083 34.5553 68.845 35.6963Z" fill="#272727"></path><path d="M131.883 35.6499C131.883 35.9349 132.216 36.1249 132.597 36.1249C132.978 36.1249 133.311 36.0299 133.311 35.9349C133.311 35.8399 132.978 35.6499 132.597 35.4599C132.216 35.3169 131.883 35.4119 131.883 35.6499Z" fill="#272727"></path><path d="M39.1816 37.5969C40.6576 38.6419 41.8955 39.593 41.8955 39.688C41.8955 39.783 40.7528 40.4959 39.4197 41.3039C38.0389 42.1119 36.3725 43.2059 35.7059 43.7759L34.5156 44.727L35.7059 44.4419C36.9438 44.1089 41.467 41.9219 43.9428 40.4009L45.4188 39.4979L41.2765 37.549C38.9911 36.503 36.9914 35.6479 36.801 35.6479C36.5629 35.6479 37.658 36.5029 39.1816 37.5969Z" fill="#272727"></path><path d="M168.598 36.5507C168.122 36.8837 168.122 37.0267 168.55 37.3117C168.836 37.5017 169.312 37.4547 169.598 37.1687C170.216 36.5507 169.407 36.0757 168.598 36.5507Z" fill="#272727"></path><path d="M8.09375 38.4072C8.09375 39.0732 8.61745 39.4062 9.33165 39.1202C9.71255 38.9782 9.85535 38.6932 9.71255 38.4552C9.37925 37.9322 8.09375 37.8842 8.09375 38.4072Z" fill="#272727"></path><path d="M76.0828 41.8299C75.1788 42.5899 74.2738 43.7309 74.1788 44.3969C73.9878 45.3949 74.3218 45.2049 76.5118 43.1129C77.8918 41.7349 79.0348 40.5939 79.0348 40.5459C79.0348 39.9759 77.5118 40.6409 76.0828 41.8299Z" fill="#272727"></path><path d="M15.427 42.3523C14.4272 42.6373 13.713 43.2553 13.3321 44.2543C12.7608 45.5373 12.8084 45.8223 13.7606 47.1063C14.4272 48.0093 14.57 48.4843 14.1891 48.4843C13.2845 48.5323 16.046 50.8133 17.3315 51.1463C19.6645 51.7163 24.2829 49.5303 24.2829 47.8663C24.2829 47.4863 18.9503 47.7713 17.1411 48.2943C15.2842 48.7693 14.6176 46.5353 16.2841 45.4893C16.8078 45.1093 17.6172 45.1573 18.9979 45.6323C21.2357 46.3453 21.7118 46.1073 20.95 44.6813C20.4739 43.7783 17.76 41.7823 17.1411 41.8773C16.9982 41.8773 16.2364 42.1153 15.427 42.3523Z" fill="#272727"></path><path d="M82.7978 44.112C81.6558 45.062 80.2268 46.393 79.6558 47.011C79.0368 47.629 78.5608 47.914 78.5608 47.582C78.5608 47.296 78.2278 47.059 77.8468 47.059C76.9898 47.059 76.8948 47.867 77.7518 48.152C78.1328 48.295 77.9898 48.722 77.2278 49.531L76.1328 50.719L79.7988 51.052C85.4168 51.479 90.5588 51.432 90.2258 50.861C89.7968 50.196 87.2738 49.198 84.9888 48.77C83.9408 48.58 82.9408 48.295 82.7978 48.2C82.6078 48.104 83.0838 46.821 83.8938 45.348C84.7028 43.922 85.2268 42.638 85.1308 42.496C84.9888 42.4 83.9888 43.113 82.7978 44.112Z" fill="#272727"></path><path d="M25.9016 43.4929C25.0446 44.1589 25.0922 44.1589 26.4254 43.7779C29.1393 42.9699 29.2821 42.8749 28.0442 42.8279C27.3776 42.7799 26.4254 43.1129 25.9016 43.4929Z" fill="#272727"></path><path d="M191.398 44.205C191.398 44.442 191.636 44.68 191.922 44.68C192.16 44.68 192.255 44.442 192.113 44.205C191.97 43.919 191.732 43.729 191.589 43.729C191.494 43.729 191.398 43.919 191.398 44.205Z" fill="#272727"></path><path d="M43.2796 46.8662C42.8035 47.3892 42.375 47.9592 42.375 48.0542C42.375 48.1972 44.3271 50.2882 46.7077 52.7122C50.5643 56.6582 50.9452 57.1802 50.1834 57.7032C49.5644 58.1792 49.5168 58.4162 49.9453 58.7022C50.2786 58.8922 50.7547 58.8442 51.0404 58.5592C51.326 58.2742 51.8498 58.1792 52.2307 58.3212C53.7066 58.8922 51.2784 55.3742 47.5647 51.6192C45.5174 49.5282 43.9938 47.6262 44.1843 47.4362C44.4223 47.1982 45.4698 47.3412 46.6125 47.7692C48.5169 48.4342 51.1832 48.9102 54.7541 49.1472C55.6587 49.2422 56.8014 49.3372 57.2775 49.3852C57.9441 49.4322 57.5156 50.0502 55.6111 51.8572L53.0877 54.2332L55.3731 53.9962C57.1347 53.8062 57.6108 53.8532 57.6108 54.4232C57.6108 54.8042 58.0869 56.3252 58.6107 57.7982C59.4677 59.9852 59.7057 60.3652 60.0866 59.7002C60.6104 58.7972 60.7056 51.9042 60.2295 50.3832C59.9914 49.5752 60.1819 49.2902 61.4198 48.8622L62.9434 48.3392L61.515 47.7692C58.8963 46.6282 54.6589 46.0102 49.4216 45.9152C44.708 45.8672 44.1366 45.9632 43.2796 46.8662Z" fill="#272727"></path><path d="M30.424 47.9612C33.4235 52.1912 42.4222 58.4662 43.3268 57.0402C43.5649 56.7072 43.2792 55.9462 42.6602 55.2332C40.1844 52.2392 37.8038 49.7672 36.5183 48.8642L35.1375 47.8662L35.7089 49.0072C36.0422 49.6252 37.0896 51.0982 38.0419 52.2862L39.7559 54.4252L37.6134 52.7622C36.4707 51.8592 34.3281 50.1002 32.8522 48.8642C29.8526 46.2502 28.9956 45.9642 30.424 47.9612Z" fill="#272727"></path><path d="M102.124 52.4763C101.076 52.7613 100.267 53.2363 100.314 53.4743C100.362 53.7593 102.171 54.3773 104.362 54.9473C109.551 56.2313 109.98 56.4683 109.98 57.7993C109.98 59.0353 110.456 59.2253 111.313 58.3703C112.122 57.5623 112.027 55.8033 111.122 54.4243C109.884 52.5233 105.219 51.5253 102.124 52.4763Z" fill="#272727"></path><path d="M26.4214 56.0881C28.2307 58.3221 30.0399 60.4131 30.3256 60.7461C30.8969 61.3161 31.2302 67.0201 30.7541 67.0201C30.6589 67.0201 29.8018 66.3071 28.8496 65.4521C27.4689 64.2631 27.0404 63.4551 26.7547 61.5541C26.5166 60.2231 26.0881 58.7491 25.8024 58.2271C25.2787 57.4181 25.2311 57.5611 25.5168 59.1771C25.6596 60.2231 25.8977 61.5061 26.0405 62.0291C26.3738 63.0751 26.5642 63.2181 22.1363 59.6531C18.4702 56.6581 18.0893 56.4201 18.0893 56.8961C18.0893 57.1331 19.9938 59.5101 22.3744 62.1721C26.2786 66.6881 26.5642 67.1631 26.0881 68.2091C25.4692 69.5871 24.755 69.3021 24.755 67.6861C24.755 66.3071 24.2312 66.2121 23.1838 67.4011C22.2792 68.3511 22.0887 71.0611 22.8505 71.5361C23.6599 72.0111 23.4218 72.9141 20.9936 78.0011C15.5659 89.5041 14.6136 91.6431 13.709 93.8771C13.1853 95.1601 12.5663 96.7762 12.3759 97.4422C12.1854 98.1072 11.8521 99.0581 11.6617 99.5811C11.4713 100.104 12.0426 99.6761 12.8996 98.6301C14.6613 96.5861 18.4226 90.7401 19.0892 88.9811C19.5177 87.8401 19.8033 87.6971 22.5172 87.2221C24.4693 86.8891 26.5642 85.2732 25.8977 84.6082C25.6596 84.3702 24.5645 84.1321 23.5171 84.0371L21.5174 83.8951L22.3744 81.9931C22.8505 80.9481 23.6123 79.0461 24.0884 77.8101C24.6598 76.2421 25.2787 75.3391 26.0405 75.0531C26.6595 74.8161 27.088 74.4351 26.9451 74.2451C26.8023 74.0081 27.326 73.4851 28.1354 73.0091C29.9923 71.9161 29.8971 70.9181 27.9926 70.7281C26.4214 70.5851 26.231 70.1101 26.8975 68.1141C27.088 67.5911 35.2296 75.4811 35.6105 76.5271C35.7057 76.7651 34.0869 77.8101 32.0396 78.8561C29.9447 79.8541 27.945 81.0901 27.5641 81.5661C26.9451 82.3261 27.0404 82.3741 29.1353 82.0881C30.3256 81.8981 31.6111 81.7081 31.992 81.6611C32.4681 81.5661 32.611 82.2792 32.7062 84.6082C32.7538 86.3192 32.8966 88.3151 33.0871 89.1231C33.2299 90.0271 33.0395 91.0721 32.5157 92.0701C31.373 94.1621 31.9444 94.4471 34.4202 93.0211C37.3245 91.3101 40.4193 87.7451 41.1335 85.2261C41.6096 83.7521 40.2765 84.2271 37.3721 86.5091C36.0866 87.5071 34.9439 88.3151 34.8963 88.2201C34.8011 88.1731 34.9439 86.9372 35.2296 85.5112C35.4677 84.0852 35.801 81.7081 35.9438 80.1871C36.2771 77.1921 36.8484 76.8121 38.372 78.5231C38.8957 79.1411 40.6574 80.8051 42.2286 82.2791C45.1329 84.9401 45.1329 84.9881 43.9902 85.4631C42.6095 86.1291 42.0381 88.0781 42.7999 89.6461C43.0856 90.3121 43.3236 90.9301 43.3236 91.0251C43.3236 91.1201 41.562 92.5461 39.4195 94.2091C35.4201 97.2041 24.5645 107.757 23.041 110.038C19.8033 114.982 29.0877 107.899 39.0386 97.9171C43.5617 93.3541 45.3709 91.8331 46.6089 91.5951C47.4659 91.4051 48.561 90.7871 49.0371 90.2171L49.8941 89.1711L51.9414 90.8351C55.1314 93.4011 55.5123 93.5441 54.6077 91.9281C54.1792 91.1671 53.465 88.8381 52.9889 86.7471C52.3223 83.7051 52.1318 83.2291 51.989 84.5131C51.8938 85.4161 52.0366 86.7471 52.3223 87.5551C52.608 88.3631 52.7984 89.1232 52.7032 89.2182C52.608 89.3142 51.6081 88.2681 50.4654 86.8891C48.6562 84.7981 48.3229 84.0371 48.0372 81.5661C47.8468 79.9491 47.7039 78.6181 47.7515 78.5711C47.7992 78.5231 49.7989 80.0921 52.1318 82.0881C56.5121 85.7491 58.7975 87.3171 57.7977 85.9861C55.8456 83.4191 51.4177 78.0481 50.7987 77.5731C50.275 77.0971 50.0845 75.8141 50.1321 71.8211C50.1321 69.0171 49.8465 65.5941 49.5132 64.2631C48.9895 61.9341 48.8942 61.7921 47.7039 62.0771C46.0375 62.4571 43.3713 63.6931 43.038 64.2161C42.7999 64.6441 44.133 64.8811 45.8471 64.7391C46.4184 64.6911 46.6565 65.0241 46.6565 65.9751C46.6565 66.6881 47.085 68.8741 47.5611 70.8231C48.0848 72.7721 48.4181 74.4352 48.3705 74.4832C48.3229 74.5312 45.7042 72.0591 42.6095 69.0171C39.4671 65.9751 35.5153 62.2191 33.8489 60.6511L30.7541 57.8941L32.7538 58.2271C35.1344 58.6071 35.2772 58.1791 33.468 56.0401C32.1348 54.4711 29.8018 53.2361 28.1354 53.2361C27.2784 53.2361 27.2308 53.3781 27.6117 54.4711C28.1354 55.8501 27.945 55.7551 24.993 53.5211C23.3266 52.2371 23.5171 52.5221 26.4214 56.0881ZM36.1818 69.2541C36.1818 70.6331 35.9914 71.7742 35.801 71.7742C35.6105 71.7742 34.6583 70.9661 33.706 69.9671C32.2301 68.4461 31.992 67.8281 31.7539 65.1661L31.5159 62.1241L33.8489 64.4531C36.039 66.6401 36.1818 66.8781 36.1818 69.2541ZM40.8954 71.6311C40.9907 71.7261 41.1811 73.0092 41.2763 74.4832L41.4668 77.2401L39.3718 75.1961C37.4198 73.2471 37.2293 72.9141 37.2769 70.7751L37.3245 68.4461L38.991 69.9671C39.9432 70.8231 40.8002 71.5831 40.8954 71.6311ZM45.371 76.0041C46.3232 77.0971 46.9898 78.2382 46.8945 78.7612C46.7993 79.2362 46.7041 80.1871 46.7041 80.9001C46.6565 82.6111 46.2756 82.5162 44.3711 80.3302C43.1808 78.9512 42.7999 78.0011 42.7047 76.3371C42.5618 73.6271 43.1332 73.5321 45.371 76.0041ZM47.6087 87.1751L48.7038 88.3631L47.4659 88.6481C45.8947 89.0761 45.2281 88.6481 45.2281 87.1751C45.2281 85.7011 46.1804 85.7011 47.6087 87.1751Z" fill="#272727"></path><path d="M87.131 54.521C84.512 55.424 84.417 55.471 85.131 56.184C85.988 57.04 94.177 56.85 97.082 55.851C101.271 54.473 99.891 53.712 93.32 53.76C90.987 53.76 88.369 54.093 87.131 54.521Z" fill="#272727"></path><path d="M45.7069 54.52C45.7069 54.853 45.3736 55.138 44.9927 55.138C44.1833 55.138 44.0881 55.566 44.707 56.516C45.0403 57.039 45.4212 57.087 46.0401 56.754C46.8495 56.374 46.8972 56.184 46.3258 55.138C45.9925 54.472 45.7069 54.235 45.7069 54.52Z" fill="#272727"></path><path d="M9.04688 57.0409C9.04688 57.2779 9.38017 57.5159 9.76107 57.5159C10.1419 57.5159 10.4752 57.2779 10.4752 57.0409C10.4752 56.7549 10.1419 56.5649 9.76107 56.5649C9.38017 56.5649 9.04688 56.7549 9.04688 57.0409Z" fill="#272727"></path><path d="M99.1242 57.99C99.7912 59.939 102.505 62.078 104.79 62.459C106.837 62.791 109.17 61.888 109.932 60.462C110.313 59.749 110.075 59.654 107.933 59.654C106.123 59.654 104.552 59.226 102.171 58.085C100.41 57.277 98.8392 56.564 98.7432 56.564C98.6962 56.564 98.8392 57.23 99.1242 57.99Z" fill="#272727"></path><path d="M151.885 61.1291C151.075 62.0791 150.504 62.9821 150.647 63.0771C150.933 63.3631 152.504 61.6991 153.361 60.2251C154.123 58.9421 153.551 59.2751 151.885 61.1291Z" fill="#272727"></path><path d="M74.752 60.4137C74.752 61.8877 78.037 66.8787 80.608 69.2077C82.941 71.3467 83.322 71.9167 82.846 72.4877C82.513 72.8677 81.561 73.2007 80.751 73.2007C79.656 73.2007 79.466 73.3428 79.989 73.6758C80.561 74.0558 80.37 74.4357 78.847 76.0047C77.799 77.0977 76.228 78.1917 75.323 78.4767C74.276 78.8097 73.895 79.1417 74.276 79.3797C74.657 79.6177 74.133 80.3778 72.562 81.8038C70.229 83.9428 69.848 84.3708 67.944 86.5578C67.372 87.2708 66.23 88.5537 65.468 89.4097C62.992 92.1187 63.0872 92.4037 65.753 90.5977C67.182 89.6467 68.42 88.8867 68.61 88.8867C68.753 88.8867 69.896 87.9358 71.086 86.7478C72.372 85.5118 73.8 84.6087 74.419 84.6087C74.99 84.6087 75.8 84.3708 76.18 84.1328C76.799 83.7528 76.752 83.6577 75.99 83.6577C75.228 83.6577 75.181 83.5627 75.752 82.8497C76.99 81.3757 80.132 79.3797 81.275 79.3797C82.418 79.3797 82.799 78.6667 81.799 78.2867C80.989 78.0017 84.941 74.5318 86.846 73.8658C87.845 73.5328 88.083 73.2478 87.655 73.0098C87.226 72.7248 88.226 71.4888 91.035 68.7318C93.178 66.6408 95.939 63.7407 97.082 62.3627L99.177 59.8438L95.559 61.6018C93.559 62.6008 92.13 63.5508 92.416 63.6938C93.226 64.2168 87.941 67.9718 86.417 67.9718C85.179 67.9718 85.132 68.0188 85.893 68.5898C86.703 69.2078 86.703 69.2547 85.512 70.0157C84.084 70.9667 83.798 71.0137 83.798 70.2057C83.798 69.8727 83.037 68.4468 82.132 67.0688C81.18 65.6428 80.513 64.4537 80.561 64.3587C80.656 64.3117 81.894 64.5487 83.322 64.9297C86.322 65.6897 88.083 65.7847 88.083 65.1667C88.083 63.6937 81.751 60.8418 78.513 60.8418C77.466 60.8418 76.18 60.6038 75.657 60.3668C74.99 59.9858 74.752 60.0337 74.752 60.4137Z" fill="#272727"></path><path d="M20.3279 63.0748C19.7089 63.6448 19.9946 64.1678 20.9468 64.1678C21.4705 64.1678 21.8991 63.8348 21.8991 63.4548C21.8991 62.7418 20.8992 62.4568 20.3279 63.0748Z" fill="#272727"></path><path d="M64.6544 63.4071C63.7973 64.0251 63.4641 65.5941 64.1782 65.5941C64.6544 65.5941 66.654 63.5501 66.654 63.0751C66.654 62.5521 65.511 62.7421 64.6544 63.4071Z" fill="#272727"></path><path d="M4.5247 63.6477C4.1914 64.2177 5.096 64.7887 5.715 64.4077C6.2387 64.0757 5.9054 63.2197 5.2389 63.2197C5.0008 63.2197 4.7151 63.4097 4.5247 63.6477Z" fill="#272727"></path><path d="M55.9899 66.0697C54.6091 67.7807 53.6093 70.9177 54.0378 72.2967C54.3711 73.2467 54.3711 73.2467 55.3233 72.3917C55.8946 71.9167 56.704 70.8707 57.1802 70.1097L58.0848 68.6837V70.5857C58.0848 73.5797 59.8464 85.1307 60.3702 85.6537C61.132 86.4137 60.4654 77.5257 59.2275 70.3477C58.0848 63.8357 57.9896 63.6927 55.9899 66.0697Z" fill="#272727"></path><path d="M66.7032 65.8819C65.7512 68.0209 65.6082 74.3899 66.5132 78.1459L67.2272 81.4729L67.9892 80.0469C68.5602 79.0489 68.7512 77.2899 68.7982 73.2499V67.8779L70.2272 69.6849C71.0362 70.6829 72.7982 72.6789 74.1782 74.1529L76.7502 76.7669L75.3692 74.1999C74.6552 72.8219 72.5122 70.0649 70.7032 68.0679L67.3222 64.5029L66.7032 65.8819Z" fill="#272727"></path><path d="M97.1264 67.5441C93.8414 70.0631 84.9854 78.2861 75.2254 87.8401L69.2734 93.7352L72.3684 92.0231C74.0824 91.1201 76.7494 89.4091 78.3204 88.3161C81.2244 86.2241 94.2224 73.6281 96.0794 71.0611C96.6504 70.2531 97.8884 68.6371 98.7934 67.3531C99.7454 66.1181 100.459 65.1191 100.364 65.1191C100.269 65.1191 98.8404 66.2131 97.1264 67.5441Z" fill="#272727"></path><path d="M70.4688 66.3572C70.4688 66.7372 70.7067 66.9282 70.9447 66.7852C71.2307 66.5952 71.3257 66.2622 71.1827 66.0242C70.7537 65.3592 70.4688 65.5012 70.4688 66.3572Z" fill="#272727"></path><path d="M149.834 68.0192C147.168 69.8732 146.739 70.3482 147.501 70.3482C148.215 70.3482 152.262 67.4962 152.548 66.7832C152.929 65.7852 152.834 65.8322 149.834 68.0192Z" fill="#272727"></path><path d="M149.5 73.6289C147.453 74.2949 143.977 76.1959 144.596 76.3859C145.31 76.6239 149.786 74.7219 150.5 73.8669C150.786 73.4869 150.976 73.2009 150.881 73.2489C150.786 73.2489 150.167 73.4389 149.5 73.6289Z" fill="#272727"></path><path d="M17.0445 74.201C16.5684 74.486 16.1875 74.866 16.1875 75.104C16.1875 75.769 17.9491 75.674 18.3776 75.056C18.8538 74.248 17.9491 73.678 17.0445 74.201Z" fill="#272727"></path><path d="M36.8985 84.1342C36.7556 84.3722 36.9461 84.6102 37.3746 84.6102C37.8031 84.6102 37.9935 84.3722 37.8507 84.1342C37.7079 83.8492 37.4698 83.6592 37.3746 83.6592C37.2794 83.6592 37.0413 83.8492 36.8985 84.1342Z" fill="#272727"></path><path d="M58.848 87.5549C58.9908 87.7459 58.6099 88.4109 58.0862 88.9809C57.1816 89.9319 57.0863 90.4549 57.2768 92.7369C57.5149 95.4939 59.6574 100.77 60.562 100.77C60.9429 100.77 60.9905 99.4859 60.7525 96.5869C60.1811 89.7419 60.1335 90.0749 61.0858 90.1219C61.7047 90.1699 61.8952 89.8849 61.7999 88.8859C61.7047 87.7459 61.4666 87.5079 60.1811 87.3649C59.3241 87.2699 58.7528 87.3649 58.848 87.5549Z" fill="#272727"></path><path d="M21.2346 92.6877C17.3304 94.3517 16.759 94.8267 19.1873 94.4467C20.1395 94.3037 20.9489 94.3517 20.9489 94.6367C20.9489 95.4927 22.282 95.0167 22.5201 94.0667C22.9962 92.3077 24.0437 93.4007 24.4246 96.0627C24.6626 97.4887 24.9483 99.1527 25.0911 99.8177C25.3768 100.912 25.4244 100.864 25.7101 99.2947C26.1386 96.8707 25.7101 91.2617 25.0435 91.2617C24.7579 91.2617 23.0438 91.9277 21.2346 92.6877Z" fill="#272727"></path><path d="M64.7496 96.0633C64.7496 97.7263 64.1782 98.9623 62.7499 100.388L61.75 101.386L62.7499 101.767C65.987 102.955 68.892 98.5343 66.844 95.6353C65.797 94.1143 64.7496 94.3043 64.7496 96.0633Z" fill="#272727"></path><path d="M240.204 95.0678C240.061 95.3058 240.251 95.5428 240.632 95.5428C241.061 95.5428 241.394 95.3058 241.394 95.0678C241.394 94.7828 241.204 94.5928 240.965 94.5928C240.68 94.5928 240.347 94.7828 240.204 95.0678Z" fill="#272727"></path><path d="M19.0941 101.248C18.2847 102.721 18.4276 106.761 19.3322 107.522C19.9511 107.997 20.1416 107.997 20.5225 107.427C21.7128 105.621 21.57 101.913 20.2368 100.82C19.7131 100.392 19.475 100.487 19.0941 101.248Z" fill="#272727"></path><path d="M65.2266 105.998C65.2266 106.235 65.4166 106.473 65.6546 106.473C65.9406 106.473 66.2736 106.235 66.4166 105.998C66.5596 105.712 66.3686 105.522 65.9876 105.522C65.5596 105.522 65.2266 105.712 65.2266 105.998Z" fill="#272727"></path><path d="M243.297 107.423C243.297 107.661 243.535 107.899 243.773 107.899C244.059 107.899 244.249 107.661 244.249 107.423C244.249 107.138 244.059 106.948 243.773 106.948C243.535 106.948 243.297 107.138 243.297 107.423Z" fill="#272727"></path><path d="M44.5614 108.611C44.4185 109.039 44.5614 109.324 44.9899 109.324C45.3708 109.324 45.7041 108.992 45.7041 108.611C45.7041 108.231 45.5136 107.898 45.2756 107.898C45.0375 107.898 44.7518 108.231 44.5614 108.611Z" fill="#272727"></path><path d="M8.3287 112.177C8.1858 112.415 8.3763 112.653 8.7572 112.653C9.1857 112.653 9.519 112.415 9.519 112.177C9.519 111.892 9.3285 111.702 9.0905 111.702C8.8048 111.702 8.4715 111.892 8.3287 112.177Z" fill="#272727"></path><path d="M30.9005 113.416L29.7578 114.699L31.0909 113.844C31.8051 113.416 32.3765 112.846 32.3765 112.608C32.3765 111.942 32.1384 112.085 30.9005 113.416Z" fill="#272727"></path><path d="M49.0391 119.307C49.0391 119.83 49.2771 120.258 49.5152 120.258C49.8009 120.258 49.9913 119.83 49.9913 119.307C49.9913 118.784 49.8009 118.357 49.5152 118.357C49.2771 118.357 49.0391 118.784 49.0391 119.307Z" fill="#272727"></path><path d="M93.1751 141.457C92.7941 141.837 93.2231 142.598 93.8421 142.598C94.0801 142.598 94.2701 142.265 94.2701 141.885C94.2701 141.172 93.6991 140.934 93.1751 141.457Z" fill="#272727"></path><path d="M38.47 157.431C38.708 157.669 39.2318 157.812 39.565 157.717C39.9459 157.574 39.7079 157.384 39.0889 157.194C38.2795 157.004 38.0891 157.051 38.47 157.431Z" fill="#272727"></path><path d="M98.321 161.138C98.178 161.376 98.368 161.613 98.749 161.613C99.178 161.613 99.511 161.376 99.511 161.138C99.511 160.853 99.321 160.663 99.083 160.663C98.797 160.663 98.464 160.853 98.321 161.138Z" fill="#272727"></path><path d="M107.602 172.498C107.602 172.735 107.84 173.116 108.078 173.258C108.363 173.401 108.554 173.353 108.554 173.068C108.554 172.83 108.363 172.45 108.078 172.308C107.84 172.165 107.602 172.213 107.602 172.498Z" fill="#272727"></path><path d="M93.2758 174.97C92.7518 175.303 92.7518 175.398 93.2758 175.398C93.6088 175.398 93.7988 175.683 93.6568 176.016C93.5138 176.444 93.7518 176.634 94.4178 176.539C94.9898 176.491 95.7988 176.396 96.1798 176.349C96.6558 176.301 96.7038 176.206 96.3228 176.016C95.9888 175.921 95.7038 175.541 95.7038 175.208C95.7038 174.542 94.2278 174.352 93.2758 174.97Z" fill="#272727"></path><path d="M129.508 183.24C129.508 183.621 129.746 183.953 129.984 183.953C130.27 183.953 130.46 183.621 130.46 183.24C130.46 182.86 130.27 182.527 129.984 182.527C129.746 182.527 129.508 182.86 129.508 183.24Z" fill="#272727"></path></svg> 