<?xml version="1.0" encoding="UTF-8"?> <svg xmlns="http://www.w3.org/2000/svg" width="138" height="138" viewBox="0 0 138 138" fill="none"><rect width="138" height="138" rx="69" fill="#870505"></rect><path d="M45.779 44.0001C45.8425 44.0002 45.8425 44.0002 45.9074 44.0004C45.9518 44.0003 45.9962 44.0002 46.042 44.0001C46.1895 43.9999 46.3371 44 46.4847 44.0002C46.5867 44.0002 46.6888 44.0001 46.7909 44.0001C47.0051 44 47.2193 44.0001 47.4335 44.0004C47.7088 44.0007 47.984 44.0005 48.2593 44.0002C48.4701 44 48.681 44 48.8919 44.0002C48.9934 44.0002 49.0949 44.0002 49.1964 44C49.338 43.9999 49.4797 44.0001 49.6213 44.0004C49.6637 44.0003 49.7061 44.0002 49.7497 44.0001C50.0392 44.0012 50.0392 44.0012 50.0976 44.0599C50.2158 44.0748 50.334 44.0835 50.4527 44.0927C50.5695 44.1126 50.5695 44.1126 50.7268 44.2181C50.8248 44.2284 50.9232 44.2345 51.0217 44.2378C51.2903 44.2554 51.4794 44.3122 51.7175 44.4334C51.8351 44.4848 51.9333 44.5022 52.0605 44.5146C52.2473 44.5343 52.2473 44.5343 52.3522 44.6397C52.5145 44.6835 52.6778 44.7171 52.8423 44.7516C52.8882 44.7668 52.9341 44.7821 52.9814 44.7979C52.9987 44.8501 53.016 44.9022 53.0338 44.956C53.0695 44.9527 53.1052 44.9495 53.1419 44.9461C53.3442 44.9591 53.48 45.0276 53.663 45.1141C53.663 45.1489 53.663 45.1837 53.663 45.2196C53.6998 45.2163 53.7365 45.213 53.7744 45.2097C53.9594 45.2218 54.0793 45.2877 54.2397 45.3777C54.2397 45.4125 54.2397 45.4473 54.2397 45.4831C54.3263 45.5005 54.4128 45.5179 54.5019 45.5358C54.5019 45.5706 54.5019 45.6054 54.5019 45.6412C54.5365 45.6456 54.5711 45.6499 54.6068 45.6544C54.816 45.707 54.994 45.8031 55.1835 45.9048C55.1835 45.9396 55.1835 45.9744 55.1835 46.0102C55.2203 46.0146 55.2571 46.0189 55.2949 46.0234C55.4799 46.0719 55.603 46.1661 55.7603 46.2738C55.8301 46.2918 55.9 46.3095 55.97 46.3265C56.0618 46.4022 56.0618 46.4022 56.1273 46.4846C56.1273 46.5194 56.1273 46.5542 56.1273 46.59C56.1873 46.5998 56.1873 46.5998 56.2486 46.6098C56.3895 46.6427 56.3895 46.6427 56.5468 46.7482C56.5468 46.7829 56.5468 46.8177 56.5468 46.8536C56.5868 46.8503 56.6268 46.847 56.668 46.8437C56.8089 46.8536 56.8089 46.8536 56.904 46.926C56.9662 47.0117 56.9662 47.0117 56.9662 47.1171C57.0527 47.1345 57.1393 47.1519 57.2284 47.1698C57.2284 47.2046 57.2284 47.2394 57.2284 47.2753C57.2803 47.2753 57.3322 47.2753 57.3857 47.2753C57.3857 47.31 57.3857 47.3448 57.3857 47.3807C57.4722 47.3981 57.5587 47.4155 57.6478 47.4334C57.6478 47.4682 57.6478 47.503 57.6478 47.5388C57.6825 47.5388 57.7171 47.5388 57.7527 47.5388C57.7527 47.5736 57.7527 47.6084 57.7527 47.6442C57.783 47.6497 57.8133 47.6551 57.8445 47.6607C57.9811 47.7027 58.0659 47.7597 58.1722 47.8551C58.1722 47.8899 58.1722 47.9246 58.1722 47.9605C58.2035 47.9659 58.2349 47.9714 58.2672 47.977C58.4005 48.0191 58.4434 48.0712 58.5392 48.1713C58.5846 48.1974 58.63 48.2235 58.6768 48.2504C58.8014 48.3295 58.8014 48.3295 58.8538 48.4876C58.9403 48.505 59.0268 48.5224 59.116 48.5403C59.116 48.5751 59.116 48.6099 59.116 48.6457C59.1711 48.6637 59.1711 48.6637 59.2274 48.682C59.4145 48.7678 59.5373 48.8793 59.6927 49.0147C59.7273 49.0321 59.7619 49.0495 59.7976 49.0674C59.7976 49.1022 59.7976 49.137 59.7976 49.1728C59.843 49.194 59.843 49.194 59.8893 49.2156C60.0112 49.2803 60.1142 49.344 60.217 49.4364C60.217 49.4885 60.217 49.5407 60.217 49.5945C60.2484 49.601 60.2798 49.6075 60.3121 49.6143C60.4268 49.6472 60.4268 49.6472 60.5841 49.7526C60.5841 49.7874 60.5841 49.8222 60.5841 49.858C60.636 49.858 60.6879 49.858 60.7414 49.858C60.8298 49.9305 60.8298 49.9305 60.8987 50.0162C60.8987 50.051 60.8987 50.0858 60.8987 50.1216C60.9506 50.139 61.0025 50.1564 61.056 50.1743C61.056 50.2091 61.056 50.2439 61.056 50.2797C61.096 50.2939 61.136 50.308 61.1772 50.3226C61.3123 50.3826 61.3847 50.4281 61.4754 50.5433C61.4754 50.5781 61.4754 50.6129 61.4754 50.6487C61.5068 50.6639 61.5381 50.6791 61.5704 50.6948C61.6851 50.7541 61.6851 50.7541 61.8424 50.8595C61.8424 50.8943 61.8424 50.9291 61.8424 50.965C61.877 50.965 61.9117 50.965 61.9473 50.965C61.9473 50.9997 61.9473 51.0345 61.9473 51.0704C61.9992 51.0704 62.0511 51.0704 62.1046 51.0704C62.1046 51.1226 62.1046 51.1747 62.1046 51.2285C62.1446 51.2426 62.1846 51.2568 62.2259 51.2713C62.361 51.3314 62.4333 51.3768 62.5241 51.4921C62.5241 51.5268 62.5241 51.5616 62.5241 51.5975C62.576 51.6149 62.6279 51.6323 62.6814 51.6502C62.6814 51.685 62.6814 51.7198 62.6814 51.7556C62.716 51.7556 62.7506 51.7556 62.7862 51.7556C62.7862 51.8078 62.7862 51.86 62.7862 51.9137C62.8381 51.9137 62.89 51.9137 62.9435 51.9137C62.9435 51.9485 62.9435 51.9833 62.9435 52.0192C62.9781 52.0192 63.0127 52.0192 63.0484 52.0192C63.0484 52.0713 63.0484 52.1235 63.0484 52.1773C63.1003 52.1773 63.1522 52.1773 63.2057 52.1773C63.2057 52.2121 63.2057 52.2469 63.2057 52.2827C63.2576 52.3001 63.3095 52.3175 63.363 52.3354C63.363 52.3702 63.363 52.405 63.363 52.4408C63.4133 52.462 63.4133 52.462 63.4646 52.4837C63.5727 52.5463 63.5727 52.5463 63.6251 52.7044C63.6699 52.7265 63.6699 52.7265 63.7155 52.7491C63.9102 52.8481 64.0453 53.0172 64.1938 53.1748C64.3432 53.33 64.49 53.4381 64.6738 53.5478C64.6738 53.5825 64.6738 53.6173 64.6738 53.6532C64.7257 53.6706 64.7776 53.688 64.8311 53.7059C64.8311 53.7407 64.8311 53.7755 64.8311 53.8113C64.9609 53.8635 64.9609 53.8635 65.0933 53.9167C65.0933 53.9689 65.0933 54.0211 65.0933 54.0749C65.1452 54.0749 65.1971 54.0749 65.2505 54.0749C65.2505 54.127 65.2505 54.1792 65.2505 54.233C65.2852 54.233 65.3198 54.233 65.3554 54.233C65.3554 54.2678 65.3554 54.3026 65.3554 54.3384C65.4073 54.3558 65.4592 54.3732 65.5127 54.3911C65.5127 54.4259 65.5127 54.4607 65.5127 54.4965C65.5473 54.4965 65.5819 54.4965 65.6176 54.4965C65.6996 54.5858 65.7777 54.6787 65.8535 54.7733C65.8952 54.8246 65.9368 54.876 65.9797 54.9289C66.0683 55.048 66.1293 55.1555 66.1943 55.2872C66.2638 55.3232 66.3337 55.3584 66.4041 55.3926C66.4214 55.4448 66.4387 55.497 66.4565 55.5507C66.5084 55.5681 66.5603 55.5855 66.6138 55.6034C66.6138 55.6382 66.6138 55.673 66.6138 55.7089C66.6484 55.7089 66.683 55.7089 66.7187 55.7089C66.7187 55.7611 66.7187 55.8132 66.7187 55.867C66.7706 55.867 66.8225 55.867 66.876 55.867C66.89 55.9094 66.9041 55.9518 66.9186 55.9955C66.9494 56.0623 66.9494 56.0623 66.9808 56.1305C67.0327 56.1479 67.0846 56.1653 67.1381 56.1833C67.1381 56.218 67.1381 56.2528 67.1381 56.2887C67.1727 56.2887 67.2073 56.2887 67.243 56.2887C67.3139 56.3934 67.3838 56.4989 67.4527 56.6049C67.4873 56.6223 67.5219 56.6397 67.5576 56.6576C67.5576 56.7098 67.5576 56.762 67.5576 56.8158C67.5922 56.8158 67.6268 56.8158 67.6624 56.8158C67.6624 56.8506 67.6624 56.8854 67.6624 56.9212C67.7143 56.9212 67.7663 56.9212 67.8197 56.9212C67.8197 56.9734 67.8197 57.0256 67.8197 57.0793C67.8543 57.0793 67.8889 57.0793 67.9246 57.0793C67.9246 57.1141 67.9246 57.1489 67.9246 57.1848C67.9765 57.2021 68.0284 57.2195 68.0819 57.2375C68.1177 57.3073 68.1527 57.3776 68.1868 57.4483C68.2387 57.4831 68.2906 57.5179 68.3441 57.5537C68.3441 57.6233 68.3441 57.6929 68.3441 57.7646C68.396 57.7646 68.4479 57.7646 68.5014 57.7646C68.5014 57.7993 68.5014 57.8341 68.5014 57.87C68.536 57.87 68.5706 57.87 68.6062 57.87C68.6062 57.9222 68.6062 57.9743 68.6062 58.0281C68.6581 58.0455 68.71 58.0629 68.7635 58.0808C68.7635 58.1156 68.7635 58.1504 68.7635 58.1862C68.7981 58.1862 68.8327 58.1862 68.8684 58.1862C68.8857 58.2732 68.903 58.3602 68.9208 58.4498C68.9554 58.4498 68.99 58.4498 69.0257 58.4498C69.0257 58.4846 69.0257 58.5194 69.0257 58.5552C69.0776 58.5726 69.1295 58.59 69.183 58.6079C69.183 58.6427 69.183 58.6775 69.183 58.7133C69.2868 58.7133 69.3906 58.7133 69.4976 58.7133C69.4976 58.6786 69.4976 58.6438 69.4976 58.6079C69.7275 58.4498 69.7275 58.4498 69.8646 58.4498C69.8819 58.3976 69.8992 58.3454 69.917 58.2917C69.9516 58.2917 69.9862 58.2917 70.0219 58.2917C70.0219 58.2569 70.0219 58.2221 70.0219 58.1862C70.0565 58.1862 70.0911 58.1862 70.1268 58.1862C70.1268 58.1341 70.1268 58.0819 70.1268 58.0281C70.1787 58.0281 70.2306 58.0281 70.2841 58.0281C70.2895 57.9868 70.2949 57.9455 70.3004 57.9029C70.3365 57.7646 70.3365 57.7646 70.4938 57.6591C70.5111 57.607 70.5284 57.5548 70.5462 57.501C70.5808 57.501 70.6154 57.501 70.6511 57.501C70.6684 57.4488 70.6857 57.3966 70.7035 57.3429C70.7381 57.3429 70.7727 57.3429 70.8084 57.3429C70.8084 57.2907 70.8084 57.2385 70.8084 57.1848C70.843 57.1848 70.8776 57.1848 70.9132 57.1848C70.9306 57.1152 70.9479 57.0456 70.9657 56.9739C71.0003 56.9739 71.0349 56.9739 71.0705 56.9739C71.0705 56.9217 71.0705 56.8695 71.0705 56.8158C71.1225 56.8158 71.1744 56.8158 71.2278 56.8158C71.2278 56.7636 71.2278 56.7114 71.2278 56.6576C71.2624 56.6576 71.2971 56.6576 71.3327 56.6576C71.3673 56.5707 71.4019 56.4837 71.4376 56.3941C71.4895 56.3941 71.5414 56.3941 71.5949 56.3941C71.5981 56.356 71.6014 56.318 71.6047 56.2788C71.6607 56.084 71.7578 55.9971 71.9095 55.867C71.9441 55.867 71.9787 55.867 72.0143 55.867C72.0143 55.8148 72.0143 55.7626 72.0143 55.7089C72.0662 55.7089 72.1181 55.7089 72.1716 55.7089C72.1781 55.6773 72.1846 55.6458 72.1913 55.6133C72.2241 55.498 72.2241 55.498 72.3289 55.3399C72.3635 55.3399 72.3981 55.3399 72.4338 55.3399C72.4338 55.2877 72.4338 55.2355 72.4338 55.1818C72.4857 55.1818 72.5376 55.1818 72.5911 55.1818C72.5911 55.1296 72.5911 55.0774 72.5911 55.0236C72.6257 55.0236 72.6603 55.0236 72.696 55.0236C72.7133 54.9715 72.7306 54.9193 72.7484 54.8655C72.783 54.8655 72.8176 54.8655 72.8532 54.8655C72.8532 54.8307 72.8532 54.7959 72.8532 54.7601C72.8879 54.7601 72.9225 54.7601 72.9581 54.7601C72.9722 54.7264 72.9862 54.6927 73.0007 54.658C73.063 54.5492 73.063 54.5492 73.2203 54.4965C73.2562 54.4267 73.291 54.3564 73.3251 54.2857C73.43 54.1671 73.43 54.1671 73.5349 54.0749C73.5695 54.0749 73.6041 54.0749 73.6397 54.0749C73.657 54.0227 73.6743 53.9705 73.6922 53.9167C73.7268 53.9167 73.7614 53.9167 73.797 53.9167C73.81 53.8776 73.823 53.8384 73.8364 53.7981C73.9074 53.641 73.9811 53.5531 74.1116 53.4423C74.1462 53.4423 74.1808 53.4423 74.2165 53.4423C74.23 53.4116 74.2435 53.3809 74.2575 53.3493C74.3265 53.222 74.4027 53.1357 74.5049 53.0338C74.5368 53.0015 74.5687 52.9691 74.6015 52.9358C74.6884 52.8625 74.6884 52.8625 74.7932 52.8625C74.8062 52.8318 74.8192 52.8011 74.8326 52.7695C74.9078 52.6342 74.9913 52.5548 75.1078 52.454C75.1446 52.4217 75.1814 52.3893 75.2193 52.356C75.3176 52.2827 75.3176 52.2827 75.4224 52.2827C75.4224 52.2479 75.4224 52.2131 75.4224 52.1773C75.4945 52.0916 75.4945 52.0916 75.5797 52.0192C75.6143 52.0192 75.6489 52.0192 75.6846 52.0192C75.6846 51.9844 75.6846 51.9496 75.6846 51.9137C75.7365 51.9137 75.7884 51.9137 75.8419 51.9137C75.8419 51.8616 75.8419 51.8094 75.8419 51.7556C75.8765 51.7556 75.9111 51.7556 75.9468 51.7556C75.9641 51.7034 75.9814 51.6512 75.9992 51.5975C76.0338 51.5975 76.0684 51.5975 76.1041 51.5975C76.1041 51.5627 76.1041 51.5279 76.1041 51.4921C76.1387 51.4921 76.1733 51.4921 76.2089 51.4921C76.2262 51.4399 76.2435 51.3877 76.2614 51.3339C76.296 51.3339 76.3306 51.3339 76.3662 51.3339C76.3792 51.3035 76.3922 51.273 76.4055 51.2417C76.4807 51.1057 76.5646 51.0144 76.6808 50.9122C76.7154 50.9122 76.75 50.9122 76.7857 50.9122C76.7857 50.8775 76.7857 50.8427 76.7857 50.8068C76.8203 50.8068 76.8549 50.8068 76.8905 50.8068C76.9078 50.7546 76.9251 50.7025 76.943 50.6487C76.9776 50.6487 77.0122 50.6487 77.0478 50.6487C77.0619 50.615 77.076 50.5813 77.0904 50.5466C77.1527 50.4379 77.1527 50.4379 77.31 50.3851C77.3273 50.3504 77.3446 50.3156 77.3624 50.2797C77.4149 50.1743 77.4149 50.1743 77.5722 50.1216C77.5895 50.0868 77.6068 50.052 77.6246 50.0162C77.677 49.9108 77.677 49.9108 77.8343 49.858C77.8516 49.8059 77.8689 49.7537 77.8868 49.6999C77.9214 49.6999 77.956 49.6999 77.9916 49.6999C77.9916 49.6651 77.9916 49.6303 77.9916 49.5945C78.0435 49.5945 78.0954 49.5945 78.1489 49.5945C78.1489 49.5423 78.1489 49.4901 78.1489 49.4364C78.2448 49.3592 78.2448 49.3592 78.3718 49.2815C78.5468 49.1707 78.6868 49.0596 78.8305 48.9093C78.8651 48.9093 78.8998 48.9093 78.9354 48.9093C78.9354 48.8571 78.9354 48.8049 78.9354 48.7511C78.9873 48.7511 79.0392 48.7511 79.0927 48.7511C79.0927 48.7163 79.0927 48.6816 79.0927 48.6457C79.1886 48.5566 79.1886 48.5566 79.3155 48.4579C79.3569 48.4253 79.3983 48.3926 79.4409 48.3589C79.5646 48.2767 79.5646 48.2767 79.6818 48.2489C79.7276 48.2366 79.7276 48.2366 79.7743 48.224C79.7916 48.1719 79.8089 48.1197 79.8268 48.0659C79.8614 48.0659 79.896 48.0659 79.9316 48.0659C79.9316 48.0311 79.9316 47.9963 79.9316 47.9605C80.0008 47.9605 80.07 47.9605 80.1414 47.9605C80.1587 47.9083 80.176 47.8561 80.1938 47.8024C80.2284 47.8024 80.263 47.8024 80.2987 47.8024C80.2987 47.7676 80.2987 47.7328 80.2987 47.6969C80.451 47.5893 80.5294 47.5388 80.7181 47.5388C80.7181 47.4866 80.7181 47.4344 80.7181 47.3807C80.7581 47.3665 80.7981 47.3524 80.8394 47.3378C80.9805 47.2853 80.9805 47.2853 81.0655 47.1896C81.1012 47.1537 81.1012 47.1537 81.1376 47.1171C81.1895 47.1171 81.2414 47.1171 81.2949 47.1171C81.2949 47.0823 81.2949 47.0475 81.2949 47.0117C81.3727 46.9856 81.3727 46.9856 81.4522 46.959C81.4695 46.9242 81.4868 46.8894 81.5046 46.8536C81.6423 46.7916 81.7809 46.7434 81.9241 46.6954C81.9241 46.6607 81.9241 46.6259 81.9241 46.59C82.0106 46.59 82.0971 46.59 82.1862 46.59C82.1862 46.5552 82.1862 46.5204 82.1862 46.4846C82.3871 46.2988 82.6465 46.1683 82.9203 46.1683C82.9203 46.1336 82.9203 46.0988 82.9203 46.0629C82.982 46.0371 82.982 46.0371 83.045 46.0108C83.1001 45.9878 83.1552 45.9648 83.2119 45.941C83.2981 45.9052 83.2981 45.9052 83.386 45.8686C83.5106 45.8158 83.6332 45.7608 83.7559 45.7038C83.9114 45.6432 84.014 45.6262 84.1786 45.6412C84.196 45.5891 84.2133 45.5369 84.2311 45.4831C84.3349 45.4831 84.4387 45.4831 84.5457 45.4831C84.5457 45.4483 84.5457 45.4135 84.5457 45.3777C84.8133 45.2773 85.0419 45.1971 85.3322 45.2196C85.3322 45.1848 85.3322 45.15 85.3322 45.1141C85.3614 45.1084 85.3906 45.1026 85.4206 45.0966C85.6217 45.0546 85.8112 45.0098 86.0007 44.9297C86.2474 44.83 86.5033 44.8023 86.7657 44.7678C86.9007 44.7599 86.9007 44.7599 86.9576 44.6925C87.0877 44.6774 87.2179 44.6688 87.3486 44.6597C87.4803 44.6478 87.4803 44.6478 87.5789 44.587C87.7102 44.5257 87.8068 44.5186 87.9511 44.5144C87.9999 44.5126 88.0487 44.5108 88.0989 44.5089C88.1494 44.5075 88.1999 44.5061 88.252 44.5047C88.3527 44.5015 88.4534 44.4982 88.5541 44.4946C88.5986 44.4933 88.6431 44.4921 88.689 44.4908C88.7927 44.4929 88.7927 44.4929 88.8451 44.4289C89.4674 44.3251 90.2159 44.3117 90.8376 44.4289C90.8549 44.4463 90.8722 44.4637 90.89 44.4816C90.9764 44.4886 91.0631 44.4923 91.1497 44.4946C91.2028 44.4963 91.2558 44.4981 91.3105 44.4998C91.4226 44.503 91.5347 44.5061 91.6468 44.5089C91.7268 44.5116 91.7268 44.5116 91.8084 44.5144C91.8572 44.5157 91.906 44.517 91.9563 44.5184C92.1062 44.5355 92.2203 44.5797 92.3581 44.6397C92.4856 44.6631 92.4856 44.6631 92.6104 44.6727C92.6519 44.6766 92.6933 44.6806 92.736 44.6846C92.767 44.6872 92.798 44.6898 92.83 44.6925C92.83 44.7272 92.83 44.762 92.83 44.7979C92.884 44.796 92.884 44.796 92.9392 44.7942C92.9864 44.7932 93.0336 44.7923 93.0823 44.7913C93.1292 44.7901 93.176 44.7888 93.2243 44.7876C93.3543 44.7979 93.3543 44.7979 93.5116 44.9033C93.6245 44.9325 93.7383 44.9586 93.8524 44.9824C94.0538 45.0243 94.1783 45.0514 94.3505 45.1668C94.5185 45.2225 94.6879 45.2708 94.8579 45.3198C95.0319 45.3776 95.1845 45.4508 95.3467 45.5358C95.4917 45.6021 95.6372 45.667 95.7828 45.7318C95.9235 45.7994 95.9235 45.7994 96.0616 45.8828C96.2028 45.9678 96.3431 46.0151 96.5003 46.0629C96.5003 46.0977 96.5003 46.1325 96.5003 46.1683C96.5522 46.1683 96.6041 46.1683 96.6576 46.1683C96.6749 46.2031 96.6922 46.2379 96.71 46.2738C96.8311 46.3293 96.9534 46.3822 97.077 46.4319C97.077 46.4841 97.077 46.5363 97.077 46.59C97.1149 46.5857 97.1527 46.5813 97.1917 46.5768C97.3858 46.5942 97.4564 46.6733 97.6013 46.8009C97.6886 46.8539 97.7759 46.9066 97.8635 46.959C97.8981 46.9938 97.9327 47.0286 97.9684 47.0644C98.0768 47.0983 98.0768 47.0983 98.1781 47.1171C98.1781 47.1693 98.1781 47.2215 98.1781 47.2753C98.2127 47.2753 98.2473 47.2753 98.283 47.2753C98.283 47.31 98.283 47.3448 98.283 47.3807C98.3695 47.3981 98.456 47.4155 98.5451 47.4334C98.5451 47.4682 98.5451 47.503 98.5451 47.5388C98.597 47.5388 98.6489 47.5388 98.7024 47.5388C98.7024 47.5736 98.7024 47.6084 98.7024 47.6442C98.7527 47.6638 98.7527 47.6638 98.804 47.6838C98.9122 47.7496 98.9122 47.7496 98.9515 47.8617C98.9558 47.8943 98.9601 47.9269 98.9646 47.9605C99.0511 47.9605 99.1376 47.9605 99.2267 47.9605C99.2397 47.9931 99.2527 48.0257 99.2661 48.0593C99.3424 48.1898 99.4039 48.2215 99.5413 48.2767C99.5413 48.3115 99.5413 48.3463 99.5413 48.3822C99.576 48.3822 99.6106 48.3822 99.6462 48.3822C99.6462 48.417 99.6462 48.4517 99.6462 48.4876C99.6981 48.505 99.75 48.5224 99.8035 48.5403C99.8035 48.5751 99.8035 48.6099 99.8035 48.6457C99.8381 48.6457 99.8727 48.6457 99.9084 48.6457C99.9084 48.6805 99.9084 48.7153 99.9084 48.7511C99.9603 48.7685 100.012 48.7859 100.066 48.8038C100.207 48.9257 100.207 48.9257 100.328 49.0674C100.328 49.137 100.328 49.2065 100.328 49.2782C100.378 49.2978 100.378 49.2978 100.429 49.3178C100.538 49.3837 100.538 49.3837 100.577 49.4957C100.581 49.5283 100.586 49.5609 100.59 49.5945C100.642 49.5945 100.694 49.5945 100.747 49.5945C100.905 49.817 100.905 49.817 100.905 49.9635C100.939 49.9635 100.974 49.9635 101.009 49.9635C101.009 50.0156 101.009 50.0678 101.009 50.1216C101.061 50.139 101.113 50.1564 101.167 50.1743C101.272 50.3324 101.272 50.3324 101.272 50.5433C101.324 50.5433 101.375 50.5433 101.429 50.5433C101.485 50.6831 101.539 50.8218 101.586 50.965C101.621 50.965 101.655 50.965 101.691 50.965C101.734 51.0483 101.776 51.1318 101.819 51.2153C101.843 51.2618 101.866 51.3083 101.891 51.3562C101.953 51.4921 101.953 51.4921 101.981 51.6115C101.989 51.6416 101.997 51.6718 102.006 51.7029C102.04 51.7203 102.075 51.7377 102.111 51.7556C102.161 51.8612 102.161 51.8612 102.212 51.9961C102.23 52.044 102.248 52.0919 102.267 52.1413C102.285 52.1879 102.302 52.2346 102.32 52.2827C102.335 52.3191 102.35 52.3554 102.365 52.3929C102.461 52.6332 102.516 52.8707 102.56 53.1259C102.572 53.2309 102.572 53.2309 102.635 53.2842C102.639 53.4082 102.639 53.5324 102.638 53.6565C102.638 53.7245 102.637 53.7925 102.637 53.8626C102.636 53.9152 102.635 53.9679 102.635 54.0221C102.669 54.0221 102.704 54.0221 102.74 54.0221C102.74 55.7616 102.74 57.501 102.74 59.2932C102.705 59.2932 102.671 59.2932 102.635 59.2932C102.637 59.3614 102.639 59.4297 102.64 59.5001C102.652 60.1483 102.613 60.7665 102.478 61.4016C102.46 61.419 102.443 61.4363 102.425 61.4543C102.41 61.6109 102.402 61.7675 102.393 61.9245C102.373 62.0851 102.329 62.202 102.268 62.3503C102.246 62.4768 102.246 62.4768 102.238 62.6007C102.221 62.8194 102.221 62.8194 102.163 62.8774C102.142 62.9659 102.124 63.055 102.107 63.1443C102.098 63.1927 102.089 63.2412 102.079 63.2911C102.072 63.3285 102.065 63.366 102.058 63.4045C102.023 63.4045 101.989 63.4045 101.953 63.4045C101.954 63.442 101.954 63.4794 101.955 63.518C101.956 63.5907 101.956 63.5907 101.957 63.6648C101.957 63.7131 101.958 63.7614 101.958 63.8112C101.953 63.9316 101.953 63.9316 101.901 63.9844C101.88 64.0728 101.862 64.1619 101.845 64.2512C101.836 64.2996 101.827 64.3481 101.817 64.398C101.81 64.4354 101.803 64.4729 101.796 64.5115C101.761 64.5115 101.727 64.5115 101.691 64.5115C101.692 64.5426 101.694 64.5738 101.695 64.606C101.7 64.8486 101.694 65.0275 101.586 65.2494C101.492 65.5086 101.432 65.7706 101.376 66.04C101.342 66.04 101.307 66.04 101.272 66.04C101.275 66.1009 101.278 66.1618 101.281 66.2245C101.281 66.4717 101.21 66.6589 101.114 66.8834C101.036 67.0838 100.963 67.2825 100.905 67.4896C100.856 67.6613 100.797 67.8239 100.733 67.9903C100.677 68.1463 100.633 68.3045 100.59 68.4647C100.555 68.4647 100.521 68.4647 100.485 68.4647C100.488 68.5267 100.488 68.5267 100.492 68.5899C100.485 68.7283 100.485 68.7283 100.38 68.8337C100.343 68.9561 100.309 69.0792 100.275 69.2027C100.242 69.291 100.207 69.3788 100.171 69.4662C100.145 69.5365 100.12 69.6068 100.095 69.677C100.048 69.8042 100.002 69.9062 99.9313 70.023C99.8378 70.1823 99.7963 70.3419 99.7511 70.5204C99.7165 70.5204 99.6819 70.5204 99.6462 70.5204C99.6462 70.6074 99.6462 70.6943 99.6462 70.784C99.6116 70.784 99.577 70.784 99.5413 70.784C99.5424 70.834 99.5435 70.884 99.5446 70.9355C99.5413 71.1002 99.5413 71.1002 99.4889 71.2056C99.4543 71.2056 99.4197 71.2056 99.384 71.2056C99.3789 71.2356 99.3738 71.2656 99.3685 71.2964C99.3126 71.5867 99.2276 71.7998 99.0695 72.049C99.0348 72.049 99.0002 72.049 98.9646 72.049C98.9646 72.1708 98.9646 72.2925 98.9646 72.418C98.93 72.418 98.8954 72.418 98.8597 72.418C98.8424 72.5049 98.8251 72.5919 98.8073 72.6815C98.7727 72.6815 98.7381 72.6815 98.7024 72.6815C98.7024 72.7859 98.7024 72.8903 98.7024 72.9978C98.6678 72.9978 98.6332 72.9978 98.5976 72.9978C98.5803 73.0848 98.563 73.1717 98.5451 73.2613C98.5105 73.2613 98.4759 73.2613 98.4403 73.2613C98.4435 73.2994 98.4467 73.3374 98.4501 73.3766C98.4383 73.5545 98.3879 73.6464 98.283 73.7884C98.2484 73.7884 98.2138 73.7884 98.1781 73.7884C98.1813 73.8352 98.1846 73.8819 98.1879 73.9301C98.177 74.1239 98.1371 74.2154 98.0208 74.3682C97.9862 74.3682 97.9516 74.3682 97.9159 74.3682C97.8986 74.49 97.8813 74.6118 97.8635 74.7372C97.8289 74.7372 97.7943 74.7372 97.7586 74.7372C97.7532 74.7644 97.7478 74.7916 97.7423 74.8196C97.6812 75.0372 97.6034 75.2447 97.467 75.4257C97.3706 75.5563 97.3357 75.69 97.2867 75.8441C97.2521 75.8963 97.2175 75.9485 97.1819 76.0023C97.1473 76.0023 97.1127 76.0023 97.077 76.0023C97.0803 76.0403 97.0835 76.0784 97.0868 76.1176C97.0751 76.2954 97.0247 76.3874 96.9197 76.5294C96.8851 76.5294 96.8505 76.5294 96.8149 76.5294C96.8149 76.6163 96.8149 76.7033 96.8149 76.7929C96.7803 76.8103 96.7456 76.8277 96.71 76.8456C96.6509 76.9568 96.6509 76.9568 96.5986 77.0861C96.5801 77.1297 96.5615 77.1732 96.5425 77.2181C96.5285 77.2517 96.5146 77.2854 96.5003 77.32C96.4657 77.32 96.4311 77.32 96.3954 77.32C96.3954 77.3722 96.3954 77.4244 96.3954 77.4781C96.3608 77.4781 96.3262 77.4781 96.2905 77.4781C96.2732 77.5651 96.2559 77.6521 96.2381 77.7417C96.2035 77.7417 96.1689 77.7417 96.1332 77.7417C96.1267 77.7721 96.1203 77.8026 96.1136 77.8339C96.0805 77.9538 96.0342 78.054 95.9759 78.1634C95.9413 78.1634 95.9067 78.1634 95.8711 78.1634C95.8711 78.2156 95.8711 78.2677 95.8711 78.3215C95.8365 78.3389 95.8019 78.3563 95.7662 78.3742C95.7295 78.4622 95.6929 78.5502 95.6572 78.6386C95.5652 78.8377 95.4404 79.0651 95.2419 79.1649C95.2354 79.1964 95.2289 79.2279 95.2222 79.2604C95.1788 79.4131 95.092 79.4771 94.9797 79.5865C94.915 79.699 94.915 79.699 94.8749 79.7974C94.8403 79.7974 94.8056 79.7974 94.77 79.7974C94.77 79.8496 94.77 79.9017 94.77 79.9555C94.7354 79.9555 94.7008 79.9555 94.6651 79.9555C94.6478 80.0425 94.6305 80.1295 94.6127 80.2191C94.5781 80.2191 94.5435 80.2191 94.5078 80.2191C94.5078 80.2539 94.5078 80.2886 94.5078 80.3245C94.4732 80.3245 94.4386 80.3245 94.403 80.3245C94.3857 80.4115 94.3684 80.4984 94.3505 80.588C94.3159 80.588 94.2813 80.588 94.2457 80.588C94.2457 80.6402 94.2457 80.6924 94.2457 80.7462C94.1938 80.7462 94.1419 80.7462 94.0884 80.7462C94.0786 80.8065 94.0786 80.8065 94.0687 80.8681C94.0359 81.0097 94.0359 81.0097 93.9311 81.1678C93.8965 81.1678 93.8619 81.1678 93.8262 81.1678C93.8213 81.1964 93.8163 81.2249 93.8113 81.2543C93.7627 81.4155 93.6834 81.5399 93.5935 81.6818C93.545 81.7596 93.545 81.7596 93.4954 81.8391C93.4515 81.8982 93.4515 81.8982 93.4067 81.9585C93.3721 81.9585 93.3375 81.9585 93.3019 81.9585C93.2846 82.0281 93.2673 82.0977 93.2495 82.1693C93.2148 82.1693 93.1802 82.1693 93.1446 82.1693C93.1403 82.1976 93.1359 82.2259 93.1315 82.255C93.0777 82.4262 92.9891 82.5535 92.8824 82.6964C92.8478 82.6964 92.8132 82.6964 92.7776 82.6964C92.7532 82.7584 92.7532 82.7584 92.7284 82.8216C92.6727 82.96 92.6727 82.96 92.6203 83.0654C92.5684 83.0654 92.5164 83.0654 92.463 83.0654C92.4576 83.0969 92.4522 83.1285 92.4466 83.1609C92.4053 83.2929 92.351 83.3402 92.2532 83.4344C92.2359 83.4866 92.2186 83.5387 92.2008 83.5925C92.1254 83.6815 92.1254 83.6815 92.0435 83.7506C92.0089 83.7506 91.9743 83.7506 91.9386 83.7506C91.9386 83.8028 91.9386 83.855 91.9386 83.9088C91.8867 83.9088 91.8348 83.9088 91.7813 83.9088C91.7673 83.9468 91.7532 83.9849 91.7387 84.0241C91.6765 84.1722 91.6096 84.3033 91.5192 84.4359C91.4846 84.4359 91.45 84.4359 91.4143 84.4359C91.3932 84.4864 91.3932 84.4864 91.3717 84.538C91.3095 84.6467 91.3095 84.6467 91.1522 84.6994C91.1349 84.7864 91.1176 84.8734 91.0997 84.963C91.0651 84.963 91.0305 84.963 90.9949 84.963C90.9776 85.0152 90.9603 85.0673 90.9424 85.1211C90.9078 85.1211 90.8732 85.1211 90.8376 85.1211C90.8376 85.1733 90.8376 85.2255 90.8376 85.2792C90.803 85.2792 90.7684 85.2792 90.7327 85.2792C90.7154 85.3488 90.6981 85.4184 90.6803 85.4901C90.6457 85.4901 90.6111 85.4901 90.5754 85.4901C90.5543 85.5537 90.5543 85.5537 90.5328 85.6186C90.502 85.6854 90.502 85.6854 90.4705 85.7536C90.4186 85.771 90.3667 85.7884 90.3132 85.8063C90.3067 85.8357 90.3003 85.865 90.2936 85.8953C90.2426 86.0848 90.1313 86.1903 89.9986 86.3334C89.964 86.3334 89.9294 86.3334 89.8938 86.3334C89.8938 86.3856 89.8938 86.4378 89.8938 86.4916C89.8592 86.4916 89.8246 86.4916 89.7889 86.4916C89.7765 86.5201 89.764 86.5486 89.7512 86.578C89.666 86.7357 89.5608 86.8664 89.4481 87.0055C89.3857 87.0834 89.3857 87.0834 89.3219 87.1628C89.2676 87.2219 89.2676 87.2219 89.2122 87.2822C89.1776 87.2822 89.1429 87.2822 89.1073 87.2822C89.09 87.3344 89.0727 87.3866 89.0549 87.4403C89.0203 87.4403 88.9857 87.4403 88.95 87.4403C88.9359 87.474 88.9219 87.5077 88.9074 87.5425C88.8451 87.6512 88.8451 87.6512 88.6878 87.7039C88.6878 87.7561 88.6878 87.8083 88.6878 87.862C88.6359 87.862 88.584 87.862 88.5305 87.862C88.5165 87.9023 88.5024 87.9425 88.4879 87.9839C88.4282 88.1198 88.383 88.1925 88.2684 88.2837C88.2338 88.2837 88.1992 88.2837 88.1635 88.2837C88.1635 88.3185 88.1635 88.3533 88.1635 88.3891C88.0888 88.4612 88.0888 88.4612 87.9898 88.5407C87.8762 88.6344 87.7925 88.7108 87.7047 88.8306C87.6723 88.873 87.6723 88.873 87.6392 88.9162C87.5873 88.9162 87.5354 88.9162 87.4819 88.9162C87.4819 88.9684 87.4819 89.0206 87.4819 89.0744C87.4034 89.1553 87.4034 89.1553 87.3017 89.2358C87.159 89.3467 87.159 89.3467 87.0624 89.496C87.0105 89.496 86.9586 89.496 86.9051 89.496C86.9051 89.5308 86.9051 89.5656 86.9051 89.6015C86.8705 89.6015 86.8359 89.6015 86.8003 89.6015C86.783 89.6536 86.7657 89.7058 86.7478 89.7596C86.7132 89.7596 86.6786 89.7596 86.643 89.7596C86.643 89.7944 86.643 89.8292 86.643 89.865C86.5604 89.9486 86.5604 89.9486 86.4496 90.0429C86.4114 90.0755 86.3733 90.108 86.3339 90.1415C86.2975 90.172 86.261 90.2025 86.2235 90.234C86.1738 90.2764 86.124 90.3188 86.0728 90.3625C85.9614 90.4448 85.9614 90.4448 85.8565 90.4448C85.8565 90.4796 85.8565 90.5144 85.8565 90.5502C85.8046 90.5502 85.7527 90.5502 85.6992 90.5502C85.6819 90.6024 85.6646 90.6546 85.6468 90.7084C85.6122 90.7084 85.5775 90.7084 85.5419 90.7084C85.5246 90.7606 85.5073 90.8127 85.4895 90.8665C85.4202 90.8665 85.351 90.8665 85.2797 90.8665C85.2624 90.9361 85.2451 91.0057 85.2273 91.0773C85.1581 91.0947 85.0889 91.1121 85.0176 91.1301C85.0176 91.1648 85.0176 91.1996 85.0176 91.2355C84.9361 91.3078 84.8514 91.3765 84.7652 91.443C84.5771 91.5877 84.5771 91.5877 84.4041 91.7496C84.3359 91.8153 84.3359 91.8153 84.2311 91.8153C84.2311 91.8501 84.2311 91.8849 84.2311 91.9207C84.1792 91.9207 84.1273 91.9207 84.0738 91.9207C84.0565 91.9729 84.0392 92.0251 84.0214 92.0788C83.9867 92.0788 83.9521 92.0788 83.9165 92.0788C83.9165 92.1136 83.9165 92.1484 83.9165 92.1843C83.8299 92.2383 83.7424 92.2909 83.6543 92.3424C83.6251 92.3717 83.5959 92.4011 83.5658 92.4313C83.5431 92.4542 83.5204 92.477 83.497 92.5005C83.4624 92.5005 83.4278 92.5005 83.3922 92.5005C83.3922 92.5353 83.3922 92.5701 83.3922 92.6059C83.3201 92.6916 83.3201 92.6916 83.2349 92.7641C83.2003 92.7641 83.1657 92.7641 83.13 92.7641C83.13 92.7989 83.13 92.8336 83.13 92.8695C83.0434 92.9236 82.9559 92.9761 82.8678 93.0276C82.8386 93.057 82.8094 93.0863 82.7794 93.1166C82.7566 93.1394 82.7339 93.1622 82.7105 93.1857C82.6759 93.1857 82.6413 93.1857 82.6057 93.1857C82.6057 93.2205 82.6057 93.2553 82.6057 93.2912C82.4242 93.4493 82.4242 93.4493 82.2911 93.4493C82.2911 93.4841 82.2911 93.5189 82.2911 93.5547C82.2163 93.6227 82.2163 93.6227 82.1174 93.6931C82.069 93.7283 82.069 93.7283 82.0197 93.7643C81.9241 93.8183 81.9241 93.8183 81.7668 93.8183C81.7668 93.8705 81.7668 93.9226 81.7668 93.9764C81.7148 93.9764 81.6629 93.9764 81.6095 93.9764C81.6095 94.0112 81.6095 94.046 81.6095 94.0818C81.5439 94.1675 81.5439 94.1675 81.4522 94.2399C81.383 94.2399 81.3137 94.2399 81.2424 94.2399C81.2251 94.2921 81.2078 94.3443 81.19 94.3981C81.1554 94.3981 81.1208 94.3981 81.0851 94.3981C81.0851 94.4329 81.0851 94.4677 81.0851 94.5035C81.0159 94.5035 80.9467 94.5035 80.8754 94.5035C80.8581 94.5557 80.8408 94.6079 80.823 94.6616C80.5364 94.9252 80.5364 94.9252 80.4035 94.9252C80.4035 94.96 80.4035 94.9948 80.4035 95.0306C80.317 95.048 80.2305 95.0654 80.1414 95.0833C80.1414 95.1181 80.1414 95.1529 80.1414 95.1887C80.0533 95.2682 80.0533 95.2682 79.9382 95.3534C79.9005 95.3819 79.8627 95.4103 79.8239 95.4395C79.7219 95.505 79.7219 95.505 79.617 95.505C79.617 95.5398 79.617 95.5746 79.617 95.6104C79.5651 95.6104 79.5132 95.6104 79.4597 95.6104C79.4424 95.6626 79.4251 95.7148 79.4073 95.7685C79.3727 95.7685 79.3381 95.7685 79.3024 95.7685C79.3024 95.8033 79.3024 95.8381 79.3024 95.874C79.2554 95.8805 79.2554 95.8805 79.2074 95.8871C79.0612 95.9375 79.0257 96.0152 78.9354 96.1375C78.8835 96.1375 78.8316 96.1375 78.7781 96.1375C78.7608 96.1897 78.7435 96.2419 78.7257 96.2956C78.644 96.3687 78.644 96.3687 78.5454 96.4373C78.4969 96.4719 78.4969 96.4719 78.4473 96.5071C78.3587 96.5592 78.3587 96.5592 78.2538 96.5592C78.2365 96.6114 78.2192 96.6636 78.2014 96.7173C78.0649 96.8042 77.9988 96.8227 77.8343 96.8227C77.8343 96.8749 77.8343 96.9271 77.8343 96.9809C77.7824 96.9809 77.7305 96.9809 77.677 96.9809C77.677 97.0157 77.677 97.0505 77.677 97.0863C77.5582 97.1754 77.5582 97.1754 77.4018 97.2741C77.3507 97.3068 77.2996 97.3394 77.2469 97.3731C77.1003 97.4553 77.1003 97.4553 76.9798 97.4831C76.9356 97.4954 76.9356 97.4954 76.8905 97.508C76.8732 97.5602 76.8559 97.6123 76.8381 97.6661C76.7017 97.753 76.6356 97.7715 76.4711 97.7715C76.4538 97.8237 76.4365 97.8759 76.4187 97.9297C76.3494 97.9297 76.2802 97.9297 76.2089 97.9297C76.1916 97.9818 76.1743 98.034 76.1565 98.0878C75.9992 98.1932 75.9992 98.1932 75.7895 98.1932C75.7895 98.228 75.7895 98.2628 75.7895 98.2986C75.6102 98.4325 75.4876 98.4759 75.2651 98.4568C75.2651 98.5089 75.2651 98.5611 75.2651 98.6149C74.9178 98.773 74.9178 98.773 74.7408 98.773C74.7408 98.8078 74.7408 98.8426 74.7408 98.8784C74.7051 98.8926 74.6694 98.9067 74.6327 98.9213C74.5196 98.9672 74.4072 99.0146 74.2951 99.0629C74.0449 99.1707 73.7924 99.2693 73.5369 99.3635C73.4381 99.4024 73.3421 99.4482 73.2465 99.4945C73.0266 99.5774 72.8762 99.576 72.6435 99.5637C72.6435 99.5985 72.6435 99.6332 72.6435 99.6691C72.5933 99.6796 72.5933 99.6796 72.5421 99.6903C72.4988 99.6996 72.4555 99.7089 72.4108 99.7185C72.3461 99.7323 72.3461 99.7323 72.28 99.7463C72.1729 99.7644 72.1729 99.7644 72.1192 99.8272C71.9344 99.8424 71.7496 99.8509 71.5644 99.86C71.3932 99.8676 71.3932 99.8676 71.2876 99.933C71.1451 99.9995 71.0366 99.9987 70.8797 99.999C70.7908 99.9995 70.7908 99.9995 70.7 100C70.6362 99.9998 70.5724 99.9996 70.5067 99.9994C70.441 99.9995 70.3754 99.9996 70.3077 99.9997C70.1689 99.9997 70.0301 99.9996 69.8913 99.9991C69.7135 99.9985 69.5357 99.9988 69.3578 99.9995C69.1881 99.9999 69.0183 99.9996 68.8485 99.9994C68.7846 99.9996 68.7207 99.9998 68.6549 100C68.5957 99.9997 68.5366 99.9993 68.4756 99.999C68.4235 99.9989 68.3714 99.9988 68.3177 99.9987C68.1868 99.9854 68.1868 99.9853 68.0295 99.8799C67.8999 99.8616 67.8999 99.8616 67.7575 99.8569C67.4876 99.8374 67.2806 99.777 67.0333 99.6691C67.0333 99.6343 67.0333 99.5995 67.0333 99.5637C66.9392 99.5702 66.9392 99.5702 66.8432 99.5768C66.6063 99.5777 66.4911 99.4924 66.2992 99.3528C66.1776 99.3077 66.0585 99.2779 65.9322 99.2474C65.9322 99.2126 65.9322 99.1778 65.9322 99.142C65.9041 99.1355 65.8759 99.1289 65.847 99.1222C65.6981 99.0828 65.5535 99.0338 65.4078 98.9839C65.4078 98.9491 65.4078 98.9143 65.4078 98.8784C65.3784 98.8725 65.3489 98.8666 65.3185 98.8605C65.1816 98.821 65.0726 98.7619 64.9491 98.6907C64.9072 98.6667 64.8653 98.6427 64.8221 98.618C64.7904 98.5996 64.7588 98.5811 64.7262 98.5622C64.7262 98.5274 64.7262 98.4926 64.7262 98.4568C64.6662 98.447 64.6662 98.447 64.605 98.437C64.4641 98.404 64.4641 98.404 64.3068 98.2986C64.3068 98.2638 64.3068 98.229 64.3068 98.1932C64.2765 98.1867 64.2462 98.1802 64.215 98.1734C64.0958 98.1402 63.9961 98.0937 63.8873 98.0351C63.8873 98.0003 63.8873 97.9655 63.8873 97.9297C63.8462 97.9133 63.8051 97.897 63.7628 97.8802C63.6251 97.8242 63.6251 97.8242 63.5203 97.7715C63.5203 97.7367 63.5203 97.7019 63.5203 97.6661C63.4511 97.6487 63.3819 97.6313 63.3105 97.6134C63.3105 97.5786 63.3105 97.5438 63.3105 97.508C63.2695 97.4917 63.2284 97.4754 63.186 97.4586C63.0484 97.4026 63.0484 97.4026 62.9435 97.3498C62.9435 97.3151 62.9435 97.2803 62.9435 97.2444C62.9024 97.2281 62.8613 97.2118 62.819 97.195C62.6814 97.139 62.6814 97.139 62.5765 97.0863C62.5765 97.0515 62.5765 97.0167 62.5765 96.9809C62.5246 96.9809 62.4727 96.9809 62.4192 96.9809C62.4192 96.9287 62.4192 96.8765 62.4192 96.8227C62.3911 96.8184 62.363 96.814 62.334 96.8096C62.1637 96.7555 62.0371 96.6664 61.8949 96.5592C61.8949 96.5244 61.8949 96.4896 61.8949 96.4538C61.843 96.4538 61.7911 96.4538 61.7376 96.4538C61.7203 96.419 61.703 96.3842 61.6851 96.3484C61.5794 96.2886 61.5794 96.2886 61.4754 96.2429C61.4754 96.2081 61.4754 96.1734 61.4754 96.1375C61.4235 96.1375 61.3716 96.1375 61.3181 96.1375C61.3181 96.1027 61.3181 96.0679 61.3181 96.0321C61.2835 96.0321 61.2489 96.0321 61.2133 96.0321C61.196 95.9973 61.1786 95.9625 61.1608 95.9267C61.1122 95.9169 61.1122 95.9169 61.0625 95.9069C60.9152 95.8634 60.8816 95.7859 60.7938 95.6631C60.7419 95.6457 60.69 95.6283 60.6365 95.6104C60.5655 95.5413 60.4956 95.4709 60.4268 95.3996C60.3749 95.3648 60.323 95.33 60.2695 95.2942C60.2695 95.2594 60.2695 95.2246 60.2695 95.1887C60.2176 95.1887 60.1657 95.1887 60.1122 95.1887C60.1122 95.1539 60.1122 95.1192 60.1122 95.0833C60.0603 95.0833 60.0084 95.0833 59.9549 95.0833C59.8653 94.9977 59.7779 94.9098 59.6927 94.8198C59.6581 94.8024 59.6235 94.785 59.5878 94.767C59.5878 94.7323 59.5878 94.6975 59.5878 94.6616C59.5359 94.6442 59.484 94.6268 59.4306 94.6089C59.4306 94.5741 59.4306 94.5393 59.4306 94.5035C59.3786 94.5035 59.3267 94.5035 59.2733 94.5035C59.2733 94.4687 59.2733 94.4339 59.2733 94.3981C59.2451 94.385 59.217 94.372 59.1881 94.3585C59.033 94.2765 58.8906 94.1854 58.7489 94.0818C58.7489 94.047 58.7489 94.0122 58.7489 93.9764C58.697 93.9764 58.6451 93.9764 58.5916 93.9764C58.5787 93.934 58.5657 93.8916 58.5523 93.8479C58.5307 93.8033 58.5091 93.7588 58.4868 93.7128C58.3829 93.678 58.3829 93.678 58.277 93.6601C58.2424 93.608 58.2078 93.5558 58.1722 93.502C58.0647 93.4392 58.0647 93.4392 57.9624 93.3966C57.9624 93.3618 57.9624 93.327 57.9624 93.2912C57.9105 93.2912 57.8586 93.2912 57.8051 93.2912C57.8051 93.2564 57.8051 93.2216 57.8051 93.1857C57.7532 93.1684 57.7013 93.151 57.6478 93.133C57.6478 93.0982 57.6478 93.0635 57.6478 93.0276C57.6197 93.0146 57.5916 93.0015 57.5626 92.9881C57.4076 92.906 57.2652 92.815 57.1235 92.7114C57.1235 92.6766 57.1235 92.6418 57.1235 92.6059C57.0716 92.6059 57.0197 92.6059 56.9662 92.6059C56.9662 92.5711 56.9662 92.5364 56.9662 92.5005C56.897 92.4831 56.8278 92.4657 56.7565 92.4478C56.7565 92.413 56.7565 92.3782 56.7565 92.3424C56.7046 92.3424 56.6527 92.3424 56.5992 92.3424C56.5992 92.2902 56.5992 92.238 56.5992 92.1843C56.5473 92.1843 56.4954 92.1843 56.4419 92.1843C56.4419 92.1495 56.4419 92.1147 56.4419 92.0788C56.39 92.0614 56.3381 92.044 56.2846 92.0261C56.2846 91.9913 56.2846 91.9565 56.2846 91.9207C56.25 91.9207 56.2154 91.9207 56.1797 91.9207C56.1797 91.8859 56.1797 91.8511 56.1797 91.8153C56.1278 91.7979 56.0759 91.7805 56.0224 91.7626C56.0224 91.7278 56.0224 91.693 56.0224 91.6572C55.9857 91.6474 55.9489 91.6376 55.911 91.6275C55.731 91.537 55.6464 91.4286 55.5258 91.2701C55.4363 91.1725 55.3545 91.1335 55.236 91.0773C55.0918 90.9456 55.0918 90.9456 54.9738 90.8138C54.9738 90.779 54.9738 90.7442 54.9738 90.7084C54.9219 90.691 54.87 90.6736 54.8165 90.6557C54.8165 90.6209 54.8165 90.5861 54.8165 90.5502C54.7646 90.5502 54.7127 90.5502 54.6592 90.5502C54.6246 90.4633 54.59 90.3763 54.5543 90.2867C54.5024 90.2867 54.4505 90.2867 54.397 90.2867C54.3624 90.1997 54.3278 90.1127 54.2922 90.0231C54.2403 90.0231 54.1884 90.0231 54.1349 90.0231C54.1349 89.971 54.1349 89.9188 54.1349 89.865C54.0484 89.8302 53.9619 89.7954 53.8727 89.7596C53.8727 89.7074 53.8727 89.6552 53.8727 89.6015C53.8208 89.6015 53.7689 89.6015 53.7154 89.6015C53.7154 89.5667 53.7154 89.5319 53.7154 89.496C53.6808 89.496 53.6462 89.496 53.6106 89.496C53.6106 89.4613 53.6106 89.4265 53.6106 89.3906C53.5814 89.3787 53.5522 89.3667 53.5221 89.3544C53.3661 89.2654 53.2582 89.1552 53.1387 89.0216C53.1387 88.9869 53.1387 88.9521 53.1387 88.9162C53.0695 88.8814 53.0002 88.8467 52.9289 88.8108C52.9289 88.7586 52.9289 88.7064 52.9289 88.6527C52.8786 88.6445 52.8786 88.6445 52.8273 88.6362C52.7917 88.6242 52.756 88.6123 52.7192 88.6C52.7019 88.5478 52.6846 88.4956 52.6668 88.4418C52.5355 88.3776 52.5355 88.3776 52.4046 88.3364C52.4046 88.3016 52.4046 88.2668 52.4046 88.231C52.37 88.231 52.3354 88.231 52.2997 88.231C52.2997 88.1962 52.2997 88.1614 52.2997 88.1256C52.2478 88.1082 52.1959 88.0908 52.1424 88.0729C52.1424 88.0381 52.1424 88.0033 52.1424 87.9674C52.1119 87.9533 52.0813 87.9392 52.0499 87.9246C51.9313 87.8612 51.838 87.7915 51.7361 87.7039C51.7039 87.6767 51.6718 87.6495 51.6386 87.6215C51.5657 87.5458 51.5657 87.5458 51.5657 87.4403C51.5138 87.423 51.4619 87.4056 51.4084 87.3876C51.4084 87.3528 51.4084 87.3181 51.4084 87.2822C51.3705 87.2703 51.3327 87.2583 51.2937 87.246C51.1153 87.1623 51.0199 87.0563 50.8841 86.9132C50.8235 86.8599 50.7623 86.8072 50.7006 86.7551C50.2739 86.3908 50.2739 86.3908 50.2024 86.1753C50.1678 86.1753 50.1332 86.1753 50.0976 86.1753C50.0976 86.1405 50.0976 86.1057 50.0976 86.0699C50.0457 86.0525 49.9938 86.0351 49.9403 86.0172C49.8502 85.9235 49.8502 85.9235 49.7568 85.8096C49.6452 85.674 49.5636 85.589 49.416 85.4901C49.3987 85.4379 49.3814 85.3857 49.3635 85.3319C49.33 85.3156 49.2965 85.2993 49.2619 85.2825C49.1271 85.2127 49.1138 85.1501 49.0489 85.0157C49.0122 84.9885 48.9754 84.9613 48.9375 84.9333C48.8889 84.8958 48.8889 84.8958 48.8392 84.8576C48.8392 84.8054 48.8392 84.7532 48.8392 84.6994C48.7527 84.6646 48.6662 84.6298 48.577 84.594C48.577 84.5418 48.577 84.4896 48.577 84.4359C48.5424 84.4359 48.5078 84.4359 48.4722 84.4359C48.387 84.3634 48.387 84.3634 48.3149 84.2777C48.3149 84.243 48.3149 84.2082 48.3149 84.1723C48.2803 84.1723 48.2457 84.1723 48.21 84.1723C48.0527 83.9899 48.0527 83.9899 48.0527 83.8561C48.0181 83.8561 47.9835 83.8561 47.9479 83.8561C47.8688 83.7809 47.8688 83.7809 47.784 83.6815C47.7416 83.6328 47.7416 83.6328 47.6984 83.5832C47.6333 83.4871 47.6333 83.4871 47.6333 83.329C47.5813 83.329 47.5294 83.329 47.476 83.329C47.476 83.2942 47.476 83.2594 47.476 83.2235C47.4414 83.2235 47.4067 83.2235 47.3711 83.2235C47.3711 83.1714 47.3711 83.1192 47.3711 83.0654C47.3192 83.0654 47.2673 83.0654 47.2138 83.0654C47.2138 83.0132 47.2138 82.961 47.2138 82.9073C47.1792 82.9073 47.1446 82.9073 47.1089 82.9073C47.1089 82.8725 47.1089 82.8377 47.1089 82.8019C47.057 82.7845 47.0051 82.7671 46.9516 82.7491C46.6895 82.4672 46.6895 82.4672 46.6895 82.2748C46.6376 82.2574 46.5857 82.24 46.5322 82.222C46.5322 82.1873 46.5322 82.1525 46.5322 82.1166C46.4976 82.1166 46.463 82.1166 46.4273 82.1166C46.4273 82.0644 46.4273 82.0123 46.4273 81.9585C46.3873 81.9465 46.3473 81.9346 46.3061 81.9223C46.1338 81.8377 46.097 81.7566 46.0079 81.5895C45.9673 81.5504 45.9673 81.5504 45.9259 81.5105C45.8506 81.4314 45.8506 81.4314 45.7981 81.293C45.7808 81.2517 45.7635 81.2104 45.7457 81.1678C45.6938 81.1505 45.6419 81.1331 45.5884 81.1151C45.5884 81.0803 45.5884 81.0456 45.5884 81.0097C45.5538 81.0097 45.5192 81.0097 45.4835 81.0097C45.4835 80.9575 45.4835 80.9053 45.4835 80.8516C45.4489 80.8516 45.4143 80.8516 45.3787 80.8516C45.3614 80.782 45.3441 80.7124 45.3262 80.6407C45.2916 80.6407 45.257 80.6407 45.2214 80.6407C45.1362 80.5716 45.1362 80.5716 45.0641 80.4826C45.0641 80.4304 45.0641 80.3782 45.0641 80.3245C45.023 80.3114 44.9819 80.2984 44.9395 80.285C44.7781 80.2077 44.7668 80.1671 44.697 80.0082C44.6603 79.9713 44.6235 79.9343 44.5856 79.8962C44.5532 79.8636 44.5207 79.831 44.4873 79.7974C44.4873 79.7626 44.4873 79.7278 44.4873 79.692C44.4181 79.6746 44.3489 79.6572 44.2776 79.6393C44.2743 79.5979 44.2711 79.5566 44.2678 79.5141C44.2537 79.4684 44.2396 79.4227 44.2252 79.3757C44.0953 79.3032 44.0953 79.3032 43.963 79.2703C43.963 79.2181 43.963 79.1659 43.963 79.1122C43.9284 79.1122 43.8938 79.1122 43.8581 79.1122C43.6972 78.9856 43.6333 78.8182 43.5435 78.6378C43.5089 78.6204 43.4743 78.603 43.4387 78.585C43.4322 78.5535 43.4257 78.522 43.419 78.4895C43.3935 78.3644 43.3935 78.3644 43.2814 78.2688C43.1697 78.1565 43.155 78.1027 43.1241 77.9525C43.0895 77.9351 43.0549 77.9177 43.0192 77.8998C43.0192 77.8476 43.0192 77.7955 43.0192 77.7417C42.9846 77.7417 42.95 77.7417 42.9143 77.7417C42.8353 77.6319 42.8353 77.6319 42.7505 77.488C42.7222 77.4409 42.694 77.3938 42.6649 77.3453C42.5997 77.2146 42.5997 77.2146 42.5997 77.0565C42.5651 77.0565 42.5305 77.0565 42.4949 77.0565C42.4949 77.0043 42.4949 76.9521 42.4949 76.8983C42.4603 76.8983 42.4257 76.8983 42.39 76.8983C42.3673 76.8407 42.3446 76.7831 42.3212 76.7237C42.2569 76.5723 42.1936 76.4853 42.0754 76.3712C41.9694 76.1948 41.874 76.0193 41.7838 75.8342C41.7148 75.6865 41.7148 75.6865 41.6199 75.574C41.5511 75.4752 41.5511 75.4752 41.5511 75.2643C41.5165 75.2643 41.4819 75.2643 41.4462 75.2643C41.2365 74.9853 41.2365 74.9853 41.2365 74.7899C41.2019 74.7899 41.1673 74.7899 41.1316 74.7899C41.1316 74.7377 41.1316 74.6856 41.1316 74.6318C41.0797 74.6144 41.0278 74.597 40.9743 74.5791C40.9743 74.5095 40.9743 74.4399 40.9743 74.3682C40.9397 74.3682 40.9051 74.3682 40.8695 74.3682C40.8695 74.3161 40.8695 74.2639 40.8695 74.2101C40.8349 74.2101 40.8003 74.2101 40.7646 74.2101C40.7387 74.0536 40.7387 74.0536 40.7122 73.8939C40.6776 73.8939 40.643 73.8939 40.6073 73.8939C40.6073 73.8417 40.6073 73.7895 40.6073 73.7357C40.5554 73.7183 40.5035 73.7009 40.45 73.683C40.3941 73.5616 40.3418 73.4384 40.2927 73.314C40.2408 73.2358 40.2408 73.2358 40.1879 73.1559C40.1879 73.0863 40.1879 73.0168 40.1879 72.9451C40.1533 72.9451 40.1186 72.9451 40.083 72.9451C40.0657 72.8581 40.0484 72.7711 40.0306 72.6815C39.996 72.6815 39.9613 72.6815 39.9257 72.6815C39.9257 72.5945 39.9257 72.5076 39.9257 72.418C39.8911 72.418 39.8565 72.418 39.8208 72.418C39.8035 72.331 39.7862 72.244 39.7684 72.1544C39.7338 72.1544 39.6992 72.1544 39.6635 72.1544C39.5569 71.9578 39.5062 71.8556 39.5062 71.6273C39.4716 71.6273 39.437 71.6273 39.4014 71.6273C39.2441 71.2847 39.2441 71.2847 39.2441 71.0475C39.2095 71.0475 39.1749 71.0475 39.1392 71.0475C39.0325 70.8509 38.9819 70.7487 38.9819 70.5204C38.9473 70.5204 38.9127 70.5204 38.877 70.5204C38.8587 70.4754 38.8404 70.4303 38.8215 70.3839C38.7977 70.3257 38.7738 70.2674 38.7492 70.2074C38.7255 70.1493 38.7018 70.0912 38.6774 70.0314C38.6283 69.895 38.6283 69.895 38.5625 69.8352C38.5603 69.7473 38.5602 69.6594 38.5625 69.5716C38.5278 69.5716 38.4932 69.5716 38.4576 69.5716C38.3127 69.2242 38.1693 68.8764 38.0326 68.5257C37.9871 68.4114 37.9871 68.4114 37.9304 68.3027C37.8808 68.2012 37.8808 68.2012 37.8317 68.0266C37.78 67.831 37.78 67.831 37.6973 67.6477C37.6195 67.4651 37.568 67.285 37.5138 67.0942C37.4878 67.0334 37.4619 66.9725 37.4352 66.9098C37.3565 66.7253 37.3565 66.7253 37.3074 66.5507C37.2483 66.3446 37.1719 66.1516 37.0917 65.9532C37.0068 65.7417 36.9419 65.5484 36.9108 65.3219C36.896 65.1531 36.896 65.1531 36.8355 65.0509C36.7331 64.8346 36.7079 64.5935 36.6634 64.3595C36.6363 64.1911 36.6363 64.1911 36.5176 64.0898C36.5038 63.9859 36.4903 63.8819 36.4797 63.7776C36.4598 63.6279 36.4104 63.494 36.3603 63.3518C36.2552 63.0101 36.2355 62.6788 36.221 62.3234C36.2127 62.1458 36.2127 62.1458 36.1515 62.0166C35.8992 61.3512 36.0381 60.4145 36.0387 59.7159C36.0387 59.5838 36.0386 59.4517 36.0386 59.3196C36.0385 59.0441 36.0386 58.7686 36.0389 58.4931C36.0391 58.2114 36.0391 57.9297 36.0389 57.6479C36.0386 57.3056 36.0385 56.9633 36.0387 56.6209C36.0387 56.4912 36.0387 56.3616 36.0385 56.2319C36.0384 56.0503 36.0386 55.8688 36.0389 55.6872C36.0388 55.6345 36.0387 55.5819 36.0386 55.5276C36.0415 54.5398 36.0415 54.5398 36.203 54.233C36.2157 54.1125 36.224 53.9916 36.2292 53.8706C36.2422 53.5681 36.2959 53.3273 36.416 53.0503C36.4731 52.9083 36.4731 52.9083 36.4914 52.7209C36.5176 52.5463 36.5176 52.5463 36.6225 52.4408C36.6434 52.3184 36.6612 52.1953 36.6749 52.0719C36.7095 52.0719 36.7441 52.0719 36.7797 52.0719C36.7776 52.0219 36.7754 51.9719 36.7732 51.9203C36.7797 51.7556 36.7797 51.7556 36.8846 51.6502C36.9186 51.5147 36.9186 51.5147 36.937 51.3866C36.9717 51.3866 37.0063 51.3866 37.0419 51.3866C37.0484 51.3399 37.0549 51.2931 37.0616 51.245C37.0914 51.086 37.1345 50.9542 37.1992 50.8068C37.2338 50.8068 37.2684 50.8068 37.3041 50.8068C37.3142 50.77 37.3243 50.7332 37.3348 50.6952C37.3484 50.6473 37.3621 50.5993 37.3762 50.5499C37.3896 50.5022 37.4029 50.4545 37.4167 50.4053C37.4614 50.2797 37.4614 50.2797 37.5662 50.1743C37.6205 50.0521 37.673 49.9291 37.7235 49.8053C37.7408 49.7705 37.7581 49.7358 37.776 49.6999C37.8106 49.6999 37.8452 49.6999 37.8808 49.6999C37.8867 49.6703 37.8926 49.6407 37.8986 49.6101C37.938 49.4725 37.9968 49.3629 38.0676 49.2387C38.0915 49.1966 38.1153 49.1544 38.1399 49.111C38.1582 49.0792 38.1766 49.0474 38.1954 49.0147C38.23 49.0147 38.2646 49.0147 38.3003 49.0147C38.3068 48.9832 38.3133 48.9516 38.32 48.9191C38.3527 48.8038 38.3527 48.8038 38.4576 48.6457C38.4922 48.6457 38.5268 48.6457 38.5625 48.6457C38.5625 48.5935 38.5625 48.5413 38.5625 48.4876C38.5971 48.4876 38.6317 48.4876 38.6673 48.4876C38.6803 48.4495 38.6933 48.4115 38.7066 48.3723C38.7786 48.2095 38.8625 48.0917 38.9819 47.9605C39.0165 47.9605 39.0511 47.9605 39.0868 47.9605C39.0868 47.9083 39.0868 47.8561 39.0868 47.8024C39.1589 47.7134 39.1589 47.7134 39.2441 47.6442C39.2787 47.6442 39.3133 47.6442 39.3489 47.6442C39.3489 47.6094 39.3489 47.5746 39.3489 47.5388C39.421 47.4531 39.421 47.4531 39.5062 47.3807C39.5408 47.3807 39.5754 47.3807 39.6111 47.3807C39.6306 47.3301 39.6306 47.3301 39.6504 47.2785C39.716 47.1698 39.716 47.1698 39.8274 47.1303C39.8598 47.126 39.8923 47.1216 39.9257 47.1171C39.943 47.0475 39.9603 46.978 39.9781 46.9063C40.0473 46.8889 40.1165 46.8715 40.1879 46.8536C40.2052 46.784 40.2225 46.7144 40.2403 46.6427C40.3095 46.6253 40.3787 46.6079 40.45 46.59C40.45 46.5378 40.45 46.4857 40.45 46.4319C40.5365 46.3971 40.623 46.3623 40.7122 46.3265C40.7122 46.2743 40.7122 46.2221 40.7122 46.1683C40.7641 46.1683 40.816 46.1683 40.8695 46.1683C40.8868 46.1162 40.9041 46.064 40.9219 46.0102C40.9565 46.0102 40.9911 46.0102 41.0268 46.0102C41.0268 45.9754 41.0268 45.9406 41.0268 45.9048C41.3743 45.7033 41.3743 45.7033 41.5183 45.6347C41.6135 45.5937 41.6135 45.5937 41.656 45.4831C41.8685 45.3508 42.0881 45.2509 42.3376 45.2196C42.3376 45.1848 42.3376 45.15 42.3376 45.1141C42.4414 45.0967 42.5452 45.0793 42.6522 45.0614C42.6522 45.0266 42.6522 44.9919 42.6522 44.956C42.7387 44.956 42.8252 44.956 42.9143 44.956C42.9316 44.9038 42.9489 44.8516 42.9668 44.7979C43.0696 44.7516 43.0696 44.7516 43.1962 44.7155C43.3576 44.6687 43.453 44.6301 43.596 44.5343C43.7182 44.4989 43.8406 44.4638 43.963 44.4289C44.0203 44.4017 44.0776 44.3745 44.1367 44.3465C44.3442 44.2652 44.5167 44.2457 44.7372 44.2343C44.8692 44.2247 44.8692 44.2247 45.0116 44.1126C45.1169 44.0927 45.1169 44.0927 45.2279 44.083C45.433 44.0597 45.5646 44.0009 45.779 44.0001Z" fill="#F0EFE9"></path></svg> 