<?xml version="1.0" encoding="UTF-8"?> <svg xmlns="http://www.w3.org/2000/svg" width="671" height="521" viewBox="0 0 671 521" fill="none"><path d="M645.634 1.63058C644.838 2.68283 643.95 4.16226 643.758 5.01788C643.123 7.79708 635.921 10.7189 632.244 9.85258C630.349 9.40655 627.887 9.5033 626.536 10.0863C624.456 10.9482 624.431 11.055 626.813 12.2907C628.399 13.1142 629.689 15.2213 630.207 17.8202C631.034 21.5059 630.8 23.0274 627.967 30.1312C624.043 40.5814 624.234 42.6545 628.689 36.7198C630.627 34.0236 633.607 30.6702 635.384 29.175C638.945 26.1841 645.949 25.1294 649.62 27.0077C653.058 28.9432 652.669 26.2614 649.114 23.3962C644.807 19.9052 644.258 15.4964 646.936 7.11799C649.145 0.317628 648.633 -1.8296 645.634 1.63058ZM642.148 17.4772L643.11 22.9966L637.686 25.887C634.675 27.4305 632.182 28.6461 632.102 28.5142C631.941 28.2509 631.972 25.6684 632.102 22.658C632.231 19.6483 632.2 16.3746 632.077 15.4449C631.898 14.2771 633.089 13.4309 635.675 12.7995C641.068 11.4803 641.092 11.3735 642.148 17.4772Z" fill="#3D2A23"></path><path d="M653.381 47.0038C653.083 48.2956 653.28 51.8574 653.871 54.7156C654.462 57.5739 654.83 59.926 654.697 60.0089C654.455 60.0665 652.581 60.7693 650.305 61.7202C648.056 62.5628 646.073 63.2404 645.857 63.1904C645.527 63.1158 645.546 61.078 645.768 58.6348C646.289 52.9702 644.554 48.1482 641.847 47.5245C638.924 46.8513 638.74 48.6233 641.485 51.5246C643.328 53.4232 643.569 54.8396 642.718 58.5001C642.146 60.9762 640.494 65.1326 639.007 67.6246C635.397 73.825 636.872 74.8455 641.714 69.7224C646.397 64.7897 651.748 62.392 657.143 62.728C662.087 63.0715 663.39 61.896 660.435 59.8564C657.162 57.7415 656.228 55.3717 656.273 50.2783C656.374 45.4247 654.303 43.0207 653.381 47.0038Z" fill="#3D2A23"></path><path d="M406.231 0.431791C405.211 1.43013 406.534 2.07005 432.159 12.9998C452.347 21.5583 488.179 34.83 507.674 40.9883L514 43L506.313 39.554C502.11 37.6918 488.104 32.2341 475.206 27.3669C462.308 22.4997 442.725 14.7526 431.705 10.0918C405.859 -0.88744 407.019 -0.509624 406.231 0.431791Z" fill="#3D2A23"></path><path d="M398.473 2.62083C397.68 3.68044 395.238 10.0223 393.019 16.8702C390.8 23.7174 385.469 37.4284 381.142 47.1812C369.582 73.145 368.64 79.273 374.615 88.2806C379.45 95.4322 383.702 99.2708 394.072 105.574C399.738 109.065 406.5 113.61 409.035 115.683C411.676 117.781 416.771 121.818 420.372 124.596C424.054 127.506 427.631 130.391 428.356 131.129C432.323 135.24 435.069 137.363 435.72 136.949C436.135 136.594 436.067 135.898 435.658 135.235C434.579 133.619 423.118 123.77 415.228 117.825C411.626 115.047 407.573 111.822 406.289 110.611C404.975 109.509 402.347 107.867 400.413 107.07C390.521 102.581 382.828 96.2305 377.962 88.731C370.766 77.7339 370.816 77.5188 385.363 43.3008C387.279 38.7632 391.221 28.2399 394.016 19.8276C396.924 11.4399 399.651 3.80633 400.215 2.8043C401.517 0.502896 400.432 0.361186 398.473 2.62083Z" fill="#3D2A23"></path><path d="M401.105 4.94382C400.859 6.01594 402.508 7.18823 406.807 8.63515C410.036 9.83389 414.58 11.677 416.821 12.7592C419.055 13.8414 428.011 17.1555 436.609 20.0493C445.294 23.0748 456.233 27.0761 461.079 29.1006C465.951 31.0175 472.484 33.5466 475.606 34.7208C478.728 35.8943 484.512 38.2496 488.282 40.026C497.062 44.0908 527.379 55.7362 541.918 60.7951C547.992 62.8788 558.509 66.7799 565.319 69.5982C572.148 72.3087 582.911 76.6061 589.129 79.0608C614.55 88.8958 627.95 94.4825 638.649 99.5547C644.843 102.57 653.056 106.164 656.984 107.751C665.971 111.412 667.979 113.005 666.613 115.965C661.219 127.589 660.464 128.884 658.431 128.412C656.713 128.014 656.587 127.082 657.676 122.366C659.111 116.149 658.198 115.711 656.14 121.672C655.41 123.873 654.403 125.786 653.767 126.09C653.239 126.42 649.003 125.665 644.572 124.301L636.302 121.936L637.196 118.077C638.184 113.789 636.321 114.035 634.634 118.388C633.696 120.993 633.589 120.969 621.064 118.41C614.065 116.903 608.231 116.23 608.105 116.766C607.985 117.302 613.524 119.261 620.366 120.957L632.953 124.209L632.853 127.574L632.752 130.939L633.923 127.822C635.351 124.088 636.843 123.982 645.931 127.214C651.791 129.247 652.578 129.768 652.213 131.829C651.898 133.676 651.98 133.808 652.76 132.407C653.327 131.409 654.68 130.932 656.291 131.305C658.33 131.776 658.765 132.329 658.016 133.623C657.55 134.646 656.216 137.499 655.272 140.103C649.399 154.779 637.133 176.557 630.795 183.447C624.117 190.823 618.786 191.396 599.231 186.983C592.125 185.452 582.476 183.67 577.894 182.949C573.186 182.31 569.404 181.549 569.505 181.12C569.8 179.834 578.7 179.973 588.896 181.317C607.343 183.667 612.435 183.151 619.982 177.896C628.63 171.767 639.814 155.158 642.375 144.571C643.515 139.64 642.161 141.585 638.102 150.357C636.069 154.743 632.676 160.62 630.669 163.431C626.263 169.299 616.482 177.876 612.555 179.226C608.231 180.822 598.136 180.971 586.813 179.592C575.704 178.263 569.454 178.398 566.383 179.946C565.351 180.498 559.164 180.872 552.643 180.718C539.149 180.418 524.245 181.825 518.027 183.774C515.692 184.588 511.563 186.795 508.932 188.896C506.326 190.89 502.153 193.765 499.781 195.247C494.89 198.295 494.034 199.564 486.11 213.314C481.144 222.101 472.383 239.949 471.659 242.604C471.508 243.247 471.187 243.173 470.69 242.38C470.174 241.696 472.276 235.52 476.009 226.22C479.357 218.075 481.981 211.117 481.818 210.852C481.491 210.324 476.191 221.52 471.804 231.685L468.714 239.212L464.742 238.293C462.596 237.796 460.167 236.557 459.267 235.559C457.744 233.85 457.989 232.778 462.772 217.962C465.554 209.346 468.5 199.526 469.268 196.203C470.621 189.854 470.149 183.083 468.324 182.661C467.682 182.511 467.38 183.344 467.581 184.408C467.764 185.58 467.738 188.623 467.361 191.245C466.782 197.661 456.573 229.627 455.283 229.329C454.641 229.18 452.979 227.554 451.613 225.656C447.969 220.861 446.635 222.245 450.141 227.122C453.023 231.29 453.426 232.964 451.097 231.296C450.317 230.776 449.536 230.71 449.417 231.246C449.291 231.781 450.216 232.673 451.538 233.317C458.279 236.911 457.712 242.312 450.43 242.999C446.056 243.341 432.719 239.916 414.951 233.658C409.413 231.699 402.571 230.002 399.468 229.736C394.358 229.344 394.949 229.708 405.857 232.908C412.409 234.877 420.125 237.679 423.089 239.042C430.523 242.57 446.937 246.369 450.449 245.374C452.041 244.839 453.615 244.865 453.835 245.369C454.911 247.084 449.669 248.243 442.185 247.866C435.715 247.498 432.732 246.695 423.316 242.935C410.376 237.794 405.466 236.545 401.042 237.102C396.378 237.717 397.863 238.625 403.339 238.424C407.078 238.385 410.162 239.212 418.696 242.882C434.765 249.65 437.421 250.377 444.52 249.987C448.177 249.817 451.305 249.976 451.55 250.373C452.375 251.692 443.532 258.679 438.522 260.794C433.902 262.662 417.236 266.822 415.732 266.474C414.656 266.226 402.584 270.546 401.451 271.526C399.431 273.43 401.331 273.53 405.787 271.851C412.604 269.251 421.271 266.965 425.752 266.647C427.961 266.369 430.888 265.464 432.096 264.616C433.443 263.685 435.381 263.117 436.351 263.341C438.277 263.788 446.836 258.541 451.487 254.084C453.823 251.801 455.931 251.951 455.415 254.203C455.044 255.81 442.242 267.189 437.043 270.615C431.712 274.124 422.523 277.193 415.505 277.715C410.999 278.14 404.963 279.339 397.97 281.222C393.634 282.364 393.332 281.729 396.126 278.424C398.77 275.309 399.305 273.966 397.914 273.643C397.373 273.518 395.491 275.793 393.728 278.546C392.042 281.431 389.335 285.322 387.793 287.11C384.967 290.522 382.412 295.237 378.075 305.188C375.765 310.299 375.004 311.14 368.414 314.244C356.601 319.867 347.405 325.418 347.009 327.133C346.814 327.99 349.916 326.789 354.203 324.393C364.902 318.175 372.48 314.733 372.134 316.235C371.788 317.735 367.539 321.946 364.367 323.923C363.046 324.746 362.133 325.777 362.378 326.172C363.392 327.649 370.617 322.32 374.236 317.399C376.219 314.696 379.655 311.086 381.732 309.422C383.922 307.782 385.861 305.747 386.081 304.783C386.226 303.686 385.137 303.998 382.922 305.745L379.391 308.315L381.625 302.057C383.891 295.692 388.718 288.002 388.97 290.319C389.172 290.93 389.09 293.734 389.008 296.538C388.907 301.37 388.932 301.263 390.72 293.999C392.488 286.842 392.696 286.438 396.624 285.089C404.397 282.258 409.425 281.05 413.139 281.119C418.325 281.189 425.443 279.224 432.486 275.659C435.772 274.161 438.66 272.909 439.088 273.009C439.516 273.108 439.044 275.145 438.157 277.535C437.238 280.034 435.23 285.78 433.607 290.373C431.876 294.94 428.206 303.465 425.267 309.334C422.334 315.204 419.71 320.694 419.483 321.659C419.263 322.624 416.701 327.339 413.667 332.17C410.735 337.024 406.763 344.914 405.089 349.721C403.308 354.502 397.996 365.244 393.37 373.545C388.737 381.846 385.156 389.035 385.565 389.695C386.478 391.147 388.869 387.636 396.133 374.298C405.907 356.459 407.858 352.395 408.978 347.571C409.545 345.106 411.188 341.421 412.516 339.583C419.005 330.582 434.834 296.303 440.328 279.393C443.513 269.516 444.105 268.411 450.455 261.975C458.423 253.883 460.746 253.629 461.495 261.143C461.923 265.646 461.602 267.04 458.36 273.742C456.403 277.806 454.565 282.349 454.37 283.66C453.854 285.911 453.961 285.936 455.522 283.587C456.51 282.235 458.266 279.029 459.475 276.259C460.758 273.621 462.137 271.568 462.571 271.668C463.106 271.792 464.27 274.094 465.334 276.824C467.915 283.746 477.5 296.578 480.716 297.323C482.863 297.82 481.698 295.518 478.495 292.744C471.666 287.097 465.624 275.084 464.252 264.378C463.905 261.475 464.176 261.764 467.424 266.806C474.265 277.31 478.482 283.029 480.949 285.068C482.277 286.166 484.209 288.081 485.166 289.319C486.123 290.557 488.162 292.497 489.622 293.512C493.386 296.303 493.178 293.77 489.352 290.287C478.111 280.233 466.719 264.95 465.649 258.829C465.315 256.833 465.391 255.044 465.787 254.797C466.977 254.055 486.01 270.994 493.644 279.536C497.32 283.663 502.512 290.059 505.036 293.805C509.675 300.638 514.194 305.07 517.41 305.815C520.519 306.535 519.682 304.308 515.761 301.707C513.728 300.221 510.877 297.414 509.612 295.541C508.24 293.643 505.445 289.608 503.33 286.521C499.107 280.349 488.867 269.397 484.751 266.638C483.291 265.623 482.284 264.599 482.655 264.46C484.373 263.389 502.38 276.929 506.515 282.516C508.24 284.835 513.432 288.295 512.897 286.703C512.501 285.482 505.231 277.814 499.554 272.548C496.187 269.51 477.79 258.138 471.376 255.073C469.545 254.198 468.059 253.289 468.11 253.075C468.204 252.646 471.112 249.366 472.446 247.981C472.711 247.817 475.946 248.001 479.697 248.417C483.417 248.939 492.241 249.4 499.189 249.653C510.657 249.935 512.847 250.217 520.003 253.003C524.446 254.821 530.161 257.951 532.905 260.279C535.643 262.607 538.507 264.399 539.199 264.334C541.415 264.055 532.238 257.301 524.283 253.088C514.792 248.182 512.104 247.561 498.944 247.789C484.31 248.016 474.24 246.589 473.9 244.14C473.573 242.143 483.398 221.154 490.157 209.507C494.664 201.742 495.394 201.008 506.779 193.818C515.912 188.028 520.469 185.92 526.033 184.836C542.485 181.641 564.331 182.971 596.493 189.059C616.086 192.804 622.795 193.114 627.736 190.306C635.805 185.735 644.975 170.016 659.684 135.703C661.786 130.996 665.103 123.972 667.224 120.172L671 113.14L668.86 111.629C664.882 108.789 623.997 90.0668 606.292 83.0337C596.688 79.1163 581.784 73.1824 573.199 69.728C564.746 66.1916 547.375 59.6864 534.737 55.1812C522.105 50.676 502.304 42.9318 490.648 38.0896C478.998 33.2468 459.928 25.7841 448.145 21.4773C427.608 14.0134 408.588 6.78948 403.818 4.44303C402.175 3.72429 401.35 3.87232 401.105 4.94382ZM463.547 242.985C464.591 244.808 466.335 246.566 467.354 247.029C469.211 247.798 469.167 248.012 465.724 251.168C462.124 254.513 461.992 254.596 458.883 252.407C456.472 250.608 455.837 249.444 456.239 246.715C456.686 243.317 459.311 239.295 460.922 239.667C461.35 239.767 462.577 241.293 463.547 242.985ZM468.292 242.502C469.381 243.658 469.224 243.847 467.291 243.4C466.001 243.102 464.73 242.244 464.535 241.633C464 240.041 466.467 240.612 468.292 242.502Z" fill="#3D2A23"></path><path d="M412.187 23.4341C411.74 23.8913 410.36 27.3777 409.07 31.4436C407.697 35.3791 404.794 42.9882 402.59 48.0746C398.699 57.4715 398.566 57.5532 395.563 56.8645C392.981 56.2744 392.547 55.7267 393.044 53.6039C393.957 49.6765 392.232 48.8338 390.506 52.352C389.014 55.3643 386.269 55.9669 386.092 53.3532C385.941 52.536 387.497 48.3073 389.31 43.9145C391.262 39.4407 392.912 34.7871 392.994 33.4641C393.05 32.247 391.218 35.7409 388.781 41.3333C386.344 46.9256 383.58 53.4492 382.472 55.7673C380.318 60.6416 380.551 61.5891 383.02 57.7933C384.166 56.2669 385.33 55.6394 386.571 56.1465C388.51 57.0385 388.334 57.7815 384.115 71.0166L381.124 79.9487L383.933 85.8479C385.438 89.0991 387.169 91.8451 387.597 91.943C389.423 92.3616 389.027 89.6986 386.672 85.2453C384.298 80.8987 384.285 80.4496 386.495 73.9097C387.704 70.1619 389.241 65.0344 389.789 62.6989C390.878 58.0285 393.258 56.5601 395.947 59.0777C397.169 60.1407 396.866 62.4194 394.48 72.1606C392.156 81.1339 391.835 83.9678 392.906 84.2136C393.982 84.4594 395.103 81.5855 397.294 72.6933C399.335 64.4386 400.764 60.7401 401.853 60.4307C404.083 59.5992 433.231 66.4996 439.716 69.2163C444.943 71.5318 469.123 81.3198 486.729 88.2595C504.518 95.3552 533.848 103.416 549.842 105.625C557.745 106.653 569.52 109.015 575.886 110.808C584.267 113.176 586.547 113.586 584.034 112.228C581.906 111.181 569.073 108.018 552.468 104.55C517.602 97.4568 503.894 93.1987 466.472 78.1403C440.22 67.5427 435.195 65.8316 419.736 62.2909L402.345 58.3074L402.704 54.3631C402.767 52.1417 403.554 49.7495 404.341 48.8107C405.279 47.6847 414.006 26.7595 414.705 23.7878C414.901 22.9381 412.917 22.708 412.187 23.4341Z" fill="#3D2A23"></path><path d="M403.398 24.5108C402.253 25.6107 393.564 45.2128 394.017 45.8652C394.559 46.6483 396.047 44.172 400.628 34.4192C402.918 29.7672 405.105 25.5391 405.709 25.1077C406.196 24.6514 406.065 24.179 405.366 24.0314C404.783 23.9088 403.857 24.1609 403.398 24.5108Z" fill="#3D2A23"></path><path d="M395.193 27.4571C394.87 28.8283 394.958 29.3628 395.416 28.7454C395.756 28.2034 396.032 27.0285 395.997 26.2977C395.833 25.6423 395.516 26.0865 395.193 27.4571Z" fill="#3D2A23"></path><path d="M222.869 18.9165C221.75 24.8232 219.987 26.7633 213.063 29.0602C208.399 30.6542 207.723 32.1775 211.176 32.9918C212.54 33.3122 214.629 34.8136 215.907 36.4615C218.469 39.7578 219.508 38.0955 216.97 34.6928C215.287 32.3891 215.416 32.3071 219.336 29.6391L223.459 27.0206L226.586 31.235L229.689 35.5559L226.832 39.3717C225.228 41.574 223.661 44.1212 223.44 45.08C222.863 47.636 222.045 47.3318 220.313 43.7826L218.752 40.9463L218.777 43.7563C218.955 49.2957 220.417 59.8506 221.05 59.9989C221.363 60.0728 222.543 56.3127 223.588 51.7334C225.763 42.1485 228.233 39.0287 235.01 37.3708C240.281 36.0315 240.312 34.9175 235.206 33.602C229.363 32.1137 226.678 27.8917 226.254 20.0499C225.886 12.4458 224.233 11.9445 222.869 18.9165Z" fill="#3D2A23"></path><path d="M630.194 133.361C629.878 134.582 628.175 137.547 626.485 139.981C624.94 142.336 623.778 144.559 624.036 144.934C624.729 145.937 631.039 135.147 631 132.993C630.888 131.576 630.749 131.655 630.194 133.361Z" fill="#3D2A23"></path><path d="M646.171 145.471C643.628 150.896 641.862 155.602 642.008 155.965C642.732 156.895 651.144 138.91 650.998 137.109C650.839 136.302 648.714 140.047 646.171 145.471Z" fill="#3D2A23"></path><path d="M631.943 139.947C628.136 147.126 619.47 157.773 614.065 162.123C607.85 167.069 599.372 169.145 587.495 168.874C574.978 168.455 572.589 168.576 573.053 169.467C574.044 171.036 596.544 171.627 602.288 170.153C614.108 167.278 624.524 157.818 633.26 142.04C637.536 134.298 637.536 134.298 636.251 134.003C635.824 133.904 633.849 136.582 631.943 139.947Z" fill="#3D2A23"></path><path d="M249.881 50.9394C249.329 53.2962 252.494 59.4306 255.819 62.4414C257.533 63.9591 257.507 64.0661 254.452 66.7585C252.712 68.2818 251.133 70.0689 250.985 70.7116C250.426 73.0684 249.117 71.3034 247.139 66.0024C245.04 60.2237 242.575 57.9714 239.108 58.9906C237.259 59.4759 237.6 60.0034 241.073 62.3716C245.047 65.0777 245.111 65.3169 245.586 75.0173C245.984 84.5862 247.743 88.3707 248.674 81.4734C248.886 79.6025 250.208 75.9528 251.55 73.2095C253.514 69.255 254.991 67.8966 259.048 66.3336C265.134 63.99 265.519 62.8361 260.704 61.7446C257.533 61.0251 256.422 59.87 253.713 54.7422C250.979 49.7207 250.311 49.1183 249.881 50.9394Z" fill="#3D2A23"></path><path d="M396.008 87.8448C395.993 91.2465 396.888 93.5905 397.823 92.8692C398.466 92.2846 397.205 85.2227 396.448 85.0051C396.112 84.9089 395.963 86.1841 396.008 87.8448Z" fill="#3D2A23"></path><path d="M399.068 95.7867C398.543 97.5209 401.187 100.628 402.738 99.8881C403.358 99.592 402.826 98.2796 401.696 96.7594C399.924 94.7195 399.444 94.5344 399.068 95.7867Z" fill="#3D2A23"></path><path d="M403.011 102.118C402.723 103.186 408.187 107.43 410.584 107.902C411.836 108.15 412.258 107.926 411.849 107.231C410.53 105.439 403.252 101.245 403.011 102.118Z" fill="#3D2A23"></path><path d="M640.193 159.457C639.87 160.828 639.958 161.363 640.416 160.746C640.756 160.203 641.032 159.028 640.997 158.298C640.833 157.642 640.516 158.087 640.193 159.457Z" fill="#3D2A23"></path><path d="M416.258 111.994C417.113 113.167 418.41 114.331 418.933 114.463C419.56 114.621 422.124 116.583 424.663 118.658C430.541 123.728 434.703 125.972 434.992 124.608C435.14 123.925 433.203 122.121 430.67 120.527C428.032 118.906 424.337 116.06 422.296 114.23C420.384 112.312 417.771 110.578 416.621 110.288C414.524 109.761 414.524 109.761 416.258 111.994Z" fill="#3D2A23"></path><path d="M638.195 164.457C637.871 165.828 637.954 166.363 638.419 165.745C638.76 165.203 639.037 164.028 638.996 163.298C638.837 162.642 638.519 163.087 638.195 164.457Z" fill="#3D2A23"></path><path d="M450.014 130.141C450.211 130.731 452.456 133.428 455.046 136.093C457.612 138.862 461.787 144.184 464.402 148.165C467.122 152.17 469.502 155.226 469.891 154.987C470.773 154.533 466.11 145.607 463.162 142.096C460.06 138.33 449.57 128.729 450.014 130.141Z" fill="#3D2A23"></path><path d="M439.006 128.699C438.884 129.223 440.682 130.835 443.058 132.465C445.351 133.965 447.927 136.19 448.819 137.27C449.577 138.431 450.547 139.197 450.952 138.956C451.761 138.473 442.191 128.412 440.547 128.048C439.783 127.878 439.134 128.175 439.006 128.699Z" fill="#3D2A23"></path><path d="M564.095 162.946C563.777 163.937 564.295 164.836 565.076 164.963C566.003 165.116 566.766 164.777 566.939 164.227C567.157 163.566 566.784 162.693 565.967 162.21C565.294 161.752 564.386 162.065 564.095 162.946Z" fill="#3D2A23"></path><path d="M574.042 165.288C573.833 166.253 574.424 166.964 575.492 166.998C578.147 167.083 578.995 164.69 576.554 164.093C575.331 163.795 574.274 164.215 574.042 165.288Z" fill="#3D2A23"></path><path d="M437.001 138.409C436.9 138.907 443.318 144.7 444.287 144.96C445.785 145.364 444.759 142.593 442.727 140.867C440.128 138.594 437.221 137.287 437.001 138.409Z" fill="#3D2A23"></path><path d="M471.008 147.061C470.706 148.451 479.231 162.48 479.976 161.987C480.225 161.823 478.48 158.129 475.894 153.892C473.339 149.547 471.126 146.527 471.008 147.061Z" fill="#3D2A23"></path><path d="M568.335 170.2C565.549 170.5 563.482 171.853 564.115 172.799C564.359 173.122 565.392 173.042 566.287 172.66C567.208 172.191 569.08 171.535 570.452 171.06C573.194 170.11 572.174 169.733 568.335 170.2Z" fill="#3D2A23"></path><path d="M280.609 105.064C277.526 105.251 270.092 105.22 264.253 105.108C249.887 104.825 224.747 105.767 208.523 107.194C205.647 107.43 198.433 107.901 192.499 108.217C186.585 108.427 166.713 110.023 148.322 111.514C130.02 113.136 106.525 114.795 96.1646 115.215C85.8079 115.634 63.907 117.212 47.4648 118.589C31.0227 119.967 14.605 121.237 11.0644 121.432C4.91377 121.698 1.85101 123.243 5.70427 124.135C8.16617 124.704 24.1883 123.681 47.407 121.28C66.7964 119.346 85.001 118.152 105.821 117.338C120.149 116.823 139.306 115.399 149.911 113.91C155.844 113.141 172.125 111.953 187.885 111.094C194.835 110.787 204.335 110.169 209.069 109.688C231.691 107.937 240.582 107.516 254.678 107.512C263.041 107.42 272.767 107.305 276.201 107.085C287.271 106.494 289.701 106.718 290.473 108.249C290.862 109.015 291.076 113.459 291.025 118.068C291.082 122.701 291.019 130.799 290.925 136.074C290.85 148.114 290.781 148.435 288.206 147.84C287.032 147.567 286.241 146.596 286.442 145.74C286.637 144.884 286.379 144.036 285.845 143.912C285.312 143.788 284.816 144.463 284.703 145.45C284.276 148.281 282.003 147.868 281.224 144.871C280.722 142.164 280.615 142.139 280.1 144.385C278.675 149.576 271.712 146.049 272.918 140.807C273.169 139.738 272.905 138.437 272.359 137.861C271.712 137.259 271.141 138.254 270.789 140.764C270.23 145.142 268.579 146.902 267.625 144.202C267.179 143.198 266.532 138.202 266.011 133.123C265.496 128.045 264.686 124.704 264.253 125.616C263.813 126.53 263.87 129.698 264.479 132.431C264.956 135.246 265.377 139.287 265.314 141.526C265.088 145.418 265.088 145.418 259.738 145.643C256.649 145.831 250.157 146.129 245.122 146.43C237.612 146.72 236.633 147.056 239.847 147.8C241.963 148.402 246.07 148.677 248.945 148.441C251.79 148.312 254.458 148.478 254.709 148.874C254.929 149.376 255.645 149.204 256.222 148.661C256.8 148.118 258.815 147.684 260.818 147.809C264.975 147.87 265.772 149.294 264.372 154.379C263.82 156.28 263.876 157.984 264.416 158.107C265.057 158.256 265.98 156.215 266.595 153.541C267.681 148.835 269.684 147.495 270.117 150.977C270.563 153.446 272.221 153.604 272.786 151.143C273.087 149.86 274.242 149.228 276.057 149.196C278.512 149.313 279.027 149.997 279.761 153.66C281.105 160.055 276.452 179.712 271.913 186.662C267.895 192.831 267.103 193.324 249.058 200.189C233.707 206.101 227.849 209.026 227.378 211.059C227.202 211.807 223.592 213.787 219.335 215.619C196.75 225.04 186.597 232.381 179.54 244.381C176.878 249.062 173.87 253.775 172.935 254.91C169.865 258.932 168.27 288.763 169.62 317.584C170.48 333.895 170.668 342.841 170.737 361.563C170.744 373.735 171.698 388.154 173.305 397.315C174.002 402.097 175.07 409.216 175.641 413.068C177.047 424.55 180.206 444.098 181.913 451.819C183.314 458.453 188.343 468.406 190.591 468.927C191.985 469.249 191.758 468.747 188.129 462.497C184.582 456.38 182.855 447.754 177.449 409.654C176.432 402.321 175.252 395.736 174.862 394.971C174.36 393.727 173.443 381.572 172.433 361.055C172.257 356.956 172.263 351.549 172.508 349.015C172.677 346.348 172.495 334.926 171.968 323.536C169.959 280.477 171.409 256.135 175.823 255.579C176.646 255.431 178.309 253.112 179.301 250.298C180.369 247.617 183.32 242.665 185.844 239.531C194.86 228.322 218.713 216.828 250.433 208.395C252.951 207.739 256.047 206.539 257.258 205.693C258.552 204.978 260.461 204.519 261.421 204.742C262.495 204.99 264.724 204.604 266.363 203.857C268.026 203.002 270.758 202.396 272.334 202.422C276.754 202.318 284.96 198.021 287.221 194.599C290.04 190.182 292.388 180.021 293.38 166.953C293.801 160.741 294.152 155.301 293.932 154.799C293.512 153.687 292.922 125.492 293.022 114.81C293.21 106.178 293.104 106.153 289.757 105.492C287.829 105.045 283.805 104.903 280.609 105.064ZM291.22 153.834C291.603 167.33 288.012 188.247 284.527 193.075C282.524 195.88 269.477 202.098 266.802 201.479C265.835 201.256 246.61 206.383 235.666 209.823C232.621 210.808 230.68 210.921 231.063 210.222C231.585 209.441 239.86 205.835 249.623 202.123C259.387 198.412 268.667 194.362 270.193 193.137C276.383 187.81 282.367 169.701 281.99 157.669C281.745 149.95 281.796 149.735 283.616 150.157C284.577 150.38 285.155 152.767 285.218 156.388C285.255 159.663 285.532 161.869 285.896 161.277C286.26 160.685 286.612 158.175 286.643 155.591C286.561 152.529 287.089 150.736 288.012 150.16C290.385 148.681 291.113 149.414 291.22 153.834Z" fill="#3D2A23"></path><path d="M445.011 145.815C444.884 146.351 445.902 147.825 447.433 149.078C450.267 151.533 454.967 159.152 457.498 165.37C459.275 169.949 460.787 170.296 459.547 165.841C458.244 160.695 454.271 153.356 450.685 149.261C446.902 145.011 445.409 144.104 445.011 145.815Z" fill="#3D2A23"></path><path d="M547.689 176.108C533.315 176.33 519.192 177.328 516.845 178.387C512.838 180.031 515.494 180.477 523.494 179.453C534.846 177.986 544.447 177.497 553.432 178.015C557.535 178.244 561.098 177.848 561.606 177.231C562.532 175.878 563.111 175.893 547.689 176.108Z" fill="#3D2A23"></path><path d="M283.355 115.65C282.898 116.079 282.868 116.925 283.349 117.524C283.988 118.321 284.372 118.134 284.756 116.839C285.328 114.897 284.908 114.48 283.355 115.65Z" fill="#3D2A23"></path><path d="M483.317 167.955C484.294 169.717 492.764 173.85 492.994 172.844C493.115 172.286 491.468 170.953 489.228 169.713C484.492 166.821 482.092 166.252 483.317 167.955Z" fill="#3D2A23"></path><path d="M284.302 127.548C283.41 132.474 284.672 137.424 285.77 133.693C286.148 132.591 286.036 129.723 285.607 127.333L284.912 123L284.302 127.548Z" fill="#3D2A23"></path><path d="M501.457 175.553C502.226 176.005 503.344 176.111 503.792 175.885C504.362 175.683 503.721 175.254 502.354 175.103C501.023 174.853 500.574 175.079 501.457 175.553Z" fill="#3D2A23"></path><path d="M485.166 179.749C486.374 181.891 494.638 185.14 494.982 183.599C495.126 182.939 494.4 182.186 493.224 181.905C492.16 181.65 489.671 180.709 487.825 179.921C485.391 178.759 484.622 178.691 485.166 179.749Z" fill="#3D2A23"></path><path d="M470.054 180.285C469.459 182.832 473.807 186.405 480.411 188.485C487.636 190.819 496.639 191.774 496.984 190.288C497.159 189.545 495.9 189.143 493.663 189.077C484.891 189.069 473.375 184.404 472.83 180.924C472.548 178.735 470.524 178.268 470.054 180.285Z" fill="#3D2A23"></path><path d="M87.271 111.313C70.9936 112.86 33.6225 114.92 12.0533 115.551C6.08919 115.63 2.96005 117.078 6.47402 117.916C8.0714 118.297 39.2579 117.303 53.5856 116.447C67.0942 115.741 108.562 111.424 109.743 110.666C111.555 109.596 103.764 109.817 87.271 111.313Z" fill="#3D2A23"></path><path d="M486.299 202.895C484.491 205.096 484.561 205.691 486.567 204.106C487.563 203.314 488.234 202.366 487.923 202.117C487.768 201.799 487.026 202.152 486.299 202.895Z" fill="#3D2A23"></path><path d="M267.152 165.61C262.343 180.68 257.318 185.56 238.697 193.488C229.586 197.331 222.506 201.745 222.005 203.86C221.859 204.495 225.196 202.911 229.345 200.285C233.469 197.765 238.488 195.336 240.55 194.8C242.618 194.265 244.889 193.33 245.492 192.688C246.126 191.94 247.357 191.55 248.112 191.722C249.844 192.114 256.734 187.545 260.668 183.422C264.557 179.51 268.389 171.464 270.191 163.847C272.234 155.173 270.108 156.473 267.152 165.61Z" fill="#3D2A23"></path><path d="M199.465 147.378C198.27 147.312 194.652 147.235 191.501 147.03C188.221 146.916 185.75 147.144 186.02 147.466C186.578 148.498 202.236 149.498 203.597 148.726C204.756 147.898 203.426 147.419 199.465 147.378Z" fill="#3D2A23"></path><path d="M171.928 147.859C168.511 147.865 163.807 148.038 161.607 148.221C159.4 148.405 152.509 148.16 146.34 147.731C140.196 147.186 133.653 146.907 131.688 147.028C128.226 147.264 128.226 147.264 131.01 148.071C136.576 149.683 180.747 150.756 182.877 149.344C183.917 148.753 178.173 147.944 171.928 147.859Z" fill="#3D2A23"></path><path d="M371.537 194.005C365.413 194.163 358.216 196.53 354.94 199.464C351.269 202.641 347.862 210.01 345.158 220.666C343.445 227.532 343.451 227.98 346.413 232.68C348.163 235.315 349.958 237.291 350.485 236.965C351.037 236.533 350.397 234.934 349.086 233.294C346.494 229.908 345.641 225.356 346.802 220.374C347.862 215.817 348.998 215.295 350.579 218.673C352.349 222.206 354.143 221.277 352.662 217.476C351.05 213.756 351.533 212.639 355.499 209.641C357.419 208.183 358.987 206.757 359.063 206.439C359.332 205.273 355.361 204.919 353.779 205.897C352.593 206.63 352.324 206.344 352.719 204.648C353.535 201.15 359.351 197.461 366.172 196.235C372.516 195.123 378.426 196.367 399.24 203.267L405 205.148L400.024 202.33C394.264 198.998 376.538 193.813 371.537 194.005Z" fill="#3D2A23"></path><path d="M419.852 207.627L411 207L424.006 210.202C435.635 213.064 437.587 213.902 442.266 217.681C447.602 222.097 449.961 222.082 446.07 217.78C443.874 215.451 432.72 208.885 430.218 208.508C429.342 208.411 424.713 207.988 419.852 207.627Z" fill="#3D2A23"></path><path d="M110.102 144.156C64.065 135.455 41.9259 132.713 32.5089 134.535C26.727 135.712 31.2915 136.456 42.575 136.364C52.823 136.373 63.4403 137.752 97.7974 143.772C119.905 147.67 134.951 149.411 122.495 146.66C119.291 145.892 113.684 144.78 110.102 144.156Z" fill="#3D2A23"></path><path d="M415.924 213.844C415.413 214.065 403.729 212.083 389.939 209.286C368.046 204.871 361.694 204.101 363.214 205.91C363.743 206.593 408.441 214.956 417.13 216.032C424.249 216.975 424.766 217.205 430.633 222.479C435.843 227.151 437.784 228.156 443.249 229.286C448.063 230.268 448.982 230.253 447.067 229.141C445.643 228.367 443.134 227.347 441.417 226.844C439.699 226.341 435.313 223.543 431.763 220.597C425.519 215.463 418.228 212.342 415.924 213.844Z" fill="#3D2A23"></path><path d="M0.228964 120.724C-0.216598 121.184 0.0225161 126.982 0.649324 133.545C2.16663 147.97 2.7519 156.662 3.19684 176.695C3.7733 196.646 5.65437 203.16 12.5285 208.124C18.3214 212.389 24.2799 213.99 56.3321 220.036C82.0054 224.834 107.725 232.347 115.056 237.304C117.976 239.329 121.173 241.643 122.01 242.4C124.075 244.227 124.691 244.483 124.993 243.2C125.289 241.918 115.616 234.394 110.418 231.955C101.362 227.614 72.5397 219.835 56.9513 217.363C48.5668 215.991 37.9872 214.338 33.2749 213.701C23.6858 212.163 15.4498 208.686 11.7941 204.464C8.30384 200.506 6.58765 192.791 6.04391 179.041C5.70596 169.28 3.77644 141.022 3.13264 136.482C3.0093 135.553 3.66947 135.143 4.95644 135.44C6.67325 135.835 7.09428 138.41 7.69592 150.935C8.03386 159.232 8.35481 169.553 8.35481 173.945C8.27174 178.204 8.56059 182.324 8.89035 182.851C10.0458 184.694 10.1622 173.461 9.15592 154.875C8.71098 145.089 8.58765 136.84 8.98412 136.594C10.4366 135.691 20.1823 137.04 21.2472 138.298C21.767 138.981 22.2616 141.235 22.1628 143.127C22.0219 150.075 25.3214 180.225 27.2767 189.346C28.3573 194.437 29.711 198.353 30.3214 198.156C31.064 197.877 30.9652 195.377 30.132 192.145C28.3415 184.75 26.8318 173.705 25.9086 161.106C25.5373 155.39 24.9438 147.709 24.5807 143.91C23.9866 137.692 24.1351 137.051 26.0168 136.246C27.6593 135.499 27.6015 135.261 25.1509 134.132C23.616 133.441 21.8494 133.258 21.4039 133.718C20.4882 134.745 13.7129 135.209 10.4945 134.466C9.09928 134.144 8.16727 132.802 7.86204 130.705L7.24343 127.522L6.71476 130.779C6.32646 132.941 5.64994 133.91 4.39569 133.959C2.2585 133.916 1.00426 128.109 2.09363 123.406C2.81169 120.307 1.96213 119.097 0.228964 120.724Z" fill="#3D2A23"></path><path d="M14.0926 141.373C13.3698 158.087 17.0328 197.623 19.7504 200.715C21.4946 202.573 28.1625 206.45 28.9677 205.957C29.2613 205.686 27.5165 203.828 25.1685 201.607C22.8199 199.386 20.8576 197.478 20.8576 197.478C20.8826 197.372 20.296 192.063 19.4997 185.694C16.2717 159.42 15.6263 152.41 15.7696 145.467C15.9122 141.448 15.6608 138.128 15.1159 138.004C14.6797 137.905 14.193 139.483 14.0926 141.373Z" fill="#3D2A23"></path><path d="M229.091 192.411C227.544 193.262 227.675 194.601 229.272 194.96C230.12 195.153 231.143 194.62 231.767 193.887C232.665 192.454 230.794 191.377 229.091 192.411Z" fill="#3D2A23"></path><path d="M354.019 223.103C353.675 224.672 358.122 228.946 360.245 228.991C361.676 229.104 361.101 228.138 358.278 225.677C356.017 223.708 354.119 222.654 354.019 223.103Z" fill="#3D2A23"></path><path d="M379.857 230.547L376 231.296L380.053 231.808C382.322 232.201 384.71 231.959 385.456 231.374C387.193 230.008 384.621 229.527 379.857 230.547Z" fill="#3D2A23"></path><path d="M542.302 267.219C542.182 267.757 543.199 269.239 544.64 270.366C545.973 271.467 547.787 273.926 548.52 275.68C549.859 278.71 549.865 279.165 547.408 282.448C544.507 286.648 542.896 286.73 542.801 282.742C542.801 281.269 541.904 279.249 540.868 278.33C538.688 276.467 538.145 277.36 539.75 280.224C541.974 284.363 541.323 287.159 537.892 288.745C536.11 289.579 534.632 290.596 534.556 290.918C534.158 292.639 536.982 291.706 543.054 288.013C551.382 282.915 551.483 285.43 543.162 292.456C535.112 299.317 528.484 303.448 524.579 304.132C520.807 304.732 519.765 306.304 522.671 306.977C525.931 307.616 545.411 295.014 549.17 289.54C551.477 286.447 551.609 277.528 549.53 273.762C547.755 270.633 542.599 265.928 542.302 267.219Z" fill="#3D2A23"></path><path d="M219.033 194.69C219.14 195.94 220.579 196.501 220.985 195.444C221.086 195.085 220.668 194.532 220.097 194.138C219.387 193.813 218.861 194.089 219.033 194.69Z" fill="#3D2A23"></path><path d="M506.914 262.911C524.561 268.422 532.323 271.882 536.904 276.402C537.72 277.26 538.065 277.227 537.99 276.092C537.977 275.194 534.84 272.684 531.206 270.395C525.496 266.846 521.636 265.512 506.199 261.629L488 257L506.914 262.911Z" fill="#3D2A23"></path><path d="M389.13 238.432C386.896 238.773 385.493 239.384 386.172 239.821C386.764 240.142 389.62 240.027 392.465 239.512C395.661 238.969 396.8 238.503 395.428 238.124C394.245 237.883 391.395 237.997 389.13 238.432Z" fill="#3D2A23"></path><path d="M376.443 241.196C374.036 241.316 371.586 241.549 371.168 241.736C369.859 242.169 376.524 242.038 379.973 241.571C383.795 241.03 381.987 240.808 376.443 241.196Z" fill="#3D2A23"></path><path d="M354.054 241.427C355.048 242.742 365.281 244.62 366.862 243.8C367.595 243.421 365.386 242.737 360.63 241.824C355.769 240.891 353.624 240.738 354.054 241.427Z" fill="#3D2A23"></path><path d="M211.327 213.838C199.066 219.716 182.53 230.171 182.039 232.336C181.772 233.526 182.872 233.103 185.32 231.173C188.62 228.419 208.152 217.533 218.903 212.437C221.388 211.315 222.631 210.241 221.68 210.016C220.829 209.815 216.193 211.568 211.327 213.838Z" fill="#3D2A23"></path><path d="M448.824 268.385C447.808 269.413 442.204 287.47 443.096 286.991C444.012 286.401 450.37 268.984 449.983 268.2C449.715 267.905 449.266 267.913 448.824 268.385Z" fill="#3D2A23"></path><path d="M515.979 290.672C518.248 293.989 525.245 296.079 528.688 294.416C531.306 293.121 529.837 292.526 525.779 293.117C523.817 293.315 521.619 292.652 518.521 290.733L514 288L515.979 290.672Z" fill="#3D2A23"></path><path d="M448.969 293.642C443.356 305.076 437.23 322.135 430.567 344.924C427.109 356.853 423.424 369.744 422.204 373.518C421.072 377.423 420.061 383.721 419.966 387.528L419.802 394.584L407.962 391.301C397.936 388.546 396.614 388.356 399.061 390.044C403.353 393.057 418.278 397.724 418.651 396.12C418.847 395.266 419.277 395.365 420.238 396.599C422.413 399.463 422.842 398.098 421.882 391.008L421.06 384.29L429.164 357.776C433.589 343.142 437.9 328.031 438.823 324.077C439.715 320.229 442.376 313.184 444.601 308.515C448.843 300.032 453.761 287.199 452.901 287.001C452.579 286.927 450.859 289.911 448.969 293.642Z" fill="#3D2A23"></path><path d="M493.018 296.654C492.872 297.137 493.644 298.498 494.729 299.71C496.98 302.253 497.963 300.7 495.771 297.964C494.176 295.844 493.36 295.495 493.018 296.654Z" fill="#3D2A23"></path><path d="M438.435 298.102C436.009 303.346 433.863 308.881 433.615 310.414L433 313L434.596 310.747C436.493 308.22 443.583 289.833 442.962 289.012C442.785 288.747 440.751 292.832 438.435 298.102Z" fill="#3D2A23"></path><path d="M484.357 300.672C485.328 302.726 487.683 303.796 487.986 302.301C488.185 301.34 486.188 299.466 484.495 299.021C483.932 298.873 483.8 299.513 484.357 300.672Z" fill="#3D2A23"></path><path d="M33.0157 198.047C32.6647 199.527 38.2622 205.356 42.5567 207.995C47.1774 210.708 49.7592 211.401 71.8919 215.056C91.1509 218.285 97.7775 219.779 103.824 222.257C107.998 223.977 111.61 225.127 111.986 224.989C112.279 224.72 107.838 222.716 102.085 220.417C93.014 216.7 89.0202 215.688 69.5445 212.41C45.5399 208.445 42.5987 207.337 36.4494 200.937C34.6029 199.072 33.0909 197.729 33.0157 198.047Z" fill="#3D2A23"></path><path d="M99.222 213.224C98.2978 214.274 100.096 215.384 107.723 218.322C110.882 219.408 116.686 222.378 120.44 224.868C124.32 227.274 128.315 229.705 129.429 230.31C131.46 231.362 131.46 231.362 129.783 229.244C126.789 225.436 117.414 219.674 110.204 217.408C106.394 216.17 102.577 214.47 101.703 213.806C100.748 213.007 99.779 212.78 99.222 213.224Z" fill="#3D2A23"></path><path d="M125.01 220.098C124.879 220.618 126.04 221.635 127.751 222.332C129.325 223.109 132.17 224.927 134.039 226.424C138.898 230.099 142.97 232.182 141.796 230.286C140.557 228.157 125.292 218.954 125.01 220.098Z" fill="#3D2A23"></path><path d="M496.895 306.807L496.999 309.775L494.047 307.259C490.202 303.851 489.903 306.156 493.68 309.888C496.742 312.883 498.27 317.323 497.5 320.762C497.286 321.729 497.445 323.465 497.879 324.474C498.423 325.962 498.704 325.689 498.814 323.226C499.242 316.424 501.687 322.667 502.536 332.604C502.86 338.002 503.832 338.573 503.979 333.514C504.138 327.893 503.41 323.305 501.565 318.789C500.538 316.507 499.609 312.323 499.248 309.521C498.735 303.966 496.803 301.806 496.895 306.807Z" fill="#3D2A23"></path><path d="M163.29 233.613C159.29 234.718 154.238 234.797 150.002 234.111C146.127 233.249 142.664 233.224 142.091 233.914C140.77 235.672 154.257 237.813 159.159 236.687C161.371 236.197 164.984 235.405 167.04 235.156C169.014 234.739 170.833 233.987 170.952 233.307C171.269 231.537 170.161 231.494 163.29 233.613Z" fill="#3D2A23"></path><path d="M160.282 244.304L157 244.898L160.102 244.978C163.303 245.077 164.405 244.851 163.871 244.125C163.721 243.918 162.149 243.962 160.282 244.304Z" fill="#3D2A23"></path><path d="M163.412 250.66C155.526 253.582 143.364 253.428 143.005 250.342C142.934 249.705 142.357 249.272 141.819 249.575C141.28 249.878 140.915 250.841 141.017 251.796C141.44 253.753 147.397 255.206 154.25 254.976C159.033 254.729 169.58 251.325 169.958 249.847C170.285 248.565 168.759 248.663 163.412 250.66Z" fill="#3D2A23"></path><path d="M427.238 321.689C424.542 326.527 422.813 333.32 424.979 330.216C426.893 327.637 430.682 318.181 429.894 318.002C429.556 317.926 428.324 319.617 427.238 321.689Z" fill="#3D2A23"></path><path d="M496.245 336.408C495.956 338.447 495.91 341.708 496.176 343.731C496.769 348.363 497.162 345.573 496.935 338.365C496.796 332.999 496.742 332.867 496.245 336.408Z" fill="#3D2A23"></path><path d="M141.168 257.269C142.235 259.34 143.559 262.264 144.157 263.995C146.066 269.669 151.733 322.841 151.855 335.568C151.849 338.061 152.52 345.364 153.276 351.782C154.795 364.618 155.197 371.176 155.338 382.322C155.307 386.395 155.411 393.79 155.393 398.774C155.484 403.784 155.069 411.054 154.618 415.028C154.069 418.977 153.916 425.063 154.209 428.648C155.039 437.691 154.905 447.636 153.794 462.448C152.593 478.146 152.678 478.734 154.343 477.659C156.137 476.502 158.321 438.704 157.088 430.472C156.619 427.185 156.753 420.188 157.339 415.113C157.845 409.905 158.144 405.103 157.93 404.598C157.741 403.985 157.747 400.018 157.827 395.73C158.132 383.557 157.631 369.605 156.375 357.059C155.716 350.666 154.825 339.454 154.252 332.175C152.739 310.496 151.568 297.065 151.001 295.682C150.732 294.936 149.945 288.626 149.201 281.645C148.481 274.557 147.133 266.863 146.34 264.519C144.51 258.978 141.814 254.363 140.356 254.014C139.63 253.84 140.07 255.306 141.168 257.269Z" fill="#3D2A23"></path><path d="M504.003 344.929C503.883 353.808 507.786 367.031 510.727 367.932C512.581 368.428 512.364 366.114 510.374 364.341C508.292 362.543 506.623 356.232 505.791 347.213C505.15 340.161 503.97 338.718 504.003 344.929Z" fill="#3D2A23"></path><path d="M165.405 265.647C165.127 267.121 164.995 269.745 165 271.631C165.066 274.644 165.152 274.668 165.592 272.353C165.871 270.879 166.023 268.15 165.997 266.369C165.931 263.356 165.845 263.332 165.405 265.647Z" fill="#3D2A23"></path><path d="M497 350.903C497.037 352.719 497.278 356.054 497.79 358.208C498.653 362.707 507.03 377.571 508.819 377.993C509.553 378.167 507.98 374.857 505.389 370.628C502.718 366.268 499.961 359.853 498.993 355.329C497.882 350.433 497.148 348.79 497 350.903Z" fill="#3D2A23"></path><path d="M164.087 280.241C163.543 286.89 165.681 324.931 166.737 326.407C168.002 328.493 168.383 324.967 167.576 317.567C167.058 313.843 166.488 302.999 166.035 293.648C165.392 275.794 164.704 271.805 164.087 280.241Z" fill="#3D2A23"></path><path d="M355.627 329.436C353.452 330.97 349.769 334.079 347.551 336.28C344.191 339.464 343.284 339.934 343.094 338.307C342.885 337.242 343.531 334.453 344.406 332.167C345.535 329.263 345.598 328.034 344.653 328.157C343.848 328.197 342.65 330.408 341.813 333.041C340.672 336.96 340.672 338.43 342.194 340.7C344.489 344.054 345.452 343.823 347.608 339.458C348.356 337.709 350.175 335.755 351.43 335.252C352.793 334.774 353.96 333.686 354.131 332.935C354.334 332.077 355.842 330.956 357.579 330.338C359.316 329.72 360.806 328.706 360.933 328.17C361.383 326.239 359.564 326.724 355.627 329.436Z" fill="#3D2A23"></path><path d="M416.773 346.177C416.322 346.863 415.964 347.967 416.003 348.667C416.135 349.389 416.635 348.913 417.262 347.477C418.455 344.887 418.136 344.121 416.773 346.177Z" fill="#3D2A23"></path><path d="M513.601 370.507C513.927 372.61 523.76 378.699 526.334 378.258C529.712 377.775 527.778 379.918 523.383 381.461C520.922 382.406 517.569 382.776 515.855 382.357C513.927 381.887 512.759 382.076 513.042 382.859C513.852 385.318 519.961 385.74 523.791 383.702C525.85 382.54 528.262 381.821 529.015 382.004C529.869 382.213 531.269 381.485 532.179 380.4C533.724 378.516 533.536 378.351 527.646 376.913C523.364 375.866 520.514 374.457 518.398 372.275C514.819 368.545 513.343 368.066 513.601 370.507Z" fill="#3D2A23"></path><path d="M405.749 369.589C401.457 373.95 401.22 374.493 403.184 374.968C404.597 375.311 407.322 372.851 409.971 368.691C412.561 364.758 409.932 365.203 405.749 369.589Z" fill="#3D2A23"></path><path d="M381.624 381.42C375.457 386.08 342.055 381.972 327.557 374.793C323.624 372.757 318.81 371.083 317.023 371.008C310.075 370.755 300.089 376.786 296.785 383.235C294.702 387.371 296.987 386.773 301.014 382.069C303.028 379.718 306.979 376.8 309.736 375.634C315.752 373.08 320.119 373.75 329.501 378.621C336.75 382.437 356.233 386.147 367.233 385.984C373.934 385.841 385.633 383.135 385.979 381.638C386.281 380.354 383.285 380.114 381.624 381.42Z" fill="#3D2A23"></path><path d="M424.015 399.692C423.56 402.178 433.587 417.03 438.258 420.599C444.032 425.214 458.842 433.401 469.057 437.698C472.63 439.208 479.04 442.506 483.287 444.964C491.369 449.778 493.838 453.172 493.813 459.141C493.819 462.524 494.998 464.715 496.332 463.786C497.879 462.906 496.538 453.125 494.362 449.912C491.967 446.197 482.813 440.682 469.163 434.793C455.425 428.771 439.567 419.776 435.894 415.764C434.092 413.878 431.099 409.347 429.315 405.888C426.216 399.867 424.458 397.766 424.015 399.692Z" fill="#3D2A23"></path><path d="M383.052 391.961C383.09 392.773 386.393 395.963 390.301 398.953C396.865 404.061 397.953 404.664 407.361 406.554C421.646 409.603 421.478 407.386 407.267 404.011C396.659 401.493 395.434 400.973 390.182 396.518C382.779 390.179 382.866 390.314 383.052 391.961Z" fill="#3D2A23"></path><path d="M160.012 341.153C159.933 341.472 160.26 345.449 160.677 350.006C162.523 368.494 163.541 389.925 163.28 401.14C163.143 405.574 163.391 406.968 164.134 405.346C165.172 403.008 165.269 387.627 164.467 377.405C164.219 374.56 164.082 370.289 163.978 367.81C163.984 365.357 163.593 360.694 163.065 357.564C162.667 354.352 162.164 349.665 162.086 347.081C162.008 344.497 161.577 341.945 161.095 341.505C160.507 341.039 160.083 340.836 160.012 341.153Z" fill="#3D2A23"></path><path d="M309.108 381.696C308.467 385.011 310.798 390.269 313.181 390.927C314.376 391.256 314.312 390.491 312.668 388.167C311.456 386.335 310.774 383.902 311.118 382.126C311.415 380.588 311.27 379.175 310.675 379.011C310.18 378.873 309.428 380.039 309.108 381.696Z" fill="#3D2A23"></path><path d="M322.703 397.851C324.319 399.118 327.945 401.856 330.896 404.103C335.863 407.821 358.569 420.109 362.076 420.92C363.036 421.141 363.879 420.889 363.997 420.358C364.097 419.934 361.364 418.185 357.895 416.712C349.777 413.049 330.166 401.922 326.534 398.736C324.924 397.47 322.859 396.211 321.773 396.071C320.494 395.776 320.8 396.405 322.703 397.851Z" fill="#3D2A23"></path><path d="M301.027 396.44C300.749 397.618 302.454 398.575 313.144 402.844C316.895 404.273 325.356 408.367 332.043 411.825C355.545 423.9 373.793 432.733 381.951 436.192C386.491 438.14 393.916 441.319 398.456 443.267C415.631 450.838 440.509 458.489 457.71 461.552C492.855 467.959 493.998 467.433 461.467 460.047C431.297 453.207 427.906 452.2 411.003 445.371C384.23 434.686 367.422 426.975 336.722 411.211C313.593 399.449 301.494 394.405 301.027 396.44Z" fill="#3D2A23"></path><path d="M487.193 455.145C487.047 455.799 484.887 456.785 482.5 457.26C476.691 458.311 449.924 452.979 433.215 447.47C422.428 443.919 416.17 442.917 418.476 445.289C418.964 445.633 427.185 448.47 436.73 451.502C461.116 459.261 479.953 461.94 486.636 458.57C489.062 457.417 489.429 456.814 488.599 455.473C487.769 454.133 487.446 454.057 487.193 455.145Z" fill="#3D2A23"></path><path d="M163.096 416.249C162.822 422.802 163.145 428.214 163.928 427.994C165.162 427.504 165.407 417.148 164.261 414.968C163.429 413.392 163.145 413.686 163.096 416.249Z" fill="#3D2A23"></path><path d="M163.836 451.045C162.675 455.664 162.76 456.84 163.864 455.453C166.079 452.68 167.929 445.312 166.494 445.006C165.777 444.853 164.602 447.501 163.836 451.045Z" fill="#3D2A23"></path><path d="M262.01 482.165C255.418 482.117 247 482.101 243.209 482.25C230.462 482.721 214.589 480.952 209.112 478.508C206.342 477.163 203.572 475.818 203.11 475.363C202.666 474.796 202.184 474.914 202.038 475.572C201.265 478.974 212.307 482.959 226.779 484.397C233.251 484.994 238.956 485.412 239.577 485.21C241.181 484.663 272.773 485.39 275.581 486.051C277.204 486.432 279.778 489.119 282.326 492.955C284.703 496.52 286.731 498.609 286.903 497.842C287.803 493.896 282.307 486.014 277.02 483.731C275.366 482.995 268.577 482.322 262.01 482.165Z" fill="#3D2A23"></path><path d="M178.374 468.195C175.104 468.978 170.389 469.528 168.021 469.311C162.448 469.038 161.092 470.538 166.108 471.775C168.29 472.313 172.871 471.852 176.902 470.766C180.709 469.626 184.42 468.951 185.182 469.139C186.052 469.354 186.832 468.935 186.96 468.355C187.338 466.613 185.054 466.54 178.374 468.195Z" fill="#3D2A23"></path><path d="M194.051 470.838C194.229 471.443 195.586 472.344 197.059 472.713C199.118 473.23 199.457 473.091 198.462 471.946C196.794 470.071 193.556 469.259 194.051 470.838Z" fill="#3D2A23"></path><path d="M272.46 493.788C272.754 496.934 264.27 501.095 250.889 504.558C242.161 506.839 238.292 507.525 217.617 510.422C209.59 511.611 207.261 512.437 208.194 513.79C208.682 514.59 221.067 513.053 239.294 510.041C261.39 506.343 280.399 496.451 273.599 492.232C272.71 491.685 272.397 492.067 272.46 493.788Z" fill="#3D2A23"></path><path d="M179.851 475.869C175.372 476.427 171.847 477.112 172.005 477.403C172.643 478.564 183.261 477.885 186.463 476.619C190.997 474.71 189.836 474.527 179.851 475.869Z" fill="#3D2A23"></path><path d="M184.587 480.004C176.818 483.054 168.288 483.357 160.135 480.835C153.246 478.75 150.794 479.111 155.238 481.56C157.772 482.922 174.832 485.479 178.452 484.922C183.242 484.171 192.407 480.375 191.986 479.175C191.452 477.459 190.76 477.53 184.587 480.004Z" fill="#3D2A23"></path><path d="M148.737 471.279C147.63 472.141 143.49 474.871 139.418 477.284C128.992 483.703 104.74 489.307 89.695 488.878C85.2059 488.748 77.4247 493.986 74.6604 499.039C72.127 503.581 70.1128 511.704 71.4002 511.996C71.9363 512.12 73.3314 509.541 74.5276 506.359C77.3007 498.858 81.6658 493.731 86.1303 492.52C88.0445 492.066 93.5894 491.55 98.4982 491.333C107.169 490.978 112.864 489.823 128.69 484.972C136.738 482.465 140.494 480.426 147.536 474.459C151.349 471.208 152.393 468.215 148.737 471.279Z" fill="#3D2A23"></path><path d="M273.021 503.741C268.099 504.954 259.925 506.994 254.946 508.425C224.672 516.902 174.533 520.286 121.552 517.45C114.512 517.07 104.883 517.101 100.238 517.605C95.6196 517.997 91.2643 518.233 90.5125 518.059C87.1818 517.3 80.6202 518.258 81.0172 519.459C81.5787 520.927 86.2643 521.219 94.322 520.155C97.5789 519.782 104.77 519.527 110.252 519.776C146.949 521.126 163.882 521.312 179.669 520.566C186.885 520.205 195.115 519.857 197.976 519.726C215.697 518.98 246.067 513.979 257.971 510.005C261.671 508.729 267.494 507.05 270.739 506.229C282.032 503.455 285.221 502.398 283.608 502.031C282.751 501.832 277.923 502.628 273.021 503.741Z" fill="#3D2A23"></path><path d="M137.72 513.909C128.313 513.883 96.5374 510.399 90.637 508.879C85.7329 507.482 82.544 504.512 83.165 501.743C83.3393 500.97 83.0576 500.203 82.4113 500.054C80.1497 499.514 80.6968 503.141 83.405 506.227C86.1139 509.321 86.8675 509.503 101.553 512.297C116.696 515.078 144.858 517.002 147.587 515.442C149.179 514.422 146.223 513.948 137.72 513.909Z" fill="#3D2A23"></path></svg> 