<?xml version="1.0" encoding="UTF-8"?> <svg xmlns="http://www.w3.org/2000/svg" width="796" height="800" viewBox="0 0 796 800" fill="none"><path fill-rule="evenodd" clip-rule="evenodd" d="M679.963 116.22C605.806 41.574 504.856 -0.279158 399.64 0.00140148C181.188 0.00140148 3.4014 177.769 3.3254 396.277C3.2321 465.82 21.4799 534.157 56.2279 594.397L0 799.773L210.09 744.667C268.191 776.327 333.303 792.913 399.47 792.913H399.64C618.053 792.913 795.856 615.127 795.933 396.62C796.273 291.416 754.513 190.449 679.963 116.22ZM399.64 725.893H399.506C340.513 725.92 282.598 710.083 231.829 680.04L219.801 672.913L95.1449 705.617L128.437 584L120.589 571.537C87.6432 519.03 70.2125 458.28 70.3089 396.297C70.3089 214.728 218.071 66.9277 399.773 66.9277C487.146 66.978 570.923 101.736 632.67 163.554C694.416 225.372 729.076 309.188 729.026 396.563C728.95 578.187 581.186 725.893 399.64 725.893ZM580.313 479.183C570.413 474.223 521.73 450.283 512.646 446.88C503.563 443.48 496.97 441.92 490.376 451.84C483.783 461.76 464.8 484.05 459.023 490.663C453.246 497.273 447.47 498.09 437.566 493.133C427.666 488.173 395.763 477.72 357.93 443.993C328.494 417.73 308.523 385.313 302.822 375.393C297.121 365.473 302.214 360.19 307.174 355.173C311.62 350.747 317.074 343.62 322.014 337.827C326.955 332.03 328.627 327.925 331.913 321.313C335.203 314.7 333.566 308.923 331.096 303.963C328.627 299.004 308.808 250.263 300.561 230.443C292.523 211.137 284.371 213.74 278.29 213.341C272.589 213.056 265.9 212.999 259.288 212.999C249.14 213.264 239.565 217.756 232.874 225.389C223.81 235.308 198.233 259.251 198.233 307.992C198.233 356.733 233.71 403.82 238.651 410.433C243.592 417.047 308.485 517.057 407.773 559.963C426.213 567.917 445.056 574.893 464.23 580.867C487.943 588.467 509.53 587.347 526.593 584.8C545.596 581.95 585.179 560.837 593.443 537.71C601.709 514.587 601.693 494.747 599.146 490.623C596.6 486.5 590.213 484.22 580.313 479.26V479.183Z" fill="white"></path></svg> 