<?xml version="1.0" encoding="UTF-8"?> <svg xmlns="http://www.w3.org/2000/svg" width="704" height="386" viewBox="0 0 704 386" fill="none"><path d="M43.0701 40V39.5C43.8701 39.5 44.3701 39.2667 44.5701 38.8C44.8035 38.3 44.9201 37.7167 44.9201 37.05V13.1C44.9201 12.7667 44.7535 12.6 44.4201 12.6C44.2868 12.6 44.1035 12.65 43.8701 12.75L38.1701 14.55V12.75L49.8201 8.7V10.05C49.2868 10.2833 48.8535 10.65 48.5201 11.15C48.2201 11.65 48.1035 12.2333 48.1701 12.9V36.85C48.1701 37.55 48.2868 38.1667 48.5201 38.7C48.7535 39.2333 49.2868 39.5 50.1201 39.5V40H43.0701Z" fill="#272727"></path><path d="M56.2268 115.85C56.2268 117.317 55.9268 118.6 55.3268 119.7C54.7601 120.767 53.9768 121.667 52.9768 122.4C52.0101 123.1 50.8768 123.633 49.5768 124C48.2768 124.333 46.8934 124.5 45.4268 124.5C44.0601 124.5 42.7268 124.333 41.4268 124C40.1268 123.633 38.9601 123.1 37.9268 122.4C36.8934 121.667 36.0601 120.767 35.4268 119.7C34.8268 118.633 34.5268 117.383 34.5268 115.95C34.5268 114.05 35.0934 112.35 36.2268 110.85C37.3601 109.317 39.1601 108.183 41.6268 107.45C39.7268 106.583 38.3268 105.583 37.4268 104.45C36.5601 103.283 36.1268 101.867 36.1268 100.2C36.1268 98.9667 36.3768 97.9 36.8768 97C37.4101 96.0667 38.0934 95.2833 38.9268 94.65C39.7934 94.0167 40.7768 93.55 41.8768 93.25C42.9768 92.9167 44.0934 92.75 45.2268 92.75C46.3601 92.75 47.4768 92.9167 48.5768 93.25C49.7101 93.55 50.7101 94.0167 51.5768 94.65C52.4434 95.2833 53.1434 96.0833 53.6768 97.05C54.2434 97.9833 54.5268 99.0833 54.5268 100.35C54.5268 101.85 54.0268 103.25 53.0268 104.55C52.0268 105.85 50.7268 106.833 49.1268 107.5C51.1934 108.1 52.8934 109.1 54.2268 110.5C55.5601 111.867 56.2268 113.65 56.2268 115.85ZM51.6268 101.1C51.6268 100.1 51.4101 99.1833 50.9768 98.35C50.5768 97.5167 50.0434 96.8167 49.3768 96.25C48.7101 95.65 47.9434 95.2 47.0768 94.9C46.2434 94.5667 45.3934 94.4 44.5268 94.4C43.8601 94.4 43.2101 94.5 42.5768 94.7C41.9434 94.9 41.3768 95.2 40.8768 95.6C40.3768 96 39.9601 96.5 39.6268 97.1C39.3268 97.7 39.1768 98.4 39.1768 99.2C39.1768 100.1 39.3934 100.933 39.8268 101.7C40.2601 102.467 40.8268 103.15 41.5268 103.75C42.2601 104.35 43.0768 104.883 43.9768 105.35C44.9101 105.783 45.8434 106.15 46.7768 106.45C48.2768 105.85 49.4601 105.1 50.3268 104.2C51.1934 103.3 51.6268 102.267 51.6268 101.1ZM53.7268 116.9C53.7268 115.967 53.4768 115.083 52.9768 114.25C52.4768 113.417 51.7768 112.667 50.8768 112C49.9768 111.3 48.9268 110.683 47.7268 110.15C46.5601 109.583 45.3268 109.1 44.0268 108.7C43.1601 109 42.3434 109.367 41.5768 109.8C40.8101 110.233 40.1434 110.733 39.5768 111.3C39.0101 111.867 38.5601 112.483 38.2268 113.15C37.8934 113.817 37.7268 114.533 37.7268 115.3C37.7268 116.3 37.9601 117.25 38.4268 118.15C38.8934 119.05 39.5101 119.85 40.2768 120.55C41.0434 121.217 41.9268 121.733 42.9268 122.1C43.9268 122.467 44.9601 122.65 46.0268 122.65C46.9268 122.65 47.8268 122.517 48.7268 122.25C49.6601 121.95 50.4768 121.567 51.1768 121.1C51.9101 120.6 52.5101 120 52.9768 119.3C53.4768 118.6 53.7268 117.8 53.7268 116.9Z" fill="#272727"></path><path d="M33.0838 208V207.5C33.8838 207.5 34.3838 207.267 34.5838 206.8C34.8171 206.3 34.9338 205.717 34.9338 205.05V181.1C34.9338 180.767 34.7671 180.6 34.4338 180.6C34.3005 180.6 34.1171 180.65 33.8838 180.75L28.1838 182.55V180.75L39.8338 176.7V178.05C39.3005 178.283 38.8671 178.65 38.5338 179.15C38.2338 179.65 38.1171 180.233 38.1838 180.9V204.85C38.1838 205.55 38.3005 206.167 38.5338 206.7C38.7671 207.233 39.3005 207.5 40.1338 207.5V208H33.0838ZM61.8436 198.65C61.8436 199.817 61.6102 201 61.1436 202.2C60.7102 203.367 60.0436 204.417 59.1436 205.35C58.2436 206.283 57.0936 207.05 55.6936 207.65C54.3269 208.217 52.7269 208.5 50.8936 208.5C49.9936 208.5 49.1102 208.4 48.2436 208.2C47.3769 208 46.5602 207.8 45.7936 207.6C45.2269 207.433 44.7102 207.3 44.2436 207.2C43.7769 207.067 43.3602 207 42.9936 207V203.05C43.8602 204.217 44.9936 205.133 46.3936 205.8C47.8269 206.467 49.2602 206.8 50.6936 206.8C51.9936 206.8 53.1269 206.6 54.0936 206.2C55.0602 205.8 55.8602 205.267 56.4936 204.6C57.1602 203.9 57.6436 203.083 57.9436 202.15C58.2769 201.183 58.4436 200.15 58.4436 199.05C58.4436 197.717 58.2102 196.55 57.7436 195.55C57.3102 194.55 56.7269 193.717 55.9936 193.05C55.2602 192.35 54.4102 191.833 53.4436 191.5C52.5102 191.167 51.5602 191 50.5936 191C49.5269 191 48.3602 191.25 47.0936 191.75C45.8269 192.217 44.5269 192.967 43.1936 194L49.5936 177.25H62.0936L61.0936 180.05H50.6436C50.0769 181.55 49.4602 183.1 48.7936 184.7C48.1602 186.3 47.5602 187.867 46.9936 189.4C47.7936 189.033 48.5436 188.783 49.2436 188.65C49.9436 188.517 50.6936 188.45 51.4936 188.45C52.8269 188.45 54.1102 188.683 55.3436 189.15C56.5769 189.617 57.6769 190.283 58.6436 191.15C59.6102 192.017 60.3769 193.083 60.9436 194.35C61.5436 195.617 61.8436 197.05 61.8436 198.65Z" fill="#272727"></path><path d="M26.7145 264.05H27.1645C27.3311 264.05 27.5311 263.967 27.7645 263.8C28.0311 263.633 28.3145 263.45 28.6145 263.25C28.9478 263.017 29.3311 262.75 29.7645 262.45C30.2311 262.15 30.7478 261.883 31.3145 261.65C31.9145 261.383 32.5811 261.167 33.3145 261C34.0478 260.833 34.8645 260.75 35.7645 260.75C36.8978 260.75 37.9978 260.917 39.0645 261.25C40.1311 261.55 41.0811 262.033 41.9145 262.7C42.7478 263.333 43.4145 264.15 43.9145 265.15C44.4145 266.15 44.6645 267.35 44.6645 268.75C44.6645 269.917 44.4645 270.983 44.0645 271.95C43.6645 272.917 43.1145 273.817 42.4145 274.65C41.7478 275.483 40.9811 276.283 40.1145 277.05C39.2811 277.783 38.4145 278.517 37.5145 279.25C36.6478 279.95 35.7978 280.667 34.9645 281.4C34.1645 282.133 33.4311 282.9 32.7645 283.7C32.1311 284.5 31.5978 285.367 31.1645 286.3C30.7311 287.2 30.4811 288.167 30.4145 289.2H40.8145C42.0811 289.2 43.0811 288.983 43.8145 288.55C44.5478 288.083 44.9311 287.333 44.9645 286.3H45.4145V292H26.9145C26.9145 290.5 27.1645 289.117 27.6645 287.85C28.1645 286.55 28.8145 285.367 29.6145 284.3C30.4145 283.2 31.2978 282.183 32.2645 281.25C33.2645 280.317 34.2478 279.417 35.2145 278.55C36.0145 277.85 36.7811 277.15 37.5145 276.45C38.2811 275.75 38.9478 275.05 39.5145 274.35C40.1145 273.617 40.5811 272.867 40.9145 272.1C41.2811 271.3 41.4645 270.467 41.4645 269.6C41.4645 268.5 41.2645 267.517 40.8645 266.65C40.4978 265.783 39.9978 265.05 39.3645 264.45C38.7645 263.85 38.0645 263.4 37.2645 263.1C36.4645 262.767 35.6645 262.6 34.8645 262.6C33.1645 262.6 31.6645 263.117 30.3645 264.15C29.0645 265.15 28.0145 266.45 27.2145 268.05H26.7145V264.05ZM46.15 264.05H46.6C46.7667 264.05 46.9667 263.967 47.2 263.8C47.4667 263.633 47.75 263.45 48.05 263.25C48.3833 263.017 48.7667 262.75 49.2 262.45C49.6667 262.15 50.1833 261.883 50.75 261.65C51.35 261.383 52.0167 261.167 52.75 261C53.4833 260.833 54.3 260.75 55.2 260.75C56.3333 260.75 57.4333 260.917 58.5 261.25C59.5667 261.55 60.5167 262.033 61.35 262.7C62.1833 263.333 62.85 264.15 63.35 265.15C63.85 266.15 64.1 267.35 64.1 268.75C64.1 269.917 63.9 270.983 63.5 271.95C63.1 272.917 62.55 273.817 61.85 274.65C61.1833 275.483 60.4167 276.283 59.55 277.05C58.7167 277.783 57.85 278.517 56.95 279.25C56.0833 279.95 55.2333 280.667 54.4 281.4C53.6 282.133 52.8667 282.9 52.2 283.7C51.5667 284.5 51.0333 285.367 50.6 286.3C50.1667 287.2 49.9167 288.167 49.85 289.2H60.25C61.5167 289.2 62.5167 288.983 63.25 288.55C63.9833 288.083 64.3667 287.333 64.4 286.3H64.85V292H46.35C46.35 290.5 46.6 289.117 47.1 287.85C47.6 286.55 48.25 285.367 49.05 284.3C49.85 283.2 50.7333 282.183 51.7 281.25C52.7 280.317 53.6833 279.417 54.65 278.55C55.45 277.85 56.2167 277.15 56.95 276.45C57.7167 275.75 58.3833 275.05 58.95 274.35C59.55 273.617 60.0167 272.867 60.35 272.1C60.7167 271.3 60.9 270.467 60.9 269.6C60.9 268.5 60.7 267.517 60.3 266.65C59.9333 265.783 59.4333 265.05 58.8 264.45C58.2 263.85 57.5 263.4 56.7 263.1C55.9 262.767 55.1 262.6 54.3 262.6C52.6 262.6 51.1 263.117 49.8 264.15C48.5 265.15 47.45 266.45 46.65 268.05H46.15V264.05Z" fill="#272727"></path><path d="M25.152 348.05H25.602C25.7686 348.05 25.9686 347.967 26.202 347.8C26.4686 347.633 26.752 347.45 27.052 347.25C27.3853 347.017 27.7686 346.75 28.202 346.45C28.6686 346.15 29.1853 345.883 29.752 345.65C30.352 345.383 31.0186 345.167 31.752 345C32.4853 344.833 33.302 344.75 34.202 344.75C35.3353 344.75 36.4353 344.917 37.502 345.25C38.5686 345.55 39.5186 346.033 40.352 346.7C41.1853 347.333 41.852 348.15 42.352 349.15C42.852 350.15 43.102 351.35 43.102 352.75C43.102 353.917 42.902 354.983 42.502 355.95C42.102 356.917 41.552 357.817 40.852 358.65C40.1853 359.483 39.4186 360.283 38.552 361.05C37.7186 361.783 36.852 362.517 35.952 363.25C35.0853 363.95 34.2353 364.667 33.402 365.4C32.602 366.133 31.8686 366.9 31.202 367.7C30.5686 368.5 30.0353 369.367 29.602 370.3C29.1686 371.2 28.9186 372.167 28.852 373.2H39.252C40.5186 373.2 41.5186 372.983 42.252 372.55C42.9853 372.083 43.3686 371.333 43.402 370.3H43.852V376H25.352C25.352 374.5 25.602 373.117 26.102 371.85C26.602 370.55 27.252 369.367 28.052 368.3C28.852 367.2 29.7353 366.183 30.702 365.25C31.702 364.317 32.6853 363.417 33.652 362.55C34.452 361.85 35.2186 361.15 35.952 360.45C36.7186 359.75 37.3853 359.05 37.952 358.35C38.552 357.617 39.0186 356.867 39.352 356.1C39.7186 355.3 39.902 354.467 39.902 353.6C39.902 352.5 39.702 351.517 39.302 350.65C38.9353 349.783 38.4353 349.05 37.802 348.45C37.202 347.85 36.502 347.4 35.702 347.1C34.902 346.767 34.102 346.6 33.302 346.6C31.602 346.6 30.102 347.117 28.802 348.15C27.502 349.15 26.452 350.45 25.652 352.05H25.152V348.05ZM55.8375 364.2C57.0375 364.2 58.0875 364 58.9875 363.6C59.8875 363.167 60.6208 362.6 61.1875 361.9C61.7875 361.2 62.2208 360.4 62.4875 359.5C62.7875 358.6 62.9375 357.667 62.9375 356.7C62.9375 355.533 62.7542 354.367 62.3875 353.2C62.0542 352.033 61.5375 351 60.8375 350.1C60.1708 349.167 59.3375 348.417 58.3375 347.85C57.3708 347.25 56.2542 346.95 54.9875 346.95C53.8542 346.95 52.8542 347.183 51.9875 347.65C51.1542 348.083 50.4375 348.683 49.8375 349.45C49.2708 350.183 48.8375 351.033 48.5375 352C48.2708 352.967 48.1375 353.95 48.1375 354.95C48.1375 356.083 48.3042 357.2 48.6375 358.3C49.0042 359.4 49.5042 360.4 50.1375 361.3C50.8042 362.167 51.6042 362.867 52.5375 363.4C53.5042 363.933 54.6042 364.2 55.8375 364.2ZM48.7875 372.45C49.3208 373.117 49.9542 373.65 50.6875 374.05C51.4542 374.45 52.1708 374.583 52.8375 374.45C54.2708 374.45 55.5375 374.117 56.6375 373.45C57.7375 372.783 58.6708 371.9 59.4375 370.8C60.2375 369.7 60.8542 368.517 61.2875 367.25C61.7542 365.95 62.0708 364.75 62.2375 363.65C61.2708 364.517 60.1875 365.117 58.9875 365.45C57.8208 365.783 56.5708 365.95 55.2375 365.95C53.5375 365.95 52.0375 365.667 50.7375 365.1C49.4708 364.5 48.4042 363.733 47.5375 362.8C46.7042 361.833 46.0708 360.733 45.6375 359.5C45.2375 358.267 45.0375 357 45.0375 355.7C45.0375 354.4 45.2542 353.117 45.6875 351.85C46.1208 350.583 46.7708 349.467 47.6375 348.5C48.5042 347.5 49.5708 346.7 50.8375 346.1C52.1375 345.5 53.6375 345.2 55.3375 345.2C57.2375 345.2 58.8542 345.55 60.1875 346.25C61.5542 346.95 62.6708 347.9 63.5375 349.1C64.4042 350.267 65.0375 351.633 65.4375 353.2C65.8708 354.767 66.0875 356.4 66.0875 358.1C66.0875 360.3 65.8542 362.517 65.3875 364.75C64.9208 366.95 64.1542 368.933 63.0875 370.7C62.0542 372.433 60.6708 373.85 58.9375 374.95C57.2375 376.05 55.1542 376.6 52.6875 376.6C52.2208 376.6 51.6375 376.55 50.9375 376.45C50.2375 376.35 49.6875 376.267 49.2875 376.2C49.0542 376.167 48.8042 376.133 48.5375 376.1C48.3042 376.067 48.2208 376.05 48.2875 376.05V372.45H48.7875Z" fill="#272727"></path><path d="M138.432 12.05H138.882C139.049 12.05 139.249 11.9667 139.482 11.8C139.749 11.6333 140.032 11.45 140.332 11.25C140.666 11.0167 141.049 10.75 141.482 10.45C141.949 10.15 142.466 9.88333 143.032 9.65C143.632 9.38333 144.299 9.16667 145.032 9C145.766 8.83333 146.582 8.75 147.482 8.75C148.616 8.75 149.716 8.91667 150.782 9.25C151.849 9.55 152.799 10.0333 153.632 10.7C154.466 11.3333 155.132 12.15 155.632 13.15C156.132 14.15 156.382 15.35 156.382 16.75C156.382 17.9167 156.182 18.9833 155.782 19.95C155.382 20.9167 154.832 21.8167 154.132 22.65C153.466 23.4833 152.699 24.2833 151.832 25.05C150.999 25.7833 150.132 26.5167 149.232 27.25C148.366 27.95 147.516 28.6667 146.682 29.4C145.882 30.1333 145.149 30.9 144.482 31.7C143.849 32.5 143.316 33.3667 142.882 34.3C142.449 35.2 142.199 36.1667 142.132 37.2H152.532C153.799 37.2 154.799 36.9833 155.532 36.55C156.266 36.0833 156.649 35.3333 156.682 34.3H157.132V40H138.632C138.632 38.5 138.882 37.1167 139.382 35.85C139.882 34.55 140.532 33.3667 141.332 32.3C142.132 31.2 143.016 30.1833 143.982 29.25C144.982 28.3167 145.966 27.4167 146.932 26.55C147.732 25.85 148.499 25.15 149.232 24.45C149.999 23.75 150.666 23.05 151.232 22.35C151.832 21.6167 152.299 20.8667 152.632 20.1C152.999 19.3 153.182 18.4667 153.182 17.6C153.182 16.5 152.982 15.5167 152.582 14.65C152.216 13.7833 151.716 13.05 151.082 12.45C150.482 11.85 149.782 11.4 148.982 11.1C148.182 10.7667 147.382 10.6 146.582 10.6C144.882 10.6 143.382 11.1167 142.082 12.15C140.782 13.15 139.732 14.45 138.932 16.05H138.432V12.05Z" fill="#272727"></path><path d="M148.12 112.2C149.32 112.2 150.37 112 151.27 111.6C152.17 111.167 152.903 110.6 153.47 109.9C154.07 109.2 154.503 108.4 154.77 107.5C155.07 106.6 155.22 105.667 155.22 104.7C155.22 103.533 155.036 102.367 154.67 101.2C154.336 100.033 153.82 99 153.12 98.1C152.453 97.1667 151.62 96.4167 150.62 95.85C149.653 95.25 148.536 94.95 147.27 94.95C146.136 94.95 145.136 95.1833 144.27 95.65C143.436 96.0833 142.72 96.6833 142.12 97.45C141.553 98.1833 141.12 99.0333 140.82 100C140.553 100.967 140.42 101.95 140.42 102.95C140.42 104.083 140.586 105.2 140.92 106.3C141.286 107.4 141.786 108.4 142.42 109.3C143.086 110.167 143.886 110.867 144.82 111.4C145.786 111.933 146.886 112.2 148.12 112.2ZM141.07 120.45C141.603 121.117 142.236 121.65 142.97 122.05C143.736 122.45 144.453 122.583 145.12 122.45C146.553 122.45 147.82 122.117 148.92 121.45C150.02 120.783 150.953 119.9 151.72 118.8C152.52 117.7 153.136 116.517 153.57 115.25C154.036 113.95 154.353 112.75 154.52 111.65C153.553 112.517 152.47 113.117 151.27 113.45C150.103 113.783 148.853 113.95 147.52 113.95C145.82 113.95 144.32 113.667 143.02 113.1C141.753 112.5 140.686 111.733 139.82 110.8C138.986 109.833 138.353 108.733 137.92 107.5C137.52 106.267 137.32 105 137.32 103.7C137.32 102.4 137.536 101.117 137.97 99.85C138.403 98.5833 139.053 97.4667 139.92 96.5C140.786 95.5 141.853 94.7 143.12 94.1C144.42 93.5 145.92 93.2 147.62 93.2C149.52 93.2 151.136 93.55 152.47 94.25C153.836 94.95 154.953 95.9 155.82 97.1C156.686 98.2667 157.32 99.6333 157.72 101.2C158.153 102.767 158.37 104.4 158.37 106.1C158.37 108.3 158.136 110.517 157.67 112.75C157.203 114.95 156.436 116.933 155.37 118.7C154.336 120.433 152.953 121.85 151.22 122.95C149.52 124.05 147.436 124.6 144.97 124.6C144.503 124.6 143.92 124.55 143.22 124.45C142.52 124.35 141.97 124.267 141.57 124.2C141.336 124.167 141.086 124.133 140.82 124.1C140.586 124.067 140.503 124.05 140.57 124.05V120.45H141.07Z" fill="#272727"></path><path d="M133.79 208V207.5C134.59 207.5 135.09 207.267 135.29 206.8C135.523 206.3 135.64 205.717 135.64 205.05V181.1C135.64 180.767 135.473 180.6 135.14 180.6C135.007 180.6 134.823 180.65 134.59 180.75L128.89 182.55V180.75L140.54 176.7V178.05C140.007 178.283 139.573 178.65 139.24 179.15C138.94 179.65 138.823 180.233 138.89 180.9V204.85C138.89 205.55 139.007 206.167 139.24 206.7C139.473 207.233 140.007 207.5 140.84 207.5V208H133.79ZM154.7 189.5C153.5 189.5 152.45 189.717 151.55 190.15C150.683 190.55 149.95 191.1 149.35 191.8C148.783 192.5 148.35 193.3 148.05 194.2C147.783 195.1 147.65 196.033 147.65 197C147.65 198.167 147.816 199.333 148.15 200.5C148.516 201.667 149.033 202.717 149.7 203.65C150.4 204.55 151.233 205.3 152.2 205.9C153.166 206.467 154.283 206.75 155.55 206.75C156.683 206.75 157.683 206.533 158.55 206.1C159.416 205.633 160.133 205.033 160.7 204.3C161.3 203.533 161.733 202.667 162 201.7C162.3 200.733 162.45 199.75 162.45 198.75C162.45 197.617 162.266 196.5 161.9 195.4C161.566 194.3 161.066 193.317 160.4 192.45C159.766 191.55 158.966 190.833 158 190.3C157.033 189.767 155.933 189.5 154.7 189.5ZM161.8 181.25C161.266 180.583 160.616 180.05 159.85 179.65C159.116 179.25 158.416 179.05 157.75 179.05C156.216 179.05 154.883 179.433 153.75 180.2C152.616 180.933 151.666 181.85 150.9 182.95C150.166 184.05 149.583 185.25 149.15 186.55C148.716 187.817 148.433 189 148.3 190.1C149.266 189.233 150.35 188.633 151.55 188.3C152.75 187.933 154 187.75 155.3 187.75C157 187.75 158.483 188.05 159.75 188.65C161.05 189.217 162.116 189.983 162.95 190.95C163.816 191.883 164.45 192.967 164.85 194.2C165.283 195.433 165.5 196.7 165.5 198C165.5 199.3 165.283 200.583 164.85 201.85C164.416 203.117 163.766 204.25 162.9 205.25C162.033 206.217 160.95 207 159.65 207.6C158.383 208.2 156.9 208.5 155.2 208.5C153.333 208.5 151.716 208.15 150.35 207.45C148.983 206.75 147.866 205.817 147 204.65C146.133 203.45 145.483 202.067 145.05 200.5C144.65 198.933 144.45 197.3 144.45 195.6C144.45 193.4 144.75 191.217 145.35 189.05C145.983 186.85 146.9 184.883 148.1 183.15C149.3 181.383 150.766 179.95 152.5 178.85C154.233 177.75 156.216 177.2 158.45 177.2C158.916 177.2 159.4 177.233 159.9 177.3C160.433 177.367 160.9 177.433 161.3 177.5C161.5 177.533 161.7 177.567 161.9 177.6C162.133 177.633 162.266 177.65 162.3 177.65V181.25H161.8Z" fill="#272727"></path><path d="M128.812 264.05H129.262C129.429 264.05 129.629 263.967 129.862 263.8C130.129 263.633 130.412 263.45 130.712 263.25C131.045 263.017 131.429 262.75 131.862 262.45C132.329 262.15 132.845 261.883 133.412 261.65C134.012 261.383 134.679 261.167 135.412 261C136.145 260.833 136.962 260.75 137.862 260.75C138.995 260.75 140.095 260.917 141.162 261.25C142.229 261.55 143.179 262.033 144.012 262.7C144.845 263.333 145.512 264.15 146.012 265.15C146.512 266.15 146.762 267.35 146.762 268.75C146.762 269.917 146.562 270.983 146.162 271.95C145.762 272.917 145.212 273.817 144.512 274.65C143.845 275.483 143.079 276.283 142.212 277.05C141.379 277.783 140.512 278.517 139.612 279.25C138.745 279.95 137.895 280.667 137.062 281.4C136.262 282.133 135.529 282.9 134.862 283.7C134.229 284.5 133.695 285.367 133.262 286.3C132.829 287.2 132.579 288.167 132.512 289.2H142.912C144.179 289.2 145.179 288.983 145.912 288.55C146.645 288.083 147.029 287.333 147.062 286.3H147.512V292H129.012C129.012 290.5 129.262 289.117 129.762 287.85C130.262 286.55 130.912 285.367 131.712 284.3C132.512 283.2 133.395 282.183 134.362 281.25C135.362 280.317 136.345 279.417 137.312 278.55C138.112 277.85 138.879 277.15 139.612 276.45C140.379 275.75 141.045 275.05 141.612 274.35C142.212 273.617 142.679 272.867 143.012 272.1C143.379 271.3 143.562 270.467 143.562 269.6C143.562 268.5 143.362 267.517 142.962 266.65C142.595 265.783 142.095 265.05 141.462 264.45C140.862 263.85 140.162 263.4 139.362 263.1C138.562 262.767 137.762 262.6 136.962 262.6C135.262 262.6 133.762 263.117 132.462 264.15C131.162 265.15 130.112 266.45 129.312 268.05H128.812V264.05ZM148.498 262.2H148.948C149.214 262.2 149.498 262.15 149.798 262.05C150.098 261.95 150.431 261.833 150.798 261.7C151.364 261.5 152.048 261.3 152.848 261.1C153.648 260.867 154.631 260.75 155.798 260.75C157.131 260.75 158.314 260.95 159.348 261.35C160.414 261.717 161.298 262.233 161.998 262.9C162.731 263.533 163.281 264.283 163.648 265.15C164.048 266.017 164.248 266.917 164.248 267.85C164.248 269.15 163.848 270.4 163.048 271.6C162.281 272.8 161.081 273.767 159.448 274.5C161.748 275.167 163.464 276.233 164.598 277.7C165.731 279.167 166.298 280.833 166.298 282.7C166.298 284.1 166.031 285.4 165.498 286.6C164.998 287.767 164.248 288.8 163.248 289.7C162.281 290.567 161.114 291.25 159.748 291.75C158.381 292.25 156.848 292.5 155.148 292.5C153.881 292.5 152.831 292.383 151.998 292.15C151.164 291.917 150.464 291.7 149.898 291.5C149.531 291.367 149.198 291.267 148.898 291.2C148.598 291.1 148.298 291.05 147.998 291.05H147.548V287.2H148.048C148.914 288.4 149.981 289.317 151.248 289.95C152.548 290.55 153.881 290.85 155.248 290.85C156.448 290.85 157.531 290.65 158.498 290.25C159.464 289.817 160.281 289.25 160.948 288.55C161.648 287.85 162.164 287.05 162.498 286.15C162.864 285.25 163.048 284.317 163.048 283.35C163.048 282.35 162.848 281.383 162.448 280.45C162.048 279.483 161.481 278.633 160.748 277.9C160.014 277.167 159.114 276.583 158.048 276.15C157.014 275.717 155.831 275.5 154.498 275.5H152.198V273.85H154.748C155.781 273.85 156.681 273.683 157.448 273.35C158.248 273.017 158.914 272.567 159.448 272C159.981 271.433 160.381 270.8 160.648 270.1C160.914 269.4 161.048 268.667 161.048 267.9C161.048 267.2 160.914 266.517 160.648 265.85C160.414 265.183 160.048 264.6 159.548 264.1C159.048 263.567 158.431 263.133 157.698 262.8C156.998 262.467 156.181 262.3 155.248 262.3C154.114 262.3 152.981 262.617 151.848 263.25C150.714 263.883 149.764 264.833 148.998 266.1H148.498V262.2Z" fill="#272727"></path><path d="M126.45 346.2H126.9C127.166 346.2 127.45 346.15 127.75 346.05C128.05 345.95 128.383 345.833 128.75 345.7C129.316 345.5 130 345.3 130.8 345.1C131.6 344.867 132.583 344.75 133.75 344.75C135.083 344.75 136.266 344.95 137.3 345.35C138.366 345.717 139.25 346.233 139.95 346.9C140.683 347.533 141.233 348.283 141.6 349.15C142 350.017 142.2 350.917 142.2 351.85C142.2 353.15 141.8 354.4 141 355.6C140.233 356.8 139.033 357.767 137.4 358.5C139.7 359.167 141.416 360.233 142.55 361.7C143.683 363.167 144.25 364.833 144.25 366.7C144.25 368.1 143.983 369.4 143.45 370.6C142.95 371.767 142.2 372.8 141.2 373.7C140.233 374.567 139.066 375.25 137.7 375.75C136.333 376.25 134.8 376.5 133.1 376.5C131.833 376.5 130.783 376.383 129.95 376.15C129.116 375.917 128.416 375.7 127.85 375.5C127.483 375.367 127.15 375.267 126.85 375.2C126.55 375.1 126.25 375.05 125.95 375.05H125.5V371.2H126C126.866 372.4 127.933 373.317 129.2 373.95C130.5 374.55 131.833 374.85 133.2 374.85C134.4 374.85 135.483 374.65 136.45 374.25C137.416 373.817 138.233 373.25 138.9 372.55C139.6 371.85 140.116 371.05 140.45 370.15C140.816 369.25 141 368.317 141 367.35C141 366.35 140.8 365.383 140.4 364.45C140 363.483 139.433 362.633 138.7 361.9C137.966 361.167 137.066 360.583 136 360.15C134.966 359.717 133.783 359.5 132.45 359.5H130.15V357.85H132.7C133.733 357.85 134.633 357.683 135.4 357.35C136.2 357.017 136.866 356.567 137.4 356C137.933 355.433 138.333 354.8 138.6 354.1C138.866 353.4 139 352.667 139 351.9C139 351.2 138.866 350.517 138.6 349.85C138.366 349.183 138 348.6 137.5 348.1C137 347.567 136.383 347.133 135.65 346.8C134.95 346.467 134.133 346.3 133.2 346.3C132.066 346.3 130.933 346.617 129.8 347.25C128.666 347.883 127.716 348.833 126.95 350.1H126.45V346.2ZM146.14 360.5C146.14 357.933 146.457 355.667 147.09 353.7C147.757 351.733 148.623 350.1 149.69 348.8C150.757 347.467 151.957 346.467 153.29 345.8C154.657 345.1 156.04 344.75 157.44 344.75C158.84 344.75 160.223 345.1 161.59 345.8C162.957 346.467 164.157 347.467 165.19 348.8C166.257 350.1 167.107 351.733 167.74 353.7C168.407 355.667 168.74 357.933 168.74 360.5C168.74 363.1 168.407 365.4 167.74 367.4C167.107 369.367 166.257 371.033 165.19 372.4C164.157 373.733 162.957 374.75 161.59 375.45C160.223 376.15 158.84 376.5 157.44 376.5C156.04 376.5 154.657 376.15 153.29 375.45C151.957 374.75 150.757 373.733 149.69 372.4C148.623 371.033 147.757 369.367 147.09 367.4C146.457 365.4 146.14 363.1 146.14 360.5ZM165.59 361.8C165.59 359.4 165.323 357.283 164.79 355.45C164.257 353.583 163.557 352.033 162.69 350.8C161.857 349.533 160.89 348.583 159.79 347.95C158.723 347.283 157.623 346.95 156.49 346.95C155.357 346.95 154.323 347.283 153.39 347.95C152.49 348.583 151.723 349.433 151.09 350.5C150.457 351.567 149.957 352.8 149.59 354.2C149.257 355.6 149.09 357.067 149.09 358.6C149.09 360.433 149.307 362.3 149.74 364.2C150.173 366.067 150.79 367.767 151.59 369.3C152.39 370.8 153.34 372.033 154.44 373C155.573 373.967 156.807 374.45 158.14 374.45C159.107 374.45 160.04 374.183 160.94 373.65C161.84 373.083 162.623 372.267 163.29 371.2C163.99 370.133 164.54 368.817 164.94 367.25C165.373 365.683 165.59 363.867 165.59 361.8Z" fill="#272727"></path><path d="M240.78 10.2H241.23C241.497 10.2 241.78 10.15 242.08 10.05C242.38 9.95 242.713 9.83333 243.08 9.7C243.647 9.5 244.33 9.3 245.13 9.1C245.93 8.86667 246.913 8.75 248.08 8.75C249.413 8.75 250.597 8.95 251.63 9.35C252.697 9.71666 253.58 10.2333 254.28 10.9C255.013 11.5333 255.563 12.2833 255.93 13.15C256.33 14.0167 256.53 14.9167 256.53 15.85C256.53 17.15 256.13 18.4 255.33 19.6C254.563 20.8 253.363 21.7667 251.73 22.5C254.03 23.1667 255.747 24.2333 256.88 25.7C258.013 27.1667 258.58 28.8333 258.58 30.7C258.58 32.1 258.313 33.4 257.78 34.6C257.28 35.7667 256.53 36.8 255.53 37.7C254.563 38.5667 253.397 39.25 252.03 39.75C250.663 40.25 249.13 40.5 247.43 40.5C246.163 40.5 245.113 40.3833 244.28 40.15C243.447 39.9167 242.747 39.7 242.18 39.5C241.813 39.3667 241.48 39.2667 241.18 39.2C240.88 39.1 240.58 39.05 240.28 39.05H239.83V35.2H240.33C241.197 36.4 242.263 37.3167 243.53 37.95C244.83 38.55 246.163 38.85 247.53 38.85C248.73 38.85 249.813 38.65 250.78 38.25C251.747 37.8167 252.563 37.25 253.23 36.55C253.93 35.85 254.447 35.05 254.78 34.15C255.147 33.25 255.33 32.3167 255.33 31.35C255.33 30.35 255.13 29.3833 254.73 28.45C254.33 27.4833 253.763 26.6333 253.03 25.9C252.297 25.1667 251.397 24.5833 250.33 24.15C249.297 23.7167 248.113 23.5 246.78 23.5H244.48V21.85H247.03C248.063 21.85 248.963 21.6833 249.73 21.35C250.53 21.0167 251.197 20.5667 251.73 20C252.263 19.4333 252.663 18.8 252.93 18.1C253.197 17.4 253.33 16.6667 253.33 15.9C253.33 15.2 253.197 14.5167 252.93 13.85C252.697 13.1833 252.33 12.6 251.83 12.1C251.33 11.5667 250.713 11.1333 249.98 10.8C249.28 10.4667 248.463 10.3 247.53 10.3C246.397 10.3 245.263 10.6167 244.13 11.25C242.997 11.8833 242.047 12.8333 241.28 14.1H240.78V10.2Z" fill="#272727"></path><path d="M234.74 124V123.5C235.54 123.5 236.04 123.267 236.24 122.8C236.473 122.3 236.59 121.717 236.59 121.05V97.1C236.59 96.7667 236.423 96.6 236.09 96.6C235.957 96.6 235.773 96.65 235.54 96.75L229.84 98.55V96.75L241.49 92.7V94.05C240.957 94.2833 240.523 94.65 240.19 95.15C239.89 95.65 239.773 96.2333 239.84 96.9V120.85C239.84 121.55 239.957 122.167 240.19 122.7C240.423 123.233 240.957 123.5 241.79 123.5V124H234.74ZM245.65 108.5C245.65 105.933 245.966 103.667 246.6 101.7C247.266 99.7333 248.133 98.1 249.2 96.8C250.266 95.4667 251.466 94.4667 252.8 93.8C254.166 93.1 255.55 92.75 256.95 92.75C258.35 92.75 259.733 93.1 261.1 93.8C262.466 94.4667 263.666 95.4667 264.7 96.8C265.766 98.1 266.616 99.7333 267.25 101.7C267.916 103.667 268.25 105.933 268.25 108.5C268.25 111.1 267.916 113.4 267.25 115.4C266.616 117.367 265.766 119.033 264.7 120.4C263.666 121.733 262.466 122.75 261.1 123.45C259.733 124.15 258.35 124.5 256.95 124.5C255.55 124.5 254.166 124.15 252.8 123.45C251.466 122.75 250.266 121.733 249.2 120.4C248.133 119.033 247.266 117.367 246.6 115.4C245.966 113.4 245.65 111.1 245.65 108.5ZM265.1 109.8C265.1 107.4 264.833 105.283 264.3 103.45C263.766 101.583 263.066 100.033 262.2 98.8C261.366 97.5333 260.4 96.5833 259.3 95.95C258.233 95.2833 257.133 94.95 256 94.95C254.866 94.95 253.833 95.2833 252.9 95.95C252 96.5833 251.233 97.4333 250.6 98.5C249.966 99.5667 249.466 100.8 249.1 102.2C248.766 103.6 248.6 105.067 248.6 106.6C248.6 108.433 248.816 110.3 249.25 112.2C249.683 114.067 250.3 115.767 251.1 117.3C251.9 118.8 252.85 120.033 253.95 121C255.083 121.967 256.316 122.45 257.65 122.45C258.616 122.45 259.55 122.183 260.45 121.65C261.35 121.083 262.133 120.267 262.8 119.2C263.5 118.133 264.05 116.817 264.45 115.25C264.883 113.683 265.1 111.867 265.1 109.8Z" fill="#272727"></path><path d="M237.035 208V207.5C237.835 207.5 238.335 207.267 238.535 206.8C238.768 206.3 238.885 205.717 238.885 205.05V181.1C238.885 180.767 238.718 180.6 238.385 180.6C238.252 180.6 238.068 180.65 237.835 180.75L232.135 182.55V180.75L243.785 176.7V178.05C243.252 178.283 242.818 178.65 242.485 179.15C242.185 179.65 242.068 180.233 242.135 180.9V204.85C242.135 205.55 242.252 206.167 242.485 206.7C242.718 207.233 243.252 207.5 244.085 207.5V208H237.035ZM255.145 208H252.795L263.545 180.05H250.495C250.095 180.05 249.678 180.083 249.245 180.15C248.845 180.183 248.461 180.3 248.095 180.5C247.761 180.667 247.478 180.95 247.245 181.35C247.045 181.717 246.945 182.217 246.945 182.85H246.445V177.25H266.945L255.145 208Z" fill="#272727"></path><path d="M230.934 264.05H231.384C231.551 264.05 231.751 263.967 231.984 263.8C232.251 263.633 232.534 263.45 232.834 263.25C233.168 263.017 233.551 262.75 233.984 262.45C234.451 262.15 234.968 261.883 235.534 261.65C236.134 261.383 236.801 261.167 237.534 261C238.268 260.833 239.084 260.75 239.984 260.75C241.118 260.75 242.218 260.917 243.284 261.25C244.351 261.55 245.301 262.033 246.134 262.7C246.968 263.333 247.634 264.15 248.134 265.15C248.634 266.15 248.884 267.35 248.884 268.75C248.884 269.917 248.684 270.983 248.284 271.95C247.884 272.917 247.334 273.817 246.634 274.65C245.968 275.483 245.201 276.283 244.334 277.05C243.501 277.783 242.634 278.517 241.734 279.25C240.868 279.95 240.018 280.667 239.184 281.4C238.384 282.133 237.651 282.9 236.984 283.7C236.351 284.5 235.818 285.367 235.384 286.3C234.951 287.2 234.701 288.167 234.634 289.2H245.034C246.301 289.2 247.301 288.983 248.034 288.55C248.768 288.083 249.151 287.333 249.184 286.3H249.634V292H231.134C231.134 290.5 231.384 289.117 231.884 287.85C232.384 286.55 233.034 285.367 233.834 284.3C234.634 283.2 235.518 282.183 236.484 281.25C237.484 280.317 238.468 279.417 239.434 278.55C240.234 277.85 241.001 277.15 241.734 276.45C242.501 275.75 243.168 275.05 243.734 274.35C244.334 273.617 244.801 272.867 245.134 272.1C245.501 271.3 245.684 270.467 245.684 269.6C245.684 268.5 245.484 267.517 245.084 266.65C244.718 265.783 244.218 265.05 243.584 264.45C242.984 263.85 242.284 263.4 241.484 263.1C240.684 262.767 239.884 262.6 239.084 262.6C237.384 262.6 235.884 263.117 234.584 264.15C233.284 265.15 232.234 266.45 231.434 268.05H230.934V264.05ZM261.17 292V291.5C261.636 291.5 261.986 291.433 262.22 291.3C262.486 291.133 262.67 290.933 262.77 290.7C262.903 290.433 262.97 290.15 262.97 289.85C263.003 289.517 263.02 289.183 263.02 288.85V283.95H249.37L266.27 260V281.45H269.32V283.95H266.27V288.85C266.27 289.517 266.386 290.133 266.62 290.7C266.886 291.233 267.42 291.5 268.22 291.5V292H261.17ZM263.02 267.45C261.353 269.817 259.686 272.15 258.02 274.45C256.386 276.75 254.736 279.083 253.07 281.45H263.02V267.45Z" fill="#272727"></path><path d="M353.452 40V39.5C353.919 39.5 354.269 39.4333 354.502 39.3C354.769 39.1333 354.952 38.9333 355.052 38.7C355.185 38.4333 355.252 38.15 355.252 37.85C355.285 37.5167 355.302 37.1833 355.302 36.85V31.95H341.652L358.552 8V29.45H361.602V31.95H358.552V36.85C358.552 37.5167 358.669 38.1333 358.902 38.7C359.169 39.2333 359.702 39.5 360.502 39.5V40H353.452ZM355.302 15.45C353.635 17.8167 351.969 20.15 350.302 22.45C348.669 24.75 347.019 27.0833 345.352 29.45H355.302V15.45Z" fill="#272727"></path><path d="M341.94 124V123.5C342.74 123.5 343.24 123.267 343.44 122.8C343.674 122.3 343.79 121.717 343.79 121.05V97.1C343.79 96.7667 343.624 96.6 343.29 96.6C343.157 96.6 342.974 96.65 342.74 96.75L337.04 98.55V96.75L348.69 92.7V94.05C348.157 94.2833 347.724 94.65 347.39 95.15C347.09 95.65 346.974 96.2333 347.04 96.9V120.85C347.04 121.55 347.157 122.167 347.39 122.7C347.624 123.233 348.157 123.5 348.99 123.5V124H341.94ZM356.2 124V123.5C357 123.5 357.5 123.267 357.7 122.8C357.933 122.3 358.05 121.717 358.05 121.05V97.1C358.05 96.7667 357.883 96.6 357.55 96.6C357.417 96.6 357.233 96.65 357 96.75L351.3 98.55V96.75L362.95 92.7V94.05C362.417 94.2833 361.983 94.65 361.65 95.15C361.35 95.65 361.233 96.2333 361.3 96.9V120.85C361.3 121.55 361.417 122.167 361.65 122.7C361.883 123.233 362.417 123.5 363.25 123.5V124H356.2Z" fill="#272727"></path><path d="M337.497 208V207.5C338.297 207.5 338.797 207.267 338.997 206.8C339.23 206.3 339.347 205.717 339.347 205.05V181.1C339.347 180.767 339.18 180.6 338.847 180.6C338.714 180.6 338.53 180.65 338.297 180.75L332.597 182.55V180.75L344.247 176.7V178.05C343.714 178.283 343.28 178.65 342.947 179.15C342.647 179.65 342.53 180.233 342.597 180.9V204.85C342.597 205.55 342.714 206.167 342.947 206.7C343.18 207.233 343.714 207.5 344.547 207.5V208H337.497ZM369.357 199.85C369.357 201.317 369.057 202.6 368.457 203.7C367.89 204.767 367.107 205.667 366.107 206.4C365.14 207.1 364.007 207.633 362.707 208C361.407 208.333 360.023 208.5 358.557 208.5C357.19 208.5 355.857 208.333 354.557 208C353.257 207.633 352.09 207.1 351.057 206.4C350.023 205.667 349.19 204.767 348.557 203.7C347.957 202.633 347.657 201.383 347.657 199.95C347.657 198.05 348.223 196.35 349.357 194.85C350.49 193.317 352.29 192.183 354.757 191.45C352.857 190.583 351.457 189.583 350.557 188.45C349.69 187.283 349.257 185.867 349.257 184.2C349.257 182.967 349.507 181.9 350.007 181C350.54 180.067 351.223 179.283 352.057 178.65C352.923 178.017 353.907 177.55 355.007 177.25C356.107 176.917 357.223 176.75 358.357 176.75C359.49 176.75 360.607 176.917 361.707 177.25C362.84 177.55 363.84 178.017 364.707 178.65C365.573 179.283 366.273 180.083 366.807 181.05C367.373 181.983 367.657 183.083 367.657 184.35C367.657 185.85 367.157 187.25 366.157 188.55C365.157 189.85 363.857 190.833 362.257 191.5C364.323 192.1 366.023 193.1 367.357 194.5C368.69 195.867 369.357 197.65 369.357 199.85ZM364.757 185.1C364.757 184.1 364.54 183.183 364.107 182.35C363.707 181.517 363.173 180.817 362.507 180.25C361.84 179.65 361.073 179.2 360.207 178.9C359.373 178.567 358.523 178.4 357.657 178.4C356.99 178.4 356.34 178.5 355.707 178.7C355.073 178.9 354.507 179.2 354.007 179.6C353.507 180 353.09 180.5 352.757 181.1C352.457 181.7 352.307 182.4 352.307 183.2C352.307 184.1 352.523 184.933 352.957 185.7C353.39 186.467 353.957 187.15 354.657 187.75C355.39 188.35 356.207 188.883 357.107 189.35C358.04 189.783 358.973 190.15 359.907 190.45C361.407 189.85 362.59 189.1 363.457 188.2C364.323 187.3 364.757 186.267 364.757 185.1ZM366.857 200.9C366.857 199.967 366.607 199.083 366.107 198.25C365.607 197.417 364.907 196.667 364.007 196C363.107 195.3 362.057 194.683 360.857 194.15C359.69 193.583 358.457 193.1 357.157 192.7C356.29 193 355.473 193.367 354.707 193.8C353.94 194.233 353.273 194.733 352.707 195.3C352.14 195.867 351.69 196.483 351.357 197.15C351.023 197.817 350.857 198.533 350.857 199.3C350.857 200.3 351.09 201.25 351.557 202.15C352.023 203.05 352.64 203.85 353.407 204.55C354.173 205.217 355.057 205.733 356.057 206.1C357.057 206.467 358.09 206.65 359.157 206.65C360.057 206.65 360.957 206.517 361.857 206.25C362.79 205.95 363.607 205.567 364.307 205.1C365.04 204.6 365.64 204 366.107 203.3C366.607 202.6 366.857 201.8 366.857 200.9Z" fill="#272727"></path><path d="M332.446 264.05H332.896C333.063 264.05 333.263 263.967 333.496 263.8C333.763 263.633 334.046 263.45 334.346 263.25C334.679 263.017 335.063 262.75 335.496 262.45C335.963 262.15 336.479 261.883 337.046 261.65C337.646 261.383 338.313 261.167 339.046 261C339.779 260.833 340.596 260.75 341.496 260.75C342.629 260.75 343.729 260.917 344.796 261.25C345.863 261.55 346.813 262.033 347.646 262.7C348.479 263.333 349.146 264.15 349.646 265.15C350.146 266.15 350.396 267.35 350.396 268.75C350.396 269.917 350.196 270.983 349.796 271.95C349.396 272.917 348.846 273.817 348.146 274.65C347.479 275.483 346.713 276.283 345.846 277.05C345.013 277.783 344.146 278.517 343.246 279.25C342.379 279.95 341.529 280.667 340.696 281.4C339.896 282.133 339.163 282.9 338.496 283.7C337.863 284.5 337.329 285.367 336.896 286.3C336.463 287.2 336.213 288.167 336.146 289.2H346.546C347.813 289.2 348.813 288.983 349.546 288.55C350.279 288.083 350.663 287.333 350.696 286.3H351.146V292H332.646C332.646 290.5 332.896 289.117 333.396 287.85C333.896 286.55 334.546 285.367 335.346 284.3C336.146 283.2 337.029 282.183 337.996 281.25C338.996 280.317 339.979 279.417 340.946 278.55C341.746 277.85 342.513 277.15 343.246 276.45C344.013 275.75 344.679 275.05 345.246 274.35C345.846 273.617 346.313 272.867 346.646 272.1C347.013 271.3 347.196 270.467 347.196 269.6C347.196 268.5 346.996 267.517 346.596 266.65C346.229 265.783 345.729 265.05 345.096 264.45C344.496 263.85 343.796 263.4 342.996 263.1C342.196 262.767 341.396 262.6 340.596 262.6C338.896 262.6 337.396 263.117 336.096 264.15C334.796 265.15 333.746 266.45 332.946 268.05H332.446V264.05ZM370.431 282.65C370.431 283.817 370.198 285 369.731 286.2C369.298 287.367 368.631 288.417 367.731 289.35C366.831 290.283 365.681 291.05 364.281 291.65C362.915 292.217 361.315 292.5 359.481 292.5C358.581 292.5 357.698 292.4 356.831 292.2C355.965 292 355.148 291.8 354.381 291.6C353.815 291.433 353.298 291.3 352.831 291.2C352.365 291.067 351.948 291 351.581 291V287.05C352.448 288.217 353.581 289.133 354.981 289.8C356.415 290.467 357.848 290.8 359.281 290.8C360.581 290.8 361.715 290.6 362.681 290.2C363.648 289.8 364.448 289.267 365.081 288.6C365.748 287.9 366.231 287.083 366.531 286.15C366.865 285.183 367.031 284.15 367.031 283.05C367.031 281.717 366.798 280.55 366.331 279.55C365.898 278.55 365.315 277.717 364.581 277.05C363.848 276.35 362.998 275.833 362.031 275.5C361.098 275.167 360.148 275 359.181 275C358.115 275 356.948 275.25 355.681 275.75C354.415 276.217 353.115 276.967 351.781 278L358.181 261.25H370.681L369.681 264.05H359.231C358.665 265.55 358.048 267.1 357.381 268.7C356.748 270.3 356.148 271.867 355.581 273.4C356.381 273.033 357.131 272.783 357.831 272.65C358.531 272.517 359.281 272.45 360.081 272.45C361.415 272.45 362.698 272.683 363.931 273.15C365.165 273.617 366.265 274.283 367.231 275.15C368.198 276.017 368.965 277.083 369.531 278.35C370.131 279.617 370.431 281.05 370.431 282.65Z" fill="#272727"></path><path d="M462.714 30.65C462.714 31.8167 462.48 33 462.014 34.2C461.58 35.3667 460.914 36.4167 460.014 37.35C459.114 38.2833 457.964 39.05 456.564 39.65C455.197 40.2167 453.597 40.5 451.764 40.5C450.864 40.5 449.98 40.4 449.114 40.2C448.247 40 447.43 39.8 446.664 39.6C446.097 39.4333 445.58 39.3 445.114 39.2C444.647 39.0667 444.23 39 443.864 39V35.05C444.73 36.2167 445.864 37.1333 447.264 37.8C448.697 38.4667 450.13 38.8 451.564 38.8C452.864 38.8 453.997 38.6 454.964 38.2C455.93 37.8 456.73 37.2667 457.364 36.6C458.03 35.9 458.514 35.0833 458.814 34.15C459.147 33.1833 459.314 32.15 459.314 31.05C459.314 29.7167 459.08 28.55 458.614 27.55C458.18 26.55 457.597 25.7167 456.864 25.05C456.13 24.35 455.28 23.8333 454.314 23.5C453.38 23.1667 452.43 23 451.464 23C450.397 23 449.23 23.25 447.964 23.75C446.697 24.2167 445.397 24.9667 444.064 26L450.464 9.25H462.964L461.964 12.05H451.514C450.947 13.55 450.33 15.1 449.664 16.7C449.03 18.3 448.43 19.8667 447.864 21.4C448.664 21.0333 449.414 20.7833 450.114 20.65C450.814 20.5167 451.564 20.45 452.364 20.45C453.697 20.45 454.98 20.6833 456.214 21.15C457.447 21.6167 458.547 22.2833 459.514 23.15C460.48 24.0167 461.247 25.0833 461.814 26.35C462.414 27.6167 462.714 29.05 462.714 30.65Z" fill="#272727"></path><path d="M441.352 124V123.5C442.152 123.5 442.652 123.267 442.852 122.8C443.086 122.3 443.202 121.717 443.202 121.05V97.1C443.202 96.7667 443.036 96.6 442.702 96.6C442.569 96.6 442.386 96.65 442.152 96.75L436.452 98.55V96.75L448.102 92.7V94.05C447.569 94.2833 447.136 94.65 446.802 95.15C446.502 95.65 446.386 96.2333 446.452 96.9V120.85C446.452 121.55 446.569 122.167 446.802 122.7C447.036 123.233 447.569 123.5 448.402 123.5V124H441.352ZM451.562 96.05H452.012C452.179 96.05 452.379 95.9667 452.612 95.8C452.879 95.6333 453.162 95.45 453.462 95.25C453.795 95.0167 454.179 94.75 454.612 94.45C455.079 94.15 455.595 93.8833 456.162 93.65C456.762 93.3833 457.429 93.1667 458.162 93C458.895 92.8333 459.712 92.75 460.612 92.75C461.745 92.75 462.845 92.9167 463.912 93.25C464.979 93.55 465.929 94.0333 466.762 94.7C467.595 95.3333 468.262 96.15 468.762 97.15C469.262 98.15 469.512 99.35 469.512 100.75C469.512 101.917 469.312 102.983 468.912 103.95C468.512 104.917 467.962 105.817 467.262 106.65C466.595 107.483 465.829 108.283 464.962 109.05C464.129 109.783 463.262 110.517 462.362 111.25C461.495 111.95 460.645 112.667 459.812 113.4C459.012 114.133 458.279 114.9 457.612 115.7C456.979 116.5 456.445 117.367 456.012 118.3C455.579 119.2 455.329 120.167 455.262 121.2H465.662C466.929 121.2 467.929 120.983 468.662 120.55C469.395 120.083 469.779 119.333 469.812 118.3H470.262V124H451.762C451.762 122.5 452.012 121.117 452.512 119.85C453.012 118.55 453.662 117.367 454.462 116.3C455.262 115.2 456.145 114.183 457.112 113.25C458.112 112.317 459.095 111.417 460.062 110.55C460.862 109.85 461.629 109.15 462.362 108.45C463.129 107.75 463.795 107.05 464.362 106.35C464.962 105.617 465.429 104.867 465.762 104.1C466.129 103.3 466.312 102.467 466.312 101.6C466.312 100.5 466.112 99.5167 465.712 98.65C465.345 97.7833 464.845 97.05 464.212 96.45C463.612 95.85 462.912 95.4 462.112 95.1C461.312 94.7667 460.512 94.6 459.712 94.6C458.012 94.6 456.512 95.1167 455.212 96.15C453.912 97.15 452.862 98.45 452.062 100.05H451.562V96.05Z" fill="#272727"></path><path d="M439.79 208V207.5C440.59 207.5 441.09 207.267 441.29 206.8C441.523 206.3 441.64 205.717 441.64 205.05V181.1C441.64 180.767 441.473 180.6 441.14 180.6C441.007 180.6 440.823 180.65 440.59 180.75L434.89 182.55V180.75L446.54 176.7V178.05C446.007 178.283 445.573 178.65 445.24 179.15C444.94 179.65 444.823 180.233 444.89 180.9V204.85C444.89 205.55 445.007 206.167 445.24 206.7C445.473 207.233 446.007 207.5 446.84 207.5V208H439.79ZM461.25 196.2C462.45 196.2 463.5 196 464.4 195.6C465.3 195.167 466.033 194.6 466.6 193.9C467.2 193.2 467.633 192.4 467.9 191.5C468.2 190.6 468.35 189.667 468.35 188.7C468.35 187.533 468.166 186.367 467.8 185.2C467.466 184.033 466.95 183 466.25 182.1C465.583 181.167 464.75 180.417 463.75 179.85C462.783 179.25 461.666 178.95 460.4 178.95C459.266 178.95 458.266 179.183 457.4 179.65C456.566 180.083 455.85 180.683 455.25 181.45C454.683 182.183 454.25 183.033 453.95 184C453.683 184.967 453.55 185.95 453.55 186.95C453.55 188.083 453.716 189.2 454.05 190.3C454.416 191.4 454.916 192.4 455.55 193.3C456.216 194.167 457.016 194.867 457.95 195.4C458.916 195.933 460.016 196.2 461.25 196.2ZM454.2 204.45C454.733 205.117 455.366 205.65 456.1 206.05C456.866 206.45 457.583 206.583 458.25 206.45C459.683 206.45 460.95 206.117 462.05 205.45C463.15 204.783 464.083 203.9 464.85 202.8C465.65 201.7 466.266 200.517 466.7 199.25C467.166 197.95 467.483 196.75 467.65 195.65C466.683 196.517 465.6 197.117 464.4 197.45C463.233 197.783 461.983 197.95 460.65 197.95C458.95 197.95 457.45 197.667 456.15 197.1C454.883 196.5 453.816 195.733 452.95 194.8C452.116 193.833 451.483 192.733 451.05 191.5C450.65 190.267 450.45 189 450.45 187.7C450.45 186.4 450.666 185.117 451.1 183.85C451.533 182.583 452.183 181.467 453.05 180.5C453.916 179.5 454.983 178.7 456.25 178.1C457.55 177.5 459.05 177.2 460.75 177.2C462.65 177.2 464.266 177.55 465.6 178.25C466.966 178.95 468.083 179.9 468.95 181.1C469.816 182.267 470.45 183.633 470.85 185.2C471.283 186.767 471.5 188.4 471.5 190.1C471.5 192.3 471.266 194.517 470.8 196.75C470.333 198.95 469.566 200.933 468.5 202.7C467.466 204.433 466.083 205.85 464.35 206.95C462.65 208.05 460.566 208.6 458.1 208.6C457.633 208.6 457.05 208.55 456.35 208.45C455.65 208.35 455.1 208.267 454.7 208.2C454.466 208.167 454.216 208.133 453.95 208.1C453.716 208.067 453.633 208.05 453.7 208.05V204.45H454.2Z" fill="#272727"></path><path d="M433.152 264.05H433.602C433.769 264.05 433.969 263.967 434.202 263.8C434.469 263.633 434.752 263.45 435.052 263.25C435.385 263.017 435.769 262.75 436.202 262.45C436.669 262.15 437.185 261.883 437.752 261.65C438.352 261.383 439.019 261.167 439.752 261C440.485 260.833 441.302 260.75 442.202 260.75C443.335 260.75 444.435 260.917 445.502 261.25C446.569 261.55 447.519 262.033 448.352 262.7C449.185 263.333 449.852 264.15 450.352 265.15C450.852 266.15 451.102 267.35 451.102 268.75C451.102 269.917 450.902 270.983 450.502 271.95C450.102 272.917 449.552 273.817 448.852 274.65C448.185 275.483 447.419 276.283 446.552 277.05C445.719 277.783 444.852 278.517 443.952 279.25C443.085 279.95 442.235 280.667 441.402 281.4C440.602 282.133 439.869 282.9 439.202 283.7C438.569 284.5 438.035 285.367 437.602 286.3C437.169 287.2 436.919 288.167 436.852 289.2H447.252C448.519 289.2 449.519 288.983 450.252 288.55C450.985 288.083 451.369 287.333 451.402 286.3H451.852V292H433.352C433.352 290.5 433.602 289.117 434.102 287.85C434.602 286.55 435.252 285.367 436.052 284.3C436.852 283.2 437.735 282.183 438.702 281.25C439.702 280.317 440.685 279.417 441.652 278.55C442.452 277.85 443.219 277.15 443.952 276.45C444.719 275.75 445.385 275.05 445.952 274.35C446.552 273.617 447.019 272.867 447.352 272.1C447.719 271.3 447.902 270.467 447.902 269.6C447.902 268.5 447.702 267.517 447.302 266.65C446.935 265.783 446.435 265.05 445.802 264.45C445.202 263.85 444.502 263.4 443.702 263.1C442.902 262.767 442.102 262.6 441.302 262.6C439.602 262.6 438.102 263.117 436.802 264.15C435.502 265.15 434.452 266.45 433.652 268.05H433.152V264.05ZM463.288 273.5C462.088 273.5 461.038 273.717 460.138 274.15C459.271 274.55 458.538 275.1 457.938 275.8C457.371 276.5 456.938 277.3 456.638 278.2C456.371 279.1 456.238 280.033 456.238 281C456.238 282.167 456.404 283.333 456.738 284.5C457.104 285.667 457.621 286.717 458.288 287.65C458.988 288.55 459.821 289.3 460.788 289.9C461.754 290.467 462.871 290.75 464.138 290.75C465.271 290.75 466.271 290.533 467.138 290.1C468.004 289.633 468.721 289.033 469.288 288.3C469.888 287.533 470.321 286.667 470.588 285.7C470.888 284.733 471.038 283.75 471.038 282.75C471.038 281.617 470.854 280.5 470.488 279.4C470.154 278.3 469.654 277.317 468.988 276.45C468.354 275.55 467.554 274.833 466.588 274.3C465.621 273.767 464.521 273.5 463.288 273.5ZM470.388 265.25C469.854 264.583 469.204 264.05 468.438 263.65C467.704 263.25 467.004 263.05 466.338 263.05C464.804 263.05 463.471 263.433 462.338 264.2C461.204 264.933 460.254 265.85 459.488 266.95C458.754 268.05 458.171 269.25 457.738 270.55C457.304 271.817 457.021 273 456.888 274.1C457.854 273.233 458.938 272.633 460.138 272.3C461.338 271.933 462.588 271.75 463.888 271.75C465.588 271.75 467.071 272.05 468.338 272.65C469.638 273.217 470.704 273.983 471.538 274.95C472.404 275.883 473.038 276.967 473.438 278.2C473.871 279.433 474.088 280.7 474.088 282C474.088 283.3 473.871 284.583 473.438 285.85C473.004 287.117 472.354 288.25 471.488 289.25C470.621 290.217 469.538 291 468.238 291.6C466.971 292.2 465.488 292.5 463.788 292.5C461.921 292.5 460.304 292.15 458.938 291.45C457.571 290.75 456.454 289.817 455.588 288.65C454.721 287.45 454.071 286.067 453.638 284.5C453.238 282.933 453.038 281.3 453.038 279.6C453.038 277.4 453.338 275.217 453.938 273.05C454.571 270.85 455.488 268.883 456.688 267.15C457.888 265.383 459.354 263.95 461.088 262.85C462.821 261.75 464.804 261.2 467.038 261.2C467.504 261.2 467.988 261.233 468.488 261.3C469.021 261.367 469.488 261.433 469.888 261.5C470.088 261.533 470.288 261.567 470.488 261.6C470.721 261.633 470.854 261.65 470.888 261.65V265.25H470.388Z" fill="#F6F6F6"></path><path d="M555.57 21.5C554.37 21.5 553.32 21.7167 552.42 22.15C551.553 22.55 550.82 23.1 550.22 23.8C549.653 24.5 549.22 25.3 548.92 26.2C548.653 27.1 548.52 28.0333 548.52 29C548.52 30.1667 548.686 31.3333 549.02 32.5C549.386 33.6667 549.903 34.7167 550.57 35.65C551.27 36.55 552.103 37.3 553.07 37.9C554.036 38.4667 555.153 38.75 556.42 38.75C557.553 38.75 558.553 38.5333 559.42 38.1C560.286 37.6333 561.003 37.0333 561.57 36.3C562.17 35.5333 562.603 34.6667 562.87 33.7C563.17 32.7333 563.32 31.75 563.32 30.75C563.32 29.6167 563.136 28.5 562.77 27.4C562.436 26.3 561.936 25.3167 561.27 24.45C560.636 23.55 559.836 22.8333 558.87 22.3C557.903 21.7667 556.803 21.5 555.57 21.5ZM562.67 13.25C562.136 12.5833 561.486 12.05 560.72 11.65C559.986 11.25 559.286 11.05 558.62 11.05C557.086 11.05 555.753 11.4333 554.62 12.2C553.486 12.9333 552.536 13.85 551.77 14.95C551.036 16.05 550.453 17.25 550.02 18.55C549.586 19.8167 549.303 21 549.17 22.1C550.136 21.2333 551.22 20.6333 552.42 20.3C553.62 19.9333 554.87 19.75 556.17 19.75C557.87 19.75 559.353 20.05 560.62 20.65C561.92 21.2167 562.986 21.9833 563.82 22.95C564.686 23.8833 565.32 24.9667 565.72 26.2C566.153 27.4333 566.37 28.7 566.37 30C566.37 31.3 566.153 32.5833 565.72 33.85C565.286 35.1167 564.636 36.25 563.77 37.25C562.903 38.2167 561.82 39 560.52 39.6C559.253 40.2 557.77 40.5 556.07 40.5C554.203 40.5 552.586 40.15 551.22 39.45C549.853 38.75 548.736 37.8167 547.87 36.65C547.003 35.45 546.353 34.0667 545.92 32.5C545.52 30.9333 545.32 29.3 545.32 27.6C545.32 25.4 545.62 23.2167 546.22 21.05C546.853 18.85 547.77 16.8833 548.97 15.15C550.17 13.3833 551.636 11.95 553.37 10.85C555.103 9.75 557.086 9.2 559.32 9.2C559.786 9.2 560.27 9.23333 560.77 9.3C561.303 9.36666 561.77 9.43333 562.17 9.5C562.37 9.53333 562.57 9.56667 562.77 9.6C563.003 9.63333 563.136 9.65 563.17 9.65V13.25H562.67Z" fill="#272727"></path><path d="M543.45 124V123.5C544.25 123.5 544.75 123.267 544.95 122.8C545.183 122.3 545.3 121.717 545.3 121.05V97.1C545.3 96.7667 545.133 96.6 544.8 96.6C544.667 96.6 544.483 96.65 544.25 96.75L538.55 98.55V96.75L550.2 92.7V94.05C549.667 94.2833 549.233 94.65 548.9 95.15C548.6 95.65 548.483 96.2333 548.55 96.9V120.85C548.55 121.55 548.667 122.167 548.9 122.7C549.133 123.233 549.667 123.5 550.5 123.5V124H543.45ZM553.91 94.2H554.36C554.626 94.2 554.91 94.15 555.21 94.05C555.51 93.95 555.843 93.8333 556.21 93.7C556.776 93.5 557.46 93.3 558.26 93.1C559.06 92.8667 560.043 92.75 561.21 92.75C562.543 92.75 563.726 92.95 564.76 93.35C565.826 93.7167 566.71 94.2333 567.41 94.9C568.143 95.5333 568.693 96.2833 569.06 97.15C569.46 98.0167 569.66 98.9167 569.66 99.85C569.66 101.15 569.26 102.4 568.46 103.6C567.693 104.8 566.493 105.767 564.86 106.5C567.16 107.167 568.876 108.233 570.01 109.7C571.143 111.167 571.71 112.833 571.71 114.7C571.71 116.1 571.443 117.4 570.91 118.6C570.41 119.767 569.66 120.8 568.66 121.7C567.693 122.567 566.526 123.25 565.16 123.75C563.793 124.25 562.26 124.5 560.56 124.5C559.293 124.5 558.243 124.383 557.41 124.15C556.576 123.917 555.876 123.7 555.31 123.5C554.943 123.367 554.61 123.267 554.31 123.2C554.01 123.1 553.71 123.05 553.41 123.05H552.96V119.2H553.46C554.326 120.4 555.393 121.317 556.66 121.95C557.96 122.55 559.293 122.85 560.66 122.85C561.86 122.85 562.943 122.65 563.91 122.25C564.876 121.817 565.693 121.25 566.36 120.55C567.06 119.85 567.576 119.05 567.91 118.15C568.276 117.25 568.46 116.317 568.46 115.35C568.46 114.35 568.26 113.383 567.86 112.45C567.46 111.483 566.893 110.633 566.16 109.9C565.426 109.167 564.526 108.583 563.46 108.15C562.426 107.717 561.243 107.5 559.91 107.5H557.61V105.85H560.16C561.193 105.85 562.093 105.683 562.86 105.35C563.66 105.017 564.326 104.567 564.86 104C565.393 103.433 565.793 102.8 566.06 102.1C566.326 101.4 566.46 100.667 566.46 99.9C566.46 99.2 566.326 98.5167 566.06 97.85C565.826 97.1833 565.46 96.6 564.96 96.1C564.46 95.5667 563.843 95.1333 563.11 94.8C562.41 94.4667 561.593 94.3 560.66 94.3C559.526 94.3 558.393 94.6167 557.26 95.25C556.126 95.8833 555.176 96.8333 554.41 98.1H553.91V94.2Z" fill="#272727"></path><path d="M534.102 180.05H534.552C534.719 180.05 534.919 179.967 535.152 179.8C535.419 179.633 535.702 179.45 536.002 179.25C536.335 179.017 536.719 178.75 537.152 178.45C537.619 178.15 538.135 177.883 538.702 177.65C539.302 177.383 539.969 177.167 540.702 177C541.435 176.833 542.252 176.75 543.152 176.75C544.285 176.75 545.385 176.917 546.452 177.25C547.519 177.55 548.469 178.033 549.302 178.7C550.135 179.333 550.802 180.15 551.302 181.15C551.802 182.15 552.052 183.35 552.052 184.75C552.052 185.917 551.852 186.983 551.452 187.95C551.052 188.917 550.502 189.817 549.802 190.65C549.135 191.483 548.369 192.283 547.502 193.05C546.669 193.783 545.802 194.517 544.902 195.25C544.035 195.95 543.185 196.667 542.352 197.4C541.552 198.133 540.819 198.9 540.152 199.7C539.519 200.5 538.985 201.367 538.552 202.3C538.119 203.2 537.869 204.167 537.802 205.2H548.202C549.469 205.2 550.469 204.983 551.202 204.55C551.935 204.083 552.319 203.333 552.352 202.3H552.802V208H534.302C534.302 206.5 534.552 205.117 535.052 203.85C535.552 202.55 536.202 201.367 537.002 200.3C537.802 199.2 538.685 198.183 539.652 197.25C540.652 196.317 541.635 195.417 542.602 194.55C543.402 193.85 544.169 193.15 544.902 192.45C545.669 191.75 546.335 191.05 546.902 190.35C547.502 189.617 547.969 188.867 548.302 188.1C548.669 187.3 548.852 186.467 548.852 185.6C548.852 184.5 548.652 183.517 548.252 182.65C547.885 181.783 547.385 181.05 546.752 180.45C546.152 179.85 545.452 179.4 544.652 179.1C543.852 178.767 543.052 178.6 542.252 178.6C540.552 178.6 539.052 179.117 537.752 180.15C536.452 181.15 535.402 182.45 534.602 184.05H534.102V180.05ZM554.238 192.5C554.238 189.933 554.554 187.667 555.188 185.7C555.854 183.733 556.721 182.1 557.788 180.8C558.854 179.467 560.054 178.467 561.388 177.8C562.754 177.1 564.138 176.75 565.538 176.75C566.938 176.75 568.321 177.1 569.688 177.8C571.054 178.467 572.254 179.467 573.288 180.8C574.354 182.1 575.204 183.733 575.838 185.7C576.504 187.667 576.838 189.933 576.838 192.5C576.838 195.1 576.504 197.4 575.838 199.4C575.204 201.367 574.354 203.033 573.288 204.4C572.254 205.733 571.054 206.75 569.688 207.45C568.321 208.15 566.938 208.5 565.538 208.5C564.138 208.5 562.754 208.15 561.388 207.45C560.054 206.75 558.854 205.733 557.788 204.4C556.721 203.033 555.854 201.367 555.188 199.4C554.554 197.4 554.238 195.1 554.238 192.5ZM573.688 193.8C573.688 191.4 573.421 189.283 572.888 187.45C572.354 185.583 571.654 184.033 570.788 182.8C569.954 181.533 568.988 180.583 567.888 179.95C566.821 179.283 565.721 178.95 564.588 178.95C563.454 178.95 562.421 179.283 561.488 179.95C560.588 180.583 559.821 181.433 559.188 182.5C558.554 183.567 558.054 184.8 557.688 186.2C557.354 187.6 557.188 189.067 557.188 190.6C557.188 192.433 557.404 194.3 557.838 196.2C558.271 198.067 558.888 199.767 559.688 201.3C560.488 202.8 561.438 204.033 562.538 205C563.671 205.967 564.904 206.45 566.238 206.45C567.204 206.45 568.138 206.183 569.038 205.65C569.938 205.083 570.721 204.267 571.388 203.2C572.088 202.133 572.638 200.817 573.038 199.25C573.471 197.683 573.688 195.867 573.688 193.8Z" fill="#272727"></path><path d="M536.397 264.05H536.847C537.014 264.05 537.214 263.967 537.447 263.8C537.714 263.633 537.997 263.45 538.297 263.25C538.63 263.017 539.014 262.75 539.447 262.45C539.914 262.15 540.43 261.883 540.997 261.65C541.597 261.383 542.264 261.167 542.997 261C543.73 260.833 544.547 260.75 545.447 260.75C546.58 260.75 547.68 260.917 548.747 261.25C549.814 261.55 550.764 262.033 551.597 262.7C552.43 263.333 553.097 264.15 553.597 265.15C554.097 266.15 554.347 267.35 554.347 268.75C554.347 269.917 554.147 270.983 553.747 271.95C553.347 272.917 552.797 273.817 552.097 274.65C551.43 275.483 550.664 276.283 549.797 277.05C548.964 277.783 548.097 278.517 547.197 279.25C546.33 279.95 545.48 280.667 544.647 281.4C543.847 282.133 543.114 282.9 542.447 283.7C541.814 284.5 541.28 285.367 540.847 286.3C540.414 287.2 540.164 288.167 540.097 289.2H550.497C551.764 289.2 552.764 288.983 553.497 288.55C554.23 288.083 554.614 287.333 554.647 286.3H555.097V292H536.597C536.597 290.5 536.847 289.117 537.347 287.85C537.847 286.55 538.497 285.367 539.297 284.3C540.097 283.2 540.98 282.183 541.947 281.25C542.947 280.317 543.93 279.417 544.897 278.55C545.697 277.85 546.464 277.15 547.197 276.45C547.964 275.75 548.63 275.05 549.197 274.35C549.797 273.617 550.264 272.867 550.597 272.1C550.964 271.3 551.147 270.467 551.147 269.6C551.147 268.5 550.947 267.517 550.547 266.65C550.18 265.783 549.68 265.05 549.047 264.45C548.447 263.85 547.747 263.4 546.947 263.1C546.147 262.767 545.347 262.6 544.547 262.6C542.847 262.6 541.347 263.117 540.047 264.15C538.747 265.15 537.697 266.45 536.897 268.05H536.397V264.05ZM563.733 292H561.383L572.133 264.05H559.083C558.683 264.05 558.266 264.083 557.833 264.15C557.433 264.183 557.049 264.3 556.683 264.5C556.349 264.667 556.066 264.95 555.833 265.35C555.633 265.717 555.533 266.217 555.533 266.85H555.033V261.25H575.533L563.733 292Z" fill="#272727"></path><path d="M656.015 40H653.665L664.415 12.05H651.365C650.965 12.05 650.548 12.0833 650.115 12.15C649.715 12.1833 649.332 12.3 648.965 12.5C648.632 12.6667 648.348 12.95 648.115 13.35C647.915 13.7167 647.815 14.2167 647.815 14.85H647.315V9.25H667.815L656.015 40Z" fill="#272727"></path><path d="M645.572 124V123.5C646.372 123.5 646.872 123.267 647.072 122.8C647.305 122.3 647.422 121.717 647.422 121.05V97.1C647.422 96.7667 647.255 96.6 646.922 96.6C646.789 96.6 646.605 96.65 646.372 96.75L640.672 98.55V96.75L652.322 92.7V94.05C651.789 94.2833 651.355 94.65 651.022 95.15C650.722 95.65 650.605 96.2333 650.672 96.9V120.85C650.672 121.55 650.789 122.167 651.022 122.7C651.255 123.233 651.789 123.5 652.622 123.5V124H645.572ZM666.582 124V123.5C667.049 123.5 667.399 123.433 667.632 123.3C667.899 123.133 668.082 122.933 668.182 122.7C668.315 122.433 668.382 122.15 668.382 121.85C668.415 121.517 668.432 121.183 668.432 120.85V115.95H654.782L671.682 92V113.45H674.732V115.95H671.682V120.85C671.682 121.517 671.799 122.133 672.032 122.7C672.299 123.233 672.832 123.5 673.632 123.5V124H666.582ZM668.432 99.45C666.765 101.817 665.099 104.15 663.432 106.45C661.799 108.75 660.149 111.083 658.482 113.45H668.432V99.45Z" fill="#272727"></path><path d="M641.302 180.05H641.752C641.919 180.05 642.119 179.967 642.352 179.8C642.619 179.633 642.902 179.45 643.202 179.25C643.536 179.017 643.919 178.75 644.352 178.45C644.819 178.15 645.336 177.883 645.902 177.65C646.502 177.383 647.169 177.167 647.902 177C648.636 176.833 649.452 176.75 650.352 176.75C651.486 176.75 652.586 176.917 653.652 177.25C654.719 177.55 655.669 178.033 656.502 178.7C657.336 179.333 658.002 180.15 658.502 181.15C659.002 182.15 659.252 183.35 659.252 184.75C659.252 185.917 659.052 186.983 658.652 187.95C658.252 188.917 657.702 189.817 657.002 190.65C656.336 191.483 655.569 192.283 654.702 193.05C653.869 193.783 653.002 194.517 652.102 195.25C651.236 195.95 650.386 196.667 649.552 197.4C648.752 198.133 648.019 198.9 647.352 199.7C646.719 200.5 646.186 201.367 645.752 202.3C645.319 203.2 645.069 204.167 645.002 205.2H655.402C656.669 205.2 657.669 204.983 658.402 204.55C659.136 204.083 659.519 203.333 659.552 202.3H660.002V208H641.502C641.502 206.5 641.752 205.117 642.252 203.85C642.752 202.55 643.402 201.367 644.202 200.3C645.002 199.2 645.886 198.183 646.852 197.25C647.852 196.317 648.836 195.417 649.802 194.55C650.602 193.85 651.369 193.15 652.102 192.45C652.869 191.75 653.536 191.05 654.102 190.35C654.702 189.617 655.169 188.867 655.502 188.1C655.869 187.3 656.052 186.467 656.052 185.6C656.052 184.5 655.852 183.517 655.452 182.65C655.086 181.783 654.586 181.05 653.952 180.45C653.352 179.85 652.652 179.4 651.852 179.1C651.052 178.767 650.252 178.6 649.452 178.6C647.752 178.6 646.252 179.117 644.952 180.15C643.652 181.15 642.602 182.45 641.802 184.05H641.302V180.05ZM664.788 208V207.5C665.588 207.5 666.088 207.267 666.288 206.8C666.521 206.3 666.638 205.717 666.638 205.05V181.1C666.638 180.767 666.471 180.6 666.138 180.6C666.005 180.6 665.821 180.65 665.588 180.75L659.888 182.55V180.75L671.538 176.7V178.05C671.005 178.283 670.571 178.65 670.238 179.15C669.938 179.65 669.821 180.233 669.888 180.9V204.85C669.888 205.55 670.005 206.167 670.238 206.7C670.471 207.233 671.005 207.5 671.838 207.5V208H664.788Z" fill="#272727"></path><path d="M636.859 264.05H637.309C637.476 264.05 637.676 263.967 637.909 263.8C638.176 263.633 638.459 263.45 638.759 263.25C639.092 263.017 639.476 262.75 639.909 262.45C640.376 262.15 640.892 261.883 641.459 261.65C642.059 261.383 642.726 261.167 643.459 261C644.192 260.833 645.009 260.75 645.909 260.75C647.042 260.75 648.142 260.917 649.209 261.25C650.276 261.55 651.226 262.033 652.059 262.7C652.892 263.333 653.559 264.15 654.059 265.15C654.559 266.15 654.809 267.35 654.809 268.75C654.809 269.917 654.609 270.983 654.209 271.95C653.809 272.917 653.259 273.817 652.559 274.65C651.892 275.483 651.126 276.283 650.259 277.05C649.426 277.783 648.559 278.517 647.659 279.25C646.792 279.95 645.942 280.667 645.109 281.4C644.309 282.133 643.576 282.9 642.909 283.7C642.276 284.5 641.742 285.367 641.309 286.3C640.876 287.2 640.626 288.167 640.559 289.2H650.959C652.226 289.2 653.226 288.983 653.959 288.55C654.692 288.083 655.076 287.333 655.109 286.3H655.559V292H637.059C637.059 290.5 637.309 289.117 637.809 287.85C638.309 286.55 638.959 285.367 639.759 284.3C640.559 283.2 641.442 282.183 642.409 281.25C643.409 280.317 644.392 279.417 645.359 278.55C646.159 277.85 646.926 277.15 647.659 276.45C648.426 275.75 649.092 275.05 649.659 274.35C650.259 273.617 650.726 272.867 651.059 272.1C651.426 271.3 651.609 270.467 651.609 269.6C651.609 268.5 651.409 267.517 651.009 266.65C650.642 265.783 650.142 265.05 649.509 264.45C648.909 263.85 648.209 263.4 647.409 263.1C646.609 262.767 645.809 262.6 645.009 262.6C643.309 262.6 641.809 263.117 640.509 264.15C639.209 265.15 638.159 266.45 637.359 268.05H636.859V264.05ZM677.945 283.85C677.945 285.317 677.645 286.6 677.045 287.7C676.478 288.767 675.695 289.667 674.695 290.4C673.728 291.1 672.595 291.633 671.295 292C669.995 292.333 668.611 292.5 667.145 292.5C665.778 292.5 664.445 292.333 663.145 292C661.845 291.633 660.678 291.1 659.645 290.4C658.611 289.667 657.778 288.767 657.145 287.7C656.545 286.633 656.245 285.383 656.245 283.95C656.245 282.05 656.811 280.35 657.945 278.85C659.078 277.317 660.878 276.183 663.345 275.45C661.445 274.583 660.045 273.583 659.145 272.45C658.278 271.283 657.845 269.867 657.845 268.2C657.845 266.967 658.095 265.9 658.595 265C659.128 264.067 659.811 263.283 660.645 262.65C661.511 262.017 662.495 261.55 663.595 261.25C664.695 260.917 665.811 260.75 666.945 260.75C668.078 260.75 669.195 260.917 670.295 261.25C671.428 261.55 672.428 262.017 673.295 262.65C674.161 263.283 674.861 264.083 675.395 265.05C675.961 265.983 676.245 267.083 676.245 268.35C676.245 269.85 675.745 271.25 674.745 272.55C673.745 273.85 672.445 274.833 670.845 275.5C672.911 276.1 674.611 277.1 675.945 278.5C677.278 279.867 677.945 281.65 677.945 283.85ZM673.345 269.1C673.345 268.1 673.128 267.183 672.695 266.35C672.295 265.517 671.761 264.817 671.095 264.25C670.428 263.65 669.661 263.2 668.795 262.9C667.961 262.567 667.111 262.4 666.245 262.4C665.578 262.4 664.928 262.5 664.295 262.7C663.661 262.9 663.095 263.2 662.595 263.6C662.095 264 661.678 264.5 661.345 265.1C661.045 265.7 660.895 266.4 660.895 267.2C660.895 268.1 661.111 268.933 661.545 269.7C661.978 270.467 662.545 271.15 663.245 271.75C663.978 272.35 664.795 272.883 665.695 273.35C666.628 273.783 667.561 274.15 668.495 274.45C669.995 273.85 671.178 273.1 672.045 272.2C672.911 271.3 673.345 270.267 673.345 269.1ZM675.445 284.9C675.445 283.967 675.195 283.083 674.695 282.25C674.195 281.417 673.495 280.667 672.595 280C671.695 279.3 670.645 278.683 669.445 278.15C668.278 277.583 667.045 277.1 665.745 276.7C664.878 277 664.061 277.367 663.295 277.8C662.528 278.233 661.861 278.733 661.295 279.3C660.728 279.867 660.278 280.483 659.945 281.15C659.611 281.817 659.445 282.533 659.445 283.3C659.445 284.3 659.678 285.25 660.145 286.15C660.611 287.05 661.228 287.85 661.995 288.55C662.761 289.217 663.645 289.733 664.645 290.1C665.645 290.467 666.678 290.65 667.745 290.65C668.645 290.65 669.545 290.517 670.445 290.25C671.378 289.95 672.195 289.567 672.895 289.1C673.628 288.6 674.228 288 674.695 287.3C675.195 286.6 675.445 285.8 675.445 284.9Z" fill="#272727"></path></svg> 