<?xml version="1.0" encoding="UTF-8"?> <svg xmlns="http://www.w3.org/2000/svg" width="573" height="556" viewBox="0 0 573 556" fill="none"><path d="M258.684 2.00564C254.55 4.93897 254.817 7.47231 258.95 4.80564C264.284 1.33897 266.95 2.13897 271.884 8.93897C274.417 12.539 278.817 18.139 281.75 21.4723C290.95 32.139 293.617 36.139 296.55 43.8723C300.15 53.2056 300.284 59.0723 297.084 67.4723C293.35 77.339 291.617 83.2056 291.617 86.0056C291.617 90.2723 287.35 100.272 286.284 98.539C285.617 97.4723 284.95 97.8723 284.284 99.8723C283.884 101.339 282.95 102.672 282.284 102.672C281.617 102.672 276.817 94.139 271.75 83.739C263.617 67.6056 262.284 63.8723 262.15 57.4723C262.017 51.739 261.75 50.939 261.084 54.0056C260.684 56.139 259.617 57.8723 258.95 57.6056C258.15 57.4723 254.284 54.139 250.15 50.2723C241.617 42.139 234.284 36.6723 234.284 38.4056C234.284 39.0723 235.75 40.4056 237.617 41.339C239.484 42.4056 243.617 46.139 246.684 49.739C260.55 66.139 269.75 83.339 278.684 110.006C284.55 127.472 284.95 133.606 282.15 154.006C280.284 167.872 280.15 225.606 282.017 232.672C282.817 235.606 283.884 242.539 284.284 248.006L285.084 258.006L282.017 252.139C278.017 244.539 272.95 240.672 268.417 241.872C266.55 242.272 264.95 243.606 264.95 244.539C264.95 246.139 262.284 248.006 260.15 248.006C259.884 248.006 259.484 246.406 259.484 244.272C259.217 241.072 259.217 241.072 258.684 243.739C258.284 245.472 258.55 247.472 259.217 248.406C259.884 249.339 261.884 254.272 263.617 259.606C265.35 264.939 267.217 268.939 267.75 268.539C268.417 268.139 271.084 269.072 273.75 270.406C278.15 272.672 278.817 273.872 283.617 288.406C289.884 307.472 291.484 316.006 288.55 316.006C286.684 316.006 281.75 306.139 276.284 291.739C275.084 288.272 273.617 285.472 273.084 285.606C270.417 285.872 268.95 284.806 265.884 280.272C264.15 277.472 262.284 274.006 261.75 272.539C261.35 271.206 261.217 271.739 261.484 273.739C261.884 276.672 261.217 277.739 258.95 278.672C257.217 279.339 255.484 280.406 255.084 281.206C254.55 282.006 253.35 282.272 252.284 281.739C249.217 280.672 249.884 282.139 255.617 290.406C263.484 301.739 264.417 302.672 267.084 302.672C270.417 302.672 272.15 304.006 274.15 307.739C276.017 311.206 274.817 313.739 272.95 310.672C271.884 308.939 271.617 309.072 271.617 310.939C271.617 312.272 272.284 313.339 272.95 313.339C273.75 313.339 274.284 314.139 274.284 315.206C274.284 316.139 275.217 317.739 276.284 318.672C277.484 319.606 278.017 321.472 277.484 323.206C276.95 325.339 277.75 326.406 280.95 327.739C286.417 330.272 288.55 334.139 285.084 335.872C283.35 336.939 280.15 336.539 273.484 334.539C250.817 327.739 245.217 326.672 256.284 331.206C260.684 333.072 265.217 334.539 266.417 334.539C267.617 334.672 269.617 335.872 270.817 337.206C273.084 339.739 273.084 339.872 268.417 340.672C265.75 341.206 261.617 341.339 259.217 340.806C256.95 340.406 252.817 339.739 250.284 339.472C247.75 339.206 247.217 339.339 249.35 339.606C251.35 339.872 252.95 340.672 252.95 341.339C252.95 342.006 254.284 342.939 256.017 343.472C258.817 344.406 258.817 344.406 256.284 345.472C251.084 347.472 227.084 346.672 214.817 344.139C185.617 338.006 178.684 337.739 144.284 341.339C116.55 344.139 111.35 344.406 99.3502 342.806C81.0836 340.406 71.8836 336.672 61.7502 327.472C54.8169 320.939 53.3502 322.406 60.0169 329.472C69.6169 339.872 80.8169 344.539 101.617 346.672C116.284 348.139 119.884 348.006 154.284 343.872C175.617 341.339 207.617 343.872 212.684 348.406C214.417 350.006 218.284 350.672 226.284 350.939C236.284 351.339 237.617 351.606 237.217 353.606C236.684 356.539 235.884 356.672 246.95 352.539C264.417 346.006 275.617 343.606 283.35 344.806C286.417 345.206 288.95 346.139 288.95 346.672C288.95 347.206 291.484 347.472 294.684 347.339C298.817 347.072 300.95 347.606 302.817 349.739L305.35 352.406L306.417 349.472C307.084 348.006 308.55 346.672 309.75 346.672C311.75 346.672 311.884 348.272 311.084 361.606C310.15 376.406 307.617 392.939 304.817 403.339C304.017 406.272 303.084 410.006 302.684 411.739C302.284 413.339 301.484 415.072 300.817 415.472C300.15 415.872 299.617 417.072 299.617 418.139C299.617 420.006 294.95 430.806 288.817 443.072C287.484 446.006 286.284 449.339 286.284 450.672C286.284 452.139 285.75 453.606 284.95 454.006C284.284 454.406 283.617 456.139 283.617 457.739C283.75 459.606 284.95 457.872 286.817 453.339C288.417 449.339 291.75 441.739 294.15 436.672C299.217 425.739 303.484 416.406 305.084 412.672C306.95 408.006 311.35 391.606 312.15 385.739C313.084 379.339 315.35 372.672 316.284 373.606C316.684 374.006 318.95 382.139 321.484 391.872C323.884 401.472 326.284 409.872 326.817 410.406C327.35 410.939 327.484 409.872 327.084 408.006C322.684 388.272 319.617 366.939 319.617 355.072C319.617 342.006 321.084 337.072 322.684 344.939C326.017 361.472 328.15 370.406 329.084 372.272C329.75 373.606 330.284 375.872 330.284 377.206C330.284 378.672 330.817 380.139 331.484 380.539C332.15 381.072 331.884 377.872 330.817 373.739C328.284 362.806 328.417 360.939 331.617 361.739C333.884 362.272 333.884 361.872 330.684 357.739C326.284 352.139 325.484 341.872 329.35 342.139C330.55 342.272 331.617 341.739 331.617 341.072C331.617 339.472 336.15 340.006 352.95 343.872C376.95 349.339 407.884 352.806 458.55 355.606C475.75 356.539 491.35 354.672 500.284 350.672C513.884 344.539 522.15 342.406 529.617 343.339C533.884 343.872 536.95 343.739 536.95 343.072C536.95 340.139 533.217 338.672 526.017 338.672C520.15 338.672 515.884 339.739 506.684 343.872C489.35 351.472 483.217 352.539 464.417 351.472C418.95 348.939 391.084 346.672 374.95 344.006C349.75 340.006 350.284 340.139 353.35 337.472C354.417 336.672 357.884 335.472 361.084 334.806C382.817 330.272 472.284 303.739 486.95 297.472C488.417 296.806 491.75 295.606 494.284 294.672C496.817 293.739 500.817 292.272 502.95 291.339C505.217 290.272 511.75 287.872 517.617 286.006C523.35 284.006 532.817 280.006 538.55 277.206C547.75 272.539 549.617 270.939 553.884 264.272C556.417 260.139 559.884 255.339 561.35 253.606C562.817 252.006 563.617 250.672 563.217 250.672C561.617 250.672 553.617 259.206 551.75 262.939C550.684 264.939 548.684 267.872 547.35 269.339C544.817 272.139 532.817 278.672 530.284 278.672C529.484 278.672 526.017 279.872 522.55 281.472C519.084 283.072 514.95 284.806 513.35 285.472C511.617 286.139 508.817 287.339 507.084 288.139C503.484 289.872 498.95 288.806 500.284 286.672C500.684 286.006 504.817 282.939 509.484 279.872C514.95 276.272 517.75 273.606 517.35 272.406C516.95 271.472 519.35 267.872 522.817 264.406C526.284 261.072 528.817 258.006 528.417 257.739C528.15 257.472 527.084 258.006 526.15 258.939C525.084 260.006 522.15 262.272 519.617 264.006C517.084 265.872 509.75 272.139 503.484 278.006C497.217 283.872 490.284 289.606 488.15 290.672C486.017 291.739 484.017 292.939 483.617 293.472C480.684 296.672 441.75 310.672 438.684 309.739C437.884 309.472 437.617 308.006 438.017 306.406C438.55 304.272 437.617 304.672 433.75 308.539C430.95 311.206 427.484 313.339 426.017 313.339C423.35 313.339 423.35 313.206 425.75 309.606C427.75 306.406 427.35 306.672 422.684 310.939C415.217 317.606 414.55 317.872 394.15 323.072C354.017 333.339 342.284 335.339 340.284 332.006C339.75 331.206 338.284 331.206 336.017 332.139C331.884 333.739 328.95 332.806 328.95 330.139C328.95 327.606 346.95 300.406 351.484 296.006C353.484 294.139 358.684 288.406 363.217 283.206C370.95 274.539 371.484 273.472 370.684 268.939C369.617 262.272 366.284 259.472 360.284 260.406C357.75 260.806 354.817 262.006 353.884 262.939C347.217 269.739 342.55 282.139 344.95 286.539C347.084 290.672 346.55 293.872 343.35 296.006C338.15 299.472 336.417 299.739 332.817 297.739C329.75 295.872 328.817 295.872 325.484 297.472C322.284 299.072 321.617 300.272 321.617 304.006C321.617 306.939 320.017 311.072 317.617 314.939C312.817 322.672 310.284 324.006 310.284 318.939C310.284 315.606 310.95 312.672 314.15 300.939C314.817 298.672 318.017 290.939 321.217 284.006C328.817 268.139 329.75 265.072 327.217 266.139C325.75 266.672 325.217 264.939 324.684 258.139C323.75 247.472 321.084 242.672 315.75 242.672C312.817 242.672 311.617 243.606 310.284 246.672C307.884 252.406 309.35 267.606 312.817 273.472L315.617 278.139L311.217 285.339C308.95 289.206 306.417 292.539 305.617 292.539C304.817 292.672 304.017 284.806 303.617 272.672L302.817 252.672L302.55 269.339C302.417 278.539 301.75 286.806 301.084 287.872C299.75 290.006 297.217 282.806 293.084 265.339C288.417 245.606 287.617 238.672 287.484 218.139C287.484 206.539 286.95 199.072 286.417 200.672C284.417 205.472 283.217 191.606 284.15 174.939C285.35 155.872 291.084 101.872 292.95 92.6723C293.75 88.939 294.684 83.739 295.217 80.939C295.617 78.139 296.55 75.6056 297.084 75.2056C297.75 74.8056 298.284 73.6056 298.284 72.4056C298.284 71.2056 300.684 65.339 303.484 59.4723C307.084 51.8723 310.95 46.539 316.017 41.6056C320.15 37.8723 323.75 34.6723 324.284 34.6723C324.817 34.6723 326.817 33.6056 328.684 32.139C330.684 30.8056 334.15 29.339 336.284 28.939C338.55 28.539 342.55 27.6056 345.35 26.939C349.084 25.8723 350.55 26.0056 351.35 27.339C352.017 28.6723 353.75 27.2056 357.35 22.4056C362.55 15.2056 363.084 12.539 358.284 17.0723C354.95 20.139 346.284 24.539 338.95 26.8056C327.217 30.4056 321.217 34.0056 312.55 42.4056C305.217 49.739 303.35 50.939 302.284 49.339C301.617 48.2723 300.95 46.539 300.95 45.6056C300.95 42.2723 295.617 33.4723 288.684 25.0723C284.817 20.539 278.95 13.0723 275.617 8.67231C268.95 -0.127693 264.284 -1.99436 258.684 2.00564ZM287.484 266.806C289.084 271.472 289.484 278.672 288.15 278.672C285.884 278.672 283.75 273.472 283.617 268.272C283.617 261.606 285.484 260.939 287.484 266.806ZM326.817 310.539C327.617 311.872 321.35 318.139 320.15 317.072C319.217 316.006 323.484 309.339 325.084 309.339C325.617 309.339 326.417 309.872 326.817 310.539ZM288.017 342.272C287.084 342.539 285.217 342.539 284.017 342.272C282.684 341.872 283.484 341.606 285.617 341.606C287.884 341.606 288.817 341.872 288.017 342.272Z" fill="#FFFCF4"></path><path d="M399.484 6.80572C398.15 7.60572 398.684 8.00572 401.217 8.00572C405.35 8.00572 412.15 13.3391 414.95 18.6724C419.35 27.2057 420.95 34.4057 420.95 46.1391C420.95 62.4057 416.284 76.6724 404.284 97.339C396.017 111.606 394.684 118.672 401.75 112.272C403.084 110.939 405.75 108.806 407.617 107.472C410.817 105.072 410.817 105.072 408.017 105.739C406.284 106.139 404.95 105.872 404.95 105.206C404.95 104.539 408.15 97.2057 412.15 88.939C422.55 67.339 424.284 61.339 424.284 47.339C424.284 37.8724 423.617 33.6057 421.084 26.8057C416.15 13.8724 404.817 3.33905 399.484 6.80572Z" fill="#FFFCF4"></path><path d="M244.284 14.1382C240.284 18.2715 236.017 23.4715 234.817 25.7382L232.817 30.0049L235.617 26.6715C237.217 24.8049 242.15 19.6049 246.684 14.9382C251.084 10.4049 254.15 6.67155 253.35 6.67155C252.417 6.67155 248.417 10.0049 244.284 14.1382Z" fill="#FFFCF4"></path><path d="M394.284 9.3384C393.217 10.0051 392.684 10.9384 393.084 11.3384C393.617 11.7384 394.684 11.2051 395.617 10.0051C397.484 7.7384 397.084 7.47174 394.284 9.3384Z" fill="#FFFCF4"></path><path d="M368.684 10.2717C369.484 10.5383 371.084 10.5383 372.017 10.2717C372.817 9.87168 372.15 9.60501 370.284 9.60501C368.417 9.60501 367.75 9.87168 368.684 10.2717Z" fill="#FFFCF4"></path><path d="M389.617 14.6715C389.217 15.3382 389.484 16.0049 390.15 16.0049C390.95 16.0049 391.617 15.3382 391.617 14.6715C391.617 13.8715 391.35 13.3382 391.084 13.3382C390.684 13.3382 390.017 13.8715 389.617 14.6715Z" fill="#FFFCF4"></path><path d="M148.417 28.0054C132.817 35.7387 126.417 50.5387 126.284 78.4054C126.284 106.272 129.884 129.605 136.95 146.672C142.817 160.539 154.284 183.872 160.55 194.272C166.684 204.405 167.35 206.672 164.417 206.672C163.484 206.672 160.817 207.072 158.684 207.472C155.217 208.139 153.484 207.205 144.817 199.739C129.617 186.539 124.817 183.205 114.817 178.272C90.817 166.139 71.0836 164.005 53.4836 171.339C46.2836 174.272 48.9503 175.339 58.5503 173.205C70.417 170.672 88.017 170.939 96.9503 174.005C109.884 178.272 125.884 187.072 133.617 194.272C135.084 195.605 138.417 198.405 140.95 200.539C143.484 202.672 154.417 212.939 165.084 223.339C175.884 233.872 187.484 244.005 191.084 246.139C198.55 250.539 199.217 251.072 203.617 257.339C214.15 272.272 243.484 302.805 255.217 310.805C258.284 312.939 261.617 315.872 262.684 317.339C264.417 319.739 264.817 319.872 266.284 318.005C268.55 315.339 266.95 313.605 254.284 304.272C241.884 295.205 219.617 272.805 211.617 261.605C208.284 256.939 204.284 251.605 202.817 249.739C197.084 242.939 180.95 209.605 175.617 193.339C169.75 175.739 168.817 171.872 165.617 152.672C164.55 146.005 163.084 138.139 162.284 134.939C161.617 131.872 160.95 122.005 160.95 113.072C160.95 96.272 162.417 89.6054 169.217 74.672C170.684 71.3387 172.417 67.472 172.95 66.0054C173.484 64.5387 175.084 60.9387 176.417 58.0054C177.884 54.8054 179.084 48.4054 179.35 42.272C179.884 33.072 180.284 31.7387 183.35 29.3387C185.617 27.472 187.217 27.072 188.15 28.0054C188.817 28.672 190.017 29.3387 190.684 29.3387C191.35 29.3387 190.95 28.4054 189.75 27.3387C187.217 24.672 181.75 24.8054 179.484 27.472C178.55 28.672 177.35 35.072 176.95 42.4054C176.15 53.3387 175.35 56.8054 171.484 64.672C166.817 74.272 164.284 76.5387 163.084 72.4054C162.684 71.072 162.684 72.1387 163.084 74.8054C163.884 81.7387 162.284 88.272 159.35 88.9387C156.55 89.7387 156.15 92.0054 158.55 94.4054C159.75 95.6054 159.617 97.6054 158.284 103.205C157.217 107.872 156.95 113.072 157.484 117.605C158.017 121.472 159.084 129.205 159.75 134.672C161.617 150.272 163.217 159.605 166.284 173.739C167.884 181.072 168.95 187.205 168.684 187.472C168.284 187.739 166.817 185.472 165.084 182.272L162.15 176.672L162.95 183.339C163.75 189.472 163.617 189.739 161.75 187.205C160.684 185.739 156.684 178.805 153.084 171.739C135.084 138.005 130.284 118.939 130.284 82.0054C130.284 48.1387 134.95 36.4054 151.884 28.1387C155.084 26.5387 157.084 26.5387 168.284 28.5387C170.55 28.9387 171.084 28.9387 169.617 28.5387C168.15 28.1387 166.417 27.2054 165.75 26.5387C163.484 24.5387 153.884 25.3387 148.417 28.0054ZM176.417 219.605C179.884 224.672 185.084 231.339 187.884 234.539C192.817 240.272 193.617 243.872 189.217 241.472C184.817 239.072 158.284 213.072 159.084 211.872C159.484 211.205 162.15 210.672 164.95 210.672C169.75 210.672 170.417 211.205 176.417 219.605Z" fill="#FFFCF4"></path><path d="M216.284 31.6055C218.55 31.8722 222.817 33.3388 225.884 34.8055C232.55 37.8722 232.95 37.8722 232.95 35.6055C232.95 33.8722 221.084 30.5388 215.617 30.8055C212.817 31.0722 212.95 31.2055 216.284 31.6055Z" fill="#FFFCF4"></path><path d="M195.617 41.3385C195.617 42.0052 196.284 42.6719 196.95 42.6719C197.75 42.6719 198.284 42.0052 198.284 41.3385C198.284 40.5385 197.75 40.0052 196.95 40.0052C196.284 40.0052 195.617 40.5385 195.617 41.3385Z" fill="#FFFCF4"></path><path d="M382.55 71.339C382.55 73.4723 382.817 74.2723 383.217 72.939C383.484 71.739 383.484 69.8723 383.217 68.939C382.817 68.139 382.55 69.0723 382.55 71.339Z" fill="#FFFCF4"></path><path d="M379.75 80.9383C379.75 83.2049 379.084 85.6049 378.284 86.0049C377.617 86.4049 376.95 88.4049 376.95 90.4049C377.084 93.4716 377.35 93.0716 379.084 88.2716C380.15 85.0716 380.817 81.2049 380.55 79.6049C380.15 77.6049 379.884 78.0049 379.75 80.9383Z" fill="#FFFCF4"></path><path d="M284.017 90.0049C284.017 92.9383 284.284 94.0049 284.55 92.2716C284.817 90.6716 284.817 88.2716 284.55 86.9383C284.15 85.7383 283.884 87.0716 284.017 90.0049Z" fill="#FFFCF4"></path><path d="M437.484 90.4054C437.884 91.072 439.884 92.0054 441.884 92.4054C448.55 93.872 453.884 98.272 457.35 105.205C460.95 112.672 463.617 112.405 460.417 104.939C458.417 100.005 452.55 93.7387 448.284 92.0054C443.217 90.0054 436.55 89.072 437.484 90.4054Z" fill="#FFFCF4"></path><path d="M421.484 95.3389C418.95 97.2055 418.95 97.2055 421.75 97.3389C423.35 97.3389 424.95 96.4055 425.484 95.3389C426.417 92.8055 424.817 92.8055 421.484 95.3389Z" fill="#FFFCF4"></path><path d="M374.817 96.6721C374.417 97.7388 374.284 99.3388 374.55 100.272C374.95 101.205 375.484 100.405 375.884 98.2721C376.684 94.4054 376.017 93.4721 374.817 96.6721Z" fill="#FFFCF4"></path><path d="M170.684 110.005C170.684 113.605 170.95 115.072 171.217 112.938C171.484 110.938 171.484 108.005 171.217 106.272C170.95 104.672 170.684 106.272 170.684 110.005Z" fill="#FFFCF4"></path><path d="M417.75 110.005C417.35 111.072 417.617 112.005 418.15 112.005C418.817 112.005 419.617 111.072 420.15 110.005C420.55 108.938 420.284 108.005 419.75 108.005C419.084 108.005 418.284 108.938 417.75 110.005Z" fill="#FFFCF4"></path><path d="M172.55 134.805C172.95 140.272 173.75 145.605 174.417 146.672C174.95 147.738 175.084 143.872 174.684 138.005C174.284 132.138 173.484 126.805 172.817 126.138C172.284 125.472 172.15 129.338 172.55 134.805Z" fill="#FFFCF4"></path><path d="M431.084 154.805C414.684 171.872 392.95 198.538 392.95 201.872C392.95 202.272 385.75 213.472 376.95 226.672C368.15 240.005 360.95 251.738 360.95 252.805C360.95 255.738 362.95 255.072 364.817 251.472C366.417 248.538 371.217 244.672 384.284 235.738C390.95 231.072 389.35 230.805 382.284 235.338C379.35 237.205 376.684 238.672 376.284 238.672C374.417 238.672 376.15 234.405 382.017 225.338C385.484 219.872 390.417 211.872 392.817 207.738C395.884 202.672 398.817 199.605 401.484 198.538C403.75 197.605 405.884 196.538 406.284 196.138C406.684 195.605 408.55 194.538 410.417 193.605C412.284 192.538 419.484 186.672 426.417 180.538C444.684 164.005 450.95 159.605 463.75 154.138C479.084 147.738 487.084 145.338 494.017 145.338C499.217 145.338 500.284 146.005 508.817 154.672C513.884 159.738 518.817 164.005 519.617 164.005C522.284 164.005 537.35 172.138 539.084 174.405C541.617 178.005 540.017 178.672 529.75 178.672C524.417 178.672 516.95 179.205 513.084 180.005C505.75 181.338 487.217 188.672 484.55 191.205C483.617 192.005 481.217 193.605 479.217 194.672C477.084 195.738 476.017 196.805 476.817 197.072C477.75 197.338 479.084 196.938 480.017 196.272C489.884 188.272 522.284 178.805 522.284 184.005C522.284 185.338 522.684 185.338 524.284 184.005C526.817 181.872 567.217 180.805 568.417 182.805C568.817 183.605 568.017 185.605 566.417 187.205C563.35 190.538 562.55 193.205 565.35 190.805C566.417 190.005 567.617 189.872 568.15 190.405C568.684 190.938 570.017 190.272 570.95 188.805C572.55 186.672 572.55 185.738 570.817 182.538C568.017 176.938 564.684 175.738 555.217 176.672C547.217 177.472 546.817 177.472 542.95 173.338C540.817 171.072 533.75 166.538 527.484 163.205C521.217 160.005 514.95 156.138 513.484 154.805C512.15 153.338 508.55 149.738 505.75 146.805C501.084 142.005 499.75 141.338 494.417 141.338C491.084 141.338 483.217 143.205 476.95 145.338C465.35 149.472 459.617 150.272 459.617 148.005C459.617 147.338 457.884 144.805 455.75 142.405C453.75 140.005 451.75 137.205 451.484 136.138C451.084 135.072 443.084 142.405 431.084 154.805ZM454.15 144.538C455.75 146.938 456.95 149.872 456.95 151.072C456.95 152.272 453.484 155.072 449.35 157.472C445.084 159.872 435.617 167.605 428.417 174.672C421.084 181.605 413.75 188.538 412.15 190.138C408.684 193.338 404.017 194.938 402.817 193.205C402.15 192.138 405.084 187.205 409.884 181.338C410.817 180.272 413.35 176.938 415.617 174.005C423.617 163.872 446.95 140.138 449.217 140.138C450.417 140.005 452.684 142.005 454.15 144.538Z" fill="#FFFCF4"></path><path d="M175.884 152.672C175.884 154.805 176.15 155.605 176.55 154.272C176.817 153.072 176.817 151.205 176.55 150.272C176.15 149.472 175.884 150.405 175.884 152.672Z" fill="#FFFCF4"></path><path d="M178.55 164.006C178.55 165.872 178.817 166.539 179.217 165.606C179.484 164.806 179.484 163.206 179.217 162.272C178.817 161.472 178.55 162.139 178.55 164.006Z" fill="#FFFCF4"></path><path d="M29.6169 185.472C26.0169 187.606 22.1503 189.739 21.3503 190.139C20.4169 190.672 19.6169 191.472 19.6169 192.139C19.6169 192.806 21.3503 192.139 23.4836 190.539C25.6169 189.072 28.6836 188.006 30.4169 188.272C33.4836 188.672 38.2836 185.072 38.2836 182.406C38.2836 180.672 36.6836 181.206 29.6169 185.472Z" fill="#FFFCF4"></path><path d="M302.684 192.672C302.684 195.605 302.95 196.672 303.217 194.939C303.484 193.339 303.484 190.939 303.217 189.605C302.817 188.405 302.55 189.739 302.684 192.672Z" fill="#FFFCF4"></path><path d="M515.484 192.939C513.75 195.072 513.884 195.205 516.017 193.472C517.217 192.539 518.284 191.472 518.284 191.205C518.284 190.139 517.217 190.805 515.484 192.939Z" fill="#FFFCF4"></path><path d="M14.5503 196.939C8.2836 203.339 -1.3164 232.539 0.15027 240.406C1.0836 245.472 6.15027 252.939 6.15027 249.339C6.15027 248.272 5.35027 245.872 4.2836 244.006C1.61694 239.472 1.8836 234.806 4.95027 226.406C6.41694 222.539 8.55027 215.872 9.61694 211.739C10.8169 207.606 13.2169 202.006 15.0836 199.206C19.0836 193.472 18.8169 192.406 14.5503 196.939Z" fill="#FFFCF4"></path><path d="M559.484 195.606C557.75 197.739 557.884 197.872 560.017 196.139C562.15 194.406 562.817 193.339 561.75 193.339C561.484 193.339 560.417 194.406 559.484 195.606Z" fill="#FFFCF4"></path><path d="M554.284 200.672C553.35 201.739 553.084 202.672 553.484 202.672C554.017 202.672 555.35 201.739 556.417 200.672C557.617 199.605 557.884 198.672 557.217 198.672C556.55 198.672 555.217 199.605 554.284 200.672Z" fill="#FFFCF4"></path><path d="M25.2169 204.272C25.0835 207.072 24.4169 209.339 23.6169 209.339C22.9502 209.339 22.2835 210.406 22.2835 211.872C22.2835 214.539 20.1502 219.872 14.5502 232.006C8.15019 246.006 10.4169 270.006 20.0169 289.206C23.4835 296.272 32.6835 305.872 36.6835 306.939C41.0835 308.139 40.2835 306.539 32.9502 299.339C26.0169 292.539 20.8169 283.872 23.2169 283.072C24.0169 282.806 22.9502 280.939 20.9502 278.939C14.1502 272.006 10.5502 247.472 15.4835 241.206C16.8169 239.472 17.6169 237.339 17.3502 236.539C17.0835 235.606 18.2835 231.206 20.2835 226.539C22.1502 222.006 23.6169 216.672 23.6169 214.672C23.6169 212.806 24.2835 210.539 25.0835 209.739C25.8835 208.939 26.2835 206.272 25.8835 203.872L25.3502 199.339L25.2169 204.272Z" fill="#FFFCF4"></path><path d="M564.15 202.272C563.75 203.605 562.817 205.872 562.017 207.472C561.35 209.072 560.95 211.739 561.217 213.472C561.75 216.005 562.15 215.339 563.484 210.272C565.484 203.339 566.417 202.272 569.484 203.472C571.884 204.405 572.55 212.672 570.284 214.005C569.617 214.405 568.95 216.005 568.95 217.472C568.95 220.005 559.884 229.739 549.084 238.539C546.017 240.939 543.617 243.872 543.617 244.939C543.617 246.272 545.884 245.072 550.017 241.605C558.817 234.405 563.217 231.605 564.95 232.672C566.684 233.739 566.684 243.605 564.95 244.672C564.284 245.072 563.617 246.539 563.617 247.739C563.617 249.472 564.15 249.205 565.75 246.939C567.884 243.872 568.684 232.139 566.95 229.339C566.55 228.672 567.084 226.005 568.417 223.739C569.617 221.339 571.217 218.272 571.75 217.072C572.417 215.739 572.95 212.005 572.95 208.672C572.95 203.339 572.55 202.405 569.484 201.339C565.084 199.605 564.95 199.605 564.15 202.272Z" fill="#FFFCF4"></path><path d="M83.3503 210.272C84.2837 210.672 85.4837 210.539 85.8837 210.139C86.417 209.739 85.617 209.339 84.1503 209.472C82.6837 209.472 82.2837 209.872 83.3503 210.272Z" fill="#FFFCF4"></path><path d="M242.417 230.138C242.417 231.605 242.817 232.005 243.217 230.938C243.617 230.005 243.484 228.805 243.084 228.405C242.684 227.872 242.284 228.672 242.417 230.138Z" fill="#FFFCF4"></path><path d="M255.75 236.805C255.75 238.272 256.15 238.672 256.55 237.605C256.95 236.672 256.817 235.472 256.417 235.072C256.017 234.539 255.617 235.339 255.75 236.805Z" fill="#FFFCF4"></path><path d="M247.75 243.472C247.75 244.939 248.15 245.339 248.55 244.272C248.95 243.339 248.817 242.139 248.417 241.739C248.017 241.206 247.617 242.006 247.75 243.472Z" fill="#FFFCF4"></path><path d="M28.6836 243.606C29.4836 243.872 31.0836 243.872 32.0169 243.606C32.8169 243.206 32.1503 242.939 30.2836 242.939C28.4169 242.939 27.7503 243.206 28.6836 243.606Z" fill="#FFFCF4"></path><path d="M36.6836 246.272C37.6169 246.672 38.8169 246.539 39.2169 246.139C39.7502 245.739 38.9502 245.339 37.4836 245.472C36.0169 245.472 35.6169 245.872 36.6836 246.272Z" fill="#FFFCF4"></path><path d="M250.55 249.339C250.55 251.205 250.817 251.872 251.217 250.939C251.484 250.139 251.484 248.539 251.217 247.605C250.817 246.805 250.55 247.472 250.55 249.339Z" fill="#FFFCF4"></path><path d="M43.3504 248.939C44.1504 249.205 45.7504 249.205 46.6837 248.939C47.4837 248.539 46.817 248.272 44.9504 248.272C43.0837 248.272 42.417 248.539 43.3504 248.939Z" fill="#FFFCF4"></path><path d="M50.6837 251.606C51.8837 251.872 53.7504 251.872 54.6837 251.606C55.4837 251.206 54.5504 250.939 52.2837 250.939C50.1504 250.939 49.3504 251.206 50.6837 251.606Z" fill="#FFFCF4"></path><path d="M58.017 254.272C58.817 254.538 60.417 254.538 61.3503 254.272C62.1503 253.872 61.4837 253.605 59.617 253.605C57.7503 253.605 57.0837 253.872 58.017 254.272Z" fill="#FFFCF4"></path><path d="M253.084 255.472C253.084 256.939 253.484 257.339 253.884 256.272C254.284 255.339 254.15 254.139 253.75 253.739C253.35 253.206 252.95 254.006 253.084 255.472Z" fill="#FFFCF4"></path><path d="M66.017 256.939C66.817 257.205 68.417 257.205 69.3503 256.939C70.1503 256.539 69.4837 256.272 67.617 256.272C65.7503 256.272 65.0837 256.539 66.017 256.939Z" fill="#FFFCF4"></path><path d="M72.6836 259.606C73.4836 259.872 75.0836 259.872 76.0169 259.606C76.8169 259.206 76.1503 258.939 74.2836 258.939C72.4169 258.939 71.7503 259.206 72.6836 259.606Z" fill="#FFFCF4"></path><path d="M258.417 267.472C258.417 268.939 258.817 269.339 259.217 268.272C259.617 267.339 259.484 266.139 259.084 265.739C258.684 265.206 258.284 266.006 258.417 267.472Z" fill="#FFFCF4"></path><path d="M158.017 290.272C158.95 290.672 160.15 290.539 160.55 290.139C161.084 289.739 160.284 289.339 158.817 289.472C157.35 289.472 156.95 289.872 158.017 290.272Z" fill="#FFFCF4"></path><path d="M163.35 292.939C164.15 293.205 165.75 293.205 166.684 292.939C167.484 292.539 166.817 292.272 164.95 292.272C163.084 292.272 162.417 292.539 163.35 292.939Z" fill="#FFFCF4"></path><path d="M276.95 346.672C275.35 347.738 275.484 348.005 277.884 348.005C279.484 348.005 281.217 347.338 281.617 346.672C282.684 344.938 279.617 344.938 276.95 346.672Z" fill="#FFFCF4"></path><path d="M526.284 346.672C524.817 347.605 525.617 348.005 529.35 348.005C532.017 348.005 534.284 347.338 534.284 346.672C534.284 344.938 528.95 344.938 526.284 346.672Z" fill="#FFFCF4"></path><path d="M294.55 353.339C294.55 355.205 294.817 355.872 295.217 354.939C295.484 354.139 295.484 352.539 295.217 351.605C294.817 350.805 294.55 351.472 294.55 353.339Z" fill="#FFFCF4"></path><path d="M195.35 355.606C196.15 355.872 197.75 355.872 198.684 355.606C199.484 355.206 198.817 354.939 196.95 354.939C195.084 354.939 194.417 355.206 195.35 355.606Z" fill="#FFFCF4"></path><path d="M540.95 356.006C540.95 356.672 541.617 357.339 542.284 357.339C543.084 357.339 543.617 356.672 543.617 356.006C543.617 355.206 543.084 354.672 542.284 354.672C541.617 354.672 540.95 355.206 540.95 356.006Z" fill="#FFFCF4"></path><path d="M188.684 358.272C189.617 358.672 190.817 358.539 191.217 358.139C191.75 357.739 190.95 357.339 189.484 357.472C188.017 357.472 187.617 357.872 188.684 358.272Z" fill="#FFFCF4"></path><path d="M254.017 358.272C254.95 358.672 256.15 358.539 256.55 358.139C257.084 357.739 256.284 357.339 254.817 357.472C253.35 357.472 252.95 357.872 254.017 358.272Z" fill="#FFFCF4"></path><path d="M302.55 360.006C302.55 361.872 302.817 362.539 303.217 361.606C303.484 360.806 303.484 359.206 303.217 358.272C302.817 357.472 302.55 358.139 302.55 360.006Z" fill="#FFFCF4"></path><path d="M176.95 361.872C164.417 367.072 155.484 372.005 140.95 381.739C128.817 389.872 117.75 397.872 115.617 400.005C115.217 400.405 110.817 404.139 105.617 408.272C94.9503 416.805 89.4836 422.272 90.5503 423.339C90.9503 423.739 96.017 420.405 101.75 415.739C137.484 386.939 149.617 378.405 171.617 366.939C179.35 362.939 185.884 359.472 186.15 359.205C187.484 357.872 183.75 359.072 176.95 361.872Z" fill="#FFFCF4"></path><path d="M530.15 366.806C527.083 369.339 527.083 369.473 529.883 368.139C531.483 367.339 533.217 366.006 533.617 365.339C534.95 363.206 533.483 363.739 530.15 366.806Z" fill="#FFFCF4"></path><path d="M425.217 368.139C426.55 368.805 430.817 369.739 434.55 370.005L441.617 370.672L433.617 368.805C424.017 366.405 422.15 366.272 425.217 368.139Z" fill="#FFFCF4"></path><path d="M517.217 371.339C517.084 375.339 518.417 377.872 523.35 383.205C526.684 386.939 527.617 389.072 527.617 393.472C527.617 399.339 525.35 403.472 516.95 412.405C510.95 419.072 509.617 421.739 507.75 430.805C506.15 438.272 503.484 442.005 497.35 445.205C495.617 446.005 494.284 448.005 494.284 449.339C494.284 451.872 494.417 451.872 497.084 449.605C506.95 441.605 509.35 437.872 510.817 427.872C511.617 422.805 513.35 419.872 520.284 411.872C531.884 398.539 533.617 390.672 526.284 384.005C523.084 381.072 518.684 374.405 517.884 371.339L517.217 368.672V371.339Z" fill="#FFFCF4"></path><path d="M333.084 384.805C333.084 386.272 333.484 386.672 333.884 385.605C334.284 384.672 334.15 383.472 333.75 383.072C333.35 382.539 332.95 383.339 333.084 384.805Z" fill="#FFFCF4"></path><path d="M335.75 390.138C335.75 391.605 336.15 392.005 336.55 390.938C336.95 390.005 336.817 388.805 336.417 388.405C336.017 387.872 335.617 388.672 335.75 390.138Z" fill="#FFFCF4"></path><path d="M209.084 400.805C209.084 402.272 209.484 402.672 209.884 401.605C210.284 400.672 210.15 399.472 209.75 399.072C209.35 398.539 208.95 399.339 209.084 400.805Z" fill="#FFFCF4"></path><path d="M499.484 404.938C499.084 411.072 498.284 414.805 496.95 417.205C496.15 418.805 496.017 420.005 496.684 420.005C497.35 420.005 498.55 417.738 499.35 414.938C501.884 406.272 502.417 402.672 500.95 402.672C500.284 402.672 499.484 403.738 499.484 404.938Z" fill="#FFFCF4"></path><path d="M327.75 416.805C327.75 418.272 328.15 418.672 328.55 417.605C328.95 416.672 328.817 415.472 328.417 415.072C328.017 414.539 327.617 415.339 327.75 416.805Z" fill="#FFFCF4"></path><path d="M253.217 422.672C253.217 424.538 253.484 425.205 253.884 424.272C254.15 423.472 254.15 421.872 253.884 420.938C253.484 420.138 253.217 420.805 253.217 422.672Z" fill="#FFFCF4"></path><path d="M346.417 442.138C346.417 443.605 346.817 444.005 347.217 442.938C347.617 442.005 347.484 440.805 347.084 440.405C346.684 439.872 346.284 440.672 346.417 442.138Z" fill="#FFFCF4"></path><path d="M74.5503 448.405C74.417 451.872 74.817 455.739 75.4837 457.072C80.2837 466.539 81.8837 472.805 84.1503 492.939C86.5503 512.405 89.3503 521.472 97.3503 534.939C106.55 550.272 114.55 556.672 122.284 554.672C125.35 553.872 125.217 553.739 120.55 552.805C115.217 551.739 109.617 547.472 110.95 545.339C111.484 544.539 110.55 544.005 109.084 544.005C106.817 544.005 100.95 537.872 100.95 535.339C100.95 534.805 99.7503 532.672 98.1503 530.539C96.6837 528.405 94.017 523.072 92.2837 518.805C89.4837 511.472 88.417 506.672 84.817 482.005C84.017 476.805 82.817 471.472 82.2837 470.005C81.7503 468.539 80.5503 465.205 79.617 462.672C78.6837 460.139 77.4837 456.805 76.817 455.339C76.1503 453.872 75.4837 450.272 75.217 447.339C74.6837 442.139 74.6837 442.139 74.5503 448.405Z" fill="#FFFCF4"></path><path d="M336.017 446.273C336.417 446.939 337.884 450.139 339.35 453.473C343.217 461.873 353.35 472.806 360.817 476.539C374.017 483.073 383.217 483.739 412.95 480.139C450.817 475.739 465.617 472.806 476.284 468.006C484.017 464.539 492.95 457.606 492.95 454.939C492.95 454.273 490.95 455.606 488.417 458.006C478.684 467.073 469.35 469.606 426.284 474.673C419.35 475.606 410.684 476.806 407.217 477.473C398.15 479.206 377.617 478.939 371.084 477.073C368.15 476.139 363.484 474.139 360.817 472.539C356.284 469.739 346.55 458.006 341.35 449.206C340.017 447.073 338.284 445.339 337.217 445.339C336.284 445.339 335.75 445.739 336.017 446.273Z" fill="#FFFCF4"></path><path d="M474.284 446.272C473.217 446.672 471.084 448.139 469.617 449.339C468.15 450.672 462.284 454.272 456.55 457.339C448.684 461.606 445.084 462.806 441.617 462.406C439.217 462.139 437.217 462.539 437.35 463.206C437.884 466.139 421.75 466.806 414.95 464.006C407.75 461.206 400.284 460.006 385.617 459.739C370.684 459.339 369.217 459.072 362.95 455.472C358.684 452.939 356.95 452.406 358.15 453.872C362.817 459.472 370.417 461.739 388.284 462.806C399.617 463.472 408.684 464.806 414.284 466.539C424.017 469.606 431.217 470.006 438.15 467.872C460.95 460.672 472.417 454.806 476.684 448.272C478.55 445.339 478.017 444.939 474.284 446.272Z" fill="#FFFCF4"></path><path d="M281.484 463.205C281.084 464.272 280.95 466.272 281.217 467.605C281.617 469.072 282.017 468.405 282.417 465.605C283.217 461.072 282.684 460.005 281.484 463.205Z" fill="#FFFCF4"></path><path d="M253.084 478.138C253.084 479.605 253.484 480.005 253.884 478.938C254.284 478.005 254.15 476.805 253.75 476.405C253.35 475.872 252.95 476.672 253.084 478.138Z" fill="#FFFCF4"></path><path d="M280.684 480.005C280.284 481.072 279.484 485.739 279.084 490.139C278.15 500.139 274.017 512.005 269.35 517.472C266.284 521.072 265.35 521.472 261.084 520.672L256.284 519.739L259.884 522.539C264.284 526.139 265.484 526.005 268.95 522.272C276.284 514.672 282.55 496.805 282.017 485.739C281.75 481.472 281.217 478.939 280.684 480.005Z" fill="#FFFCF4"></path><path d="M249.35 483.472C248.417 484.405 247.617 486.005 247.617 486.939C247.617 487.872 248.55 487.205 249.75 485.605C252.15 482.139 251.884 480.672 249.35 483.472Z" fill="#FFFCF4"></path><path d="M246.95 524.005C235.484 534.005 221.884 539.872 196.284 546.138C186.017 548.538 179.084 549.338 165.617 549.472C151.217 549.605 149.217 549.872 154.284 550.938C164.95 553.205 189.484 551.472 204.15 547.472C230.417 540.272 240.95 535.472 250.15 526.405C259.217 517.338 256.817 515.472 246.95 524.005Z" fill="#FFFCF4"></path></svg> 