<?xml version="1.0" encoding="UTF-8"?> <svg xmlns="http://www.w3.org/2000/svg" width="402" height="564" viewBox="0 0 402 564" fill="none"><path d="M206.116 19.6803C204.244 20.9319 202.49 22.7966 201.462 24.6111C200.573 26.2416 199.771 27.6156 199.698 27.7405C199.566 27.8586 198.345 27.4525 196.848 26.8148C193.094 25.3195 188.233 25.8294 179.569 28.8357C173.522 30.9422 171.257 31.3492 166.383 31.3914C157.178 31.471 149.77 33.9548 146.532 37.9815C145.704 39.0194 143.255 41.8039 141.149 44.1614C134.033 52.0084 134.119 51.7517 132.362 68.8729L130.895 83.762L130.271 79.2935C129.92 76.8549 129.598 73.5535 129.522 71.9459C129.489 69.3437 129.338 69.0599 127.891 69.0944L126.326 69.1152L125.609 76.6948C125.183 80.8434 124.806 86.863 124.719 90.0511C124.631 93.8385 124.422 95.8799 124.065 95.8391C123.709 95.7983 122.81 93.4303 122.017 90.6081C121.232 87.72 120.431 85.5631 120.239 85.6744C120.041 85.8516 120.347 87.5522 120.818 89.4049C121.618 92.1613 121.62 93.8938 120.981 98.9507C120.435 103.685 120.424 105.549 121.009 106.882C121.456 107.799 122.116 110.74 122.565 113.389C123.015 116.039 123.873 118.802 124.459 119.536C125.901 121.299 125.681 122.274 124.131 121.563C123.379 121.277 120.416 120.272 117.5 119.406C112.775 117.999 111.884 117.897 108.581 118.452C106.619 118.827 104.049 119.266 102.894 119.4C98.7386 120.058 94.401 125.424 93.8673 130.627C93.624 132.997 93.8724 134.092 95.1686 136.105C98.4778 141.347 106.32 145.176 110.167 143.418C110.921 143.104 113.159 142.96 115.18 143.191C118.21 143.538 119.357 144.069 122.534 146.498C127.043 150.012 131.674 151.741 140.822 153.387C147.489 154.616 147.726 154.643 151.058 153.225C152.941 152.441 156.571 150.458 159.084 148.813C167.589 143.257 168.679 143.182 177.821 147.226L183.573 149.749L185.959 148.756C189.978 147.084 189.102 146.251 182.724 145.721C179.621 145.5 175.423 144.819 173.437 144.259C168.831 142.866 164.294 143.147 158.439 145.142C148.857 148.31 146.842 148.612 141.721 147.56C132.824 145.809 129.459 144.625 126.044 142.169C120.56 138.21 119.636 137.838 111.781 136.473C103.986 135.115 102.212 134.246 100.806 130.954C100.169 129.549 100.434 129.312 103.043 129.078C110.677 128.486 112.876 128.737 118.417 130.97C122.573 132.645 124.975 133.252 128.145 133.415C130.898 133.53 133.195 133.993 134.909 134.855C138.28 136.573 144.722 137.643 149.86 137.365C153.003 137.191 154.667 137.382 156.567 138.199C160.762 140.078 164.65 137.924 165.102 133.512L165.305 131.537L155.442 130.408L145.521 129.273L145.175 127.368C144.835 125.997 143.748 124.873 140.715 122.794C136.839 120.152 136.628 119.862 133.323 112.821L129.926 105.504L130.365 95.9601C130.601 90.7239 130.935 86.2983 131.127 86.187C131.266 86.003 132.295 86.5205 133.363 87.2423C134.431 87.964 136.978 88.9216 139.03 89.4229L142.785 90.3188L144.084 94.065L145.442 97.8181L143.4 101.315C142.299 103.255 140.795 105.614 140.04 106.527C138.649 108.367 138.55 111.087 139.856 111.836C140.252 112.081 141.407 111.947 142.465 111.602C143.839 111.093 145.078 109.569 147.908 104.829C152.197 97.5915 156.4 93.5418 162.19 91.0062C166.526 89.1704 168.93 89.1789 173.614 90.9805C176.391 92.0311 177.22 93.3252 175.759 94.0907C173.214 95.4652 169.708 106.79 168.574 117.253C167.986 122.982 168.684 129.658 170.259 133.636C171.848 137.482 176.878 141.188 181.274 141.691C183.175 141.909 185.082 142.66 186.816 143.924C193.579 148.895 193.408 148.809 194.857 147.575C197.668 145.365 196.477 143.497 191.79 142.894C190.662 142.765 188.716 141.81 187.49 140.87C185.545 139.315 185.296 138.82 185.656 137.063C185.951 135.364 185.708 134.803 184.166 133.428C183.111 132.574 181.872 131.766 181.397 131.712C179.674 131.515 175.624 126.454 174.674 123.414C172.052 114.986 173.253 106.796 177.903 100.732C179.36 98.8332 181.692 95.4357 183.064 93.1942C186.736 87.285 187.2 86.8716 191.884 85.7419C197.685 84.2735 201.89 81.9563 206.674 77.5068C209.195 75.1969 211.259 73.834 212.031 73.9223C215.18 74.2826 218.38 78.2463 221.585 85.675C222.708 88.2019 224.083 90.6244 224.689 91.1601C225.295 91.6958 226.374 93.4848 227.037 95.2262L228.284 98.3003L226.502 101.028C223.632 105.563 220.657 112.884 219.853 117.789C219.418 120.271 218.725 122.924 218.287 123.673C217.319 125.494 217.424 128.571 218.531 129.497C219.737 130.634 224.177 129.543 226.598 127.622C228.695 125.93 230.876 122.248 232.995 116.828C234.224 113.637 234.419 112.327 234.167 110.099C233.732 106.718 235.02 98.2713 236.589 93.5207C237.533 90.7639 238.023 90.0871 239.305 89.9006C241.445 89.5458 241.81 88.9213 242.323 83.9166C242.843 78.8461 242.343 72.5929 240.828 65.091C239.535 58.947 239.688 58.6313 245.293 53.2098L248.827 49.8165L249.748 51.3875C250.419 52.4637 250.692 54.4936 250.617 58.1493C250.505 61.0013 250.772 65.429 251.162 68.0719C252.697 78.3076 250.499 86.251 242.092 100.813C240.123 104.185 238.684 107.085 238.842 107.303C238.993 107.587 239.831 107.616 240.683 107.514C242.639 107.204 246.459 102.778 250.635 96.0601C254.32 90.0192 255.642 86.5062 257.022 78.336C257.912 73.1746 257.942 71.7123 257.345 69.9118C256.84 68.3883 256.786 65.9837 257.198 61.9668C258.117 53.0111 257.903 51.5875 254.974 47.3217C252.994 44.3636 252.514 43.1761 252.795 41.6093C253.13 39.5157 252.351 36.5618 251.401 36.453C251.104 36.419 250.169 34.9797 249.328 33.2179C248.487 31.4561 247.315 29.9896 246.781 29.9284C246.246 29.8672 244.447 30.9939 242.852 32.4771C241.258 33.9602 239.578 35.1006 239.102 35.0462C237.32 34.8423 238.211 37.8757 241.206 42.0824C242.936 44.5456 244.338 46.7046 244.324 46.8363C244.304 47.0339 243.093 48.2944 241.624 49.7253C240.154 51.1562 238.923 52.6143 238.882 53.0094C238.653 55.2483 232.334 49.4621 229.71 44.565C225.877 37.3975 224.344 35.3566 220.915 33.0324C216.867 30.3041 215.491 28.4811 213.155 22.5508C212.052 19.8263 211.025 18.11 210.319 17.9626C209.672 17.822 207.789 18.6058 206.116 19.6803ZM209.79 29.5612C211.192 31.7202 213.524 34.1855 216.424 36.3828C220.385 39.3676 221.182 40.3915 223.687 45.275C226.427 50.7851 227.013 51.5184 232.079 56.6283L234.688 59.3252L233.752 64.3481C232.875 69.3778 233.147 77.2705 234.308 80.6013C234.629 81.5708 234.529 81.9591 233.789 82.1409C232.362 82.5773 232.436 84.7843 233.978 86.1599C235.625 87.6808 235.589 89.209 233.828 91.1395L232.477 92.584L230.154 89.4534C228.785 87.5646 227.595 85.0967 227.342 83.4687C226.572 79.25 223.83 74.3393 220.694 71.5154C218.209 69.3658 217.959 68.8709 218.412 67.3903C220.613 60.58 220.275 58.6092 216.3 55.756C212.892 53.2342 209.641 53.8618 201.172 58.4893C199.195 59.5956 196.695 61.1085 195.716 61.8627C194.685 62.5441 193.6 63.1529 193.303 63.119C192.412 63.017 192.912 61.0755 194.103 60.0125C195.162 59.0676 195.05 58.9882 192.753 58.5256C189.981 58.0086 189.666 56.9733 191.763 55.2811C193.073 54.2317 194.367 54.5129 198.105 56.7394C199.009 57.3091 199.36 53.8849 198.814 50.4246C198.436 48.2494 198.576 47.466 199.65 45.7899C201.4 42.7922 203.585 37.3126 205.409 31.2585C206.307 28.3632 207.144 26.0605 207.322 26.0809C207.501 26.1013 208.606 27.6269 209.79 29.5612ZM196.735 32.5982C197.25 32.8569 197.571 33.8264 197.483 34.6825C197.233 37.119 191.864 46.0985 187.964 50.7158L184.474 54.847L180.845 53.8989C174.873 52.3496 171.267 52.3369 167.566 53.8456C163.746 55.3407 159.484 59.3836 159.254 61.6225C159.166 62.4785 158.206 63.6345 156.91 64.5522C155.686 65.345 153.832 67.598 152.725 69.6033C150.961 72.7327 150.768 73.4435 151.146 75.6186C151.361 77.0423 151.347 80.1054 151.104 82.476C150.671 86.6905 151.103 88.3389 152.923 89.3466C153.378 89.5985 152.537 90.7681 150.611 92.5465C148.891 94.0819 147.277 95.1632 146.948 94.859C146.612 94.6207 146.081 92.7611 145.683 90.7835C145.337 88.8785 144.241 86.0882 143.313 84.583C141.34 81.559 141.379 81.7633 142.64 55.9911C142.868 52.0197 144.735 49.635 151.965 44.1994C158.289 39.393 160.205 38.8794 170.571 39.1991C177.286 39.3676 181.119 38.3403 187.883 34.517C192.412 31.9704 194.744 31.5043 196.735 32.5982ZM212.824 59.7555C215.123 61.9507 213.835 65.1344 210.399 65.8075C209.058 65.9872 206.54 67.0982 204.808 68.1659C201.726 70.0786 199.177 70.3199 197.628 69.0102C196.251 67.7867 199.019 64.2392 202.893 62.2173C210.959 58.0099 211.025 57.9508 212.824 59.7555ZM176.638 59.7469C177.956 60.9636 177.786 63.2093 176.337 64.4427C175.483 65.1445 174.65 65.6488 174.412 65.6217C174.175 65.5945 173.294 66.5597 172.453 67.7293C171.612 68.8989 170.612 69.8506 170.196 69.803C169.365 69.7079 163.113 63.2631 162.918 62.2414C162.747 61.5557 168.643 59.1654 170.941 59.0286C173.543 58.8599 176.039 59.1453 176.638 59.7469ZM190.342 64.4458C190.912 66.5097 190.905 66.5755 188.349 66.8827C186.526 67.074 186.361 66.9219 186.503 65.539C186.827 62.3782 189.49 61.6168 190.342 64.4458ZM182.526 69.1481C182.452 69.8725 182.133 70.6355 181.756 70.7923C180.487 71.4465 181.005 72.8383 182.917 74.123C185.106 75.6392 185.223 76.2523 183.702 77.6105C182.511 78.6735 178.51 78.4157 177.667 77.2533C177.246 76.6722 176.711 76.611 175.766 77.0359C174.06 77.8401 173.77 80.6717 175.178 82.7649C176.007 84.0589 176.7 84.338 178.569 84.2853C179.896 84.2373 181.322 84.4004 181.83 84.725C182.687 85.1562 182.6 85.4128 181.289 87.0616L179.839 88.8944L177.499 87.0944C175.6 85.678 174.202 85.2515 169.983 84.769C167.072 84.4359 164.775 83.9733 164.796 83.7758C164.823 83.5124 165.708 83.0807 166.706 82.7285C168.51 82.1354 168.583 82.0105 168.538 78.9406C168.46 75.6005 170.185 71.6672 171.591 72.0279C173.056 72.3954 173.796 72.2135 173.884 71.3575C174.065 70.1789 179.142 67.5618 181.05 67.7134C182.239 67.8494 182.621 68.2262 182.526 69.1481ZM195.718 75.3208L197.068 76.8077L194.769 77.544C193.46 77.994 192.165 78.3122 191.868 78.2782C190.977 78.1763 190.892 74.902 191.688 73.5939C192.549 72.2268 193.064 72.4855 195.718 75.3208ZM163.936 72.8178C164.054 73.4309 163.463 74.496 162.524 75.4544C160.452 77.4827 155.87 85.8194 156.31 86.8025C156.507 87.2248 156.354 87.5405 155.939 87.4929C155.463 87.4385 155.432 86.5689 155.932 84.6273C156.325 83.14 157.026 79.8223 157.461 77.3404C157.903 74.7926 158.569 72.4037 158.913 71.9767C159.926 70.8934 163.589 71.5123 163.936 72.8178Z" fill="#FBF8EF"></path><path d="M200.95 54.2234C200.916 54.5535 201.16 55.1156 201.437 55.3476C201.774 55.5865 202.019 55.5477 202.059 55.1516C202.093 54.8216 201.909 54.2663 201.572 54.0275C201.295 53.7954 200.991 53.8274 200.95 54.2234Z" fill="#FBF8EF"></path><path d="M278.578 82.4462C278.365 82.7557 276.842 82.9154 275.233 82.7315C270.824 82.2275 270.331 83.5066 271.984 90.3058C273.65 96.973 274.028 102.692 273.092 106.524C270.671 116.597 270.322 118.827 270.462 123.918C270.567 129.939 271.477 131.645 274.867 132.1C276.714 132.311 276.787 132.186 277.031 129.81C277.107 128.483 277.013 125.868 276.786 123.973C276.149 119.026 276.848 111.627 278.554 106.748C279.941 102.633 280.511 97.0895 279.762 94.3999C279.197 92.2655 281.023 93.2754 283.128 96.2536C285.128 99.0863 285.167 99.2911 285.104 106.362C285.101 113.439 285.441 115.414 287.267 118.761C288.494 120.904 288.332 122.488 287.055 122.008C286.532 121.815 285.925 120.677 285.683 119.515C285.448 118.286 284.723 116.534 284.09 115.66C283.079 114.343 282.616 114.156 281.192 114.528C280.264 114.755 279.024 115.682 278.445 116.617C277.442 118.172 277.481 118.377 279.4 122.001C285.293 133.292 286.01 135.71 285.804 144.167C285.614 151.89 284.811 155.605 282.697 159.169C282.046 160.229 281.03 164.253 280.218 168.634C279.487 172.824 278.631 176.465 278.233 176.82C276.574 178.3 271.653 172.796 270.386 168.111C269.395 164.258 267.765 164.873 266.621 169.55C264.991 176.041 269.958 186.958 274.784 187.51C275.678 187.612 275.869 188.101 275.652 190.213C275.347 193.183 273.895 196.756 273.061 196.66C272.763 196.626 270.626 195.714 268.377 194.723C264.408 192.867 261.752 190.56 261.901 189.108C262.016 187.986 259.529 181.092 258.993 181.03C258.159 180.935 258.646 179.121 260.242 176.499C261.478 174.437 261.772 173.336 261.74 170.127C261.748 166.522 261.928 165.942 264.301 162.207C265.67 160.027 267.274 156.738 267.814 154.997C268.361 153.19 268.902 151.449 269.062 151.067C269.288 150.625 270.546 150.702 272.783 151.225C274.722 151.714 276.622 151.998 277.059 151.847C278.484 151.476 278.542 146.208 277.104 143.773C275.804 141.755 275.13 141.277 269.646 138.914C267.106 137.823 266.4 136.473 268.486 136.712C271.763 137.086 268.416 132.698 263.231 129.768C261.009 128.512 259.091 127.225 258.887 126.868C258.742 126.517 255.671 125.899 252.096 125.49C246.376 124.837 244.74 124.917 239.553 126.126C233 127.714 227.923 129.604 220.604 133.375L215.83 135.834L215.519 138.87C215.295 141.048 214.809 142.261 213.88 143.089C211.697 144.976 206.487 146.985 204.342 146.74C201.84 146.454 198.93 147.79 197.879 149.807C197.367 150.683 196.591 151.195 195.697 151.093C194.923 151.004 194.062 151.173 193.737 151.403C193.345 151.692 191.854 152.123 190.317 152.414C184.474 153.549 175.523 158.535 167.926 165.012C165.551 167.01 163.09 168.665 162.481 168.729C161.626 168.832 160.908 169.952 159.829 172.833C159.062 175.015 158.561 176.961 158.72 177.18C158.878 177.398 159.751 177.698 160.705 177.807C162.254 177.984 162.359 178.13 161.833 179.739C161.486 180.768 160.767 182.488 160.228 183.628C157.939 188.308 155.798 203.287 157.347 203.464C157.645 203.498 159.07 203.127 160.574 202.564C163.073 201.715 163.551 201.168 166.071 196.582C167.561 193.815 170.398 189.665 172.324 187.348C174.302 185.104 176.932 181.799 178.188 180.14C179.39 178.408 181.614 176.124 183.113 175.027C184.612 173.93 186.967 172.129 188.34 171.084C189.773 170.046 191.804 167.875 192.874 166.261C194.662 163.527 200.45 157.646 201.224 157.734C201.463 157.761 201.323 160.884 200.93 164.711C200.361 170.255 200.37 171.925 201.057 172.872C201.789 173.957 202.028 173.984 203.506 173.085C204.402 172.587 205.371 171.362 205.711 170.399C206.719 167.042 207.025 166.41 207.621 166.478C207.919 166.512 208.248 167.417 208.325 168.428C208.434 169.709 209.002 170.642 210.146 171.24C211.111 171.818 211.956 172.983 212.199 174.146C213.089 178.387 214.748 179.845 216.468 177.772C217.291 176.798 217.41 176.811 218.322 177.917C218.856 178.579 219.994 179.243 220.888 179.345C222.198 179.495 222.865 180.64 225.801 187.853C229.08 195.839 231.317 199.3 235.896 203.429C238.659 205.882 237.864 203.053 234.648 199.147C230.31 193.843 229.68 191.167 230.273 181.286C230.863 172.607 231.329 171.592 233.009 175.189C234.05 177.378 237.748 190.086 239.835 198.538C241.395 205.059 242.515 207.658 246.079 212.873C247.913 215.553 248.842 217.662 249.095 219.894C249.343 221.592 249.57 223.488 249.622 224.161C249.837 225.588 251.49 226.511 252.195 225.524C253.111 224.226 253.672 228.163 253.204 232.717C252.865 236.016 252.989 237.166 253.794 238.126C255.986 240.847 256.267 239.877 257.864 224.903C259.191 212.569 259.52 210.536 260.636 209.062C261.971 207.211 262.138 206.763 261.363 206.674C260.291 206.552 257.932 210.155 256.652 213.814C255.285 217.731 253.592 219.541 252.463 218.21C252.087 217.766 251.797 217.065 251.851 216.537C251.899 216.075 250.692 213.734 249.248 211.365C246.179 206.608 244.291 201.518 241.976 191.772C238.854 178.728 237.165 173.461 234.5 168.883C233.478 167.097 232.055 163.929 231.305 161.84C230.509 159.613 229.071 157.178 227.868 155.973C224.856 153.024 222.569 148.289 223.051 145.94C223.406 144.245 223.797 143.956 228.064 142.908C232.398 141.801 233.424 141.785 242.705 142.979C248.24 143.679 253.8 144.715 255.129 145.267C256.399 145.813 258.146 146.413 258.974 146.575C260.324 146.929 260.514 147.419 260.772 150.787C260.979 152.88 261.358 155.06 261.727 155.57C262.439 156.853 261.774 158.046 257.797 162.732C256.29 164.496 254.781 166.861 254.487 167.963C254.02 169.578 253.482 170.118 251.892 170.337C249.806 170.699 249.513 171.2 250.21 173.216C251.855 177.744 252.577 180.698 252.624 183.174C252.707 184.719 253.258 186.985 253.864 188.123C254.524 189.333 255.03 190.86 255.074 191.6C255.165 192.478 255.978 193.372 257.36 193.998C258.564 194.603 260.282 196.068 261.12 197.299C262.13 198.616 263.307 199.485 264.32 199.601C265.876 199.712 272.075 202.156 274.76 203.598C275.957 204.269 275.989 204.54 275.178 208.921C274.407 212.906 274.406 213.507 275.3 213.609C276.67 213.766 276.423 214.405 273.659 218.429C270.962 222.394 266.897 230.276 265.99 233.243C265.689 234.411 265.712 235.949 265.981 236.848C266.6 238.455 265.701 240.756 261.099 249.177C260.341 250.692 259.648 252.149 259.615 252.479C259.547 253.139 256.683 257.552 256.385 257.518C256.265 257.505 255.488 255.68 254.626 253.511C253 249.386 252.219 249.363 252.626 253.616C252.896 256.852 252.426 259.67 250.764 265.289C249.677 268.837 249.414 270.81 249.518 274.494C249.68 281.724 248.864 287.907 247.066 292.509C246.166 294.81 245.346 297.52 245.23 298.642C244.988 300.417 244.921 300.477 244.315 299.339C243.959 298.697 243.626 296.656 243.564 294.913C243.492 291.499 241.53 286.534 240.16 286.378C239.147 286.262 239.026 289.787 239.731 299.95C240.211 307.016 240.218 306.95 236.774 321.713C233.905 333.804 230.027 343.977 227.553 345.764C226.578 346.454 226.231 347.483 226.001 349.727C225.715 353.099 223.404 358.577 217.384 370.242C210.108 384.166 204.769 393.304 204.081 392.959C202.877 392.354 202.637 384.714 203.53 373.666C204.479 361.489 203.954 353.683 201.886 348.573C201.268 346.966 198.826 343.148 196.542 340.15C193.255 335.768 191.55 334.171 188.25 332.258C183.079 329.196 182.294 328.038 184.468 326.817C187.923 324.875 191.527 321.481 193.089 318.589C197.751 310.174 198.874 308.633 201.785 306.696C204.756 304.766 204.829 304.64 204.743 301.96C204.708 299.953 204.915 299.108 205.698 298.53C206.288 298.063 206.773 297.451 206.814 297.055C206.848 296.725 208.058 294.326 209.528 291.757C211.888 287.553 212.075 286.906 211.696 284.727C211.343 282.883 210.914 282.367 209.947 282.39C208.735 282.452 208.656 282.042 208.707 277.441C208.806 274.714 208.682 271.228 208.473 269.735C207.732 264.042 207.958 263.6 212.642 262.6C219.174 261.21 229.815 255.616 238.83 248.834C241.828 246.64 244.786 244.841 245.382 244.909C246.216 245.005 246.561 244.577 246.683 243.389C246.778 242.465 247.151 241.773 247.508 241.814C247.925 241.862 248.744 242.69 249.424 243.702C251.668 247.097 254.108 245.64 252.501 241.917C252.007 240.859 250.833 238.789 249.829 237.405C247.203 233.633 246.848 232.391 248.385 232.099C249.796 231.86 250.036 231.286 249.378 229.475C249.141 228.847 248.701 227.261 248.465 226.032C247.921 223.7 247.293 223.361 244.927 224.092C243.622 224.477 242.842 223.854 239.163 219.761C236.785 217.085 233.931 214.355 232.853 213.698C231.775 213.04 229.766 211.475 228.378 210.315C226.997 209.089 223.412 207.01 220.416 205.666C217.412 204.388 213.444 202.532 211.612 201.588C207.597 199.593 205.406 199.209 205.263 200.595C205.209 201.123 205.46 201.619 205.758 201.653C206.651 201.755 210.091 206.422 209.989 207.412C209.948 207.808 208.961 208.029 207.703 207.952C197.971 207.039 192.032 206.761 190.541 207.192C189.547 207.479 187.785 207.611 186.594 207.475C183.793 207.155 181.15 207.654 172.403 210.059C166.327 211.702 164.803 212.462 161.963 214.875C156.94 219.175 152.689 221.827 146.823 224.362C143.038 225.999 140.644 227.595 138.427 229.812C135.261 233.056 133.14 233.748 133.37 231.504C133.479 230.448 131.452 227.879 130.439 227.764C130.26 227.743 129.769 228.421 129.376 229.311C128.378 231.401 127.729 231.26 126.57 228.456C125.97 227.253 124.796 225.182 123.892 224.011C122.935 222.766 121.173 219.961 119.953 217.751C117.408 213.187 115.954 212.086 114.116 213.545C113.127 214.367 112.861 215.204 112.801 218.136C112.782 220.671 112.554 221.713 112.018 221.652C111.66 221.611 109.155 219.588 106.572 217.156C103.982 214.79 100.942 212.106 99.8246 211.244C98.7075 210.382 96.606 208.539 95.1193 207.167C92.093 204.351 91.3184 204.262 90.8227 206.743C90.6019 207.719 90.1631 208.47 89.8652 208.436C89.2098 208.361 80.763 204.324 77.8599 202.657C76.7752 202.065 74.8105 201.24 73.5268 200.826C72.2431 200.412 69.6839 198.918 67.7868 197.432C62.9217 193.738 60.4992 193.261 52.2985 194.46C48.5028 195.028 45.2177 195.32 45.1189 195.108C44.848 194.81 40.3818 198.973 37.4472 202.31C36.292 203.58 37.2304 204.422 40.0442 204.61C43.1032 204.76 43.7965 205.64 43.4645 208.874C43.3493 209.996 43.3301 212.531 43.4248 214.545C43.579 216.566 43.7223 220.455 43.802 223.201C43.9114 227.42 44.5801 230.301 48.3478 241.749C50.7806 249.172 53.3598 256.344 54.0124 257.62C55.3771 260.18 60.4656 264.634 63.2442 265.753C69.3837 268.191 70.7391 269.08 71.5555 271.11C71.9766 272.293 73.1058 273.624 73.9589 274.122C74.8187 274.555 76.3055 275.926 77.1571 277.025C78.8009 279.216 79.9058 279.61 88.7278 281.753C91.3155 282.383 94.3528 283.331 95.4306 283.988C96.8592 284.753 100.467 285.432 107.868 286.145C123.254 287.77 132.47 288.423 134.259 288.026C135.491 287.767 136.582 288.292 139.253 290.467C141.083 292.012 142.822 293.279 143.12 293.313C144.609 293.483 149.557 298.723 156.827 307.766C159.336 310.924 162.473 314.421 163.808 315.508C166.306 317.597 166.528 318.958 164.546 320.066C163.717 320.506 163.121 320.438 162.467 319.762C155.503 313.023 145.215 306.372 136.462 302.968C129.33 300.216 127.206 299.773 126.726 300.92C126.333 301.81 120.696 302.701 117.651 302.42C115.744 302.202 113.856 302.387 104.57 303.595C97.6675 304.476 90.8155 306.63 87.4327 309.048C86.199 309.908 81.7573 312.071 77.6013 313.8C68.3483 317.616 66.7368 318.634 62.8785 323.334C58.9675 327.962 58.0235 329.523 58.3186 330.759C58.4432 331.307 56.9128 334.471 54.8786 337.844C51.3886 343.654 49.4288 349.239 48.0064 357.223C47.5769 359.644 47.9548 359.487 40.9011 360.083C38.8942 360.254 38.6356 360.425 39.6078 360.936C40.2293 361.341 42.4067 361.857 44.4325 362.089L48.1197 362.577L48.1506 366.387C48.1626 369.793 48.2546 370.071 49.0848 369.031C49.6292 368.425 50.1357 367.014 50.2374 366.024C50.3525 364.902 50.8645 364.026 51.3682 363.817C51.9248 363.68 55.3466 364.405 58.9797 365.421C62.6127 366.437 68.4639 367.574 71.9196 367.969C75.7924 368.411 78.7375 369.082 79.3455 369.619C80.1782 370.315 81.5161 370.201 86.452 369.096C89.7846 368.342 92.6662 367.87 92.8842 368.095C93.109 368.254 93.3649 369.285 93.4948 370.368C93.6301 371.986 94.0065 372.43 96.058 372.998C98.2814 373.653 98.8975 373.523 102.883 371.108C105.323 369.651 107.471 368.694 107.623 368.979C107.781 369.197 107.465 371.097 106.838 373.096C104.83 379.743 104.83 379.743 105.783 379.852C106.319 379.914 108.322 378.607 110.233 377.022C112.15 375.372 114.027 374.118 114.325 374.152C114.683 374.193 115.181 373.448 115.528 372.42C115.808 371.45 117.861 368.48 120.006 365.787C123.725 361.271 124.183 360.923 126.348 360.97C128.096 360.97 128.553 361.222 128.306 361.862C126.456 365.79 124.19 372.008 124.454 372.372C125.887 374.271 143.173 364.429 150.645 357.405C155.709 352.708 160.991 345.3 166.763 334.876C168.764 331.232 169.03 330.995 170.877 331.206C171.949 331.329 174.271 332.195 175.984 333.126C177.697 334.056 180.258 334.95 181.628 335.106C182.999 335.263 184.282 335.677 184.42 336.093C184.565 336.443 186.369 338.252 188.411 340.088C191.887 343.223 195.418 348.167 197.783 353.312C200.399 358.952 200.832 366.48 199.374 381.27C198.669 388.133 198.568 391.46 199.022 392.915C199.39 394.025 199.669 396.594 199.69 398.733C199.709 402.074 199.442 402.911 197.388 406.482C192.714 414.428 190.568 414.784 190.094 407.652C189.641 400.322 189.609 400.051 188.906 400.438C187.381 401.199 186.539 404.708 185.443 414.799C184.448 423.899 184.093 425.595 183.084 426.614C182.48 427.213 181.902 428.148 181.848 428.676C181.692 430.194 178.989 433.625 178.035 433.516C177.559 433.461 177.108 433.743 177.067 434.139C177.027 434.535 174.017 438.598 170.365 443.055C159.381 456.689 154.757 462.971 151.864 468.249C149.504 472.453 148.269 473.914 144.268 477.062C141.582 479.159 134.582 485.103 128.63 490.231C122.731 495.433 117.324 499.956 116.74 500.357C112.688 502.831 99.0436 507.147 99.1656 505.959C99.1995 505.629 100.215 504.544 101.35 503.471L103.526 501.65L101.691 501.908C100.718 501.997 97.8672 503.34 95.4202 504.863C92.9135 506.38 90.8051 507.541 90.759 507.402C90.6534 507.256 91.4254 505.609 92.4032 503.717C93.4542 501.701 94.061 499.901 93.8105 499.405C93.3827 498.287 93.1768 498.531 89.9387 504.237C88.6819 506.497 87.0608 508.782 86.404 509.308C84.3077 510.938 69.8669 515.964 63.4604 517.302C56.1331 518.801 50.5918 521.105 48.5537 523.343C47.259 524.797 47.1656 525.121 47.932 525.876C48.4275 526.333 48.7565 527.239 48.6955 527.833C48.5262 529.483 49.8112 529.296 55.8563 526.782C58.8788 525.525 63.6238 523.931 66.2874 523.234C69.0038 522.609 73.8544 521.161 77.1017 520.063C80.3558 518.899 85.7629 517.314 89.1091 516.428C92.5148 515.548 96.8752 514.177 98.8306 513.333C100.846 512.495 105.279 510.998 108.698 509.987C112.118 508.976 116.061 507.557 117.4 506.842C118.799 506.134 124.239 501.881 129.514 497.477C134.788 493.072 140.261 489.09 141.58 488.573C143.654 487.742 144.972 487.826 149.704 488.701C155.966 489.951 158.715 489.597 158.925 487.551C159.026 486.562 158.292 486.077 155.315 485.136C153.277 484.435 150.808 483.819 149.795 483.704C147.055 483.39 147.136 482.598 150.115 480.001C151.628 478.772 155.194 474.572 158.063 470.694C160.933 466.815 166.292 460.417 169.95 456.495C176.103 449.987 180.847 443.118 183.045 437.56C183.305 436.789 184.639 435.539 185.979 434.824C187.258 434.102 192.069 430.112 196.588 426.021C201.173 421.872 206.494 417.606 208.417 416.49C210.34 415.374 212.919 413.733 214.1 412.8C216.846 410.71 219.18 409.708 221.975 409.493L224.227 409.283L223.989 411.593C223.854 412.913 223.97 414.128 224.241 414.426C224.578 414.665 226.473 414.414 228.513 413.913C230.554 413.412 233.594 413.159 235.262 413.349C238.599 413.731 238.645 413.869 237.044 418.895C232.615 432.677 231.889 437.402 232.735 446.779C233.181 451.237 233.383 455.734 233.221 456.717C233.059 458.301 233.428 458.811 236.132 460.655C238.281 462.036 239.206 463.01 238.907 463.577C238.222 464.967 241.913 469.529 243.879 469.754C244.832 469.863 246.4 470.442 247.425 471.027C249.858 472.574 252.064 472.225 253.486 470.117C254.131 469.123 254.815 468.333 255.053 468.36C255.292 468.387 256.379 470.715 257.544 473.452C258.644 476.249 261.038 480.529 262.78 482.931C265.955 487.234 274.123 494.577 275.91 494.782C277.042 494.911 278.46 491.668 278.84 487.972C279.03 486.124 279.449 484.97 280.006 484.834C280.443 484.683 282.308 485.898 284.013 487.495C291.565 494.368 292.247 494.78 293.694 493.009C294.518 492.035 294.756 492.062 297.261 494.084C306.561 501.557 315.396 506.507 316.525 504.9C317.236 503.846 317.54 487.388 316.899 483.643C316.278 480.3 316.378 479.911 317.562 477.776C318.453 476.142 318.874 474.387 318.946 471.925C319.035 468.129 318.752 467.362 312.425 454.42C310.382 450.247 307.306 443.218 305.587 438.815C302.77 431.616 301.147 429.227 301.305 432.383C301.406 434.331 300.209 433.66 299.427 431.301C297.94 426.991 291.832 419.549 286.841 415.907C284.203 414.003 280.978 411.364 279.611 410.006C275.772 406.295 274.066 405.299 268.706 403.484C264.041 401.95 263.267 401.861 258.273 402.359C252.067 402.918 248.78 403.811 245.875 405.682C244.781 406.358 243.277 406.921 242.621 406.846C241.966 406.771 241.25 407.29 240.93 408.055C240.45 409.202 240.079 409.293 237.088 408.483C233.091 407.492 232.978 407.413 234.748 406.613C235.57 406.24 240.719 401.888 246.227 396.975C253.135 390.754 257.918 387.028 261.558 385.04C265.138 383.045 267.566 381.12 269.293 378.98C273.165 374.148 273.039 374.2 278.106 376.515C280.527 377.593 283.583 378.944 284.853 379.49C286.123 380.036 288.71 381.266 290.542 382.21C293.399 383.739 295.345 384.162 303.031 385.04C313.1 386.191 318.2 385.839 323.555 383.581C327.4 381.95 337.976 372.877 341.603 368.083C343.057 366.246 346.23 362.937 348.686 360.747C351.333 358.445 353.385 356.076 353.679 354.974C354.333 352.712 354.971 351.784 360.331 344.784C364.568 339.326 364.728 338.944 364.662 336.065C364.586 334.454 364.26 332.347 363.805 331.494C363.265 330.297 363.323 327.967 364.02 321.77C364.481 317.282 364.824 312.18 364.715 310.298L364.458 306.93L367.337 304.722C370.814 301.981 371.094 301.012 368.405 301.372C367.305 301.513 365.782 301.673 364.987 301.782C363.887 301.924 363.564 301.553 363.197 299.842C362.588 296.968 361.461 297.373 360.692 300.757C359.936 304.009 359.199 304.726 352.251 308.406C347.205 311.167 346.774 311.252 342.782 310.795C337.361 310.176 333.087 311.29 323.09 315.889C314.426 319.84 313.989 319.99 311.859 319.012C310.88 318.566 309.416 318.733 307.415 319.439C304.287 320.55 303.578 320.402 303.775 318.488C303.965 316.641 302.157 316.634 299.14 318.426C295.612 320.493 287.803 329.616 283.191 336.968C280.379 341.454 279.636 342.237 278.988 341.495C278.559 340.979 278.462 340.166 278.761 339.6C279.446 338.209 282.118 325.694 281.881 325.066C281.795 324.723 280.875 324.885 279.867 325.304C276.016 327 276.042 327.337 278.125 311.15L279.994 296.473L277.956 295.773C276.844 295.446 275.123 295.182 274.143 295.337C272.805 295.451 272.117 295.106 271.384 294.02C270.19 292.148 267.992 291.83 265.268 293.121C262.424 294.398 254.467 299.097 250.454 301.777C248.577 303.031 246.98 303.917 246.874 303.771C246.247 302.831 248.747 295.505 251.115 291.236L253.854 286.274L254.242 278.974C254.477 274.927 254.587 270.333 254.571 268.729C254.431 265.975 254.511 265.784 255.609 266.243C257.462 266.989 258.265 266.213 259.22 262.783C259.874 260.521 260.752 259.019 262.344 257.599C265.39 254.942 266.527 255.606 266.1 259.764C265.706 264.192 266.958 275.486 268.358 280.053C268.995 282.062 270.195 281.532 275.47 277.127C280.028 273.241 283.05 271.984 284.292 273.395C284.728 273.845 285.894 276.583 286.934 279.372C289.579 286.485 291.846 288.48 294.461 285.908C295.934 284.474 297.371 284.572 300.797 286.432C303.376 287.729 303.555 287.749 305.584 286.779C306.856 286.123 308.33 284.689 309.214 283.121C310.119 281.355 311.32 280.224 312.506 279.825C316.31 278.591 324.86 281.037 328.673 284.411C329.552 285.246 331.484 285.8 334.516 286.214C338.68 286.757 339.368 287.102 345.45 291.27C352.703 296.372 354.8 297.079 355.965 294.541C357.05 292.195 357.567 285.978 356.824 283.823C356.509 282.785 356.038 280.328 355.877 278.373C355.471 273.519 354.608 271.351 350.835 265.244C349.02 262.366 347.24 259.157 346.872 258.047C346.437 256.996 344.207 253.469 341.817 250.325C337.632 244.705 337.54 244.427 338.141 242.092C338.736 239.823 338.644 239.546 336.662 237.717C335.505 236.65 333.918 235.667 333.025 235.565C332.19 235.47 330.212 234.776 328.658 234.064C322.962 231.41 319.66 230.699 314.858 231.084C312.368 231.267 310.017 231.266 309.673 231.093C309.329 230.92 309.056 228.885 309.041 226.68C309.092 224.416 308.991 222.468 308.892 222.257C308.787 222.111 307.622 221.711 306.332 221.363C304.512 220.888 303.107 221.061 300.403 222.154C296.387 223.698 295.408 223.252 296.792 220.339C297.963 217.735 297.523 216.149 295.557 215.925C294.425 215.795 291.978 217.318 286.532 221.637C282.398 224.903 277.847 228.723 276.426 230.23C274.953 231.664 273.653 232.584 273.515 232.167C273.119 231.321 277.7 220.761 279.353 218.746C279.985 217.884 281.918 214.9 283.594 212.087C286.359 207.462 290.044 203.276 291.295 203.419C291.534 203.446 291.813 203.077 291.86 202.615C291.968 201.559 295.552 198.363 295.974 198.946C296.133 199.164 295.844 200.801 295.297 202.608C293.434 209.005 295.979 211.232 300.821 207.512C302.32 206.415 303.68 205.502 303.859 205.523C304.038 205.543 304.142 206.29 304.047 207.213C303.823 209.391 304.962 209.455 307.656 207.292C310.15 205.307 311.044 205.409 311.125 207.555C311.18 209.364 311.888 209.512 314.633 208.023C315.973 207.308 318.245 206.9 320.589 206.968L324.376 207.067L327.051 210.377C330.273 214.218 333.527 215.992 340.073 217.408C347.684 219.012 355.543 225.252 360.126 233.455C363.377 239.369 364.956 241.018 367.894 241.754C369.423 242.13 370.794 242.286 370.926 242.168C371.059 242.049 371.499 240.698 371.953 239.214C372.354 237.657 373.488 234.248 374.48 231.624C376.626 225.993 376.989 220.693 375.597 215.459C374.448 211.389 374.57 210.201 376.391 207.137C378.579 203.448 378.718 200.326 376.691 197.757C375.787 196.585 374.802 195.605 374.564 195.577C374.266 195.543 373.283 193.962 372.4 191.992C370.615 188.249 360.794 174.106 358.112 171.462C357.233 170.627 354.376 169.099 351.822 168.139C344.161 165.26 342.446 164.931 340.775 165.941C338.912 167.064 336.105 166.81 333.552 165.249C332.475 164.592 330.159 163.66 328.392 163.257C326.632 162.789 323.475 161.827 321.265 161.04C316.554 159.367 311.243 159.427 307.796 161.303C306.582 161.966 305.462 162.305 305.304 162.087C305.139 161.935 305.985 159.561 307.111 156.818C309.122 151.907 312.89 146.328 317.118 142.138C321.22 137.999 321.141 134.652 316.927 132.835C315.598 132.282 314.215 131.657 313.864 131.55C313.52 131.377 313.274 129.079 313.314 126.346C313.578 114.958 312.505 109.561 309.185 104.908C307.495 102.578 306.588 102.608 305.146 104.913L303.982 106.85L303.06 104.675C302.58 103.485 302.165 102.236 302.193 101.972C302.226 101.642 301.589 99.6326 300.786 97.4709C299.417 93.7757 298.995 93.1932 297.306 93.2005C296.942 93.2256 294.495 91.8108 291.903 90.0456C289.312 88.2804 286.124 86.4471 284.794 85.8944C283.524 85.3486 282.01 84.2408 281.489 83.4467C280.447 81.8586 279.282 81.4584 278.578 82.4462ZM294.73 98.9153C296.045 100.201 298.099 102.505 299.254 104.173C300.99 106.642 301.305 107.679 301.305 110.617L301.251 114.083L304.697 115.746C306.588 116.696 308.196 117.481 308.248 117.554C308.48 117.647 308.702 121.946 308.6 125.874C308.524 130.138 308.524 130.138 307.134 129.579C306.327 129.219 304.157 128.637 302.337 128.162L298.988 127.312L299.266 124.606C299.469 122.626 299.273 121.602 298.493 120.979C297.607 120.21 297.484 119.061 297.833 114.494C298.101 110.117 297.966 108.5 297.18 107.341C295.986 105.469 293.14 105.01 292.322 106.519C291.943 107.277 291.746 106.253 291.806 103.322C291.812 100.919 291.705 98.436 291.534 97.7488C290.989 96.0171 291.915 96.3901 294.73 98.9153ZM295.214 127.081C294.767 128.499 294.878 129.179 295.605 129.73C296.445 130.36 296.411 130.69 295.552 132.595C294.342 134.994 292.198 140.023 291.705 141.302C291.518 141.949 291.213 141.981 290.843 141.471C289.84 140.088 291.199 130.962 292.842 127.878C294.571 124.537 296.069 124.04 295.214 127.081ZM306.567 134.522C306.884 134.958 307.119 136.187 307.011 137.243C306.713 140.147 307.524 141.642 309.8 142.369C310.905 142.763 311.824 143.202 311.804 143.4C311.79 143.532 310.348 145.837 308.567 148.505C306.793 151.106 304.97 154.771 304.476 156.651C303.922 158.524 303.068 160.963 302.47 162.097C300.647 165.761 298.962 172.78 298.959 176.919C298.957 180.458 298.757 181.236 297.122 183.653C295.488 186.07 294.453 186.753 287.971 189.418C283.874 191.153 280.355 192.553 280.103 192.658C279.414 192.913 279.873 189.026 281.122 184.495C282.184 180.61 284.158 177.23 289.699 169.651C292.861 165.272 293.828 162.311 290.693 166.426C285.605 173.122 282.975 176.427 282.856 176.414C282.617 176.386 284.343 168.972 285.437 165.358C286.058 163.426 287.17 160.815 287.835 159.623C288.566 158.371 289.625 155.687 290.206 153.55C290.967 150.833 291.726 149.317 292.833 148.509C294.79 147.064 296.831 143.625 299.036 138.001C299.949 135.568 300.894 133.406 301.041 133.155C301.466 132.536 305.695 133.621 306.567 134.522ZM317.981 135.493C318.31 136.398 317.924 137.222 316.357 138.979C315.261 140.256 314.133 141.262 313.835 141.228C313.239 141.16 312.525 135.203 313.03 134.392C313.794 133.411 317.447 134.23 317.981 135.493ZM258.264 130.001C260.488 132.993 261.026 138.33 259.109 139.379C258.473 139.707 245.487 137.021 240.994 135.572C238.658 134.838 236.983 134.713 234.102 135.185C232.022 135.481 229.749 135.889 229.081 135.946C227.12 136.256 230.549 133.978 233.935 132.695C244.911 128.542 256.184 127.36 258.264 130.001ZM272.642 143.196C273.085 143.581 273.216 144.063 273.017 144.241C272.752 144.478 272.005 144.125 271.291 143.443C269.976 142.157 271.149 141.891 272.642 143.196ZM220.099 154.15C222.2 155.992 224.743 158.82 225.845 160.415C227.739 163.102 227.864 163.651 227.727 168.509C227.531 175.698 226.786 180.02 225.773 179.904C225.356 179.856 224.881 179.201 224.71 178.514C224.56 177.629 223.727 176.932 222.265 176.498C220.511 175.964 219.745 175.209 218.862 173.238C217.881 171.056 217.326 170.592 215.598 170.394C213.87 170.197 213.48 169.885 213.483 168.684C213.452 167.812 212.964 166.688 212.416 166.158C211.867 165.628 211.274 164.358 211.138 163.341C211.035 161.994 210.507 161.266 209.283 160.859C206.775 160.038 207.271 157.557 210.502 154.855C211.948 153.685 213.66 152.278 214.317 151.753C214.973 151.227 215.683 150.774 215.921 150.801C216.166 150.762 218.057 152.314 220.099 154.15ZM326.435 164.703C329.195 165.419 332.04 166.479 332.82 167.102C333.712 167.805 337.405 168.828 342.256 169.716C349.657 171.03 350.523 171.396 354.126 173.878C356.996 175.875 358.673 177.736 360.903 181.263C362.506 183.85 365.159 187.959 366.828 190.487C368.445 192.942 369.77 195.296 369.737 195.626C369.703 195.956 370.619 197.597 371.774 199.265C374.137 202.673 374.194 203.881 372.173 207.122C370.505 209.87 370.06 213.024 370.873 216.856C371.724 220.893 371.029 226.489 369.16 230.014L367.59 232.973L364.528 228.75C358.705 220.873 353.139 216.965 343.61 214.073C339.633 212.884 336.238 211.895 336.06 211.875C335.821 211.847 334.263 210 332.566 207.736C330.863 205.538 328.729 203.425 327.796 203.118C325.758 202.417 325.271 201.293 326.623 200.446C328.56 199.199 327.993 198.266 325.192 197.946C323.703 197.776 322.484 197.903 322.45 198.233C322.416 198.563 321.462 199.055 320.401 199.401C319.275 199.807 317.889 200.383 317.365 200.79C315.8 201.947 311.955 200.639 312.118 199.055C312.22 198.065 311.83 197.754 310.161 197.563C307.659 197.277 305.213 198.199 303.003 200.35C302.074 201.179 301.04 201.862 300.563 201.807C299.669 201.705 299.667 199.969 300.621 199.477C300.999 199.32 301.319 198.555 301.387 197.895C301.576 196.048 304.709 193.134 307.12 192.542C309.228 191.981 309.301 191.856 309.386 189.262C309.472 186.667 309.618 186.417 311.832 185.402L314.165 184.4L316.34 186.117C317.569 187.059 319.17 187.91 320.004 188.005C320.779 188.093 322.313 189.003 323.409 190.064C324.506 191.124 325.564 191.979 325.743 191.999C325.981 192.027 326.188 191.182 326.303 190.06C326.466 188.477 326.064 187.696 324.293 186.158C323.077 185.084 322.113 183.906 322.153 183.51C322.241 182.652 324.935 183.427 327.593 185.133C328.618 185.718 330.503 186.735 331.832 187.287C335.643 188.925 337.013 192.019 337.161 199.381C337.24 202.728 337.365 205.614 337.524 205.832C338.844 207.652 340.432 199.821 339.661 194.993C339.485 193.771 338.708 191.946 337.955 191.059C335.453 187.835 337.364 186.25 340.463 188.942C341.514 189.863 342.943 190.627 343.598 190.702C344.909 190.852 345.139 191.546 345.354 195.911C345.492 199.265 346.866 203.495 348.01 204.093C348.632 204.498 349.13 203.754 349.951 201.043C350.571 199.111 351.323 197.661 351.667 197.834C352.302 198.107 356.968 207.855 359.516 214.155C360.53 216.608 361.17 217.416 362.362 217.552C363.375 217.668 363.885 217.392 363.973 216.534C364.156 214.753 356.886 197.496 355.05 195.416C353.379 193.489 354.182 192.713 357.001 193.436C359.417 193.979 359.662 193.941 359.804 192.555C360.13 189.387 355.962 184.771 352.327 184.355C351.791 184.294 350.363 183.53 349.245 182.668C347.394 181.321 344.112 180.411 341.159 180.408C340.675 180.419 338.578 179.712 336.494 178.873C332.684 177.235 330.889 177.097 320.38 177.298C317.903 177.349 315.486 177.406 314.996 177.484C314.506 177.561 314.037 176.84 313.802 175.611C313.619 174.455 313.094 172.526 312.746 171.217C312.398 169.909 312.019 167.729 312.042 166.329C311.981 163.985 312.127 163.735 314.069 163.022C316.323 162.211 318.05 162.409 326.435 164.703ZM197.577 154.513C197.722 154.863 195.935 156.996 193.652 159.272C191.309 161.542 188.269 164.733 186.901 166.313C185.527 167.958 182.886 170.194 181.082 171.323C178.695 172.853 176.212 175.307 172.46 180.153C169.61 183.833 166.516 187.552 165.647 188.388L164.047 189.874L164.634 188.272C165.82 184.935 168.837 180.206 171.1 178.128C173.96 175.517 174.149 174.269 171.974 172.552C171.022 171.842 170.395 170.903 170.502 170.447C171.029 168.838 182.575 161.478 188.236 159.187C192.199 157.57 194.447 156.225 194.966 155.283C195.784 153.774 197.089 153.389 197.577 154.513ZM305.572 169.462C306.204 170.937 306.783 172.338 306.875 172.616C307.06 173.171 302.713 177.348 302.057 177.273C301.58 177.219 302.563 167.649 303.153 167.183C303.956 166.406 304.452 166.864 305.572 169.462ZM293.69 193.009C294.49 193.435 295.138 194.176 295.097 194.572C295.056 194.968 292.076 198.166 288.532 201.567C284.928 204.961 281.357 208.626 280.58 209.739L279.171 211.715L279.22 207.714C279.205 205.509 279.399 201.859 279.57 199.608L279.924 195.575L282.722 194.159C284.306 193.406 286.976 192.642 288.798 192.517C290.559 192.384 292.076 192.291 292.142 192.231C292.202 192.238 292.897 192.518 293.69 193.009ZM222.541 211.384C229.592 214.927 237.362 222.626 233.489 222.183C230.212 221.809 236.107 226.623 240.719 228.085C243.525 228.939 244.397 229.84 245.146 232.53C245.75 234.869 244.884 236.84 243.395 236.67C242.858 236.609 241.305 235.296 239.898 233.733C237.521 231.057 234.878 228.619 231.414 225.952C230.574 225.322 228.975 223.871 227.826 222.738C225.579 220.545 220.882 218.739 220.747 220.059C220.706 220.455 221.279 221.923 221.984 223.272C222.749 224.628 223.163 225.877 222.964 226.055C222.765 226.232 221.435 225.68 220.027 224.718C216.007 222.188 208.892 220.44 200.027 219.894C191.645 219.336 185.604 220.048 179.222 222.323C174.404 224.043 173.218 224.441 171.859 224.753C170.071 225.15 170.642 227.218 172.785 228.064C174.399 228.783 175.513 228.509 180.47 226.606C191.081 222.477 199.136 221.528 208.972 223.187C213.175 223.934 220.638 226.991 223.95 229.373C224.736 229.93 227.103 231.536 229.252 232.917C231.619 234.523 232.987 235.881 232.919 236.541C232.824 237.465 232.222 237.463 228.568 236.644C223.505 235.465 221.666 234.587 221.802 233.267C222.059 230.759 213.005 226.185 204.268 224.385C199.132 223.33 190.147 225.709 186.974 229.018C185.633 230.334 182.795 235.084 183.271 235.139C183.45 235.159 185.3 234.169 187.481 232.882C194.656 228.761 197.757 227.914 204.523 228.354C209.734 228.682 210.972 228.957 213.233 230.418C214.873 231.473 215.85 232.52 215.776 233.246C215.715 233.84 216.196 235.03 216.822 235.969C217.872 237.491 218.103 237.585 219.39 236.797C220.67 236.075 221.073 236.255 224.319 238.696C226.665 240.5 229.357 241.876 232.289 242.678C234.684 243.419 236.722 244.12 236.828 244.265C237.303 244.921 226.711 252.39 224.551 252.878C223.683 253.112 222.882 252.687 221.978 251.515C220.968 250.198 219.81 249.732 215.554 248.911C212.536 248.366 210.438 247.659 210.539 247.27C210.719 246.689 212.972 245.878 222.501 242.895C223.25 242.647 223.927 241.923 224.002 241.197C224.252 238.755 220.625 238.273 201.938 238.274C199.401 238.318 199.057 238.145 197.553 235.77C195.62 232.878 193.9 232.013 191.541 232.679C189.984 233.168 189.838 233.419 189.978 235.571C190.112 237.79 189.973 237.974 187.852 238.667C186.666 239.065 184.235 239.255 182.567 239.064C177.741 238.513 170.192 235.713 168.805 233.952C167.795 232.635 167.444 232.528 166.946 233.272C166.454 233.951 164.282 233.969 156.762 233.243C151.512 232.71 147.063 232.001 146.971 231.723C146.826 231.373 149.871 229.317 153.717 227.086C158.968 224.081 161.323 222.28 163.196 219.89C167.081 214.926 174.524 212.305 183.827 212.7C186.826 212.843 189.985 212.603 190.926 212.243C192.822 211.392 202.965 212.418 207.762 213.834C210.568 214.689 214.383 214.524 215.637 213.466C215.968 213.17 216.329 212.009 216.384 210.88C216.499 209.758 216.826 208.928 217.243 208.975C217.66 209.023 220.021 210.094 222.541 211.384ZM288.569 225.275C288.701 225.757 288.817 226.973 288.894 227.983C289.146 230.816 291.854 230.859 296.661 228.07C301.986 224.939 302.912 225.312 303.198 230.753C303.574 237.072 305.445 238.221 312.329 236.337C316.795 235.112 319.231 235.457 321.021 237.398C321.398 237.841 322.78 238.467 324.124 238.887C326.466 239.556 326.572 239.701 326.025 241.509C325.557 243.124 325.755 243.548 327.322 244.728C334.295 250.199 341.045 257.848 340.815 260.092C340.691 261.881 343.915 270.996 345.163 272.341C346.953 274.281 346.884 275.542 345.048 276.401L343.656 277.043L344.904 278.387C345.604 279.202 346.92 279.886 347.814 279.989C349.184 280.145 349.508 280.516 349.63 282.266C349.835 284.96 349.503 288.194 349.027 288.14C348.848 288.119 348.008 287.489 347.249 286.668C344.447 284.011 340.584 282.3 337.677 282.435C335.432 282.579 334.214 282.106 330.233 279.782C324.672 276.408 318.921 274.883 314.516 275.514C312.31 275.863 310.527 276.794 307.568 279.194C303.627 282.349 303.568 282.342 301.497 281.371C299.725 280.434 297.93 280.295 293.857 280.631C293.069 280.675 292.468 280.072 292.1 278.961C291.777 277.99 290.962 275.359 290.173 273.066C288.937 269.252 288.673 268.888 286.727 268.465C284.483 268.008 279.228 269.878 275.089 272.61C273.863 273.404 272.649 274.067 272.411 274.04C272.173 274.012 271.706 272.69 271.266 271.104C270.675 268.633 270.732 266.904 271.788 260.147C273.011 252.341 273.098 252.084 274.509 251.845C275.37 251.676 276.597 250.882 277.34 250.099C278.37 248.881 278.867 248.737 279.408 249.333C279.837 249.85 282.424 251.08 285.262 252.206C295.411 256.104 304.352 264.137 306.296 271.036C307.412 274.836 307.789 275.28 309.116 274.096C311.505 271.965 309.429 264.584 305.025 259.339C303.414 257.419 302.272 255.619 302.531 255.449C303.181 254.989 310.539 254.361 312.684 254.606C315.187 254.892 318.412 257.531 326.802 266.236C332.304 271.939 338.197 275.017 339.282 272.67C340.36 270.39 335.529 263.427 328.954 257.601C323.76 253.001 314.786 247.635 308.673 245.534C294.652 240.593 287.623 239.189 279.55 239.735C277.007 239.845 274.656 239.843 274.252 239.663C273.624 239.324 275.677 236.354 277.787 234.592C278.377 234.125 279.871 232.493 281.113 230.966C284.061 227.497 287.28 224.326 287.936 224.401C288.233 224.435 288.491 224.865 288.569 225.275ZM65.1878 204.547C67.093 205.365 69.143 206.535 69.7442 207.137C70.405 207.747 72.2046 208.42 73.8133 208.604C75.422 208.788 77.2351 209.329 77.9027 209.873C79.3502 211.04 89.7781 214.569 93.2798 215.103C95.1201 215.38 96.2507 216.11 97.816 217.891C102.016 222.778 107.667 227.631 111.113 229.293C113.124 230.258 114.923 230.931 115.241 230.767C115.5 230.596 116.138 229.668 116.604 228.653C117.122 227.71 117.8 226.986 118.097 227.021C118.395 227.055 119.319 228.629 120.202 230.6C121.031 232.497 123.163 235.812 124.939 237.885C127.514 240.984 128.414 241.621 129.639 241.427C131.481 241.103 131.764 241.87 132.706 249.723C133.003 252.695 133.872 257.735 134.567 260.953C135.72 266.159 135.777 267.368 135.103 272.165C134.613 275.18 134.104 277.793 133.845 277.964C133.639 278.207 132.092 277.429 130.452 276.374C128.819 275.252 126.088 273.672 124.48 272.887C122.132 271.684 120.818 270.398 118.785 267.295C114.628 260.81 113.86 258.319 111.51 243.628C111.269 241.864 110.63 240.456 110.107 240.262C109.234 239.962 109.232 240.563 109.617 246.216C110.2 254.629 110.307 254.173 107.506 253.853C105.54 253.629 104.806 253.144 103.295 250.835C101.46 248.154 101.46 248.154 100.424 249.438L99.3817 250.788L96.3675 248.44C92.1172 245.217 88.999 239.185 87.8174 231.905C87.5033 230.267 86.9631 229.07 86.3281 228.797C85.3355 228.483 85.2353 228.873 85.1306 234.002L84.9786 239.593L82.4831 236.303C80.3113 233.384 75.548 225.762 70.3705 216.891C67.7059 212.313 67.2171 211.79 66.1243 211.865C64.4221 212.004 64.3556 215.001 65.9898 218.46C66.8265 220.292 70.1979 225.618 73.5111 230.337C76.8243 235.056 79.5499 239.039 79.5499 239.039C79.5431 239.105 76.6832 238.779 73.1679 238.377C67.4021 237.584 66.7602 237.377 67.0474 236.342C67.2411 235.629 66.9243 235.192 66.1497 235.104C63.826 234.838 64.1604 236.279 67.2759 240.574L70.5039 244.949L76.8791 245.678L83.2543 246.407L85.4125 249.458C89.2931 255.11 93.2428 259.501 97.0504 262.34C100.805 265.106 103.299 266.059 103.435 264.739C103.543 263.683 104.827 264.097 106.876 265.867L108.819 267.491L105.677 268.734C103.98 269.408 100.655 270.096 98.2238 270.286C95.7999 270.41 93.7592 270.911 93.7186 271.307C93.6847 271.637 95.3637 272.897 97.4206 274C100.681 275.708 101.852 276.042 105.826 276.096C111.063 276.161 113.204 275.27 113.448 272.894C113.651 270.915 114.075 270.896 115.515 272.73C117.013 274.571 120.438 277.032 124.439 279.159C126.205 280.162 127.666 281.197 127.639 281.461C127.537 282.451 122.899 283.59 118.979 283.609C115.476 283.676 109.908 283.306 101.308 282.524C98.5601 282.276 81.1005 275.607 80.3084 274.514C80.0904 274.289 80.364 273.386 80.8095 272.569C81.4813 271.31 81.4231 270.702 80.6189 269.142C79.6426 267.494 74.0532 262.048 73.219 261.952C73.0403 261.932 72.148 261.229 71.3288 260.401C70.232 259.341 69.7514 258.151 69.7813 256.685L69.8193 254.553L64.7956 253.578C56.8131 252.065 57.2423 252.581 52.2914 237.392C48.8201 226.579 48.0065 223.348 48.0731 220.351C48.1572 218.358 48.1738 214.086 48.0819 210.871C48.0496 207.662 48.1162 204.665 48.2828 204.217C48.7622 203.07 56.0489 201.966 59.1864 202.525C60.6624 202.828 63.3421 203.735 65.1878 204.547ZM277.645 247.129C277.571 247.855 271.516 248.698 270.856 248.089C269.858 247.24 270.535 246.516 272.468 246.47C276.091 246.417 277.699 246.601 277.645 247.129ZM307.95 251.394C307.916 251.724 307.644 252.027 307.287 251.986C306.989 251.952 306.725 251.588 306.759 251.258C306.799 250.862 307.124 250.632 307.422 250.666C307.78 250.707 307.991 250.998 307.95 251.394ZM204.004 243.985C202.71 244.839 201.505 244.835 201.176 243.929C200.728 243.01 201.55 242.636 203.384 242.98C204.919 243.289 204.972 243.361 204.004 243.985ZM161.129 240.019C161.281 240.303 160.52 243.021 159.367 246.027C158.208 249.1 156.845 254.152 156.282 257.292C155.778 260.44 154.93 263.414 154.459 263.895C150.648 268.133 148.75 275.461 150.295 280.378C150.696 281.759 151.153 284.349 151.275 286.099C151.723 292.894 153.136 297.329 156.39 302.041C158.119 304.575 159.405 306.726 159.206 306.903C158.735 307.383 150.161 298.124 147.812 294.584C146.657 292.916 144.134 289.89 142.06 287.783C140.038 285.749 138.209 283.604 138.091 282.989C137.973 282.375 138.299 279.207 138.823 275.862C139.965 268.848 139.432 261.709 137.012 251.818C136.198 248.587 135.432 244.893 135.368 243.751C135.245 242.602 134.943 241.432 134.725 241.207C132.617 239.43 136.925 237.986 143.97 238.057C150.413 238.126 160.601 239.291 161.129 240.019ZM192.787 246.375C193.406 247.982 194.42 250.435 195.006 251.77C195.645 253.179 196.501 255.413 197.021 256.808C197.548 258.137 199.064 260.981 200.417 263.072C202.291 265.957 202.995 267.907 203.543 271.375C204.527 278.231 203.977 281.24 200.939 286.168C199.556 288.48 198.471 290.827 198.596 291.375C198.884 292.677 202.049 292.972 203.131 291.827C203.602 291.346 204.484 290.98 205.139 291.055C206.033 291.157 206.178 291.507 205.705 292.588C205.039 294.382 201.24 299.089 198.938 300.962C197.093 302.487 196.692 304.044 197.489 306.272C197.91 307.455 197.457 308.338 195.072 311.604C192.415 315.173 181.632 325.091 180.5 324.962C179.666 324.866 177.561 321.287 178.086 320.88C178.358 320.577 179.451 320.502 180.463 320.617C182.251 320.822 182.39 320.637 182.813 318.282C183.074 316.91 183.045 315.437 182.728 315C182.041 314.054 182.3 310.945 183.334 307.925C183.76 306.705 184.579 302.259 185.191 298.055C186.154 291.021 186.156 290.42 185.175 290.575C184.38 290.685 184.063 290.248 183.908 288.828C183.771 287.811 183.089 285.062 182.419 282.782C181.689 280.495 180.993 277.878 180.85 276.927C180.706 275.976 180.088 274.369 179.474 273.298C178.92 272.233 177.588 269.944 176.625 268.165C174.7 264.606 174.131 264.274 175.144 267.328C175.512 268.438 176.307 271.266 176.97 273.612C178.053 277.742 178.026 278.006 176.91 279.481C176.007 280.647 175.759 281.887 175.733 284.488C175.76 290.1 176.931 290.434 177.024 284.836C177.084 278.967 177.85 279.722 178.88 286.717C179.317 289.505 179.865 292.973 180.081 294.4C180.629 297.868 179.8 298.307 178.171 295.383C174.346 288.603 167.544 280.881 166.079 281.648C164.991 282.259 165.316 284.967 166.924 288.088C169.871 294.034 177.736 306.084 179.164 306.848C180.189 307.432 180.328 307.849 179.849 308.395C179.445 308.816 178.904 310.557 178.602 312.325L178.098 315.473L175.456 315.371C171.126 315.277 168.786 313.407 165.865 307.798C164.006 304.18 163.5 302.653 164.038 302.114C165.053 301.028 163.602 295.788 162.167 295.089C160.903 294.478 155.879 288.228 155.967 287.37C156.001 287.04 157.219 286.912 158.709 287.082C160.198 287.253 161.404 287.257 161.424 287.059C161.526 286.069 159.336 282.146 157.19 279.564C154.991 276.909 154.708 276.142 154.939 273.898C155.196 271.39 155.262 271.331 157.229 271.556C159.731 271.842 160.548 270.934 162.035 266.43C162.842 263.851 163.166 261.284 163.242 257.02C163.269 253.818 163.516 250.241 163.817 249.073C164.439 246.54 166.268 242.81 166.964 242.489C167.276 242.391 169.659 242.663 172.26 243.161C175.92 243.913 176.966 244.3 176.884 245.092C176.83 245.62 177.02 246.71 177.303 247.476C177.586 248.243 177.866 250.212 177.935 251.889C178.116 256.583 178.671 259.985 179.267 260.053C180.16 260.156 180.412 248.9 179.629 246.541C178.945 244.392 178.62 244.622 183.967 243.631C187.895 242.945 190.14 242.801 191 243.233C191.351 243.34 192.162 244.835 192.787 246.375ZM210.311 254.188C211.388 254.845 211.388 254.845 210.063 255.428C208.1 256.339 207.399 256.125 207.555 254.607C207.697 253.221 208.432 253.105 210.311 254.188ZM111.647 261.671C112.651 262.454 112.984 264.495 112.091 264.393C111.197 264.291 107.911 262.246 107.951 261.85C107.978 261.586 108.496 261.244 109.105 261.181C109.661 261.044 110.211 260.973 110.337 260.921C110.456 260.934 111.025 261.266 111.647 261.671ZM358.484 318.733C358.56 323.282 358.351 330.603 357.904 334.959C357.135 343.618 357.128 343.684 352.382 348.817C351.565 349.725 349.784 352.393 348.521 354.719C346.686 357.914 344.508 360.336 339.126 365.196C322.457 380.183 321.642 380.491 305.734 378.672C297.75 377.76 295.03 377.248 294.151 376.413C292.618 374.903 286.018 371.077 284.767 370.934C282.98 370.729 283.049 369.469 284.96 367.884C286.081 366.944 287.141 366.598 287.895 366.885C288.531 367.157 289.378 367.121 289.836 366.772C290.227 366.483 293.129 365.814 296.196 365.296C299.264 364.779 302.543 363.952 303.379 363.446C304.4 362.895 306.228 362.704 308.671 362.983C312.663 363.439 321.89 362.224 324.317 360.899C325.086 360.453 325.77 359.663 325.824 359.135C325.926 358.145 323.953 357.986 316.562 358.343C312.747 358.508 314.001 357.449 326.819 350.034C329.57 348.479 333.918 346.639 336.887 345.91C342.088 344.569 344.966 342.961 345.135 341.311C345.264 340.057 342.622 339.956 338.6 340.965C334.512 342.033 328.762 342.845 328.445 342.408C328.34 342.262 329.636 340.207 331.383 337.87C337.547 329.494 341.218 323.103 341.927 319.712C342.551 316.578 342.624 316.453 344.69 316.288C347.79 316.042 351.309 314.641 354.612 312.415C356.23 311.331 357.702 310.498 357.881 310.518C358.119 310.546 358.343 314.243 358.484 318.733ZM266.457 305.609C266.514 306.818 267.521 309.336 268.649 311.268L270.707 314.708L269.732 324.212L268.756 333.715L270.949 335.835C273.533 338.267 273.544 339.337 270.97 346.788C269.25 351.8 269.157 352.123 269.96 354.284C270.374 355.534 270.523 357.02 270.269 357.725C270.023 358.365 266.738 361.595 263.022 364.909C256.525 370.643 255.882 371.037 248.996 373.522C245.06 374.874 241.627 376.018 241.389 375.99C240.554 375.895 241.076 373.751 242.773 370.139C243.632 368.234 244.803 365.631 245.422 364.299C246.82 361.254 251.938 353.092 255.146 348.852C257.723 345.474 260.84 340.355 260.942 339.365C261.057 338.243 259.143 338.692 257.729 340.133C254.297 343.614 254.628 340.981 258.769 331.171C261.792 324.039 262.828 319.817 262.238 317.346C261.825 315.496 260.341 315.86 260.138 317.84C260.023 318.962 259.225 320.273 258.296 321.102C257.182 321.976 256.576 323.175 256.427 324.627C256.19 326.937 254.711 330.774 254.056 330.699C253.281 330.611 255.396 321.171 256.566 319.168C257.802 317.106 260.216 310.037 261.42 304.766C261.54 304.179 264.172 303.211 265.304 303.341C265.966 303.35 266.368 304.13 266.457 305.609ZM340.472 316.274C340.445 316.538 339.395 317.953 338.147 319.547C336.845 321.067 333.45 325.954 330.579 330.433C323.92 340.689 322.18 342.96 316.837 348.025C312.497 352.136 307.218 355.405 306.532 354.459C306.321 354.168 307.964 351.084 310.064 347.652C313.753 341.663 313.913 341.281 312.988 340.307C312.38 339.77 311.706 339.293 311.408 339.259C310.514 339.156 304.481 345.077 303.842 346.606C302.123 351.017 291.869 361.062 289.367 360.776C288.592 360.688 286.716 361.341 285.178 362.234C282.294 363.907 280.738 363.796 280.934 361.882C281.285 359.051 284.108 349.759 285.025 348.462C286.353 346.677 286.489 345.357 285.411 344.7C284.214 344.029 284.435 343.053 287.015 338.473C289.016 334.829 296.302 325.513 297.488 325.115C298.304 324.807 298.872 325.139 298.864 325.806C298.89 326.143 298.889 326.744 298.907 327.146C298.898 328.414 301.104 328.065 303.75 326.365C306.906 324.388 307.993 324.379 308.822 326.277C309.652 328.174 310.017 328.149 313.565 325.884C319.042 322.437 336.163 315.38 338.427 315.639C339.559 315.769 340.492 316.076 340.472 316.274ZM256.334 307.924C256.273 308.518 255.8 309.599 255.242 310.336C254.684 311.074 252.914 314.811 251.309 318.701C248.592 325.201 248.319 326.104 248.095 331.22C247.89 336.738 244.98 352.163 243.81 354.166C243.451 354.726 242.657 357.173 241.99 359.567C241.228 362.284 240.436 364.13 239.88 364.267C239.257 364.463 239.003 365.168 239.113 366.449C239.247 368.668 238.192 369.549 237.335 367.915C236.972 367.34 236.034 366.498 235.24 366.007C233.752 365.236 233.201 362.969 233.58 359.273C233.682 358.283 233.438 357.721 233.008 357.806C231.524 358.17 229.5 362.613 228.715 367.33C227.694 373.156 228.454 376.916 230.71 377.841C232.278 378.421 232.31 378.692 232.635 384.338C232.827 387.164 232.985 387.382 234.812 387.792L236.758 388.214L235.883 394.391C235.007 400.567 235.007 400.567 236.412 400.394C238.439 400.024 238.033 401.046 235.426 402.952C232.812 404.923 228.365 406.551 222.018 407.896C215.976 409.208 210.585 412.398 196.29 423.049C192.96 425.54 190.042 427.543 189.744 427.509C188.969 427.421 189.231 426.048 190.246 424.963C193.559 421.469 203.496 405.111 203.8 402.742C203.868 402.082 207.082 395.438 214.04 381.678C217.127 375.688 218.043 374.39 220.172 373.031C222.036 371.909 222.932 370.809 223.626 368.752C224.219 367.084 225.216 365.595 226.104 365.162C226.939 364.657 228.122 363.123 228.814 361.666C229.506 360.21 231.996 357.089 234.399 354.827C239.357 349.985 243.075 345.469 242.122 345.36C241.764 345.319 239.928 346.178 238.072 347.234C234.292 349.406 232.232 349.504 230.933 347.486C230.101 346.189 230.135 345.859 231.361 342.728C233.353 337.413 233.413 337.42 236.427 339.768C240.109 342.659 240.52 342.172 241.847 332.776C242.627 327.523 243.356 324.535 244.153 323.224C244.805 322.164 245.357 320.891 245.412 320.363C245.681 318.324 248.625 313.72 251.924 310.358C255.429 306.752 256.517 306.142 256.334 307.924ZM143.066 310.867C147.755 313.34 158.094 320.664 159.077 322.246C160.1 324.032 158.648 324.667 153.848 324.452C147.908 324.174 141.491 321.504 133.333 315.831C129.902 313.435 126.668 311.463 126.192 311.409C125.239 311.3 118.957 313.186 118.107 313.823C117.451 314.349 121.87 318.86 125.533 321.349C128.567 323.499 130.06 325.405 129.454 326.605C128.902 327.877 123.729 328.354 119.281 327.645C117.149 327.268 112.927 326.118 109.91 324.971C103.519 322.638 100.136 322.118 94.5395 322.613L90.5191 323.022L94.9403 323.995C102.135 325.552 107.202 327.867 107.046 329.385C106.951 330.309 103.803 331.618 99.7942 332.495C95.9119 333.32 88.9446 336.597 83.3139 340.36C82.9821 340.656 80.8479 341.48 78.6474 342.364C75.0087 343.75 71.5393 346.425 71.3834 347.943C71.2479 349.263 74.487 348.832 75.7817 347.378C76.5319 346.529 78.5944 345.229 80.3643 344.429C82.187 343.703 86.6287 341.54 90.3148 339.691C94.0076 337.776 97.9713 336.159 99.1832 336.098C100.402 335.97 103.835 334.827 106.917 333.576C112.279 331.252 114.737 330.798 114.602 332.118C114.568 332.448 113.499 333.461 112.206 334.315C102.098 341.172 79.4504 361.552 80.4604 362.869C80.6189 363.087 81.2689 362.628 81.9528 361.838C84.1846 358.888 95.8702 348.405 102.544 343.292C109.158 338.173 115.27 334.999 116.168 336.237C116.379 336.528 116.083 338.831 115.408 341.291C113.477 348.949 115.252 351.622 120.159 348.444C121.386 347.65 122.831 347.08 123.367 347.142C123.963 347.21 124.851 346.777 125.336 346.165C126.505 344.763 129.204 343.135 130.157 343.244C130.574 343.292 130.857 344.059 130.769 344.916C130.593 346.632 131.537 348.009 132.3 347.028C132.513 346.718 134.25 345.648 136.1 344.658C137.957 343.602 140.518 341.557 141.812 340.103C147.357 333.659 152.16 329.734 156.747 327.922C164.097 325.023 165.498 326.051 162.201 331.75C161.39 333.193 159.886 336.093 158.948 338.189C154.542 347.634 150.597 352.592 143.181 357.887C137.059 362.328 135.793 362.918 135.459 361.477C135.341 360.863 135.291 359.589 135.399 358.533C135.555 357.015 135.199 356.373 133.169 355.006C131.821 354.051 130.213 353.266 129.558 353.191C127.592 352.966 121.225 359.784 116.965 366.641C115.749 368.505 115.425 368.135 116.008 365.397C116.296 363.761 115.331 360.245 114.497 360.15C113.663 360.054 110.95 361.814 107.38 364.878C104.547 367.225 103.143 367.398 100.916 365.608C99.1311 364.202 97.1649 363.977 93.8256 364.797C92.2751 365.221 88.103 365.345 83.8592 364.993C79.9065 364.742 76.0729 364.504 75.4108 364.495C74.7418 364.552 69.3146 363.398 63.431 361.991L52.5967 359.483L53.5558 354.251C54.8834 347.192 56.128 344.463 61.4436 336.725C65.0581 331.462 66.0291 329.637 66.2527 327.459C66.4492 325.545 67.0018 324.273 68.0771 323.194C68.8801 322.418 73.9651 319.861 79.3276 317.536C84.6833 315.277 90.119 312.827 91.3324 312.164C100.416 307.06 100.164 307.165 104.667 307.346C107.07 307.42 110.23 307.18 111.767 306.889C114.172 306.362 114.946 306.451 117.658 307.629C120.02 308.7 120.907 308.868 121.147 308.295C121.313 307.846 122.777 307.68 124.81 307.845C126.723 307.997 128.895 307.979 129.763 307.744C132.241 307.092 138.654 308.627 143.066 310.867ZM170.164 321.71C170.315 321.995 171.162 322.559 172.035 322.859C173.901 323.473 175.454 327.723 173.726 327.526C173.249 327.471 172.325 326.498 171.599 325.346C170.728 323.845 169.829 323.208 168.75 323.151C167.611 323.088 167.102 322.762 167.011 321.884C166.914 321.072 167.305 320.783 168.437 320.912C169.271 321.007 170.019 321.36 170.164 321.71ZM137.9 325.367C141.69 327.202 142.363 328.281 139.866 328.529C137.183 328.824 135.12 327.786 134.581 325.989C134.095 324.264 134.037 323.656 134.335 323.691C134.394 323.697 136.002 324.482 137.9 325.367ZM351.58 354.868C351.526 355.396 351.24 355.831 350.882 355.79C350.584 355.756 350.513 355.28 350.746 354.773C351.038 354.272 351.324 353.837 351.443 353.851C351.562 353.864 351.634 354.34 351.58 354.868ZM143.363 333.803C143.343 334.001 142.181 335.337 140.82 336.851C138.995 338.779 137.841 339.448 136.709 339.319C134.445 339.06 128.612 341.265 125.786 343.546L123.365 345.405L122.388 343.758C121.617 342.468 121.527 340.989 121.88 337.557L122.34 333.069L124.347 332.898C125.381 332.816 129.459 333.015 133.345 333.326C137.172 333.63 140.536 333.747 140.795 333.576C141.325 333.103 143.418 333.275 143.363 333.803ZM273.693 366.062C273.575 368.386 273.13 369.203 270.222 372.276C268.39 374.27 266.81 376.159 266.783 376.423C266.64 377.809 262.712 381.433 259.516 383.204C255.233 385.585 250.875 388.693 245.261 393.46C240.245 397.694 239.742 397.903 240.867 395.161C241.406 394.02 242.009 391.085 242.26 388.643C242.773 384.228 242.773 384.228 245.346 382.653C246.765 381.746 249.742 380.351 251.995 379.54C257.006 377.709 261.488 375.15 261.596 374.094C261.947 371.263 271.417 362.397 273.263 363.209C273.614 363.316 273.783 364.604 273.693 366.062ZM270.259 410.673C272.038 411.544 275.614 414.29 278.257 416.728C280.841 419.16 284.443 422.243 286.241 423.517C289.553 425.899 297.395 436.41 297.212 438.192C297.165 438.654 296.369 439.364 295.427 439.724C292.783 440.824 292.926 441.775 296.02 443.931C299.736 446.493 304.849 451.885 305.268 453.669C305.425 454.488 306.567 456.288 307.742 457.757C308.917 459.227 310.962 462.799 312.299 465.623C314.111 469.703 314.544 471.355 314.327 473.467C314.119 474.912 313.741 478.007 313.437 480.376C313.134 482.745 313.125 486.35 313.458 488.391C314.142 493.477 313.566 499.086 312.374 498.95C311.063 498.8 302.76 492.777 299.073 489.35C295.716 486.229 294.268 485.663 292.285 486.772C291.264 487.323 290.689 487.057 288.878 485.314C284.048 480.689 282.365 478.293 282.332 475.685C282.295 474.279 282.071 471.182 281.838 468.751C281.546 466.314 281.199 461.467 281.015 457.974C280.831 454.481 280.411 450.36 280.083 448.853C279.284 444.889 279.498 443.979 280.779 445.594C282.602 447.806 290.981 463.654 291.44 465.642C291.689 466.739 292.374 468.286 292.949 469.153C294.044 470.814 296.433 471.621 297.137 470.634C297.496 470.074 295.129 462.592 292.634 456.364C291.291 453.006 291.391 452.617 293.162 454.154C293.711 454.685 294.412 454.898 294.671 454.728C295.407 454.01 294.226 449.669 292.418 446.725C291.435 445.143 290.631 443.582 290.658 443.318C290.685 443.054 289.473 440.178 287.938 436.931C284.92 430.51 283.334 428.927 277.552 426.53C275.76 425.791 273.366 424.449 272.255 423.521C271.145 422.592 269.075 421.621 267.599 421.319C261.099 420.042 259.471 419.455 256.357 417.497C253.137 415.393 251.857 413.176 252.532 410.716C253.373 407.808 264.769 407.775 270.259 410.673ZM245.899 418.371C246.293 419.818 248.542 423.748 250.964 427.163C255.122 433.047 255.306 433.602 256.089 438.899C256.767 443.45 257.28 444.911 259.029 447.248C261.479 450.399 261.319 450.781 260.319 442.321C260.019 439.95 259.933 437.269 260.147 436.359C260.475 434.927 260.831 435.569 262.859 440.475C265.071 445.935 267.666 449.437 269.269 449.086C269.58 448.988 270.113 447.914 270.48 446.687C271.71 441.753 273.094 441.778 274.512 446.748C275.668 450.752 277.372 467.039 277.013 470.537C276.857 472.055 277.205 473.363 278.156 474.673C279.053 475.911 279.316 476.876 278.996 477.641C276.954 481.681 275.502 485.254 275.373 486.508C275.285 487.366 274.86 487.985 274.443 487.937C273.371 487.814 268.157 482.812 265.887 479.681C262.982 475.677 258.198 460.04 258.625 455.882C258.835 453.836 258.312 453.643 255.794 454.69C253.52 455.699 251.501 458.339 250.852 461.136C250.544 462.37 250.012 463.444 249.641 463.535C249.27 463.626 247.756 462.518 246.269 461.146C243.858 458.801 243.561 458.166 243.061 454.236C242.702 451.858 242.506 447.896 242.525 445.361C242.537 442.892 242.324 440.865 242.145 440.844C241.072 440.722 238.617 442.911 237.633 444.869C236.641 446.892 236.449 447.004 236.028 445.82C235.738 445.12 235.786 441.72 236.085 438.215C236.588 432.731 237.009 430.976 239.413 425.175C243.703 414.514 244.645 413.554 245.899 418.371ZM258.641 426.371C258.586 426.899 258.122 427.313 257.645 427.259C256.692 427.15 256.535 426.331 257.324 425.687C258.061 424.969 258.749 425.315 258.641 426.371ZM283.675 436.177C286.636 438.452 286.86 439.212 284.884 440.255C283.671 440.917 283.281 440.606 280.561 437.156C278.85 435.025 277.305 433.045 277.035 432.747C276.018 431.496 281.17 434.155 283.675 436.177ZM268.75 433.002C271.03 434.865 271.602 436.934 270.28 438.652C269.729 439.323 268.886 439.895 268.41 439.84C267.576 439.745 265.648 434.45 265.831 432.668C265.98 431.216 266.628 431.357 268.75 433.002ZM178.11 435.727C178.022 436.585 172.684 445.123 170.898 447.256C167.113 451.831 168.019 449.464 172.477 443.029C174.876 439.631 176.823 436.515 176.864 436.119C176.905 435.723 177.236 435.427 177.534 435.461C177.892 435.502 178.117 435.661 178.11 435.727Z" fill="#FBF8EF"></path><path d="M253.637 246.607C252.795 247.778 252.854 247.785 254.052 247.255C254.747 246.934 255.344 246.402 255.378 246.072C255.493 244.951 254.56 245.245 253.637 246.607Z" fill="#FBF8EF"></path></svg> 