<?xml version="1.0" encoding="UTF-8"?> <svg xmlns="http://www.w3.org/2000/svg" width="132" height="145" viewBox="0 0 132 145" fill="none"><path d="M96.9532 91.001C99.7799 90.4883 101.224 91.2713 100.969 93.1899C100.823 94.2945 98.7447 96.2671 93.2119 100.444C89.0234 103.616 84.1937 107.058 82.3787 108.059C80.6222 109.128 79.4101 110.151 79.7837 110.378L71.9369 114.422L53.4369 111.606C52.8684 111.379 52.0664 111.199 51.0295 111.062C46.607 110.416 35.8727 106.627 31.7474 104.246C29.9378 103.178 30.7454 102.161 36.3212 98.1676C41.2172 94.7345 43.1741 92.1543 42.095 90.6505C41.7599 90.1328 39.366 88.3956 36.8907 86.766C30.5777 82.6161 29.1745 80.0046 32.3184 78.1141C34.0749 77.0455 34.326 75.6589 33.3337 71.9777C32.6887 69.23 32.7118 69.0556 34.1486 67.353C35.0962 66.2954 36.8528 65.2267 38.5983 64.7482C40.5423 64.296 41.9373 63.416 42.6127 62.3815C44.7359 59.0542 44.4065 50.3732 42.0288 45.9759C41.4248 44.9493 41.3485 42.9869 41.6754 40.0131C42.1488 35.9346 41.9768 35.2019 39.3708 28.4672C36.1331 20.4063 35.9476 18.252 38.7082 17.7305C41.2626 17.2409 47.4628 18.1812 49.3893 19.3831C50.3272 19.9216 52.6152 20.9348 54.4865 21.5378C59.1318 23.041 61.0429 24.3593 66.1007 29.3484C68.4759 31.7339 71.1817 34.1631 72.178 34.7685C73.1005 35.4232 76.0091 38.3527 78.5056 41.3458C82.9883 46.6137 83.2373 46.7651 85.664 46.7318C88.0246 46.6897 88.2736 46.8411 89.5831 49.1444C90.347 50.4881 90.9247 52.2211 90.8091 53.0932C90.7012 53.9071 90.902 55.9452 91.2229 57.5851C92.4436 63.6037 92.3426 66.9033 90.808 71.3735C90.0292 73.6958 89.4641 75.9282 89.5501 76.2945C89.6361 76.6609 91.5582 77.3889 93.7094 77.9108C95.9345 78.3832 97.8135 78.9281 97.9965 79.0707C98.1133 79.2045 98.2237 80.4023 98.2525 81.7076C98.2781 83.545 97.7702 84.8384 96.0502 87.1542C93.5732 90.6121 93.7728 91.6443 96.9532 91.001ZM90.1479 97.6714C89.7082 97.4356 88.5488 97.0452 87.58 96.7394C84.8722 95.848 85.4835 93.2668 89.3677 89.3447C93.7103 85.0101 93.5691 84.0448 88.321 82.5209C82.2365 80.7085 81.5651 78.6673 85.0655 72.5645C87.3396 68.6065 87.5895 66.214 86.1246 64.0676C85.7818 63.608 85.5039 62.1513 85.4167 60.7791C85.3282 58.401 85.2114 58.2672 83.3137 58.3706C81.6221 58.4421 81.2562 58.1569 80.4801 56.3976C76.8149 48.5167 70.9676 40.3466 68.7194 40.0485C66.9418 39.7537 58.8114 34.5939 57.7984 33.0989C56.3336 30.9525 55.0849 30.7278 53.8034 32.2736L52.8405 33.4474L51.8275 31.9525C51.2003 31.1002 50.8486 29.6929 50.9642 28.8209C51.1414 27.4837 50.8571 27.091 49.1764 26.5724C46.5931 25.7567 43.3531 25.3272 43.2915 25.7923C43.2683 25.9667 43.6817 26.9089 44.3012 27.8192C46.2224 31.0911 46.9624 35.1529 46.1296 37.8822C45.4477 39.9807 45.6165 41.2455 46.9284 45.5606C48.8842 51.6175 48.9885 57.429 47.3095 61.466C46.4369 63.4801 45.0971 64.9589 42.0392 67.2158C38.0061 70.2307 37.9984 70.2889 38.4483 72.4783C38.9367 74.377 38.6394 76.1124 37.3295 79.9025C37.0971 80.6407 37.5413 81.3504 38.5376 81.9557C39.4094 82.4854 41.7834 83.865 43.8344 85.1426C47.2631 87.1944 47.5552 87.529 47.4992 89.4738C47.4047 91.7094 44.3108 96.2687 40.6436 99.5688C39.5714 100.551 38.6315 101.55 38.6007 101.783C38.5699 102.015 39.7492 102.763 41.1929 103.546C43.4655 104.676 45.1692 105.02 52.0262 105.574C59.9488 106.21 60.221 106.187 60.795 104.902C61.1674 104.123 62.2395 103.142 63.1839 102.616C64.622 101.919 64.882 101.48 64.4301 100.829C64.0289 100.302 63.45 97.5635 63.0342 94.6095C61.6718 84.0759 55.9774 73.7371 49.7042 70.3025C46.2601 68.3669 45.9173 67.9074 47.3939 66.9199C50.0518 65.1425 56.7648 68.8129 60.8275 74.2026C62.3155 76.1746 63.7991 77.6728 64.0283 77.4666C64.6343 76.9553 67.0216 70.1134 67.299 68.0204C67.6227 65.5786 65.8215 61.9086 59.3381 51.9384C55.0912 45.4003 53.5046 39.0965 56.059 38.6069C58.5474 38.1085 64.1862 44.2987 68.2944 51.8834C71.5373 57.8743 74.6176 67.6299 75.1969 73.9185C76.6457 88.3682 76.3237 95.3655 73.8439 102.905C73.1235 105.294 72.5584 107.527 72.6367 107.951C72.8164 108.626 76.2138 107.36 78.4442 105.763C79.0425 105.31 80.9974 104.267 82.7892 103.44C86.8896 101.44 90.7641 99.1137 90.8489 98.4742C90.8874 98.1835 90.5292 97.8402 90.1479 97.6714ZM66.1594 103.01C65.4321 102.914 63.1483 108.468 63.5848 109.236C64.1734 110.379 65.0439 109.903 65.5551 108.077C66.4803 104.65 66.6884 103.081 66.1594 103.01Z" fill="#3D2A23"></path></svg> 