<?xml version="1.0" encoding="UTF-8"?> <svg xmlns="http://www.w3.org/2000/svg" width="607" height="669" viewBox="0 0 607 669" fill="none"><path d="M443.392 113.089C444.471 115.259 445.111 117.867 445.096 119.995C445.051 121.886 445.062 123.511 445.063 123.659C445.124 123.837 446.486 124.237 448.233 124.612C452.556 125.638 456.837 128.998 463.336 136.729C467.868 142.131 469.772 143.838 474.316 146.817C482.899 152.444 488.502 158.982 489.368 164.282C489.585 165.644 490.38 169.436 491.083 172.666C493.526 183.481 493.583 183.216 486.007 198.494L479.362 211.745L482.354 208.411C483.996 206.598 486.076 204.051 487.013 202.762C488.446 200.621 488.741 200.477 490.077 201.379L491.533 202.342L488.122 209.07C486.287 212.772 483.398 217.998 481.762 220.698C479.804 223.897 478.901 225.718 479.257 225.9C479.613 226.081 481.731 224.658 483.994 222.793C486.286 220.869 488.198 219.562 488.317 219.77C488.408 220.037 487.205 221.264 485.765 222.518C483.532 224.324 482.596 225.762 480.471 230.347C478.433 234.608 477.439 236.163 476.173 236.916C475.26 237.408 473.058 239.451 471.21 241.38C469.361 243.309 467.068 245.085 466.124 245.339C463.823 245.933 463.504 246.875 465.34 247.222C466.198 247.439 469.516 248.394 472.716 249.436C477.901 251.122 478.791 251.576 481.587 254.032C483.223 255.529 485.395 257.446 486.406 258.255C489.945 261.311 491.119 268.388 488.817 273.031C487.768 275.146 486.946 275.905 484.647 276.794C478.722 279.148 469.311 277.59 466.653 273.805C466.116 273.09 464.096 271.618 462.078 270.589C459.052 269.047 457.691 268.794 453.405 268.892C447.288 269.086 442.017 267.724 432.557 263.564C425.649 260.558 425.411 260.437 423.053 257.247C421.71 255.458 419.377 251.618 417.908 248.734C412.931 238.983 411.951 238.262 401.205 236.097L394.456 234.717L392.755 232.451C389.89 228.635 391.16 228.473 397.421 231.885C400.448 233.576 404.748 235.547 406.911 236.282C411.978 237.908 416.078 240.881 420.49 246.075C427.763 254.495 429.488 255.963 434.854 258.183C444.134 262.104 447.925 263.153 452.448 263.177C459.72 263.203 460.786 263.452 468.881 267.064C476.917 270.645 479.048 270.995 482.138 269.111C483.492 268.328 483.372 267.972 481.053 266.202C474.218 261.097 472.023 259.978 465.627 258.485C460.831 257.365 458.252 256.418 455.195 254.639C452.553 253.071 450.151 252.068 448.08 251.748C443.996 251.138 437.383 248.135 432.718 244.8C429.866 242.757 428.205 241.91 425.984 241.441C421.041 240.467 418.558 236.33 420.51 232.392L421.384 230.63L431.234 235.651L441.143 240.702L442.493 239.329C443.55 238.396 445.174 238.119 449.136 238.225C454.192 238.373 454.545 238.259 461.435 234.409L468.559 230.385L473.289 222.195C475.888 217.704 477.959 213.827 477.839 213.619C477.808 213.382 476.565 213.19 475.175 213.144C473.785 213.098 470.883 212.355 468.69 211.531L464.689 210.007L461.454 212.333L458.16 214.629L458.189 218.767C458.176 221.042 458.315 223.911 458.53 225.125C458.843 227.493 457.47 229.811 455.843 229.644C455.341 229.609 454.33 228.799 453.525 227.874C452.511 226.621 452.172 224.607 452.072 218.961C451.951 210.36 450.194 204.458 446.134 198.855C443.06 194.711 440.803 193.266 435.443 191.932C432.275 191.127 430.801 191.7 431.758 193.219C433.403 195.898 430.588 207.42 426.015 216.794C423.48 221.906 419.23 227.028 415.611 229.38C412.051 231.614 405.341 231.653 400.95 229.415C399.052 228.447 396.861 227.919 394.555 227.921C385.54 227.963 385.747 227.995 385.053 226.096C383.609 222.562 385.731 221.73 390.448 224.061C391.575 224.635 393.913 225.018 395.568 224.978C398.228 224.861 398.729 224.601 399.337 222.924C399.976 221.335 400.506 221.016 402.692 220.806C404.14 220.734 405.736 220.812 406.211 221.054C407.932 221.931 414.452 220.175 416.98 218.225C423.976 212.81 427.262 205.283 426.172 197.438C425.829 194.982 425.474 190.751 425.395 188.061C425.137 180.936 424.926 180.313 421.145 176.545C416.5 171.821 413.807 167.356 411.721 160.771C410.602 157.33 409.403 154.951 408.631 154.558C405.487 152.955 400.353 154.313 393.348 158.546C390.935 159.966 388.342 161.147 387.485 161.226C386.629 161.304 384.654 162.138 383.095 163.184L380.27 164.983L380.472 168.325C380.718 173.825 379.562 181.702 377.674 186.26C376.744 188.584 375.965 191.205 375.972 192.092C375.898 194.189 374.142 196.681 372.606 196.781C370.863 196.997 367.291 193.409 366.057 190.35C365.003 187.678 364.942 183.304 365.876 177.522C366.443 174.13 366.966 172.925 368.403 171.227C370.631 168.682 373.974 160.89 375.063 155.997C375.663 153.137 375.568 152.279 374.468 151.35C372.653 149.763 372.648 149.024 374.862 144.558C377.106 140.033 380.943 135.142 386.403 129.828C390.924 125.507 390.951 125.153 388.619 117.264L387.135 112.311L385.426 113.06C384.217 113.548 382.869 115.069 380.969 118.15C379.538 120.586 376.903 124.101 375.114 126.06C368.163 133.633 365.944 141.557 365.978 158.728C366.007 162.718 365.794 165.996 365.528 166.081C365.234 166.225 364.432 165.743 363.689 165.143C362.023 163.705 360.827 157.722 360.533 149.621C360.333 142.378 360.986 138.662 364.095 131.044C366.041 126.22 366.8 124.988 368.329 123.853C369.623 122.893 370.969 120.929 372.746 117.344C376.709 109.352 377.677 108.299 382.719 106.526C386.168 105.266 387.257 104.57 387.837 103.099C388.651 101.158 390.972 99.1757 391.921 99.6596C392.218 99.8109 393.869 99.1801 395.606 98.2252C397.343 97.2703 399.231 96.7605 399.765 97.0327C400.299 97.3049 401.378 99.3272 402.074 101.522C402.769 103.717 403.729 105.679 404.204 105.921C405.984 106.829 403.515 108.809 398.443 110.493C395.494 111.493 393.018 112.439 392.96 112.557C392.872 112.733 393.329 114.512 393.935 116.588C394.541 118.663 394.909 120.618 394.734 120.971C393.744 122.969 402.782 121.981 407.878 119.499C415.33 115.863 417.867 115.095 422.331 115.236C427.594 115.416 429.865 114.733 435.249 111.22C437.75 109.624 439.636 108.819 440.378 109.123C441.059 109.397 442.402 111.186 443.392 113.089ZM434.626 119.074C432.15 120.02 428.637 120.659 424.735 120.731C419.415 120.817 418.117 121.186 413.14 123.728C407.604 126.648 406.66 126.903 399.16 128.086L395.263 128.749L393.435 133.486C391.547 138.192 387.041 144.582 384.159 146.647C383.336 147.258 383.22 147.64 383.816 148.239C384.918 149.463 383.66 151.251 381.474 151.462C379.111 151.73 378.322 153.021 378.933 155.688L379.42 157.703L383.284 156.507C385.584 155.766 388.028 154.435 389.143 153.236C392.136 150.198 397.35 147.777 401.811 147.326C405.297 147.042 405.797 146.782 406.171 145.279C407.776 138.294 409.155 136.862 414.417 136.894C418.969 136.859 421.676 139.344 427.12 148.303C428.377 150.416 429.904 153.182 430.415 154.4C431.015 155.589 431.703 156.75 432 156.901C432.89 157.355 433.468 155.44 432.924 153.838C432.441 152.414 432.589 152.416 434.99 153.419C437.866 154.664 438.719 153.995 437.665 151.323C437.003 149.66 435.639 149.112 430.936 148.702C429.783 148.63 431.298 145.574 433.674 143.031C435.2 141.453 435.49 140.717 435.387 138.677C435.362 135.13 436.265 129.26 437.818 123.131C438.536 120.184 438.991 117.766 438.813 117.675C438.635 117.584 436.777 118.183 434.626 119.074ZM445.223 129.483C444.602 129.387 443.779 129.998 443.4 130.762C442.322 132.936 442.517 143.637 443.684 149.827L444.729 155.366L448.641 156.771C455.072 159.092 458.457 161.26 461.113 164.749C463.887 168.298 465.703 174.23 464.713 176.228C464.334 176.992 464.611 178.532 465.331 180.077C466.051 181.474 466.575 184.465 466.532 186.8C466.5 190.464 466.298 191.171 464.772 192.749C463.804 193.801 462.167 196.353 461.118 198.469C459.253 202.23 457.961 203.338 455.712 203.075C455.15 203.009 455.308 204.489 456.155 207.129C456.94 209.443 457.87 211.316 458.342 211.262C458.786 211.267 460.285 210.044 461.723 208.642C463.073 207.269 465.603 205.614 467.283 204.924C470.762 203.606 470.615 203.752 483.314 181.588C485.241 178.153 484.775 175.044 480.928 166.163C477.591 158.351 476.072 156.767 466.186 150.77C459.802 146.854 456.765 143.685 452.486 136.424C449.613 131.573 447.679 129.778 445.223 129.483ZM415.52 142.315C412.183 142.749 411.675 146.171 414.532 148.805C415.691 149.765 417.453 152.209 418.501 154.142C420.359 157.592 422.618 159.332 424.774 159.18C426.724 158.996 426.041 154.378 423.499 150.359C418.207 141.992 418.177 141.903 415.52 142.315ZM449.433 164.168C447.543 164.383 446.493 166.35 447.186 168.25C447.608 169.348 448.117 170.27 448.354 170.391C448.592 170.512 448.897 171.846 449.055 173.325C449.213 174.805 449.637 176.199 450.053 176.411C450.883 176.834 460.213 175.259 460.947 174.529C461.475 174.062 457.238 168.516 455.158 167.014C452.811 165.301 450.319 164.031 449.433 164.168ZM434.06 159.792C432.415 161.161 432.386 161.22 434.615 163.019C436.221 164.28 436.457 164.253 437.069 163.019C438.468 160.198 436.382 157.957 434.06 159.792ZM438.852 168.418C438.531 169.065 438.419 169.891 438.687 170.249C439.524 171.559 438.289 172.401 435.805 172.313C432.938 172.25 432.497 172.688 433.192 174.735C433.735 176.338 437.624 178.541 439.039 178.084C439.747 177.856 440.281 178.128 440.938 179.052C442.103 180.75 440.85 183.277 438.403 184.165C436.929 184.739 436.13 184.552 434.407 183.379C433.189 182.537 431.765 181.811 431.114 181.774C430.078 181.614 430.021 181.88 430.362 184.041L430.734 186.439L433.896 186.358C436.438 186.329 437.978 186.82 442.191 188.967C445.099 190.449 447.5 191.453 447.588 191.276C447.704 191.041 447.106 190.148 446.361 189.253C444.99 187.67 444.989 187.522 446.685 185.001C448.558 182.274 449.059 177.965 447.547 177.416C445.977 176.836 445.381 176.238 445.76 175.474C446.225 174.386 442.877 169.145 441.007 168.118C439.821 167.513 439.26 167.596 438.852 168.418ZM423.165 165.575L421.099 165.994L422.857 167.994C423.841 169.158 424.883 170.205 425.18 170.356C426.07 170.81 427.913 168.142 427.872 166.575C427.801 164.92 427.18 164.824 423.165 165.575ZM454.295 182.696C453.855 183.134 453.834 184.375 454.199 185.739C455.047 188.675 454.851 198.366 453.909 198.916C453.497 199.148 453.47 199.502 453.885 199.714C454.36 199.956 454.857 199.252 455.435 197.338C455.867 195.866 456.997 192.687 457.927 190.363C458.885 187.981 459.548 185.595 459.455 185.032C459.09 183.521 455.323 181.822 454.295 182.696Z" fill="#FBF8EF"></path><path d="M430.324 145.095C430.178 145.389 429.646 145.709 429.261 145.734C428.816 145.729 428.607 145.548 428.782 145.195C428.928 144.9 429.4 144.55 429.846 144.556C430.231 144.53 430.5 144.741 430.324 145.095Z" fill="#FBF8EF"></path><path d="M338.13 122.049C338.162 122.435 339.506 123.488 341.115 124.307C345.525 126.552 345.298 127.913 340.076 132.565C334.912 137.099 331.471 141.624 330.28 145.374C327.114 155.208 326.238 157.273 323.358 161.419C320.009 166.359 318.234 167.228 314.807 165.557C312.959 164.617 312.958 164.469 314.012 162.347C314.657 161.198 316.156 159.082 317.393 157.644C320.662 153.917 324 147.346 325.032 142.26C325.952 138.002 328.41 133.051 330.565 131.268C332.247 129.835 329.989 129.572 326.405 130.775C322.998 131.921 322.851 132.067 319.093 137.981C315.275 143.865 313.89 145.301 310.368 146.979C308.06 148.019 307.357 149.434 308.815 149.807C309.41 149.962 310.593 149.383 311.449 148.563C312.333 147.684 313.959 146.665 315.025 146.322C316.685 145.838 317.22 145.963 318.357 147.132C319.104 147.882 319.768 149.401 319.806 150.528C319.909 152.426 319.761 152.573 316.004 154.426C304.377 160.248 302.399 161.825 298.026 168.977C294.035 175.511 292.784 179.083 292.844 183.323C292.883 184.598 291.664 188.555 290.06 192.686C288.485 196.61 287.323 200.154 287.505 200.69C288.263 202.922 295.853 201.321 299.572 198.193C302.582 195.59 303.78 197.086 302.328 201.663C300.355 208.043 289.798 214.115 284.971 211.657C284.077 211.202 283.633 211.493 282.697 213.379C281.38 216.032 280.814 219.879 281.648 220.303C281.946 220.455 284.444 220.988 287.09 221.523C291.817 222.379 295.556 222.067 296.2 220.77C296.698 219.768 302.754 215.541 303.291 215.814C304.125 216.239 304.647 214.437 304.565 211.294C304.517 208.833 304.836 207.74 306.599 205.093C308.537 202.092 308.681 201.501 308.47 196.963C308.362 194.324 308.633 190.621 309.065 188.848C309.527 187.016 309.96 185.242 310.016 184.828C310.042 184.324 308.82 183.628 306.438 182.711C304.354 181.946 302.418 181.034 302.088 180.644C300.952 179.475 303.741 175.061 306.405 173.907C308.714 173.015 309.605 173.026 316.028 174.375C319.002 175.003 320.392 174.308 318.306 173.246C315.028 171.577 320.539 169.952 326.987 170.65C329.751 170.949 332.246 171.038 332.63 170.864C332.956 170.661 336.172 172.003 339.748 173.823C345.47 176.736 346.962 177.791 351.178 181.931C356.471 187.21 360.216 191.848 365.051 199.404L368.204 204.332L366.857 207.043C365.892 208.988 365.693 210.29 366.118 211.54C367.148 214.427 370.953 219.244 373.099 220.337C375.602 221.611 377.612 224.48 377.51 226.791C377.517 227.828 377.969 228.723 378.863 229.178C379.638 229.573 380.355 230.233 380.536 230.621C380.748 231.097 381.915 232.356 383.2 233.527C388.072 238.001 393.782 247.553 397.416 257.526C398.567 260.622 399.983 263.484 400.52 263.905C401.267 264.507 401.336 265.871 400.794 268.918C400.335 271.195 399.755 273.115 399.488 273.201C399.222 273.287 398.24 273.008 397.286 272.523C395.736 271.734 395.559 271.791 395.185 273.447C394.955 274.511 394.701 276.376 394.591 277.649C394.213 282.921 388.136 296.663 386.586 295.874C386.288 295.723 385.152 294.553 384.043 293.177C382.157 290.961 382.003 290.218 382.113 284.884C382.209 281.684 381.786 276.521 381.229 273.432C380.584 270.371 379.9 266.035 379.617 263.898C379.423 261.732 378.569 258.491 377.754 256.673C376.939 254.855 375.701 251.936 374.976 250.238C374.192 248.509 373.457 245.477 373.324 243.49C373.122 240.138 370.865 231.752 370.09 231.358C369.852 231.236 368.297 233.916 366.6 237.334C364.141 242.285 363.23 243.668 362.075 244.04C360.802 244.499 360.563 244.378 359.661 242.737C359.09 241.782 358.841 240.178 359.041 239.173C359.908 235.774 359.962 235.063 359.366 234.76C359.068 234.608 358.27 235.162 357.652 235.955C356.858 236.953 355.822 237.386 354.425 237.192C353.207 237.089 351.785 237.546 350.93 238.366C347.804 241.353 345.46 241.563 344.965 238.8C344.718 237.493 344.599 237.432 343.146 237.801C342.287 238.028 340.861 237.893 339.967 237.437C338.656 236.77 337.412 237.319 330.762 241.539C323.373 246.195 319.405 247.72 312.877 248.384C308.961 248.753 311.233 246.883 316.361 245.579C323.296 243.793 325.331 241.95 330.11 233.38C334.242 225.81 334.353 224.685 330.833 226.659C328.674 227.849 318.342 236.176 311.822 241.94C306.836 246.416 304.382 247.899 298.222 250.08C295.053 251.199 293.042 252.391 291.6 254.093C290.451 255.354 289.214 256.792 288.802 257.321C287.83 258.377 285.779 258.145 285.652 256.899C285.491 255.267 282.84 258.2 280.821 262.267C279.357 265.214 278.621 266.094 277.347 266.406C273.82 267.343 274.08 266.367 280.665 252.957C286.078 241.905 286.867 240.017 286.615 238.117C286.361 235.772 286.447 235.299 287.222 235.694C288.294 236.24 288.564 240.659 287.789 244.474C286.958 248.555 287.57 251.082 289.348 250.658C289.941 250.517 290.591 250.109 290.825 249.638C291.03 249.225 293.426 248.008 296.061 246.913C301.509 244.813 306.03 241.724 313.464 235.023C323.436 226.069 327.866 222.712 332.838 220.517C334.762 219.651 337.807 217.878 339.639 216.595C341.589 215.225 344.253 214.07 346.032 213.795C350.452 213.165 355.155 210.611 355.97 208.368C356.552 206.745 356.341 206.268 352.902 202.819C349.432 199.28 348.477 198.647 339.121 194.032C333.549 191.269 327.771 188.771 326.224 188.426C324.737 188.113 322.774 187.556 321.91 187.19C320.451 186.669 320.008 186.961 317.949 189.604C316.624 191.219 315.091 192.802 314.469 193.002C313.108 193.638 313.088 195.031 314.292 201.329C314.754 203.706 314.893 206.583 314.575 207.676C314.141 209.301 314.354 210.074 315.728 211.217C317.491 212.779 317.496 213.372 315.753 214.626C311.764 217.395 309.492 219.414 308.112 221.443C307.2 222.677 305.459 224.228 304.276 224.807C303.003 225.415 301.704 226.378 301.263 226.965C300.703 227.641 299.458 227.893 297.823 227.577C296.366 227.353 293.962 227.532 292.511 228.049C290.852 228.533 289.278 228.544 288.265 228.028C286.745 227.181 279.607 225.467 276.308 225.043C274.822 224.877 274.645 225.083 273.042 229.214C271.614 232.991 271.291 233.491 270.397 233.036C269.026 232.338 268.912 233.019 269.334 238.033C269.726 242.958 269.286 251.965 268.535 254.979C268.187 256.131 267.335 257.396 266.597 257.98C265.149 258.941 264.751 261.397 264.524 271.176C264.418 272.894 264.281 274.523 264.135 274.818C263.842 275.407 264.148 280.805 264.446 280.957C264.565 281.018 266.28 279.971 268.26 278.69C272.013 276.244 272.759 276.697 270.081 279.986C268.08 282.511 267 285.137 265.526 290.811C264.632 294.417 263.813 296.215 261.727 299.214C257.672 305.125 255.099 310.756 254.303 315.668C253.905 318.123 253.212 320.872 252.714 321.874C251.984 323.496 252.014 323.585 253.198 323.006C253.878 322.688 255.293 321.193 256.292 319.782C258.202 316.988 262.724 314.047 264.095 314.745C265.108 315.261 263.318 318.263 257.17 326.284C252.905 331.866 252.934 331.807 248.197 346.157C244.362 357.939 242.51 368.737 243.867 371.717C244.41 372.88 244.18 373.944 243.185 375.948C241.633 378.924 240.844 384.873 240.198 398.204C239.51 414.173 239.588 424.993 240.42 425.122C241.877 425.346 246.227 419.143 251.353 409.421C257.037 398.727 261.743 392.557 266.442 389.559C267.89 388.598 272.243 386.9 276.006 385.788C281.457 384.133 283.92 383.836 288.05 384.24C294.556 384.82 295.919 384.332 294.536 382.003C292.342 378.302 290.792 373.304 290.887 369.956C291.054 360.146 290.832 358.187 289.145 354.818C287.398 351.418 287.397 351.27 288.926 349.094C290.042 347.447 290.304 346.621 289.881 345.667C289.579 344.922 289.454 344.121 289.63 343.767C289.776 343.472 289.935 340.747 289.943 337.724C289.997 332.804 290.17 332.154 291.703 330.571C293.029 329.253 293.711 329.083 294.606 329.686C295.71 330.47 296.005 330.177 298.442 326.322C299.821 323.997 301.82 321.174 302.821 320.06C306.591 315.776 306.617 315.272 302.761 311.611C297.379 306.509 290.411 295.43 285.611 284.347C283.982 280.712 282.176 277.43 281.58 277.126C280.746 276.702 280.653 276.137 281.18 275.076C281.59 274.251 281.613 273.451 281.256 273.269C280.839 273.057 279.623 273.25 278.438 273.681C274.5 275.146 272.996 272.461 276.514 270.338C277.549 269.758 279.769 268.746 281.457 268.203C285.959 266.655 286.963 265.836 285.678 264.665C284.482 263.614 284.567 262.992 286.162 261.885C286.724 261.506 287.993 260.454 288.878 259.575C290.647 257.965 291.42 258.063 293.246 260.1C294.263 261.209 295.332 261.162 300.995 259.983C304.671 259.196 308.824 258.652 310.19 258.757C311.557 258.862 314.288 258.776 316.217 258.65C318.175 258.465 322.662 258.903 326.2 259.597C329.709 260.349 334.436 261.205 336.666 261.527C341.511 262.296 343.775 263.3 343.16 264.538C342.926 265.01 342.423 265.27 342.125 265.119C341.231 264.664 335.484 266.464 335.045 267.348C334.869 267.702 335.676 268.482 336.899 269.178C346.526 274.3 352.251 277.657 353.418 278.916C354.196 279.755 355.778 280.93 356.97 281.536C359.771 282.962 361.983 284.974 368.894 292.258C373.71 297.295 374.731 298.848 376.094 302.569C378.487 309.178 381.045 313.95 385.183 319.601C387.852 323.249 389.237 326.022 390.121 329.204C391.342 333.812 392.959 335.669 393.954 333.665C394.422 332.722 397.711 331.812 398.725 332.328C398.903 332.419 398.999 333.28 398.887 334.257C398.696 336.596 399.381 336.871 401.982 335.241C403.195 334.603 405.414 333.592 406.896 333.165C408.466 332.709 411.634 331.442 413.972 330.343C418.825 328.087 420.785 328.051 421.722 330.374C422.206 331.654 422.004 332.512 420.478 334.984C419.127 337.102 418.778 338.106 419.315 338.379C419.672 338.561 423.115 338.394 426.853 337.934C430.562 337.532 434.864 337.138 436.378 337.096C437.892 337.055 440.86 336.793 442.996 336.551C447.357 336.039 448.132 336.434 447.258 338.795C446.938 339.74 446.944 340.629 447.242 340.781C447.898 341.114 458.006 342.863 461.631 343.232C462.968 343.396 465.258 343.897 466.686 344.328C468.115 344.76 471.323 345.064 473.906 344.976C480.467 344.845 482.998 345.912 490.048 351.864C493.305 354.629 496.23 356.857 496.437 356.741C496.852 356.657 498.797 362.816 499.75 367.362C500.149 369.116 498.813 369.248 496.071 367.704C493.119 365.98 491.993 366.293 490.559 369.181C490.061 370.183 488.71 372.301 487.534 373.918C486.299 375.504 484.065 378.65 482.507 380.884C480.127 384.325 477.944 386.315 468.227 393.552C461.936 398.251 455.644 402.653 454.342 403.32C451.679 404.622 444.498 405.25 441.286 404.501C434.207 402.817 432.455 402.737 430.593 403.931C429.559 404.66 427.78 405.084 426.711 404.982C425.67 404.822 423.534 405.064 422.142 405.462C419.416 406.29 418.166 405.949 408.729 402.4C405.96 401.36 402.597 400.313 401.231 400.208C399.477 399.98 395.724 398.365 388.392 394.485C373.074 386.539 364.071 381.513 362.606 380.103C361.589 379.143 360.281 378.92 356.601 379.114C354.049 379.291 351.733 379.294 351.435 379.142C349.945 378.384 342.472 379.749 330.766 382.872C326.706 383.981 321.874 384.991 320.034 385.088C316.561 385.314 315.618 386.311 316.881 388.431C317.421 389.297 318.017 389.6 318.996 389.434C329.17 388.041 342.418 388.73 352.471 391.189C360.651 393.212 362.885 394.127 362.715 395.37C362.604 396.347 367.414 400.494 370.424 402.1C372.331 403.071 374.003 404.365 382.068 410.981C388.071 415.883 393.339 421.813 395.209 425.867C395.902 427.327 398.904 431.809 401.872 435.756C408.496 444.519 409.46 446.338 410.543 452.576C411.716 458.785 411.759 460.653 410.815 461.501C410.402 461.882 410.131 465.436 410.219 469.468C410.358 476.406 409.183 482.232 406.208 489.726C405.304 491.998 405.034 491.639 411.333 496.396C413.124 497.751 413.275 498.049 412.086 497.887C411.284 497.848 408.962 496.961 406.935 495.93L403.211 494.107L401.125 497.255C399.275 500.079 399.038 500.254 398.821 498.888C398.637 498.056 398.923 496.577 399.362 495.693C399.86 494.691 399.852 493.653 399.492 493.175C399.044 492.725 395.441 491.26 391.482 489.909C387.523 488.559 381.418 485.968 377.961 484.208C374.087 482.236 370.96 481.013 370.1 481.092C368.942 481.168 367.748 480.264 363.712 476.364C360.991 473.723 358.541 471.59 358.215 471.646C357.918 471.642 357.121 472.344 356.415 473.166C355.414 474.429 354.821 474.57 352.589 473.803C350.148 473.004 349.64 472.523 347.203 468.108C345.7 465.422 344.2 463.33 343.904 463.475C343.638 463.56 342.908 465.33 342.418 467.37C340.714 474.108 340.714 474.108 339.761 473.623C339.224 473.35 338.05 471.054 337.112 468.582C336.203 466.052 335.118 463.876 334.82 463.724C334.463 463.542 334.397 462.622 334.627 461.558C334.887 460.583 334.563 456.874 334.003 453.34C332.951 447.34 332.709 446.774 330.651 445.505C329.011 444.448 328.446 444.382 328.332 445.062C327.948 449.445 326.718 455.981 326.274 456.124C323.904 456.838 312.992 438.213 309.77 427.86C307.553 420.898 306.595 411.55 306.805 399.399C306.893 395.161 306.772 394.804 304.924 393.863C303.851 393.317 301.204 392.634 299.094 392.372C296.984 392.11 294.098 391.306 292.727 390.608C291.356 389.91 289.928 389.479 289.574 389.741C289.249 389.945 286.579 390.358 283.672 390.65C278.717 391.155 272.733 393.131 267.736 395.977C262.235 399.084 257.765 405.079 251.149 418.252C248.105 424.382 246.403 427.207 245.193 428.142C244.248 428.842 242.599 430.809 241.424 432.573C239.603 435.338 239.401 436.196 239.402 440.405C239.499 449.832 241.322 451.425 245.616 445.784C249.998 439.966 250.175 439.76 250.626 440.507C251.646 442.06 250.543 445.486 246.124 454.534C242.145 462.698 241.563 464.322 241.959 465.779C242.203 466.641 242.24 467.768 242.006 468.24C241.333 469.595 242.018 474.079 242.972 474.565C243.449 474.807 243.72 475.315 243.544 475.668C243.369 476.022 244 481.217 245.022 487.127C247.971 505.095 248.92 513.11 248.786 519.244C248.732 524.164 249.102 526.125 251.157 531.158C252.547 534.524 255.909 543.693 258.727 551.552C261.455 559.439 264.089 566.465 264.421 567.151C266.888 571.656 277.365 583.487 277.891 582.426C278.038 582.131 277.671 580.615 277.184 579.039L276.125 576.21L277.708 577.533C278.574 578.195 280.524 581.034 281.999 583.778C283.533 586.553 284.885 588.792 285.003 588.704C285.181 588.647 285.346 586.811 285.449 584.649C285.551 582.338 285.954 580.475 286.456 580.214C287.461 579.544 287.523 579.871 287.482 586.57C287.441 589.207 287.729 592.086 288.062 592.92C289.15 595.541 299.991 608.444 305.282 613.426C311.35 619.1 315.307 624.363 316.012 627.454C316.442 629.445 316.355 629.77 315.228 629.935C314.516 630.015 313.718 630.569 313.455 631.1C312.723 632.573 311.618 631.641 307.301 625.9C305.143 623.029 301.55 618.837 299.426 616.648C297.213 614.488 293.442 610.353 290.987 607.479C288.561 604.545 284.342 599.961 281.679 597.202C278.957 594.414 275.605 590.64 274.225 588.756C272.786 586.842 269.433 582.92 266.769 580.013C264.106 577.107 261.171 573.545 260.299 572.142C259.369 570.708 256.558 563.887 253.986 557.039C251.413 550.191 248.426 543.576 247.467 542.349C245.968 540.405 244.686 539.679 239.772 537.546C233.22 534.802 230.831 532.847 231.738 531.02C232.177 530.136 233.127 530.177 236.43 531.193C238.721 531.843 241.371 532.822 242.384 533.338C245.126 534.734 245.477 534.026 244.083 530.068C243.327 528.132 242.247 522.487 241.647 517.53C241.048 512.573 239.472 504.018 238.156 498.548C235.893 489.421 235.149 480.846 236.086 474.899C236.258 474.101 235.681 472.256 234.81 470.853C233.998 469.48 231.638 463.257 229.604 457.127C227.541 450.908 224.85 444.147 223.647 442.058C222.444 439.969 220.909 437.046 220.305 435.557C218.855 432.161 217.206 429.919 214.698 428.051L212.698 426.516L211.674 428.579C211.088 429.758 210.323 430.698 209.908 430.782C209.463 430.776 207.82 429.423 206.175 427.774C204.53 426.124 201.813 424.077 200.145 423.227C196.807 421.528 196.689 421.616 195.479 426.759C192.195 440.89 190.326 445.255 184.47 452.537C181.644 455.973 179.027 459.588 178.648 460.502C177.945 461.917 177.323 462.117 173.789 462.016C171.027 461.866 169.633 462.116 169.608 462.768C169.501 464.338 163.573 465.899 161.607 464.897C160.653 464.412 158.868 463.946 157.59 463.813C154.471 463.628 152.589 462.005 152.392 459.395C152.324 458.178 152.109 457.109 151.87 456.987C151.632 456.866 149.355 458.144 146.783 459.714C144.241 461.374 139.684 463.485 136.751 464.428C131.448 466.086 119.817 467.254 118.029 466.343C116.897 465.767 117.317 462.215 118.956 458.914C119.775 457.264 120.004 456.051 119.556 455.601C119.226 455.212 116.82 455.095 114.358 455.392C103.559 456.54 102.697 456.471 102.294 454.125C102.047 452.817 101.809 452.696 98.3658 452.863C85.6025 453.455 74.6375 452.23 74.4449 450.212C74.3464 448.906 82.9467 435.046 85.5697 432.32C87.9575 429.917 88.0735 429.533 88.115 427.044C88.1608 425.147 88.7127 423.434 89.9744 421.344C91.9408 418.136 92.6203 417.67 105.546 410.737C109.716 408.503 116.398 404.521 120.388 401.9C126.919 397.619 129.733 396.614 127.88 399.142C126.733 400.699 128.219 400.865 130.227 399.377C133.949 396.693 143.7 394.199 150.351 394.188C153.855 394.199 158.307 393.955 160.324 393.652C165.93 392.888 168.069 393.091 174.079 394.821C179.286 396.364 180.061 396.759 184.48 400.19C190.003 404.404 192.606 407.132 194.322 410.443C194.984 411.666 196.093 413.042 196.748 413.376C197.404 413.71 197.796 414.574 197.683 415.402C197.514 416.645 197.813 416.945 201.058 418.08C205.345 419.672 205.493 419.673 204.263 417.94C203.694 417.133 201.211 410.405 198.693 402.994C195.568 393.65 193.09 387.663 190.746 383.812C188.462 379.991 187.223 376.923 186.757 374.102C185.732 367.746 185.822 367.866 179.816 366.729C176.962 366.162 173.364 365.438 171.877 365.124C170.39 364.81 167.298 364.27 165.069 363.947C161.562 363.491 159.507 362.667 151.819 358.753C141.746 353.626 137.15 350.252 133.342 345.139C130.614 341.461 125.585 327.529 124.769 321.354C124.395 318.949 123.204 314.281 122.081 310.978C120.839 307.465 120.192 304.256 120.511 303.163C121.118 300.888 121.021 299.731 119.768 290.675C118.737 283.579 118.794 283.164 120.41 280.812C121.351 279.519 122.795 277.965 123.682 277.53C124.835 276.862 126.039 274.89 128.73 269.319C130.721 265.311 133.153 260.864 134.271 259.365L136.33 256.722L134.82 253.147C133.037 248.769 133.297 247.793 135.627 249.718C136.582 250.5 137.926 251.553 138.613 252.124C139.569 252.906 140.073 252.793 141.341 251.593C143.464 249.572 144.303 250.59 143.198 253.867C142.152 257.027 142.456 258.068 146.992 265.324C150.237 270.668 150.596 270.998 154.589 273.031C160.013 275.792 163.423 279.3 170.322 289.163C176.322 297.681 176.651 298.07 179.179 298.544C180.338 298.765 181.622 299.788 183.12 301.584C185.456 304.398 186.2 304.703 187.049 302.994C187.869 301.343 189.569 302.431 191.434 305.743C193.629 309.592 196.033 321.892 196.394 330.789C196.611 336.216 196.886 337.316 197.894 337.091C198.575 336.921 199.105 336.304 199.13 335.653C199.238 334.083 203.487 322.068 204.048 321.69C204.314 321.455 205.091 322.146 205.81 323.103C208.509 326.84 208.303 327.105 215.086 312.393L221.256 299.067L223.547 299.716C224.767 300.116 226.524 300.936 227.361 301.658C228.555 302.561 229.387 302.689 230.661 302.23C232.793 301.395 235.027 302.459 236.888 305.178C238.867 307.958 243.799 316.671 246.119 321.322C247.203 323.499 248.225 325.201 248.403 325.143C249.499 324.741 251.107 317.142 251.19 312.163L251.297 306.384L254.874 300.083C256.838 296.578 259.215 292.693 260.097 291.37C261.714 289.166 261.742 288.958 260.463 288.677C258.322 288.177 257.987 287.047 258.942 283.62C259.55 281.344 259.537 279.566 258.809 277.423C257.384 273.375 255.958 273.24 254.114 276.953C252.094 280.872 244.822 289.501 241.042 292.451C239.359 293.735 238.519 292.57 235.946 285.722C233.766 279.738 231.607 276.867 229.68 277.289C229.028 277.4 226.456 278.971 223.974 280.661C217.651 284.974 214.446 285.263 213.38 281.545C212.772 279.463 211.37 278.676 207.15 278.152C204.029 277.671 203.851 277.58 202.47 275.548C201.629 274.234 201.021 272.152 201.037 270.314C201.141 268.3 200.625 266.634 199.726 265.586C196.822 262.262 187.477 259.129 182.076 259.629C180.801 259.791 178.688 259.085 175.619 257.597C171.417 255.532 170.585 255.403 162.626 255.192C153.064 255.05 150.714 254.37 150.991 251.558C151.239 248.952 154.11 243.472 155.971 242.131C156.827 241.459 158.596 239.701 159.802 238.174C162.804 234.385 164.784 233.104 171.622 230.309C174.879 229.013 178.282 227.423 179.227 226.722C180.203 226.111 184.2 224.528 188.141 223.358C195.103 221.217 195.339 221.042 196.035 218.738C196.702 216.493 196.938 216.318 199.786 215.995C201.448 215.807 203.468 215.95 204.362 216.405C205.196 216.829 207.428 217.448 209.271 217.796C216.05 219.031 219.534 220.436 223.832 223.658C226.071 225.314 228.278 226.733 228.695 226.797C229.111 226.862 230.466 225.336 231.67 223.512C232.844 221.599 233.991 220.042 234.198 219.926C234.375 219.868 235.685 220.239 237.084 220.73C239.048 221.435 240.273 222.427 242.221 224.97C245.157 228.68 246.317 228.901 246.59 225.643C246.896 222.772 248.166 221.719 250.133 222.721C251.265 223.297 252.74 226.041 255.521 232.921C257.636 238.133 259.846 244.058 260.366 246.169C260.975 248.251 261.699 249.801 262.053 249.538C262.881 249.074 264.283 237.53 263.818 234.856C263.692 233.758 263.487 230.11 263.434 226.76C263.335 221.245 262.136 215.54 260.884 214.902C260.646 214.781 260.583 214.306 260.788 213.894C261.256 212.95 259.618 208.129 258.907 208.358C258.641 208.444 258.028 209.978 257.566 211.811C255.861 218.253 252.27 218.566 249.733 212.549C248.918 210.731 248.135 209.151 247.956 209.06C247.777 208.969 247.277 209.526 246.867 210.351C245.901 212.296 244.798 211.661 243.437 208.236C242.167 205.079 241.273 204.624 240.039 206.359C239.01 207.829 238.266 207.524 236.493 204.628C235.622 203.224 233.709 201.512 231.473 200.152L227.864 197.946L223.567 199.081C218.469 200.326 214.457 199.834 207.549 197.056C199.538 193.791 188.793 194.228 180.063 198.276C173.819 201.226 171.447 201.643 168.291 200.479C166.653 199.867 165.283 199.17 165.222 198.991C165.161 198.813 165.478 197.423 165.853 195.916C166.317 194.38 167.094 190.861 167.578 188.081C168.604 182.105 171.125 177.481 175.256 173.972C178.533 171.283 179.06 170.222 179.004 166.576C178.943 162.188 180.497 159.509 183.786 158.599C185.268 158.172 186.721 157.951 186.96 158.073C187.258 158.224 189.034 157.504 190.926 156.4C194.623 154.368 211.476 148.548 215.421 147.972C216.697 147.809 220.204 148.265 223.119 149.011C231.864 151.247 233.651 152.009 234.674 153.859C235.817 155.918 238.589 157.403 241.827 157.648C243.194 157.753 245.87 158.377 247.746 159.111C249.651 159.785 253.133 160.893 255.632 161.574C260.958 163.03 265.91 166.289 268.133 169.931C268.914 171.215 269.782 172.174 270.049 172.088C270.286 172.061 270.773 169.577 271.197 166.618C271.961 161.321 271.436 154.408 269.73 148.371C268.114 142.453 269.995 139.718 274.931 140.754C276.478 141.099 278.113 141.414 278.5 141.537C278.916 141.601 280.388 139.84 281.826 137.545C287.725 127.921 291.647 124.084 297.275 122.223C300.119 121.308 300.954 121.881 301.063 124.668L301.11 126.981L303.149 125.73C304.243 125.032 305.306 124.244 305.423 124.008C305.57 123.713 307.253 122.429 309.173 121.117C312.453 118.873 313.164 118.644 314.745 119.671C315.073 119.912 318.134 120.214 321.519 120.313C324.905 120.412 328.887 120.814 330.433 121.159C331.92 121.472 333.939 121.466 334.857 121.121C336.693 120.432 338.002 120.803 338.13 122.049ZM314.078 125.977C312.15 126.25 308.977 126.925 306.993 127.613C304.031 128.616 303.175 129.287 301.589 131.729L299.769 134.642L295.637 133.942C293.348 133.589 291.416 133.27 291.327 133.299C291.059 133.236 288.53 136.675 286.506 140.001C284.275 143.591 284.275 143.591 285.881 143.965C286.832 144.154 289.184 144.982 291.149 145.687L294.751 147.004L295.951 144.587C296.829 142.819 297.566 142.086 298.634 142.04C299.881 141.936 300.617 141.055 302.755 137.049C304.866 133.25 305.866 131.987 307.229 131.499C309.361 130.664 312.28 132.003 312.233 133.751C312.18 134.61 312.917 133.877 314.443 131.405C315.735 129.405 317.176 127.406 317.707 126.938C319.154 125.829 318.083 125.579 314.078 125.977ZM298.418 149.092C298.072 150.54 297.6 151.039 296.621 151.057C295.492 151.073 295.346 151.368 295.124 153.47C294.965 156.195 294.262 161.671 294.034 163.032C293.861 163.682 294.13 163.892 294.752 163.692C296.44 163.149 300.091 154.744 300.214 151.188C300.395 147.366 299.257 146.049 298.418 149.092ZM283.745 148.416C283.212 148.588 282.327 149.467 281.859 150.41C280.571 153.003 279.003 153.756 276.474 152.985C275.224 152.644 274.124 152.454 274.036 152.63C273.978 152.748 274.087 155.536 274.318 158.829C274.579 162.063 274.312 166.21 273.761 168.071C273.27 169.962 272.754 172.505 272.704 173.809C272.437 177.956 270.229 184.807 267.997 188.249C266.088 191.191 265.856 191.958 266.086 194.955C266.315 197.952 266.917 199.144 271.564 205.275C274.472 209.192 277.019 212.483 277.199 212.722C277.708 213.351 279.376 209.843 280.65 205.322C281.75 201.452 281.722 197.45 280.613 187.804C280.009 182.253 280.7 179.208 281.421 184.523C282.582 193.162 283.266 197.498 283.385 197.559C283.623 197.68 286.007 190.475 286.93 186.81C287.391 184.83 287.757 181.988 287.777 180.595C287.766 179.113 288.22 176.243 288.829 174.116C289.581 171.398 289.688 169.68 289.084 168.339C288.028 165.955 287.969 161.864 288.935 155.858C289.392 153.284 289.672 150.916 289.67 150.62C289.605 149.848 285.05 148.194 283.745 148.416ZM272.508 142.327C271.71 142.88 271.627 143.798 272.149 146.206C272.488 147.929 273.004 149.447 273.302 149.598C273.898 149.902 277.785 145.382 277.748 144.404C277.561 143.127 273.69 141.599 272.508 142.327ZM331.524 173.845C327.82 174.988 324.435 179.098 325.667 181.128C326.088 181.785 339.727 187.399 344.726 188.91C347.315 189.711 348.954 190.619 351.404 192.753C353.197 194.256 355.109 195.968 355.706 196.419C357.379 197.862 355.391 193.896 352.904 190.784C344.845 180.7 334.902 172.907 331.524 173.845ZM310.904 176.123C310.281 176.175 309.897 176.497 309.988 176.765C310.11 177.122 311.001 177.281 312.04 177.145C313.968 176.871 313.011 175.941 310.904 176.123ZM354.31 216.975C351.342 217.236 347.429 218.05 345.533 218.71C342.305 219.798 341.892 220.179 339.397 224.299C335.7 230.392 334.066 234.434 335.079 234.95C335.497 235.162 336.297 234.905 336.828 234.437C337.447 233.792 338.604 233.716 340.211 234.239C342.145 234.854 343.273 234.69 345.165 233.586C347.264 232.365 348.036 232.315 349.764 233.195C351.493 234.075 352.027 234.051 352.673 233.051C353.173 232.345 354.237 231.706 355.038 231.597C355.839 231.487 357.081 230.791 357.758 230.028C358.582 228.97 359.471 228.684 360.84 229.086C363.637 229.919 364.51 227.558 362.936 223.36C362.21 221.513 361.363 219.31 361.031 218.476C360.698 217.642 360.277 216.837 360.038 216.716C359.829 216.535 357.217 216.683 354.31 216.975ZM248.803 161.494C245.826 160.422 242.583 159.584 241.515 159.63C240.298 159.675 236.279 158.295 231.246 156.101C223.591 152.721 222.58 152.502 217.858 152.388C214.086 152.314 211.507 152.847 207.51 154.43C204.609 155.612 199.901 157.424 196.969 158.516C194.126 159.58 191.611 160.736 191.464 161.03C191.318 161.325 189.572 162.135 187.588 162.823C183.53 164.228 182.824 165.198 182.971 169.112C183.054 172.403 181.768 175.293 178.937 177.987C175.959 180.828 173.59 185.898 173.441 189.958L173.317 193.365L178.472 191.706C188.189 188.678 195.523 188.793 206.029 192.147C210.404 193.562 214.124 194.791 214.303 194.882C214.541 195.004 217.001 194.41 219.816 193.554C222.601 192.756 225.745 192.289 226.787 192.598C229.077 193.247 230.142 192.607 229.329 191.086C228.185 188.879 229.221 188.447 232.022 189.873C233.513 190.631 234.587 191.474 234.441 191.769C234.295 192.063 234.925 193.049 235.734 193.977C236.572 194.995 237.562 196.311 237.834 196.966C238.679 198.873 242.993 200.109 243.695 198.695C244.134 197.81 244.669 197.787 246.337 198.637C248.841 199.911 250.638 202.155 251.551 205.278C251.976 206.528 252.578 207.721 253.055 207.964C253.949 208.419 254.889 206.977 254.258 205.992C253.989 205.633 254.101 204.804 254.394 204.215C255.214 202.564 253.847 198.25 251.903 196.301C250.227 194.562 250.226 194.414 251.547 192.206C252.867 189.998 252.865 189.702 251.335 187.52L249.686 185.278L246.717 185.391C245.055 185.431 243.093 185.171 242.259 184.746C241.484 184.352 239.553 184.181 237.951 184.399C236.349 184.617 234.895 184.689 234.716 184.598C234.478 184.477 234.739 183.65 235.237 182.648C235.939 181.233 236.738 180.828 239.231 180.62C240.952 180.462 242.493 180.065 242.668 179.712C243.049 178.945 240.102 177.962 236.686 177.774C235.409 177.641 233.091 177.347 231.544 177.002C227.084 176.061 224.127 177.805 220.013 183.833C218.133 186.568 216.457 188.89 216.19 188.976C213.969 189.691 216.706 182.224 220.036 178.676C220.861 177.767 222.575 176.72 223.761 176.437C227.85 175.27 226.912 172.798 222.55 173.162C221.066 173.293 219.313 173.065 218.657 172.731C217.346 172.064 216.755 172.502 214.197 175.999C212.257 178.703 208.683 181.389 207.286 181.194C206.484 181.155 206.418 180.236 207.111 177.487C207.572 175.506 207.649 173.847 207.233 173.783C206.49 173.626 196.848 178.908 191.055 182.605C188.779 184.031 187.742 184.315 186.55 183.708C185.537 183.193 185.206 182.655 185.587 181.889C186.377 180.297 202.517 170.349 205.363 169.73C207.972 169.138 207.637 168.008 204.601 166.905C202.04 165.897 201.831 165.717 202.445 164.479C203.85 161.65 210.254 160.332 213.89 162.182C214.426 162.455 216.18 162.683 217.694 162.642C220.158 162.641 223.73 163.868 226.504 165.65C226.952 165.952 229.302 166.631 231.711 167.193C236.172 168.134 237.931 169.104 247.687 175.62C249.984 177.159 252.222 178.667 252.64 179.028C253.058 179.389 253.887 179.072 254.772 178.193C255.567 177.343 257.102 176.057 258.135 175.18C259.168 174.302 260.7 172.72 261.434 171.543C262.757 169.631 262.755 169.335 261.317 167.569C259.639 165.534 257.911 164.654 248.803 161.494ZM375.253 230.885C374.928 231.088 375.453 233.94 376.367 237.212C377.341 240.513 378.472 245.002 378.903 247.142C379.305 249.34 380.577 252.793 381.66 254.822C383.075 257.536 384.08 261.075 384.986 267.37C385.674 272.15 386.571 277.111 386.936 278.33L387.634 280.532L387.949 278.846C388.636 275.356 388.358 269.602 387.356 266.508C386.081 262.61 386.577 261.46 389.545 261.346C390.822 261.332 391.918 260.929 392.063 260.486C392.437 258.831 385.574 245.738 381.497 240.414C378.65 236.675 377.266 234.199 377.288 233.102C377.335 231.354 376.317 230.245 375.253 230.885ZM265.816 178.056C264.427 178.899 263.126 179.714 262.89 179.889C262.417 180.239 264.242 186.337 264.898 186.671C265.375 186.914 269.619 178.367 269.317 177.623C268.982 176.492 268.27 176.573 265.816 178.056ZM264.256 204.804C263.275 204.674 262.267 204.9 262.092 205.253C261.916 205.607 262.987 210.066 264.478 215.034C266.028 220.032 267.402 225.235 267.53 226.63L267.786 229.123L269.899 225.768C271.104 223.944 272.892 220.794 273.947 218.82L275.792 215.255L273.931 212.387C272.85 210.804 270.756 208.556 269.114 207.351C267.532 206.177 266.159 205.182 266.129 205.093C266.069 205.063 265.266 204.876 264.256 204.804ZM321.118 263.065C312.587 261.749 301.138 263.453 305.012 265.425C308.291 267.094 300.158 267.532 295.04 265.961C291.945 264.976 290.64 265.198 288.485 266.981C286.656 268.56 286.404 270.721 287.894 271.479C288.43 271.752 290.597 271.6 292.761 271.151C296.437 270.364 300.235 269.934 304.925 269.811C306.053 269.795 308.338 269.555 310.029 269.308C313.321 268.843 318.705 270.18 318.119 271.359C317.944 271.713 316.614 272.586 315.223 273.281C313.773 273.946 312.71 274.734 312.801 275.002C312.892 275.27 314.438 275.614 316.28 275.665C321.419 275.992 329.04 278.838 337.656 283.741C345.825 288.342 351.111 292.584 355.873 298.331C359.467 302.671 360.365 303.719 361.472 304.799C362.937 306.209 361.284 307.583 358.815 306.991C356.912 306.613 356.015 305.713 352.389 301.135C344.658 291.293 337.611 285.638 327.483 281.073C323.134 279.154 314.479 277.185 310.085 277.164C309.046 277.152 305.957 277.056 303.195 276.905C300.106 276.81 298.089 277.112 297.796 277.702C297.387 278.527 297.953 278.889 301.824 280.417C307.213 282.495 309.413 282.877 309.999 281.698C311.111 279.458 322.079 281.128 331.251 284.911C336.641 287.138 343.791 294.543 344.982 299.211C345.531 301.114 345.631 306.777 345.154 306.535C344.975 306.444 343.773 304.503 342.42 302.116C337.911 294.356 335.457 291.778 328.869 288.055C323.801 285.179 322.49 284.66 319.58 284.508C317.471 284.394 315.988 284.673 315.666 285.321C315.403 285.852 314.309 286.55 313.213 286.953C311.407 287.584 311.139 287.521 310.357 286.089C309.545 284.716 309.069 284.622 304.705 284.689C301.529 284.77 298.259 284.288 295.074 283.183C292.426 282.352 290.135 281.702 289.957 281.76C289.157 282.017 295.067 294.625 296.831 296.335C297.519 297.055 298.5 297.185 299.982 296.757C301.641 296.273 302.979 296.585 307.417 298.475C310.544 299.845 312.895 300.525 313.011 300.141C313.155 299.55 311.478 297.514 304.144 289.277C303.575 288.618 303.331 287.608 303.653 286.959C304.736 284.778 308.401 286.57 325.94 297.862C328.297 299.431 328.713 299.495 331.408 298.43C334.784 297.194 336.864 297.515 338.719 299.493C339.917 300.841 339.919 301.138 338.625 302.842C337.301 304.605 337.333 304.842 338.949 306.699C339.848 307.747 342.027 309.373 343.696 310.223C348.523 312.68 357.12 314.915 359.372 314.289C361.032 313.805 361.418 313.928 361.484 314.848C361.58 315.708 363.608 317.036 371.06 320.977C376.275 323.706 380.833 325.805 381.069 325.63C381.394 325.426 379.647 321.878 377.242 317.7C373.935 312.029 372.697 309.11 372.229 305.992C371.262 299.519 365.691 292.843 356.746 287.551C353.854 285.857 351.018 283.749 350.329 282.882C349.009 281.028 338.935 275.753 333.667 274.031C330.572 273.046 327.081 270.604 326.475 268.967C326.324 268.52 326.612 267.338 327.169 266.367C327.667 265.365 327.809 264.477 327.392 264.265C326.975 264.052 324.18 263.515 321.118 263.065ZM251.644 234.714C251.26 235.035 250.495 235.975 249.877 236.768C248.111 238.97 245.546 237.369 242.54 232.147C239.232 226.328 238.161 226.078 234.956 230.428C231.191 235.452 228.815 235.276 223.37 229.551C219.84 225.834 217.367 224.649 214.639 225.18C214.046 225.322 212.411 225.006 210.923 224.544C208.363 223.684 208.185 223.741 207.723 225.574C207.29 227.199 206.876 227.431 204.768 227.466C195.269 227.799 184.804 230.078 183.809 232.082C182.959 233.643 175.012 239.271 173.115 239.634C170.387 240.165 169.771 241.255 171.031 243.078L171.991 244.452L170.093 244.815C168.997 245.069 167.392 244.843 166.498 244.388C165.127 243.69 164.623 243.803 163.564 245.184C161.916 247.299 160.482 250.187 160.959 250.429C161.138 250.52 162.266 250.504 163.422 250.28C167.486 249.765 172.036 250.678 174.692 252.547C176.721 254.023 178.119 254.365 183.111 254.839C190.152 255.395 196.373 257.602 200.167 260.789C202.049 262.412 203.221 264.263 204.703 268.045C206.698 273.048 206.758 273.079 209.225 273.522C211.395 273.815 213.154 274.784 216.796 277.524C217.512 278.036 218.402 277.898 219.347 277.198C220.174 276.585 222.359 274.892 224.338 273.462C227.557 271.04 228.001 270.897 230.056 271.721C232.409 272.697 236.332 277.427 238.742 282.197C239.465 283.599 240.246 284.883 240.484 285.004C240.722 285.126 241.875 284.309 243.144 283.257C245.032 281.56 245.912 280.088 248.569 273.835C251.635 266.609 251.693 266.342 250.497 265.291C249.78 264.63 249.057 263.229 248.782 262.129C248.474 260.495 248.085 260.075 247.254 260.243C246.573 260.413 243.481 259.873 240.209 259.094C228.579 256.201 215.85 257.475 210.301 262.034C207.201 264.517 206.608 264.659 206.002 262.873C204.91 259.659 210.843 254.778 217.808 253.081C220.357 252.459 222.4 251.653 222.249 251.355C221.888 250.58 215.32 245.612 213.174 244.52C210.671 243.245 206.219 243.49 193.645 245.654C185.401 247.07 178.208 246.066 178.457 243.461C178.676 240.914 186.969 238.047 196.286 237.178C203.645 236.494 214.964 237.456 221.837 239.404C237.665 243.769 245.02 246.849 252.304 252.181C254.631 253.809 256.839 255.228 257.314 255.322C258.087 255.42 257.763 251.711 256.734 248.972C256.432 248.227 255.911 245.968 255.57 243.949C254.675 239.285 253.366 234.704 252.71 234.371C252.412 234.219 251.939 234.421 251.644 234.714ZM472.505 352.459C470.274 351.988 467.719 351.721 466.829 351.859C465.88 351.967 463.827 351.439 462.218 350.619C460.609 349.8 458.615 349.154 457.695 349.203C455.706 349.298 444.013 345.93 440.438 344.258C438.561 343.377 437.106 343.3 434.675 343.835C428.094 345.359 420.171 345.977 416.039 345.277C413.631 344.863 411.578 344.335 411.368 344.007C411.217 343.708 411.12 342.551 411.231 341.426C411.253 340.33 411.008 339.319 410.71 339.167C410.412 339.016 408.695 339.766 406.803 340.87C404.999 341.946 401.209 343.413 398.423 344.063C394.333 345.082 393.145 345.068 392.099 344.166C390.545 342.785 389.866 343.251 384.742 349.208C382.858 351.498 379.322 355.162 376.933 357.417C373.039 361.047 372.334 362.017 370.376 366.41C369.208 369.213 368.276 371.692 368.427 371.99C368.488 372.317 370.361 372.605 372.47 372.719C374.608 372.774 378.025 373.11 379.957 373.429C382.811 373.848 384.739 373.574 388.322 372.223C395.724 369.345 397.791 367.739 407.928 356.95C409.106 355.63 410.466 354.845 411.061 355C412.043 355.279 411.72 355.779 408.307 360.244C403.218 366.884 403.364 366.441 406.165 367.867C408.132 368.868 409.082 368.909 411.747 367.903C414.916 366.784 414.916 366.784 415.196 368.477L415.446 370.228L419.542 370.098C425.272 369.988 431.455 366.859 436.494 361.523C437.673 360.351 438.827 359.683 439.57 359.84C440.671 360.179 440.555 360.563 437.884 364.889L435.008 369.627L439.127 368.401C442.741 367.287 451.327 363.831 460.976 359.586C465.949 357.392 466.69 357.252 467.675 357.975C469.197 359.119 467.642 361.65 464.241 363.537C462.467 364.554 456.427 366.944 450.769 368.863C445.112 370.783 440.403 372.447 440.403 372.447C440.374 372.506 443.234 373.963 446.751 375.753C452.591 378.578 453.305 378.794 453.594 377.759C453.797 377.05 454.33 376.879 455.105 377.273C457.43 378.457 456.338 379.452 451.095 381.139L445.703 382.825L439.326 379.578L432.948 376.332L429.275 377.564C422.582 379.916 416.504 381.179 411.398 381.237C406.38 381.268 403.524 380.552 404.11 379.374C404.578 378.431 403.15 377.999 400.271 378.232L397.571 378.408L399.848 381.339C401.077 382.925 403.827 385.506 406.006 387.132C408.215 388.7 409.86 390.349 409.684 390.703C409.538 390.998 407.281 391.03 404.755 390.704C400.772 390.154 399.493 389.724 395.735 387.368C390.783 384.257 389.255 382.223 390.308 380.101C391.186 378.333 390.798 378.062 388.457 378.716C386.057 379.34 381.514 379.317 376.61 378.666C374.411 378.433 372.481 378.41 372.364 378.646C371.925 379.53 375.663 383.279 379.332 385.664C382.584 387.836 388.01 390.894 396.505 395.439C399.217 396.894 419.206 401.9 420.539 401.471C420.866 401.416 421.096 400.5 421.119 399.552C421.168 398.1 421.551 397.63 423.149 396.819C424.954 396.039 433.141 394.89 433.975 395.315C434.154 395.406 435.371 395.361 436.587 395.168C438.189 394.949 439.282 394.251 440.046 393.015L441.161 391.22L446.403 393.445C454.712 397.01 454.031 397.18 466.877 387.549C475.973 380.66 478.481 378.466 480.037 375.935C481.034 374.227 483.324 370.667 485.147 368.051C486.909 365.403 488.465 362.872 488.55 362.399C488.719 361.156 482.476 355.836 479.229 354.405C477.68 353.765 474.675 352.899 472.505 352.459ZM250.099 259.476C249.777 260.125 255.005 264.484 255.954 264.377C257.349 264.274 257.104 263.264 255.314 262.057C251.943 259.824 250.333 259.005 250.099 259.476ZM219.351 244.71C219.205 245.005 219.297 245.421 219.655 245.603C219.953 245.755 220.397 245.612 220.543 245.317C220.719 244.964 220.538 244.576 220.24 244.424C219.883 244.242 219.527 244.357 219.351 244.71ZM320.918 301.36C321.671 302.851 322.804 303.575 323.602 303.022C324.519 302.528 323.949 301.721 322.043 300.899C320.435 300.228 320.346 300.256 320.918 301.36ZM363.302 323.969C363.006 324.114 362.253 326.832 361.712 330.027C361.142 333.281 359.693 338.303 358.527 341.254C357.3 344.174 356.49 347.158 356.674 347.842C357.962 353.667 355.787 360.904 351.683 364.057C350.561 364.963 348.734 366.839 347.675 368.22C343.586 373.596 339.865 376.428 334.267 378.378C331.276 379.44 328.908 380.45 328.999 380.717C329.182 381.401 342.228 378.886 346.345 377.363C348.329 376.675 352.33 375.685 355.415 375.187C358.41 374.718 361.286 374.041 361.728 373.601C362.17 373.162 363.575 370.332 364.889 367.235C367.603 360.716 371.958 355.106 379.57 348.347C382.078 346.154 384.791 343.547 385.467 342.636C386.203 341.756 387.118 340.966 387.444 340.911C390.382 340.708 387.118 336.905 380.467 332.707C374.382 328.871 364.19 323.683 363.302 323.969ZM330.155 310.124C328.707 311.085 326.431 312.511 325.16 313.266C323.8 314.051 321.79 315.391 320.549 316.236C319.338 317.022 316.379 318.469 313.98 319.39C310.664 320.655 308.951 321.851 306.564 324.402C301.939 329.505 300.831 332.338 301.022 338.268C301.071 341.026 300.823 343.631 300.41 344.012C299.436 344.919 296.307 343.252 295.909 341.647C295.726 340.963 295.097 340.126 294.441 339.792C293.547 339.337 293.222 339.541 293.082 340.725C292.739 342.618 293.764 348.825 294.913 351.773C295.821 354.155 295.357 355.691 293.407 357.061C292.373 357.79 292.321 358.797 292.796 362.953C293.363 367.524 298.131 382.283 299.263 382.859C300.098 383.284 304.005 381.581 303.733 380.925C303.641 380.509 302.656 379.786 301.643 379.271C299.854 378.36 299.823 378.123 300.698 375.91C301.193 374.612 302.016 373.406 302.549 373.234C303.705 372.862 305.14 370.123 305.8 366.988C306.058 365.717 307.691 361.527 309.386 357.663C312.279 351.235 312.602 350.735 313.438 351.456C314.125 352.028 314.659 351.856 315.571 350.77C316.249 350.007 318.373 348.135 320.233 346.645C322.153 345.185 324.218 343.431 324.867 342.727C325.515 342.023 326.963 341.062 328.117 340.542C329.212 339.992 331.698 338.894 333.562 337.997C337.29 336.203 338.003 336.271 335.404 338.197C334.459 338.897 332.186 340.768 330.297 342.316C327.051 345.094 326.934 345.33 327.185 347.23C327.404 348.745 326.967 349.925 325.587 352.102C322.532 356.75 321.253 356.32 324.188 351.612C327.3 346.698 326.173 346.863 321.43 352.054C319.515 354.106 317.128 356.657 316.156 357.713C313.769 360.264 314.31 361.13 317.417 359.684C324.667 356.36 335.221 354.053 336.182 355.576C336.874 356.74 335.107 358.794 331.912 360.417C325.937 363.578 312.049 368.84 310.295 368.612C309.018 368.478 308.663 368.741 308.817 369.484C308.97 370.078 308.537 371.852 307.866 373.504L306.64 376.424L309.175 377.936C313.29 380.474 316.496 380.334 322.265 377.437C325.963 375.554 327.263 374.591 327.049 373.818C326.682 372.302 330.873 368.823 332.598 369.11C334.114 369.365 342.204 367.207 342.585 366.441C342.731 366.146 341.656 365.303 340.166 364.545C338.676 363.786 337.542 363.062 337.63 362.885C338.069 362.001 342.242 360.064 345.65 359.214C349.148 358.336 349.827 357.87 350.822 355.866C351.935 353.626 351.904 353.537 349.937 352.536C347.434 351.261 347.158 350.013 348.194 345.372C348.828 342.741 349.91 340.412 352.141 336.822C353.844 334.144 355.543 331.022 355.891 329.87C356.675 327.389 356.972 323.184 356.492 322.496C356.252 322.227 353.868 321.013 351.158 319.855C347.316 318.268 346.126 317.958 345.775 318.665C345.541 319.137 344.775 319.928 344.095 320.395C343.416 320.861 342.09 322.328 341.12 323.68C338.415 327.472 336.058 329.964 335.462 329.66C334.568 329.205 340.408 319.699 342.417 318.211C344.218 316.839 344.399 317.227 339.916 313.172C336.599 310.229 334.57 308.752 333.529 308.592C333.142 308.469 331.574 309.221 330.155 310.124ZM309.49 306.028C308.124 305.923 308.124 305.923 309.053 307.209C310.403 309.151 311.177 309.397 311.85 308.042C312.465 306.804 311.838 306.263 309.49 306.028ZM398.058 371.863C396.693 371.906 395.278 373.401 396.172 373.856C397.066 374.311 401.255 374.597 401.43 374.244C401.547 374.008 401.246 373.412 400.709 372.99C400.26 372.541 399.782 372.15 399.692 372.03C399.573 371.969 398.86 371.902 398.058 371.863ZM135.565 270.14C133.039 273.875 129.283 280.086 127.351 283.976C123.397 291.637 123.368 291.696 125.052 298.829C125.329 300.078 125.56 303.371 125.49 306.067C125.488 309.832 126.224 313.16 128.652 320.451C136.207 342.979 136.806 343.727 152.719 351.827C160.706 355.893 163.535 357.112 164.811 356.949C167.065 356.619 175.325 357.428 176.577 358.065C178.365 358.975 178.981 357.885 178.043 355.414C177.498 353.955 176.689 353.027 175.827 352.809C175.083 352.652 174.307 352.11 174.066 351.544C173.854 351.067 171.492 348.757 168.893 346.474C166.293 344.19 163.661 341.521 163.15 340.597C162.489 339.522 160.876 338.258 158.433 337.014C154.439 334.981 146.435 328.396 144.872 325.828C144.391 324.993 144.176 323.923 144.41 323.452C144.849 322.567 146.787 323.628 153.531 328.39C157.023 330.832 156.417 329.194 148.389 315.287C146.646 312.332 143.558 308.176 141.166 305.777C137.008 301.519 135.175 298.444 135.906 296.971C136.462 295.851 138.997 297.362 142.227 300.631C145.488 303.989 150.446 308.138 150.98 307.966C151.157 307.909 151.05 305.418 150.673 302.42C149.408 291.734 149.414 284.205 150.578 280.958C151.685 277.977 151.684 277.829 149.833 276.443C147.057 274.366 144.509 271.075 142.611 267.229C141.677 265.351 140.745 263.769 140.567 263.678C140.328 263.556 138.122 266.495 135.565 270.14ZM229.029 314.838C228.324 315.808 226.018 317.293 223.917 318.217L220.128 319.832L215.913 328.32L211.698 336.808L208.495 337.244C204.757 337.705 204.169 338.587 202.562 346.334C201.471 351.539 201.384 351.864 199.464 353.175C198.401 353.963 197.459 355.108 197.316 355.847C197.202 356.528 198.542 361.197 200.24 366.197C203.242 374.888 203.633 375.604 208.755 381.829C211.72 385.332 214.325 388.356 214.563 388.478C215.397 388.902 216.065 386.806 216.422 382.778C216.645 380.676 216.951 377.805 217.089 376.324C217.421 372.949 217.023 363.074 216.301 357.611C215.706 353.247 215.543 347.109 215.982 346.225C216.48 345.223 218.035 346.753 218.584 348.804C219.926 353.77 221.037 351.382 222.445 340.728C223.458 332.973 224.765 328.839 226.653 327.142C228.039 325.854 229.236 327.053 228.358 328.821C227.86 329.823 227.901 331.395 228.326 332.645C228.9 334.045 228.82 335.407 228.177 336.704C227.152 338.767 226.469 342.85 227.124 343.183C227.899 343.578 231.011 334.455 230.994 332.083C230.946 329.622 232.497 322.289 234.212 317.181C234.416 316.621 232.469 314.226 231.337 313.65C230.71 313.257 229.912 313.663 229.029 314.838ZM153.8 278.98C153.683 279.216 153.904 281.026 154.216 283.105C154.616 285.155 155.165 291.268 155.442 296.725C156.155 309.272 156.562 312.211 158.843 319.648C160.697 325.688 163.887 331.594 165.042 331.222C165.398 331.108 165.521 327.552 165.402 323.431C165.172 316.225 165.228 315.81 166.622 315.56C167.483 315.481 168.374 315.492 168.672 315.643C169.566 316.098 172.032 324.664 171.806 326.322C171.038 331.026 175.24 345.57 177.744 346.844C178.518 347.238 179.926 348.915 180.888 350.586C182.692 353.72 184.212 354.567 185.061 352.858C186.26 350.293 188.627 340.865 188.467 339.233C188.183 336.947 188.769 335.768 190.135 335.873C191.621 336.039 191.941 335.094 191.992 329.73C192.08 325.492 190.271 313.347 189.372 312.299C188.773 311.551 188.06 311.483 187.708 312.042C187.502 312.307 187.179 312.807 186.944 313.13C186.268 314.189 184.386 312.567 182.821 309.555C180.925 306.005 179.91 305.341 178.107 306.417C176.303 307.492 175.975 307.251 173.868 303.225C170.587 297.051 158.327 280.841 156.062 279.688C154.929 279.112 153.888 278.803 153.8 278.98ZM237.282 322.879C237.018 323.409 236.878 324.593 237.004 325.543C237.13 326.494 236.774 330.669 236.18 334.871C235.221 341.915 234.99 342.831 232.438 347.218C229.652 351.928 224.055 366.505 224.072 368.877C224.107 369.559 223.531 372.072 222.865 374.465C222.113 377.183 221.86 379.196 222.309 379.646C222.788 380.185 222.644 380.925 221.85 381.923C220.526 383.686 221.041 385.056 222.727 384.216C223.379 383.957 224.714 383.824 225.724 383.895C227.537 384.154 229.278 382.603 230.917 379.302C231.356 378.418 231.888 378.098 232.247 378.429C233.443 379.628 232.944 384.543 231.134 388.938C228.947 394.397 226.204 397.062 223.587 396.468C221.802 396.003 221.626 396.208 218.273 400.704C216.567 402.937 216.3 403.023 214.365 402.259L212.31 401.434L209.797 407.096C207.285 412.758 207.285 412.758 206.06 411.766C204.357 410.234 204.186 411.329 205.605 414.487C206.993 417.705 210.289 421.745 215.52 426.697C220.483 431.439 223.821 437.347 231.488 454.837C233.269 458.919 234.927 462.347 235.225 462.499C236 462.893 236.495 461.595 236.128 460.079C234.905 455.173 234.408 435.574 235.403 433.422C235.695 432.832 236.265 425.369 237.163 409.729C237.499 402.885 237.339 401.253 236.075 398.837C234.932 396.779 234.684 395.323 235.144 393.195C235.487 391.45 235.355 389.61 234.755 388.714C234.244 387.789 233.962 385.8 234.099 384.171C234.236 382.542 233.583 378.444 232.55 375.112C230.51 368.093 229.457 362.093 230.411 362.578C230.768 362.76 232.029 364.583 233.201 366.583C235.576 370.672 237.456 371.998 239.766 371.106C241.246 370.531 241.392 370.236 241.933 366.893C242.931 361.272 242.872 361.242 238.775 361.372C233.759 361.55 233.635 360.897 237.463 352.286C239.566 347.449 240.495 344.526 240.454 342.954C240.416 341.679 240.584 340.288 240.818 339.816C241.666 337.959 241.388 332.353 240.106 327.566C238.763 322.452 238.072 321.288 237.282 322.879ZM342.009 393.764C336.272 392.985 322.613 392.825 320.837 393.546C318.913 394.412 319.933 395.818 324.554 398.539C330.279 401.897 337.744 403.555 348.464 403.77C352.978 403.852 357.078 404.167 357.554 404.41C358.508 404.895 363.386 410.258 363.839 411.301C364.172 412.135 357.588 413.214 352.806 413.069C348.798 413.022 346.368 413.705 346.289 415.067C346.12 416.459 350.718 419.981 355.276 422.079C357.48 423.054 362.064 424.649 365.515 425.519C372.773 427.442 376.229 429.053 381.215 432.847L384.768 435.615L380.093 433.752C372.5 430.699 366.494 429.562 365.821 430.917C365.411 431.743 367.659 434.733 370.948 437.884C374.147 440.915 378.917 447.848 382.171 454.378C382.323 454.824 383.881 456.799 385.469 458.863C388.136 462.214 389.948 466.533 389.275 467.889C388.69 469.068 385.882 466.752 385.452 464.761C385.206 463.603 383.972 461.276 382.743 459.542C381.424 457.837 378.423 453.356 375.961 449.592C373.528 445.769 370.681 442.031 369.577 441.247C368.502 440.405 365.897 437.38 363.679 434.479C359.9 429.307 357.838 427.445 357.253 428.624C357.107 428.918 357.563 430.406 358.316 431.897C364.101 443.703 374.357 474.324 372.697 474.809C372.431 474.895 372.069 474.12 371.853 473.05C371.351 469.25 366.042 453.478 362.538 445.196C359.094 436.945 355.07 430.614 353.559 431.1C353.204 431.214 352.239 433.308 351.544 435.76C349.223 443.291 346.113 444.441 343.223 438.834C342.5 437.432 341.451 436.086 340.915 435.813C340.319 435.51 339.718 434.614 339.594 433.812C339.254 431.94 337.599 428.957 336.646 428.471C336.229 428.259 335.549 428.725 335.169 429.491C334.408 431.024 332.779 431.598 332.591 430.321C332.559 429.935 331.506 427.996 330.304 426.055C329.132 424.056 327.832 420.809 327.402 418.818C325.677 410.113 323.287 403.949 319.96 399.671C314.626 392.821 312.755 392.829 312.774 399.558C312.756 401.247 312.602 404.565 312.351 406.874C311.388 417.386 312.414 423.889 316.516 432.771C319.865 440.161 320.735 441.416 321.826 440.421C322.268 439.982 323.003 438.953 323.472 438.01C324.145 436.654 324.825 436.336 327.469 436.426C329.25 436.447 331.183 436.766 331.838 437.1C333.805 438.101 336.1 447.614 336.397 455.887C336.532 458.171 337.036 458.059 337.967 455.431C338.58 453.897 341.384 451.559 342.218 451.983C343.053 452.408 344.649 455.51 346.345 460.213C347.737 463.875 348.962 464.868 352.019 464.726C354.453 464.636 356.42 465.637 359.112 468.336C360.338 469.625 364.187 472.249 368.36 474.521C372.206 476.7 375.933 478.819 376.559 479.212C377.156 479.663 382.874 481.983 389.156 484.369L400.679 488.831L402.603 483.904C405.168 477.234 405.473 474.215 404.661 464.571C404.11 458.014 404.184 455.91 405.15 453.965C405.998 452.256 406.166 450.865 405.74 449.318C405.405 448.188 402.013 442.991 398.234 437.818C394.427 432.705 390.647 427.384 389.866 426.101C384.096 416.37 384.275 416.609 379.952 414.039C377.655 412.648 374.82 410.54 373.534 409.369C371.561 407.479 370.786 407.084 367.605 406.424C364.81 405.888 363.886 405.492 363.971 404.87C364.057 404.397 362.773 403.374 360.776 402.283C358.898 401.254 356.869 399.926 356.181 399.206C354.207 397.167 347.359 394.568 342.009 393.764ZM310.72 386.402C310.424 386.547 309.325 386.504 308.343 386.226C306.261 385.609 302.508 388.203 304.237 389.083C304.713 389.326 306.107 389.075 307.41 388.557C309.038 387.835 310.226 387.849 311.269 388.454C312.372 389.089 313.026 389.127 313.585 388.451C314.115 387.835 313.904 387.358 312.771 386.782C311.937 386.357 311.045 386.198 310.72 386.402ZM339.029 408.935C334.481 408.171 333.267 408.66 335.477 410.376C337.836 412.241 340.333 412.626 341.809 411.458C343.196 410.318 343.579 409.848 343.281 409.697C343.221 409.666 341.289 409.347 339.029 408.935ZM122.538 304.343C122.304 304.815 122.338 305.349 122.695 305.531C122.993 305.682 123.318 305.33 123.373 304.768C123.369 304.175 123.335 303.641 123.216 303.58C123.097 303.52 122.773 303.872 122.538 304.343ZM329.347 412.646C329.259 412.823 329.628 414.635 330.089 416.716C330.761 419.421 331.483 420.674 332.615 421.251C334.88 422.404 339.164 427.76 340.586 431.363L341.854 434.372L343.66 433.593C345.081 432.987 345.963 431.811 347.485 428.746L349.476 424.738L347.684 423.384C346.759 422.691 342.823 420.392 339.008 418.302C335.252 416.242 332.031 414.308 331.88 414.009C331.638 413.295 329.581 412.174 329.347 412.646ZM189.601 360.707C188.457 362.709 188.434 363.658 189.505 367.968C190.148 370.733 190.611 373.258 190.494 373.493C189.88 374.731 191.611 380.117 193.654 383.52C196.389 388.087 198.802 393.303 201.497 400.656C203.919 407.205 204.279 407.684 204.703 404.725C204.813 403.451 205.832 400.647 206.915 398.466C208.816 394.487 208.816 394.487 207.252 391.623C206.409 390.012 204.369 387.054 202.691 385.019C198.977 380.47 196.151 375.635 196.619 374.691C197.818 372.127 193.716 359.036 191.545 358.596C191.159 358.473 190.304 359.441 189.601 360.707ZM168.741 399.857C166.601 399.506 161.762 399.627 157.964 400.057C154.227 400.517 149.182 400.903 146.806 400.875C142.412 400.853 129.376 404.85 128.586 406.442C128.381 406.854 128.745 407.926 129.434 408.794C131.322 411.306 130.674 412.009 126.606 411.932C121.736 411.816 114.026 413.208 112.669 414.437C112.079 415.023 110.036 415.829 108.14 416.34C106.243 416.851 102.396 418.585 99.6155 420.123C95.7127 422.419 94.4142 423.531 93.4776 425.417C92.8933 426.744 91.5772 429.544 90.5831 431.697C89.5891 433.849 87.6509 436.85 86.2365 438.345C82.8493 442.159 80.3614 447.169 81.5534 447.775C82.8646 448.443 93.9101 448.454 99.2205 447.834C104.056 447.268 105.722 447.673 106.984 449.792C107.645 450.867 108.329 450.994 110.969 450.639C117.999 449.714 120.872 448.74 122.312 446.593C123.105 445.446 124.988 443.008 126.519 441.129C128.109 439.28 131.05 435.461 133.109 432.669C135.167 429.877 137.787 426.706 138.908 425.652C141.797 422.84 142.088 421.955 140.014 422.523C137.109 423.26 120.688 431.367 119.184 432.743C118.358 433.504 116.88 434.376 115.873 434.749C113.948 435.468 111.27 434.696 111.142 433.449C111.108 432.767 117.368 427.979 123.072 424.311C126.146 422.331 126.262 421.947 123.77 422.155C122.969 422.264 122.195 422.018 122.044 421.72C121.74 420.679 125.193 417.785 128.479 416.43C130.256 415.71 131.853 414.898 131.97 414.663C132.087 414.427 134.777 412.769 137.971 410.998C144.27 407.485 146.614 407.127 153.335 408.629C155.416 409.098 158.388 409.429 159.931 409.328C161.474 409.228 163.942 409.672 165.491 410.312C172.281 413.178 174.125 413.674 178.106 413.928C182.264 414.125 184.662 413.056 185.357 410.604C186.137 407.679 175.458 400.766 168.741 399.857ZM187.45 420.974C186.299 421.939 182.067 423.845 177.949 425.22C170.87 427.597 170.398 427.948 166.803 431.878C163.71 435.25 162.44 436.154 159.536 437.039C155.536 438.178 155.48 438.592 160.986 432.165C162.547 430.375 164.075 428.2 164.366 427.314C164.831 425.926 164.15 426.244 159.598 429.096C154.573 432.298 150.248 433.64 148.932 432.38C148.693 432.11 148.773 430.896 149.091 429.655C150.6 424.811 149.288 423.995 145.273 427.268C142.026 429.898 131.635 442.404 130.083 445.528C129.41 446.883 128.377 447.76 126.778 448.275C125.267 448.762 124.499 449.405 124.387 450.233C124.123 454.825 123.556 458.672 123 459.791C122.62 460.558 122.685 461.329 123.102 461.542C124.175 462.088 131.769 461.08 135.59 459.85C140.478 458.277 153.41 448.172 155.254 444.459C156.162 442.632 156.757 442.787 158.555 445.179C160.145 447.391 160.615 450.806 159.714 453.522C159.336 454.733 159.256 455.948 159.555 456.247C159.854 456.547 161.873 456.541 164.009 456.3C167.539 455.807 168.16 455.459 170.752 452.495C172.372 450.736 174.695 447.562 176.046 445.443C177.367 443.384 178.662 441.828 178.841 441.919C179.914 442.465 181.036 445.769 180.904 447.99C180.742 450.271 180.862 450.48 181.896 449.751C182.547 449.343 184.337 446.489 185.948 443.395C188.437 438.534 188.989 436.821 189.864 430.547C191.593 419.096 191.227 417.728 187.45 420.974ZM171.171 419.924C170.937 420.395 171.15 421.02 171.626 421.263C172.58 421.748 173.17 421.162 172.776 420.15C172.472 419.109 171.64 418.981 171.171 419.924ZM142.38 412.947C138.372 413.048 137.752 413.545 139.044 415.605C139.825 416.889 140.359 416.866 144.774 415.643C147.53 414.904 150.049 414.193 150.464 414.109C152.094 413.683 145.823 412.78 142.38 412.947ZM158.103 419.326C154.957 419.497 153.304 420.871 153.617 423.097C153.771 423.988 154.254 424.972 154.73 425.215C155.565 425.64 160.233 422.404 161.023 420.813C161.667 419.516 160.982 419.241 158.103 419.326ZM241.708 476.358C241.328 477.124 241.728 487.444 242.254 490.296C243.336 496.386 243.764 493.871 243.053 485.83C242.636 481.556 242.49 477.79 242.666 477.436C242.842 477.083 242.69 476.636 242.392 476.485C242.034 476.303 241.737 476.299 241.708 476.358Z" fill="#FBF8EF"></path><path d="M274.376 274.091C274.535 275.573 274.475 275.542 273.638 274.378C273.159 273.692 272.886 272.889 273.032 272.595C273.529 271.594 274.246 272.402 274.376 274.091Z" fill="#FBF8EF"></path></svg> 