<?xml version="1.0" encoding="UTF-8"?> <svg xmlns="http://www.w3.org/2000/svg" width="2343" height="1287" viewBox="0 0 2343 1287" fill="none"><g filter="url(#filter0_d_855_12)"><path d="M956.812 1010.59C958.885 1010.57 960.958 1010.55 963.032 1010.53C964.187 1010.52 965.341 1010.51 966.531 1010.5C969.608 1010.59 969.608 1010.59 972.451 1011.55C976.559 1011.46 980.618 1011.33 984.714 1011.13C985.854 1011.08 986.994 1011.03 988.169 1010.98C990.987 1010.86 993.804 1010.73 996.621 1010.59C996.621 1011.22 996.621 1011.85 996.621 1012.5C1000.03 1012.83 1003.43 1013.15 1006.84 1013.46C1007.8 1013.55 1008.76 1013.64 1009.74 1013.74C1013.89 1014.12 1017.86 1014.42 1022.05 1014.35C1023.04 1014.37 1024.03 1014.39 1025.06 1014.42C1026.24 1015.42 1026.24 1015.42 1027.46 1016.45C1032.93 1021.02 1040.96 1024.03 1049.23 1025.89C1064.62 1026.49 1080 1025.57 1095.32 1024.65C1125.79 1022.89 1125.79 1022.89 1135.96 1025.89C1136.42 1026.83 1136.89 1027.78 1137.38 1028.75C1134.53 1030.66 1134.53 1030.66 1131.55 1030.78C1130.36 1030.74 1129.18 1030.7 1127.96 1030.66C1122.18 1030.58 1117.46 1030.99 1111.93 1032.07C1102.11 1033.74 1091.9 1033.66 1081.84 1033.59C1080.61 1033.59 1079.38 1033.58 1078.11 1033.58C1075.12 1033.57 1072.12 1033.55 1069.13 1033.53C1069.13 1034.16 1069.13 1034.79 1069.13 1035.44C1071.95 1035.76 1074.76 1036.07 1077.66 1036.4C1078.13 1037.34 1078.6 1038.29 1079.08 1039.27C1080.08 1039.36 1081.08 1039.46 1082.11 1039.56C1088.58 1040.6 1093.69 1042.61 1099.17 1045.12C1102.87 1046.96 1102.87 1046.96 1106.1 1047.39C1108.94 1047.87 1108.94 1047.87 1113.03 1049.72C1117.21 1051.77 1117.21 1051.77 1121.47 1052.53C1128.81 1054.27 1136.31 1057.1 1141.03 1061.34C1144.1 1064.09 1148.37 1064.88 1153.02 1066.03C1154.32 1066.36 1154.32 1066.36 1155.64 1066.71C1156.54 1066.93 1157.43 1067.16 1158.35 1067.4C1159.76 1067.76 1159.76 1067.76 1161.2 1068.14C1163.54 1068.69 1165.91 1069.18 1168.29 1069.62C1176.01 1071.17 1180.24 1072.22 1184.21 1077.08C1186.72 1080.1 1187.86 1081.13 1192.72 1082.45C1195.72 1082.91 1198.74 1083.33 1201.77 1083.67C1205.62 1084.19 1205.62 1084.19 1209.89 1086.1C1214.95 1085.83 1219.58 1085.45 1224.46 1084.54C1227.57 1084.1 1229.58 1084.63 1232.64 1085.14C1234.54 1084.83 1236.43 1084.51 1238.32 1084.19C1241.64 1084.15 1244.96 1084.14 1248.28 1084.19C1248.36 1083.52 1248.45 1082.84 1248.54 1082.15C1250.53 1077.43 1255.1 1074.44 1261.07 1071.76C1269.76 1071.26 1277.33 1072.08 1285.24 1074.63C1286.71 1075.56 1288.13 1076.51 1289.51 1077.5C1293.86 1078.96 1297.75 1078.37 1302.57 1078.15C1304.41 1078.08 1306.25 1078 1308.14 1077.92C1318.22 1077.21 1318.22 1077.21 1326.47 1073.67C1333.37 1073.44 1339.59 1073.72 1346.38 1074.63C1346.38 1074 1346.38 1073.37 1346.38 1072.72C1355.26 1070.59 1361.13 1069.85 1370.55 1070.8C1373.88 1069.86 1377.19 1068.91 1380.5 1067.94C1385.39 1068.24 1385.39 1068.24 1389.03 1068.89C1389.03 1066.37 1389.03 1063.85 1389.03 1061.25C1397.89 1059.3 1405.37 1058.94 1414.62 1059.93C1420.43 1060.46 1424.78 1059.87 1430.26 1058.38C1433.95 1056.3 1436.11 1054.39 1438.79 1051.69C1443.39 1051.44 1443.39 1051.44 1449.01 1051.57C1456.21 1051.72 1463.02 1051.83 1470.07 1050.73C1472.69 1047.54 1472.69 1047.54 1474.34 1044.04C1476.29 1042.13 1476.29 1042.13 1478.6 1041.18C1482.42 1041.48 1482.42 1041.48 1485.71 1042.13C1485.24 1043.71 1484.77 1045.29 1484.29 1046.91C1487.02 1046.8 1489.74 1046.68 1492.47 1046.55C1494.74 1046.45 1494.74 1046.45 1497.06 1046.35C1501.13 1045.98 1503.49 1045.33 1507.04 1044.04C1510.97 1043.88 1514.35 1043.8 1518.15 1044.56C1522.19 1045.13 1525.68 1044.89 1529.79 1044.64C1531.41 1044.55 1533.04 1044.45 1534.71 1044.35C1536.37 1044.25 1538.03 1044.15 1539.74 1044.04C1544.21 1043.81 1548.69 1043.59 1553.16 1043.36C1556.4 1043.12 1559.36 1042.73 1562.49 1042.13C1562.96 1043.08 1563.43 1044.03 1563.91 1045C1565.41 1044.9 1566.9 1044.8 1568.44 1044.7C1574.39 1044.67 1578.73 1045.83 1584.17 1047.39C1592.15 1049.61 1598.34 1050.18 1606.91 1049.76C1610.83 1049.78 1610.83 1049.78 1614.96 1050.71C1620 1051.83 1624.1 1051.91 1629.4 1051.87C1631.09 1051.86 1632.78 1051.86 1634.52 1051.85C1639.18 1051.77 1639.18 1051.77 1643.35 1051.14C1644.35 1051.01 1645.34 1050.87 1646.37 1050.73C1646.84 1051.05 1647.31 1051.37 1647.8 1051.69C1655.7 1052.26 1661.03 1050.99 1668.26 1048.89C1671.84 1047.9 1675.35 1047.18 1679.07 1046.49C1684.27 1045.5 1688.78 1044.19 1693.56 1042.49C1703.25 1039.11 1712.46 1039.12 1723.15 1039.27C1724.66 1041.06 1724.66 1041.06 1725.99 1043.09C1723.68 1046.19 1719.23 1046.63 1714.62 1047.87C1715.31 1052.05 1717.23 1053.64 1721.73 1056.47C1721.73 1057.1 1721.73 1057.73 1721.73 1058.38C1723.84 1058.14 1723.84 1058.14 1725.99 1057.9C1735.4 1057.03 1743.43 1057.33 1752.58 1058.85C1755.93 1059.35 1759.19 1059.6 1762.6 1059.81C1767.46 1060.13 1771.27 1060.86 1775.76 1062.2C1778.11 1062.56 1780.48 1062.88 1782.86 1063.16C1783.33 1064.11 1783.8 1065.05 1784.29 1066.03C1807.78 1067.2 1807.78 1067.2 1829.84 1064.06C1833.48 1062.88 1835.76 1063.13 1839.74 1063.46C1841.09 1063.56 1842.45 1063.66 1843.85 1063.77C1845.31 1063.88 1846.76 1064 1848.27 1064.11C1851.43 1064.3 1854.6 1064.48 1857.77 1064.65C1859.22 1064.73 1860.66 1064.81 1862.14 1064.9C1863.2 1064.95 1864.25 1065.01 1865.33 1065.07C1865.33 1064.44 1865.33 1063.81 1865.33 1063.16C1867.88 1063.48 1867.88 1063.48 1870.48 1063.82C1876.6 1064.36 1879.82 1063.23 1885.23 1061.25C1888.43 1061.67 1888.43 1061.67 1890.92 1062.2C1891.86 1061.57 1892.8 1060.94 1893.76 1060.29C1898.92 1060.65 1898.92 1060.65 1903.72 1061.25C1904.18 1062.51 1904.65 1063.77 1905.14 1065.07C1906.37 1065.03 1907.6 1064.99 1908.87 1064.95C1913.67 1065.07 1913.67 1065.07 1917.76 1066.03C1923.32 1067.22 1927.75 1067.12 1933.57 1066.98C1934.51 1069.19 1935.45 1071.4 1936.42 1073.67C1938.2 1073.34 1939.99 1073 1941.84 1072.66C1946.29 1071.82 1947.48 1071.69 1952.06 1072.72C1955.04 1072.91 1958.04 1073.06 1961.03 1073.19C1965.83 1073.4 1970.44 1073.66 1975.17 1074.24C1979.81 1074.7 1981.91 1073.89 1986.18 1072.72C1990.18 1073.07 1990.18 1073.07 1993.29 1073.67C1993.29 1075.88 1993.29 1078.09 1993.29 1080.36C1996.93 1079.9 2000.57 1079.45 2004.22 1078.99C2005.76 1078.8 2005.76 1078.8 2007.32 1078.6C2008.33 1078.47 2009.33 1078.35 2010.37 1078.22C2011.35 1078.09 2012.33 1077.97 2013.34 1077.85C2015.54 1077.56 2017.71 1077.23 2019.88 1076.88C2025.9 1076.25 2031.61 1077.24 2037.36 1078.45C2039.75 1079.71 2042.13 1080.98 2044.47 1082.27C2048.68 1083.14 2052.92 1083.7 2057.27 1084.19C2057.27 1083.55 2057.27 1082.92 2057.27 1082.27C2058.28 1082.16 2059.29 1082.04 2060.33 1081.92C2061.63 1081.76 2062.94 1081.6 2064.29 1081.44C2065.59 1081.28 2066.89 1081.13 2068.24 1080.97C2069.31 1080.77 2070.38 1080.57 2071.49 1080.36C2071.95 1079.73 2072.42 1079.1 2072.91 1078.45C2075.02 1077.98 2075.02 1077.98 2077.17 1077.5C2078.05 1076.88 2078.93 1076.27 2079.84 1075.64C2084.09 1072.87 2087.89 1071.81 2093.83 1071.67C2095.14 1071.72 2096.44 1071.77 2097.79 1071.82C2104.31 1071.93 2107.2 1071.26 2112.72 1068.89C2117.87 1068.89 2117.87 1068.89 2122.67 1069.85C2123.26 1070.66 2123.84 1071.47 2124.45 1072.3C2125.27 1073.07 2126.09 1073.84 2126.93 1074.63C2133.41 1075.34 2139.88 1075.36 2146.01 1073.7C2150.56 1072.48 2154.77 1072.18 2159.64 1071.82C2171.95 1070.82 2184.13 1069.4 2195.71 1066.32C2208.7 1063.25 2224.41 1064.84 2237.83 1066.03C2237.83 1065.4 2237.83 1064.76 2237.83 1064.11C2243.93 1064.11 2250.03 1064.11 2256.32 1064.11C2256.32 1063.48 2256.32 1062.85 2256.32 1062.2C2258.11 1061.93 2258.11 1061.93 2259.95 1061.64C2262.29 1061.27 2262.29 1061.27 2264.67 1060.89C2266.22 1060.65 2267.77 1060.4 2269.37 1060.15C2273.53 1059.54 2273.53 1059.54 2276.22 1057.42C2280 1056.88 2283.74 1056.72 2287.6 1056.47C2287.13 1055.52 2286.66 1054.58 2286.17 1053.6C2286.08 1052.11 2286.05 1050.61 2286.08 1049.12C2286.1 1048.35 2286.11 1047.58 2286.12 1046.78C2286.14 1046.19 2286.16 1045.61 2286.17 1045C2291.78 1043.88 2296.05 1044.38 2301.81 1045C2303.69 1045 2305.57 1045 2307.5 1045C2307.5 1076.22 2307.5 1107.45 2307.5 1139.62C2301.17 1141.04 2301.17 1141.04 2294.7 1142.49C2293.77 1142.8 2292.83 1143.12 2291.86 1143.44C2288.66 1143.53 2285.46 1143.57 2282.26 1143.56C2280.54 1143.56 2278.82 1143.57 2277.04 1143.57C2272.35 1143.45 2268.04 1143.01 2263.42 1142.49C2252.88 1142.12 2242.92 1142.33 2232.62 1143.91C2204.25 1148.09 2175.6 1144.99 2148.88 1138.24C2134.58 1134.71 2120.81 1135.75 2106.07 1137.03C2099.12 1137.61 2092.41 1137.85 2085.4 1137.59C2082.49 1137.54 2082.49 1137.54 2080.02 1139.62C2075.83 1139.74 2075.83 1139.74 2070.69 1139.62C2062.38 1139.53 2055.28 1140.05 2047.31 1141.53C2042.33 1142.32 2039.77 1142.72 2034.91 1141.58C2022.24 1138.84 2007.17 1139.53 1993.91 1139.44C1992.86 1139.43 1991.81 1139.41 1990.73 1139.4C1983.22 1139.39 1975.41 1139.57 1969.42 1142.97C1968.82 1143.48 1968.22 1143.99 1967.61 1144.52C1964.36 1146.92 1963.89 1147.22 1958.81 1147.68C1954.9 1147.26 1954.9 1147.26 1952.06 1146.31C1951.59 1147.89 1951.12 1149.46 1950.63 1151.09C1936.98 1153.16 1926.49 1150.2 1913.81 1147.01C1910.95 1146.34 1908.1 1145.83 1905.15 1145.34C1903.03 1144.87 1903.03 1144.87 1900.87 1144.4C1900.4 1143.45 1899.93 1142.5 1899.45 1141.53C1896.18 1140.12 1896.18 1140.12 1892.16 1138.96C1890.18 1138.33 1890.18 1138.33 1888.15 1137.7C1883.86 1136.59 1883.86 1136.59 1879.31 1136.76C1871.86 1136.75 1865.08 1135.58 1857.86 1134.42C1856.45 1134.2 1855.04 1133.98 1853.59 1133.75C1848.42 1132.94 1843.35 1132.14 1838.31 1131.02C1832.16 1130.59 1829.17 1130.69 1823.81 1132.86C1822.38 1133.65 1820.95 1134.44 1819.48 1135.26C1811.83 1139.42 1808.14 1140.68 1798.33 1140.39C1790.63 1140.34 1785.65 1141.04 1778.9 1143.42C1773.4 1145.13 1767.49 1145.67 1761.54 1146.31C1761.4 1146.91 1761.27 1147.51 1761.13 1148.13C1760.63 1149.12 1760.63 1149.12 1760.12 1150.13C1756.27 1151.31 1752.75 1152.18 1748.74 1153C1747.56 1153.27 1746.39 1153.54 1745.18 1153.81C1736.67 1155.68 1729.24 1156.96 1720.48 1154.91C1712.86 1153.27 1705.24 1153.48 1697.56 1154.91C1688.52 1156.22 1679.95 1156.96 1670.69 1156.64C1668.87 1156.58 1667.04 1156.53 1665.15 1156.47C1661.36 1156.35 1657.56 1156.22 1653.77 1156.08C1636.57 1155.21 1636.57 1155.21 1620.9 1159.13C1619.35 1160.09 1617.83 1161.07 1616.32 1162.06C1612.22 1164.31 1607.59 1165.33 1602.63 1166.51C1599.13 1167.33 1599.13 1167.33 1595.19 1169.25C1593.58 1169.36 1591.96 1169.48 1590.3 1169.6C1585.22 1169.86 1585.22 1169.86 1582.66 1171.99C1574.01 1177.64 1559.06 1177.55 1547.64 1178.61C1530.25 1180 1530.25 1180 1515.57 1185.49C1512.68 1186.03 1512.68 1186.03 1509.17 1186.45C1507.89 1186.61 1506.62 1186.76 1505.3 1186.92C1503.35 1187.16 1503.35 1187.16 1501.35 1187.41C1499.01 1187.74 1496.67 1188.08 1494.33 1188.42C1489.15 1189.14 1484.15 1189.47 1478.87 1189.68C1472.17 1190 1469.55 1191.2 1464.39 1194.1C1462.86 1193.94 1461.34 1193.78 1459.77 1193.62C1451.7 1192.89 1445.89 1195.31 1439.02 1197.98C1435.5 1199.01 1433.21 1199.06 1429.39 1198.96C1428.1 1198.94 1426.81 1198.92 1425.48 1198.9C1424.1 1198.87 1422.72 1198.84 1421.29 1198.81C1407.99 1198.67 1395.3 1199.36 1382.15 1200.65C1374.15 1201.44 1366.28 1201.99 1358.2 1202.22C1349.86 1202.49 1342.36 1203.38 1334.37 1204.97C1330.65 1205.58 1327.44 1205.67 1323.63 1205.56C1323.63 1204.93 1323.63 1204.3 1323.63 1203.65C1309.78 1204.59 1309.78 1204.59 1296.71 1207.6C1287.75 1210.29 1277.8 1210.08 1268.18 1209.39C1267.24 1208.76 1266.3 1208.13 1265.34 1207.48C1259.51 1207.63 1255.18 1208.35 1250.23 1210.34C1245.96 1212.04 1243.17 1212.82 1238.32 1213.21C1238.26 1213.8 1238.21 1214.39 1238.15 1215C1237.74 1215.67 1237.32 1216.34 1236.9 1217.03C1235.52 1217.33 1234.15 1217.62 1232.73 1217.93C1231.29 1218.26 1229.85 1218.6 1228.37 1218.94C1227.99 1219.67 1227.61 1220.4 1227.22 1221.15C1224.45 1225.36 1218.87 1226.79 1212.73 1228.5C1207.83 1229.19 1203.07 1229.35 1198.07 1229.4C1196.76 1229.42 1195.45 1229.45 1194.11 1229.48C1182.77 1229.63 1172.16 1228.97 1161.36 1226.55C1154.27 1225.37 1147.5 1225.27 1140.22 1225.16C1128.73 1224.91 1117.71 1224.27 1106.35 1223.08C1100.84 1222.7 1095.91 1223.1 1090.46 1223.63C1086.22 1223.77 1083.9 1222.46 1080.51 1220.86C1078.83 1220.7 1077.16 1220.54 1075.44 1220.38C1070.3 1219.88 1068.74 1219.2 1064.87 1217.03C1062.52 1216.35 1060.16 1215.7 1057.76 1215.12C1057.76 1214.49 1057.76 1213.86 1057.76 1213.21C1056.49 1213.23 1056.49 1213.23 1055.19 1213.26C1051.37 1213.32 1047.54 1213.35 1043.72 1213.39C1042.39 1213.41 1041.05 1213.44 1039.68 1213.46C1037.77 1213.48 1037.77 1213.48 1035.82 1213.49C1034.06 1213.51 1034.06 1213.51 1032.26 1213.54C1031.29 1213.43 1030.32 1213.32 1029.32 1213.21C1028.38 1212.26 1027.45 1211.32 1026.48 1210.34C1022.73 1209.79 1022.73 1209.79 1019.87 1209.63C1015.44 1209.31 1011.06 1208.84 1006.66 1208.37C1005.04 1208.2 1003.41 1208.03 1001.74 1207.86C1000.52 1207.73 999.299 1207.61 998.043 1207.48C997.62 1206.56 997.196 1205.65 996.76 1204.71C994.974 1201.31 994.229 1200.5 989.513 1198.87C986.169 1198.35 982.845 1197.92 979.455 1197.56C978.551 1197.36 977.647 1197.17 976.717 1196.96C976.247 1196.02 975.778 1195.07 975.295 1194.1C973.843 1194.33 973.843 1194.33 972.362 1194.57C967.594 1195.12 963.062 1195.11 958.233 1195.05C957.295 1193.79 956.357 1192.53 955.39 1191.23C951.167 1191.54 946.945 1191.86 942.594 1192.18C942.125 1191.55 941.656 1190.92 941.172 1190.27C933.547 1189.85 929.244 1190.62 922.678 1193.26C919.054 1194.33 916.662 1194.42 912.737 1194.1C909.854 1192.84 909.854 1192.84 907.138 1191.23C901.992 1188.43 899.458 1188.26 892.832 1188.36C891.805 1187.63 890.779 1186.9 889.722 1186.15C884.712 1182.93 880.545 1182.42 873.926 1181.37C870.083 1180.71 870.083 1180.71 864.929 1179.16C860.904 1178.06 858.573 1177.63 854.405 1177.38C846.834 1176.87 839.316 1176.18 831.784 1175.46C829.77 1175.27 829.77 1175.27 827.716 1175.08C826.436 1174.96 825.156 1174.84 823.837 1174.71C822.682 1174.6 821.528 1174.49 820.338 1174.38C817.477 1174.02 817.477 1174.02 814.634 1173.07C814.634 1172.44 814.634 1171.81 814.634 1171.16C812.353 1171.02 810.072 1170.88 807.792 1170.74C806.371 1170.65 804.951 1170.56 803.487 1170.47C800.569 1170.29 797.648 1170.15 794.723 1170.03C787.083 1169.68 782.824 1169.03 776.246 1166.38C772.177 1166.02 768.154 1165.84 764.055 1165.72C760.606 1165.42 760.606 1165.42 757.763 1163.51C757.763 1162.57 757.763 1161.62 757.763 1160.64C754.087 1159.26 750.973 1158.54 746.833 1157.84C745.279 1157.5 743.725 1157.17 742.123 1156.82C741.654 1155.88 741.185 1154.93 740.702 1153.95C737.592 1153.79 734.482 1153.63 731.371 1153.48C729.639 1153.39 727.907 1153.3 726.123 1153.21C720.791 1152.94 720.791 1152.94 715.426 1153.15C710.211 1152.98 709.877 1152.57 706.579 1150.13C703.302 1149.86 703.302 1149.86 699.648 1150.07C690.402 1150.25 681.505 1149.49 672.456 1148.22C671.987 1147.9 671.518 1147.59 671.034 1147.26C659.212 1146.09 651.211 1147.47 641.499 1152.08C637.461 1154.47 635.681 1156.27 634.068 1159.69C631.722 1159.37 629.376 1159.06 626.959 1158.73C627.429 1156.53 627.898 1154.32 628.381 1152.04C623.493 1152.22 623.493 1152.22 618.429 1153C617.434 1154.26 616.485 1155.53 615.585 1156.82C609.362 1157.96 601.609 1158.81 595.68 1156.82C594.792 1154.37 594.792 1154.37 594.258 1152.04C593.226 1152.02 592.194 1151.99 591.131 1151.97C586.427 1151.86 581.723 1151.74 577.019 1151.62C575.396 1151.59 573.772 1151.55 572.099 1151.51C570.523 1151.47 568.946 1151.43 567.322 1151.39C565.156 1151.34 565.156 1151.34 562.945 1151.28C558.714 1151.09 558.714 1151.09 554.196 1150.56C549.288 1150.04 545.886 1150.62 541.12 1151.51C539.613 1151.78 538.106 1152.05 536.554 1152.34C535.422 1152.56 534.289 1152.77 533.122 1153C532.653 1154.26 532.184 1155.52 531.7 1156.82C525.964 1156.87 520.228 1156.9 514.492 1156.93C512.55 1156.94 510.607 1156.95 508.665 1156.97C497.074 1157.06 486.06 1156.75 474.65 1155.32C470.492 1154.83 470.492 1154.83 465.952 1154.91C462.033 1154.91 462.033 1154.91 459.212 1153.93C455.095 1152.59 451.978 1153.04 447.46 1153.36C441.724 1153.72 436.232 1154 430.476 1153.82C417.953 1153.26 417.953 1153.26 406.85 1156.76C406.05 1157.28 405.249 1157.8 404.423 1158.34C399.986 1161.18 395.014 1160.72 389.256 1160.64C382.061 1160.61 375.285 1160.78 368.196 1161.6C367.727 1161.92 367.258 1162.23 366.774 1162.56C363.464 1162.91 360.146 1163.23 356.822 1163.51C355.414 1166.35 355.414 1166.35 353.978 1169.25C352.688 1169.17 351.398 1169.09 350.068 1169.01C344.459 1169.3 343.357 1170.31 339.76 1173.07C338.822 1173.07 337.884 1173.07 336.917 1173.07C334.606 1174.46 334.606 1174.46 332.651 1175.94C330.848 1175.51 330.848 1175.51 329.008 1175.08C324.088 1174.02 319.216 1173.21 314.168 1172.47C312.497 1172.22 310.825 1171.97 309.103 1171.72C304.513 1171.19 300.328 1171.05 295.685 1171.16C295.2 1172.08 294.714 1173.01 294.213 1173.96C291.42 1176.89 291.42 1176.89 286.627 1177.8C284.703 1177.89 282.774 1177.94 280.845 1177.97C279.836 1177.99 278.827 1178.02 277.787 1178.05C267.585 1178.16 257.703 1176.61 248.994 1172.92C245.181 1171.92 241.941 1172.14 237.911 1172.33C224.645 1172.92 216.301 1170.96 205.08 1166.36C199.839 1164.23 194.847 1162.87 189.052 1161.6C189.052 1160.97 189.052 1160.34 189.052 1159.69C185.616 1159.64 182.181 1159.6 178.744 1159.57C177.29 1159.55 177.29 1159.55 175.806 1159.52C170.482 1159.49 166.554 1159.61 162.038 1161.6C159.927 1160.65 159.927 1160.65 157.773 1159.69C154.469 1159.31 151.15 1158.99 147.82 1158.73C146.882 1160.94 145.944 1163.15 144.977 1165.42C143.1 1165.42 141.223 1165.42 139.29 1165.42C139.29 1164.48 139.29 1163.53 139.29 1162.56C138.351 1162.56 137.413 1162.56 136.446 1162.56C136.241 1163.29 136.036 1164.01 135.824 1164.77C132.357 1168.78 127.192 1169.01 120.807 1170.2C118.761 1170.72 116.717 1171.23 114.675 1171.75C105.07 1173.88 95.182 1174.12 85.1345 1173.94C70.0297 1173.69 57.4552 1174.74 43.6919 1179.41C39.7653 1180.71 39.7653 1180.71 36.9218 1180.71C36.218 1181.66 36.218 1181.66 35.5 1182.63C35.5 1158.03 35.5 1133.42 35.5 1108.08C35.9692 1108.71 36.4384 1109.34 36.9218 1109.99C38.0361 1109.81 39.1504 1109.64 40.2985 1109.45C44.0307 1109.03 44.0307 1109.03 46.8742 1109.99C47.2554 1109.45 47.6366 1108.91 48.0294 1108.35C50.3966 1105.29 53.3109 1102.53 56.2046 1099.69C58.2947 1097.63 58.2947 1097.63 59.6758 1095.49C61.6074 1093.11 64.2366 1092.4 67.901 1091.44C72.9817 1090.53 78.0994 1090.37 83.335 1090.21C86.9505 1090.13 86.9505 1090.13 89.5275 1088.01C96.1972 1086.37 101.13 1085.65 108.011 1087.05C110.854 1089.92 110.854 1089.92 110.588 1092.85C109.432 1095.65 109.432 1095.65 105.167 1097.57C103.76 1097.57 102.352 1097.57 100.902 1097.57C99.9634 1099.14 99.025 1100.72 98.0582 1102.34C98.9966 1102.34 99.9349 1102.34 100.902 1102.34C100.902 1102.98 100.902 1103.61 100.902 1104.26C106.212 1103.78 109.166 1103.42 113.698 1101.39C115.897 1101.18 115.897 1101.18 118.141 1100.97C122.576 1100.54 125.608 1099.99 129.693 1098.94C137.14 1097.16 144.27 1097.3 152.086 1097.57C152.79 1096.15 152.79 1096.15 153.508 1094.7C154.446 1094.38 155.384 1094.07 156.351 1093.74C157.172 1092.66 157.993 1091.57 158.839 1090.46C161.034 1087.81 161.793 1087.14 165.948 1085.68C171.432 1085.04 176.383 1085.01 181.943 1085.14C182.647 1083.72 182.647 1083.72 183.365 1082.27C187.493 1080.42 190.487 1080.2 195.361 1080.42C201.08 1080.51 204.444 1080.05 208.957 1077.5C210.323 1074.74 210.529 1073 210.467 1070.15C210.455 1069.38 210.442 1068.6 210.429 1067.81C210.412 1067.22 210.396 1066.63 210.379 1066.03C214.2 1065.31 214.2 1065.31 218.909 1065.07C222.997 1066.74 222.997 1066.74 226.018 1068.89C226.018 1069.84 226.018 1070.79 226.018 1071.76C228.507 1071.65 230.995 1071.53 233.482 1071.4C234.868 1071.34 236.254 1071.27 237.681 1071.2C241.59 1070.81 243.869 1070.07 247.345 1068.89C258.312 1067.63 269.061 1067.95 280.046 1068.89C280.515 1069.84 280.984 1070.79 281.467 1071.76C288.086 1072.54 294.704 1073.13 301.372 1073.67C301.372 1073.04 301.372 1072.41 301.372 1071.76C305.595 1072.08 309.818 1072.39 314.168 1072.72C314.638 1071.45 315.107 1070.19 315.59 1068.89C316.69 1069.31 316.69 1069.31 317.812 1069.73C323.553 1071.51 329.419 1072.55 335.673 1073.13C339.76 1073.67 339.76 1073.67 343.076 1075.17C347.699 1076.84 349.684 1076.66 354.778 1076.02C357.005 1075.75 357.005 1075.75 359.276 1075.48C360.812 1075.28 362.348 1075.07 363.931 1074.87C366.234 1074.59 366.234 1074.59 368.585 1074.3C372.727 1073.79 376.86 1073.26 380.992 1072.72C382.3 1072.58 383.609 1072.45 384.957 1072.31C385.995 1072.13 387.032 1071.95 388.101 1071.76C389.082 1070.18 390.025 1068.58 390.944 1066.98C393.622 1065.19 396.458 1063.75 399.475 1062.2C402.681 1063.2 405.041 1064.03 407.561 1065.73C412.748 1067.71 417.963 1066.86 423.645 1066.03C424.114 1065.71 424.584 1065.4 425.067 1065.07C429.468 1064.8 433.891 1064.85 438.307 1064.83C439.542 1064.81 440.776 1064.79 442.048 1064.77C448.803 1064.74 452.583 1064.77 457.768 1067.94C462.868 1067.7 467.142 1067.11 471.986 1066.03C474.013 1063.81 475.865 1061.63 477.673 1059.34C479.087 1057.74 480.506 1056.15 481.938 1054.56C482.876 1054.89 483.815 1055.23 484.782 1055.57C489.397 1056.54 492.595 1056.31 497.317 1055.79C501.61 1055.41 505.806 1055.53 510.124 1055.67C513.331 1055.63 513.331 1055.63 516.416 1054.53C521.745 1053.26 526.621 1053.63 532.145 1053.96C533.197 1054.01 534.25 1054.07 535.335 1054.12C537.916 1054.26 540.496 1054.41 543.074 1054.56C544.013 1053.3 544.951 1052.03 545.918 1050.73C551.548 1050.73 557.179 1050.73 562.979 1050.73C563.918 1049.47 564.856 1048.21 565.823 1046.91C571.565 1043.88 577.587 1041.52 584.75 1040.52C589.987 1041.42 591.958 1043.34 595.68 1045.96C599.832 1047.7 604.12 1049.24 608.476 1050.73C608.476 1050.1 608.476 1049.47 608.476 1048.82C614.708 1049.61 620.816 1050.64 626.959 1051.69C627.429 1050.11 627.898 1048.54 628.381 1046.91C639.222 1045.72 639.222 1045.72 644.021 1047.87C644.68 1048.78 644.68 1048.78 645.354 1049.72C647.165 1052.08 649.404 1053.01 652.551 1054.56C652.551 1055.19 652.551 1055.82 652.551 1056.47C654.663 1056 654.663 1056 656.817 1055.51C662.1 1055.52 667.366 1055.58 672.645 1055.72C681.445 1055.83 688.239 1055.06 695.116 1051.03C695.614 1050.62 696.113 1050.21 696.626 1049.78C697.796 1050.19 698.965 1050.61 700.17 1051.03C710.38 1054.46 717.956 1056.4 729.327 1055.51C730.423 1055.46 731.519 1055.4 732.648 1055.35C742.861 1054.75 751.837 1053.5 760.606 1049.78C762.102 1049.48 763.597 1049.19 765.138 1048.88C769.296 1048.16 769.296 1048.16 770.737 1045.96C771.147 1045.32 771.558 1044.69 771.981 1044.04C776.418 1042.11 779.745 1041.97 784.954 1042.13C788.606 1042.29 788.606 1042.29 791.885 1042.13C792.824 1041.5 793.762 1040.87 794.729 1040.22C797.764 1040.25 800.799 1040.29 803.833 1040.35C807.801 1040.21 810.849 1039.6 814.606 1038.75C825.517 1036.66 835.96 1037.55 847.129 1038.17C856.27 1038.73 856.27 1038.73 864.513 1036.5C865.413 1035.84 866.313 1035.17 867.24 1034.49C871.949 1033.29 871.949 1033.29 875.77 1032.58C875.77 1031.94 875.77 1031.31 875.77 1030.66C876.679 1030.25 877.588 1029.84 878.525 1029.41C882.198 1027.39 882.16 1026.08 882.879 1023.02C886.805 1021.7 889.892 1021.95 894.253 1022.06C895.397 1022.32 896.541 1022.57 897.719 1022.84C902.122 1023.06 902.651 1022.55 905.983 1020.75C910.905 1018.15 914.457 1017.75 920.601 1017.52C925.961 1017.16 930.947 1016.07 936.085 1015.01C941.012 1014.21 945.094 1013.82 949.703 1015.37C951.58 1015.37 953.456 1015.37 955.39 1015.37C955.859 1013.8 956.328 1012.22 956.812 1010.59Z" fill="#F2F1ED"></path><rect x="35.5" y="13.5" width="2272" height="1107" fill="#F2F1ED"></rect></g><defs><filter id="filter0_d_855_12" x="0" y="0" width="2343" height="1287" filterUnits="userSpaceOnUse" color-interpolation-filters="sRGB"><feFlood flood-opacity="0" result="BackgroundImageFix"></feFlood><feColorMatrix in="SourceAlpha" type="matrix" values="0 0 0 0 0 0 0 0 0 0 0 0 0 0 0 0 0 0 127 0" result="hardAlpha"></feColorMatrix><feOffset dy="22"></feOffset><feGaussianBlur stdDeviation="17.75"></feGaussianBlur><feComposite in2="hardAlpha" operator="out"></feComposite><feColorMatrix type="matrix" values="0 0 0 0 0.884615 0 0 0 0 0.884332 0 0 0 0 0.883198 0 0 0 0.57 0"></feColorMatrix><feBlend mode="normal" in2="BackgroundImageFix" result="effect1_dropShadow_855_12"></feBlend><feBlend mode="normal" in="SourceGraphic" in2="effect1_dropShadow_855_12" result="shape"></feBlend></filter></defs></svg> 