<?xml version="1.0" encoding="UTF-8"?> <svg xmlns="http://www.w3.org/2000/svg" width="653" height="349" viewBox="0 0 653 349" fill="none"><path d="M391.221 347.121C390.828 346.72 385.967 346.434 380.448 346.278C374.929 346.256 370.2 345.704 369.808 345.036C369.416 344.501 364.819 343.949 359.562 344.061C352.202 344.032 348.394 343.35 341.966 340.525C337.505 338.64 333.175 337.023 332.386 337.02C331.598 337.016 327.137 335.265 322.546 332.98C317.955 330.829 313.1 328.943 311.786 328.937C308.501 328.924 275.582 312.259 273.359 309.45C272.444 308.247 271.538 304.776 271.55 301.71C271.44 296.243 271.309 296.109 267.234 296.359C259.61 296.995 232.745 277.955 213.505 258.411C207.615 252.521 200.675 246.093 198.185 244.35C195.695 242.607 193.209 239.797 192.822 238.195C192.434 236.593 189.032 232.847 185.101 229.898C181.302 226.949 174.102 219.987 169.131 214.234C163.375 207.677 158.136 203.123 154.594 201.509C151.577 200.297 146.858 197.078 144.108 194.667C139.133 190.114 133.498 185.958 120.13 176.971C116.198 174.289 110.301 170.132 107.026 167.452C94.9729 158.071 61.5286 141.27 52.3338 140.167C42.3505 139.06 40.3596 143.986 48.6185 149.085C51.6341 150.831 54.5104 154.576 57.2477 160.187C59.4632 164.862 63.5125 171.012 66.26 174.089C69.0075 177.167 71.6204 181.044 72.0077 182.779C72.5264 184.514 74.0864 188.787 75.6495 192.26C79.2961 200.542 78.2363 202.671 70.7456 202.641C65.2262 202.619 64.7022 202.217 61.4375 197.004C59.4791 193.796 57.1259 190.72 56.2081 190.183C55.1589 189.645 54.3789 187.509 54.3869 185.509C54.3949 183.509 53.4883 180.172 52.4455 178.034C51.4021 176.03 50.4923 173.493 50.4961 172.56C50.5051 170.293 41.8626 162.525 39.3657 162.515C38.3144 162.511 36.3496 160.903 35.1748 158.898C32.0405 153.953 28.5046 150.872 23.5199 148.585C21.2901 147.51 16.5756 143.357 13.0439 139.21C9.64362 135.063 5.32182 131.312 3.74644 130.906C0.333376 129.959 0.202493 129.825 2.05667 126.233C2.85048 124.903 4.8265 123.71 6.40348 123.717C7.98046 123.723 10.3507 122.532 11.6707 121.071C13.3876 118.945 15.4924 118.42 21.6689 118.444C26.0056 118.462 29.9507 117.811 30.4796 117.013C31.0084 116.215 33.1121 115.957 35.6074 116.367C39.2838 117.181 40.2053 116.785 40.8715 114.521C42.0686 110.926 45.4848 111.073 45.4699 114.806C45.4593 117.473 45.7221 117.474 49.9439 113.357C54.6929 108.843 58.637 108.458 58.6199 112.725C58.6061 116.192 61.9005 113.938 62.3102 110.073C62.9907 104.209 66.2761 104.222 71.115 110.108C74.9085 114.523 75.564 114.926 76.3604 112.929C76.8909 111.731 76.6355 109.864 75.8513 108.794C73.8896 106.386 75.4815 102.659 78.3726 102.67C80.2124 102.678 80.7344 103.613 80.5923 106.279C80.4508 108.812 80.9717 110.014 82.6785 110.421C84.2544 110.694 84.9141 110.03 84.9216 108.163C84.9306 105.897 85.7212 105.366 88.8752 105.379C91.1092 105.388 92.8155 105.928 92.8123 106.728C92.8097 107.395 94.9086 108.337 97.4033 108.88C103.576 109.971 103.822 113.972 97.7763 114.215C95.4103 114.339 93.305 114.997 93.0384 115.929C91.9743 119.125 87.7648 120.175 85.5403 117.766C83.4457 115.757 83.0514 115.756 79.1005 117.873C76.3349 119.329 73.573 119.851 71.2102 119.175C69.2406 118.767 65.0343 119.017 61.7452 119.938C52.7988 122.435 54.4966 125.109 67.8817 129.962C74.0492 132.253 81.1334 135.348 83.6239 136.958C86.1149 138.435 91.8854 141.391 96.6084 143.41C101.331 145.429 106.053 147.848 107.231 148.919C108.278 149.99 111.035 150.801 113.137 150.81C115.503 150.819 118.126 152.163 120.089 154.304C121.921 156.178 126.636 160.064 130.568 162.879C134.63 165.696 143.535 173.598 150.342 180.292C157.149 187.119 164.745 193.683 167.105 194.892C169.859 196.37 172.868 199.715 174.955 203.857C177.824 209.335 179.133 210.54 182.549 210.821C187.672 211.374 192.646 216.461 192.757 221.395C192.874 225.128 193.922 225.933 205.074 230.644C211.502 233.336 215.82 238.154 215.802 242.553C215.786 246.687 220.239 250.438 224.054 249.386C226.159 248.862 228.39 249.537 230.356 251.012C232.059 252.352 234.55 253.828 235.862 254.367C237.042 254.905 238.613 256.645 239.263 258.381C240.824 262.387 244.098 265.2 246.599 264.277C248.442 263.484 251.453 266.163 265.847 281.687C267.418 283.293 270.564 285.306 273.057 286.249C275.419 287.058 278.957 289.739 280.787 292.28C283.271 295.49 284.974 296.697 286.685 296.17C288.133 295.643 291.019 296.854 294.295 299.267C297.44 301.546 302.031 303.565 305.578 303.979C309.255 304.527 314.371 306.814 318.435 309.497C322.235 312.046 329.319 315.274 334.175 316.893C339.032 318.379 344.016 320.666 345.063 321.737C346.242 322.808 348.077 323.882 349.26 323.887C351.887 324.164 352.544 324.167 359.109 325.66C362.129 326.338 364.627 326.215 365.681 325.419C366.736 324.49 368.05 324.495 369.23 325.167C370.279 325.971 373.036 326.515 375.139 326.524C377.373 326.532 380.26 327.477 381.701 328.683C383.797 330.291 386.687 330.57 397.467 329.813C404.696 329.442 411.534 328.269 412.589 327.473C413.644 326.544 416.935 325.09 419.83 324.169C422.725 323.247 426.28 321.394 427.731 320.067C429.182 318.739 434.585 315.027 439.724 311.715C444.994 308.402 449.607 304.954 450.136 304.156C450.665 303.358 453.301 301.235 456.068 299.513C460.021 296.995 461.475 294.868 463.338 289.009C466.133 280.086 478.013 266.934 483.139 266.954C486.03 266.966 486.421 267.634 486.406 271.501C486.396 274.034 484.934 278.028 483.083 280.821C481.232 283.613 478.586 288.003 477.262 290.664C475.937 293.326 473.426 296.782 471.843 298.243C470.26 299.703 467.75 303.16 466.425 305.821C465.1 308.482 462.327 311.805 460.482 313.131C454.156 317.506 443.463 329.596 442.792 333.194C442.389 335.325 441.069 336.92 439.622 337.181C438.175 337.442 436.067 338.767 435.011 340.096C432.634 342.886 421.453 345.509 416.332 344.421C414.494 344.147 410.155 344.663 406.733 345.85C400.68 347.959 392.661 348.594 391.221 347.121Z" fill="#E0B8B9"></path><path d="M477.386 259.466C477.286 251.465 477.418 251.333 484.547 243.361C492.599 234.326 493.664 230.997 488.539 230.977C484.859 230.962 484.468 230.027 487.108 227.104C489.354 224.313 492.682 213.66 494.43 203.667C495.511 196.338 499.9 183.155 502.28 179.565C502.809 178.633 504.389 177.84 505.705 177.578C507.02 177.317 508.865 175.991 509.659 174.661C510.849 172.665 510.459 171.73 507.709 169.186L504.436 166.24L506.696 159.715C508.025 155.987 509.098 150.525 509.111 147.325C509.271 140.125 510.992 136.932 515.865 134.418C520.606 131.904 523.383 127.515 521.289 125.373C518.802 122.83 519.726 121.9 525.514 120.323C533.539 118.355 540.398 111.983 538.837 107.977C538.056 105.973 537.661 106.105 533.184 108.354C520.542 114.837 518.571 114.962 518.593 109.229C518.611 104.829 520.06 104.035 522.15 107.11C524.371 110.452 527.53 109.131 531.759 103.148C534.402 99.5588 534.537 98.626 532.975 95.0197C531.544 91.2806 531.678 90.6145 534.844 87.6938C536.822 85.835 538.408 83.5747 538.413 82.508C538.428 78.7747 541.449 79.0534 545.113 83.0681C549.953 88.5541 553.507 87.1016 554.853 79.1069C555.66 74.5768 555.271 73.2419 552.916 70.5658L550.168 67.6215L555.31 63.3753C558.211 61.1202 561.898 59.2682 563.606 59.275C567.811 59.2918 569.13 58.2304 572.704 51.7113C574.425 48.5181 576.275 45.9922 576.669 45.9937C577.195 45.9958 579.307 43.6042 581.29 40.6788C584.198 36.4237 585.384 35.6284 587.22 36.7024C590.236 38.3145 597.608 35.1439 605.254 29.1744C608.155 26.7859 612.105 24.8017 613.813 24.8085C615.522 24.8153 618.285 23.893 619.867 22.6993C623.03 20.5786 623.841 14.8484 621.217 13.638C619.906 12.9661 619.907 12.6994 621.224 12.038C622.145 11.6416 624.65 9.78496 626.759 8.06004C630.452 4.87475 630.714 4.8758 633.991 7.02223L637.399 9.30252L633.446 11.8201C631.207 13.2778 629.095 15.5361 628.695 17.0012C627.631 20.0636 621.43 26.1722 619.328 26.1639C616.568 26.1528 598.246 39.8131 592.043 46.4551C588.48 50.3076 582.535 58.1506 578.568 64.1348C573.94 71.3164 567.604 78.3578 559.823 85.2601C550.854 93.2244 547.818 96.8123 546.486 101.074C544.224 108.131 541.839 113.055 536.815 120.635C534.699 123.96 532.576 129.018 532.039 131.95C531.633 134.748 530.834 137.412 530.307 137.809C529.911 138.208 526.866 143.929 523.817 150.45C520.636 157.104 517.323 164.158 516.263 166.287C515.203 168.416 514.401 171.88 514.393 173.88C514.384 176.013 513.183 180.675 511.722 184.402C510.262 188.13 509.062 192.525 509.055 194.125C509.049 195.725 506.902 206.917 504.356 219.04C495.385 260.604 495.385 260.738 491.434 262.855C488.273 264.709 487.747 264.707 485.259 262.431C482.379 259.752 480.273 260.411 478.547 264.804C477.751 266.801 477.362 265.466 477.386 259.466Z" fill="#E0B8B9"></path><path d="M642.524 9.3235C642.53 7.85684 651.622 1.75975 652.538 2.69675C653.454 3.63375 646.2 10.2715 644.228 10.2636C643.309 10.26 642.522 9.85683 642.524 9.3235Z" fill="#E0B8B9"></path></svg> 