<?xml version="1.0" encoding="UTF-8"?> <svg xmlns="http://www.w3.org/2000/svg" width="564" height="501" viewBox="0 0 564 501" fill="none"><path d="M489.827 3.57516C470.899 12.8287 465.852 43.113 478.26 74.0282C481.415 82.0199 481.415 82.0199 473.003 96.3209C468.376 104.102 462.908 113.987 460.805 118.193C456.809 126.815 454.706 127.657 448.397 123.24C446.083 121.768 437.04 117.772 428.417 114.618C414.537 109.36 409.7 108.729 387.407 108.729C364.904 108.519 360.488 109.15 346.397 114.407C319.899 124.502 293.61 142.168 279.519 159.623C275.734 164.461 271.317 168.246 269.845 168.246C268.163 168.246 262.274 164.461 256.806 159.834C244.188 149.318 225.681 140.065 207.594 135.228C196.658 132.073 185.722 131.442 152.704 131.653H111.694L91.7147 141.327C67.5293 153.104 52.1768 165.302 35.5625 185.702C12.6389 213.673 4.01633 232.18 0.441103 261.833C-1.24136 273.821 1.49264 284.546 15.5833 325.346C31.9873 372.455 68.5808 406.525 109.17 412.203C126.836 414.727 152.704 414.306 156.7 411.572C158.172 410.31 164.691 409.259 171.421 409.259C181.516 409.048 186.353 407.366 202.337 398.743C220.633 388.859 258.909 359.836 261.012 354.158C262.905 349.531 267.322 350.793 276.155 358.154C286.88 367.197 304.336 377.082 322.422 384.232C336.723 389.91 337.564 390.121 385.304 390.121H433.675L448.186 383.391C478.681 368.88 506.021 340.909 522.004 308.101C549.975 250.687 532.73 187.594 476.157 140.485C467.114 132.914 465.011 130.391 468.165 130.391C473.633 130.391 480.994 116.51 480.994 106.205C480.994 98.8446 481.205 98.6342 487.093 99.8961C491.299 100.737 495.926 99.8961 501.394 97.1621C505.811 94.8487 514.643 91.4838 520.953 89.591C542.614 83.2818 563.014 62.4613 563.014 46.2676C563.014 38.4862 556.495 26.709 550.396 23.7647C547.451 22.2925 540.722 21.0307 535.254 21.0307C525.79 21.0307 524.949 20.6101 522.215 13.8802C519.06 6.09884 509.806 -6.15957e-05 501.604 -6.15957e-05C498.87 -6.15957e-05 493.613 1.68239 489.827 3.57516ZM511.279 13.8802C511.909 15.773 512.54 21.8719 512.54 27.5502C512.54 39.3275 515.064 40.7996 519.901 31.5461C522.635 26.0781 524.318 25.2368 531.678 25.2368C548.293 25.2368 556.915 37.0141 552.289 53.2078C549.555 63.5129 538.619 71.9252 518.008 80.1272C508.545 83.9127 499.081 88.5395 496.557 90.8529C491.72 95.2693 487.303 95.9002 487.303 91.9044C486.883 80.1272 485.2 67.2984 483.308 62.4613C477.629 47.5295 481.835 15.1421 489.827 11.9875C496.347 9.25346 510.017 10.5153 511.279 13.8802ZM420.005 119.665C458.912 130.811 493.823 157.941 511.068 190.959C519.481 206.732 527.262 235.334 527.262 250.056C527.262 269.404 518.008 296.954 504.969 316.723C495.926 330.393 469.848 357.313 457.65 365.304C428.207 385.073 421.687 387.807 416.64 382.76C414.958 381.078 411.382 381.078 405.073 382.55C374.368 389.7 319.688 381.078 293.82 365.304C278.047 355.42 265.219 340.698 272.79 340.698C275.944 340.698 295.713 311.676 302.233 297.585C319.268 260.782 314.431 225.029 288.142 192.011C282.043 184.229 276.996 176.869 276.996 175.397C276.996 169.298 315.061 138.803 335.882 128.288C360.698 115.669 394.137 112.094 420.005 119.665ZM201.916 143.85C219.582 147.215 239.982 156.679 253.441 167.615C263.326 175.607 264.167 178.762 258.278 186.753C244.188 206.732 232.831 242.274 232.831 266.25C232.831 283.495 239.14 307.47 248.394 324.505C252.6 332.076 255.965 339.647 255.965 341.119C255.965 344.694 232.621 367.408 219.161 376.871C176.258 406.945 123.051 413.465 83.5126 393.275C65.6365 384.232 39.348 353.527 28.6223 329.132C21.8925 313.989 14.1111 277.606 14.1111 261.623C14.1111 236.386 26.7296 212.621 53.2283 186.964C86.8776 154.786 119.265 141.537 165.953 141.116C177.1 140.906 193.293 142.168 201.916 143.85ZM278.678 191.801C287.511 201.054 299.078 223.978 302.443 238.489C307.28 260.361 299.709 284.546 277.627 317.985C272.579 325.767 267.532 332.707 266.48 333.338C262.485 335.861 258.278 331.235 251.969 317.775C237.879 287.07 237.458 250.056 251.128 216.617C256.806 202.526 267.532 185.071 270.476 185.071C271.317 185.071 274.893 188.225 278.678 191.801Z" fill="#E0B8B9"></path><path d="M346.816 137.962C334.408 141.116 311.064 153.524 306.017 159.203C301.6 164.46 299.497 171.821 302.231 173.504C303.283 174.135 304.334 173.504 304.334 171.611C304.334 167.194 316.322 157.941 331.674 150.58C345.134 144.061 345.555 144.061 380.045 144.061C410.96 144.061 416.428 144.691 430.098 149.108C438.511 151.842 445.871 153.524 446.502 152.893C448.605 150.79 428.205 141.747 413.484 137.962C396.449 133.755 362.169 133.755 346.816 137.962Z" fill="#E0B8B9"></path><path d="M470.48 172.031C470.48 173.083 471.952 175.396 473.845 176.868C480.365 182.336 493.824 204.208 499.292 218.299C503.709 229.445 504.76 235.965 504.76 250.266C504.76 280.76 493.824 303.684 464.381 334.809C454.707 344.904 447.346 353.316 447.977 353.316C451.132 353.316 468.587 339.857 475.948 331.865C511.28 293.589 520.744 251.527 503.078 212.621C493.824 192.641 470.48 163.619 470.48 172.031Z" fill="#E0B8B9"></path><path d="M303.284 340.907C314.22 352.054 341.35 368.037 349.552 368.037C355.23 368.037 354.389 367.406 343.242 361.938C336.302 358.573 323.263 350.582 314.22 344.062C305.387 337.542 297.395 332.285 296.554 332.285C295.713 332.285 298.868 336.07 303.284 340.907Z" fill="#E0B8B9"></path><path d="M150.6 166.141C111.273 173.081 83.3017 187.382 60.3781 211.988C40.8195 232.598 36.6133 242.062 35.5618 266.247C34.5103 288.119 38.2958 308.519 47.1287 330.181C53.6483 346.164 72.1553 373.714 67.3183 360.044C66.6873 358.152 64.374 354.156 62.4812 351.211C56.172 341.958 45.8669 312.094 43.3432 296.321C40.1886 275.501 41.6607 247.109 46.4978 237.645C56.172 218.928 82.4604 195.163 106.646 182.965C126.625 173.081 144.501 169.506 176.047 169.295C205.911 169.295 207.173 169.716 225.89 181.073C231.148 184.227 233.041 184.858 232.41 182.755C231.989 181.073 225.47 176.446 217.899 172.45C205.28 165.72 203.177 165.299 182.357 164.669C170.159 164.458 155.858 165.089 150.6 166.141Z" fill="#E0B8B9"></path><path d="M214.535 352.053C208.436 358.152 196.869 366.354 188.246 370.77C175.207 377.5 169.529 378.972 150.391 381.075C131.043 383.178 125.995 383.178 112.536 380.024C104.123 378.131 94.8697 376.028 91.9254 375.397C88.3502 374.766 88.9811 375.397 94.0285 377.71C120.948 390.118 160.906 389.277 187.405 375.397C202.547 367.616 221.265 352.894 224.84 346.374C228.625 339.224 225.681 340.906 214.535 352.053Z" fill="#E0B8B9"></path><path d="M266.899 215.563C267.32 216.615 269.212 221.031 271.105 225.027C272.998 229.023 275.732 238.276 277.204 245.637C280.359 260.779 278.045 276.132 269.423 297.373C261.221 317.562 263.955 322.4 272.788 303.682C279.097 290.012 283.724 264.144 282.251 251.316C280.359 235.963 275.311 221.872 270.264 217.456C267.95 215.143 266.268 214.301 266.899 215.563Z" fill="#E0B8B9"></path><path d="M260.171 231.758C260.171 232.599 258.699 240.59 257.016 249.634C253.651 267.72 253.231 280.549 255.965 287.068C257.226 289.802 257.857 285.807 257.857 274.24C258.068 264.986 259.119 251.947 260.381 245.217C261.643 238.487 262.063 232.388 261.433 231.758C260.802 231.127 260.171 231.127 260.171 231.758Z" fill="#E0B8B9"></path><path d="M139.665 425.451C139.034 427.344 135.458 429.658 131.883 430.499C124.102 431.971 111.904 445.431 110.011 454.264C109.38 457.839 109.591 462.676 110.642 465.41C114.638 475.925 145.343 500.531 154.386 500.531C164.901 500.531 186.563 464.779 186.563 447.323C186.563 443.538 185.091 438.28 183.198 435.546C178.782 429.447 167.635 424.61 161.747 426.293C159.223 426.924 155.858 426.293 154.176 425.031C151.652 422.928 151.021 423.769 149.759 429.027C148.077 437.018 143.871 436.177 142.399 427.765C141.557 422.928 140.926 422.507 139.665 425.451ZM174.786 433.443C177.941 435.967 180.254 439.752 180.254 442.697C180.254 447.954 158.172 492.75 155.017 493.801C152.704 494.643 128.729 474.874 123.05 467.934C118.003 461.414 118.213 454.264 124.102 445.641C130.201 436.598 136.72 435.336 141.557 442.486C145.763 449.006 148.708 449.426 148.708 443.748C148.708 438.07 158.592 429.027 164.481 429.027C167.005 429.027 171.631 430.919 174.786 433.443Z" fill="#E0B8B9"></path></svg> 