<?xml version="1.0" encoding="UTF-8"?> <svg xmlns="http://www.w3.org/2000/svg" width="383" height="319" viewBox="0 0 383 319" fill="none"><path d="M0 24.6031L24.4069 26.3829L48.5321 23.0327L97.0642 21.4623L125.789 20.206L144.564 14.0814H191.5L216.658 22.7186L235.996 20.9388H259.088L281.805 24.9172L318.603 23.3468L331.933 22.5093L339.819 14.2384L383 3.5596V300.682L332.309 303.509L282.369 299.216L253.08 299.844L236.559 303.509L219.662 301.729L190.937 307.382L170.66 312.303L141.184 312.931L110.957 315.025L99.1294 309.057L89.3667 310.628L79.9794 301.519L70.2167 295.238L60.4539 292.83L12.0157 286.653L0 291.05V24.6031Z" fill="#F7F2EC"></path><path d="M0 28.1585V21.7722H3.37941C15.7706 28.0528 22.7172 21.2497 24.0314 21.459C25.3456 21.6684 50.8789 21.2497 51.4422 21.2497C51.8927 21.2497 52.2557 20.3423 52.3809 19.8886C54.9342 17.5435 61.8307 18.4921 64.9598 19.2595L72.0941 17.4807C77.6514 15.638 82.9208 17.8988 84.8608 19.2595C95.5623 18.422 104.199 18.8417 108.704 18.737C113.21 18.6323 122.973 16.0149 123.161 16.0149C123.349 16.0149 122.598 16.9572 124.85 17.4807C127.103 18.0041 127.479 17.2713 129.544 16.0149C131.609 14.7586 132.736 15.2821 133.674 15.9103C134.613 16.5384 134.05 15.8056 134.238 15.2821C134.425 14.7586 134.989 13.5023 135.927 12.56C136.866 11.6178 136.115 12.9788 137.242 13.7117C138.368 14.4445 137.993 12.3506 140.058 10.9896C142.123 9.6286 142.123 9.20982 147.568 10.5708C153.012 11.9319 155.453 11.4084 156.016 11.4084C156.579 11.4084 157.33 11.7225 159.02 12.1413C160.71 12.56 161.461 10.7802 162.212 10.2568C162.813 9.83799 164.84 9.87288 165.779 9.94268C172.725 7.7441 178.17 10.7802 183.802 10.2568C189.435 9.73329 190.374 12.0366 191.688 12.3506C193.002 12.6647 194.128 12.4553 196.194 12.9788C198.259 13.5023 198.071 15.1774 199.01 15.5962C199.949 16.0149 200.887 14.2351 202.389 15.1774C203.891 16.1196 211.401 17.4807 212.152 18.0041L212.2 18.0374C213.057 18.6365 216.904 21.3257 219.85 19.8886C222.853 18.4229 230.551 18.3182 232.053 18.5276C233.555 18.737 238.061 18.1088 241.065 17.2713C244.069 16.4337 245.571 18.4229 248.011 18.8417C249.964 19.1767 254.708 18.7719 256.835 18.5276C257.962 15.8056 262.28 18.9464 263.406 19.1558C264.308 19.3233 264.908 19.2256 265.096 19.1558C267.161 16.2243 271.104 20.9356 272.23 21.5637C273.357 22.1919 274.108 20.9356 274.483 21.0403C274.859 21.145 275.234 22.9248 277.299 23.6576C279.365 24.3905 280.491 21.459 281.43 20.9356C282.369 20.4121 281.805 21.0403 283.12 21.7731C284.171 22.3594 293.696 21.808 298.327 21.459C308.09 19.0511 306.963 19.5745 311.281 18.8417C315.6 18.1088 316.538 20.4121 318.228 20.2027C319.918 19.9933 327.991 20.4121 331.746 20.4121C334.75 20.4121 337.253 14.3398 338.129 11.3037C348.455 12.56 346.577 6.17369 353.524 6.80185C355.192 6.95268 354.838 6.38308 355.777 5.8596C356.716 5.33613 356.716 5.8596 358.03 5.65022C359.344 5.44083 360.471 3.34694 361.222 3.13756C361.973 2.92817 362.911 4.91736 364.976 4.70797C367.042 4.49858 367.98 3.03286 368.919 2.4047C369.858 1.77653 371.172 2.50939 371.548 2.19531C371.923 1.88122 372.299 1.14803 373.988 0.205787C375.678 -0.736461 378.119 1.88058 379.433 1.5665C380.484 1.31524 382.249 1.46181 383 1.5665V8.68571C382.812 8.61591 382.362 8.45538 382.061 8.37163C381.686 8.26693 380.747 8.58101 379.057 8.68571C377.368 8.7904 375.49 7.74306 373.988 7.21959C372.486 6.69612 372.299 8.68531 371.735 9.10409C371.172 9.52286 371.36 9.20878 369.295 9.31347C367.229 9.41817 363.474 11.9308 363.099 11.8261C362.724 11.7214 362.348 10.9888 361.597 10.4653C360.846 9.94186 358.593 11.8264 356.152 13.2921C354.2 14.4647 350.708 14.2692 349.206 14.0249C346.577 18.9456 339.631 17.6892 338.692 18.0033C337.753 18.3174 335.125 23.5521 334.374 25.3319C333.623 27.1117 331.933 26.3789 329.493 26.5882C327.052 26.7976 320.481 26.7976 317.852 26.5882C315.224 26.3789 314.473 25.5413 310.155 24.8084C305.837 24.0756 299.078 27.8446 297.2 28.054C295.323 28.2634 282.556 27.8446 281.618 27.007C280.679 26.1695 276.736 29.9385 276.173 29.9385C275.61 29.9385 274.296 27.3211 274.108 27.2164C273.92 27.1117 272.794 27.7399 271.855 27.8446C270.916 27.9493 267.349 24.3897 266.974 24.3897C266.598 24.3897 265.096 25.9601 263.97 25.646C262.843 25.3319 259.839 22.4005 257.962 23.6568C256.084 24.9131 251.954 25.0178 249.889 25.0178C247.824 25.0178 247.448 21.9817 243.881 24.0756C240.314 26.1695 229.988 23.238 223.604 25.646C218.498 27.5724 213.341 25.2621 211.401 23.8662C209.336 23.6568 204.905 23.0077 203.703 22.0864C202.502 21.1651 199.823 21.5629 198.634 21.877C198.447 21.3535 196.381 18.7362 194.504 19.155C193.002 19.49 191.375 18.8057 190.749 18.4217C188.196 16.4949 183.177 16.4323 180.986 16.6418C171.975 14.8828 167.093 15.9089 165.779 16.6418C165.216 16.3278 163.901 15.8671 163.15 16.5372C162.212 17.3747 157.894 18.9451 157.33 18.4217C156.767 17.8982 156.204 17.7935 153.763 18.2125C152.261 18.2125 144.564 16.1186 141.748 16.4327C139.495 16.6839 137.805 18.9802 137.242 20.097C137.304 19.9225 137.016 19.5108 135.364 19.2595C133.617 18.9937 133.617 21.8766 133.658 22.5158C133.669 22.5459 133.674 22.5772 133.674 22.6097C133.674 22.6741 133.666 22.632 133.658 22.5158C133.531 22.1596 132.692 21.9815 132.173 21.9815C130.858 22.4003 127.967 23.3426 126.916 23.7613C125.864 24.1801 123.599 23.1681 122.598 22.6097C119.969 23.3426 108.517 25.2271 107.015 24.8083C105.513 24.3895 101.195 24.8083 98.5662 24.8083C96.4634 24.8083 88.5531 25.2969 84.8608 25.5411C78.102 20.4111 64.9598 25.5411 64.3966 25.5411C63.8333 25.5411 63.8333 24.2848 57.6377 24.8083C51.4422 25.3318 52.5686 26.7975 52.5686 27.1116C52.5686 27.3628 51.1918 27.2163 50.5034 27.1116C35.1083 28.8914 26.0966 26.9022 24.5946 27.635C23.393 28.2213 19.4629 29.694 17.648 30.3571C11.6402 32.5557 3.56716 28.1585 2.81618 28.1585H0Z" fill="#F7F2EC"></path><path d="M0 294.188V287.592C2.12882 285.184 7.66376 281.31 12.7729 285.079C13.1486 285.044 14.8391 285.058 18.5959 285.393C23.2918 285.812 22.1648 285.812 25.7337 286.021C29.3026 286.231 32.1202 285.707 32.8715 285.393C33.5602 285.917 35.0128 286.985 35.3134 287.068C35.6891 287.173 36.2526 285.498 38.1309 286.545C40.0093 287.592 45.2688 289.686 49.4012 288.639C49.852 288.639 50.9665 287.941 51.4674 287.592C51.4048 288.499 51.5425 290.356 52.5944 290.523C53.9093 290.733 52.2187 290.523 54.6606 290.104C57.1025 289.686 56.539 290.314 58.4174 289.476C60.2957 288.639 60.4836 287.801 61.9863 288.953C63.489 290.104 61.4228 290.942 64.0525 291.047C66.6822 291.151 72.8808 290.628 73.2565 292.408C73.6322 294.188 73.2565 295.234 73.2565 295.967C73.2565 296.7 79.4551 298.166 84.1511 303.296C84.2763 303.052 84.5643 302.458 84.7146 302.04C84.9024 301.516 87.9078 305.913 89.5983 306.751C91.2889 307.588 91.4767 306.96 92.2281 305.913C92.9794 304.866 93.3551 304.657 94.4821 304.762C95.6091 304.866 96.5483 304.971 97.2997 304.762C98.051 304.552 97.6753 302.354 100.869 305.913C104.062 309.473 105.752 311.357 106.504 311.462C107.255 311.567 107.443 311.881 109.321 311.462C111.2 311.043 110.636 311.148 113.454 311.148C116.271 311.148 116.647 310.206 120.028 308.845C123.409 307.484 123.597 308.845 125.663 308.845C127.729 308.845 127.917 307.693 130.547 308.112C133.177 308.531 134.491 309.473 135.994 309.159C137.497 308.845 136.182 309.892 139 309.159C141.817 308.426 142.756 306.751 144.259 306.751C145.762 306.751 147.828 307.484 148.204 308.845C148.504 309.934 148.955 309.927 149.143 309.787L149.598 308.772C149.628 308.684 149.666 308.603 149.706 308.531L149.598 308.772C149.392 309.365 149.507 310.237 151.209 310.31C153.651 310.415 153.275 309.787 154.59 309.473C155.642 309.222 156.531 308.949 156.844 308.845C157.22 308.6 158.046 308.112 158.347 308.112C158.722 308.112 159.662 307.588 162.667 308.531C165.672 309.473 165.672 309.159 166.612 309.159C167.551 309.159 168.302 309.787 168.866 309.787C169.429 309.787 170.18 310.729 171.307 309.787C172.435 308.845 172.998 308.845 172.998 307.798C172.998 306.96 173.499 306.751 173.749 306.751C173.687 307.135 174.35 307.588 177.506 306.332C180.662 305.076 182.077 304.064 182.39 303.715C185.333 304.099 191.556 304.783 192.909 304.448C194.261 304.113 194.599 303.68 194.599 303.505C195.038 303.785 196.027 304.259 196.478 303.924C197.041 303.505 197.793 302.877 199.295 302.668C200.798 302.458 199.859 303.924 202.301 303.715C204.743 303.505 204.93 303.087 206.433 302.249C207.936 301.411 207.56 303.819 209.626 302.249C211.692 300.679 212.82 298.271 213.759 298.794C214.698 299.318 215.261 300.155 216.764 299.736C217.966 299.401 219.018 298.969 219.394 298.794C220.709 298.131 223.564 296.91 224.465 297.328C225.367 297.747 226.594 298.48 227.095 298.794C228.222 298.201 230.664 297.475 231.415 299.318C232.981 300.993 239.906 302.71 255.083 296.177C255.646 296.177 259.779 293.559 265.038 296.177C266.478 295.409 270.523 294.229 275.181 295.653C277.686 295.793 282.958 296.198 284.01 296.7C285.325 297.328 287.015 298.375 289.645 298.375C292.275 298.375 295.092 299.003 296.971 297.852C298.849 296.7 298.098 296.177 300.164 296.177C302.23 296.177 306.362 296.91 308.429 297.852C310.495 298.794 307.677 298.585 312.185 299.318C316.693 300.05 320.262 302.04 323.08 301.516C325.897 300.993 324.77 300.679 327.964 300.783C331.157 300.888 337.543 301.516 340.173 300.783C342.803 300.05 350.88 295.444 359.52 300.364C362.087 299.981 367.597 299.443 369.1 300.364C370.791 300.993 374.435 301.956 375.487 300.783C376.801 299.318 380.934 296.596 383 297.224V303.505C382.061 303.366 379.243 303.861 375.487 306.96C369.1 306.96 364.216 305.201 360.46 306.96C359.52 306.96 352.57 300.783 341.3 306.96C340.173 307.344 336.679 307.882 331.72 306.96C329.905 306.925 326.123 307.023 325.522 307.693C324.301 309.054 316.318 307.274 309.368 305.076C307.489 303.889 302.831 301.746 299.225 302.668C297.722 303.575 294.341 305.327 292.838 305.076C290.96 304.762 279.877 301.935 277.248 302.144C274.618 302.354 269.546 300.574 265.79 302.144C265.414 302.144 265.79 301.516 262.033 301.726C258.276 301.935 256.586 300.679 255.083 301.935C253.58 303.191 238.553 307.274 235.36 307.17C232.805 307.086 231.04 305.25 230.476 304.343C229.349 304.482 227.095 304.824 227.095 305.076C227.095 305.39 225.78 303.087 224.465 303.401C223.151 303.715 220.145 304.552 219.769 305.076C219.469 305.495 218.517 305.529 218.079 305.495C217.453 305.983 216.05 306.856 215.449 306.437C214.848 306.018 213.886 305.398 213.718 305.167C213.359 305.405 212.019 306.205 210.565 308.635C209.752 308.461 208.124 308.049 208.124 307.798C208.124 307.484 205.682 310.415 204.555 310.415C203.653 310.415 201.424 309.368 200.422 308.845L196.853 310.834C196.553 311.001 194.85 310.904 194.036 310.834C192.784 311.218 188.776 311.671 182.766 310.415L176.567 313.765L172.998 313.975C172.81 315.091 172.209 317.304 171.307 317.22C170.18 317.116 167.363 316.278 167.363 315.964C167.363 315.65 166.612 316.906 160.037 314.917C159.536 314.777 158.309 314.729 157.408 315.65L156.093 315.964C155.091 316.348 153.012 317.178 152.712 317.43C152.336 317.744 151.209 317.43 149.706 315.44C149.644 315.999 149.443 317.095 149.143 317.011C148.767 316.906 147.264 314.603 146.889 314.184C146.513 313.765 145.198 312.928 143.132 314.184C141.479 315.189 140.44 315.58 140.127 315.65L138.624 315.964C138.624 316.069 138.398 316.299 137.497 316.383C136.37 316.487 133.74 316.487 132.989 315.964C132.237 315.44 130.735 314.394 128.668 314.917C127.015 315.336 126.227 315.789 126.039 315.964C124.786 315.545 121.756 314.959 119.652 315.964C117.549 316.969 116.271 318.128 115.896 318.581C115.082 318.686 113.303 318.833 112.702 318.581C111.951 318.267 109.697 317.953 109.321 318.163C109.021 318.33 107.819 318.791 107.255 319C104.813 315.929 99.0278 310.059 95.4213 311.148C94.8578 311.392 93.5429 311.839 92.7916 311.671C91.8524 311.462 91.8524 314.184 90.7253 314.184C89.5983 314.184 84.7146 308.949 84.7146 308.531C84.7146 308.196 84.3389 309.368 84.1511 309.996C82.0222 307.902 76.9381 303.547 73.6322 302.877C73.2565 302.04 73.2565 298.899 72.3173 298.48C71.3781 298.061 66.6822 296.805 63.8646 297.014C63.489 297.014 61.7984 294.502 60.4836 294.502C59.1687 294.502 58.4174 295.339 58.0417 295.653C57.7411 295.905 55.9129 296.107 55.0363 296.177L52.9701 297.014L51.0917 293.769C48.9629 294.851 43.3904 296.093 38.1309 292.408C37.5048 292.373 36.0647 292.429 35.3134 292.931L33.435 291.047C32.5584 291.5 30.5799 292.408 29.6783 292.408C28.5513 292.408 18.9212 289.49 13.3364 291.047C11.8337 291.465 7.51349 285.498 0 294.188Z" fill="#F7F2EC"></path></svg> 