<?xml version="1.0" encoding="UTF-8"?> <svg xmlns="http://www.w3.org/2000/svg" width="704" height="386" viewBox="0 0 704 386" fill="none"><path d="M38.8344 41C38.7677 41 38.7344 40.9 38.7344 40.7C38.7344 40.5 38.7677 40.4 38.8344 40.4C40.301 40.4 41.401 40.3167 42.1344 40.15C42.901 39.95 43.451 39.6167 43.7844 39.15C44.1177 38.65 44.2844 37.9167 44.2844 36.95V18.35C44.2844 16.0833 43.751 14.95 42.6844 14.95C41.8844 14.95 40.601 15.5833 38.8344 16.85L38.7344 16.9C38.601 16.9 38.501 16.8333 38.4344 16.7C38.3677 16.5333 38.3677 16.4167 38.4344 16.35L48.0844 9.4C48.2177 9.33333 48.3344 9.3 48.4344 9.3C48.501 9.3 48.5677 9.33333 48.6344 9.4C48.701 9.46666 48.7344 9.53333 48.7344 9.6V36.95C48.7344 37.95 48.8844 38.6833 49.1844 39.15C49.4844 39.6167 50.001 39.95 50.7344 40.15C51.501 40.3167 52.6344 40.4 54.1344 40.4C54.2344 40.4 54.2844 40.5 54.2844 40.7C54.2844 40.9 54.2344 41 54.1344 41C52.801 41 51.751 40.9833 50.9844 40.95L46.4844 40.9L42.1344 40.95C41.3344 40.9833 40.2344 41 38.8344 41Z" fill="#3D2A23"></path><path d="M49.7209 106.95C51.8876 108.317 53.5709 109.733 54.7709 111.2C55.9709 112.633 56.5709 114.5 56.5709 116.8C56.5709 118.533 56.1042 120.083 55.1709 121.45C54.2376 122.783 52.9542 123.817 51.3209 124.55C49.7209 125.283 47.9376 125.65 45.9709 125.65C43.8709 125.65 42.0376 125.267 40.4709 124.5C38.9042 123.7 37.7042 122.633 36.8709 121.3C36.0709 119.933 35.6709 118.45 35.6709 116.85C35.6709 114.783 36.2876 112.95 37.5209 111.35C38.7542 109.75 40.3376 108.45 42.2709 107.45C41.0376 106.55 40.0709 105.55 39.3709 104.45C38.7042 103.317 38.3709 101.983 38.3709 100.45C38.3709 98.85 38.7542 97.5167 39.5209 96.45C40.2876 95.35 41.2876 94.5333 42.5209 94C43.7876 93.4667 45.1209 93.2 46.5209 93.2C48.7209 93.2 50.5209 93.8 51.9209 95C53.3542 96.1667 54.0709 97.6833 54.0709 99.55C54.0709 100.95 53.6709 102.283 52.8709 103.55C52.1042 104.783 51.0542 105.917 49.7209 106.95ZM45.6709 94.2C44.5376 94.2 43.6709 94.5667 43.0709 95.3C42.5042 96.0333 42.2209 96.9833 42.2209 98.15C42.2209 99.9167 42.7376 101.383 43.7709 102.55C44.8376 103.717 46.4209 104.933 48.5209 106.2C49.3876 104.5 49.8209 102.483 49.8209 100.15C49.8209 98.15 49.4542 96.6667 48.7209 95.7C48.0209 94.7 47.0042 94.2 45.6709 94.2ZM47.1709 124.6C48.8042 124.6 50.0542 124.067 50.9209 123C51.7876 121.9 52.2209 120.45 52.2209 118.65C52.2209 117.083 51.8876 115.75 51.2209 114.65C50.5876 113.517 49.8042 112.583 48.8709 111.85C47.9376 111.117 46.6542 110.25 45.0209 109.25C44.2209 108.783 43.6376 108.417 43.2709 108.15C41.5042 109.917 40.6209 112.433 40.6209 115.7C40.6209 118.4 41.2042 120.567 42.3709 122.2C43.5709 123.8 45.1709 124.6 47.1709 124.6Z" fill="#3D2A23"></path><path d="M28.6283 209C28.5617 209 28.5283 208.9 28.5283 208.7C28.5283 208.5 28.5617 208.4 28.6283 208.4C30.095 208.4 31.195 208.317 31.9283 208.15C32.695 207.95 33.245 207.617 33.5783 207.15C33.9117 206.65 34.0783 205.917 34.0783 204.95V186.35C34.0783 184.083 33.545 182.95 32.4783 182.95C31.6783 182.95 30.395 183.583 28.6283 184.85L28.5283 184.9C28.395 184.9 28.295 184.833 28.2283 184.7C28.1617 184.533 28.1617 184.417 28.2283 184.35L37.8783 177.4C38.0117 177.333 38.1283 177.3 38.2283 177.3C38.295 177.3 38.3617 177.333 38.4283 177.4C38.495 177.467 38.5283 177.533 38.5283 177.6V204.95C38.5283 205.95 38.6783 206.683 38.9783 207.15C39.2783 207.617 39.795 207.95 40.5283 208.15C41.295 208.317 42.4283 208.4 43.9283 208.4C44.0283 208.4 44.0783 208.5 44.0783 208.7C44.0783 208.9 44.0283 209 43.9283 209C42.595 209 41.545 208.983 40.7783 208.95L36.2783 208.9L31.9283 208.95C31.1283 208.983 30.0283 209 28.6283 209ZM53.9596 190.1C56.9929 190.1 59.3762 190.917 61.1096 192.55C62.8762 194.183 63.7596 196.533 63.7596 199.6C63.7596 202.767 62.8096 205.233 60.9096 207C59.0096 208.733 56.5929 209.6 53.6596 209.6C52.0929 209.6 50.6929 209.3 49.4596 208.7C48.2262 208.067 47.0762 207.117 46.0096 205.85L45.9596 205.75C45.9596 205.617 46.0262 205.517 46.1596 205.45C46.2929 205.35 46.3929 205.35 46.4596 205.45C47.1596 206.217 48.0096 206.8 49.0096 207.2C50.0429 207.6 51.1096 207.8 52.2096 207.8C54.4429 207.8 56.1096 207.1 57.2096 205.7C58.3096 204.3 58.8596 202.45 58.8596 200.15C58.8596 197.583 58.2429 195.533 57.0096 194C55.8096 192.467 54.0262 191.7 51.6596 191.7C50.6262 191.7 49.7096 191.8 48.9096 192C48.1096 192.2 47.6596 192.317 47.5596 192.35C47.3929 192.35 47.2596 192.3 47.1596 192.2C47.0596 192.067 47.0262 191.917 47.0596 191.75L48.6596 178.35C48.6929 178.117 48.7429 177.967 48.8096 177.9C48.8762 177.8 49.0429 177.75 49.3096 177.75C53.8429 177.75 56.8429 177.733 58.3096 177.7C59.8096 177.633 60.7929 177.517 61.2596 177.35C61.7262 177.183 62.0929 176.833 62.3596 176.3C62.3929 176.233 62.4929 176.217 62.6596 176.25C62.8262 176.25 62.8929 176.317 62.8596 176.45L62.1096 181.25C62.0096 181.65 61.8762 181.917 61.7096 182.05C61.5762 182.15 61.2929 182.2 60.8596 182.2L50.4096 181.95C49.9762 181.95 49.7096 182.183 49.6096 182.65L48.5596 190.95C50.4929 190.383 52.2929 190.1 53.9596 190.1Z" fill="#3D2A23"></path><path d="M26.6844 293C26.5177 293 26.351 292.85 26.1844 292.55C26.0177 292.217 26.001 291.983 26.1344 291.85L27.6844 289.95C30.5844 286.317 32.7177 283.55 34.0844 281.65C35.451 279.717 36.551 277.817 37.3844 275.95C38.2177 274.05 38.6344 272.167 38.6344 270.3C38.6344 268.133 38.151 266.55 37.1844 265.55C36.2177 264.55 34.901 264.05 33.2344 264.05C31.6344 264.05 30.2844 264.467 29.1844 265.3C28.1177 266.133 27.401 267.3 27.0344 268.8C27.0344 268.833 26.9677 268.85 26.8344 268.85C26.5677 268.85 26.451 268.783 26.4844 268.65C26.8844 266.35 27.8844 264.533 29.4844 263.2C31.1177 261.867 33.1344 261.2 35.5344 261.2C38.001 261.2 39.9177 261.9 41.2844 263.3C42.651 264.7 43.3344 266.55 43.3344 268.85C43.3344 270.683 42.901 272.483 42.0344 274.25C41.1677 276.017 40.1344 277.633 38.9344 279.1C37.7677 280.567 36.2344 282.317 34.3344 284.35C34.1677 284.517 33.6344 285.083 32.7344 286.05C31.8677 286.983 31.151 287.833 30.5844 288.6C30.3844 288.833 30.451 288.95 30.7844 288.95C34.5844 288.95 37.3344 288.867 39.0344 288.7C40.7677 288.533 41.951 288.217 42.5844 287.75C43.251 287.25 43.601 286.467 43.6344 285.4C43.6344 285.333 43.7177 285.3 43.8844 285.3C44.0844 285.3 44.1844 285.333 44.1844 285.4V292.45C44.1844 292.583 44.1344 292.717 44.0344 292.85C43.9677 292.95 43.8677 293 43.7344 293H26.6844ZM46.95 293C46.7833 293 46.6167 292.85 46.45 292.55C46.2833 292.217 46.2667 291.983 46.4 291.85L47.95 289.95C50.85 286.317 52.9833 283.55 54.35 281.65C55.7167 279.717 56.8167 277.817 57.65 275.95C58.4833 274.05 58.9 272.167 58.9 270.3C58.9 268.133 58.4167 266.55 57.45 265.55C56.4833 264.55 55.1667 264.05 53.5 264.05C51.9 264.05 50.55 264.467 49.45 265.3C48.3833 266.133 47.6667 267.3 47.3 268.8C47.3 268.833 47.2333 268.85 47.1 268.85C46.8333 268.85 46.7167 268.783 46.75 268.65C47.15 266.35 48.15 264.533 49.75 263.2C51.3833 261.867 53.4 261.2 55.8 261.2C58.2667 261.2 60.1833 261.9 61.55 263.3C62.9167 264.7 63.6 266.55 63.6 268.85C63.6 270.683 63.1667 272.483 62.3 274.25C61.4333 276.017 60.4 277.633 59.2 279.1C58.0333 280.567 56.5 282.317 54.6 284.35C54.4333 284.517 53.9 285.083 53 286.05C52.1333 286.983 51.4167 287.833 50.85 288.6C50.65 288.833 50.7167 288.95 51.05 288.95C54.85 288.95 57.6 288.867 59.3 288.7C61.0333 288.533 62.2167 288.217 62.85 287.75C63.5167 287.25 63.8667 286.467 63.9 285.4C63.9 285.333 63.9833 285.3 64.15 285.3C64.35 285.3 64.45 285.333 64.45 285.4V292.45C64.45 292.583 64.4 292.717 64.3 292.85C64.2333 292.95 64.1333 293 64 293H46.95Z" fill="#3D2A23"></path><path d="M25.5857 377C25.4191 377 25.2524 376.85 25.0857 376.55C24.9191 376.217 24.9024 375.983 25.0357 375.85L26.5857 373.95C29.4857 370.317 31.6191 367.55 32.9857 365.65C34.3524 363.717 35.4524 361.817 36.2857 359.95C37.1191 358.05 37.5357 356.167 37.5357 354.3C37.5357 352.133 37.0524 350.55 36.0857 349.55C35.1191 348.55 33.8024 348.05 32.1357 348.05C30.5357 348.05 29.1857 348.467 28.0857 349.3C27.0191 350.133 26.3024 351.3 25.9357 352.8C25.9357 352.833 25.8691 352.85 25.7357 352.85C25.4691 352.85 25.3524 352.783 25.3857 352.65C25.7857 350.35 26.7857 348.533 28.3857 347.2C30.0191 345.867 32.0357 345.2 34.4357 345.2C36.9024 345.2 38.8191 345.9 40.1857 347.3C41.5524 348.7 42.2357 350.55 42.2357 352.85C42.2357 354.683 41.8024 356.483 40.9357 358.25C40.0691 360.017 39.0357 361.633 37.8357 363.1C36.6691 364.567 35.1357 366.317 33.2357 368.35C33.0691 368.517 32.5357 369.083 31.6357 370.05C30.7691 370.983 30.0524 371.833 29.4857 372.6C29.2857 372.833 29.3524 372.95 29.6857 372.95C33.4857 372.95 36.2357 372.867 37.9357 372.7C39.6691 372.533 40.8524 372.217 41.4857 371.75C42.1524 371.25 42.5024 370.467 42.5357 369.4C42.5357 369.333 42.6191 369.3 42.7857 369.3C42.9857 369.3 43.0857 369.333 43.0857 369.4V376.45C43.0857 376.583 43.0357 376.717 42.9357 376.85C42.8691 376.95 42.7691 377 42.6357 377H25.5857ZM53.7014 362.75C51.3347 362.75 49.4347 361.95 48.0014 360.35C46.6014 358.717 45.9014 356.65 45.9014 354.15C45.9014 352.417 46.3347 350.867 47.2014 349.5C48.068 348.133 49.2514 347.083 50.7514 346.35C52.2514 345.583 53.9514 345.2 55.8514 345.2C59.018 345.2 61.4514 346.283 63.1514 348.45C64.8847 350.583 65.7514 353.517 65.7514 357.25C65.7514 360.483 65.068 363.633 63.7014 366.7C62.368 369.767 60.4347 372.317 57.9014 374.35C55.4014 376.35 52.468 377.45 49.1014 377.65C48.968 377.65 48.8847 377.567 48.8514 377.4C48.818 377.233 48.8514 377.133 48.9514 377.1C51.518 376.433 53.6847 375.133 55.4514 373.2C57.2514 371.267 58.6014 368.95 59.5014 366.25C60.4014 363.55 60.8514 360.717 60.8514 357.75C60.8514 354.383 60.318 351.633 59.2514 349.5C58.1847 347.333 56.7014 346.25 54.8014 346.25C52.1347 346.25 50.8014 348.55 50.8014 353.15C50.8014 355.75 51.2014 357.733 52.0014 359.1C52.8347 360.467 54.0347 361.15 55.6014 361.15C56.668 361.15 57.6514 360.833 58.5514 360.2L58.6514 360.15C58.7514 360.15 58.8347 360.217 58.9014 360.35C59.0014 360.483 59.018 360.583 58.9514 360.65C57.718 362.05 55.968 362.75 53.7014 362.75Z" fill="#3D2A23"></path><path d="M138.817 41C138.651 41 138.484 40.85 138.317 40.55C138.151 40.2167 138.134 39.9833 138.267 39.85L139.817 37.95C142.717 34.3167 144.851 31.55 146.217 29.65C147.584 27.7167 148.684 25.8167 149.517 23.95C150.351 22.05 150.767 20.1667 150.767 18.3C150.767 16.1333 150.284 14.55 149.317 13.55C148.351 12.55 147.034 12.05 145.367 12.05C143.767 12.05 142.417 12.4667 141.317 13.3C140.251 14.1333 139.534 15.3 139.167 16.8C139.167 16.8333 139.101 16.85 138.967 16.85C138.701 16.85 138.584 16.7833 138.617 16.65C139.017 14.35 140.017 12.5333 141.617 11.2C143.251 9.86667 145.267 9.2 147.667 9.2C150.134 9.2 152.051 9.9 153.417 11.3C154.784 12.7 155.467 14.55 155.467 16.85C155.467 18.6833 155.034 20.4833 154.167 22.25C153.301 24.0167 152.267 25.6333 151.067 27.1C149.901 28.5667 148.367 30.3167 146.467 32.35C146.301 32.5167 145.767 33.0833 144.867 34.05C144.001 34.9833 143.284 35.8333 142.717 36.6C142.517 36.8333 142.584 36.95 142.917 36.95C146.717 36.95 149.467 36.8667 151.167 36.7C152.901 36.5333 154.084 36.2167 154.717 35.75C155.384 35.25 155.734 34.4667 155.767 33.4C155.767 33.3333 155.851 33.3 156.017 33.3C156.217 33.3 156.317 33.3333 156.317 33.4V40.45C156.317 40.5833 156.267 40.7167 156.167 40.85C156.101 40.95 156.001 41 155.867 41H138.817Z" fill="#3D2A23"></path><path d="M145.569 110.75C143.202 110.75 141.302 109.95 139.869 108.35C138.469 106.717 137.769 104.65 137.769 102.15C137.769 100.417 138.202 98.8667 139.069 97.5C139.935 96.1333 141.119 95.0833 142.619 94.35C144.119 93.5833 145.819 93.2 147.719 93.2C150.885 93.2 153.319 94.2833 155.019 96.45C156.752 98.5833 157.619 101.517 157.619 105.25C157.619 108.483 156.935 111.633 155.569 114.7C154.235 117.767 152.302 120.317 149.769 122.35C147.269 124.35 144.335 125.45 140.969 125.65C140.835 125.65 140.752 125.567 140.719 125.4C140.685 125.233 140.719 125.133 140.819 125.1C143.385 124.433 145.552 123.133 147.319 121.2C149.119 119.267 150.469 116.95 151.369 114.25C152.269 111.55 152.719 108.717 152.719 105.75C152.719 102.383 152.185 99.6333 151.119 97.5C150.052 95.3333 148.569 94.25 146.669 94.25C144.002 94.25 142.669 96.55 142.669 101.15C142.669 103.75 143.069 105.733 143.869 107.1C144.702 108.467 145.902 109.15 147.469 109.15C148.535 109.15 149.519 108.833 150.419 108.2L150.519 108.15C150.619 108.15 150.702 108.217 150.769 108.35C150.869 108.483 150.885 108.583 150.819 108.65C149.585 110.05 147.835 110.75 145.569 110.75Z" fill="#3D2A23"></path><path d="M129.505 209C129.439 209 129.405 208.9 129.405 208.7C129.405 208.5 129.439 208.4 129.505 208.4C130.972 208.4 132.072 208.317 132.805 208.15C133.572 207.95 134.122 207.617 134.455 207.15C134.789 206.65 134.955 205.917 134.955 204.95V186.35C134.955 184.083 134.422 182.95 133.355 182.95C132.555 182.95 131.272 183.583 129.505 184.85L129.405 184.9C129.272 184.9 129.172 184.833 129.105 184.7C129.039 184.533 129.039 184.417 129.105 184.35L138.755 177.4C138.889 177.333 139.005 177.3 139.105 177.3C139.172 177.3 139.239 177.333 139.305 177.4C139.372 177.467 139.405 177.533 139.405 177.6V204.95C139.405 205.95 139.555 206.683 139.855 207.15C140.155 207.617 140.672 207.95 141.405 208.15C142.172 208.317 143.305 208.4 144.805 208.4C144.905 208.4 144.955 208.5 144.955 208.7C144.955 208.9 144.905 209 144.805 209C143.472 209 142.422 208.983 141.655 208.95L137.155 208.9L132.805 208.95C132.005 208.983 130.905 209 129.505 209ZM159.387 192C161.72 192 163.57 192.767 164.937 194.3C166.337 195.833 167.037 197.783 167.037 200.15C167.037 201.983 166.603 203.617 165.737 205.05C164.903 206.483 163.737 207.617 162.237 208.45C160.737 209.25 159.037 209.65 157.137 209.65C154.003 209.65 151.57 208.567 149.837 206.4C148.137 204.233 147.287 201.3 147.287 197.6C147.287 194.333 147.937 191.167 149.237 188.1C150.537 185.033 152.42 182.5 154.887 180.5C157.353 178.467 160.22 177.367 163.487 177.2C163.587 177.2 163.653 177.283 163.687 177.45C163.753 177.583 163.72 177.667 163.587 177.7C161.12 178.4 159.02 179.717 157.287 181.65C155.587 183.583 154.303 185.9 153.437 188.6C152.57 191.3 152.137 194.133 152.137 197.1C152.137 200.467 152.67 203.233 153.737 205.4C154.803 207.533 156.287 208.6 158.187 208.6C160.853 208.6 162.187 206.25 162.187 201.55C162.187 198.983 161.787 197.033 160.987 195.7C160.22 194.333 159.087 193.65 157.587 193.65C156.453 193.65 155.42 194 154.487 194.7L154.387 194.75C154.253 194.75 154.137 194.7 154.037 194.6C153.937 194.467 153.92 194.367 153.987 194.3C155.353 192.767 157.153 192 159.387 192Z" fill="#3D2A23"></path><path d="M128.953 293C128.786 293 128.62 292.85 128.453 292.55C128.286 292.217 128.27 291.983 128.403 291.85L129.953 289.95C132.853 286.317 134.986 283.55 136.353 281.65C137.72 279.717 138.82 277.817 139.653 275.95C140.486 274.05 140.903 272.167 140.903 270.3C140.903 268.133 140.42 266.55 139.453 265.55C138.486 264.55 137.17 264.05 135.503 264.05C133.903 264.05 132.553 264.467 131.453 265.3C130.386 266.133 129.67 267.3 129.303 268.8C129.303 268.833 129.236 268.85 129.103 268.85C128.836 268.85 128.72 268.783 128.753 268.65C129.153 266.35 130.153 264.533 131.753 263.2C133.386 261.867 135.403 261.2 137.803 261.2C140.27 261.2 142.186 261.9 143.553 263.3C144.92 264.7 145.603 266.55 145.603 268.85C145.603 270.683 145.17 272.483 144.303 274.25C143.436 276.017 142.403 277.633 141.203 279.1C140.036 280.567 138.503 282.317 136.603 284.35C136.436 284.517 135.903 285.083 135.003 286.05C134.136 286.983 133.42 287.833 132.853 288.6C132.653 288.833 132.72 288.95 133.053 288.95C136.853 288.95 139.603 288.867 141.303 288.7C143.036 288.533 144.22 288.217 144.853 287.75C145.52 287.25 145.87 286.467 145.903 285.4C145.903 285.333 145.986 285.3 146.153 285.3C146.353 285.3 146.453 285.333 146.453 285.4V292.45C146.453 292.583 146.403 292.717 146.303 292.85C146.236 292.95 146.136 293 146.003 293H128.953ZM159.519 276.5C161.852 276.633 163.685 277.45 165.019 278.95C166.352 280.45 167.019 282.217 167.019 284.25C167.019 286.083 166.602 287.717 165.769 289.15C164.969 290.55 163.835 291.65 162.369 292.45C160.902 293.217 159.219 293.6 157.319 293.6C154.152 293.6 151.419 292.35 149.119 289.85L149.069 289.75C149.069 289.617 149.135 289.517 149.269 289.45C149.435 289.35 149.552 289.35 149.619 289.45C150.385 290.217 151.302 290.8 152.369 291.2C153.469 291.6 154.535 291.8 155.569 291.8C157.835 291.8 159.485 291.15 160.519 289.85C161.585 288.517 162.119 286.783 162.119 284.65C162.119 279.617 159.385 277.1 153.919 277.1C153.785 277.1 153.702 277 153.669 276.8C153.669 276.567 153.752 276.45 153.919 276.45C156.585 276.45 158.452 275.867 159.519 274.7C160.619 273.533 161.169 271.883 161.169 269.75C161.169 267.65 160.719 266.1 159.819 265.1C158.919 264.1 157.669 263.6 156.069 263.6C154.769 263.6 153.519 263.933 152.319 264.6C151.119 265.233 150.235 266.183 149.669 267.45C149.669 267.483 149.619 267.5 149.519 267.5C149.419 267.5 149.302 267.467 149.169 267.4C149.069 267.333 149.035 267.283 149.069 267.25C149.802 265.383 150.969 263.917 152.569 262.85C154.169 261.75 156.002 261.2 158.069 261.2C160.369 261.2 162.235 261.85 163.669 263.15C165.135 264.45 165.869 266.117 165.869 268.15C165.869 269.95 165.285 271.617 164.119 273.15C162.985 274.683 161.452 275.8 159.519 276.5Z" fill="#3D2A23"></path><path d="M137.861 360.5C140.195 360.633 142.028 361.45 143.361 362.95C144.695 364.45 145.361 366.217 145.361 368.25C145.361 370.083 144.945 371.717 144.111 373.15C143.311 374.55 142.178 375.65 140.711 376.45C139.245 377.217 137.561 377.6 135.661 377.6C132.495 377.6 129.761 376.35 127.461 373.85L127.411 373.75C127.411 373.617 127.478 373.517 127.611 373.45C127.778 373.35 127.895 373.35 127.961 373.45C128.728 374.217 129.645 374.8 130.711 375.2C131.811 375.6 132.878 375.8 133.911 375.8C136.178 375.8 137.828 375.15 138.861 373.85C139.928 372.517 140.461 370.783 140.461 368.65C140.461 363.617 137.728 361.1 132.261 361.1C132.128 361.1 132.045 361 132.011 360.8C132.011 360.567 132.095 360.45 132.261 360.45C134.928 360.45 136.795 359.867 137.861 358.7C138.961 357.533 139.511 355.883 139.511 353.75C139.511 351.65 139.061 350.1 138.161 349.1C137.261 348.1 136.011 347.6 134.411 347.6C133.111 347.6 131.861 347.933 130.661 348.6C129.461 349.233 128.578 350.183 128.011 351.45C128.011 351.483 127.961 351.5 127.861 351.5C127.761 351.5 127.645 351.467 127.511 351.4C127.411 351.333 127.378 351.283 127.411 351.25C128.145 349.383 129.311 347.917 130.911 346.85C132.511 345.75 134.345 345.2 136.411 345.2C138.711 345.2 140.578 345.85 142.011 347.15C143.478 348.45 144.211 350.117 144.211 352.15C144.211 353.95 143.628 355.617 142.461 357.15C141.328 358.683 139.795 359.8 137.861 360.5ZM157.89 377.65C155.723 377.65 153.84 377 152.24 375.7C150.673 374.367 149.457 372.483 148.59 370.05C147.757 367.583 147.34 364.683 147.34 361.35C147.34 358.05 147.757 355.183 148.59 352.75C149.457 350.317 150.69 348.45 152.29 347.15C153.923 345.817 155.823 345.15 157.99 345.15C160.123 345.15 161.957 345.817 163.49 347.15C165.057 348.45 166.257 350.333 167.09 352.8C167.923 355.267 168.34 358.167 168.34 361.5C168.34 364.8 167.907 367.667 167.04 370.1C166.207 372.533 165.007 374.4 163.44 375.7C161.873 377 160.023 377.65 157.89 377.65ZM158.49 376.7C160.157 376.7 161.357 375.533 162.09 373.2C162.857 370.833 163.24 367.133 163.24 362.1C163.24 356.533 162.757 352.467 161.79 349.9C160.823 347.333 159.373 346.05 157.44 346.05C155.74 346.05 154.473 347.283 153.64 349.75C152.84 352.183 152.44 355.933 152.44 361C152.44 366.333 152.923 370.283 153.89 372.85C154.89 375.417 156.423 376.7 158.49 376.7Z" fill="#3D2A23"></path><path d="M251.386 24.5C253.719 24.6333 255.552 25.45 256.886 26.95C258.219 28.45 258.886 30.2167 258.886 32.25C258.886 34.0833 258.469 35.7167 257.636 37.15C256.836 38.55 255.702 39.65 254.236 40.45C252.769 41.2167 251.086 41.6 249.186 41.6C246.019 41.6 243.286 40.35 240.986 37.85L240.936 37.75C240.936 37.6167 241.002 37.5167 241.136 37.45C241.302 37.35 241.419 37.35 241.486 37.45C242.252 38.2167 243.169 38.8 244.236 39.2C245.336 39.6 246.402 39.8 247.436 39.8C249.702 39.8 251.352 39.15 252.386 37.85C253.452 36.5167 253.986 34.7833 253.986 32.65C253.986 27.6167 251.252 25.1 245.786 25.1C245.652 25.1 245.569 25 245.536 24.8C245.536 24.5667 245.619 24.45 245.786 24.45C248.452 24.45 250.319 23.8667 251.386 22.7C252.486 21.5333 253.036 19.8833 253.036 17.75C253.036 15.65 252.586 14.1 251.686 13.1C250.786 12.1 249.536 11.6 247.936 11.6C246.636 11.6 245.386 11.9333 244.186 12.6C242.986 13.2333 242.102 14.1833 241.536 15.45C241.536 15.4833 241.486 15.5 241.386 15.5C241.286 15.5 241.169 15.4667 241.036 15.4C240.936 15.3333 240.902 15.2833 240.936 15.25C241.669 13.3833 242.836 11.9167 244.436 10.85C246.036 9.75 247.869 9.2 249.936 9.2C252.236 9.2 254.102 9.85 255.536 11.15C257.002 12.45 257.736 14.1167 257.736 16.15C257.736 17.95 257.152 19.6167 255.986 21.15C254.852 22.6833 253.319 23.8 251.386 24.5Z" fill="#3D2A23"></path><path d="M231.31 125C231.243 125 231.21 124.9 231.21 124.7C231.21 124.5 231.243 124.4 231.31 124.4C232.777 124.4 233.877 124.317 234.61 124.15C235.377 123.95 235.927 123.617 236.26 123.15C236.593 122.65 236.76 121.917 236.76 120.95V102.35C236.76 100.083 236.227 98.95 235.16 98.95C234.36 98.95 233.077 99.5833 231.31 100.85L231.21 100.9C231.077 100.9 230.977 100.833 230.91 100.7C230.843 100.533 230.843 100.417 230.91 100.35L240.56 93.4C240.693 93.3333 240.81 93.3 240.91 93.3C240.977 93.3 241.043 93.3333 241.11 93.4C241.177 93.4667 241.21 93.5333 241.21 93.6V120.95C241.21 121.95 241.36 122.683 241.66 123.15C241.96 123.617 242.477 123.95 243.21 124.15C243.977 124.317 245.11 124.4 246.61 124.4C246.71 124.4 246.76 124.5 246.76 124.7C246.76 124.9 246.71 125 246.61 125C245.277 125 244.227 124.983 243.46 124.95L238.96 124.9L234.61 124.95C233.81 124.983 232.71 125 231.31 125ZM258.791 125.65C256.625 125.65 254.741 125 253.141 123.7C251.575 122.367 250.358 120.483 249.491 118.05C248.658 115.583 248.241 112.683 248.241 109.35C248.241 106.05 248.658 103.183 249.491 100.75C250.358 98.3167 251.591 96.45 253.191 95.15C254.825 93.8167 256.725 93.15 258.891 93.15C261.025 93.15 262.858 93.8167 264.391 95.15C265.958 96.45 267.158 98.3333 267.991 100.8C268.825 103.267 269.241 106.167 269.241 109.5C269.241 112.8 268.808 115.667 267.941 118.1C267.108 120.533 265.908 122.4 264.341 123.7C262.775 125 260.925 125.65 258.791 125.65ZM259.391 124.7C261.058 124.7 262.258 123.533 262.991 121.2C263.758 118.833 264.141 115.133 264.141 110.1C264.141 104.533 263.658 100.467 262.691 97.9C261.725 95.3333 260.275 94.05 258.341 94.05C256.641 94.05 255.375 95.2833 254.541 97.75C253.741 100.183 253.341 103.933 253.341 109C253.341 114.333 253.825 118.283 254.791 120.85C255.791 123.417 257.325 124.7 259.391 124.7Z" fill="#3D2A23"></path><path d="M233.117 209C233.05 209 233.017 208.9 233.017 208.7C233.017 208.5 233.05 208.4 233.117 208.4C234.583 208.4 235.683 208.317 236.417 208.15C237.183 207.95 237.733 207.617 238.067 207.15C238.4 206.65 238.567 205.917 238.567 204.95V186.35C238.567 184.083 238.033 182.95 236.967 182.95C236.167 182.95 234.883 183.583 233.117 184.85L233.017 184.9C232.883 184.9 232.783 184.833 232.717 184.7C232.65 184.533 232.65 184.417 232.717 184.35L242.367 177.4C242.5 177.333 242.617 177.3 242.717 177.3C242.783 177.3 242.85 177.333 242.917 177.4C242.983 177.467 243.017 177.533 243.017 177.6V204.95C243.017 205.95 243.167 206.683 243.467 207.15C243.767 207.617 244.283 207.95 245.017 208.15C245.783 208.317 246.917 208.4 248.417 208.4C248.517 208.4 248.567 208.5 248.567 208.7C248.567 208.9 248.517 209 248.417 209C247.083 209 246.033 208.983 245.267 208.95L240.767 208.9L236.417 208.95C235.617 208.983 234.517 209 233.117 209ZM258.348 207.85C258.215 208.283 258.065 208.583 257.898 208.75C257.765 208.917 257.548 209 257.248 209H253.648C253.448 209 253.281 208.933 253.148 208.8C253.015 208.667 252.998 208.5 253.098 208.3L264.798 182.3C264.965 182.067 264.898 181.95 264.598 181.95C259.665 181.95 256.281 182.017 254.448 182.15C252.648 182.283 251.498 182.55 250.998 182.95C250.498 183.35 250.065 184.15 249.698 185.35C249.698 185.45 249.615 185.5 249.448 185.5C249.381 185.5 249.298 185.483 249.198 185.45C249.131 185.383 249.115 185.317 249.148 185.25L251.148 176.45C251.181 176.35 251.298 176.317 251.498 176.35C251.698 176.35 251.781 176.4 251.748 176.5C251.715 176.633 251.698 176.8 251.698 177C251.698 177.3 251.848 177.5 252.148 177.6C252.481 177.7 253.131 177.75 254.098 177.75H267.348C267.481 177.75 267.598 177.833 267.698 178C267.831 178.167 267.865 178.3 267.798 178.4L258.348 207.85Z" fill="#3D2A23"></path><path d="M230.025 293C229.859 293 229.692 292.85 229.525 292.55C229.359 292.217 229.342 291.983 229.475 291.85L231.025 289.95C233.925 286.317 236.059 283.55 237.425 281.65C238.792 279.717 239.892 277.817 240.725 275.95C241.559 274.05 241.975 272.167 241.975 270.3C241.975 268.133 241.492 266.55 240.525 265.55C239.559 264.55 238.242 264.05 236.575 264.05C234.975 264.05 233.625 264.467 232.525 265.3C231.459 266.133 230.742 267.3 230.375 268.8C230.375 268.833 230.309 268.85 230.175 268.85C229.909 268.85 229.792 268.783 229.825 268.65C230.225 266.35 231.225 264.533 232.825 263.2C234.459 261.867 236.475 261.2 238.875 261.2C241.342 261.2 243.259 261.9 244.625 263.3C245.992 264.7 246.675 266.55 246.675 268.85C246.675 270.683 246.242 272.483 245.375 274.25C244.509 276.017 243.475 277.633 242.275 279.1C241.109 280.567 239.575 282.317 237.675 284.35C237.509 284.517 236.975 285.083 236.075 286.05C235.209 286.983 234.492 287.833 233.925 288.6C233.725 288.833 233.792 288.95 234.125 288.95C237.925 288.95 240.675 288.867 242.375 288.7C244.109 288.533 245.292 288.217 245.925 287.75C246.592 287.25 246.942 286.467 246.975 285.4C246.975 285.333 247.059 285.3 247.225 285.3C247.425 285.3 247.525 285.333 247.525 285.4V292.45C247.525 292.583 247.475 292.717 247.375 292.85C247.309 292.95 247.209 293 247.075 293H230.025ZM269.241 282.05C269.374 282.05 269.441 282.4 269.441 283.1C269.441 283.8 269.374 284.15 269.241 284.15L265.841 284V288.95C265.841 289.95 265.907 290.7 266.041 291.2C266.207 291.667 266.507 291.983 266.941 292.15C267.407 292.317 268.124 292.4 269.091 292.4C269.157 292.4 269.191 292.5 269.191 292.7C269.191 292.9 269.157 293 269.091 293C268.124 293 267.374 292.983 266.841 292.95L263.541 292.9L259.641 292.95C258.974 292.983 258.041 293 256.841 293C256.774 293 256.741 292.9 256.741 292.7C256.741 292.5 256.774 292.4 256.841 292.4C258.274 292.4 259.274 292.333 259.841 292.2C260.441 292.033 260.841 291.733 261.041 291.3C261.241 290.833 261.341 290.05 261.341 288.95V283.9C257.007 283.833 253.041 283.8 249.441 283.8C249.274 283.8 249.141 283.75 249.041 283.65C248.974 283.517 248.991 283.383 249.091 283.25L265.091 261.5C265.157 261.433 265.257 261.4 265.391 261.4C265.491 261.4 265.591 261.433 265.691 261.5C265.791 261.533 265.841 261.6 265.841 261.7V282.15C266.507 282.15 267.641 282.117 269.241 282.05ZM252.191 282.35C256.557 282.35 259.607 282.333 261.341 282.3V268.85L251.941 282C251.741 282.233 251.824 282.35 252.191 282.35Z" fill="#3D2A23"></path><path d="M361.108 30.05C361.241 30.05 361.308 30.4 361.308 31.1C361.308 31.8 361.241 32.15 361.108 32.15L357.708 32V36.95C357.708 37.95 357.775 38.7 357.908 39.2C358.075 39.6667 358.375 39.9833 358.808 40.15C359.275 40.3167 359.991 40.4 360.958 40.4C361.025 40.4 361.058 40.5 361.058 40.7C361.058 40.9 361.025 41 360.958 41C359.991 41 359.241 40.9833 358.708 40.95L355.408 40.9L351.508 40.95C350.841 40.9833 349.908 41 348.708 41C348.641 41 348.608 40.9 348.608 40.7C348.608 40.5 348.641 40.4 348.708 40.4C350.141 40.4 351.141 40.3333 351.708 40.2C352.308 40.0333 352.708 39.7333 352.908 39.3C353.108 38.8333 353.208 38.05 353.208 36.95V31.9C348.875 31.8333 344.908 31.8 341.308 31.8C341.141 31.8 341.008 31.75 340.908 31.65C340.841 31.5167 340.858 31.3833 340.958 31.25L356.958 9.5C357.025 9.43333 357.125 9.4 357.258 9.4C357.358 9.4 357.458 9.43333 357.558 9.5C357.658 9.53333 357.708 9.6 357.708 9.7V30.15C358.375 30.15 359.508 30.1167 361.108 30.05ZM344.058 30.35C348.425 30.35 351.475 30.3333 353.208 30.3V16.85L343.808 30C343.608 30.2333 343.691 30.35 344.058 30.35Z" fill="#3D2A23"></path><path d="M336.069 125C336.002 125 335.969 124.9 335.969 124.7C335.969 124.5 336.002 124.4 336.069 124.4C337.535 124.4 338.635 124.317 339.369 124.15C340.135 123.95 340.685 123.617 341.019 123.15C341.352 122.65 341.519 121.917 341.519 120.95V102.35C341.519 100.083 340.985 98.95 339.919 98.95C339.119 98.95 337.835 99.5833 336.069 100.85L335.969 100.9C335.835 100.9 335.735 100.833 335.669 100.7C335.602 100.533 335.602 100.417 335.669 100.35L345.319 93.4C345.452 93.3333 345.569 93.3 345.669 93.3C345.735 93.3 345.802 93.3333 345.869 93.4C345.935 93.4667 345.969 93.5333 345.969 93.6V120.95C345.969 121.95 346.119 122.683 346.419 123.15C346.719 123.617 347.235 123.95 347.969 124.15C348.735 124.317 349.869 124.4 351.369 124.4C351.469 124.4 351.519 124.5 351.519 124.7C351.519 124.9 351.469 125 351.369 125C350.035 125 348.985 124.983 348.219 124.95L343.719 124.9L339.369 124.95C338.569 124.983 337.469 125 336.069 125ZM353.6 125C353.533 125 353.5 124.9 353.5 124.7C353.5 124.5 353.533 124.4 353.6 124.4C355.067 124.4 356.167 124.317 356.9 124.15C357.667 123.95 358.217 123.617 358.55 123.15C358.883 122.65 359.05 121.917 359.05 120.95V102.35C359.05 100.083 358.517 98.95 357.45 98.95C356.65 98.95 355.367 99.5833 353.6 100.85L353.5 100.9C353.367 100.9 353.267 100.833 353.2 100.7C353.133 100.533 353.133 100.417 353.2 100.35L362.85 93.4C362.983 93.3333 363.1 93.3 363.2 93.3C363.267 93.3 363.333 93.3333 363.4 93.4C363.467 93.4667 363.5 93.5333 363.5 93.6V120.95C363.5 121.95 363.65 122.683 363.95 123.15C364.25 123.617 364.767 123.95 365.5 124.15C366.267 124.317 367.4 124.4 368.9 124.4C369 124.4 369.05 124.5 369.05 124.7C369.05 124.9 369 125 368.9 125C367.567 125 366.517 124.983 365.75 124.95L361.25 124.9L356.9 124.95C356.1 124.983 355 125 353.6 125Z" fill="#3D2A23"></path><path d="M333.505 209C333.439 209 333.405 208.9 333.405 208.7C333.405 208.5 333.439 208.4 333.505 208.4C334.972 208.4 336.072 208.317 336.805 208.15C337.572 207.95 338.122 207.617 338.455 207.15C338.789 206.65 338.955 205.917 338.955 204.95V186.35C338.955 184.083 338.422 182.95 337.355 182.95C336.555 182.95 335.272 183.583 333.505 184.85L333.405 184.9C333.272 184.9 333.172 184.833 333.105 184.7C333.039 184.533 333.039 184.417 333.105 184.35L342.755 177.4C342.889 177.333 343.005 177.3 343.105 177.3C343.172 177.3 343.239 177.333 343.305 177.4C343.372 177.467 343.405 177.533 343.405 177.6V204.95C343.405 205.95 343.555 206.683 343.855 207.15C344.155 207.617 344.672 207.95 345.405 208.15C346.172 208.317 347.305 208.4 348.805 208.4C348.905 208.4 348.955 208.5 348.955 208.7C348.955 208.9 348.905 209 348.805 209C347.472 209 346.422 208.983 345.655 208.95L341.155 208.9L336.805 208.95C336.005 208.983 334.905 209 333.505 209ZM364.487 190.95C366.653 192.317 368.337 193.733 369.537 195.2C370.737 196.633 371.337 198.5 371.337 200.8C371.337 202.533 370.87 204.083 369.937 205.45C369.003 206.783 367.72 207.817 366.087 208.55C364.487 209.283 362.703 209.65 360.737 209.65C358.637 209.65 356.803 209.267 355.237 208.5C353.67 207.7 352.47 206.633 351.637 205.3C350.837 203.933 350.437 202.45 350.437 200.85C350.437 198.783 351.053 196.95 352.287 195.35C353.52 193.75 355.103 192.45 357.037 191.45C355.803 190.55 354.837 189.55 354.137 188.45C353.47 187.317 353.137 185.983 353.137 184.45C353.137 182.85 353.52 181.517 354.287 180.45C355.053 179.35 356.053 178.533 357.287 178C358.553 177.467 359.887 177.2 361.287 177.2C363.487 177.2 365.287 177.8 366.687 179C368.12 180.167 368.837 181.683 368.837 183.55C368.837 184.95 368.437 186.283 367.637 187.55C366.87 188.783 365.82 189.917 364.487 190.95ZM360.437 178.2C359.303 178.2 358.437 178.567 357.837 179.3C357.27 180.033 356.987 180.983 356.987 182.15C356.987 183.917 357.503 185.383 358.537 186.55C359.603 187.717 361.187 188.933 363.287 190.2C364.153 188.5 364.587 186.483 364.587 184.15C364.587 182.15 364.22 180.667 363.487 179.7C362.787 178.7 361.77 178.2 360.437 178.2ZM361.937 208.6C363.57 208.6 364.82 208.067 365.687 207C366.553 205.9 366.987 204.45 366.987 202.65C366.987 201.083 366.653 199.75 365.987 198.65C365.353 197.517 364.57 196.583 363.637 195.85C362.703 195.117 361.42 194.25 359.787 193.25C358.987 192.783 358.403 192.417 358.037 192.15C356.27 193.917 355.387 196.433 355.387 199.7C355.387 202.4 355.97 204.567 357.137 206.2C358.337 207.8 359.937 208.6 361.937 208.6Z" fill="#3D2A23"></path><path d="M332.611 293C332.444 293 332.278 292.85 332.111 292.55C331.944 292.217 331.928 291.983 332.061 291.85L333.611 289.95C336.511 286.317 338.644 283.55 340.011 281.65C341.378 279.717 342.478 277.817 343.311 275.95C344.144 274.05 344.561 272.167 344.561 270.3C344.561 268.133 344.078 266.55 343.111 265.55C342.144 264.55 340.828 264.05 339.161 264.05C337.561 264.05 336.211 264.467 335.111 265.3C334.044 266.133 333.328 267.3 332.961 268.8C332.961 268.833 332.894 268.85 332.761 268.85C332.494 268.85 332.378 268.783 332.411 268.65C332.811 266.35 333.811 264.533 335.411 263.2C337.044 261.867 339.061 261.2 341.461 261.2C343.928 261.2 345.844 261.9 347.211 263.3C348.578 264.7 349.261 266.55 349.261 268.85C349.261 270.683 348.828 272.483 347.961 274.25C347.094 276.017 346.061 277.633 344.861 279.1C343.694 280.567 342.161 282.317 340.261 284.35C340.094 284.517 339.561 285.083 338.661 286.05C337.794 286.983 337.078 287.833 336.511 288.6C336.311 288.833 336.378 288.95 336.711 288.95C340.511 288.95 343.261 288.867 344.961 288.7C346.694 288.533 347.878 288.217 348.511 287.75C349.178 287.25 349.528 286.467 349.561 285.4C349.561 285.333 349.644 285.3 349.811 285.3C350.011 285.3 350.111 285.333 350.111 285.4V292.45C350.111 292.583 350.061 292.717 349.961 292.85C349.894 292.95 349.794 293 349.661 293H332.611ZM361.327 274.1C364.36 274.1 366.743 274.917 368.477 276.55C370.243 278.183 371.127 280.533 371.127 283.6C371.127 286.767 370.177 289.233 368.277 291C366.377 292.733 363.96 293.6 361.027 293.6C359.46 293.6 358.06 293.3 356.827 292.7C355.593 292.067 354.443 291.117 353.377 289.85L353.327 289.75C353.327 289.617 353.393 289.517 353.527 289.45C353.66 289.35 353.76 289.35 353.827 289.45C354.527 290.217 355.377 290.8 356.377 291.2C357.41 291.6 358.477 291.8 359.577 291.8C361.81 291.8 363.477 291.1 364.577 289.7C365.677 288.3 366.227 286.45 366.227 284.15C366.227 281.583 365.61 279.533 364.377 278C363.177 276.467 361.393 275.7 359.027 275.7C357.993 275.7 357.077 275.8 356.277 276C355.477 276.2 355.027 276.317 354.927 276.35C354.76 276.35 354.627 276.3 354.527 276.2C354.427 276.067 354.393 275.917 354.427 275.75L356.027 262.35C356.06 262.117 356.11 261.967 356.177 261.9C356.243 261.8 356.41 261.75 356.677 261.75C361.21 261.75 364.21 261.733 365.677 261.7C367.177 261.633 368.16 261.517 368.627 261.35C369.093 261.183 369.46 260.833 369.727 260.3C369.76 260.233 369.86 260.217 370.027 260.25C370.193 260.25 370.26 260.317 370.227 260.45L369.477 265.25C369.377 265.65 369.243 265.917 369.077 266.05C368.943 266.15 368.66 266.2 368.227 266.2L357.777 265.95C357.343 265.95 357.077 266.183 356.977 266.65L355.927 274.95C357.86 274.383 359.66 274.1 361.327 274.1Z" fill="#3D2A23"></path><path d="M453.194 22.1C456.227 22.1 458.611 22.9167 460.344 24.55C462.111 26.1833 462.994 28.5333 462.994 31.6C462.994 34.7667 462.044 37.2333 460.144 39C458.244 40.7333 455.827 41.6 452.894 41.6C451.327 41.6 449.927 41.3 448.694 40.7C447.461 40.0667 446.311 39.1167 445.244 37.85L445.194 37.75C445.194 37.6167 445.261 37.5167 445.394 37.45C445.527 37.35 445.627 37.35 445.694 37.45C446.394 38.2167 447.244 38.8 448.244 39.2C449.277 39.6 450.344 39.8 451.444 39.8C453.677 39.8 455.344 39.1 456.444 37.7C457.544 36.3 458.094 34.45 458.094 32.15C458.094 29.5833 457.477 27.5333 456.244 26C455.044 24.4667 453.261 23.7 450.894 23.7C449.861 23.7 448.944 23.8 448.144 24C447.344 24.2 446.894 24.3167 446.794 24.35C446.627 24.35 446.494 24.3 446.394 24.2C446.294 24.0667 446.261 23.9167 446.294 23.75L447.894 10.35C447.927 10.1167 447.977 9.96667 448.044 9.9C448.111 9.8 448.277 9.75 448.544 9.75C453.077 9.75 456.077 9.73333 457.544 9.7C459.044 9.63333 460.027 9.51667 460.494 9.35C460.961 9.18333 461.327 8.83333 461.594 8.3C461.627 8.23333 461.727 8.21667 461.894 8.25C462.061 8.25 462.127 8.31667 462.094 8.45L461.344 13.25C461.244 13.65 461.111 13.9167 460.944 14.05C460.811 14.15 460.527 14.2 460.094 14.2L449.644 13.95C449.211 13.95 448.944 14.1833 448.844 14.65L447.794 22.95C449.727 22.3833 451.527 22.1 453.194 22.1Z" fill="#3D2A23"></path><path d="M436.702 125C436.635 125 436.602 124.9 436.602 124.7C436.602 124.5 436.635 124.4 436.702 124.4C438.168 124.4 439.268 124.317 440.002 124.15C440.768 123.95 441.318 123.617 441.652 123.15C441.985 122.65 442.152 121.917 442.152 120.95V102.35C442.152 100.083 441.618 98.95 440.552 98.95C439.752 98.95 438.468 99.5833 436.702 100.85L436.602 100.9C436.468 100.9 436.368 100.833 436.302 100.7C436.235 100.533 436.235 100.417 436.302 100.35L445.952 93.4C446.085 93.3333 446.202 93.3 446.302 93.3C446.368 93.3 446.435 93.3333 446.502 93.4C446.568 93.4667 446.602 93.5333 446.602 93.6V120.95C446.602 121.95 446.752 122.683 447.052 123.15C447.352 123.617 447.868 123.95 448.602 124.15C449.368 124.317 450.502 124.4 452.002 124.4C452.102 124.4 452.152 124.5 452.152 124.7C452.152 124.9 452.102 125 452.002 125C450.668 125 449.618 124.983 448.852 124.95L444.352 124.9L440.002 124.95C439.202 124.983 438.102 125 436.702 125ZM453.583 125C453.416 125 453.249 124.85 453.083 124.55C452.916 124.217 452.899 123.983 453.033 123.85L454.583 121.95C457.483 118.317 459.616 115.55 460.983 113.65C462.349 111.717 463.449 109.817 464.283 107.95C465.116 106.05 465.533 104.167 465.533 102.3C465.533 100.133 465.049 98.55 464.083 97.55C463.116 96.55 461.799 96.05 460.133 96.05C458.533 96.05 457.183 96.4667 456.083 97.3C455.016 98.1333 454.299 99.3 453.933 100.8C453.933 100.833 453.866 100.85 453.733 100.85C453.466 100.85 453.349 100.783 453.383 100.65C453.783 98.35 454.783 96.5333 456.383 95.2C458.016 93.8667 460.033 93.2 462.433 93.2C464.899 93.2 466.816 93.9 468.183 95.3C469.549 96.7 470.233 98.55 470.233 100.85C470.233 102.683 469.799 104.483 468.933 106.25C468.066 108.017 467.033 109.633 465.833 111.1C464.666 112.567 463.133 114.317 461.233 116.35C461.066 116.517 460.533 117.083 459.633 118.05C458.766 118.983 458.049 119.833 457.483 120.6C457.283 120.833 457.349 120.95 457.683 120.95C461.483 120.95 464.233 120.867 465.933 120.7C467.666 120.533 468.849 120.217 469.483 119.75C470.149 119.25 470.499 118.467 470.533 117.4C470.533 117.333 470.616 117.3 470.783 117.3C470.983 117.3 471.083 117.333 471.083 117.4V124.45C471.083 124.583 471.033 124.717 470.933 124.85C470.866 124.95 470.766 125 470.633 125H453.583Z" fill="#3D2A23"></path><path d="M435.603 209C435.536 209 435.503 208.9 435.503 208.7C435.503 208.5 435.536 208.4 435.603 208.4C437.07 208.4 438.17 208.317 438.903 208.15C439.67 207.95 440.22 207.617 440.553 207.15C440.886 206.65 441.053 205.917 441.053 204.95V186.35C441.053 184.083 440.52 182.95 439.453 182.95C438.653 182.95 437.37 183.583 435.603 184.85L435.503 184.9C435.37 184.9 435.27 184.833 435.203 184.7C435.136 184.533 435.136 184.417 435.203 184.35L444.853 177.4C444.986 177.333 445.103 177.3 445.203 177.3C445.27 177.3 445.336 177.333 445.403 177.4C445.47 177.467 445.503 177.533 445.503 177.6V204.95C445.503 205.95 445.653 206.683 445.953 207.15C446.253 207.617 446.77 207.95 447.503 208.15C448.27 208.317 449.403 208.4 450.903 208.4C451.003 208.4 451.053 208.5 451.053 208.7C451.053 208.9 451.003 209 450.903 209C449.57 209 448.52 208.983 447.753 208.95L443.253 208.9L438.903 208.95C438.103 208.983 437.003 209 435.603 209ZM460.334 194.75C457.968 194.75 456.068 193.95 454.634 192.35C453.234 190.717 452.534 188.65 452.534 186.15C452.534 184.417 452.968 182.867 453.834 181.5C454.701 180.133 455.884 179.083 457.384 178.35C458.884 177.583 460.584 177.2 462.484 177.2C465.651 177.2 468.084 178.283 469.784 180.45C471.518 182.583 472.384 185.517 472.384 189.25C472.384 192.483 471.701 195.633 470.334 198.7C469.001 201.767 467.068 204.317 464.534 206.35C462.034 208.35 459.101 209.45 455.734 209.65C455.601 209.65 455.518 209.567 455.484 209.4C455.451 209.233 455.484 209.133 455.584 209.1C458.151 208.433 460.318 207.133 462.084 205.2C463.884 203.267 465.234 200.95 466.134 198.25C467.034 195.55 467.484 192.717 467.484 189.75C467.484 186.383 466.951 183.633 465.884 181.5C464.818 179.333 463.334 178.25 461.434 178.25C458.768 178.25 457.434 180.55 457.434 185.15C457.434 187.75 457.834 189.733 458.634 191.1C459.468 192.467 460.668 193.15 462.234 193.15C463.301 193.15 464.284 192.833 465.184 192.2L465.284 192.15C465.384 192.15 465.468 192.217 465.534 192.35C465.634 192.483 465.651 192.583 465.584 192.65C464.351 194.05 462.601 194.75 460.334 194.75Z" fill="#3D2A23"></path><path d="M433.488 293C433.321 293 433.155 292.85 432.988 292.55C432.821 292.217 432.805 291.983 432.938 291.85L434.488 289.95C437.388 286.317 439.521 283.55 440.888 281.65C442.255 279.717 443.355 277.817 444.188 275.95C445.021 274.05 445.438 272.167 445.438 270.3C445.438 268.133 444.955 266.55 443.988 265.55C443.021 264.55 441.705 264.05 440.038 264.05C438.438 264.05 437.088 264.467 435.988 265.3C434.921 266.133 434.205 267.3 433.838 268.8C433.838 268.833 433.771 268.85 433.638 268.85C433.371 268.85 433.255 268.783 433.288 268.65C433.688 266.35 434.688 264.533 436.288 263.2C437.921 261.867 439.938 261.2 442.338 261.2C444.805 261.2 446.721 261.9 448.088 263.3C449.455 264.7 450.138 266.55 450.138 268.85C450.138 270.683 449.705 272.483 448.838 274.25C447.971 276.017 446.938 277.633 445.738 279.1C444.571 280.567 443.038 282.317 441.138 284.35C440.971 284.517 440.438 285.083 439.538 286.05C438.671 286.983 437.955 287.833 437.388 288.6C437.188 288.833 437.255 288.95 437.588 288.95C441.388 288.95 444.138 288.867 445.838 288.7C447.571 288.533 448.755 288.217 449.388 287.75C450.055 287.25 450.405 286.467 450.438 285.4C450.438 285.333 450.521 285.3 450.688 285.3C450.888 285.3 450.988 285.333 450.988 285.4V292.45C450.988 292.583 450.938 292.717 450.838 292.85C450.771 292.95 450.671 293 450.538 293H433.488ZM466.754 276C469.087 276 470.937 276.767 472.304 278.3C473.704 279.833 474.404 281.783 474.404 284.15C474.404 285.983 473.97 287.617 473.104 289.05C472.27 290.483 471.104 291.617 469.604 292.45C468.104 293.25 466.404 293.65 464.504 293.65C461.37 293.65 458.937 292.567 457.204 290.4C455.504 288.233 454.654 285.3 454.654 281.6C454.654 278.333 455.304 275.167 456.604 272.1C457.904 269.033 459.787 266.5 462.254 264.5C464.72 262.467 467.587 261.367 470.854 261.2C470.954 261.2 471.02 261.283 471.054 261.45C471.12 261.583 471.087 261.667 470.954 261.7C468.487 262.4 466.387 263.717 464.654 265.65C462.954 267.583 461.67 269.9 460.804 272.6C459.937 275.3 459.504 278.133 459.504 281.1C459.504 284.467 460.037 287.233 461.104 289.4C462.17 291.533 463.654 292.6 465.554 292.6C468.22 292.6 469.554 290.25 469.554 285.55C469.554 282.983 469.154 281.033 468.354 279.7C467.587 278.333 466.454 277.65 464.954 277.65C463.82 277.65 462.787 278 461.854 278.7L461.754 278.75C461.62 278.75 461.504 278.7 461.404 278.6C461.304 278.467 461.287 278.367 461.354 278.3C462.72 276.767 464.52 276 466.754 276Z" fill="#3D2A23"></path><path d="M558.621 24C560.954 24 562.804 24.7667 564.171 26.3C565.571 27.8333 566.271 29.7833 566.271 32.15C566.271 33.9833 565.838 35.6167 564.971 37.05C564.138 38.4833 562.971 39.6167 561.471 40.45C559.971 41.25 558.271 41.65 556.371 41.65C553.238 41.65 550.804 40.5667 549.071 38.4C547.371 36.2333 546.521 33.3 546.521 29.6C546.521 26.3333 547.171 23.1667 548.471 20.1C549.771 17.0333 551.654 14.5 554.121 12.5C556.588 10.4667 559.454 9.36666 562.721 9.2C562.821 9.2 562.888 9.28333 562.921 9.45C562.988 9.58333 562.954 9.66666 562.821 9.7C560.354 10.4 558.254 11.7167 556.521 13.65C554.821 15.5833 553.538 17.9 552.671 20.6C551.804 23.3 551.371 26.1333 551.371 29.1C551.371 32.4667 551.904 35.2333 552.971 37.4C554.038 39.5333 555.521 40.6 557.421 40.6C560.088 40.6 561.421 38.25 561.421 33.55C561.421 30.9833 561.021 29.0333 560.221 27.7C559.454 26.3333 558.321 25.65 556.821 25.65C555.688 25.65 554.654 26 553.721 26.7L553.621 26.75C553.488 26.75 553.371 26.7 553.271 26.6C553.171 26.4667 553.154 26.3667 553.221 26.3C554.588 24.7667 556.388 24 558.621 24Z" fill="#3D2A23"></path><path d="M538.97 125C538.903 125 538.87 124.9 538.87 124.7C538.87 124.5 538.903 124.4 538.97 124.4C540.437 124.4 541.537 124.317 542.27 124.15C543.037 123.95 543.587 123.617 543.92 123.15C544.253 122.65 544.42 121.917 544.42 120.95V102.35C544.42 100.083 543.887 98.95 542.82 98.95C542.02 98.95 540.737 99.5833 538.97 100.85L538.87 100.9C538.737 100.9 538.637 100.833 538.57 100.7C538.503 100.533 538.503 100.417 538.57 100.35L548.22 93.4C548.353 93.3333 548.47 93.3 548.57 93.3C548.637 93.3 548.703 93.3333 548.77 93.4C548.837 93.4667 548.87 93.5333 548.87 93.6V120.95C548.87 121.95 549.02 122.683 549.32 123.15C549.62 123.617 550.137 123.95 550.87 124.15C551.637 124.317 552.77 124.4 554.27 124.4C554.37 124.4 554.42 124.5 554.42 124.7C554.42 124.9 554.37 125 554.27 125C552.937 125 551.887 124.983 551.12 124.95L546.62 124.9L542.27 124.95C541.47 124.983 540.37 125 538.97 125ZM566.151 108.5C568.485 108.633 570.318 109.45 571.651 110.95C572.985 112.45 573.651 114.217 573.651 116.25C573.651 118.083 573.235 119.717 572.401 121.15C571.601 122.55 570.468 123.65 569.001 124.45C567.535 125.217 565.851 125.6 563.951 125.6C560.785 125.6 558.051 124.35 555.751 121.85L555.701 121.75C555.701 121.617 555.768 121.517 555.901 121.45C556.068 121.35 556.185 121.35 556.251 121.45C557.018 122.217 557.935 122.8 559.001 123.2C560.101 123.6 561.168 123.8 562.201 123.8C564.468 123.8 566.118 123.15 567.151 121.85C568.218 120.517 568.751 118.783 568.751 116.65C568.751 111.617 566.018 109.1 560.551 109.1C560.418 109.1 560.335 109 560.301 108.8C560.301 108.567 560.385 108.45 560.551 108.45C563.218 108.45 565.085 107.867 566.151 106.7C567.251 105.533 567.801 103.883 567.801 101.75C567.801 99.65 567.351 98.1 566.451 97.1C565.551 96.1 564.301 95.6 562.701 95.6C561.401 95.6 560.151 95.9333 558.951 96.6C557.751 97.2333 556.868 98.1833 556.301 99.45C556.301 99.4833 556.251 99.5 556.151 99.5C556.051 99.5 555.935 99.4667 555.801 99.4C555.701 99.3333 555.668 99.2833 555.701 99.25C556.435 97.3833 557.601 95.9167 559.201 94.85C560.801 93.75 562.635 93.2 564.701 93.2C567.001 93.2 568.868 93.85 570.301 95.15C571.768 96.45 572.501 98.1167 572.501 100.15C572.501 101.95 571.918 103.617 570.751 105.15C569.618 106.683 568.085 107.8 566.151 108.5Z" fill="#3D2A23"></path><path d="M535.293 209C535.126 209 534.959 208.85 534.793 208.55C534.626 208.217 534.609 207.983 534.743 207.85L536.293 205.95C539.193 202.317 541.326 199.55 542.693 197.65C544.059 195.717 545.159 193.817 545.993 191.95C546.826 190.05 547.243 188.167 547.243 186.3C547.243 184.133 546.759 182.55 545.793 181.55C544.826 180.55 543.509 180.05 541.843 180.05C540.243 180.05 538.893 180.467 537.793 181.3C536.726 182.133 536.009 183.3 535.643 184.8C535.643 184.833 535.576 184.85 535.443 184.85C535.176 184.85 535.059 184.783 535.093 184.65C535.493 182.35 536.493 180.533 538.093 179.2C539.726 177.867 541.743 177.2 544.143 177.2C546.609 177.2 548.526 177.9 549.893 179.3C551.259 180.7 551.943 182.55 551.943 184.85C551.943 186.683 551.509 188.483 550.643 190.25C549.776 192.017 548.743 193.633 547.543 195.1C546.376 196.567 544.843 198.317 542.943 200.35C542.776 200.517 542.243 201.083 541.343 202.05C540.476 202.983 539.759 203.833 539.193 204.6C538.993 204.833 539.059 204.95 539.393 204.95C543.193 204.95 545.943 204.867 547.643 204.7C549.376 204.533 550.559 204.217 551.193 203.75C551.859 203.25 552.209 202.467 552.243 201.4C552.243 201.333 552.326 201.3 552.493 201.3C552.693 201.3 552.793 201.333 552.793 201.4V208.45C552.793 208.583 552.743 208.717 552.643 208.85C552.576 208.95 552.476 209 552.343 209H535.293ZM566.158 209.65C563.992 209.65 562.108 209 560.508 207.7C558.942 206.367 557.725 204.483 556.858 202.05C556.025 199.583 555.608 196.683 555.608 193.35C555.608 190.05 556.025 187.183 556.858 184.75C557.725 182.317 558.958 180.45 560.558 179.15C562.192 177.817 564.092 177.15 566.258 177.15C568.392 177.15 570.225 177.817 571.758 179.15C573.325 180.45 574.525 182.333 575.358 184.8C576.192 187.267 576.608 190.167 576.608 193.5C576.608 196.8 576.175 199.667 575.308 202.1C574.475 204.533 573.275 206.4 571.708 207.7C570.142 209 568.292 209.65 566.158 209.65ZM566.758 208.7C568.425 208.7 569.625 207.533 570.358 205.2C571.125 202.833 571.508 199.133 571.508 194.1C571.508 188.533 571.025 184.467 570.058 181.9C569.092 179.333 567.642 178.05 565.708 178.05C564.008 178.05 562.742 179.283 561.908 181.75C561.108 184.183 560.708 187.933 560.708 193C560.708 198.333 561.192 202.283 562.158 204.85C563.158 207.417 564.692 208.7 566.758 208.7Z" fill="#3D2A23"></path><path d="M537.099 293C536.933 293 536.766 292.85 536.599 292.55C536.433 292.217 536.416 291.983 536.549 291.85L538.099 289.95C540.999 286.317 543.133 283.55 544.499 281.65C545.866 279.717 546.966 277.817 547.799 275.95C548.633 274.05 549.049 272.167 549.049 270.3C549.049 268.133 548.566 266.55 547.599 265.55C546.633 264.55 545.316 264.05 543.649 264.05C542.049 264.05 540.699 264.467 539.599 265.3C538.533 266.133 537.816 267.3 537.449 268.8C537.449 268.833 537.383 268.85 537.249 268.85C536.983 268.85 536.866 268.783 536.899 268.65C537.299 266.35 538.299 264.533 539.899 263.2C541.533 261.867 543.549 261.2 545.949 261.2C548.416 261.2 550.333 261.9 551.699 263.3C553.066 264.7 553.749 266.55 553.749 268.85C553.749 270.683 553.316 272.483 552.449 274.25C551.583 276.017 550.549 277.633 549.349 279.1C548.183 280.567 546.649 282.317 544.749 284.35C544.583 284.517 544.049 285.083 543.149 286.05C542.283 286.983 541.566 287.833 540.999 288.6C540.799 288.833 540.866 288.95 541.199 288.95C544.999 288.95 547.749 288.867 549.449 288.7C551.183 288.533 552.366 288.217 552.999 287.75C553.666 287.25 554.016 286.467 554.049 285.4C554.049 285.333 554.133 285.3 554.299 285.3C554.499 285.3 554.599 285.333 554.599 285.4V292.45C554.599 292.583 554.549 292.717 554.449 292.85C554.383 292.95 554.283 293 554.149 293H537.099ZM565.715 291.85C565.582 292.283 565.432 292.583 565.265 292.75C565.132 292.917 564.915 293 564.615 293H561.015C560.815 293 560.648 292.933 560.515 292.8C560.382 292.667 560.365 292.5 560.465 292.3L572.165 266.3C572.332 266.067 572.265 265.95 571.965 265.95C567.032 265.95 563.648 266.017 561.815 266.15C560.015 266.283 558.865 266.55 558.365 266.95C557.865 267.35 557.432 268.15 557.065 269.35C557.065 269.45 556.982 269.5 556.815 269.5C556.748 269.5 556.665 269.483 556.565 269.45C556.498 269.383 556.482 269.317 556.515 269.25L558.515 260.45C558.548 260.35 558.665 260.317 558.865 260.35C559.065 260.35 559.148 260.4 559.115 260.5C559.082 260.633 559.065 260.8 559.065 261C559.065 261.3 559.215 261.5 559.515 261.6C559.848 261.7 560.498 261.75 561.465 261.75H574.715C574.848 261.75 574.965 261.833 575.065 262C575.198 262.167 575.232 262.3 575.165 262.4L565.715 291.85Z" fill="#3D2A23"></path><path d="M657.582 39.85C657.449 40.2833 657.299 40.5833 657.132 40.75C656.999 40.9167 656.782 41 656.482 41H652.882C652.682 41 652.516 40.9333 652.382 40.8C652.249 40.6667 652.232 40.5 652.332 40.3L664.032 14.3C664.199 14.0667 664.132 13.95 663.832 13.95C658.899 13.95 655.516 14.0167 653.682 14.15C651.882 14.2833 650.732 14.55 650.232 14.95C649.732 15.35 649.299 16.15 648.932 17.35C648.932 17.45 648.849 17.5 648.682 17.5C648.616 17.5 648.532 17.4833 648.432 17.45C648.366 17.3833 648.349 17.3167 648.382 17.25L650.382 8.45C650.416 8.35 650.532 8.31666 650.732 8.35C650.932 8.35 651.016 8.4 650.982 8.5C650.949 8.63333 650.932 8.8 650.932 9C650.932 9.3 651.082 9.5 651.382 9.6C651.716 9.7 652.366 9.75 653.332 9.75H666.582C666.716 9.75 666.832 9.83333 666.932 10C667.066 10.1667 667.099 10.3 667.032 10.4L657.582 39.85Z" fill="#3D2A23"></path><path d="M640.042 125C639.976 125 639.942 124.9 639.942 124.7C639.942 124.5 639.976 124.4 640.042 124.4C641.509 124.4 642.609 124.317 643.342 124.15C644.109 123.95 644.659 123.617 644.992 123.15C645.326 122.65 645.492 121.917 645.492 120.95V102.35C645.492 100.083 644.959 98.95 643.892 98.95C643.092 98.95 641.809 99.5833 640.042 100.85L639.942 100.9C639.809 100.9 639.709 100.833 639.642 100.7C639.576 100.533 639.576 100.417 639.642 100.35L649.292 93.4C649.426 93.3333 649.542 93.3 649.642 93.3C649.709 93.3 649.776 93.3333 649.842 93.4C649.909 93.4667 649.942 93.5333 649.942 93.6V120.95C649.942 121.95 650.092 122.683 650.392 123.15C650.692 123.617 651.209 123.95 651.942 124.15C652.709 124.317 653.842 124.4 655.342 124.4C655.442 124.4 655.492 124.5 655.492 124.7C655.492 124.9 655.442 125 655.342 125C654.009 125 652.959 124.983 652.192 124.95L647.692 124.9L643.342 124.95C642.542 124.983 641.442 125 640.042 125ZM675.874 114.05C676.007 114.05 676.074 114.4 676.074 115.1C676.074 115.8 676.007 116.15 675.874 116.15L672.474 116V120.95C672.474 121.95 672.54 122.7 672.674 123.2C672.84 123.667 673.14 123.983 673.574 124.15C674.04 124.317 674.757 124.4 675.724 124.4C675.79 124.4 675.824 124.5 675.824 124.7C675.824 124.9 675.79 125 675.724 125C674.757 125 674.007 124.983 673.474 124.95L670.174 124.9L666.274 124.95C665.607 124.983 664.674 125 663.474 125C663.407 125 663.374 124.9 663.374 124.7C663.374 124.5 663.407 124.4 663.474 124.4C664.907 124.4 665.907 124.333 666.474 124.2C667.074 124.033 667.474 123.733 667.674 123.3C667.874 122.833 667.974 122.05 667.974 120.95V115.9C663.64 115.833 659.674 115.8 656.074 115.8C655.907 115.8 655.774 115.75 655.674 115.65C655.607 115.517 655.624 115.383 655.724 115.25L671.724 93.5C671.79 93.4333 671.89 93.4 672.024 93.4C672.124 93.4 672.224 93.4333 672.324 93.5C672.424 93.5333 672.474 93.6 672.474 93.7V114.15C673.14 114.15 674.274 114.117 675.874 114.05ZM658.824 114.35C663.19 114.35 666.24 114.333 667.974 114.3V100.85L658.574 114C658.374 114.233 658.457 114.35 658.824 114.35Z" fill="#3D2A23"></path><path d="M640.052 209C639.885 209 639.718 208.85 639.552 208.55C639.385 208.217 639.368 207.983 639.502 207.85L641.052 205.95C643.952 202.317 646.085 199.55 647.452 197.65C648.818 195.717 649.918 193.817 650.752 191.95C651.585 190.05 652.002 188.167 652.002 186.3C652.002 184.133 651.518 182.55 650.552 181.55C649.585 180.55 648.268 180.05 646.602 180.05C645.002 180.05 643.652 180.467 642.552 181.3C641.485 182.133 640.768 183.3 640.402 184.8C640.402 184.833 640.335 184.85 640.202 184.85C639.935 184.85 639.818 184.783 639.852 184.65C640.252 182.35 641.252 180.533 642.852 179.2C644.485 177.867 646.502 177.2 648.902 177.2C651.368 177.2 653.285 177.9 654.652 179.3C656.018 180.7 656.702 182.55 656.702 184.85C656.702 186.683 656.268 188.483 655.402 190.25C654.535 192.017 653.502 193.633 652.302 195.1C651.135 196.567 649.602 198.317 647.702 200.35C647.535 200.517 647.002 201.083 646.102 202.05C645.235 202.983 644.518 203.833 643.952 204.6C643.752 204.833 643.818 204.95 644.152 204.95C647.952 204.95 650.702 204.867 652.402 204.7C654.135 204.533 655.318 204.217 655.952 203.75C656.618 203.25 656.968 202.467 657.002 201.4C657.002 201.333 657.085 201.3 657.252 201.3C657.452 201.3 657.552 201.333 657.552 201.4V208.45C657.552 208.583 657.502 208.717 657.402 208.85C657.335 208.95 657.235 209 657.102 209H640.052ZM660.967 209C660.901 209 660.867 208.9 660.867 208.7C660.867 208.5 660.901 208.4 660.967 208.4C662.434 208.4 663.534 208.317 664.267 208.15C665.034 207.95 665.584 207.617 665.917 207.15C666.251 206.65 666.417 205.917 666.417 204.95V186.35C666.417 184.083 665.884 182.95 664.817 182.95C664.017 182.95 662.734 183.583 660.967 184.85L660.867 184.9C660.734 184.9 660.634 184.833 660.567 184.7C660.501 184.533 660.501 184.417 660.567 184.35L670.217 177.4C670.351 177.333 670.467 177.3 670.567 177.3C670.634 177.3 670.701 177.333 670.767 177.4C670.834 177.467 670.867 177.533 670.867 177.6V204.95C670.867 205.95 671.017 206.683 671.317 207.15C671.617 207.617 672.134 207.95 672.867 208.15C673.634 208.317 674.767 208.4 676.267 208.4C676.367 208.4 676.417 208.5 676.417 208.7C676.417 208.9 676.367 209 676.267 209C674.934 209 673.884 208.983 673.117 208.95L668.617 208.9L664.267 208.95C663.467 208.983 662.367 209 660.967 209Z" fill="#3D2A23"></path><path d="M637.488 293C637.321 293 637.155 292.85 636.988 292.55C636.821 292.217 636.805 291.983 636.938 291.85L638.488 289.95C641.388 286.317 643.521 283.55 644.888 281.65C646.255 279.717 647.355 277.817 648.188 275.95C649.021 274.05 649.438 272.167 649.438 270.3C649.438 268.133 648.955 266.55 647.988 265.55C647.021 264.55 645.705 264.05 644.038 264.05C642.438 264.05 641.088 264.467 639.988 265.3C638.921 266.133 638.205 267.3 637.838 268.8C637.838 268.833 637.771 268.85 637.638 268.85C637.371 268.85 637.255 268.783 637.288 268.65C637.688 266.35 638.688 264.533 640.288 263.2C641.921 261.867 643.938 261.2 646.338 261.2C648.805 261.2 650.721 261.9 652.088 263.3C653.455 264.7 654.138 266.55 654.138 268.85C654.138 270.683 653.705 272.483 652.838 274.25C651.971 276.017 650.938 277.633 649.738 279.1C648.571 280.567 647.038 282.317 645.138 284.35C644.971 284.517 644.438 285.083 643.538 286.05C642.671 286.983 641.955 287.833 641.388 288.6C641.188 288.833 641.255 288.95 641.588 288.95C645.388 288.95 648.138 288.867 649.838 288.7C651.571 288.533 652.755 288.217 653.388 287.75C654.055 287.25 654.405 286.467 654.438 285.4C654.438 285.333 654.521 285.3 654.688 285.3C654.888 285.3 654.988 285.333 654.988 285.4V292.45C654.988 292.583 654.938 292.717 654.838 292.85C654.771 292.95 654.671 293 654.538 293H637.488ZM671.854 274.95C674.02 276.317 675.704 277.733 676.904 279.2C678.104 280.633 678.704 282.5 678.704 284.8C678.704 286.533 678.237 288.083 677.304 289.45C676.37 290.783 675.087 291.817 673.454 292.55C671.854 293.283 670.07 293.65 668.104 293.65C666.004 293.65 664.17 293.267 662.604 292.5C661.037 291.7 659.837 290.633 659.004 289.3C658.204 287.933 657.804 286.45 657.804 284.85C657.804 282.783 658.42 280.95 659.654 279.35C660.887 277.75 662.47 276.45 664.404 275.45C663.17 274.55 662.204 273.55 661.504 272.45C660.837 271.317 660.504 269.983 660.504 268.45C660.504 266.85 660.887 265.517 661.654 264.45C662.42 263.35 663.42 262.533 664.654 262C665.92 261.467 667.254 261.2 668.654 261.2C670.854 261.2 672.654 261.8 674.054 263C675.487 264.167 676.204 265.683 676.204 267.55C676.204 268.95 675.804 270.283 675.004 271.55C674.237 272.783 673.187 273.917 671.854 274.95ZM667.804 262.2C666.67 262.2 665.804 262.567 665.204 263.3C664.637 264.033 664.354 264.983 664.354 266.15C664.354 267.917 664.87 269.383 665.904 270.55C666.97 271.717 668.554 272.933 670.654 274.2C671.52 272.5 671.954 270.483 671.954 268.15C671.954 266.15 671.587 264.667 670.854 263.7C670.154 262.7 669.137 262.2 667.804 262.2ZM669.304 292.6C670.937 292.6 672.187 292.067 673.054 291C673.92 289.9 674.354 288.45 674.354 286.65C674.354 285.083 674.02 283.75 673.354 282.65C672.72 281.517 671.937 280.583 671.004 279.85C670.07 279.117 668.787 278.25 667.154 277.25C666.354 276.783 665.77 276.417 665.404 276.15C663.637 277.917 662.754 280.433 662.754 283.7C662.754 286.4 663.337 288.567 664.504 290.2C665.704 291.8 667.304 292.6 669.304 292.6Z" fill="#3D2A23"></path></svg> 