<?xml version="1.0" encoding="UTF-8"?> <svg xmlns="http://www.w3.org/2000/svg" width="362" height="362" viewBox="0 0 362 362" fill="none"><path d="M314.783 183.402L340.921 185.828L339.849 197.379C339.575 200.333 338.795 202.603 337.509 204.191C336.22 205.813 334.481 206.522 332.29 206.318C330.166 206.121 328.599 205.155 327.588 203.421C326.61 201.69 326.245 199.497 326.491 196.842L327.472 197.636C327.182 200.756 326.389 202.992 325.092 204.345C323.795 205.697 322.051 206.272 319.86 206.068C317.603 205.859 315.921 204.866 314.814 203.089C313.737 201.349 313.358 198.753 313.679 195.301L314.783 183.402ZM317.252 187.096L316.481 195.41C316.274 197.634 316.467 199.343 317.059 200.536C317.682 201.765 318.79 202.454 320.383 202.602C321.976 202.75 323.185 202.343 324.011 201.382C324.837 200.421 325.353 198.828 325.559 196.605L326.363 187.942L317.252 187.096ZM329.002 188.187L328.272 196.053C328.084 198.078 328.322 199.656 328.987 200.789C329.649 201.955 330.71 202.606 332.17 202.742C333.631 202.877 334.777 202.431 335.609 201.404C336.437 200.41 336.946 198.9 337.134 196.875L337.864 189.009L329.002 188.187Z" fill="#272727"></path><path d="M306.34 227.898L321.843 221.167L322.697 224.489L305.165 231.931L306.34 227.898ZM311.726 209.417L336.928 216.762L335.934 220.17L310.733 212.826L311.726 209.417ZM322.273 215.043L325.201 215.897L322.837 224.009L319.909 223.156L322.273 215.043ZM320.693 224.217L322.097 221.189L331.653 234.859L330.576 238.555L320.693 224.217Z" fill="#272727"></path><path d="M306.563 228.961L309.15 230.596C309.012 230.788 308.867 230.956 308.715 231.103C308.578 231.294 308.47 231.464 308.393 231.611C307.899 232.556 307.859 233.495 308.274 234.427C308.674 235.389 309.388 236.326 310.415 237.239C311.442 238.153 312.663 239.055 314.078 239.945C315.522 240.851 316.975 241.743 318.435 242.619L326.511 247.351L317.589 264.409L294.329 252.243L295.974 249.097L317.418 260.313L316.071 260.624L322.698 247.953L323.279 249.216L316.73 245.339C314.768 244.2 312.933 243.033 311.225 241.839C309.502 240.674 308.07 239.493 306.929 238.294C305.773 237.125 305.004 235.933 304.624 234.718C304.273 233.519 304.422 232.299 305.071 231.059C305.256 230.704 305.479 230.35 305.739 229.997C305.983 229.674 306.258 229.328 306.563 228.961Z" fill="#272727"></path><path d="M292.385 256.23L312.183 273.467L309.852 276.144L301.329 268.724L296.076 274.758L293.625 272.624L298.878 266.59L290.054 258.907L292.385 256.23ZM277.356 273.111C278.998 271.225 280.903 269.901 283.071 269.136C285.242 268.419 287.454 268.29 289.707 268.748C291.984 269.229 294.104 270.322 296.065 272.03C298.051 273.759 299.426 275.707 300.19 277.875C300.954 280.043 301.118 282.241 300.682 284.469C300.223 286.721 299.173 288.79 297.532 290.676C295.89 292.561 293.996 293.874 291.85 294.613C289.704 295.352 287.504 295.492 285.252 295.034C282.999 294.575 280.88 293.481 278.894 291.752C276.933 290.045 275.558 288.097 274.768 285.907C274.004 283.739 273.828 281.53 274.239 279.281C274.676 277.053 275.715 274.997 277.356 273.111ZM279.694 275.147C278.491 276.529 277.745 278.046 277.457 279.696C277.17 281.346 277.331 282.989 277.94 284.624C278.574 286.281 279.658 287.777 281.192 289.113C282.751 290.47 284.382 291.337 286.086 291.716C287.789 292.094 289.426 292.016 290.996 291.482C292.59 290.97 293.99 290.023 295.193 288.64C296.375 287.283 297.121 285.766 297.431 284.091C297.743 282.463 297.595 280.831 296.986 279.196C296.376 277.56 295.292 276.064 293.734 274.707C292.2 273.372 290.569 272.504 288.84 272.104C287.136 271.726 285.487 271.793 283.892 272.305C282.276 272.842 280.876 273.789 279.694 275.147Z" fill="#272727"></path><path d="M259.726 302.397C260.579 300.959 261.523 299.62 262.559 298.378C263.588 297.184 264.724 296.137 265.967 295.24C268.481 293.426 270.877 292.559 273.156 292.641C275.454 292.75 277.472 294.007 279.208 296.412L284.242 303.385L281.404 305.434L276.487 298.623C275.317 297.001 273.912 296.165 272.272 296.115C270.633 296.065 268.921 296.684 267.138 297.972C266.056 298.752 265.019 299.707 264.025 300.835C263.05 301.991 262.15 303.278 261.324 304.697L259.726 302.397ZM253.472 293.222L268.836 314.506L265.958 316.583L250.594 295.299L253.472 293.222Z" fill="#272727"></path><path d="M246.255 298.009L256.93 321.99L253.686 323.434L245.207 304.386L237.653 330.571L234.775 331.852L224.1 307.87L227.344 306.427L235.843 325.521L243.331 299.31L246.255 298.009Z" fill="#272727"></path><path d="M213.59 310.397L219.184 333.839L218.088 333.123L228.642 330.605L229.361 333.62L206.552 339.063L205.832 336.048L216.386 333.53L215.731 334.662L210.137 311.221L213.59 310.397Z" fill="#272727"></path><path d="M188.358 313.947C191.086 313.778 193.517 314.196 195.649 315.199C197.784 316.236 199.495 317.717 200.783 319.641C202.073 321.599 202.798 323.875 202.959 326.47C203.119 329.065 202.712 331.395 201.738 333.459C200.73 335.525 199.296 337.183 197.436 338.433C195.545 339.719 193.385 340.437 190.957 340.587C188.495 340.739 186.281 340.309 184.314 339.295C182.317 338.316 180.706 336.846 179.483 334.884C178.262 332.956 177.57 330.678 177.407 328.049C177.397 327.883 177.403 327.699 177.423 327.497C177.413 327.331 177.402 327.148 177.39 326.948L200.196 325.539L200.359 328.184L179.449 329.476L180.782 328.342C180.899 330.238 181.419 331.892 182.341 333.305C183.232 334.753 184.402 335.849 185.851 336.595C187.299 337.34 188.939 337.656 190.769 337.543C192.565 337.432 194.153 336.916 195.532 335.996C196.911 335.076 197.954 333.843 198.66 332.296C199.366 330.75 199.659 329.012 199.54 327.082L199.506 326.533C199.383 324.537 198.841 322.8 197.882 321.323C196.891 319.882 195.587 318.777 193.97 318.008C192.321 317.275 190.482 316.972 188.453 317.097C186.856 317.196 185.393 317.57 184.064 318.22C182.701 318.872 181.557 319.811 180.631 321.037L178.493 318.865C179.571 317.395 180.969 316.24 182.687 315.399C184.372 314.561 186.262 314.076 188.358 313.947Z" fill="#272727"></path><path d="M162.799 313.938L156.512 339.424L153.016 338.562L146.289 316.148L147.745 316.508L131.171 333.173L127.967 332.383L134.254 306.897L137.41 307.675L132.093 329.229L131.533 328.782L146.983 313.333L148.537 313.716L155.078 334.796L154.314 334.762L159.643 313.16L162.799 313.938Z" fill="#272727"></path><path d="M133.973 295.467C135.081 296.01 136.055 296.711 136.896 297.569C137.708 298.413 138.297 299.37 138.663 300.44L136.014 302.093C135.695 301.231 135.264 300.481 134.722 299.844C134.166 299.163 133.453 298.609 132.585 298.183C131.538 297.67 130.493 297.529 129.452 297.76C128.395 297.947 127.162 298.605 125.755 299.734L122.533 302.442L121.932 302.76L101.513 319.866L98.3705 318.325L123.123 297.719C124.53 296.516 125.858 295.663 127.106 295.162C128.325 294.646 129.486 294.436 130.59 294.531C131.708 294.597 132.836 294.909 133.973 295.467ZM123.637 300.645L122.612 330.214L119.29 328.585L120.295 302.236L123.637 300.645Z" fill="#272727"></path><path d="M103.636 289.326C105.172 290.443 106.538 291.767 107.734 293.296C108.93 294.826 109.784 296.457 110.296 298.189L107.807 299.656C107.332 298.156 106.567 296.714 105.514 295.329C104.44 293.971 103.243 292.812 101.922 291.851C100.582 290.917 99.2991 290.272 98.0738 289.917C96.8485 289.561 95.7407 289.498 94.7506 289.725C93.7605 289.953 92.9812 290.458 92.4125 291.24C91.589 292.372 91.4639 293.621 92.0372 294.986C92.5909 296.378 93.7573 297.721 95.5364 299.015L99.1755 301.662L97.646 303.765L94.2091 301.265C93.1579 300.5 92.1298 299.958 91.1251 299.639C90.1203 299.321 89.216 299.261 88.4122 299.459C87.5813 299.638 86.911 300.078 86.4012 300.779C85.8522 301.533 85.6511 302.376 85.7981 303.308C85.9181 304.219 86.3383 305.143 87.0587 306.08C87.7791 307.016 88.7189 307.905 89.878 308.749C90.9489 309.486 92.1583 310.119 93.5061 310.646C94.8343 311.2 96.257 311.596 97.7739 311.834L96.9649 314.646C95.2543 314.391 93.6749 313.984 92.2266 313.425C90.7317 312.873 89.3643 312.147 88.1243 311.245C86.3868 310.063 85.0109 308.753 83.9964 307.314C82.955 305.856 82.3437 304.402 82.1625 302.951C81.9617 301.527 82.2926 300.222 83.1554 299.036C83.9201 297.985 84.9103 297.303 86.1259 296.992C87.3415 296.681 88.6452 296.702 90.0372 297.055C91.4292 297.408 92.8125 298.085 94.1873 299.085L93.5072 299.765C91.0811 298 89.5373 296.156 88.8758 294.232C88.1874 292.288 88.4314 290.508 89.6079 288.89C90.5295 287.624 91.761 286.809 93.3026 286.446C94.8245 286.111 96.4959 286.193 98.3167 286.693C100.111 287.174 101.884 288.051 103.636 289.326Z" fill="#272727"></path><path d="M74.3891 261.992L54.9076 279.586L52.5283 276.951L72.0097 259.357L74.3891 261.992ZM71.5244 284.184C69.3374 281.713 68.1949 279.354 68.0969 277.107C67.9989 274.859 68.9518 272.831 70.9556 271.022C73.0336 269.145 75.2548 268.397 77.6191 268.777C79.9835 269.157 82.315 270.644 84.6137 273.239L91.547 280.991L72.0656 298.585L69.6863 295.95L76.4769 289.817L71.5244 284.184ZM82.7775 275.234C81.149 273.381 79.5503 272.332 77.9816 272.087C76.3657 271.84 74.828 272.375 73.3684 273.693C71.9089 275.011 71.2584 276.43 71.4171 277.948C71.5511 279.489 72.4435 281.198 74.0943 283.076L78.4436 288.041L87.1268 280.2L82.7775 275.234Z" fill="#272727"></path><path d="M59.9371 238.008L53.9453 253.811L50.969 252.106L57.8679 234.353L59.9371 238.008ZM69.4212 254.759L46.5781 267.692L44.8291 264.603L67.6722 251.67L69.4212 254.759ZM58.0326 258.391L55.3785 259.894L51.2154 252.541L53.8695 251.038L58.0326 258.391ZM52.5617 250.859L53.7524 253.977L37.2911 251.288L35.3943 247.938L52.5617 250.859Z" fill="#272727"></path><path d="M66.9969 229.244C67.3997 230.409 67.597 231.593 67.5891 232.795C67.5702 233.965 67.3133 235.059 66.8184 236.076L63.7749 235.382C64.1558 234.545 64.3786 233.71 64.4433 232.877C64.5286 232.001 64.4135 231.106 64.0978 230.192C63.7168 229.09 63.0752 228.253 62.1729 227.683C61.2913 227.071 59.9534 226.669 58.1593 226.478L53.9652 226.128L53.3147 225.93L26.7728 223.674L25.6299 220.365L57.7123 223.194C59.5586 223.332 61.1013 223.663 62.3404 224.187C63.5686 224.68 64.5404 225.349 65.2559 226.195C66.0029 227.03 66.5833 228.046 66.9969 229.244ZM56.0154 225.632L34.4469 245.885L33.2386 242.388L52.5233 224.405L56.0154 225.632Z" fill="#272727"></path><path d="M47.2169 178.095L21.0888 175.568L22.2052 164.022C22.4908 161.069 23.2794 158.801 24.5711 157.218C25.866 155.602 27.6083 154.9 29.7981 155.112C31.9216 155.317 33.4853 156.289 34.4893 158.027C35.4602 159.761 35.8173 161.956 35.5606 164.61L34.5829 163.813C34.8845 160.694 35.6865 158.461 36.9889 157.113C38.2913 155.765 40.0374 155.197 42.2272 155.409C44.4833 155.627 46.1616 156.627 47.262 158.408C48.3324 160.152 48.7007 162.75 48.3671 166.2L47.2169 178.095ZM44.7619 174.391L45.5656 166.08C45.7806 163.857 45.5942 162.148 45.0066 160.952C44.3889 159.721 43.2838 159.028 41.6912 158.874C40.0987 158.72 38.8877 159.122 38.0583 160.08C37.2289 161.038 36.7067 162.628 36.4918 164.851L35.6544 173.511L44.7619 174.391ZM33.0167 173.256L33.7771 165.392C33.9728 163.368 33.7404 161.789 33.08 160.653C32.4228 159.484 31.3642 158.83 29.9044 158.688C28.4445 158.547 27.2967 158.989 26.4609 160.013C25.6283 161.004 25.1141 162.512 24.9184 164.536L24.158 172.399L33.0167 173.256Z" fill="#272727"></path><path d="M55.7574 133.828L40.2294 140.501L39.3873 137.176L56.9478 129.8L55.7574 133.828ZM50.3014 152.289L25.1278 144.849L26.134 141.444L51.3075 148.884L50.3014 152.289ZM39.7755 146.623L36.8506 145.759L39.2456 137.655L42.1705 138.52L39.7755 146.623ZM41.3903 137.455L39.9755 140.478L30.4705 126.772L31.5617 123.08L41.3903 137.455Z" fill="#272727"></path><path d="M55.3208 133.19L52.7341 131.555C52.8718 131.363 53.0165 131.195 53.1683 131.048C53.3059 130.857 53.4134 130.688 53.4907 130.54C53.985 129.595 54.0245 128.656 53.6092 127.724C53.2093 126.763 52.4959 125.825 51.4689 124.912C50.4419 123.998 49.2209 123.096 47.8058 122.206C46.3613 121.3 44.9089 120.408 43.4489 119.532L35.3724 114.8L44.2944 97.7421L67.5547 109.908L65.9093 113.054L44.4656 101.838L45.8131 101.527L39.1853 114.198L38.6046 112.935L45.1536 116.812C47.1157 117.951 48.9507 119.118 50.6584 120.312C52.3815 121.477 53.8136 122.659 54.9546 123.857C56.1111 125.026 56.8796 126.218 57.2599 127.433C57.6107 128.632 57.4617 129.852 56.8128 131.093C56.6275 131.447 56.4048 131.801 56.1449 132.154C55.9004 132.477 55.6257 132.823 55.3208 133.19Z" fill="#272727"></path><path d="M69.553 105.68L49.8178 88.3711L52.1585 85.7021L60.6541 93.153L65.9291 87.1385L68.3725 89.2814L63.0975 95.296L71.8938 103.011L69.553 105.68ZM84.6427 88.8533C82.9943 90.7328 81.0847 92.0508 78.9139 92.8071C76.74 93.5164 74.5276 93.6378 72.2767 93.1711C70.0007 92.6824 67.8854 91.5809 65.9306 89.8666C63.9508 88.1302 62.5828 86.1766 61.8264 84.0058C61.0701 81.835 60.9142 79.6367 61.3589 77.4108C61.8256 75.1599 62.8832 73.0947 64.5316 71.2151C66.18 69.3356 68.0786 68.0302 70.2275 67.2989C72.3763 66.5676 74.5761 66.4353 76.8271 66.902C79.078 67.3686 81.1933 68.4701 83.1731 70.2065C85.1279 71.9208 86.4959 73.8744 87.2774 76.0672C88.0337 78.238 88.2021 80.4473 87.7824 82.6952C87.3377 84.921 86.2912 86.9737 84.6427 88.8533ZM82.3121 86.8092C83.5209 85.4309 84.2721 83.9172 84.5656 82.2681C84.8592 80.6191 84.7043 78.9758 84.101 77.3382C83.4726 75.6787 82.394 74.1786 80.8653 72.8379C79.3116 71.4752 77.6836 70.6015 75.9813 70.217C74.279 69.8325 72.6421 69.9043 71.0705 70.4325C69.4738 70.9386 68.0711 71.8809 66.8622 73.2592C65.6754 74.6125 64.9242 76.1262 64.6087 77.8003C64.2901 79.4274 64.4325 81.0597 65.0358 82.6972C65.6391 84.3348 66.7176 85.8349 68.2714 87.1976C69.8001 88.5383 71.4281 89.4119 73.1554 89.8184C74.8577 90.2029 76.5072 90.1421 78.1038 89.636C79.7225 89.1047 81.1252 88.1625 82.3121 86.8092Z" fill="#272727"></path><path d="M102.049 59.724C101.191 61.1589 100.241 62.495 99.2006 63.7325C98.1676 64.9235 97.0278 65.9654 95.7813 66.8583C93.2611 68.6636 90.8617 69.5212 88.5831 69.4312C86.2852 69.3142 84.2724 68.0498 82.5448 65.638L77.5368 58.6466L80.3822 56.6084L85.2737 63.4373C86.4384 65.0632 87.8403 65.9041 89.4794 65.96C91.1186 66.016 92.8324 65.4034 94.6209 64.1223C95.7049 63.3458 96.746 62.3951 97.7442 61.27C98.723 60.1179 99.628 58.834 100.459 57.4186L102.049 59.724ZM108.269 68.9225L92.983 47.5824L95.869 45.5151L111.155 66.8552L108.269 68.9225Z" fill="#272727"></path><path d="M116.115 63.7093L105.53 39.6882L108.778 38.2567L117.186 57.3363L124.838 31.1796L127.721 29.9093L138.306 53.9304L135.057 55.3619L126.629 36.2366L119.043 62.4189L116.115 63.7093Z" fill="#272727"></path><path d="M148.504 51.5049L142.999 28.0419L144.092 28.7613L133.529 31.2394L132.821 28.2214L155.651 22.8653L156.359 25.8834L145.796 28.3616L146.455 27.2311L151.96 50.6941L148.504 51.5049Z" fill="#272727"></path><path d="M173.926 47.9709C171.197 48.129 168.768 47.7021 166.64 46.6902C164.509 45.6451 162.803 44.1579 161.523 42.2287C160.241 40.2663 159.524 37.9872 159.374 35.3916C159.223 32.7959 159.64 30.468 160.622 28.4077C161.638 26.3455 163.078 24.6927 164.942 23.4495C166.838 22.171 169.001 21.4614 171.43 21.3206C173.893 21.178 176.105 21.6174 178.068 22.6389C180.061 23.6252 181.666 25.1016 182.882 27.0679C184.096 29.0009 184.779 31.2818 184.931 33.9108C184.941 34.0772 184.935 34.2611 184.913 34.4627C184.923 34.6291 184.933 34.8122 184.945 35.0118L162.133 36.3336L161.98 33.688L182.895 32.4762L181.558 33.6054C181.448 31.7086 180.934 30.0522 180.018 28.6361C179.132 27.1849 177.967 26.0838 176.521 25.3329C175.075 24.5819 173.437 24.2595 171.607 24.3655C169.81 24.4697 168.22 24.9791 166.837 25.894C165.454 26.8088 164.407 28.0381 163.695 29.5819C162.983 31.1257 162.683 32.8626 162.795 34.7927L162.827 35.3418C162.942 37.3384 163.477 39.0771 164.431 40.5577C165.416 42.0031 166.716 43.1131 168.33 43.8877C169.976 44.6271 171.814 44.938 173.844 44.8204C175.441 44.7278 176.905 44.3592 178.237 43.7144C179.602 43.0677 180.75 42.1331 181.68 40.9105L183.81 43.091C182.726 44.5561 181.324 45.7058 179.603 46.5401C177.915 47.3725 176.022 47.8494 173.926 47.9709Z" fill="#272727"></path><path d="M198.971 47.8777L205.355 22.4157L208.847 23.2912L215.49 45.7302L214.035 45.3655L230.672 28.763L233.873 29.5655L227.489 55.0274L224.336 54.2371L229.735 32.7035L230.293 33.1526L214.784 48.5432L213.232 48.1541L206.771 27.0491L207.535 27.086L202.124 48.6681L198.971 47.8777Z" fill="#272727"></path><path d="M227.854 66.344C226.749 65.7968 225.777 65.0926 224.939 64.2313C224.13 63.3847 223.545 62.4255 223.183 61.3536L225.838 59.7108C226.154 60.5742 226.582 61.3253 227.121 61.9642C227.675 62.6477 228.386 63.2039 229.252 63.6328C230.297 64.1504 231.342 64.2954 232.384 64.0676C233.442 63.8846 234.677 63.2312 236.088 62.1076L239.32 59.4115L239.922 59.0961L260.405 42.0655L263.541 43.6184L238.712 64.132C237.301 65.3302 235.97 66.1777 234.72 66.6746C233.5 67.1863 232.338 67.3921 231.234 67.2921C230.116 67.222 228.989 66.906 227.854 66.344ZM238.209 61.2048L239.344 31.6392L242.66 33.2808L241.557 59.6263L238.209 61.2048Z" fill="#272727"></path><path d="M258.469 72.6782C256.937 71.5549 255.576 70.2264 254.385 68.6927C253.195 67.159 252.347 65.5249 251.842 63.7903L254.336 62.3329C254.806 63.8345 255.565 65.2796 256.613 66.6682C257.682 68.0299 258.875 69.1936 260.192 70.1592C261.529 71.0979 262.809 71.7473 264.033 72.1072C265.257 72.4672 266.365 72.535 267.356 72.3108C268.347 72.0866 269.128 71.5847 269.699 70.8051C270.527 69.6759 270.657 68.4278 270.088 67.0606C269.54 65.6665 268.378 64.3191 266.604 63.0185L262.975 60.3581L264.512 58.2611L267.939 60.7737C268.988 61.5423 270.014 62.0878 271.018 62.4101C272.021 62.7325 272.925 62.7959 273.73 62.6004C274.561 62.4246 275.233 61.9872 275.746 61.2882C276.297 60.5355 276.501 59.6932 276.358 58.7614C276.241 57.8493 275.824 56.9238 275.107 55.9849C274.39 55.046 273.454 54.1529 272.298 53.3055C271.23 52.5639 270.023 51.927 268.677 51.3951C267.351 50.8363 265.929 50.4351 264.413 50.1917L265.233 47.3826C266.942 47.6439 268.52 48.0566 269.966 48.6208C271.459 49.1778 272.824 49.9096 274.061 50.8161C275.794 52.0038 277.165 53.3189 278.174 54.7612C279.21 56.2233 279.816 57.6801 279.992 59.1316C280.188 60.5562 279.852 61.8599 278.985 63.0429C278.216 64.0913 277.224 64.7689 276.007 65.0756C274.79 65.3823 273.487 65.3566 272.096 64.9985C270.705 64.6403 269.324 63.9588 267.953 62.9537L268.636 62.2762C271.056 64.0498 272.593 65.8997 273.247 67.826C273.928 69.772 273.678 71.5515 272.495 73.1646C271.569 74.4281 270.335 75.2384 268.792 75.5953C267.269 75.9253 265.598 75.837 263.779 75.3302C261.987 74.8431 260.217 73.9591 258.469 72.6782Z" fill="#272727"></path><path d="M287.592 99.9781L307.137 82.4554L309.507 85.0987L289.961 102.621L287.592 99.9781ZM290.537 77.7964C292.715 80.2758 293.849 82.6392 293.939 84.8866C294.029 87.134 293.068 89.1588 291.058 90.9612C288.973 92.8303 286.749 93.5705 284.386 93.1819C282.023 92.7933 279.697 91.2973 277.408 88.6938L270.503 80.9168L290.048 63.3941L292.418 66.0374L285.605 72.1453L290.537 77.7964ZM279.251 86.7053C280.873 88.5642 282.468 89.6191 284.036 89.8699C285.651 90.1232 287.191 89.5935 288.655 88.2807C290.119 86.9679 290.775 85.5519 290.622 84.0328C290.493 82.4915 289.607 80.7789 287.963 78.8952L283.632 73.9142L274.92 81.7244L279.251 86.7053Z" fill="#272727"></path><path d="M302.192 124.229L308.242 108.448L311.212 110.164L304.248 127.892L302.192 124.229ZM292.77 107.443L315.661 94.5945L317.398 97.6901L294.508 110.539L292.77 107.443ZM304.172 103.853L306.832 102.36L310.968 109.728L308.308 111.221L304.172 103.853ZM309.615 111.405L308.436 108.282L324.887 111.032L326.772 114.389L309.615 111.405Z" fill="#272727"></path><path d="M295.158 133.045C294.76 131.878 294.567 130.694 294.58 129.492C294.603 128.322 294.864 127.229 295.363 126.213L298.403 126.919C298.019 127.754 297.793 128.589 297.726 129.422C297.637 130.297 297.749 131.193 298.061 132.107C298.438 133.212 299.076 134.05 299.976 134.624C300.856 135.239 302.192 135.646 303.986 135.844L308.178 136.21L308.828 136.41L335.361 138.767L336.492 142.079L304.42 139.13C302.574 138.985 301.033 138.648 299.796 138.119C298.57 137.622 297.6 136.949 296.888 136.1C296.144 135.262 295.567 134.244 295.158 133.045ZM306.126 136.699L327.771 116.526L328.966 120.028L309.614 137.939L306.126 136.699Z" fill="#272727"></path></svg> 