<?xml version="1.0" encoding="UTF-8"?> <svg xmlns="http://www.w3.org/2000/svg" width="258" height="225" viewBox="0 0 258 225" fill="none"><path d="M122.057 2.33617C120.407 6.00432 119.765 13.0655 120.957 15.2664C121.691 16.642 121.599 17.8341 120.59 20.3101C119.857 22.0525 118.939 29.2054 118.481 37.0919C117.747 48.188 117.839 51.306 118.848 53.4152C119.581 54.8824 120.132 58.8257 120.132 62.127C120.132 67.9043 119.948 68.2712 117.381 69.7384C113.712 71.8476 112.153 75.2406 113.529 78.1752C115.363 82.2101 124.258 83.494 128.568 80.2843C129.394 79.6424 130.311 77.6249 130.678 75.7909C131.228 72.8563 131.044 72.3061 128.935 70.9306C127.009 69.6467 126.276 69.555 125.175 70.472C123.983 71.4808 123.8 70.5638 123.8 63.1357C123.8 56.8999 124.167 54.3322 125.084 53.5986C126.918 52.1313 125.359 48.4632 122.883 48.4632C121.049 48.4632 121.049 48.0963 121.232 35.1661C121.507 19.5765 123.341 16.9171 123.433 31.9565C123.433 37.2753 123.525 42.1356 123.616 42.6858C123.891 44.2448 126.092 44.1531 127.376 42.5941C128.11 41.7688 129.669 41.4937 132.512 41.8605C135.905 42.2273 136.638 42.0439 136.638 40.76C136.638 39.6596 135.721 39.2928 132.603 39.2928H128.568L127.926 29.3888C127.468 21.7774 126.826 18.5677 125.084 15.083C123.433 11.7817 123.158 10.7729 124.258 11.2314C128.293 12.6987 129.577 8.66373 126.918 2.9781C125.084 -0.781751 123.525 -0.965159 122.057 2.33617ZM120.132 72.3978C120.132 73.0398 120.957 73.2232 122.149 72.948C124.35 72.3061 126.551 73.6817 126.551 75.6075C126.551 76.4328 125.45 76.8913 123.525 76.8913C119.765 76.8913 116.83 74.9655 117.656 72.8563C118.298 71.2057 120.132 70.8389 120.132 72.3978ZM125.909 79.3673C125.267 79.5507 123.983 79.5507 123.158 79.3673C122.241 79.0922 122.791 78.9088 124.258 78.9088C125.817 78.9088 126.459 79.0922 125.909 79.3673Z" fill="#272727"></path><path d="M27.6028 9.12207C22.0089 11.323 10.6376 23.5195 6.51097 31.6812C3.75985 37.0917 0 52.5896 0 58.4587C0 63.1356 3.85156 75.9741 10.5459 93.8563L12.9302 100.184L12.2883 122.468C11.9215 134.756 11.8298 144.752 12.1049 144.752C12.5634 144.752 15.1311 131.088 16.0482 123.385C16.9652 116.324 18.0656 118.525 17.6988 126.595C17.332 134.756 14.1224 153.372 12.8385 155.756C12.2883 156.673 11.9215 155.114 11.9215 151.171L11.8298 145.21L9.17037 152.088C6.05245 160.25 5.68563 164.927 8.16163 167.128C12.1049 170.704 15.3145 165.66 16.6901 153.555C17.6071 144.844 21.0002 123.385 21.5504 122.926C21.9172 122.468 29.1618 126.228 29.6203 127.053C29.8954 127.512 29.5286 131.088 28.795 135.123C27.0526 145.761 27.1443 152.914 29.1618 156.215C30.2622 158.049 30.7208 160.158 30.4456 162.726C29.8954 168.503 32.0963 171.896 37.5985 173.822L42.092 175.381L41.5418 179.324C40.9916 183.634 42.4588 186.752 46.2187 189.32C47.5025 190.054 52.5462 191.246 57.4982 191.979C70.0617 193.63 71.5289 194.272 71.5289 198.582C71.5289 200.508 71.8957 202.525 72.2625 203.167C73.1796 204.726 80.9744 208.027 87.9439 209.77L93.7212 211.329L89.5029 214.814C86.3849 217.29 85.2845 218.849 85.4679 220.316C85.9264 223.25 90.7867 223.342 95.7387 220.499C99.682 218.207 109.127 208.669 109.127 207.019C109.127 205.46 107.935 206.193 102.8 210.595C95.5553 216.923 89.8697 220.866 88.1273 220.866C86.66 220.774 87.4854 219.949 96.564 212.338C98.4898 210.687 101.791 207.569 103.992 205.276C107.752 201.516 108.21 201.333 110.32 202.434C111.512 203.075 113.438 205.276 114.538 207.202C117.014 211.604 118.848 212.613 123.983 212.613C126.735 212.613 129.486 211.696 132.97 209.678C143.241 203.809 147.918 201.608 150.302 201.608C151.586 201.608 155.621 202.525 159.289 203.534C167.359 205.918 169.377 205.551 174.971 200.324C181.573 194.272 184.233 193.171 191.111 193.905C196.246 194.455 197.438 194.272 200.281 192.53C203.582 190.512 207.25 184.276 207.25 180.7C207.25 178.591 208.626 177.215 209.451 178.499C209.726 178.957 212.019 179.049 214.495 178.591C224.124 177.123 225.866 173.822 225.499 158.416C225.224 150.621 225.408 147.503 226.141 147.503C228.067 147.503 228.434 143.01 226.967 136.315C226.233 132.647 225.591 129.346 225.591 128.887C225.591 128.245 235.22 123.66 236.687 123.66C237.146 123.66 237.421 128.062 237.329 133.472C237.238 145.119 239.347 161.075 241.548 164.376C243.198 166.944 245.124 167.311 248.884 165.844C251.818 164.743 251.91 162.542 249.434 155.298C247.325 149.062 245.216 122.468 246.133 112.564C247.05 102.293 249.342 90.9218 252.094 82.8519C255.212 73.8649 258.146 51.6726 257.229 44.1529C256.22 35.8079 252.277 29.3886 242.923 21.1353C233.661 12.8819 231.919 12.1483 222.106 12.8819C214.312 13.4322 207.25 16.5501 203.124 21.0436C199.181 25.4453 193.036 37.5502 191.202 44.5197C190.469 47.3625 189.735 49.7468 189.643 49.9302C189.46 50.0219 186.892 49.38 183.866 48.463C163.141 42.2271 158.372 41.035 157.455 41.952C156.263 43.1442 157.089 43.4193 165.617 45.1616C169.285 45.987 174.604 47.6376 177.538 48.9215C180.565 50.297 185.425 52.3145 188.451 53.415C195.879 56.2578 200.189 58.8255 207.159 64.3277C215.045 70.6553 218.255 75.1488 218.255 80.1008C218.255 85.6947 212.661 96.2406 206.425 102.66C201.932 107.153 200.373 108.162 194.412 109.904C190.652 111.097 184.416 112.931 180.656 114.123C176.897 115.315 167.176 117.974 159.198 119.992C144.8 123.66 144.433 123.66 127.835 123.66C103.717 123.66 86.5683 120.817 70.6119 114.123C51.6292 106.236 43.2842 99.5419 41.3584 90.7384C38.0571 75.4239 42.7339 64.8779 55.6642 58.5504C59.0572 56.8997 64.2843 53.8735 67.2188 51.9477C74.0966 47.2708 81.0661 44.2446 86.4766 43.4193C90.695 42.7773 91.9789 41.5852 89.5946 40.5765C88.8609 40.3013 83.0836 42.0437 76.6643 44.3363C70.1534 46.6289 64.376 48.463 63.7341 48.463C62.9088 48.463 62.2668 46.6289 61.8083 43.3276C60.983 36.7249 53.555 21.3187 49.6117 17.9256C46.0353 14.9911 41.8169 14.0741 35.0308 14.8994C28.6116 15.633 24.76 18.2007 20.725 24.1615C7.06119 44.7948 5.96074 47.3625 6.60267 56.2578C6.96948 60.843 7.79482 63.2273 10.4542 67.4456C12.5634 70.8387 14.2141 75.1488 15.0394 79.1837C16.5067 86.3366 17.6071 113.573 16.5067 113.573C15.5896 113.573 14.856 109.538 13.297 95.7821C12.2883 86.4283 11.463 83.0353 8.80356 76.9828C4.76859 67.9042 2.3843 56.5329 2.93452 49.1049C3.30133 44.2446 4.03496 42.0437 8.80356 33.8821C17.5154 18.4758 25.9522 11.323 36.4064 10.1308C40.6248 9.764 41.2667 9.48889 39.4326 8.93867C36.1313 8.02163 30.1705 8.11333 27.6028 9.12207ZM226.05 17.2837C227.425 17.9256 226.967 18.109 223.849 18.109C217.98 18.2007 212.661 21.1353 206.7 27.6462C200.831 33.9738 196.521 42.2271 195.696 48.6464C195.329 51.0307 194.779 52.773 194.32 52.4979C192.853 51.6726 193.403 44.2446 195.329 38.0087C196.98 32.8733 198.08 31.131 203.766 25.4453C207.434 21.7772 211.652 18.2924 213.211 17.6505C216.329 16.275 223.299 16.0916 226.05 17.2837ZM36.223 21.1353C36.5898 22.7859 37.0483 35.0742 37.14 48.463C37.3234 68.3627 37.14 73.223 36.0396 75.4239C35.1225 77.1662 34.7557 79.9173 35.0308 83.4021C35.4893 89.2711 38.9741 95.3236 46.8606 103.485C51.5375 108.437 64.5594 115.498 72.1708 117.332C74.5551 117.883 81.7997 119.808 88.1273 121.459C101.699 125.219 120.866 127.42 129.577 126.228C132.695 125.861 141.04 124.944 148.102 124.21C160.206 123.018 181.757 118.25 188.451 115.315C194.779 112.564 211.561 102.476 213.853 100.092C215.229 98.6249 217.246 95.7821 218.163 93.8563L219.997 90.1882L220.089 98.9917C220.089 103.852 220.823 111.739 221.831 116.415C222.748 121.184 223.574 125.861 223.574 126.87C223.665 127.878 224.124 131.913 224.674 135.857C225.775 143.193 225.316 147.503 223.849 144.752C223.39 144.018 222.84 140.717 222.473 137.416C220.456 117.057 219.264 111.463 217.338 114.398C216.329 116.049 217.154 128.245 218.805 134.664C221.281 144.752 224.582 166.394 224.032 168.595C223.757 169.879 222.84 171.621 222.106 172.446C220.823 174.005 219.539 174.372 211.744 175.381L208.534 175.748L207.25 162.818C206.609 155.665 205.875 144.935 205.691 138.975C205.416 133.106 204.866 128.245 204.499 128.245C203.124 128.245 201.565 131.913 202.207 133.564C202.574 134.389 203.215 143.193 203.674 153.005C204.133 162.818 204.958 173.088 205.508 175.748C206.7 181.525 205.508 186.019 202.023 188.77C200.098 190.237 198.263 190.604 192.394 190.604C183.774 190.604 180.656 191.796 172.953 197.848C165.434 203.809 163.691 204.176 157.18 201.241C149.11 197.573 145.442 197.94 137.922 203.442C134.438 205.918 130.311 208.303 128.66 208.578C123.525 209.586 117.106 207.386 113.162 203.351C111.237 201.425 108.852 199.774 107.752 199.774C106.743 199.774 103.9 201.333 101.608 203.351C98.5815 205.827 96.1055 207.019 93.3544 207.386C84.2757 208.578 77.8565 206.652 76.1141 202.158C75.5639 200.691 75.9307 197.94 77.0311 193.447C79.0486 185.927 81.708 164.285 81.1578 160.525C80.791 158.324 80.1491 153.097 78.4067 138.975C78.0399 136.132 77.398 134.664 76.4809 134.664C74.8302 134.664 74.8302 137.691 76.4809 144.202C77.5814 148.328 77.6731 152.638 77.0311 166.944C76.5726 176.665 75.7473 186.202 75.1054 188.128C74.0049 191.429 73.8215 191.521 71.1621 190.879C69.6031 190.512 64.8345 190.237 60.6162 190.42C51.9043 190.695 49.6117 189.687 47.1357 184.918C45.2099 181.158 45.7602 173.639 49.0615 160.525C51.079 152.18 51.3541 149.154 51.3541 134.573C51.3541 121.734 51.079 118.066 50.2537 118.433C49.3366 118.708 49.1532 121.184 49.4283 128.062C49.7034 136.774 47.5025 155.665 44.7514 167.036C43.9261 170.337 43.651 170.521 41.4501 170.062C35.3059 168.595 33.9304 167.586 33.9304 164.56C33.9304 162.909 34.5723 159.516 35.3059 156.948C36.0396 154.472 37.0483 148.328 37.5985 143.376C38.1488 138.516 39.1575 131.822 39.8911 128.52C41.6335 121.001 41.6335 117.241 39.9828 117.241C39.0658 117.241 38.5156 118.983 38.0571 123.385C37.3234 132.28 35.1225 145.852 33.9304 148.787C33.4719 150.162 32.6465 151.079 32.188 150.713C30.3539 149.612 30.2622 144.66 31.9129 137.782C33.2885 132.372 33.9304 125.678 34.2972 111.005C34.664 99.7254 34.5723 91.5637 34.1138 91.5637C33.6553 91.5637 33.0133 88.3541 32.7382 84.4108C32.2797 77.6248 29.5286 65.0613 25.4936 51.7643C23.9347 46.4455 23.6596 43.9695 24.1181 36.1747C24.8517 24.1615 25.2185 23.1527 29.712 20.4933C34.664 17.5588 35.3976 17.6505 36.223 21.1353ZM42.1837 27.5545C43.3759 35.7161 42.8256 65.6116 41.4501 66.9871C41.0833 67.3539 40.7165 62.2185 40.7165 55.5242C40.7165 48.8298 40.3496 37.6419 39.9828 30.5808C39.1575 16.1833 40.2579 14.6243 42.1837 27.5545ZM239.989 20.6767C243.015 22.0523 248.517 29.2969 248.517 31.8646C248.517 32.8733 247.508 32.2314 245.491 30.1222C241.639 25.9038 234.395 20.0348 233.111 20.0348C232.561 20.0348 231.827 19.5763 231.46 19.0261C230.727 17.7422 235.77 18.751 239.989 20.6767ZM51.8126 25.7204C55.6642 29.6637 56.8563 31.4978 57.5899 35.1659C59.0572 42.4105 59.6991 49.7468 58.9655 50.7556C58.5987 51.2141 55.6642 53.8735 52.6379 56.4412L46.9523 61.3015L46.4021 53.6901C44.9348 32.048 44.6597 20.9519 45.8519 20.9519C46.4938 20.9519 49.2449 23.1527 51.8126 25.7204ZM232.469 22.9693C233.569 23.9781 234.486 38.4673 233.753 42.5022C233.294 44.9782 232.286 51.3975 231.46 56.7163C230.727 62.0351 229.259 71.1138 228.251 76.8911C227.334 82.6685 226.508 88.5375 226.508 89.9131C226.508 91.8388 226.05 92.4808 224.674 92.4808C223.665 92.4808 222.84 91.8388 222.84 91.1052C222.84 90.3716 222.29 89.7297 221.556 89.7297C219.906 89.7297 218.989 77.5331 219.172 57.1748C219.264 41.6769 219.539 37.6419 221.006 32.4148C221.465 30.8559 222.29 27.8296 222.84 25.6287L223.849 21.6855L227.975 22.144C230.268 22.3274 232.286 22.6942 232.469 22.9693ZM220.089 24.2532C220.089 25.0785 218.897 33.3318 217.338 42.6856C215.871 51.9477 214.587 60.5679 214.587 61.8517C214.587 64.236 213.486 64.6945 212.111 62.8605C210.735 61.1181 211.377 43.3276 213.119 36.083C216.146 23.4279 216.421 22.7859 218.255 22.7859C219.355 22.7859 220.089 23.4279 220.089 24.2532ZM239.622 26.2707C240.906 27.6462 240.997 29.4803 240.264 41.5852C239.805 49.1966 238.98 56.7163 238.521 58.4587C237.971 60.1093 237.146 65.5199 236.596 70.3802C236.045 75.2405 234.578 82.4851 233.386 86.52L231.093 93.8563L231.644 85.1445C231.919 80.3759 232.744 72.3059 233.569 67.2622C234.762 59.5591 236.229 39.1092 236.504 27.5545C236.596 24.2532 237.421 23.8864 239.622 26.2707ZM212.294 30.7642C211.927 33.6987 210.643 41.3101 209.36 47.7293L206.975 59.3757L203.307 57.4499L199.639 55.6159L200.189 47.7293C200.464 43.3276 201.29 38.1005 201.932 36.1747C203.307 31.9563 208.993 25.537 211.285 25.537C212.661 25.537 212.844 26.179 212.294 30.7642ZM25.1268 65.795C26.5941 69.7382 27.5111 73.8649 27.3277 75.8824C27.1443 78.5418 26.2273 76.2492 23.1093 64.9696L19.0744 50.8473L19.7163 39.7511C20.0831 33.6987 20.6333 28.2882 21.0002 27.8296C21.2753 27.2794 21.8255 34.1572 22.1006 42.9608C22.5591 57.3582 22.9259 59.7425 25.1268 65.795ZM17.6071 49.1049C17.8822 64.8779 17.9739 65.6116 20.5416 71.3889C22.8342 76.4326 23.2927 78.8169 23.6596 86.7951C23.9347 95.5987 23.2927 98.9 21.1836 98.9C20.9085 98.9 20.6333 95.507 20.6333 91.2886C20.6333 84.044 20.4499 83.3104 16.415 75.5156C10.0874 63.2273 8.71186 54.2403 11.463 43.511C12.8385 38.1004 15.4062 32.8733 16.5984 32.8733C16.9652 32.8733 17.4237 40.2096 17.6071 49.1049ZM248.059 46.4455C249.159 50.6639 249.159 52.2228 248.059 57.6333C247.325 61.0264 246.316 66.712 245.766 70.1051C245.216 73.5898 243.29 80.9261 241.456 86.52C239.622 92.0222 237.971 97.1577 237.788 97.8913C237.604 98.7166 237.146 98.9 236.596 98.3498C235.77 97.4328 237.971 80.1925 240.722 66.9871C241.548 62.7687 242.006 58.0002 241.731 56.4412C241.181 53.5984 242.465 39.8428 243.657 36.083C244.115 34.6157 244.39 34.8908 245.491 37.917C246.225 39.9345 247.325 43.7861 248.059 46.4455ZM255.12 51.9477C256.129 58.1836 256.129 58.5504 252.827 68.7295C250.993 74.5068 248.242 84.1357 246.683 90.0965C244.207 99.9088 243.932 102.201 244.115 112.564C244.207 118.891 244.024 127.787 243.565 132.372C242.832 140.35 243.657 146.586 247.142 160.617C247.692 162.542 247.508 163.001 246.5 162.634C245.766 162.359 243.932 159.149 242.465 155.481C239.897 149.245 239.805 148.237 239.805 135.123C239.805 125.494 240.172 120.909 240.906 119.9C242.923 117.424 243.473 110.455 241.731 108.804C240.906 107.979 240.264 106.145 240.264 104.861C240.264 100.092 244.024 83.9523 247.784 72.9479C250.81 63.6858 251.543 60.1093 252.002 52.2228C252.552 41.7686 253.377 41.6769 255.12 51.9477ZM232.927 100.276C240.264 104.861 240.631 108.529 234.303 114.306C231.827 116.507 228.709 118.891 227.334 119.625C224.858 120.909 224.674 120.817 224.307 118.891C223.665 115.774 222.932 97.2494 223.482 96.6991C224.124 96.0572 229.259 97.983 232.927 100.276ZM32.4631 99.4502C33.1968 101.284 33.1968 109.354 32.4631 113.756C31.7295 117.883 30.4456 118.158 25.3102 115.132C17.0569 110.455 16.7818 105.594 24.4849 100.734C29.2535 97.6162 31.6378 97.2494 32.4631 99.4502ZM239.622 117.424C237.879 119.35 229.443 124.577 227.975 124.577C227.517 124.577 228.801 123.385 230.818 121.918C232.927 120.45 235.954 117.516 237.604 115.407C240.447 111.922 240.722 111.739 240.997 113.573C241.181 114.673 240.539 116.415 239.622 117.424ZM26.5024 119.992C28.795 121.551 30.2622 122.743 29.8954 122.743C28.5199 122.743 21.367 118.066 19.6246 116.14L17.8822 114.123L20.1748 115.682C21.4587 116.599 24.3015 118.525 26.5024 119.992Z" fill="#272727"></path><path d="M180.29 133.931C177.538 150.529 177.08 155.573 176.897 172.63C176.713 186.844 176.897 191.979 177.722 192.254C178.547 192.53 178.822 189.687 178.822 181.8C178.822 167.861 180.656 147.503 183.132 133.472C183.499 131.638 183.224 130.996 182.215 130.996C181.298 130.996 180.565 132.097 180.29 133.931Z" fill="#272727"></path><path d="M107.293 135.949C106.193 138.883 105.918 161.993 106.743 180.058C107.477 196.381 107.844 198.857 109.219 198.857C109.861 198.857 109.953 195.281 109.586 187.578C108.669 170.154 108.577 144.844 109.494 138.975C110.044 135.215 109.953 133.748 109.219 133.748C108.669 133.748 107.752 134.757 107.293 135.949Z" fill="#272727"></path><path d="M143.883 136.131C142.324 138.057 142.141 167.127 143.7 184.001C144.708 195.372 145.167 197.114 146.726 195.555C147.184 195.097 147.001 191.887 146.267 187.394C144.8 179.232 144.433 145.577 145.717 140.075C146.634 135.948 145.717 133.93 143.883 136.131Z" fill="#272727"></path><path d="M50.9868 17.0087C57.2227 23.5196 62.2664 32.3232 64.2839 40.3931C65.7511 46.629 67.3101 46.0788 66.5765 39.6595C65.476 29.8472 57.7729 16.4585 51.3537 13.1571C45.3012 10.0392 45.2095 10.9562 50.9868 17.0087Z" fill="#272727"></path><path d="M97.6645 14.6242C89.3195 19.2094 86.6601 22.4191 88.2191 26.3623C89.1361 29.0217 87.944 30.1222 84.1841 30.1222C82.2583 30.1222 81.6164 30.5807 81.6164 31.8646C81.6164 34.524 88.1274 36.8166 92.3457 35.7161C96.7475 34.4323 97.4811 35.0742 96.6558 39.5677C96.1056 43.3275 93.0794 47.1791 89.1361 49.2883C87.302 50.297 87.1186 51.0306 87.1186 57.8167C87.1186 65.0613 87.1186 65.153 85.1011 64.6028C78.1316 62.677 73.1796 62.0351 65.7516 62.4019C55.6642 62.7687 50.8956 64.7862 48.2362 69.7382C46.5856 72.581 46.5856 73.4063 47.5943 76.7994C49.245 82.485 54.2887 85.5112 62.7254 85.7864L69.2364 86.0615L65.5682 84.8693C60.4328 83.1269 52.8214 79.1837 51.4459 77.4413C49.3367 74.8736 51.079 71.5723 56.4896 67.9958C63.5508 63.3189 70.2451 62.8604 80.9745 66.2535C87.2103 68.2709 88.9527 69.188 91.0619 72.0308C93.7213 75.5155 94.3632 79.6422 92.3457 79.6422C91.6121 79.6422 90.3282 80.4675 89.4112 81.4763C87.9439 83.0352 79.7823 85.4195 71.9875 86.3366C70.5202 86.52 72.9962 86.7034 77.4897 86.7951C82.6251 86.8868 87.1186 86.4283 89.4112 85.6029C91.4287 84.8693 93.1711 84.2274 93.3545 84.2274C93.4462 84.2274 92.7125 85.0527 91.6121 86.1532C89.3195 88.4458 89.6863 90.7384 92.6208 92.2973C95.1885 93.5812 101.149 93.2144 103.167 91.5637C106.285 88.996 103.809 83.4938 100.141 84.5942C98.5816 85.1444 98.3065 84.5942 97.9397 80.5592C97.5728 76.9828 96.8392 75.1487 94.73 72.9478C91.1536 69.2797 89.8697 66.6203 89.8697 63.5023C89.8697 61.2097 90.0531 61.118 93.4462 61.6683C97.848 62.3102 102.892 61.3932 102.433 60.0176C102.25 59.4674 100.507 59.0089 98.4899 58.9172C90.6951 58.8254 89.6863 58.642 90.0531 57.0831C90.2365 56.0743 91.5204 55.5241 93.7213 55.249C95.5554 55.1573 98.3065 54.332 99.8654 53.5983C101.424 52.773 102.8 52.4979 103.075 52.9564C103.442 53.4149 103.9 56.8997 104.176 60.6595L104.817 67.5373L101.516 70.9303C99.682 72.8561 98.3982 74.7819 98.6733 75.2404C99.3152 76.2492 99.4069 76.1575 103.992 70.6552C107.11 66.8954 107.293 66.2535 107.202 60.5678C107.11 53.1398 106.285 49.8385 104.542 49.7468C103.809 49.7468 101.7 49.0132 99.9571 48.1878C97.3894 46.904 97.206 46.7206 99.0401 46.9957C100.324 47.1791 102.066 47.6376 102.983 48.0044C104.084 48.4629 104.542 48.1878 104.542 47.1791C104.542 46.3537 103.534 45.2533 102.25 44.7948C99.8654 43.8777 99.4069 41.8603 100.507 37.6419C100.966 36.1746 101.791 35.6244 103.534 35.6244C107.752 35.6244 112.704 33.7903 113.804 31.7728C114.997 29.572 113.713 28.2881 109.953 28.2881C107.844 28.2881 107.569 27.8296 106.56 22.5108C105.184 14.8994 102.158 12.24 97.6645 14.6242ZM104.267 17.8339C105.093 20.1265 103.35 21.1352 100.324 20.0348C97.7562 19.026 97.7562 18.9343 99.4069 17.6505C101.791 15.9998 103.534 15.9998 104.267 17.8339ZM96.289 21.8688C96.289 22.3274 95.8305 22.7859 95.2802 22.7859C94.6383 22.7859 94.4549 23.7946 94.8217 25.6287C95.2802 28.1047 95.0968 28.3798 93.2628 28.1047C91.7955 27.9213 91.1536 27.096 90.9702 25.1702C90.7868 23.7029 91.1536 22.2357 91.8872 21.7771C93.5379 20.6767 96.289 20.7684 96.289 21.8688ZM100.874 24.0697C100.874 24.3448 100.507 24.8034 99.9571 25.0785C99.4986 25.3536 99.0401 25.1702 99.0401 24.7117C99.0401 24.1614 99.4986 23.7029 99.9571 23.7029C100.507 23.7029 100.874 23.8863 100.874 24.0697ZM88.9527 32.8733C87.1186 34.0654 85.0094 34.0654 85.7431 32.8733C86.0182 32.3231 87.2103 31.9563 88.3108 31.9563C89.9614 31.9563 90.0531 32.1397 88.9527 32.8733ZM99.4986 51.214C99.8654 51.7643 98.4899 52.1311 96.1056 52.0394C93.0794 52.0394 92.6208 51.856 93.9964 51.214C96.5641 50.1136 98.8567 50.1136 99.4986 51.214ZM101.608 89.4545C102.066 91.1052 99.5903 91.9305 96.4724 91.1052L93.9964 90.4632L96.289 89.1794C98.9484 87.7121 101.058 87.8955 101.608 89.4545Z" fill="#272727"></path><path d="M141.407 19.76C138.748 20.3102 137.005 23.153 136.272 28.105C135.63 32.4151 136.73 35.3496 140.673 39.568C142.783 41.8606 143.058 42.8693 143.058 48.9218C143.058 52.6816 142.691 55.983 142.141 56.2581C140.582 57.2668 141.132 61.2101 142.966 62.2188C146.634 64.1446 153.145 62.3105 153.145 59.376C153.145 57.0834 151.678 56.4415 149.569 57.817C148.56 58.459 147.551 58.7341 147.368 58.5507C146.451 57.5419 148.468 46.4458 149.844 44.52C155.988 36.175 155.896 36.4501 155.896 30.2142C155.896 26.6378 155.438 23.6115 154.796 22.9696C154.154 22.3277 154.062 21.8692 154.429 21.8692C154.887 21.8692 154.704 21.2273 154.062 20.4936C152.962 19.1181 146.542 18.7512 141.407 19.76ZM144.983 25.0788C145.992 25.4456 148.01 25.4456 149.477 25.0788C151.953 24.5286 152.228 24.712 152.228 26.8212C152.228 29.4806 151.678 29.5723 144.525 28.6553C140.031 28.0133 139.39 27.0046 141.407 23.4281C142.324 21.6858 142.599 21.6858 142.874 22.9696C143.058 23.795 143.975 24.8037 144.983 25.0788ZM152.228 33.9741C152.228 36.8169 148.285 44.7951 146.818 44.7951C145.717 44.7951 139.39 34.5243 139.39 32.6902C139.39 31.223 140.307 31.0395 145.809 31.0395H152.228V33.9741Z" fill="#272727"></path><path d="M108.852 39.1089C107.385 39.2923 106.468 39.9342 106.651 40.4845C107.018 41.7683 114.629 41.9517 114.721 40.6679C114.813 39.4757 111.878 38.7421 108.852 39.1089Z" fill="#272727"></path><path d="M165.984 59.4671C159.84 60.5676 157.089 61.8514 155.438 64.4191C153.512 67.2619 154.246 69.9214 158.098 73.9563C163.875 80.1922 170.386 81.6594 182.491 79.7337C186.526 79.0917 186.434 79.0917 179.648 78.5415C172.128 77.8996 160.94 73.8646 159.198 71.1135C157.914 69.096 159.84 65.5196 163.508 62.7685C168.368 59.192 189.552 60.1091 193.587 64.144C197.714 68.2707 196.521 73.8646 190.744 76.8908C187.993 78.3581 187.81 78.6332 189.644 78.7249C193.587 78.7249 198.722 75.3319 199.914 71.9388C201.29 67.6288 199.548 64.2357 194.321 61.3012C190.836 59.3754 189.002 59.1003 180.198 58.9169C174.696 58.7335 168.277 59.0086 165.984 59.4671Z" fill="#272727"></path><path d="M170.294 64.9693C164.333 66.8034 163.324 70.3798 168.093 73.2226C173.32 76.4323 187.442 75.0567 190.377 71.0217C191.661 69.1877 191.569 68.9126 188.91 66.5283C186.434 64.3274 185.517 64.0523 179.464 64.144C175.888 64.144 171.669 64.6025 170.294 64.9693ZM182.765 66.4366C184.691 66.8034 186.158 67.537 186.158 68.2706C186.158 69.8296 181.482 72.3056 178.547 72.3056C175.062 72.3056 167.818 69.4628 167.818 68.1789C167.818 66.4366 176.621 65.4278 182.765 66.4366Z" fill="#272727"></path><path d="M60.6158 69.6469C56.1223 70.4723 54.2883 71.7561 55.8472 72.6731C56.3975 73.04 56.856 74.3238 56.856 75.516C56.856 79.1841 60.6158 80.9265 69.6028 81.2016C78.4981 81.5684 85.5592 79.6426 87.7601 76.3413C89.5942 73.4985 86.8431 70.564 81.616 69.4635C76.4806 68.5465 65.9346 68.5465 60.6158 69.6469ZM81.4326 71.0225C84.6422 71.9395 83.7252 75.1491 79.6902 77.0749C76.9391 78.5422 75.4718 78.6339 69.4194 77.8086C62.2665 76.8915 58.6901 75.6994 58.6901 74.1404C58.6901 71.7561 75.5635 69.4635 81.4326 71.0225Z" fill="#272727"></path><path d="M141.683 73.7732C140.215 74.5068 138.748 75.5155 138.473 75.974C138.198 76.4326 136.547 76.8911 134.805 77.0745C130.678 77.4413 130.678 79.092 134.713 79.4588C136.455 79.6422 139.298 80.8343 141.041 82.2099C144.434 84.8693 150.028 85.4195 151.311 83.3103C151.77 82.6684 151.495 80.3758 150.853 77.9915C149.019 72.0308 146.818 71.022 141.683 73.7732ZM148.469 77.533C149.844 80.5592 148.469 81.6597 144.801 80.3758C141.224 79.092 140.857 78.1749 143.242 76.5243C146.084 74.5068 147.185 74.6902 148.469 77.533Z" fill="#272727"></path><path d="M105.734 77.3499C102.983 79.2756 103.075 82.0267 105.918 83.8608C107.844 85.1447 108.761 85.2364 110.503 84.411C112.796 83.4023 113.437 81.4765 112.154 80.1927C111.787 79.8259 111.42 78.8171 111.42 77.9918C111.42 75.8826 108.21 75.6075 105.734 77.3499ZM108.944 81.018C108.21 82.577 107.568 83.0355 107.018 82.4853C106.376 81.8433 106.468 81.1097 107.293 80.101C109.127 77.9001 110.136 78.4503 108.944 81.018Z" fill="#272727"></path><path d="M201.29 78.2665C194.228 80.7425 181.848 83.5853 177.813 83.7687C172.22 83.9521 170.569 84.5941 170.569 86.5198C170.569 90.188 180.84 90.4631 184.324 86.9784C185.241 86.0613 190.193 84.0438 195.329 82.6683C200.464 81.2927 204.591 79.6421 204.591 79.1835C204.591 78.1748 202.849 77.7163 201.29 78.2665Z" fill="#272727"></path><path d="M137.097 86.6117C135.813 87.9872 134.804 89.4545 134.804 89.8213C134.804 90.2798 134.162 90.3715 133.429 90.0964C131.686 89.3628 129.302 91.2886 129.302 93.3978C129.302 94.3148 128.293 95.6904 127.009 96.5157C125.359 97.6161 124.717 98.8083 124.717 101.009C124.717 104.861 127.468 107.52 133.795 109.904C139.94 112.289 153.695 112.472 158.28 110.271C161.398 108.712 170.11 100 169.285 99.0834C169.01 98.9 169.193 97.8913 169.743 96.8825C171.211 94.2231 169.101 92.2056 165.433 92.7558C163.599 93.031 161.765 92.7558 160.756 92.0222C159.839 91.2886 157.822 90.6467 156.171 90.6467C154.612 90.6467 153.145 90.0964 152.87 89.4545C152.595 88.6292 151.769 88.6292 149.11 89.5462C147.184 90.2798 145.625 90.6467 145.534 90.4632C142.049 83.7689 140.398 83.0352 137.097 86.6117ZM140.857 92.8475C139.756 98.5332 144.158 99.5419 146.726 94.1314C148.376 90.6467 150.394 89.7296 150.394 92.389C150.394 95.0484 152.411 95.6904 155.713 93.948C158.189 92.6641 158.831 92.6641 161.765 93.8563C163.599 94.6816 165.066 95.507 165.066 95.7821C165.066 96.0572 163.141 97.1576 160.756 98.2581C156.997 99.9087 154.612 100.276 145.534 100.276C135.538 100.276 134.988 100.367 137.739 101.468C142.782 103.577 153.328 103.944 158.555 102.201C161.031 101.376 163.599 100.734 164.149 100.734C165.892 100.734 161.49 107.887 159.381 108.621C156.079 109.629 141.865 109.354 136.822 108.07C131.778 106.878 129.761 105.228 128.843 101.559C128.11 98.7166 129.485 97.5244 131.87 98.8083C133.337 99.5419 133.429 99.3585 133.154 96.5157C132.695 93.031 133.429 92.6641 135.905 94.865C137.464 96.3323 137.647 96.2406 138.931 93.031C140.673 88.9043 141.59 88.7209 140.857 92.8475Z" fill="#272727"></path><path d="M114.08 87.254C111.053 88.9047 105.276 97.0663 105.826 98.6253C106.652 100.551 113.346 99.634 115.73 97.2497C118.023 95.0488 118.94 88.6296 117.289 87.254C116.28 86.5204 115.455 86.5204 114.08 87.254Z" fill="#272727"></path><path d="M44.0176 87.8956C44.0176 88.3541 45.118 88.996 46.5853 89.3628C53.5548 90.9218 63.0003 93.5812 64.4675 94.3148C67.402 96.0572 79.1401 98.0747 80.0571 97.1576C80.6991 96.5157 80.6074 96.0572 79.6903 95.7821C78.9567 95.5987 76.5724 94.7733 74.2798 93.948C71.9872 93.1227 69.0527 92.4807 67.8606 92.4807C66.5767 92.4807 61.6247 91.1969 56.8561 89.7296C47.9608 86.8868 44.0176 86.3366 44.0176 87.8956Z" fill="#272727"></path><path d="M146.726 205.276C145.625 205.918 146.084 207.019 149.018 211.237C157.822 224.076 169.652 229.486 169.652 220.683C169.652 217.84 161.123 206.194 159.014 206.194C156.355 206.194 156.997 208.211 160.94 213.071C163.232 215.914 165.066 218.574 165.066 219.032C165.066 219.399 165.342 220.408 165.617 221.233C166.35 223.159 163.874 223.159 160.94 221.233C159.748 220.499 156.446 216.373 153.603 212.063C150.761 207.844 148.285 204.359 148.285 204.359C148.193 204.359 147.459 204.726 146.726 205.276Z" fill="#272727"></path></svg> 