<?xml version="1.0" encoding="UTF-8"?> <svg xmlns="http://www.w3.org/2000/svg" width="461" height="384" viewBox="0 0 461 384" fill="none"><path d="M288.063 0.508292C282.464 1.93788 276.745 6.22666 269.597 13.9703C261.735 22.5478 253.753 35.4142 253.753 39.3456C253.753 44.8257 256.731 42.2047 263.641 30.6489C271.742 17.1869 284.251 5.15447 290.446 5.15447C293.067 5.15447 293.186 5.51187 292.352 8.37105C291.875 10.2772 291.399 15.9955 291.399 21.3565C291.28 29.8149 290.922 31.6019 287.825 36.129C284.965 40.4178 284.727 41.6091 285.799 44.1109C287.825 48.5188 287.348 52.8076 284.132 59.7172C281.987 64.2443 281.034 68.7713 280.677 75.3236C280.081 86.5221 278.413 90.2152 270.193 97.3632L263.998 102.724L264.236 109.991C264.475 117.973 263.402 121.19 259.709 123.096C257.684 124.168 256.254 123.692 251.966 120.713C246.366 116.782 245.175 114.757 248.749 114.757C253.276 114.757 256.135 111.302 256.135 105.941C256.135 102.009 256.85 100.342 259.114 98.3162C262.449 95.4571 262.688 93.4318 260.662 87.8326C259.471 84.4969 259.59 83.5438 261.258 81.6377C264.475 78.0637 266.857 71.0349 266.857 64.9591C266.857 57.8111 263.402 52.2119 257.088 48.8762C253.991 47.3274 252.561 45.7787 252.561 44.1109C252.442 39.4647 248.153 31.7211 243.865 28.5045C240.886 26.1218 237.67 25.0496 232.666 24.5731C228.616 24.0966 224.446 22.9052 222.659 21.4756C218.847 18.7356 209.435 16.8295 205.027 17.9017C200.381 18.9739 193.829 22.4287 191.446 25.1688C189.898 26.8366 187.753 27.6705 184.537 27.5514C181.677 27.5514 177.984 28.6236 174.649 30.6489C168.93 33.9846 166.786 36.7246 166.786 40.7751C166.786 42.3239 165.118 44.3491 162.021 46.2553C156.54 49.7101 154.873 52.331 154.873 58.0494C154.873 61.3851 155.826 62.9338 159.638 66.2695C164.046 70.0818 164.403 70.6775 164.403 76.6341C164.403 80.6846 165.356 84.7351 167.024 88.19L169.645 93.3127L167.024 96.6484C161.425 103.558 161.425 109.276 167.262 115.948C168.692 117.616 170.598 120.951 171.432 123.453C172.862 127.861 172.742 128.219 170.002 131.197C168.454 132.984 166.548 135.605 165.714 136.915C164.999 138.583 162.854 139.774 159.995 140.37C157.613 140.728 153.086 142.514 149.869 144.063C145.818 146.088 142.244 146.922 137.36 146.922H130.45L124.255 133.937C120.92 126.789 117.346 120.713 116.274 120.356C114.487 119.641 94.5914 126.312 43.7217 144.421C12.3898 155.619 0 160.861 0 163.005C0 163.958 2.50179 170.987 5.48011 178.731C25.2561 229.601 29.9023 239.846 33.4763 239.846C38.8373 239.846 59.4472 232.579 113.414 211.731C131.88 204.583 133.548 204.106 136.05 205.774C137.598 206.727 142.006 208.157 146.057 208.991C152.371 210.301 153.919 210.182 158.327 208.514C161.663 207.204 164.88 206.727 167.858 207.204C173.1 208.037 186.562 206.251 196.807 203.272C202.049 201.843 204.074 201.723 205.385 202.796C206.219 203.51 209.912 209.705 213.367 216.377C219.562 228.171 223.374 232.817 234.811 242.824L240.291 247.59L241.601 260.813C243.984 284.759 251.966 297.744 269.716 306.56C275.197 309.3 279.485 312.636 282.821 316.448C297.355 333.722 300.572 336.463 312.723 342.419C319.633 345.755 330.117 349.686 337.384 351.473L350.131 354.809L351.442 360.527C352.633 366.246 360.138 381.376 362.64 383.043C365.142 384.83 371.456 383.997 374.553 381.495C377.055 379.589 377.651 378.04 377.651 374.108C377.532 371.368 377.889 366.841 378.246 364.101C378.723 361.361 378.485 358.264 377.889 357.073C377.055 355.524 377.174 353.856 378.485 351.473C380.986 346.589 379.676 340.632 375.387 337.535C373.481 336.224 371.456 335.152 370.979 335.152C370.384 335.152 368.001 333.127 365.499 330.625C362.878 328.242 358.113 324.907 354.777 323.239C349.416 320.618 348.463 319.546 346.438 314.066C343.817 306.918 340.362 304.178 331.308 302.391C325.59 301.199 324.637 300.604 323.684 297.506C323.088 295.6 321.777 293.217 320.944 292.145C319.991 291.192 319.276 289.882 319.276 289.524C319.276 289.048 324.875 288.69 331.546 288.69C339.052 288.69 346.2 287.976 349.774 286.903C357.16 284.64 357.041 284.64 357.994 287.499C358.351 288.809 360.615 292.026 362.878 294.766C365.38 297.864 366.929 300.842 366.929 303.105C366.929 309.539 375.149 313.946 378.842 309.539C379.676 308.585 381.225 307.752 382.416 307.752C386.467 307.752 390.755 303.105 390.755 298.817C390.755 294.766 388.968 292.145 388.015 294.885C387.658 296.077 387.181 296.077 385.514 294.766C382.654 292.383 381.82 293.932 383.25 298.817C384.799 303.82 384.084 304.058 380.272 299.651L377.532 296.434L378.246 301.318C378.842 305.131 378.604 306.441 377.055 306.918C374.911 307.871 370.503 303.82 370.503 300.961C370.503 299.889 369.073 296.91 367.405 294.409C364.07 289.643 362.044 279.16 364.308 279.16C366.095 279.16 368.358 274.752 367.167 273.918C366.571 273.56 364.308 274.633 362.044 276.301C353.467 282.853 348.94 283.925 331.308 283.925H314.987L309.03 279.755C297.594 271.535 291.041 264.03 287.11 254.261C284.965 249.257 282.583 244.135 281.749 242.705C280.319 240.561 280.915 238.893 286.038 228.409C289.254 221.976 292.709 215.9 293.9 215.185C296.998 212.922 294.496 211.731 290.922 213.637C289.016 214.828 285.799 219.117 282.821 224.954C275.077 239.965 268.883 244.611 257.088 244.611C243.626 244.611 228.735 233.294 218.966 215.781C215.869 210.182 212.533 204.94 211.461 204.106C210.508 203.272 209.674 201.604 209.674 200.413C209.674 198.269 210.746 197.792 218.013 196.362C230.284 193.98 248.987 178.731 254.587 166.46C257.208 160.504 257.446 157.644 255.063 157.644C254.468 157.644 251.37 161.337 247.915 165.865C244.579 170.392 238.98 176.586 235.645 179.684C228.735 185.998 205.266 198.149 200.262 198.149C198.594 198.149 191.565 199.579 184.656 201.247C173.815 203.868 171.551 204.106 167.143 202.796C163.688 201.843 161.544 201.843 160.591 202.557C155.111 206.846 145.342 206.965 145.342 202.796C145.342 200.294 144.031 199.936 142.125 201.843C141.411 202.557 140.1 202.915 139.266 202.677C138.194 202.319 139.862 199.817 143.912 195.529C147.248 191.955 150.107 188.619 150.107 188.023C150.107 187.547 148.439 187.428 146.533 187.904C143.793 188.381 142.721 188.142 142.125 186.713C141.768 185.641 142.125 184.33 143.078 183.734C145.461 182.186 156.54 182.424 158.208 184.092C160.234 186.117 171.432 183.258 182.392 177.778C187.277 175.276 194.305 172.417 197.879 171.345C201.453 170.272 205.623 168.843 207.291 168.128C210.15 167.056 210.15 166.937 207.887 165.269C205.742 163.601 205.861 163.363 210.627 158.478C213.367 155.738 217.06 150.258 219.085 146.327C220.991 142.395 224.208 137.034 226.233 134.533C228.616 131.554 229.569 129.41 228.854 128.695C226.71 126.551 220.753 132.388 216.226 141.204C209.912 153.356 199.666 165.984 196.092 165.984C194.067 165.984 191.804 160.027 191.804 154.428C191.804 149.424 190.017 145.731 187.515 145.731C186.085 145.731 185.847 147.161 186.562 154.309C187.515 165.15 186.324 166.46 173.815 168.843C168.93 169.796 162.974 171.464 160.353 172.536C156.898 173.966 154.992 174.204 152.252 173.251C149.512 172.298 148.082 172.417 145.938 173.846C143.317 175.514 143.078 175.514 141.887 173.251C139.981 169.796 140.219 168.724 143.317 167.89C145.699 167.056 145.58 166.937 141.768 165.507C139.028 164.554 137.479 163.124 137.241 161.457C136.764 158.359 136.169 158.24 131.165 160.742C128.306 162.171 126.876 162.291 125.923 161.337C124.97 160.384 125.685 158.955 128.663 155.857C133.905 150.496 138.313 150.377 145.223 155.381C148.082 157.406 150.584 158.717 150.941 158.478C151.775 157.525 149.035 152.879 147.725 152.879C147.01 152.879 146.533 152.164 146.533 151.211C146.533 149.424 154.634 145.969 161.425 144.897C164.046 144.421 166.548 143.11 167.739 141.323C174.887 131.078 174.887 131.078 183.345 131.912C187.634 132.388 193.114 133.58 195.497 134.533C199.428 136.2 200.143 136.2 203.598 134.533C210.508 130.959 208.244 129.648 194.782 129.529C181.082 129.291 179.176 128.457 175.602 121.666C173.457 117.616 173.457 117.139 175.84 117.139C178.818 117.139 177.031 114.161 173.815 113.804C170.598 113.327 167.977 111.54 167.977 109.753C167.977 109.038 169.049 108.8 170.36 109.157C174.053 110.11 174.41 107.966 170.955 105.702L167.977 103.796L170.36 99.865C173.338 94.9805 173.338 92.0022 170.36 86.1647C167.977 81.5185 167.501 74.8471 169.049 67.6991C169.764 64.3634 170.002 64.2443 175.483 64.6017C180.367 64.84 181.558 64.4826 184.537 61.3851C187.158 58.8833 189.54 57.692 193.829 57.2155C198.237 56.7389 200.262 55.7859 202.883 52.8076C207.767 47.3274 205.385 45.6596 198.952 49.9484C194.425 52.9267 193.591 53.165 190.255 51.8545C186.681 50.4249 186.324 50.6632 182.75 54.7137C179.176 59.0025 178.937 59.1216 173.1 58.2877C166.309 57.4537 164.761 58.5259 166.786 62.3382C168.573 65.6739 165.237 65.5548 162.021 62.0999C157.732 57.4537 159.519 51.378 165.952 48.6379C169.168 47.3274 170.36 47.3274 173.576 48.6379C180.129 51.378 180.963 46.8509 174.529 43.1578C172.266 41.7282 170.36 39.9412 170.36 38.9882C170.36 36.6055 179.652 32.3167 185.49 31.9593C189.183 31.8402 191.327 31.0063 193.829 28.5045C198.594 23.62 204.551 21.5948 211.461 22.1904C216.226 22.667 217.894 23.3818 220.396 26.3601C223.136 29.5767 223.85 29.9341 228.854 29.3384C238.504 28.2662 245.413 34.2228 247.2 45.1831C247.796 49.2336 248.511 50.1866 251.966 51.4971C257.565 53.4032 260.901 58.5259 260.901 64.7208C260.901 70.9157 253.872 83.0673 248.749 85.6882C244.103 88.0708 245.652 89.8578 251.489 89.0239C255.659 88.3091 256.135 88.5474 256.135 90.6918C256.135 93.6701 251.727 98.078 248.868 98.078C245.413 98.078 244.699 100.699 247.558 102.605C251.251 104.988 250.894 106.656 245.413 111.063C241.363 114.28 240.052 114.757 236.478 114.042C233.977 113.565 231.117 111.897 229.331 109.753C226.59 106.536 226.233 106.417 223.85 108.085C222.183 109.157 219.919 109.634 217.894 109.157C215.988 108.8 214.439 109.038 214.439 109.634C214.439 111.897 217.417 113.565 221.825 113.565C224.923 113.565 226.59 114.28 227.424 115.829C228.973 118.569 233.619 120.356 241.006 121.071C245.533 121.547 247.677 122.5 251.013 125.598C256.254 130.72 258.041 134.294 260.305 143.468C261.258 147.875 263.76 153.475 266.143 157.049C268.525 160.384 271.027 164.911 271.742 167.175C275.316 177.659 281.868 182.662 297.355 186.355C309.983 189.334 314.391 191.002 319.752 195.171C325.232 199.341 329.283 208.752 328.211 214.828C327.615 218.164 328.092 220.904 329.879 225.073C332.857 231.626 332.976 236.51 330.593 243.42C328.33 249.972 328.33 254.142 330.593 254.142C331.546 254.142 333.214 252.474 334.167 250.449C335.716 247.59 336.55 246.994 338.694 247.709C342.983 249.019 352.99 254.261 356.922 257.239C358.947 258.788 362.044 260.098 363.831 260.098C368.597 260.098 371.456 262.005 373.362 266.532C374.196 268.676 377.651 272.369 381.106 274.871C384.441 277.373 388.134 281.066 389.087 283.091C390.874 286.427 390.874 286.903 389.087 288.095C386.467 290.12 386.705 291.311 389.683 290.835C391.113 290.596 392.9 289.524 393.615 288.333C395.521 285.355 390.755 277.134 384.68 272.607C381.94 270.582 378.485 266.77 376.817 263.911C373.719 258.669 370.979 256.525 367.286 256.525C365.976 256.525 363.117 255.095 360.853 253.427C358.59 251.64 352.395 248.185 347.034 245.683L337.384 241.037L336.55 234.723C336.073 231.388 335.001 227.099 334.048 225.431C333.214 223.644 332.499 218.879 332.619 214.113C332.857 204.464 331.07 200.532 324.041 194.099C317.965 188.619 312.485 186.236 298.07 182.662C285.442 179.565 280.2 176.586 277.341 170.749C274.244 164.435 264.951 143.348 263.283 138.583C262.449 136.32 261.258 133.937 260.662 133.222C256.969 129.052 264.356 125.002 275.077 125.359C284.37 125.598 286.395 124.168 289.135 114.876C293.067 100.818 299.142 92.8361 309.626 87.4752C318.323 82.9481 336.193 81.2803 387.777 80.0889L436.621 78.8976L446.509 82.1142C452.109 83.9012 456.278 85.9264 456.278 86.7604C456.278 89.0239 450.441 93.3127 447.463 93.3127C443.65 93.3127 439.6 94.6231 439.6 95.8145C439.6 97.7206 445.199 98.3162 450.083 96.8867C455.564 95.4571 461.52 89.0239 460.805 85.3308C460.329 82.7099 449.488 77.2298 440.076 74.8471C433.643 73.1792 426.853 73.1792 387.062 74.1323C340.481 75.3236 318.442 77.2298 309.149 80.9229C301.882 83.7821 293.067 90.8109 289.254 96.7675C287.348 99.7458 284.727 105.822 283.417 110.23C282.106 114.637 280.558 118.569 279.962 118.926C279.247 119.403 276.507 119.284 273.648 118.926L268.525 118.092V111.421C268.644 104.63 268.644 104.63 276.626 96.7675C283.536 89.977 284.608 88.3091 285.323 83.3055C285.799 80.2081 285.919 75.2045 285.442 72.3453C284.965 68.7713 285.323 65.5548 286.633 62.5764C289.612 55.4285 290.565 49.3527 289.373 45.1831C288.42 41.8473 288.778 40.2986 291.399 35.6524C293.543 31.7211 294.615 27.9088 294.973 22.667C295.211 18.6165 295.687 13.2555 296.164 10.8728C297.713 2.05702 294.973 -1.39783 288.063 0.508292ZM111.985 126.074C111.985 127.623 95.187 159.908 94.1149 160.623C93.4001 161.099 91.4939 160.384 90.0643 158.955C86.4904 155.619 80.5337 155.619 76.9597 159.193C75.411 160.742 73.9814 162.529 73.7432 163.244C73.3858 164.316 71.9562 164.316 68.2631 163.244C63.736 162.052 62.7829 162.171 59.9238 164.316C55.5159 167.652 54.9202 173.966 58.375 179.684C61.2342 184.33 73.1475 190.763 80.772 191.835L85.5373 192.431L89.3495 184.687C91.4939 180.28 93.5192 174.204 93.8766 171.106C94.1149 168.009 95.187 164.911 96.1401 164.435C96.974 163.839 101.739 155.381 106.743 145.493C111.746 135.367 116.154 127.98 116.75 128.576C117.346 129.172 119.967 134.652 122.588 140.847L127.472 152.045L124.494 155.5C122.826 157.406 121.515 159.789 121.515 160.623C121.515 163.124 126.4 165.984 129.497 165.269C131.88 164.673 132.595 165.388 135.216 171.345C138.313 178.493 138.909 182.186 137.122 184.926C136.288 186.236 132.356 185.402 116.631 180.399C105.909 177.182 96.7358 174.799 96.1401 175.395C94.4723 177.063 98.0462 178.612 119.49 185.521C131.046 189.215 140.577 192.789 140.577 193.384C140.577 193.98 139.385 195.29 137.956 196.243C132.833 199.46 40.8625 234.604 39.7903 233.651C39.5521 233.294 44.6748 223.525 51.2271 211.969C57.7794 200.413 63.1403 190.406 63.1403 189.81C63.1403 189.095 62.4255 188.619 61.5916 188.619C60.8768 188.619 56.4689 195.171 51.9419 203.153C36.9311 229.839 34.1911 234.008 33.1189 232.936C32.1658 231.983 7.14796 171.464 7.14796 170.034C7.14796 168.843 12.5089 169.796 32.4041 174.561C51.8227 179.088 57.0646 179.684 54.0863 176.825C53.0141 175.633 38.3607 171.821 17.3934 167.175C9.53062 165.388 6.1949 164.197 7.2671 163.482C9.17322 162.291 24.5413 156.334 41.6965 150.139C114.129 123.811 111.985 124.525 111.985 126.074ZM191.208 168.485C190.731 169.081 189.659 169.558 188.587 169.558C187.038 169.558 187.038 169.2 188.23 167.771C189.778 165.984 192.399 166.46 191.208 168.485ZM173.934 176.706C167.501 180.16 162.854 180.994 159.161 179.565C155.706 178.254 157.136 177.182 164.165 175.753C167.858 175.038 172.028 174.204 173.338 173.846C179.652 172.536 179.89 173.608 173.934 176.706ZM280.558 252.474C286.157 264.626 294.496 276.181 300.572 279.994C307.839 284.64 318.084 294.766 318.084 297.387C318.084 302.152 320.348 304.058 327.972 305.488C336.669 307.275 341.077 310.968 342.983 318.116C344.532 323.834 345.723 325.026 352.037 326.694C354.896 327.408 358.59 329.791 360.972 332.293C363.236 334.676 367.167 337.535 369.55 338.845C374.792 341.466 375.983 344.683 374.077 350.639C372.885 354.332 372.885 355.643 374.434 358.502C375.983 361.48 375.983 362.553 374.553 365.888C373.719 368.033 373.124 371.726 373.243 374.108C373.481 378.159 373.124 378.636 369.55 379.589C364.546 381.137 363.593 380.184 358.59 368.628C355.373 361.123 354.777 358.74 355.373 353.499C356.088 346.589 355.373 344.921 353.229 347.899C351.918 349.567 350.965 349.686 344.174 348.376C321.658 343.968 296.045 328.838 289.493 316.091C286.633 310.492 283.059 307.394 274.839 303.582C258.041 295.719 248.273 279.279 246.128 255.095L245.413 247.113L249.226 248.304C255.897 250.21 263.522 249.496 269.836 246.517C273.171 244.849 275.911 243.539 276.15 243.539C276.269 243.42 278.294 247.47 280.558 252.474Z" fill="#272727"></path><path d="M272.576 32.4354C262.449 42.6809 260.424 45.6592 263.641 45.6592C265.785 45.6592 284.727 25.764 284.727 23.6196C284.727 22.6666 284.37 21.8326 283.893 21.9518C283.297 21.9518 278.294 26.7171 272.576 32.4354Z" fill="#272727"></path><path d="M272.933 57.4537C269.24 62.5764 269.955 64.4825 274.005 60.5511C277.46 57.2154 278.651 53.9988 276.507 53.9988C275.911 53.9988 274.244 55.5476 272.933 57.4537Z" fill="#272727"></path><path d="M204.908 60.6696C202.644 63.2905 203.002 69.0089 205.504 71.868C208.005 74.7272 214.677 75.0846 216.821 72.5828C218.489 70.5576 218.012 65.6731 216.106 65.0775C215.392 64.8392 214.438 65.7923 214.081 67.1027C213.605 69.0089 212.651 69.6045 210.626 69.2471C207.767 68.8897 207.052 65.3157 209.077 60.7887C210.15 58.1678 207.052 58.0486 204.908 60.6696Z" fill="#272727"></path><path d="M237.908 60.4326C237.55 61.3856 238.146 64.8405 239.218 68.1762L241.124 74.252L237.789 77.7068C234.572 81.0425 234.572 81.1617 236.955 81.9956C242.077 83.5443 246.604 78.6599 246.604 71.6311C246.485 63.8874 239.814 55.3099 237.908 60.4326Z" fill="#272727"></path><path d="M267.81 77.7054C265.665 79.6115 264.236 81.6368 264.712 82.1133C265.904 83.1855 274.005 77.7054 274.005 75.6802C274.005 73.2975 271.98 74.0123 267.81 77.7054Z" fill="#272727"></path><path d="M203.359 78.7784C200.858 81.5184 200.858 84.0202 203.121 88.5473C205.385 92.9552 208.244 94.5039 214.32 94.5039C220.991 94.5039 227.067 89.2621 225.875 84.6159C225.399 82.5906 224.088 81.161 222.063 80.6845C218.251 79.7314 217.06 80.9228 218.966 83.782C219.681 85.0924 220.038 86.8794 219.681 87.9516C218.608 90.5725 211.699 90.2151 209.078 87.3559C206.695 84.735 207.41 81.3993 210.269 81.3993C211.46 81.3993 212.056 80.5654 211.818 79.2549C211.222 76.3957 205.861 76.0383 203.359 78.7784Z" fill="#272727"></path><path d="M177.508 86.1643C177.508 86.76 178.699 87.3556 180.248 87.3556C181.677 87.3556 185.251 88.6661 188.111 90.3339C193.829 93.6697 194.186 93.7888 194.186 92.2401C194.186 91.6444 191.804 89.7383 188.945 88.0704C183.584 84.973 177.508 83.9008 177.508 86.1643Z" fill="#272727"></path><path d="M233.381 90.572C231.951 94.5034 230.283 95.6947 226.113 95.6947C224.326 95.6947 222.659 96.1712 222.301 96.7669C220.991 98.7921 225.041 100.579 230.045 100.222C236.24 99.7452 240.29 95.3373 238.98 90.4529C238.027 86.4023 234.929 86.5215 233.381 90.572Z" fill="#272727"></path><path d="M365.737 89.7387C365.737 92.8361 361.329 96.6484 353.466 100.461C347.867 103.201 347.271 103.796 346.914 107.847C346.438 113.089 340.957 118.331 333.452 120.594C329.64 121.785 328.329 122.977 326.423 127.027C323.921 132.269 318.918 136.2 314.629 136.2C313.2 136.2 311.174 137.273 310.102 138.464C308.911 139.655 306.647 142.157 305.099 143.825C302.716 146.565 301.405 146.922 294.972 146.922C287.348 146.922 282.463 148.948 284.012 151.449C285.203 153.475 298.308 153.236 303.192 151.211C305.813 150.02 307.958 147.875 309.387 145.016C311.055 141.681 312.842 140.251 317.25 138.583C324.279 135.843 325.708 134.771 327.972 129.886C329.521 126.789 331.069 125.717 335.239 124.525C342.864 122.5 349.058 116.782 349.058 111.778C349.058 108.085 349.535 107.728 355.134 105.702C366.452 101.652 373.481 93.1935 369.073 88.7856C366.928 86.6412 365.737 86.9986 365.737 89.7387Z" fill="#272727"></path><path d="M321.659 92.9552C321.659 99.031 319.395 102.367 312.009 107.609C306.29 111.659 304.98 113.208 304.265 116.901C302.597 126.431 296.76 132.15 286.395 134.89C280.319 136.558 275.197 140.37 275.197 143.467C275.197 146.684 277.579 146.327 283.179 142.276C285.68 140.489 290.207 137.868 293.186 136.558C299.738 133.699 305.695 127.027 307.363 120.713C308.435 116.901 309.984 115.114 315.583 111.302C322.135 106.775 326.424 100.937 326.424 96.5292C326.424 95.5761 325.352 93.5509 324.041 92.0021L321.778 89.143L321.659 92.9552Z" fill="#272727"></path><path d="M178.699 92.0028C178.699 92.5984 179.652 94.2663 180.844 95.6959C182.392 97.7211 183.703 98.1977 185.609 97.602C189.421 96.4107 188.825 93.7898 184.537 92.241C179.891 90.6923 178.699 90.5732 178.699 92.0028Z" fill="#272727"></path><path d="M435.192 101.056C431.26 102.366 427.567 102.486 418.871 101.532C404.932 100.103 398.022 102.128 403.026 106.179C404.336 107.251 422.802 108.323 432.094 107.847C436.026 107.608 443.65 102.247 442.459 100.341C441.744 99.0307 441.625 99.0307 435.192 101.056Z" fill="#272727"></path><path d="M391.351 111.539C392.661 116.543 383.726 122.023 371.813 123.691C366.69 124.406 365.737 124.882 366.452 126.55C368.12 130.482 367.405 132.983 364.189 135.485C361.329 137.629 359.066 137.987 349.654 137.987L338.456 138.106L332.023 144.182C328.568 147.518 323.326 151.449 320.586 152.878C312.962 156.691 300.095 159.073 291.756 158.12C283.059 157.167 278.771 158.12 278.771 161.099C278.771 162.29 279.604 163.72 280.677 164.077C284.727 165.626 301.406 164.673 310.341 162.409C321.301 159.669 328.449 155.738 334.882 148.947C339.647 144.182 339.647 144.182 347.987 144.42C359.185 144.777 368.239 140.727 371.098 134.056C372.885 130.124 373.838 129.409 379.199 128.099C390.279 125.478 400.167 116.305 397.188 111.539C396.474 110.348 394.687 109.276 393.257 109.038C390.994 108.68 390.755 109.038 391.351 111.539Z" fill="#272727"></path><path d="M238.503 218.64C238.861 219.474 240.29 220.427 241.839 220.546C244.341 220.904 244.46 220.785 243.15 219.117C241.243 216.853 237.908 216.615 238.503 218.64Z" fill="#272727"></path></svg> 