<?xml version="1.0" encoding="UTF-8"?> <svg xmlns="http://www.w3.org/2000/svg" width="336" height="202" viewBox="0 0 336 202" fill="none"><path d="M144.972 3.33579C141.041 5.19248 133.941 9.45194 129.136 12.9469C120.18 19.4999 101.722 30.5308 95.3878 33.1521C90.8007 35.0087 84.1385 40.9065 82.0633 44.8383C78.2407 52.3743 82.0633 65.3711 89.2717 68.9753C91.456 70.1766 95.3878 70.9412 98.5551 70.8319C104.453 70.8319 104.78 71.0504 94.4049 66.7909C82.9371 62.0946 81.6265 50.0807 91.456 38.9406C95.2786 34.5719 97.6814 33.4797 95.8247 36.9747C92.1113 43.9645 98.009 55.4323 107.292 58.9273C111.334 60.5655 122.692 60.4563 130.774 58.9273C136.126 57.9443 156.331 50.1899 155.566 49.4254C155.02 48.9885 141.914 52.265 134.815 54.5586C125.641 57.6167 116.248 57.3982 107.074 54.0125C103.033 52.5927 99.1012 50.5176 98.3367 49.4254C94.8417 44.7291 98.4459 36.4286 105.327 32.9336C107.62 31.7322 112.972 30.2032 117.122 29.4387C128.481 27.3635 138.201 24.1963 145.518 20.1552C155.457 14.5851 158.297 14.4759 167.362 18.8446C179.267 24.7423 183.635 28.4557 187.458 36.1009C192.809 46.8042 192.7 46.8042 180.249 46.2581C172.714 45.9304 167.69 46.2581 163.539 47.3503C157.969 48.8793 157.86 48.9885 161.901 48.6609C168.454 48.224 186.147 49.8623 188.659 51.2821C191.717 52.9203 191.608 56.0876 188.441 55.3231C187.021 54.9955 179.485 54.3402 171.621 54.0125L157.423 53.248L136.126 60.4563C124.44 64.4973 112.972 68.2107 110.569 68.7568C106.528 69.5213 106.746 69.6306 113.846 69.849L121.491 70.0674L115.484 72.0333C110.46 73.6716 106.746 73.89 93.0943 73.5624L76.7117 73.0163L83.2647 75.3098C88.8348 77.2758 91.7837 77.4942 102.378 77.1665C115.702 76.7297 121.818 74.873 129.027 69.4121C133.505 66.0264 145.518 60.0195 147.812 60.0195C148.904 60.0195 147.703 61.3301 144.863 63.296C142.242 65.1527 135.689 69.849 130.228 73.7808C115.375 84.3749 112.426 85.5762 102.487 84.7025C97.8998 84.2656 90.9099 83.6103 86.9781 83.2827C82.9371 82.955 76.2748 83.0643 72.2338 83.5011L64.6978 84.3749L76.1656 85.7947C82.5002 86.5592 92.2205 87.2145 97.7906 87.2145C105.763 87.3237 107.839 87.6514 107.839 88.962C107.839 90.7094 106.31 91.0371 88.7256 92.7846C82.1726 93.3307 73.7628 94.3136 70.1587 94.9689C66.5545 95.515 55.742 96.9348 46.1309 98.2454C27.2364 100.757 19.0451 103.051 12.3828 107.857C5.0653 112.99 3.64547 115.829 3.09939 125.877C2.88095 131.338 2.11643 135.707 1.13348 137.236C-0.395559 139.529 -0.395559 139.966 1.2427 141.823C2.33487 143.024 4.30078 144.226 5.82982 144.553C7.46807 144.99 8.45103 146.083 8.45103 147.284C8.45103 149.796 17.2976 158.096 21.5571 159.625C23.523 160.281 25.7073 162.356 27.2364 164.977C28.547 167.271 31.4958 170.547 33.6802 172.076C41.653 177.646 61.749 177.428 69.5034 171.749C72.1246 169.783 74.3089 169.455 86.1044 169.237C110.678 168.8 117.668 169.127 118.105 170.547C123.238 190.315 127.498 193.92 146.283 194.903C159.061 195.667 164.304 192.063 171.403 178.083C174.57 171.858 175.007 170.001 174.898 162.793C174.898 154.492 171.184 139.529 169 138.11C168.454 137.782 167.362 136.362 166.707 135.052C165.724 133.086 166.051 133.304 168.891 135.925C174.133 140.84 178.065 150.014 178.284 157.769C178.502 163.776 178.72 164.322 181.123 164.649C182.434 164.868 188.222 163.994 193.792 162.683L203.84 160.172L208.974 165.851C212.359 169.564 216.728 172.95 221.643 175.353C231.145 180.158 238.244 187.257 240.756 194.575C243.923 203.64 246.763 203.203 247.636 193.483C248.183 187.367 248.183 187.257 251.459 187.585C253.316 187.803 256.811 188.896 259.323 189.988C262.599 191.408 264.128 191.626 265.002 190.752C265.876 189.879 266.203 189.879 266.203 190.861C266.203 192.5 269.043 192.609 270.026 191.08C271.337 189.005 266.094 183.544 256.92 177.537C245.671 170.11 229.616 156.24 230.926 154.929C231.363 154.492 236.496 153.509 242.176 152.854C247.855 152.199 256.483 150.451 261.289 148.922L270.026 146.301L273.849 150.67C275.924 153.072 279.091 155.475 280.729 156.13C287.938 158.752 299.624 156.677 304.757 151.98C307.597 149.468 310.655 143.243 311.528 138.328C312.184 134.724 313.057 133.85 317.972 131.338C331.297 124.567 336.211 117.358 335.993 104.362C335.884 94.9689 333.918 84.9209 332.061 84.2656C330.205 83.7196 330.314 86.2315 332.28 94.4228C334.136 101.959 334.355 111.024 332.935 114.956C331.952 117.358 316.334 127.734 313.604 127.734C311.856 127.734 309.999 116.922 311.528 115.939C312.293 115.502 313.167 113.427 313.494 111.351C313.822 109.276 314.477 106.327 314.914 104.798C315.242 103.269 314.15 104.471 312.293 107.638C308.361 114.191 302.463 119.652 296.129 122.382C292.743 123.911 288.593 124.458 279.091 124.567C266.859 124.785 266.531 124.785 259.65 121.072C255.828 119.106 249.93 114.737 246.544 111.351C241.083 106.109 239.773 103.925 236.059 94.4228C231.035 81.2076 228.196 76.6204 221.643 71.5965C217.274 68.1015 216.946 67.6646 219.349 67.6646C227.977 67.7739 244.251 81.6444 250.585 94.4228C252.66 98.5731 255.719 103.706 257.248 105.781C263.473 114.082 278.873 116.594 290.231 111.133C293.508 109.604 297.767 106.983 299.515 105.454L302.791 102.723L299.405 102.614C295.255 102.614 289.576 104.471 285.644 107.201C283.678 108.621 280.511 109.386 276.361 109.495L270.026 109.713L269.698 103.379C269.48 98.7915 268.934 97.1533 267.842 97.1533C266.64 97.1533 266.203 98.4639 266.203 102.068C266.203 104.798 265.657 106.983 265.111 106.983C264.456 106.983 264.019 106.109 264.237 105.017C264.456 103.815 263.801 103.051 262.162 102.833C260.196 102.505 254.189 96.3887 254.189 94.6413C254.189 93.8767 267.296 91.9108 277.671 91.1463C285.316 90.491 305.085 86.5592 301.48 86.3408C300.716 86.2315 300.061 84.8117 300.061 83.1735C300.061 81.3168 299.078 79.1324 297.767 77.9311C295.692 76.0744 293.726 75.9651 269.152 76.1836L242.722 76.5112L239.445 73.1255C235.841 69.1937 226.994 64.3881 223.718 64.3881C220.66 64.3881 220.332 63.296 221.643 58.272L222.844 53.9033L228.96 55.76C237.152 58.272 251.568 60.0195 263.364 60.0195C273.739 60.0195 301.917 65.2619 307.597 68.2107C310.327 69.5213 313.167 74.4361 313.167 77.6034C313.167 78.1495 310.764 78.5864 307.815 78.5864C302.9 78.5864 299.951 80.0062 301.59 81.5352C301.917 81.8629 304.32 82.409 307.051 82.6274C312.839 83.2827 312.73 85.0302 306.832 85.3578L302.791 85.467L306.395 85.9039C310.436 86.45 311.747 88.3067 309.999 91.474C308.798 93.7675 305.412 94.532 285.316 97.1533C277.016 98.2454 273.739 99.556 275.268 101.194C275.705 101.522 281.603 100.867 288.374 99.556C295.037 98.2454 302.027 97.1533 303.774 97.1533C306.395 97.1533 306.723 97.3717 305.521 98.7915C304.757 99.7745 304.648 100.43 305.303 100.43C306.832 100.43 312.839 93.4399 313.713 90.7094C314.914 86.6684 316.443 88.1975 316.552 93.5491C316.552 96.498 316.88 98.1362 317.208 97.3717C317.426 96.7164 319.064 96.0611 320.703 96.0611C324.416 96.0611 328.02 93.5491 326.928 91.8016C326.382 90.9279 324.853 90.7094 322.887 91.1463C320.047 91.8016 319.72 91.5832 319.72 89.0712C319.72 86.45 320.047 86.2315 324.634 86.2315C328.239 86.2315 329.549 85.7947 329.549 84.5933C329.549 83.7196 328.785 82.955 327.911 82.955C327.037 82.955 326.273 82.5182 326.273 81.9721C326.273 81.426 324.962 80.7707 323.433 80.5523C320.266 80.2246 319.938 79.7877 316.443 72.0333C313.167 64.7158 296.893 47.6779 289.903 44.2922C278.763 38.8313 260.087 37.8484 246.872 41.8894C242.176 43.3092 234.858 45.3844 230.599 46.4765C222.844 48.4424 222.844 48.4424 219.895 46.0397C216.51 43.4185 206.134 40.9065 202.748 41.9986C201.001 42.5447 200.345 42.2171 199.799 40.1419C198.489 34.8995 188.332 16.005 184.727 11.9639C182.215 9.23351 178.065 6.6123 171.84 3.88188C160.044 -1.14211 154.693 -1.25133 144.972 3.33579ZM168.345 5.84779C173.15 7.8137 189.315 22.1211 191.39 26.1622C193.574 30.3124 196.414 42.5447 195.212 42.5447C194.666 42.5447 194.011 41.5618 193.574 40.4696C192.263 36.2101 178.065 20.1552 172.932 16.8787C168.672 14.3667 166.051 13.6022 160.154 13.2745C150.324 12.7285 149.013 13.0561 138.419 20.046C129.573 25.9437 123.566 28.0188 117.559 27.0359C115.047 26.7082 115.156 26.4898 118.76 24.6331C120.835 23.4317 125.75 19.4999 129.682 15.7865C140.604 5.19249 142.679 4.31875 154.583 4.31875C160.809 4.31875 166.16 4.86484 168.345 5.84779ZM283.569 47.5687C296.347 52.7019 304.32 57.5075 307.378 62.0946C308.798 64.1697 309.89 66.2448 309.89 66.6817C309.89 67.2278 306.286 65.6987 302.027 63.296C297.658 61.0024 291.979 58.5996 289.467 57.9443C287.064 57.289 274.504 56.5245 261.616 56.3061C243.377 55.9784 237.261 55.4323 233.22 54.0125C230.271 53.0296 227.977 51.8282 227.977 51.3913C227.977 50.1899 239.882 45.4936 244.906 44.6198C247.309 44.2922 254.845 43.8553 261.507 43.7461C273.193 43.6369 274.285 43.8553 283.569 47.5687ZM215.636 49.5346C218.585 53.0296 219.022 60.0194 216.4 62.6407C215.199 63.9513 213.561 64.1697 210.175 63.6236C203.185 62.5314 194.885 59.4734 193.683 57.5075C192.154 55.2139 194.775 50.4083 199.035 47.7871C203.84 44.7291 212.25 45.6028 215.636 49.5346ZM202.311 65.6987C206.352 67.1186 209.847 69.3029 211.486 71.1596L213.998 74.3269L209.52 84.0472C204.823 94.3136 204.168 97.1533 206.571 97.1533C207.445 97.1533 208.646 94.9689 209.41 91.9108C211.376 85.0302 211.049 85.1394 215.417 86.5592C218.366 87.4329 219.24 88.3067 219.24 90.2726C219.24 91.8016 218.475 93.1122 217.383 93.4399C212.032 95.0781 210.612 97.4809 214.653 98.027C215.963 98.2454 217.056 98.9007 217.056 99.4468C217.056 101.85 213.67 106.874 211.486 107.529C209.738 108.075 209.41 108.839 209.847 110.805C210.284 112.444 209.738 113.863 208.318 115.174C206.134 117.14 206.134 117.031 206.789 110.478C207.554 103.051 206.898 99.6652 204.714 101.085C202.53 102.723 182.761 101.194 182.325 99.4468C182.106 98.2454 183.417 98.1362 189.424 98.6823C194.885 99.1192 197.397 98.9007 198.816 97.8086C200.892 96.1703 208.755 79.7877 209.847 74.5453C210.284 72.6886 210.175 70.8319 209.52 70.5043C208.974 70.1766 204.386 69.0845 199.362 68.2107C194.339 67.337 187.567 65.5895 184.291 64.3881L178.284 62.2038L187.021 62.8591C191.827 63.1867 198.707 64.4974 202.311 65.6987ZM162.447 65.4803C164.522 66.1356 174.243 67.337 183.963 68.2107C193.574 69.0845 202.857 70.2859 204.496 70.9412C207.991 72.2518 207.008 74.4361 203.294 73.5624C198.816 72.4702 195.54 73.89 194.229 77.6034C192.7 82.1905 192.7 82.955 194.557 82.955C195.431 82.955 196.414 81.7537 196.741 80.2246C197.287 78.0403 198.161 77.4942 200.673 77.4942C204.277 77.4942 204.496 77.8218 202.748 82.8458C201.438 86.45 201.219 86.5592 194.775 85.467C190.625 84.8117 190.625 84.8117 191.28 80.7707C192.045 75.5283 190.953 74.6545 182.434 73.6716C174.461 72.7979 171.621 73.9992 170.311 78.914C169.437 82.2997 169.219 82.4089 162.338 83.0643C158.515 83.5011 151.089 83.8288 145.846 83.938C137.655 84.0472 136.017 84.3749 134.16 86.3408C132.085 88.5251 131.757 88.6343 125.095 87.1053L118.214 85.5762L123.675 82.7366C126.733 81.2076 131.32 77.931 134.051 75.6375C145.846 65.2619 152.945 62.7499 162.447 65.4803ZM189.642 77.0573C189.751 77.1665 189.315 79.4601 188.441 82.0813L186.803 86.7776H180.905C173.915 86.7776 172.386 88.4159 177.737 90.2726L181.56 91.5832H177.191C174.789 91.5832 168.454 90.9279 162.993 90.0541C157.642 89.1804 149.996 88.4159 146.065 88.3067L138.965 88.1974L148.249 86.7776C161.573 84.7025 169 84.7025 169 86.7776C169 87.6514 169.765 88.4159 170.638 88.4159C171.731 88.4159 172.277 87.3237 172.277 85.2486C172.277 78.8048 173.915 76.6204 179.048 76.1836C183.308 75.7467 188.659 76.1836 189.642 77.0573ZM222.844 78.6956C226.448 83.7196 226.776 88.0882 223.936 101.522C222.516 108.403 220.66 116.375 219.677 119.215C216.4 129.154 218.148 142.26 224.155 153.946C227.65 160.608 234.749 167.161 243.595 171.53C251.35 175.462 261.835 183.544 261.835 185.619C261.835 186.056 258.995 185.401 255.5 184.199C247.636 181.36 245.452 182.015 245.452 187.257C245.452 189.332 245.015 191.08 244.469 191.08C243.923 191.08 238.79 186.82 233.111 181.469C227.431 176.226 219.568 169.127 215.527 165.523C200.345 152.308 198.38 144.117 206.243 127.079C208.755 121.727 213.015 113.973 215.854 109.822L220.878 102.396L220.769 91.8016C220.66 86.0131 220.114 79.897 219.349 78.2587C217.82 74.3269 219.677 74.6545 222.844 78.6956ZM216.4 79.2416C217.493 82.0813 217.165 82.955 214.871 82.955C213.67 82.955 212.687 82.5182 212.687 81.9721C212.687 80.1154 213.998 77.4942 214.871 77.4942C215.308 77.4942 216.073 78.2587 216.4 79.2416ZM282.367 79.7877C292.415 80.8799 295.692 81.9721 295.692 84.1564C295.692 84.7025 293.617 85.1394 291.105 85.1394C288.484 85.1394 282.258 85.7947 277.125 86.6684C271.992 87.5422 263.801 88.6343 258.886 88.962L249.93 89.7265L247.636 86.0131C243.705 79.4601 243.268 79.6785 265.985 78.8048C269.152 78.6956 276.47 79.1324 282.367 79.7877ZM129.027 90.6002C136.563 91.0371 143.116 91.8016 143.771 92.1293C144.317 92.4569 151.635 93.4399 160.044 94.3136C176.318 95.9519 184.072 98.1362 173.806 98.2454C170.748 98.2454 165.505 98.7915 162.338 99.3376C159.061 99.9929 151.962 100.976 146.392 101.522C139.402 102.177 131.32 104.034 119.088 108.075C101.613 113.645 94.7325 116.812 94.7325 119.106C94.7325 120.635 96.2616 120.198 108.822 114.628C116.03 111.461 121.6 109.822 127.388 109.167C131.976 108.621 139.293 107.42 143.662 106.546C148.03 105.563 153.273 104.908 155.13 104.908L158.625 105.126L155.348 105.563C153.601 105.781 146.938 107.42 140.604 109.167C134.269 110.805 125.859 112.99 121.818 113.863C117.777 114.846 112.426 116.594 109.804 117.686C107.183 118.887 102.705 120.198 99.6473 120.635C93.6404 121.509 90.3638 122.928 90.3638 124.458C90.3638 125.113 91.7837 125.55 93.5311 125.55C96.2616 125.55 96.8076 125.987 96.6984 127.952C96.5892 129.372 96.5892 133.304 96.6984 136.69L96.9169 143.024H100.739C105.436 143.024 106.746 140.84 106.746 132.867C106.746 127.079 106.637 126.86 103.251 126.096C100.084 125.44 99.8657 125.222 101.832 124.458C107.948 121.836 112.098 125.222 113.081 133.741C113.409 137.454 113.081 138.656 110.678 140.84C107.511 143.898 106.965 146.301 109.477 146.301C113.846 146.301 115.921 133.304 112.863 124.785L111.334 120.416L122.364 116.922C128.699 114.846 137.764 112.99 143.334 112.444C148.795 111.898 155.676 110.915 158.625 110.369C161.683 109.713 168.782 108.73 174.461 108.075C182.871 107.201 195.212 105.563 202.311 104.471C203.95 104.143 204.277 121.727 202.748 124.676C201.984 125.987 201.11 129.809 200.782 133.086L200.127 139.093L194.775 140.185C186.912 141.932 186.584 144.553 194.448 143.571L200.455 142.806L200.892 146.956C201.219 149.359 201.438 151.325 201.328 151.434C201.219 151.543 197.724 152.199 193.574 152.854C182.325 154.492 181.014 154.929 181.014 156.677C181.014 158.642 182.98 158.642 191.39 156.677C199.581 154.711 202.857 154.601 202.857 156.458C202.857 157.441 200.018 158.315 194.448 159.189C179.594 161.482 180.359 161.81 179.594 152.199C178.72 142.915 176.208 136.144 171.949 132.212C168.017 128.717 157.095 126.205 151.744 127.734C145.955 129.263 142.57 133.195 134.706 147.502C128.808 158.206 127.17 160.39 122.692 163.12C118.105 165.96 116.358 166.397 106.419 166.834C98.5551 167.161 93.0943 166.725 87.8518 165.523C83.7016 164.54 77.1486 163.776 73.1075 163.776C69.0665 163.666 62.6227 163.011 58.6909 162.137C54.7591 161.264 47.2231 160.608 41.7622 160.499C33.2433 160.499 31.059 160.062 25.3797 157.332C19.2635 154.383 11.7275 148.048 13.0381 146.847C13.2566 146.519 18.3898 147.939 24.3967 150.014C35.3184 153.728 41.7622 154.711 79.9882 158.424C87.1965 159.079 95.8247 159.953 99.1012 160.39C111.552 161.81 124.003 159.298 126.842 154.82C129.354 150.779 125.859 149.687 108.385 149.031C99.4289 148.594 88.0703 147.612 83.1555 146.738C78.35 145.864 72.2338 145.209 69.5034 145.209C66.8822 145.209 61.5305 144.444 57.7079 143.571C53.7761 142.588 45.4756 141.386 39.141 140.949C31.2774 140.294 24.1783 138.874 16.97 136.471C6.04825 132.976 3.31782 131.12 9.98006 131.884C14.458 132.43 15.5501 131.011 15.1133 125.004C14.7856 118.232 14.0211 116.812 11.1815 116.812C9.76163 116.812 8.34181 116.375 8.01416 115.829C6.92199 114.082 11.8368 109.276 15.8778 108.075C21.7755 106.437 23.7414 106.764 19.9188 108.73C13.9119 111.898 11.6183 113.645 12.2736 114.519C12.6013 115.065 17.8437 113.317 23.9599 110.587C36.7383 105.126 62.7319 99.3376 74.3089 99.3376L81.0804 99.4468L75.6195 101.631C72.6707 102.833 65.2439 105.563 59.237 107.747C47.5507 111.898 42.3083 114.846 42.3083 117.577C42.3083 118.778 41.653 119.106 39.9055 118.669C38.4857 118.232 33.3525 117.686 28.4378 117.249L19.482 116.485L18.2806 119.434C16.6423 123.911 16.97 129.372 19.1543 131.884C20.5741 133.523 23.9599 134.505 33.0249 135.925C39.6871 136.908 47.2231 138.219 49.9535 138.656C52.6839 139.202 58.1448 139.639 62.0766 139.639C66.0084 139.748 72.0154 140.294 75.5103 140.949C79.0053 141.605 83.0463 141.823 84.3569 141.495C87.9611 140.622 89.7085 135.488 88.6164 129.154L87.6334 123.911L77.8039 122.055C72.343 121.072 63.6057 120.089 58.1448 119.98C41.3254 119.761 40.9977 119.106 54.3222 112.662C66.4453 106.764 81.1896 103.051 104.016 99.8837C135.689 95.6242 141.041 93.986 122.037 94.3136C111.552 94.4228 103.47 95.1873 98.1182 96.3887C93.7496 97.4809 89.4901 98.1362 88.8348 97.9178C88.1795 97.6993 92.439 96.3887 98.3367 94.9689C104.125 93.6583 108.931 92.1293 108.931 91.5832C108.931 91.0371 109.804 89.7265 110.897 88.5251C112.535 86.7776 112.972 86.7776 114.064 88.0882C114.938 89.2896 119.197 89.9449 129.027 90.6002ZM199.581 90.491C199.472 93.1122 197.397 93.986 192.591 93.3307C187.895 92.5661 187.567 92.3477 189.096 90.7094C190.297 89.3988 192.045 89.0712 195.212 89.2896C197.615 89.5081 199.581 90.0541 199.581 90.491ZM233.657 99.4468C235.95 104.798 235.513 105.891 231.035 105.891C227.759 105.891 227.759 105.781 228.414 101.74C228.742 99.556 229.07 97.044 229.07 96.2795C229.07 93.3307 231.909 95.2966 233.657 99.4468ZM240.865 111.898C244.36 117.468 250.913 121.727 259.104 123.911C266.094 125.877 266.203 125.987 266.203 129.482C266.203 131.557 266.749 133.195 267.296 133.195C267.951 133.195 268.388 131.884 268.388 130.355C268.388 127.734 268.715 127.516 271.773 128.171C273.63 128.499 275.924 128.826 276.688 128.826C277.78 128.826 278.217 130.464 278.217 134.724V140.622L268.497 142.915C252.66 146.629 253.971 145.209 270.354 140.84C273.193 140.076 274.941 139.093 274.941 138C274.941 136.69 274.176 136.471 271.992 136.908C270.244 137.236 266.531 137.782 263.473 138.219C260.524 138.547 254.299 139.748 249.821 140.84C239.991 143.243 222.407 146.519 221.97 146.083C221.752 145.864 221.424 144.553 221.206 143.134C220.878 140.731 221.534 140.185 225.793 138.983C228.523 138.11 237.588 136.799 245.998 135.925C263.473 134.069 264.019 133.85 264.019 131.447C264.019 129.918 263.145 129.7 257.248 130.355C253.425 130.792 246.435 132.103 241.629 133.195C236.824 134.287 230.052 135.598 226.448 136.035C220.551 136.69 220.114 136.581 220.769 134.724C221.097 133.523 222.08 128.171 223.063 122.819C225.575 107.966 225.138 108.621 234.53 108.184C237.807 108.075 238.681 108.73 240.865 111.898ZM11.7275 122.492C11.7275 123.911 12.0552 126.096 12.3828 127.406C13.3658 130.792 11.2907 130.574 9.76163 127.188C8.01416 123.256 8.12337 120.089 10.0893 120.089C11.0722 120.089 11.7275 121.072 11.7275 122.492ZM49.4074 122.164L53.7761 123.147L48.3153 123.256C45.2572 123.256 42.3083 123.802 41.7622 124.348C40.4516 125.44 19.9188 123.147 21.1202 121.946C22.2124 120.853 43.8374 121.072 49.4074 122.164ZM307.051 124.676C309.235 133.086 306.723 148.485 302.573 151.762C298.75 154.711 291.432 154.711 287.501 151.543C281.821 147.065 278.545 135.052 281.931 130.464C284.552 126.86 286.955 129.154 286.955 135.379C286.955 144.663 290.559 148.485 297.221 146.301C303.009 144.444 305.194 136.144 301.699 129.918C299.515 126.096 299.733 125.004 302.573 123.584C305.958 121.946 306.286 121.946 307.051 124.676ZM71.2509 125.659C79.1145 126.423 83.8108 127.406 84.903 128.499C86.3228 129.918 86.2136 130.028 83.2647 129.482C81.5173 129.154 75.4011 128.389 69.7218 127.734C64.1517 127.079 58.254 125.877 56.6158 124.894L53.7761 123.256L56.5065 123.911C58.0356 124.239 64.6978 125.004 71.2509 125.659ZM53.3392 127.843C56.6158 129.482 54.7591 131.011 49.4074 131.011C44.6019 131.011 42.636 129.809 43.9466 127.734C44.8203 126.314 50.6088 126.314 53.3392 127.843ZM298.968 129.482C301.48 135.925 299.078 141.932 293.944 141.932C287.719 141.932 287.391 129.591 293.508 127.406C296.784 126.205 297.986 126.642 298.968 129.482ZM38.7042 129.918C39.0318 131.12 39.7963 132.103 40.4516 132.103C41.2161 132.103 41.3254 132.43 40.5608 133.195C39.3595 134.396 29.7484 133.086 24.6152 131.12C19.1543 129.045 21.2294 127.734 29.8576 127.734C37.1751 127.734 38.1581 127.952 38.7042 129.918ZM105.108 135.052C104.78 135.925 104.562 137.564 104.562 138.765C104.562 139.857 103.907 140.84 103.033 140.84C101.504 140.84 99.8657 131.447 101.067 129.482C101.941 127.952 105.873 133.304 105.108 135.052ZM82.5002 132.54C86.5412 132.649 84.903 135.925 80.5343 136.253C76.6025 136.69 56.6158 134.505 54.9775 133.523C52.2471 131.775 58.254 131.011 68.5204 131.666C74.855 132.103 81.0804 132.54 82.5002 132.54ZM160.918 134.505C172.058 143.243 174.461 151.871 169.983 168.8C167.034 180.267 164.631 183.762 157.86 187.148C150.652 190.752 146.065 190.752 141.805 187.257C136.563 182.779 134.706 175.353 135.47 162.247C135.907 156.13 136.344 149.905 136.563 148.376C137.546 141.932 148.14 132.103 154.365 132.103C156.222 132.103 159.171 133.195 160.918 134.505ZM17.1884 138.765C21.1202 139.311 28.9838 141.277 34.6631 143.134C40.3424 144.881 49.189 146.847 54.3222 147.393C59.4554 147.939 66.3361 148.922 69.5034 149.577C72.7799 150.124 80.0974 150.67 85.8859 150.67C96.0431 150.67 113.955 152.199 120.18 153.509C122.583 154.055 123.02 154.492 122.146 155.475C121.272 156.24 114.282 156.786 102.05 157.004C86.9781 157.332 81.7357 157.004 76.1656 155.584C72.2338 154.601 64.4794 153.291 58.9093 152.745C53.3392 152.199 46.0217 151.106 42.5268 150.233C39.141 149.25 31.9327 148.048 26.5811 147.502C16.0962 146.301 5.17451 142.041 5.17451 139.093C5.17451 137.236 7.57729 137.236 17.1884 138.765ZM280.074 148.485C281.712 151.543 281.931 152.854 281.057 152.854C279.528 152.854 273.849 147.612 273.849 146.192C273.849 145.536 275.596 144.444 277.125 144.226C277.453 144.117 278.763 146.082 280.074 148.485ZM242.176 147.83C240.1 148.594 236.387 149.577 233.984 149.905C229.616 150.56 229.616 150.56 235.076 148.485C238.135 147.393 241.739 146.519 243.268 146.41C245.561 146.41 245.452 146.629 242.176 147.83ZM54.3222 166.069C60.6568 166.725 66.0084 167.489 66.3361 167.707C67.2098 168.581 61.749 172.295 57.7079 173.714C51.4826 175.79 39.7963 172.95 34.117 167.926C28.2193 162.793 28.9838 161.482 36.629 163.339C40.0148 164.213 47.9876 165.414 54.3222 166.069ZM130.774 166.288C130.774 171.53 134.16 179.831 138.419 184.964C140.822 187.913 142.57 190.534 142.351 190.752C141.15 191.954 130.556 189.551 127.935 187.476C124.44 184.745 121.054 177.537 120.945 172.95C120.945 170.329 121.818 169.018 125.095 166.834C130.228 163.23 130.774 163.23 130.774 166.288Z" fill="#272727"></path><path d="M194.666 109.275C192.263 109.712 184.837 110.695 178.174 111.241C171.512 111.787 162.229 113.316 157.423 114.518C152.727 115.61 145.082 117.139 140.604 117.903C128.808 119.651 124.221 121.071 124.221 122.818C124.221 125.003 125.204 124.893 138.965 121.18C145.628 119.432 153.71 117.903 156.986 117.903C160.263 117.903 166.707 117.139 171.294 116.265C175.881 115.391 184.072 114.408 189.424 113.972C194.885 113.535 200.018 112.879 200.782 112.443C202.093 111.569 201.438 107.965 199.909 108.183C199.472 108.292 197.069 108.729 194.666 109.275Z" fill="#272727"></path><path d="M146.61 123.802C141.914 125.877 130.774 138.437 130.774 141.604C130.774 143.024 130.992 144.116 131.211 144.116C131.429 144.116 133.941 140.949 136.672 137.017C145.846 124.239 155.02 121.508 167.471 127.734C177.191 132.539 180.358 136.362 181.014 143.898C181.451 148.485 181.997 150.123 183.198 150.123C184.509 150.123 184.836 148.812 184.727 144.444C184.509 136.799 181.014 129.809 175.334 125.986C171.293 123.146 169.874 122.819 160.372 122.491C153.273 122.382 148.795 122.71 146.61 123.802Z" fill="#272727"></path><path d="M291.76 132.649C290.777 135.161 292.088 137.563 294.6 137.563C297.33 137.563 298.641 134.833 296.784 132.649C295.037 130.574 292.525 130.574 291.76 132.649Z" fill="#272727"></path><path d="M151.307 142.697C151.198 143.243 149.123 144.99 146.829 146.738C140.058 151.762 138.201 155.475 138.638 163.885C138.966 169.782 139.621 171.858 142.024 175.134C149.669 185.073 159.608 184.418 163.976 173.605C168.454 162.246 166.925 150.451 160.154 144.663C156.986 142.041 152.072 140.949 151.307 142.697ZM158.297 146.41C161.027 147.939 164.522 155.584 164.632 160.281C164.632 170.11 153.601 181.141 147.594 177.1C143.334 174.26 141.041 158.533 143.88 151.652C146.174 146.301 153.164 143.68 158.297 146.41Z" fill="#272727"></path><path d="M148.904 153.508C146.939 155.474 146.611 162.792 148.249 166.068C149.014 167.379 150.543 168.144 152.618 168.144C156.331 168.144 158.079 165.632 158.079 160.28C158.079 156.02 157.314 154.71 154.038 152.962C150.98 151.433 150.87 151.433 148.904 153.508ZM154.584 160.717C155.021 164.43 151.416 166.833 149.341 164.212C148.249 163.01 148.249 162.027 149.232 159.843C150.87 156.239 154.147 156.785 154.584 160.717Z" fill="#272727"></path><path d="M46.6767 71.5951C41.1067 73.9979 36.0827 78.1481 34.226 81.9707C33.243 83.9366 32.4785 85.5749 32.4785 85.7933C32.4785 86.0118 34.7721 85.4657 37.7209 84.7012C44.6016 82.7352 49.9532 81.7523 49.9532 82.5168C49.9532 82.8445 48.6426 84.7012 47.1136 86.4486C43.1818 91.2542 45.2569 92.1279 52.7929 88.9606C56.2878 87.4316 57.8169 86.4486 55.9602 86.7763L52.6837 87.4316L56.2878 84.1551C61.421 79.3495 60.0012 78.2573 49.7348 78.8034C41.1067 79.3495 40.9974 79.3495 43.5094 77.3836C48.2058 73.8887 58.909 71.7043 68.1925 72.3596L76.7114 72.9057L70.1584 71.3767C61.5303 69.52 51.3731 69.52 46.6767 71.5951Z" fill="#272727"></path></svg> 