<?xml version="1.0" encoding="UTF-8"?> <svg xmlns="http://www.w3.org/2000/svg" width="860" height="805" viewBox="0 0 860 805" fill="none"><path d="M280 23.6327C280 56.0327 284.8 122.966 289.333 155.633C291.6 171.233 294.8 190.433 296.8 199.766C297.867 204.833 298.667 209.499 298.667 210.299C298.667 210.966 294.4 207.633 289.067 202.699C267.067 182.299 230 171.766 193.733 175.366C162 178.566 140.4 184.433 116.667 196.033C98.2667 205.099 88.5333 212.433 69.6 231.899C61.3333 240.433 54 247.366 53.3333 247.366C51.7333 247.366 47.3333 232.433 39.3333 200.966C35.8667 187.499 30.8 169.099 27.8667 160.299C21.4667 140.566 9.73333 116.166 4.13333 110.833C0.133333 106.966 0 106.966 0 109.899C0 121.366 19.8667 181.499 38.2667 226.033C49.7333 253.499 49.8667 254.433 47.4667 259.233C44.2667 265.233 44.9333 266.566 49.0667 263.366L52.6667 260.433L53.0667 267.633C53.6 278.699 57.2 302.966 60.1333 314.299C63.0667 325.766 69.0667 340.699 70.8 340.699C73.6 340.699 71.0667 319.899 64.1333 286.033C62 275.366 59.8667 263.633 59.4667 259.899L58.6667 253.099L68.9333 242.433C87.8667 223.099 110.533 209.099 137.333 200.166C155.2 194.299 167.333 191.766 187.333 189.899C216.533 187.099 247.6 193.233 272.933 206.699C287.867 214.566 301.2 224.299 302 227.766C302.267 229.366 303.467 239.633 304.667 250.699C305.867 261.633 307.333 273.099 308 276.033C308.667 278.966 309.333 281.766 309.333 282.166C309.333 282.699 305.333 281.766 300.4 280.033C280.4 273.099 257.2 270.033 226 270.033C198.933 270.033 185.733 271.499 165.467 276.699C124.133 287.499 88.2667 314.166 74 344.833C70.2667 352.833 69.7333 356.699 72.4 356.699C74.8 356.699 79.8667 350.966 86.5333 340.433C102.133 316.033 133.067 296.699 172.8 286.566C211.467 276.833 247.333 277.499 278.667 288.566C292.667 293.499 302.133 299.366 314.667 311.099C333.2 328.166 343.2 341.366 373.067 387.633C383.467 403.633 397.333 423.899 404 432.699C415.867 448.166 434.8 467.499 435.733 464.966C436.133 463.499 421.2 435.366 410.933 418.833C395.6 394.033 355.2 343.366 323.867 309.633C310.8 295.766 310.533 295.366 314.533 295.366C316.8 295.366 318.667 294.699 318.667 293.899C318.667 293.099 316.533 280.033 314 264.966C306.533 219.899 304.533 203.233 298.667 131.366C293.733 72.8327 284.667 3.76604 281.2 0.03271C280.533 -0.633957 280 9.23271 280 23.6327Z" fill="#383C2B"></path><path d="M816.667 67.0992C813.734 71.0992 808.934 77.8992 806.134 81.8992C803.2 86.0325 784.4 113.899 764.267 144.033C727.867 198.299 708.8 225.099 694 242.833C656.134 287.766 630.134 308.966 560.8 351.366C509.067 383.099 487.467 404.166 468.934 441.366C465.6 447.899 461.334 458.033 459.334 463.633C457.334 469.366 454.8 474.699 453.867 475.499C451.067 477.899 451.6 480.699 455.067 480.699C458.667 480.699 475.2 471.766 486 464.033C500.267 453.899 546.134 412.699 543.334 412.699C541.467 412.699 520.534 427.099 509.867 435.766C492.8 449.366 475.334 460.566 473.6 458.833C473.2 458.433 476.134 452.833 480 446.433C497.6 417.366 516.534 399.366 554 376.033C579.467 360.166 586.267 355.499 606.667 339.633C690.667 274.166 758.4 193.099 802.8 104.566C811.6 86.8325 823.067 60.6992 822.4 59.8992C822.134 59.7659 819.6 62.9659 816.667 67.0992Z" fill="#383C2B"></path><path d="M848.133 335.765C800.133 427.765 777.599 457.499 703.599 526.432C646.666 579.499 622.666 607.899 606.533 641.632C601.733 651.632 595.599 667.365 596.533 667.365C596.799 667.365 599.199 663.899 601.999 659.632C615.999 638.432 635.066 616.699 680.666 570.032C756.533 492.432 789.599 454.699 814.533 417.365C829.066 395.365 844.933 364.432 851.733 344.699C857.066 329.099 860.666 315.632 859.866 314.699C859.599 314.432 854.266 323.899 848.133 335.765Z" fill="#383C2B"></path><path d="M224.533 332.032C227.733 340.565 240.4 355.765 261.867 376.832C275.2 389.899 286.133 400.299 286.533 400.032C287.333 399.232 275.867 383.632 262.8 367.765C245.2 346.299 221.467 324.165 224.533 332.032Z" fill="#383C2B"></path><path d="M638.534 349.631C618.267 365.898 583.201 402.031 587.601 402.031C589.334 402.031 605.467 388.565 621.601 373.765C635.467 360.965 651.734 342.565 650.401 341.231C650.001 340.965 644.667 344.698 638.534 349.631Z" fill="#383C2B"></path><path d="M157.734 348.965C158.134 350.698 159.468 357.765 160.668 364.698C164.268 385.631 168.934 406.298 172.801 417.498C179.201 436.298 179.468 434.431 175.201 403.098C173.068 387.631 166.934 364.298 161.868 353.098C158.801 345.898 156.401 343.631 157.734 348.965Z" fill="#383C2B"></path><path d="M83.4665 370.966C85.1999 398.966 84.6665 426.966 82.1332 444.699C73.7332 504.699 73.8665 529.499 82.5332 554.299C85.1999 561.899 93.5999 577.099 98.5332 583.366L101.333 586.699V581.366C101.333 578.433 100.4 572.699 99.3332 568.699C87.4665 525.099 87.0665 520.033 89.9999 448.033C91.8665 401.766 92.1332 386.299 90.9332 374.699C89.1999 358.166 87.3332 351.366 84.3999 351.366C82.5332 351.366 82.5332 353.766 83.4665 370.966Z" fill="#383C2B"></path><path d="M716.133 392.165C690.8 404.831 668.4 427.898 654.666 455.365C651.2 462.298 651.2 462.298 663.333 447.631C669.066 440.565 680.533 429.631 695.2 417.498C722.533 394.698 731.866 386.165 729.866 386.031C728.933 386.031 722.8 388.831 716.133 392.165Z" fill="#383C2B"></path><path d="M326.666 408.432C326.666 410.832 334.666 421.765 339.066 425.498C355.333 438.832 356.399 434.298 340.799 418.565C330.533 408.298 326.666 405.632 326.666 408.432Z" fill="#383C2B"></path><path d="M271.734 444.299C274.667 448.565 279.067 456.165 281.734 461.365C284.267 466.432 287.601 472.165 289.067 474.032L291.734 477.365L292.667 473.765C294.534 466.165 287.601 452.165 277.201 442.832C267.601 434.165 265.334 434.832 271.734 444.299Z" fill="#383C2B"></path><path d="M591.6 449.899C581.466 459.499 577.2 465.233 555.866 498.699C544.4 516.699 538 525.233 529.733 533.633C507.2 556.166 483.866 592.033 474.266 618.966C470.133 630.433 465.866 651.899 464.666 667.366C464 677.766 464 678.433 466 676.166C469.333 671.899 475.6 654.299 483.466 626.966C491.733 598.433 496.933 585.099 504.533 573.633C508.666 567.499 510.266 566.033 513.333 566.033C515.333 566.033 518.4 564.833 520.266 563.499L523.466 560.833L531.466 565.233C535.733 567.633 539.466 570.433 539.6 571.499C539.866 572.566 537.733 575.899 534.933 579.099L530 584.699L521.733 577.366C517.333 573.366 513.2 570.033 512.8 570.033C511.066 570.033 512.133 576.033 514.666 580.166C517.466 584.566 526.666 590.033 531.466 590.033C534.266 590.033 538.933 586.433 541.066 582.566C542.133 580.699 543.2 580.966 549.2 585.499C552.933 588.299 556 590.966 556 591.499C556 592.033 553.466 596.833 550.266 602.299C537.733 623.366 512.4 670.299 503.2 689.366C492.666 711.099 475.333 753.233 470.8 767.899C466.133 782.966 467.2 784.433 475.2 773.633C482.4 763.899 498 731.366 510 700.699C528 654.433 540.266 628.566 552.266 610.699C558.933 600.833 566.266 592.299 564.8 596.033C556 619.099 548.4 648.166 549.733 653.766C550.266 655.899 556.666 643.499 570.666 612.699C580.533 591.366 594.4 565.099 605.6 546.966C611.466 537.499 616.666 528.299 617.333 526.566C621.066 516.833 609.2 526.566 590 549.366C582.8 557.766 576.4 564.699 576 564.699C572.933 564.699 546.133 551.766 538.4 546.699L529.333 540.699L534.133 532.966C536.8 528.833 546 518.166 554.4 509.366C562.933 500.566 574.8 486.699 580.933 478.433C592.133 463.499 602 446.033 601.066 443.233C600.8 442.299 596.533 445.366 591.6 449.899ZM545.466 562.966C549.466 565.233 556.4 568.433 561.066 570.166C565.6 571.899 569.333 573.766 569.333 574.166C569.333 574.566 567.866 576.299 566 578.033L562.533 581.233L554 576.966C549.2 574.699 545.333 571.899 545.333 570.966C545.333 567.899 539.733 563.633 530 559.233C524.8 556.966 520.533 554.833 520.266 554.699C520 554.433 520.8 552.699 522 550.833L524.266 547.499L531.2 553.233C535.066 556.299 541.466 560.699 545.466 562.966Z" fill="#383C2B"></path><path d="M530.266 449.766C528.932 451.232 527.599 454.432 527.066 457.099C526.532 460.966 526.932 462.432 529.732 465.232C535.466 470.966 539.332 469.499 535.732 462.966C534.799 461.366 533.732 457.099 533.332 453.499C532.666 447.232 532.666 447.099 530.266 449.766Z" fill="#383C2B"></path><path d="M218.934 456.299C216.267 462.165 215.334 466.699 214.934 475.365C214.267 488.565 216.001 496.432 220.801 501.632L224.134 505.365L223.467 501.365C220.934 486.565 221.467 467.099 224.801 451.632C226.001 445.899 222.534 448.699 218.934 456.299Z" fill="#383C2B"></path><path d="M369.466 475.765C378.8 484.965 385.6 492.965 387.2 496.432L389.733 502.032L386.533 508.032L383.333 514.032L381.6 508.699C380.533 505.765 379.2 503.365 378.533 503.365C376.533 503.365 377.2 518.165 379.466 526.699C383.066 539.632 383.2 539.365 370.666 549.365C355.6 561.365 345.733 567.899 339.6 570.165C334.8 571.899 334.266 571.765 332.533 569.365C329.066 564.699 327.733 568.832 330.133 576.832C332.933 586.299 334.266 588.565 344.4 602.699C349.066 609.365 354.266 617.232 355.866 620.299C358.533 625.632 359.733 635.499 357.733 635.232C354.133 635.099 322.666 576.432 322.666 570.299C322.666 569.499 322.133 568.565 321.466 568.165C317.466 565.632 329.466 600.432 339.066 619.365C354 648.299 355.6 652.032 360.8 667.632C363.6 676.165 366.4 682.832 367.066 682.432C367.866 682.032 368 677.232 367.6 671.099L366.8 660.565L372.266 665.232C386.533 677.499 404.266 674.432 415.333 657.632C424.533 643.632 426 626.432 421.333 585.765C418.266 560.165 416.4 549.765 413.866 546.299C412.533 544.432 412.133 544.965 411.466 550.032C411.066 553.365 410.533 557.765 410.4 560.032L410 564.032L406.4 557.765C404.4 554.432 400.666 548.965 398.266 545.765C392.8 538.565 389.333 528.832 389.333 520.832L389.466 514.699L400.8 526.699C410.533 536.965 412 538.165 411.2 534.699C409.466 526.832 405.466 519.365 399.466 512.965C394.666 507.899 393.066 504.965 392 499.632C390.266 490.432 386.666 483.765 379.866 476.832C374.666 471.632 358 460.699 355.333 460.699C354.666 460.699 361.066 467.499 369.466 475.765ZM384.533 551.099C382.933 552.299 378.8 555.765 375.466 558.565C365.866 566.565 367.066 563.632 376.933 554.965C381.733 550.699 386 547.632 386.533 548.032C386.933 548.565 386 549.899 384.533 551.099ZM396.8 566.432C406 582.965 410.4 594.432 412.133 606.965C413.866 618.832 412.933 634.432 410.133 643.765C406.4 656.165 397.2 664.432 388.666 662.832C380.4 661.232 370 647.499 367.333 634.565C366.666 631.099 366.933 630.299 369.2 629.632C375.333 628.032 371.333 620.032 354.8 600.299C348.133 592.432 342.666 585.499 342.666 584.965C342.666 584.299 344.8 583.099 347.466 582.165C357.6 578.432 379.2 564.165 385.866 556.832C387.333 555.365 388.8 554.032 389.2 554.032C389.6 554.032 393.066 559.632 396.8 566.432Z" fill="#383C2B"></path><path d="M400.667 627.232C400.267 627.899 396.8 629.499 392.933 630.699C389.2 631.899 385.067 633.232 384 633.499C382.4 634.165 382.4 634.565 384.533 636.165C387.733 638.432 397.2 638.565 400.133 636.299C402.533 634.565 405.333 629.632 405.333 627.499C405.333 625.765 401.733 625.499 400.667 627.232Z" fill="#383C2B"></path><path d="M603.599 462.965C603.066 463.365 602.666 466.165 602.666 468.965C602.666 474.432 606.666 479.765 611.999 481.099C615.333 481.899 615.333 481.765 611.333 475.899C609.599 473.232 607.733 469.099 607.199 466.565C606.399 462.165 605.333 461.099 603.599 462.965Z" fill="#383C2B"></path><path d="M446.666 484.298C446.666 485.098 449.333 492.564 452.533 500.964C464.133 530.831 466.133 541.898 463.733 563.098C462.933 570.564 462.666 577.098 463.066 577.631C466 580.564 473.2 566.964 473.333 558.298C473.333 552.831 473.6 552.564 479.466 550.031C482.8 548.564 486 547.364 486.666 547.364C488.133 547.364 478.4 572.564 474.133 579.898C470.8 585.631 461.866 597.098 460.133 597.764C459.733 597.898 459.466 594.298 459.733 589.764L460 581.364L457.066 585.364C455.333 587.498 451.6 591.764 448.666 594.698C432.533 610.698 431.6 619.098 446.933 609.231C449.733 607.498 452.133 606.031 452.4 606.031C452.666 606.031 452.533 608.164 452.266 610.698C451.466 617.764 454.533 616.698 462.266 606.964C476.933 588.831 484 576.031 490.533 556.298C492.266 551.231 494.266 546.964 495.2 546.698C496 546.564 500 545.631 504.266 544.831C514.933 542.564 527.866 533.498 524.666 530.298C524.266 529.898 521.066 530.564 517.6 531.764C514.133 532.964 505.6 534.564 498.666 535.364C490.266 536.298 483.866 537.764 479.866 539.898L473.866 542.964L472.266 533.764C471.333 528.698 469.466 521.231 468 517.231C464.133 506.031 446.8 479.364 446.666 484.298Z" fill="#383C2B"></path><path d="M344.4 487.631C340.934 489.231 333.867 498.965 335.2 500.298C336.4 501.631 342.4 498.031 349.2 491.765L355.334 486.165H351.334C349.2 486.165 346 486.831 344.4 487.631Z" fill="#383C2B"></path><path d="M132.001 494.165C129.734 498.298 130.134 511.898 132.801 517.365C134.001 519.898 135.067 522.031 135.201 522.031C135.467 522.031 135.467 515.098 135.467 506.698C135.334 498.298 134.934 491.365 134.401 491.365C133.867 491.365 132.801 492.565 132.001 494.165Z" fill="#383C2B"></path><path d="M652.133 495.765C650 501.098 650.4 505.898 653.2 512.031C656 518.298 661.866 524.031 663.866 522.698C666.266 521.231 665.466 517.365 661.2 509.231C658.933 504.831 656.266 499.231 655.333 496.698L653.6 492.031L652.133 495.765Z" fill="#383C2B"></path><path d="M307.601 502.298C306.534 505.498 308.134 534.698 309.601 538.431C310.934 542.031 315.467 545.631 316.934 544.298C317.201 543.898 316.801 542.165 315.867 540.565C314.934 538.831 314.001 530.298 313.601 521.365C313.067 506.031 312.001 500.698 309.334 500.698C308.801 500.698 308.001 501.498 307.601 502.298Z" fill="#383C2B"></path><path d="M102.666 509.765C102.666 515.632 116.933 547.632 133.066 577.499C151.199 611.365 163.733 637.099 168.799 650.832C172.933 662.299 182.933 698.165 182.133 698.965C181.999 699.099 174.933 694.432 166.533 688.432C137.333 667.499 124.533 651.499 112.133 620.699C102.133 596.032 100.666 594.699 104.799 615.099C114.266 661.365 133.199 686.565 175.333 708.565C182.666 712.432 189.599 716.299 190.666 717.099C191.866 718.032 196.266 724.699 200.666 732.032C220.399 765.499 240.799 788.965 256.933 797.232C259.333 798.432 264.399 799.365 268.533 799.365C277.199 799.365 282.933 795.499 286.799 786.699C290.266 779.232 290.266 761.765 286.799 751.899C282.933 741.232 272.399 727.899 269.733 730.565C269.199 730.965 271.199 737.499 274.133 745.099C278.266 756.032 279.333 760.432 279.333 767.365C279.199 776.965 276.133 785.232 271.466 787.632C266.666 790.165 257.999 789.232 250.533 785.232C241.733 780.299 234.933 772.565 227.866 758.965C224.799 752.965 219.599 744.032 216.266 738.965C205.999 723.099 197.733 703.499 186.533 669.499C169.333 616.565 163.466 604.299 135.733 561.632C127.599 549.232 116.933 532.299 111.866 523.765C106.799 515.232 102.666 508.832 102.666 509.765Z" fill="#383C2B"></path><path d="M270.934 532.699C266.267 535.499 261.334 542.565 261.334 546.299C261.334 549.899 262.534 549.232 269.867 541.632C273.601 537.765 278.134 533.499 280.001 532.299L283.334 530.165H279.334C277.201 530.032 273.334 531.232 270.934 532.699Z" fill="#383C2B"></path><path d="M452.668 545.499C444.134 549.899 429.068 564.833 431.068 566.833C433.601 569.499 449.468 557.633 454.801 549.233C458.268 543.633 457.734 542.833 452.668 545.499Z" fill="#383C2B"></path><path d="M213.334 552.165C213.334 552.565 220.401 560.298 229.067 569.098C244.134 584.565 250.934 593.365 259.334 607.898C263.201 614.698 285.334 663.231 285.334 664.965C285.334 665.498 282.001 672.031 278.001 679.365C269.334 694.831 267.601 702.698 271.334 710.431C272.667 713.231 275.334 716.031 278.134 717.365C284.534 720.431 291.067 718.298 300.134 710.165C305.467 705.365 308.001 703.898 309.467 704.831C314.134 707.765 314.267 705.498 309.867 696.965C307.334 692.031 301.067 677.765 295.867 665.365C284.134 637.231 267.467 602.965 259.734 591.098C256.534 586.031 250.001 578.031 245.334 573.231C234.001 561.631 213.334 548.031 213.334 552.165ZM295.734 685.498C299.601 693.365 302.667 699.765 302.401 700.031C298.667 702.965 288.934 707.365 286.267 707.365C281.201 707.365 278.134 702.165 279.201 695.365C280.134 689.231 286.534 671.365 287.867 671.365C288.267 671.365 291.867 677.765 295.734 685.498Z" fill="#383C2B"></path><path d="M176.132 573.499C172.132 576.832 170.799 579.365 173.199 579.365C173.866 579.365 177.866 577.232 182.132 574.699L189.866 570.032H185.066C181.732 570.032 178.799 571.099 176.132 573.499Z" fill="#383C2B"></path><path d="M226.666 596.032C226.666 609.766 257.333 708.032 264.133 716.299C266.933 719.499 267.999 718.032 267.999 711.366C267.999 694.432 258.933 665.099 242.933 630.032C237.199 617.232 231.333 603.899 229.999 600.299C227.466 593.766 226.666 592.699 226.666 596.032Z" fill="#383C2B"></path><path d="M500 604.433C500 605.899 509.467 614.833 513.067 616.699C520.8 620.566 516.933 614.033 507.467 607.233C502.133 603.366 500 602.566 500 604.433Z" fill="#383C2B"></path><path d="M575.599 614.966C574.133 616.433 574.533 617.633 577.999 621.899C581.733 626.299 592.799 631.099 594.666 629.233C596.666 627.233 583.599 614.033 579.733 614.033C577.866 614.033 575.999 614.433 575.599 614.966Z" fill="#383C2B"></path><path d="M444.533 629.766C441.999 631.499 432.399 645.232 428.933 652.032C427.066 655.632 422.533 666.166 418.666 675.366C414.799 684.432 409.599 696.166 407.066 701.232L402.399 710.566L400.533 705.232C398.533 699.366 391.066 692.166 384.399 689.766C381.199 688.566 379.599 687.099 378.933 684.166C377.333 678.299 375.199 678.566 374.133 684.699C373.733 687.766 371.733 695.366 369.999 701.632C365.866 715.632 365.866 721.232 369.733 728.032C376.399 739.899 390.133 743.232 399.333 735.099C405.466 729.766 407.733 725.232 414.666 704.299C420.266 687.632 422.399 682.832 439.733 649.766C448.799 632.432 450.399 625.632 444.533 629.766ZM392.933 706.432L398.799 715.499L395.866 720.166C394.266 722.699 391.466 725.766 389.733 726.966C386.399 729.232 386.266 729.099 382.533 724.966C378.799 720.832 378.666 720.166 378.666 706.966C378.666 699.366 379.066 692.699 379.599 692.299C381.066 690.832 386.666 696.699 392.933 706.432Z" fill="#383C2B"></path><path d="M325.066 640.566C316.799 643.899 311.066 648.032 308.666 652.699C305.732 658.432 306.132 659.366 310.799 658.032C316.799 656.299 338.666 642.032 338.666 639.899C338.666 637.366 332.799 637.632 325.066 640.566Z" fill="#383C2B"></path><path d="M334.8 668.564C325.333 672.564 323.333 674.831 328.4 676.164C332.933 677.231 340.266 673.498 343.2 668.698C345.866 663.898 345.733 663.898 334.8 668.564Z" fill="#383C2B"></path><path d="M530.267 694.966C510.8 728.166 504 744.433 503.867 757.366C503.734 773.233 511.334 780.566 523.867 776.299C534.8 772.433 551.334 754.833 566 731.233C579.467 709.499 588.4 688.433 585.334 685.499C583.2 683.499 578.134 689.633 570 704.299C558.934 724.033 543.467 746.299 536.134 753.099C528.934 759.899 519.467 764.966 516.4 763.766C512.8 762.299 515.734 742.299 520.267 737.766C522.667 735.366 524.4 735.099 534.4 735.499C544.534 736.033 546 735.766 546.4 733.633C546.667 732.433 545.067 729.499 542.667 727.233C539.067 723.633 537.867 723.099 533.734 723.766C531.067 724.299 527.6 725.899 525.867 727.499C524.134 729.099 522.4 730.299 522.134 729.899C521.867 729.633 526 719.766 531.334 708.033C546.934 673.633 546.4 667.499 530.267 694.966Z" fill="#383C2B"></path><path d="M216.267 682.165C210.667 684.965 206.267 690.031 209.467 690.031C211.333 690.031 225.067 682.298 226 680.565C227.467 678.431 222.267 679.231 216.267 682.165Z" fill="#383C2B"></path><path d="M548 689.632C548 692.299 553.467 696.566 557.867 697.366C560.933 698.032 563.733 697.499 566.8 695.899L571.333 693.499L563.333 691.766C558.933 690.832 553.733 689.632 551.733 689.232C549.6 688.699 548 688.966 548 689.632Z" fill="#383C2B"></path><path d="M239.999 698.831C237.466 700.031 230.266 702.298 223.999 703.898C216.266 705.898 212.666 707.364 212.666 708.698C212.666 711.231 219.999 712.031 225.733 710.164L229.999 708.698L225.999 712.031C220.399 716.698 224.266 716.298 234.399 711.231C241.866 707.498 249.333 700.831 249.333 697.898C249.333 696.164 245.333 696.564 239.999 698.831Z" fill="#383C2B"></path><path d="M319.466 712.565C318.133 714.565 327.2 726.298 332 728.832C339.333 732.832 346.933 732.165 352.533 727.232C357.2 723.098 360.933 714.432 358.933 712.432C358.266 711.765 354.266 713.365 350 716.032C345.733 718.565 340.666 720.698 338.666 720.698C336.8 720.698 332.133 718.565 328.4 716.032C320.8 710.965 320.533 710.832 319.466 712.565Z" fill="#383C2B"></path><path d="M461.599 716.299C462.133 719.766 470.933 723.632 475.333 722.566C479.599 721.499 479.199 721.099 469.733 717.232C460.533 713.366 461.066 713.499 461.599 716.299Z" fill="#383C2B"></path><path d="M448.4 718.298C443.733 723.365 431.333 745.232 424.933 759.765C415.067 782.432 414 793.099 421.333 800.032C426.8 805.365 434.667 806.032 441.067 801.765C445.733 798.565 452.133 790.032 449.733 790.032C449.2 790.032 445.867 790.965 442.4 792.032C433.333 794.699 428 792.832 428 786.699C428 778.565 439.467 747.365 442.4 747.365C445.2 747.365 447.067 755.632 446.267 765.099C444.8 782.832 449.067 790.432 454.133 779.099C457.333 772.032 457.333 759.099 454.267 753.098C453.067 750.832 450.133 747.498 447.867 745.632L443.733 742.432L448 730.165C452.667 716.565 452.667 713.632 448.4 718.298Z" fill="#383C2B"></path></svg> 