<?xml version="1.0" encoding="UTF-8"?> <svg xmlns="http://www.w3.org/2000/svg" width="176" height="37" viewBox="0 0 176 37" fill="none"><path d="M2.47076 17.7228C1.09014 17.739 -0.0159767 18.8713 0.000170916 20.2519C0.0163185 21.6325 1.14862 22.7386 2.52924 22.7225L2.5 20.2227L2.47076 17.7228ZM175.288 19.9696C176.253 18.982 176.235 17.3992 175.247 16.4343L159.152 0.711589C158.164 -0.253237 156.582 -0.234724 155.617 0.752938C154.652 1.7406 154.67 3.3234 155.658 4.28823L169.965 18.264L155.989 32.5706C155.024 33.5582 155.043 35.141 156.03 36.1059C157.018 37.0707 158.601 37.0522 159.566 36.0645L175.288 19.9696ZM2.5 20.2227L2.52924 22.7225L173.529 20.7225L173.5 18.2227L173.471 15.7228L2.47076 17.7228L2.5 20.2227Z" fill="#870505"></path></svg> 