<?xml version="1.0" encoding="UTF-8"?> <svg xmlns="http://www.w3.org/2000/svg" width="1626" height="985" viewBox="0 0 1626 985" fill="none"><rect x="3" y="107" width="540" height="540" stroke="#3F3F3F" stroke-width="6"></rect><rect x="543" y="107" width="540" height="540" stroke="#3F3F3F" stroke-width="6"></rect><rect x="1083" y="107" width="540" height="540" stroke="#3F3F3F" stroke-width="6"></rect><rect x="1083" y="3" width="540" height="104" stroke="#3F3F3F" stroke-width="6"></rect><rect x="543" y="3" width="540" height="104" stroke="#3F3F3F" stroke-width="6"></rect><rect x="3" y="3" width="540" height="104" stroke="#3F3F3F" stroke-width="6"></rect><path d="M695.182 76.9668C692.701 76.9668 690.318 76.4785 688.033 75.502C685.768 74.5254 683.756 73.1191 681.998 71.2832C680.26 69.4473 678.873 67.2109 677.838 64.5742C676.803 61.918 676.285 58.9297 676.285 55.6094C676.285 52.2891 676.793 49.2812 677.809 46.5859C678.824 43.8711 680.23 41.5371 682.027 39.584C683.805 37.6504 685.904 36.1562 688.326 35.1016C690.748 34.0469 693.336 33.5195 696.09 33.5195C698.141 33.5195 699.996 33.7734 701.656 34.2812C703.316 34.7891 704.898 35.502 706.402 36.4199L707.604 34.4277H709.947L710.211 49.252H707.809C707.496 47.8066 707.027 46.2441 706.402 44.5645C705.777 42.8652 705.045 41.4297 704.205 40.2578C703.268 38.9297 702.154 37.8945 700.865 37.1523C699.576 36.3906 698.102 36.0098 696.441 36.0098C694.547 36.0098 692.779 36.4297 691.139 37.2695C689.518 38.1094 688.111 39.3496 686.92 40.9902C685.787 42.5723 684.898 44.584 684.254 47.0254C683.609 49.4668 683.287 52.1914 683.287 55.1992C683.287 57.8555 683.619 60.2969 684.283 62.5234C684.967 64.7305 685.934 66.6738 687.184 68.3535C688.434 70.0137 689.908 71.3125 691.607 72.25C693.326 73.1875 695.24 73.6562 697.35 73.6562C698.932 73.6562 700.387 73.4121 701.715 72.9238C703.043 72.416 704.195 71.752 705.172 70.9316C706.148 70.0723 707.008 69.0957 707.75 68.002C708.492 66.9082 709.098 65.7168 709.566 64.4277L711.764 65.4824C710.084 69.6035 707.857 72.5527 705.084 74.3301C702.311 76.0879 699.01 76.9668 695.182 76.9668ZM718.062 40.4629C717.809 39.9941 717.438 39.4863 716.949 38.9395C716.48 38.373 715.904 37.9043 715.221 37.5332C714.693 37.2598 714.078 37.0352 713.375 36.8594C712.691 36.6641 712.076 36.5469 711.529 36.5078V34.4277H729.049V36.5078C727.818 36.5664 726.656 36.7031 725.562 36.918C724.469 37.1328 723.922 37.4844 723.922 37.9727C723.922 38.1875 724 38.4707 724.156 38.8223C724.312 39.1738 724.43 39.418 724.508 39.5547C725.289 41.0586 726.51 43.4414 728.17 46.7031C729.85 49.9648 732.164 54.3691 735.113 59.916C736.227 57.5137 737.438 54.8086 738.746 51.8008C740.055 48.793 741.1 46.3418 741.881 44.4473C742.701 42.3965 743.199 41.0391 743.375 40.375C743.551 39.6914 743.639 39.1934 743.639 38.8809C743.639 38.4902 743.453 38.1582 743.082 37.8848C742.711 37.5918 742.232 37.3477 741.646 37.1523C741.061 36.9766 740.455 36.8398 739.83 36.7422C739.205 36.6445 738.551 36.5664 737.867 36.5078V34.4277H753.395V36.5078C752.887 36.5273 752.242 36.6445 751.461 36.8594C750.699 37.0742 750.045 37.3379 749.498 37.6504C748.834 38.041 748.297 38.5293 747.887 39.1152C747.496 39.6816 747.057 40.4629 746.568 41.459C745.045 44.5254 743.17 48.5488 740.943 53.5293C738.736 58.5098 737.037 62.2109 735.846 64.6328C734.654 67.0547 733.502 69.0566 732.389 70.6387C731.275 72.2207 730.152 73.4512 729.02 74.3301C727.867 75.248 726.803 75.8535 725.826 76.1465C724.869 76.4395 723.824 76.5859 722.691 76.5859C721.129 76.5859 719.811 76.1562 718.736 75.2969C717.662 74.4375 717.125 73.4316 717.125 72.2793C717.125 71.3027 717.418 70.4531 718.004 69.7305C718.609 69.0078 719.381 68.6465 720.318 68.6465C721.002 68.6465 721.598 68.8027 722.105 69.1152C722.633 69.4277 723.062 69.7988 723.395 70.2285C723.727 70.6387 724.059 71.1465 724.391 71.752C724.723 72.3379 724.996 72.7969 725.211 73.1289C726.676 72.7188 727.896 71.9277 728.873 70.7559C729.85 69.5645 730.807 68.1387 731.744 66.4785C729.264 61.6934 726.578 56.5566 723.688 51.0684C720.816 45.5801 718.941 42.0449 718.062 40.4629ZM781.461 63.2559C781.461 60.5996 780.562 58.4902 778.766 56.9277C776.988 55.3457 774.625 54.5547 771.676 54.5547C770.328 54.5547 769.254 54.5742 768.453 54.6133C767.672 54.6328 767.076 54.6523 766.666 54.6719V69.9062C766.666 71.1953 767.047 72.1523 767.809 72.7773C768.57 73.3828 770.074 73.6855 772.32 73.6855C775.289 73.6855 777.555 72.7969 779.117 71.0195C780.68 69.2227 781.461 66.6348 781.461 63.2559ZM788.727 63.7539C788.727 65.8438 788.307 67.6797 787.467 69.2617C786.646 70.8438 785.533 72.1328 784.127 73.1289C782.799 74.0859 781.295 74.8086 779.615 75.2969C777.955 75.7656 776.236 76 774.459 76H754.771V73.9199C755.24 73.8809 755.924 73.8027 756.822 73.6855C757.721 73.5488 758.365 73.3926 758.756 73.2168C759.361 72.9434 759.791 72.582 760.045 72.1328C760.299 71.6641 760.426 71.0684 760.426 70.3457V40.4629C760.426 39.7988 760.309 39.2129 760.074 38.7051C759.859 38.1973 759.42 37.7871 758.756 37.4746C758.17 37.1816 757.516 36.957 756.793 36.8008C756.07 36.6445 755.465 36.5469 754.977 36.5078V34.4277H786.207V44.5938H784.01C783.6 43.0508 782.74 41.4395 781.432 39.7598C780.143 38.0605 778.922 37.1328 777.77 36.9766C777.164 36.8984 776.441 36.8398 775.602 36.8008C774.762 36.7617 773.805 36.7422 772.73 36.7422H766.666V52.0938C767.623 52.0742 768.58 52.0547 769.537 52.0352C770.494 52.0156 771.422 52.0059 772.32 52.0059C774.527 52.0059 776.617 52.2109 778.59 52.6211C780.582 53.0117 782.34 53.6758 783.863 54.6133C785.367 55.5312 786.549 56.752 787.408 58.2754C788.287 59.7793 788.727 61.6055 788.727 63.7539ZM820.543 63.2559C820.543 60.5996 819.645 58.4902 817.848 56.9277C816.07 55.3457 813.707 54.5547 810.758 54.5547C809.41 54.5547 808.336 54.5742 807.535 54.6133C806.754 54.6328 806.158 54.6523 805.748 54.6719V69.9062C805.748 71.1953 806.129 72.1523 806.891 72.7773C807.652 73.3828 809.156 73.6855 811.402 73.6855C814.371 73.6855 816.637 72.7969 818.199 71.0195C819.762 69.2227 820.543 66.6348 820.543 63.2559ZM827.809 63.7539C827.809 65.8438 827.389 67.6797 826.549 69.2617C825.729 70.8438 824.615 72.1328 823.209 73.1289C821.881 74.0859 820.377 74.8086 818.697 75.2969C817.037 75.7656 815.318 76 813.541 76H793.854V73.9199C794.322 73.8809 795.006 73.8027 795.904 73.6855C796.803 73.5488 797.447 73.3926 797.838 73.2168C798.443 72.9434 798.873 72.582 799.127 72.1328C799.381 71.6641 799.508 71.0684 799.508 70.3457V40.4629C799.508 39.7988 799.391 39.2129 799.156 38.7051C798.941 38.1973 798.502 37.7871 797.838 37.4746C797.252 37.1816 796.598 36.957 795.875 36.8008C795.152 36.6445 794.547 36.5469 794.059 36.5078V34.4277H825.289V44.5938H823.092C822.682 43.0508 821.822 41.4395 820.514 39.7598C819.225 38.0605 818.004 37.1328 816.852 36.9766C816.246 36.8984 815.523 36.8398 814.684 36.8008C813.844 36.7617 812.887 36.7422 811.812 36.7422H805.748V52.0938C806.705 52.0742 807.662 52.0547 808.619 52.0352C809.576 52.0156 810.504 52.0059 811.402 52.0059C813.609 52.0059 815.699 52.2109 817.672 52.6211C819.664 53.0117 821.422 53.6758 822.945 54.6133C824.449 55.5312 825.631 56.752 826.49 58.2754C827.369 59.7793 827.809 61.6055 827.809 63.7539ZM866.598 39.3496C868.434 41.2637 869.869 43.5781 870.904 46.293C871.939 48.9883 872.457 51.9766 872.457 55.2578C872.457 58.5586 871.93 61.5566 870.875 64.252C869.82 66.9473 868.355 69.2422 866.48 71.1367C864.664 73.0117 862.555 74.457 860.152 75.4727C857.75 76.4883 855.191 76.9961 852.477 76.9961C849.586 76.9961 846.91 76.459 844.449 75.3848C842.008 74.291 839.908 72.7773 838.15 70.8438C836.393 68.9492 835.006 66.6543 833.99 63.959C832.994 61.2441 832.496 58.3438 832.496 55.2578C832.496 51.8789 833.023 48.8711 834.078 46.2344C835.133 43.5781 836.588 41.2832 838.443 39.3496C840.279 37.4355 842.408 35.9707 844.83 34.9551C847.271 33.9395 849.82 33.4316 852.477 33.4316C855.23 33.4316 857.828 33.9492 860.27 34.9844C862.711 36.0195 864.82 37.4746 866.598 39.3496ZM862.232 68.8223C863.326 67.0449 864.117 65.0332 864.605 62.7871C865.113 60.541 865.367 58.0312 865.367 55.2578C865.367 52.4062 865.084 49.7891 864.518 47.4062C863.971 45.0234 863.16 42.9922 862.086 41.3125C861.012 39.6523 859.664 38.3633 858.043 37.4453C856.422 36.5078 854.566 36.0391 852.477 36.0391C850.133 36.0391 848.141 36.5762 846.5 37.6504C844.859 38.7246 843.521 40.1602 842.486 41.957C841.51 43.6758 840.777 45.6875 840.289 47.9922C839.82 50.2969 839.586 52.7188 839.586 55.2578C839.586 58.0703 839.84 60.6094 840.348 62.875C840.855 65.1406 841.656 67.1523 842.75 68.9102C843.805 70.6289 845.133 71.9766 846.734 72.9531C848.336 73.9102 850.25 74.3887 852.477 74.3887C854.566 74.3887 856.451 73.9004 858.131 72.9238C859.811 71.9473 861.178 70.5801 862.232 68.8223ZM911.451 45.707H909.43C909.254 45.0039 908.932 44.1738 908.463 43.2168C908.014 42.2402 907.506 41.3223 906.939 40.4629C906.354 39.5645 905.709 38.7832 905.006 38.1191C904.322 37.4355 903.658 37.0449 903.014 36.9473C902.408 36.8691 901.646 36.8105 900.729 36.7715C899.811 36.7324 898.961 36.7129 898.18 36.7129H896.48V69.9648C896.48 70.6094 896.617 71.2051 896.891 71.752C897.164 72.2793 897.643 72.6895 898.326 72.9824C898.678 73.1191 899.41 73.3047 900.523 73.5391C901.656 73.7734 902.535 73.9004 903.16 73.9199V76H883.531V73.9199C884.078 73.8809 884.908 73.8027 886.021 73.6855C887.154 73.5684 887.936 73.4219 888.365 73.2461C889.01 72.9922 889.479 72.6309 889.771 72.1621C890.084 71.6738 890.24 71.0293 890.24 70.2285V36.7129H888.541C887.936 36.7129 887.184 36.7324 886.285 36.7715C885.387 36.791 884.527 36.8496 883.707 36.9473C883.062 37.0254 882.389 37.416 881.686 38.1191C881.002 38.8027 880.367 39.584 879.781 40.4629C879.195 41.3418 878.678 42.2793 878.229 43.2754C877.779 44.252 877.467 45.0625 877.291 45.707H875.24V34.4277H911.451V45.707ZM953.58 76H936.266V73.9199C937.789 73.8223 939.049 73.627 940.045 73.334C941.061 73.041 941.568 72.6797 941.568 72.25C941.568 72.0742 941.549 71.8594 941.51 71.6055C941.471 71.3516 941.412 71.127 941.334 70.9316L937.877 61.6152H923.316C922.77 62.9824 922.32 64.1738 921.969 65.1895C921.637 66.2051 921.334 67.1426 921.061 68.002C920.807 68.8418 920.631 69.5254 920.533 70.0527C920.436 70.5801 920.387 71.0098 920.387 71.3418C920.387 72.123 921.002 72.7285 922.232 73.1582C923.463 73.5879 924.85 73.8418 926.393 73.9199V76H910.748V73.9199C911.256 73.8809 911.891 73.7734 912.652 73.5977C913.414 73.4023 914.039 73.1484 914.527 72.8359C915.309 72.3086 915.914 71.7617 916.344 71.1953C916.773 70.6094 917.193 69.8086 917.604 68.793C919.693 63.5781 921.998 57.7188 924.518 51.2148C927.037 44.7109 929.283 38.9199 931.256 33.8418H933.6L947.457 69.7012C947.75 70.4629 948.082 71.0781 948.453 71.5469C948.824 72.0156 949.342 72.4746 950.006 72.9238C950.455 73.1973 951.041 73.4316 951.764 73.627C952.486 73.8027 953.092 73.9004 953.58 73.9199V76ZM936.822 59.0078L930.523 42.8945L924.342 59.0078H936.822Z" fill="#3F3F3F"></path><path d="M770.869 210H756.719V208.066C757.168 208.027 757.627 207.988 758.096 207.949C758.584 207.91 759.004 207.832 759.355 207.715C759.922 207.539 760.352 207.227 760.645 206.777C760.957 206.309 761.113 205.742 761.113 205.078V184.16H760.41L750.625 209.531H748.809L739.609 183.662H738.965V203.906C738.965 204.902 739.102 205.684 739.375 206.25C739.668 206.816 740.078 207.207 740.605 207.422C741.016 207.617 741.455 207.764 741.924 207.861C742.412 207.959 742.91 208.027 743.418 208.066V210H732.168V208.066C732.617 208.027 733.076 207.988 733.545 207.949C734.033 207.91 734.453 207.832 734.805 207.715C735.391 207.52 735.801 207.139 736.035 206.572C736.289 205.986 736.416 205.195 736.416 204.199V186.621C736.416 185.859 736.279 185.244 736.006 184.775C735.732 184.287 735.322 183.926 734.775 183.691C734.268 183.457 733.77 183.301 733.281 183.223C732.812 183.145 732.373 183.086 731.963 183.047V181.113H743.975L751.211 201.797L757.598 184.658C757.793 184.092 758.008 183.418 758.242 182.637C758.477 181.855 758.604 181.348 758.623 181.113H770.752V183.047C770.186 183.086 769.688 183.135 769.258 183.193C768.848 183.252 768.467 183.32 768.115 183.398C767.568 183.555 767.158 183.867 766.885 184.336C766.631 184.785 766.504 185.352 766.504 186.035V204.785C766.504 205.469 766.621 206.025 766.855 206.455C767.09 206.865 767.49 207.188 768.057 207.422C768.467 207.617 768.906 207.764 769.375 207.861C769.863 207.959 770.361 208.027 770.869 208.066V210ZM802.422 209.473C801.504 209.805 800.693 210.068 799.99 210.264C799.307 210.479 798.525 210.586 797.646 210.586C796.123 210.586 794.902 210.234 793.984 209.531C793.086 208.809 792.51 207.764 792.256 206.396H792.08C790.811 207.803 789.443 208.877 787.979 209.619C786.533 210.361 784.785 210.732 782.734 210.732C780.566 210.732 778.779 210.068 777.373 208.74C775.986 207.412 775.293 205.674 775.293 203.525C775.293 202.412 775.449 201.416 775.762 200.537C776.074 199.658 776.543 198.867 777.168 198.164C777.656 197.578 778.301 197.061 779.102 196.611C779.902 196.143 780.654 195.771 781.357 195.498C782.236 195.166 784.014 194.551 786.689 193.652C789.385 192.754 791.201 192.051 792.139 191.543V188.643C792.139 188.389 792.08 187.9 791.963 187.178C791.865 186.455 791.641 185.771 791.289 185.127C790.898 184.404 790.342 183.779 789.619 183.252C788.916 182.705 787.91 182.432 786.602 182.432C785.703 182.432 784.863 182.588 784.082 182.9C783.32 183.193 782.783 183.506 782.471 183.838C782.471 184.229 782.559 184.805 782.734 185.566C782.93 186.328 783.027 187.031 783.027 187.676C783.027 188.359 782.715 188.984 782.09 189.551C781.484 190.117 780.635 190.4 779.541 190.4C778.564 190.4 777.842 190.059 777.373 189.375C776.924 188.672 776.699 187.891 776.699 187.031C776.699 186.133 777.012 185.273 777.637 184.453C778.281 183.633 779.111 182.9 780.127 182.256C781.006 181.709 782.07 181.25 783.32 180.879C784.57 180.488 785.791 180.293 786.982 180.293C788.623 180.293 790.049 180.41 791.26 180.645C792.49 180.859 793.604 181.338 794.6 182.08C795.596 182.803 796.348 183.789 796.855 185.039C797.383 186.27 797.646 187.861 797.646 189.814C797.646 192.607 797.617 195.088 797.559 197.256C797.5 199.404 797.471 201.758 797.471 204.316C797.471 205.078 797.598 205.684 797.852 206.133C798.125 206.582 798.535 206.963 799.082 207.275C799.375 207.451 799.834 207.549 800.459 207.568C801.104 207.588 801.758 207.598 802.422 207.598V209.473ZM792.197 194.004C790.537 194.492 789.082 194.971 787.832 195.439C786.582 195.908 785.42 196.494 784.346 197.197C783.369 197.861 782.598 198.652 782.031 199.57C781.465 200.469 781.182 201.543 781.182 202.793C781.182 204.414 781.602 205.605 782.441 206.367C783.301 207.129 784.385 207.51 785.693 207.51C787.08 207.51 788.301 207.178 789.355 206.514C790.41 205.83 791.299 205.029 792.021 204.111L792.197 194.004ZM831.689 184.541C832.842 185.908 833.73 187.5 834.355 189.316C835 191.113 835.322 193.174 835.322 195.498C835.322 197.783 834.941 199.873 834.18 201.768C833.418 203.643 832.412 205.244 831.162 206.572C829.854 207.92 828.398 208.955 826.797 209.678C825.195 210.4 823.496 210.762 821.699 210.762C819.961 210.762 818.535 210.566 817.422 210.176C816.309 209.785 815.4 209.326 814.697 208.799H814.463V217.471C814.463 218.174 814.6 218.76 814.873 219.229C815.146 219.697 815.566 220.039 816.133 220.254C816.602 220.43 817.266 220.596 818.125 220.752C819.004 220.928 819.727 221.025 820.293 221.045V223.008H804.15V221.045C804.756 221.006 805.342 220.957 805.908 220.898C806.475 220.84 806.982 220.742 807.432 220.605C808.018 220.41 808.428 220.068 808.662 219.58C808.896 219.092 809.014 218.516 809.014 217.852V187.119C809.014 186.533 808.867 185.967 808.574 185.42C808.281 184.873 807.9 184.434 807.432 184.102C807.08 183.867 806.592 183.691 805.967 183.574C805.342 183.438 804.736 183.35 804.15 183.311V181.406L813.994 180.762L814.404 181.113V184.365L814.639 184.424C815.654 183.252 816.914 182.275 818.418 181.494C819.922 180.713 821.416 180.322 822.9 180.322C824.697 180.322 826.338 180.703 827.822 181.465C829.326 182.227 830.615 183.252 831.689 184.541ZM826.914 205.312C827.695 204.102 828.271 202.695 828.643 201.094C829.014 199.492 829.199 197.705 829.199 195.732C829.199 194.287 829.043 192.812 828.73 191.309C828.418 189.805 827.93 188.496 827.266 187.383C826.602 186.25 825.732 185.332 824.658 184.629C823.584 183.926 822.295 183.574 820.791 183.574C819.346 183.574 818.115 183.896 817.1 184.541C816.084 185.166 815.205 185.918 814.463 186.797V203.877C814.639 204.404 814.922 204.951 815.312 205.518C815.723 206.084 816.172 206.572 816.66 206.982C817.266 207.471 817.92 207.871 818.623 208.184C819.326 208.477 820.186 208.623 821.201 208.623C822.295 208.623 823.35 208.34 824.365 207.773C825.381 207.188 826.23 206.367 826.914 205.312ZM865.059 190.371H863.271C863.096 189.824 862.832 189.18 862.48 188.438C862.148 187.695 861.777 186.992 861.367 186.328C860.938 185.605 860.449 184.971 859.902 184.424C859.375 183.857 858.818 183.535 858.232 183.457C857.627 183.398 856.953 183.359 856.211 183.34C855.469 183.301 854.834 183.281 854.307 183.281V204.785C854.307 205.449 854.443 205.996 854.717 206.426C854.99 206.855 855.4 207.188 855.947 207.422C856.377 207.617 856.865 207.764 857.412 207.861C857.959 207.959 858.496 208.027 859.023 208.066V210H844.316V208.066C844.766 208.027 845.273 207.988 845.84 207.949C846.426 207.91 846.895 207.832 847.246 207.715C847.793 207.539 848.193 207.236 848.447 206.807C848.721 206.357 848.857 205.781 848.857 205.078V183.281C848.232 183.301 847.529 183.33 846.748 183.369C845.967 183.389 845.352 183.418 844.902 183.457C844.395 183.496 843.848 183.818 843.262 184.424C842.695 185.029 842.197 185.664 841.768 186.328C841.357 186.992 840.977 187.734 840.625 188.555C840.273 189.355 840.029 189.961 839.893 190.371H838.105V181.113H865.059V190.371ZM895.176 209.473C894.258 209.805 893.447 210.068 892.744 210.264C892.061 210.479 891.279 210.586 890.4 210.586C888.877 210.586 887.656 210.234 886.738 209.531C885.84 208.809 885.264 207.764 885.01 206.396H884.834C883.564 207.803 882.197 208.877 880.732 209.619C879.287 210.361 877.539 210.732 875.488 210.732C873.32 210.732 871.533 210.068 870.127 208.74C868.74 207.412 868.047 205.674 868.047 203.525C868.047 202.412 868.203 201.416 868.516 200.537C868.828 199.658 869.297 198.867 869.922 198.164C870.41 197.578 871.055 197.061 871.855 196.611C872.656 196.143 873.408 195.771 874.111 195.498C874.99 195.166 876.768 194.551 879.443 193.652C882.139 192.754 883.955 192.051 884.893 191.543V188.643C884.893 188.389 884.834 187.9 884.717 187.178C884.619 186.455 884.395 185.771 884.043 185.127C883.652 184.404 883.096 183.779 882.373 183.252C881.67 182.705 880.664 182.432 879.355 182.432C878.457 182.432 877.617 182.588 876.836 182.9C876.074 183.193 875.537 183.506 875.225 183.838C875.225 184.229 875.312 184.805 875.488 185.566C875.684 186.328 875.781 187.031 875.781 187.676C875.781 188.359 875.469 188.984 874.844 189.551C874.238 190.117 873.389 190.4 872.295 190.4C871.318 190.4 870.596 190.059 870.127 189.375C869.678 188.672 869.453 187.891 869.453 187.031C869.453 186.133 869.766 185.273 870.391 184.453C871.035 183.633 871.865 182.9 872.881 182.256C873.76 181.709 874.824 181.25 876.074 180.879C877.324 180.488 878.545 180.293 879.736 180.293C881.377 180.293 882.803 180.41 884.014 180.645C885.244 180.859 886.357 181.338 887.354 182.08C888.35 182.803 889.102 183.789 889.609 185.039C890.137 186.27 890.4 187.861 890.4 189.814C890.4 192.607 890.371 195.088 890.312 197.256C890.254 199.404 890.225 201.758 890.225 204.316C890.225 205.078 890.352 205.684 890.605 206.133C890.879 206.582 891.289 206.963 891.836 207.275C892.129 207.451 892.588 207.549 893.213 207.568C893.857 207.588 894.512 207.598 895.176 207.598V209.473ZM884.951 194.004C883.291 194.492 881.836 194.971 880.586 195.439C879.336 195.908 878.174 196.494 877.1 197.197C876.123 197.861 875.352 198.652 874.785 199.57C874.219 200.469 873.936 201.543 873.936 202.793C873.936 204.414 874.355 205.605 875.195 206.367C876.055 207.129 877.139 207.51 878.447 207.51C879.834 207.51 881.055 207.178 882.109 206.514C883.164 205.83 884.053 205.029 884.775 204.111L884.951 194.004Z" fill="#3F3F3F"></path><path d="M794.931 510H634.799V486.758C637.875 483.226 642.147 479.295 647.616 474.966C653.085 470.522 659.579 465.737 667.099 460.61C671.656 457.534 677.125 454.173 683.505 450.527C689.885 446.882 697.12 442.894 705.209 438.564C714.21 433.779 721.103 429.564 725.888 425.918C730.787 422.272 735.23 417.772 739.218 412.417C741.838 408.885 743.946 404.499 745.541 399.258C747.136 393.903 747.934 386.326 747.934 376.528C747.934 362.287 744.117 351.862 736.483 345.254C728.85 338.532 719.052 335.171 707.089 335.171C699.683 335.171 692.676 336.652 686.068 339.614C679.46 342.463 674.504 346.45 671.2 351.577C671.998 355.223 672.966 359.552 674.105 364.565C675.359 369.578 675.985 374.478 675.985 379.263C675.985 383.592 674.162 387.466 670.517 390.884C666.985 394.188 661.687 395.84 654.623 395.84C648.926 395.84 644.54 393.903 641.464 390.029C638.388 386.042 636.85 380.744 636.85 374.136C636.85 367.983 638.559 361.831 641.977 355.679C645.395 349.412 650.294 343.659 656.674 338.418C662.94 333.291 670.688 329.132 679.916 325.942C689.145 322.752 699.114 321.157 709.823 321.157C733.179 321.157 751.693 326.398 765.365 336.88C779.151 347.248 786.044 361.147 786.044 378.579C786.044 386.896 784.791 394.473 782.284 401.309C779.892 408.145 775.961 414.183 770.492 419.424C764.454 425.234 757.39 430.247 749.301 434.463C741.212 438.564 728.85 444.318 712.216 451.724C702.304 456.167 693.075 460.838 684.53 465.737C675.985 470.522 668.979 475.194 663.51 479.751H794.931V510ZM995.224 431.216C995.224 443.065 993.059 454.173 988.729 464.541C984.514 474.909 978.817 483.739 971.64 491.03C963.323 499.347 954.094 505.5 943.954 509.487C933.928 513.475 923.446 515.469 912.509 515.469C899.862 515.469 888.412 513.133 878.158 508.462C867.904 503.791 859.188 497.183 852.011 488.638C844.719 479.979 839.079 469.383 835.092 456.851C831.104 444.318 829.11 430.247 829.11 414.639C829.11 373.965 841.187 339.671 865.341 311.758C889.608 283.844 922.079 267.096 962.753 261.514L965.829 276.895L950.448 279.629C925.725 287.604 906.584 300.023 893.026 316.885C879.582 333.747 870.867 354.198 866.879 378.237C876.677 369.692 886.361 363.654 895.932 360.122C905.502 356.59 915.585 354.824 926.181 354.824C945.207 354.824 961.443 362.116 974.887 376.699C988.445 391.283 995.224 409.455 995.224 431.216ZM958.139 435.83C958.139 417.373 953.866 402.562 945.321 391.396C936.89 380.231 925.554 374.648 911.312 374.648C902.768 374.648 894.792 376.243 887.387 379.434C880.095 382.624 873.031 387.979 866.195 395.498C866.081 396.865 865.91 400.055 865.683 405.068C865.455 409.967 865.341 413.841 865.341 416.689C865.341 443.35 869.67 464.256 878.329 479.409C887.102 494.448 898.609 501.968 912.851 501.968C926.409 501.968 937.346 496.1 945.663 484.365C953.98 472.516 958.139 456.338 958.139 435.83Z" fill="#3F3F3F"></path><path d="M254.931 510H94.7988V486.758C97.875 483.226 102.147 479.295 107.616 474.966C113.085 470.522 119.579 465.737 127.099 460.61C131.656 457.534 137.125 454.173 143.505 450.527C149.885 446.882 157.12 442.894 165.209 438.564C174.21 433.779 181.103 429.564 185.888 425.918C190.787 422.272 195.23 417.772 199.218 412.417C201.838 408.885 203.946 404.499 205.541 399.258C207.136 393.903 207.934 386.326 207.934 376.528C207.934 362.287 204.117 351.862 196.483 345.254C188.85 338.532 179.052 335.171 167.089 335.171C159.683 335.171 152.676 336.652 146.068 339.614C139.46 342.463 134.504 346.45 131.2 351.577C131.998 355.223 132.966 359.552 134.105 364.565C135.359 369.578 135.985 374.478 135.985 379.263C135.985 383.592 134.162 387.466 130.517 390.884C126.985 394.188 121.687 395.84 114.623 395.84C108.926 395.84 104.54 393.903 101.464 390.029C98.3877 386.042 96.8496 380.744 96.8496 374.136C96.8496 367.983 98.5586 361.831 101.977 355.679C105.395 349.412 110.294 343.659 116.674 338.418C122.94 333.291 130.688 329.132 139.916 325.942C149.145 322.752 159.114 321.157 169.823 321.157C193.179 321.157 211.693 326.398 225.365 336.88C239.151 347.248 246.044 361.147 246.044 378.579C246.044 386.896 244.791 394.473 242.284 401.309C239.892 408.145 235.961 414.183 230.492 419.424C224.454 425.234 217.39 430.247 209.301 434.463C201.212 438.564 188.85 444.318 172.216 451.724C162.304 456.167 153.075 460.838 144.53 465.737C135.985 470.522 128.979 475.194 123.51 479.751H254.931V510ZM415.575 429.849C423.095 435.773 429.304 443.407 434.203 452.749C439.216 462.091 441.723 473.77 441.723 487.783C441.723 512.279 433.349 532.502 416.601 548.452C399.853 564.403 378.604 572.378 352.855 572.378C332.917 572.378 316.055 567.65 302.27 558.193C288.484 548.737 281.591 537.743 281.591 525.21C281.591 519.399 283.015 514.329 285.863 510C288.712 505.671 293.098 503.506 299.022 503.506C305.858 503.506 311.042 505.329 314.574 508.975C318.22 512.507 320.043 516.38 320.043 520.596C320.043 524.242 319.416 528.799 318.163 534.268C316.91 539.736 315.941 543.781 315.258 546.401C316.169 547.199 317.65 548.281 319.701 549.648C321.752 551.016 324.201 552.326 327.05 553.579C330.012 554.832 333.601 555.915 337.816 556.826C342.146 557.852 347.159 558.364 352.855 558.364C360.147 558.364 367.04 556.883 373.534 553.921C380.028 550.959 385.497 546.572 389.94 540.762C394.84 534.382 398.485 527.09 400.878 518.887C403.384 510.798 404.638 500.487 404.638 487.954C404.638 471.89 400.137 458.617 391.137 448.135C382.25 437.539 370.515 432.241 355.932 432.241C346.817 432.241 338.272 433.95 330.297 437.368C322.436 440.786 315.372 446.483 309.105 454.458L297.655 450.015L312.182 326.626H434.545V357.046H326.024L317.138 429.507C322.265 425.861 328.987 422.272 337.304 418.74C345.735 415.094 354.963 413.271 364.989 413.271C373.306 413.271 381.908 414.582 390.795 417.202C399.796 419.709 408.056 423.924 415.575 429.849Z" fill="#3F3F3F"></path><path d="M1334.93 499H1174.8V475.758C1177.88 472.226 1182.15 468.295 1187.62 463.966C1193.08 459.522 1199.58 454.737 1207.1 449.61C1211.66 446.534 1217.12 443.173 1223.5 439.527C1229.89 435.882 1237.12 431.894 1245.21 427.564C1254.21 422.779 1261.1 418.564 1265.89 414.918C1270.79 411.272 1275.23 406.772 1279.22 401.417C1281.84 397.885 1283.95 393.499 1285.54 388.258C1287.14 382.903 1287.93 375.326 1287.93 365.528C1287.93 351.287 1284.12 340.862 1276.48 334.254C1268.85 327.532 1259.05 324.171 1247.09 324.171C1239.68 324.171 1232.68 325.652 1226.07 328.614C1219.46 331.463 1214.5 335.45 1211.2 340.577C1212 344.223 1212.97 348.552 1214.11 353.565C1215.36 358.578 1215.99 363.478 1215.99 368.263C1215.99 372.592 1214.16 376.466 1210.52 379.884C1206.98 383.188 1201.69 384.84 1194.62 384.84C1188.93 384.84 1184.54 382.903 1181.46 379.029C1178.39 375.042 1176.85 369.744 1176.85 363.136C1176.85 356.983 1178.56 350.831 1181.98 344.679C1185.39 338.412 1190.29 332.659 1196.67 327.418C1202.94 322.291 1210.69 318.132 1219.92 314.942C1229.14 311.752 1239.11 310.157 1249.82 310.157C1273.18 310.157 1291.69 315.398 1305.37 325.88C1319.15 336.248 1326.04 350.147 1326.04 367.579C1326.04 375.896 1324.79 383.473 1322.28 390.309C1319.89 397.145 1315.96 403.183 1310.49 408.424C1304.45 414.234 1297.39 419.247 1289.3 423.463C1281.21 427.564 1268.85 433.318 1252.22 440.724C1242.3 445.167 1233.08 449.838 1224.53 454.737C1215.99 459.522 1208.98 464.194 1203.51 468.751H1334.93V499ZM1527.36 326.734L1405.51 561.378H1384.15L1498.82 344.337H1431.66C1421.75 344.337 1414 344.451 1408.42 344.679C1402.83 344.907 1397.71 345.989 1393.04 347.926C1389.5 349.407 1386.31 353.224 1383.47 359.376C1380.73 365.414 1378.62 373.162 1377.14 382.618H1366.72V315.626H1527.36V326.734Z" fill="#3F3F3F"></path><path d="M1310.87 210H1296.72V208.066C1297.17 208.027 1297.63 207.988 1298.1 207.949C1298.58 207.91 1299 207.832 1299.36 207.715C1299.92 207.539 1300.35 207.227 1300.64 206.777C1300.96 206.309 1301.11 205.742 1301.11 205.078V184.16H1300.41L1290.62 209.531H1288.81L1279.61 183.662H1278.96V203.906C1278.96 204.902 1279.1 205.684 1279.38 206.25C1279.67 206.816 1280.08 207.207 1280.61 207.422C1281.02 207.617 1281.46 207.764 1281.92 207.861C1282.41 207.959 1282.91 208.027 1283.42 208.066V210H1272.17V208.066C1272.62 208.027 1273.08 207.988 1273.54 207.949C1274.03 207.91 1274.45 207.832 1274.8 207.715C1275.39 207.52 1275.8 207.139 1276.04 206.572C1276.29 205.986 1276.42 205.195 1276.42 204.199V186.621C1276.42 185.859 1276.28 185.244 1276.01 184.775C1275.73 184.287 1275.32 183.926 1274.78 183.691C1274.27 183.457 1273.77 183.301 1273.28 183.223C1272.81 183.145 1272.37 183.086 1271.96 183.047V181.113H1283.97L1291.21 201.797L1297.6 184.658C1297.79 184.092 1298.01 183.418 1298.24 182.637C1298.48 181.855 1298.6 181.348 1298.62 181.113H1310.75V183.047C1310.19 183.086 1309.69 183.135 1309.26 183.193C1308.85 183.252 1308.47 183.32 1308.12 183.398C1307.57 183.555 1307.16 183.867 1306.88 184.336C1306.63 184.785 1306.5 185.352 1306.5 186.035V204.785C1306.5 205.469 1306.62 206.025 1306.86 206.455C1307.09 206.865 1307.49 207.188 1308.06 207.422C1308.47 207.617 1308.91 207.764 1309.38 207.861C1309.86 207.959 1310.36 208.027 1310.87 208.066V210ZM1342.42 209.473C1341.5 209.805 1340.69 210.068 1339.99 210.264C1339.31 210.479 1338.53 210.586 1337.65 210.586C1336.12 210.586 1334.9 210.234 1333.98 209.531C1333.09 208.809 1332.51 207.764 1332.26 206.396H1332.08C1330.81 207.803 1329.44 208.877 1327.98 209.619C1326.53 210.361 1324.79 210.732 1322.73 210.732C1320.57 210.732 1318.78 210.068 1317.37 208.74C1315.99 207.412 1315.29 205.674 1315.29 203.525C1315.29 202.412 1315.45 201.416 1315.76 200.537C1316.07 199.658 1316.54 198.867 1317.17 198.164C1317.66 197.578 1318.3 197.061 1319.1 196.611C1319.9 196.143 1320.65 195.771 1321.36 195.498C1322.24 195.166 1324.01 194.551 1326.69 193.652C1329.38 192.754 1331.2 192.051 1332.14 191.543V188.643C1332.14 188.389 1332.08 187.9 1331.96 187.178C1331.87 186.455 1331.64 185.771 1331.29 185.127C1330.9 184.404 1330.34 183.779 1329.62 183.252C1328.92 182.705 1327.91 182.432 1326.6 182.432C1325.7 182.432 1324.86 182.588 1324.08 182.9C1323.32 183.193 1322.78 183.506 1322.47 183.838C1322.47 184.229 1322.56 184.805 1322.73 185.566C1322.93 186.328 1323.03 187.031 1323.03 187.676C1323.03 188.359 1322.71 188.984 1322.09 189.551C1321.48 190.117 1320.63 190.4 1319.54 190.4C1318.56 190.4 1317.84 190.059 1317.37 189.375C1316.92 188.672 1316.7 187.891 1316.7 187.031C1316.7 186.133 1317.01 185.273 1317.64 184.453C1318.28 183.633 1319.11 182.9 1320.13 182.256C1321.01 181.709 1322.07 181.25 1323.32 180.879C1324.57 180.488 1325.79 180.293 1326.98 180.293C1328.62 180.293 1330.05 180.41 1331.26 180.645C1332.49 180.859 1333.6 181.338 1334.6 182.08C1335.6 182.803 1336.35 183.789 1336.86 185.039C1337.38 186.27 1337.65 187.861 1337.65 189.814C1337.65 192.607 1337.62 195.088 1337.56 197.256C1337.5 199.404 1337.47 201.758 1337.47 204.316C1337.47 205.078 1337.6 205.684 1337.85 206.133C1338.12 206.582 1338.54 206.963 1339.08 207.275C1339.38 207.451 1339.83 207.549 1340.46 207.568C1341.1 207.588 1341.76 207.598 1342.42 207.598V209.473ZM1332.2 194.004C1330.54 194.492 1329.08 194.971 1327.83 195.439C1326.58 195.908 1325.42 196.494 1324.35 197.197C1323.37 197.861 1322.6 198.652 1322.03 199.57C1321.46 200.469 1321.18 201.543 1321.18 202.793C1321.18 204.414 1321.6 205.605 1322.44 206.367C1323.3 207.129 1324.38 207.51 1325.69 207.51C1327.08 207.51 1328.3 207.178 1329.36 206.514C1330.41 205.83 1331.3 205.029 1332.02 204.111L1332.2 194.004ZM1371.69 184.541C1372.84 185.908 1373.73 187.5 1374.36 189.316C1375 191.113 1375.32 193.174 1375.32 195.498C1375.32 197.783 1374.94 199.873 1374.18 201.768C1373.42 203.643 1372.41 205.244 1371.16 206.572C1369.85 207.92 1368.4 208.955 1366.8 209.678C1365.2 210.4 1363.5 210.762 1361.7 210.762C1359.96 210.762 1358.54 210.566 1357.42 210.176C1356.31 209.785 1355.4 209.326 1354.7 208.799H1354.46V217.471C1354.46 218.174 1354.6 218.76 1354.87 219.229C1355.15 219.697 1355.57 220.039 1356.13 220.254C1356.6 220.43 1357.27 220.596 1358.12 220.752C1359 220.928 1359.73 221.025 1360.29 221.045V223.008H1344.15V221.045C1344.76 221.006 1345.34 220.957 1345.91 220.898C1346.47 220.84 1346.98 220.742 1347.43 220.605C1348.02 220.41 1348.43 220.068 1348.66 219.58C1348.9 219.092 1349.01 218.516 1349.01 217.852V187.119C1349.01 186.533 1348.87 185.967 1348.57 185.42C1348.28 184.873 1347.9 184.434 1347.43 184.102C1347.08 183.867 1346.59 183.691 1345.97 183.574C1345.34 183.438 1344.74 183.35 1344.15 183.311V181.406L1353.99 180.762L1354.4 181.113V184.365L1354.64 184.424C1355.65 183.252 1356.91 182.275 1358.42 181.494C1359.92 180.713 1361.42 180.322 1362.9 180.322C1364.7 180.322 1366.34 180.703 1367.82 181.465C1369.33 182.227 1370.62 183.252 1371.69 184.541ZM1366.91 205.312C1367.7 204.102 1368.27 202.695 1368.64 201.094C1369.01 199.492 1369.2 197.705 1369.2 195.732C1369.2 194.287 1369.04 192.812 1368.73 191.309C1368.42 189.805 1367.93 188.496 1367.27 187.383C1366.6 186.25 1365.73 185.332 1364.66 184.629C1363.58 183.926 1362.29 183.574 1360.79 183.574C1359.35 183.574 1358.12 183.896 1357.1 184.541C1356.08 185.166 1355.21 185.918 1354.46 186.797V203.877C1354.64 204.404 1354.92 204.951 1355.31 205.518C1355.72 206.084 1356.17 206.572 1356.66 206.982C1357.27 207.471 1357.92 207.871 1358.62 208.184C1359.33 208.477 1360.19 208.623 1361.2 208.623C1362.29 208.623 1363.35 208.34 1364.37 207.773C1365.38 207.188 1366.23 206.367 1366.91 205.312ZM1405.06 190.371H1403.27C1403.1 189.824 1402.83 189.18 1402.48 188.438C1402.15 187.695 1401.78 186.992 1401.37 186.328C1400.94 185.605 1400.45 184.971 1399.9 184.424C1399.38 183.857 1398.82 183.535 1398.23 183.457C1397.63 183.398 1396.95 183.359 1396.21 183.34C1395.47 183.301 1394.83 183.281 1394.31 183.281V204.785C1394.31 205.449 1394.44 205.996 1394.72 206.426C1394.99 206.855 1395.4 207.188 1395.95 207.422C1396.38 207.617 1396.87 207.764 1397.41 207.861C1397.96 207.959 1398.5 208.027 1399.02 208.066V210H1384.32V208.066C1384.77 208.027 1385.27 207.988 1385.84 207.949C1386.43 207.91 1386.89 207.832 1387.25 207.715C1387.79 207.539 1388.19 207.236 1388.45 206.807C1388.72 206.357 1388.86 205.781 1388.86 205.078V183.281C1388.23 183.301 1387.53 183.33 1386.75 183.369C1385.97 183.389 1385.35 183.418 1384.9 183.457C1384.39 183.496 1383.85 183.818 1383.26 184.424C1382.7 185.029 1382.2 185.664 1381.77 186.328C1381.36 186.992 1380.98 187.734 1380.62 188.555C1380.27 189.355 1380.03 189.961 1379.89 190.371H1378.11V181.113H1405.06V190.371ZM1435.18 209.473C1434.26 209.805 1433.45 210.068 1432.74 210.264C1432.06 210.479 1431.28 210.586 1430.4 210.586C1428.88 210.586 1427.66 210.234 1426.74 209.531C1425.84 208.809 1425.26 207.764 1425.01 206.396H1424.83C1423.56 207.803 1422.2 208.877 1420.73 209.619C1419.29 210.361 1417.54 210.732 1415.49 210.732C1413.32 210.732 1411.53 210.068 1410.13 208.74C1408.74 207.412 1408.05 205.674 1408.05 203.525C1408.05 202.412 1408.2 201.416 1408.52 200.537C1408.83 199.658 1409.3 198.867 1409.92 198.164C1410.41 197.578 1411.05 197.061 1411.86 196.611C1412.66 196.143 1413.41 195.771 1414.11 195.498C1414.99 195.166 1416.77 194.551 1419.44 193.652C1422.14 192.754 1423.96 192.051 1424.89 191.543V188.643C1424.89 188.389 1424.83 187.9 1424.72 187.178C1424.62 186.455 1424.39 185.771 1424.04 185.127C1423.65 184.404 1423.1 183.779 1422.37 183.252C1421.67 182.705 1420.66 182.432 1419.36 182.432C1418.46 182.432 1417.62 182.588 1416.84 182.9C1416.07 183.193 1415.54 183.506 1415.22 183.838C1415.22 184.229 1415.31 184.805 1415.49 185.566C1415.68 186.328 1415.78 187.031 1415.78 187.676C1415.78 188.359 1415.47 188.984 1414.84 189.551C1414.24 190.117 1413.39 190.4 1412.29 190.4C1411.32 190.4 1410.6 190.059 1410.13 189.375C1409.68 188.672 1409.45 187.891 1409.45 187.031C1409.45 186.133 1409.77 185.273 1410.39 184.453C1411.04 183.633 1411.87 182.9 1412.88 182.256C1413.76 181.709 1414.82 181.25 1416.07 180.879C1417.32 180.488 1418.54 180.293 1419.74 180.293C1421.38 180.293 1422.8 180.41 1424.01 180.645C1425.24 180.859 1426.36 181.338 1427.35 182.08C1428.35 182.803 1429.1 183.789 1429.61 185.039C1430.14 186.27 1430.4 187.861 1430.4 189.814C1430.4 192.607 1430.37 195.088 1430.31 197.256C1430.25 199.404 1430.22 201.758 1430.22 204.316C1430.22 205.078 1430.35 205.684 1430.61 206.133C1430.88 206.582 1431.29 206.963 1431.84 207.275C1432.13 207.451 1432.59 207.549 1433.21 207.568C1433.86 207.588 1434.51 207.598 1435.18 207.598V209.473ZM1424.95 194.004C1423.29 194.492 1421.84 194.971 1420.59 195.439C1419.34 195.908 1418.17 196.494 1417.1 197.197C1416.12 197.861 1415.35 198.652 1414.79 199.57C1414.22 200.469 1413.94 201.543 1413.94 202.793C1413.94 204.414 1414.36 205.605 1415.2 206.367C1416.05 207.129 1417.14 207.51 1418.45 207.51C1419.83 207.51 1421.05 207.178 1422.11 206.514C1423.16 205.83 1424.05 205.029 1424.78 204.111L1424.95 194.004Z" fill="#3F3F3F"></path><path d="M229.869 210H215.719V208.066C216.168 208.027 216.627 207.988 217.096 207.949C217.584 207.91 218.004 207.832 218.355 207.715C218.922 207.539 219.352 207.227 219.645 206.777C219.957 206.309 220.113 205.742 220.113 205.078V184.16H219.41L209.625 209.531H207.809L198.609 183.662H197.965V203.906C197.965 204.902 198.102 205.684 198.375 206.25C198.668 206.816 199.078 207.207 199.605 207.422C200.016 207.617 200.455 207.764 200.924 207.861C201.412 207.959 201.91 208.027 202.418 208.066V210H191.168V208.066C191.617 208.027 192.076 207.988 192.545 207.949C193.033 207.91 193.453 207.832 193.805 207.715C194.391 207.52 194.801 207.139 195.035 206.572C195.289 205.986 195.416 205.195 195.416 204.199V186.621C195.416 185.859 195.279 185.244 195.006 184.775C194.732 184.287 194.322 183.926 193.775 183.691C193.268 183.457 192.77 183.301 192.281 183.223C191.812 183.145 191.373 183.086 190.963 183.047V181.113H202.975L210.211 201.797L216.598 184.658C216.793 184.092 217.008 183.418 217.242 182.637C217.477 181.855 217.604 181.348 217.623 181.113H229.752V183.047C229.186 183.086 228.688 183.135 228.258 183.193C227.848 183.252 227.467 183.32 227.115 183.398C226.568 183.555 226.158 183.867 225.885 184.336C225.631 184.785 225.504 185.352 225.504 186.035V204.785C225.504 205.469 225.621 206.025 225.855 206.455C226.09 206.865 226.49 207.188 227.057 207.422C227.467 207.617 227.906 207.764 228.375 207.861C228.863 207.959 229.361 208.027 229.869 208.066V210ZM261.422 209.473C260.504 209.805 259.693 210.068 258.99 210.264C258.307 210.479 257.525 210.586 256.646 210.586C255.123 210.586 253.902 210.234 252.984 209.531C252.086 208.809 251.51 207.764 251.256 206.396H251.08C249.811 207.803 248.443 208.877 246.979 209.619C245.533 210.361 243.785 210.732 241.734 210.732C239.566 210.732 237.779 210.068 236.373 208.74C234.986 207.412 234.293 205.674 234.293 203.525C234.293 202.412 234.449 201.416 234.762 200.537C235.074 199.658 235.543 198.867 236.168 198.164C236.656 197.578 237.301 197.061 238.102 196.611C238.902 196.143 239.654 195.771 240.357 195.498C241.236 195.166 243.014 194.551 245.689 193.652C248.385 192.754 250.201 192.051 251.139 191.543V188.643C251.139 188.389 251.08 187.9 250.963 187.178C250.865 186.455 250.641 185.771 250.289 185.127C249.898 184.404 249.342 183.779 248.619 183.252C247.916 182.705 246.91 182.432 245.602 182.432C244.703 182.432 243.863 182.588 243.082 182.9C242.32 183.193 241.783 183.506 241.471 183.838C241.471 184.229 241.559 184.805 241.734 185.566C241.93 186.328 242.027 187.031 242.027 187.676C242.027 188.359 241.715 188.984 241.09 189.551C240.484 190.117 239.635 190.4 238.541 190.4C237.564 190.4 236.842 190.059 236.373 189.375C235.924 188.672 235.699 187.891 235.699 187.031C235.699 186.133 236.012 185.273 236.637 184.453C237.281 183.633 238.111 182.9 239.127 182.256C240.006 181.709 241.07 181.25 242.32 180.879C243.57 180.488 244.791 180.293 245.982 180.293C247.623 180.293 249.049 180.41 250.26 180.645C251.49 180.859 252.604 181.338 253.6 182.08C254.596 182.803 255.348 183.789 255.855 185.039C256.383 186.27 256.646 187.861 256.646 189.814C256.646 192.607 256.617 195.088 256.559 197.256C256.5 199.404 256.471 201.758 256.471 204.316C256.471 205.078 256.598 205.684 256.852 206.133C257.125 206.582 257.535 206.963 258.082 207.275C258.375 207.451 258.834 207.549 259.459 207.568C260.104 207.588 260.758 207.598 261.422 207.598V209.473ZM251.197 194.004C249.537 194.492 248.082 194.971 246.832 195.439C245.582 195.908 244.42 196.494 243.346 197.197C242.369 197.861 241.598 198.652 241.031 199.57C240.465 200.469 240.182 201.543 240.182 202.793C240.182 204.414 240.602 205.605 241.441 206.367C242.301 207.129 243.385 207.51 244.693 207.51C246.08 207.51 247.301 207.178 248.355 206.514C249.41 205.83 250.299 205.029 251.021 204.111L251.197 194.004ZM290.689 184.541C291.842 185.908 292.73 187.5 293.355 189.316C294 191.113 294.322 193.174 294.322 195.498C294.322 197.783 293.941 199.873 293.18 201.768C292.418 203.643 291.412 205.244 290.162 206.572C288.854 207.92 287.398 208.955 285.797 209.678C284.195 210.4 282.496 210.762 280.699 210.762C278.961 210.762 277.535 210.566 276.422 210.176C275.309 209.785 274.4 209.326 273.697 208.799H273.463V217.471C273.463 218.174 273.6 218.76 273.873 219.229C274.146 219.697 274.566 220.039 275.133 220.254C275.602 220.43 276.266 220.596 277.125 220.752C278.004 220.928 278.727 221.025 279.293 221.045V223.008H263.15V221.045C263.756 221.006 264.342 220.957 264.908 220.898C265.475 220.84 265.982 220.742 266.432 220.605C267.018 220.41 267.428 220.068 267.662 219.58C267.896 219.092 268.014 218.516 268.014 217.852V187.119C268.014 186.533 267.867 185.967 267.574 185.42C267.281 184.873 266.9 184.434 266.432 184.102C266.08 183.867 265.592 183.691 264.967 183.574C264.342 183.438 263.736 183.35 263.15 183.311V181.406L272.994 180.762L273.404 181.113V184.365L273.639 184.424C274.654 183.252 275.914 182.275 277.418 181.494C278.922 180.713 280.416 180.322 281.9 180.322C283.697 180.322 285.338 180.703 286.822 181.465C288.326 182.227 289.615 183.252 290.689 184.541ZM285.914 205.312C286.695 204.102 287.271 202.695 287.643 201.094C288.014 199.492 288.199 197.705 288.199 195.732C288.199 194.287 288.043 192.812 287.73 191.309C287.418 189.805 286.93 188.496 286.266 187.383C285.602 186.25 284.732 185.332 283.658 184.629C282.584 183.926 281.295 183.574 279.791 183.574C278.346 183.574 277.115 183.896 276.1 184.541C275.084 185.166 274.205 185.918 273.463 186.797V203.877C273.639 204.404 273.922 204.951 274.312 205.518C274.723 206.084 275.172 206.572 275.66 206.982C276.266 207.471 276.92 207.871 277.623 208.184C278.326 208.477 279.186 208.623 280.201 208.623C281.295 208.623 282.35 208.34 283.365 207.773C284.381 207.188 285.23 206.367 285.914 205.312ZM324.059 190.371H322.271C322.096 189.824 321.832 189.18 321.48 188.438C321.148 187.695 320.777 186.992 320.367 186.328C319.938 185.605 319.449 184.971 318.902 184.424C318.375 183.857 317.818 183.535 317.232 183.457C316.627 183.398 315.953 183.359 315.211 183.34C314.469 183.301 313.834 183.281 313.307 183.281V204.785C313.307 205.449 313.443 205.996 313.717 206.426C313.99 206.855 314.4 207.188 314.947 207.422C315.377 207.617 315.865 207.764 316.412 207.861C316.959 207.959 317.496 208.027 318.023 208.066V210H303.316V208.066C303.766 208.027 304.273 207.988 304.84 207.949C305.426 207.91 305.895 207.832 306.246 207.715C306.793 207.539 307.193 207.236 307.447 206.807C307.721 206.357 307.857 205.781 307.857 205.078V183.281C307.232 183.301 306.529 183.33 305.748 183.369C304.967 183.389 304.352 183.418 303.902 183.457C303.395 183.496 302.848 183.818 302.262 184.424C301.695 185.029 301.197 185.664 300.768 186.328C300.357 186.992 299.977 187.734 299.625 188.555C299.273 189.355 299.029 189.961 298.893 190.371H297.105V181.113H324.059V190.371ZM354.176 209.473C353.258 209.805 352.447 210.068 351.744 210.264C351.061 210.479 350.279 210.586 349.4 210.586C347.877 210.586 346.656 210.234 345.738 209.531C344.84 208.809 344.264 207.764 344.01 206.396H343.834C342.564 207.803 341.197 208.877 339.732 209.619C338.287 210.361 336.539 210.732 334.488 210.732C332.32 210.732 330.533 210.068 329.127 208.74C327.74 207.412 327.047 205.674 327.047 203.525C327.047 202.412 327.203 201.416 327.516 200.537C327.828 199.658 328.297 198.867 328.922 198.164C329.41 197.578 330.055 197.061 330.855 196.611C331.656 196.143 332.408 195.771 333.111 195.498C333.99 195.166 335.768 194.551 338.443 193.652C341.139 192.754 342.955 192.051 343.893 191.543V188.643C343.893 188.389 343.834 187.9 343.717 187.178C343.619 186.455 343.395 185.771 343.043 185.127C342.652 184.404 342.096 183.779 341.373 183.252C340.67 182.705 339.664 182.432 338.355 182.432C337.457 182.432 336.617 182.588 335.836 182.9C335.074 183.193 334.537 183.506 334.225 183.838C334.225 184.229 334.312 184.805 334.488 185.566C334.684 186.328 334.781 187.031 334.781 187.676C334.781 188.359 334.469 188.984 333.844 189.551C333.238 190.117 332.389 190.4 331.295 190.4C330.318 190.4 329.596 190.059 329.127 189.375C328.678 188.672 328.453 187.891 328.453 187.031C328.453 186.133 328.766 185.273 329.391 184.453C330.035 183.633 330.865 182.9 331.881 182.256C332.76 181.709 333.824 181.25 335.074 180.879C336.324 180.488 337.545 180.293 338.736 180.293C340.377 180.293 341.803 180.41 343.014 180.645C344.244 180.859 345.357 181.338 346.354 182.08C347.35 182.803 348.102 183.789 348.609 185.039C349.137 186.27 349.4 187.861 349.4 189.814C349.4 192.607 349.371 195.088 349.312 197.256C349.254 199.404 349.225 201.758 349.225 204.316C349.225 205.078 349.352 205.684 349.605 206.133C349.879 206.582 350.289 206.963 350.836 207.275C351.129 207.451 351.588 207.549 352.213 207.568C352.857 207.588 353.512 207.598 354.176 207.598V209.473ZM343.951 194.004C342.291 194.492 340.836 194.971 339.586 195.439C338.336 195.908 337.174 196.494 336.1 197.197C335.123 197.861 334.352 198.652 333.785 199.57C333.219 200.469 332.936 201.543 332.936 202.793C332.936 204.414 333.355 205.605 334.195 206.367C335.055 207.129 336.139 207.51 337.447 207.51C338.834 207.51 340.055 207.178 341.109 206.514C342.164 205.83 343.053 205.029 343.775 204.111L343.951 194.004Z" fill="#3F3F3F"></path><path d="M1163.34 56.6348C1164.55 57.4551 1165.56 58.5293 1166.36 59.8574C1167.16 61.1855 1167.56 62.7969 1167.56 64.6914C1167.56 66.625 1167.14 68.3047 1166.3 69.7305C1165.46 71.1562 1164.37 72.3281 1163.02 73.2461C1161.71 74.1445 1160.23 74.8281 1158.57 75.2969C1156.93 75.7656 1155.23 76 1153.47 76H1133.78V73.9199C1134.25 73.8809 1134.94 73.8027 1135.83 73.6855C1136.73 73.5488 1137.38 73.3926 1137.77 73.2168C1138.37 72.9434 1138.8 72.582 1139.06 72.1328C1139.31 71.6641 1139.44 71.0684 1139.44 70.3457V40.4629C1139.44 39.7988 1139.32 39.2129 1139.09 38.7051C1138.87 38.1973 1138.43 37.7871 1137.77 37.4746C1137.18 37.1816 1136.53 36.957 1135.8 36.8008C1135.08 36.6445 1134.48 36.5469 1133.99 36.5078V34.4277H1153.18C1154.66 34.4277 1156.08 34.5742 1157.43 34.8672C1158.79 35.1602 1160.09 35.6777 1161.32 36.4199C1162.47 37.1035 1163.42 38.0312 1164.16 39.2031C1164.91 40.375 1165.28 41.8008 1165.28 43.4805C1165.28 44.9453 1165.01 46.2539 1164.49 47.4062C1163.96 48.5391 1163.22 49.5156 1162.26 50.3359C1161.36 51.1172 1160.33 51.7812 1159.15 52.3281C1158 52.8555 1156.75 53.2656 1155.4 53.5586V53.8223C1156.6 53.959 1157.92 54.2617 1159.39 54.7305C1160.87 55.1797 1162.19 55.8145 1163.34 56.6348ZM1156.28 50.3652C1157.01 49.5254 1157.5 48.6074 1157.78 47.6113C1158.07 46.6152 1158.22 45.4336 1158.22 44.0664C1158.22 41.7812 1157.59 39.9941 1156.34 38.7051C1155.09 37.3965 1153.12 36.7422 1150.42 36.7422C1149.8 36.7422 1149.01 36.7617 1148.05 36.8008C1147.11 36.8203 1146.32 36.8398 1145.68 36.8594V52.8262H1149.4C1151 52.8262 1152.37 52.6211 1153.5 52.2109C1154.65 51.8008 1155.58 51.1855 1156.28 50.3652ZM1160.33 63.6367C1160.33 61.1758 1159.5 59.1543 1157.84 57.5723C1156.2 55.9902 1153.84 55.1992 1150.78 55.1992C1149.53 55.1992 1148.47 55.2188 1147.61 55.2578C1146.75 55.2773 1146.11 55.2969 1145.68 55.3164V69.9648C1145.68 71.1953 1146.18 72.123 1147.17 72.748C1148.17 73.373 1149.55 73.6855 1151.33 73.6855C1154.24 73.6855 1156.47 72.8359 1158.01 71.1367C1159.55 69.4375 1160.33 66.9375 1160.33 63.6367ZM1206.7 39.3496C1208.54 41.2637 1209.97 43.5781 1211.01 46.293C1212.04 48.9883 1212.56 51.9766 1212.56 55.2578C1212.56 58.5586 1212.04 61.5566 1210.98 64.252C1209.93 66.9473 1208.46 69.2422 1206.59 71.1367C1204.77 73.0117 1202.66 74.457 1200.26 75.4727C1197.86 76.4883 1195.3 76.9961 1192.58 76.9961C1189.69 76.9961 1187.02 76.459 1184.55 75.3848C1182.11 74.291 1180.01 72.7773 1178.26 70.8438C1176.5 68.9492 1175.11 66.6543 1174.1 63.959C1173.1 61.2441 1172.6 58.3438 1172.6 55.2578C1172.6 51.8789 1173.13 48.8711 1174.18 46.2344C1175.24 43.5781 1176.69 41.2832 1178.55 39.3496C1180.38 37.4355 1182.51 35.9707 1184.94 34.9551C1187.38 33.9395 1189.93 33.4316 1192.58 33.4316C1195.34 33.4316 1197.93 33.9492 1200.38 34.9844C1202.82 36.0195 1204.93 37.4746 1206.7 39.3496ZM1202.34 68.8223C1203.43 67.0449 1204.22 65.0332 1204.71 62.7871C1205.22 60.541 1205.47 58.0312 1205.47 55.2578C1205.47 52.4062 1205.19 49.7891 1204.62 47.4062C1204.08 45.0234 1203.27 42.9922 1202.19 41.3125C1201.12 39.6523 1199.77 38.3633 1198.15 37.4453C1196.53 36.5078 1194.67 36.0391 1192.58 36.0391C1190.24 36.0391 1188.25 36.5762 1186.61 37.6504C1184.96 38.7246 1183.63 40.1602 1182.59 41.957C1181.62 43.6758 1180.88 45.6875 1180.39 47.9922C1179.93 50.2969 1179.69 52.7188 1179.69 55.2578C1179.69 58.0703 1179.95 60.6094 1180.45 62.875C1180.96 65.1406 1181.76 67.1523 1182.86 68.9102C1183.91 70.6289 1185.24 71.9766 1186.84 72.9531C1188.44 73.9102 1190.36 74.3887 1192.58 74.3887C1194.67 74.3887 1196.56 73.9004 1198.24 72.9238C1199.92 71.9473 1201.28 70.5801 1202.34 68.8223ZM1236.09 76.9668C1233.61 76.9668 1231.22 76.4785 1228.94 75.502C1226.67 74.5254 1224.66 73.1191 1222.9 71.2832C1221.17 69.4473 1219.78 67.2109 1218.74 64.5742C1217.71 61.918 1217.19 58.9297 1217.19 55.6094C1217.19 52.2891 1217.7 49.2812 1218.71 46.5859C1219.73 43.8711 1221.14 41.5371 1222.93 39.584C1224.71 37.6504 1226.81 36.1562 1229.23 35.1016C1231.65 34.0469 1234.24 33.5195 1237 33.5195C1239.05 33.5195 1240.9 33.7734 1242.56 34.2812C1244.22 34.7891 1245.8 35.502 1247.31 36.4199L1248.51 34.4277H1250.85L1251.12 49.252H1248.71C1248.4 47.8066 1247.93 46.2441 1247.31 44.5645C1246.68 42.8652 1245.95 41.4297 1245.11 40.2578C1244.17 38.9297 1243.06 37.8945 1241.77 37.1523C1240.48 36.3906 1239.01 36.0098 1237.35 36.0098C1235.45 36.0098 1233.69 36.4297 1232.04 37.2695C1230.42 38.1094 1229.02 39.3496 1227.83 40.9902C1226.69 42.5723 1225.8 44.584 1225.16 47.0254C1224.52 49.4668 1224.19 52.1914 1224.19 55.1992C1224.19 57.8555 1224.53 60.2969 1225.19 62.5234C1225.87 64.7305 1226.84 66.6738 1228.09 68.3535C1229.34 70.0137 1230.81 71.3125 1232.51 72.25C1234.23 73.1875 1236.15 73.6562 1238.26 73.6562C1239.84 73.6562 1241.29 73.4121 1242.62 72.9238C1243.95 72.416 1245.1 71.752 1246.08 70.9316C1247.05 70.0723 1247.91 69.0957 1248.66 68.002C1249.4 66.9082 1250 65.7168 1250.47 64.4277L1252.67 65.4824C1250.99 69.6035 1248.76 72.5527 1245.99 74.3301C1243.22 76.0879 1239.92 76.9668 1236.09 76.9668ZM1295.79 76H1284.34C1283.54 73.7344 1282.76 71.6738 1282 69.8184C1281.23 67.9434 1280.45 66.127 1279.65 64.3691C1278.34 61.4199 1277.02 59.4277 1275.67 58.3926C1274.34 57.3574 1272.54 56.8398 1270.28 56.8398H1268.14V70.1406C1268.14 70.7852 1268.26 71.3613 1268.49 71.8691C1268.74 72.377 1269.19 72.7871 1269.84 73.0996C1270.15 73.2363 1270.73 73.4023 1271.57 73.5977C1272.43 73.793 1273.14 73.9004 1273.71 73.9199V76H1256.45V73.9199C1256.9 73.8809 1257.55 73.8223 1258.41 73.7441C1259.27 73.666 1259.88 73.5488 1260.23 73.3926C1260.81 73.1387 1261.23 72.7676 1261.49 72.2793C1261.76 71.7715 1261.9 71.166 1261.9 70.4629V40.4629C1261.9 39.7988 1261.78 39.2227 1261.55 38.7344C1261.33 38.2461 1260.89 37.8457 1260.23 37.5332C1259.7 37.2793 1259.08 37.0547 1258.35 36.8594C1257.63 36.6641 1257 36.5469 1256.45 36.5078V34.4277H1273.71V36.5078C1273.16 36.5273 1272.47 36.6152 1271.65 36.7715C1270.83 36.9277 1270.23 37.0742 1269.84 37.2109C1269.17 37.4453 1268.72 37.8359 1268.49 38.3828C1268.26 38.9297 1268.14 39.5254 1268.14 40.1699V54.4082H1270.86C1271.59 54.4082 1272.29 54.252 1272.97 53.9395C1273.68 53.627 1274.32 53.168 1274.91 52.5625C1275.75 51.7031 1276.42 50.6582 1276.93 49.4277C1277.44 48.1777 1277.98 46.6738 1278.57 44.916C1279.12 43.2949 1279.68 41.791 1280.27 40.4043C1280.85 39.0176 1281.71 37.7383 1282.85 36.5664C1283.61 35.7852 1284.51 35.1699 1285.54 34.7207C1286.58 34.2715 1287.7 34.0469 1288.91 34.0469C1289.75 34.0469 1290.48 34.1543 1291.11 34.3691C1291.73 34.5645 1292.26 34.8477 1292.69 35.2188C1293.08 35.5508 1293.37 35.9414 1293.57 36.3906C1293.76 36.8398 1293.86 37.3281 1293.86 37.8555C1293.86 38.2852 1293.79 38.7051 1293.66 39.1152C1293.54 39.5254 1293.36 39.8672 1293.13 40.1406C1292.86 40.4727 1292.55 40.7363 1292.22 40.9316C1291.89 41.1074 1291.42 41.1953 1290.81 41.1953C1290.17 41.1953 1289.6 41.0879 1289.12 40.873C1288.65 40.6582 1288.24 40.3652 1287.88 39.9941C1287.53 39.623 1287.21 39.1934 1286.92 38.7051C1286.64 38.1973 1286.38 37.6895 1286.13 37.1816C1285.58 37.5527 1285.11 38.0117 1284.72 38.5586C1284.35 39.1055 1284.02 39.6914 1283.72 40.3164C1283.43 40.9414 1283.17 41.6055 1282.93 42.3086C1282.72 43.0117 1282.46 43.793 1282.17 44.6523C1281.94 45.375 1281.66 46.1855 1281.35 47.084C1281.04 47.9629 1280.68 48.7832 1280.27 49.5449C1279.84 50.3652 1279.33 51.1855 1278.74 52.0059C1278.18 52.8262 1277.49 53.5977 1276.69 54.3203V54.7305C1278.86 55.3359 1280.66 56.3027 1282.08 57.6309C1283.53 58.959 1284.74 60.668 1285.72 62.7578C1286.26 63.9492 1286.86 65.2383 1287.5 66.625C1288.17 67.9922 1288.71 69.1543 1289.14 70.1113C1289.75 71.4199 1290.34 72.2988 1290.9 72.748C1291.47 73.1777 1292.04 73.4414 1292.63 73.5391C1293.14 73.6172 1293.69 73.6953 1294.27 73.7734C1294.86 73.832 1295.37 73.8809 1295.79 73.9199V76ZM1329.87 44.6816C1329.87 46.8496 1329.44 48.7734 1328.58 50.4531C1327.74 52.1133 1326.57 53.4902 1325.06 54.584C1323.58 55.6777 1321.95 56.4785 1320.17 56.9863C1318.39 57.4941 1316.51 57.748 1314.52 57.748H1309.86V70.3457C1309.86 71.0293 1309.96 71.6348 1310.18 72.1621C1310.41 72.6699 1310.88 73.0605 1311.59 73.334C1311.94 73.4707 1312.55 73.5977 1313.43 73.7148C1314.33 73.832 1315.15 73.9004 1315.89 73.9199V76H1298.05V73.9199C1298.52 73.8809 1299.19 73.8125 1300.07 73.7148C1300.97 73.6172 1301.6 73.4902 1301.95 73.334C1302.53 73.0801 1302.95 72.709 1303.21 72.2207C1303.48 71.7324 1303.62 71.1074 1303.62 70.3457V40.3457C1303.62 39.6621 1303.52 39.0469 1303.32 38.5C1303.13 37.9531 1302.67 37.543 1301.95 37.2695C1301.21 37.0156 1300.46 36.8398 1299.72 36.7422C1299 36.625 1298.37 36.5469 1297.85 36.5078V34.4277H1316.83C1320.7 34.4277 1323.83 35.3652 1326.23 37.2402C1328.66 39.0957 1329.87 41.5762 1329.87 44.6816ZM1320.96 51.7715C1321.62 50.834 1322.06 49.8672 1322.28 48.8711C1322.49 47.8555 1322.6 46.9473 1322.6 46.1465C1322.6 45.0332 1322.46 43.9004 1322.19 42.748C1321.94 41.5957 1321.49 40.5898 1320.84 39.7305C1320.16 38.8125 1319.26 38.0996 1318.15 37.5918C1317.04 37.084 1315.65 36.8301 1313.99 36.8301H1309.86V55.1992H1312.85C1314.96 55.1992 1316.66 54.877 1317.97 54.2324C1319.3 53.5684 1320.3 52.748 1320.96 51.7715ZM1369.62 63.7539L1368.83 76H1334.32V73.9199C1334.91 73.8809 1335.69 73.8027 1336.66 73.6855C1337.64 73.5488 1338.28 73.4121 1338.57 73.2754C1339.19 72.9824 1339.62 72.6016 1339.86 72.1328C1340.11 71.6641 1340.24 71.0684 1340.24 70.3457V40.4629C1340.24 39.8184 1340.13 39.252 1339.92 38.7637C1339.7 38.2559 1339.25 37.8457 1338.57 37.5332C1338.04 37.2793 1337.33 37.0547 1336.43 36.8594C1335.55 36.6641 1334.85 36.5469 1334.32 36.5078V34.4277H1366.49V44.4473H1364.29C1363.9 42.9629 1363.05 41.3906 1361.74 39.7305C1360.45 38.0508 1359.22 37.1328 1358.05 36.9766C1357.45 36.8984 1356.72 36.8398 1355.88 36.8008C1355.04 36.7617 1354.09 36.7422 1353.01 36.7422H1346.48V53.2656H1351.17C1352.67 53.2656 1353.76 53.1289 1354.45 52.8555C1355.15 52.5625 1355.77 52.084 1356.29 51.4199C1356.72 50.8535 1357.08 50.1016 1357.38 49.1641C1357.69 48.207 1357.89 47.3086 1357.99 46.4688H1360.19V62.7285H1357.99C1357.91 61.791 1357.7 60.8047 1357.35 59.7695C1357.02 58.7148 1356.66 57.9531 1356.29 57.4844C1355.69 56.7227 1354.99 56.2246 1354.21 55.9902C1353.45 55.7559 1352.44 55.6387 1351.17 55.6387H1346.48V68.1191C1346.48 69.3691 1346.57 70.3555 1346.74 71.0781C1346.92 71.8008 1347.26 72.3477 1347.77 72.7188C1348.28 73.0898 1348.97 73.334 1349.85 73.4512C1350.73 73.5488 1351.98 73.5977 1353.6 73.5977C1354.24 73.5977 1355.09 73.5977 1356.15 73.5977C1357.2 73.5977 1358.09 73.5586 1358.81 73.4805C1359.55 73.4023 1360.32 73.2656 1361.1 73.0703C1361.9 72.8555 1362.46 72.5723 1362.8 72.2207C1363.7 71.2832 1364.63 69.8672 1365.61 67.9727C1366.61 66.0586 1367.24 64.6523 1367.51 63.7539H1369.62ZM1392.18 76.9668C1389.7 76.9668 1387.32 76.4785 1385.03 75.502C1382.77 74.5254 1380.76 73.1191 1379 71.2832C1377.26 69.4473 1375.87 67.2109 1374.84 64.5742C1373.8 61.918 1373.29 58.9297 1373.29 55.6094C1373.29 52.2891 1373.79 49.2812 1374.81 46.5859C1375.82 43.8711 1377.23 41.5371 1379.03 39.584C1380.8 37.6504 1382.9 36.1562 1385.33 35.1016C1387.75 34.0469 1390.34 33.5195 1393.09 33.5195C1395.14 33.5195 1397 33.7734 1398.66 34.2812C1400.32 34.7891 1401.9 35.502 1403.4 36.4199L1404.6 34.4277H1406.95L1407.21 49.252H1404.81C1404.5 47.8066 1404.03 46.2441 1403.4 44.5645C1402.78 42.8652 1402.04 41.4297 1401.21 40.2578C1400.27 38.9297 1399.15 37.8945 1397.87 37.1523C1396.58 36.3906 1395.1 36.0098 1393.44 36.0098C1391.55 36.0098 1389.78 36.4297 1388.14 37.2695C1386.52 38.1094 1385.11 39.3496 1383.92 40.9902C1382.79 42.5723 1381.9 44.584 1381.25 47.0254C1380.61 49.4668 1380.29 52.1914 1380.29 55.1992C1380.29 57.8555 1380.62 60.2969 1381.28 62.5234C1381.97 64.7305 1382.93 66.6738 1384.18 68.3535C1385.43 70.0137 1386.91 71.3125 1388.61 72.25C1390.33 73.1875 1392.24 73.6562 1394.35 73.6562C1395.93 73.6562 1397.39 73.4121 1398.71 72.9238C1400.04 72.416 1401.2 71.752 1402.17 70.9316C1403.15 70.0723 1404.01 69.0957 1404.75 68.002C1405.49 66.9082 1406.1 65.7168 1406.57 64.4277L1408.76 65.4824C1407.08 69.6035 1404.86 72.5527 1402.08 74.3301C1399.31 76.0879 1396.01 76.9668 1392.18 76.9668ZM1447.38 63.7539L1446.59 76H1412.07V73.9199C1412.66 73.8809 1413.44 73.8027 1414.42 73.6855C1415.39 73.5488 1416.03 73.4121 1416.32 73.2754C1416.95 72.9824 1417.38 72.6016 1417.61 72.1328C1417.87 71.6641 1417.99 71.0684 1417.99 70.3457V40.4629C1417.99 39.8184 1417.88 39.252 1417.67 38.7637C1417.46 38.2559 1417.01 37.8457 1416.32 37.5332C1415.79 37.2793 1415.08 37.0547 1414.18 36.8594C1413.3 36.6641 1412.6 36.5469 1412.07 36.5078V34.4277H1444.24V44.4473H1442.04C1441.65 42.9629 1440.8 41.3906 1439.5 39.7305C1438.21 38.0508 1436.98 37.1328 1435.8 36.9766C1435.2 36.8984 1434.48 36.8398 1433.64 36.8008C1432.8 36.7617 1431.84 36.7422 1430.77 36.7422H1424.23V53.2656H1428.92C1430.42 53.2656 1431.52 53.1289 1432.2 52.8555C1432.9 52.5625 1433.52 52.084 1434.05 51.4199C1434.48 50.8535 1434.84 50.1016 1435.13 49.1641C1435.44 48.207 1435.65 47.3086 1435.75 46.4688H1437.94V62.7285H1435.75C1435.67 61.791 1435.45 60.8047 1435.1 59.7695C1434.77 58.7148 1434.42 57.9531 1434.05 57.4844C1433.44 56.7227 1432.75 56.2246 1431.97 55.9902C1431.21 55.7559 1430.19 55.6387 1428.92 55.6387H1424.23V68.1191C1424.23 69.3691 1424.32 70.3555 1424.5 71.0781C1424.67 71.8008 1425.01 72.3477 1425.52 72.7188C1426.03 73.0898 1426.72 73.334 1427.6 73.4512C1428.48 73.5488 1429.73 73.5977 1431.35 73.5977C1432 73.5977 1432.85 73.5977 1433.9 73.5977C1434.96 73.5977 1435.84 73.5586 1436.57 73.4805C1437.31 73.4023 1438.07 73.2656 1438.85 73.0703C1439.65 72.8555 1440.22 72.5723 1440.55 72.2207C1441.45 71.2832 1442.39 69.8672 1443.36 67.9727C1444.36 66.0586 1444.99 64.6523 1445.27 63.7539H1447.38ZM1494.66 76H1477.41V73.9199C1477.88 73.8809 1478.55 73.8223 1479.43 73.7441C1480.33 73.666 1480.94 73.5488 1481.27 73.3926C1481.86 73.1582 1482.29 72.8066 1482.56 72.3379C1482.84 71.8496 1482.97 71.2246 1482.97 70.4629V55.668H1463.43V70.1406C1463.43 70.8242 1463.54 71.4004 1463.75 71.8691C1463.99 72.3379 1464.44 72.748 1465.1 73.0996C1465.43 73.2754 1466.02 73.4512 1466.86 73.627C1467.72 73.8027 1468.39 73.9004 1468.88 73.9199V76H1451.62V73.9199C1452.09 73.8809 1452.77 73.8223 1453.65 73.7441C1454.54 73.666 1455.16 73.5488 1455.49 73.3926C1456.08 73.1582 1456.51 72.8066 1456.78 72.3379C1457.05 71.8496 1457.19 71.2246 1457.19 70.4629V40.4629C1457.19 39.8379 1457.06 39.2715 1456.81 38.7637C1456.56 38.2363 1456.12 37.8262 1455.49 37.5332C1454.96 37.2793 1454.32 37.0547 1453.56 36.8594C1452.82 36.6641 1452.17 36.5469 1451.62 36.5078V34.4277H1468.88V36.5078C1468.33 36.5273 1467.66 36.6152 1466.86 36.7715C1466.08 36.9277 1465.49 37.0742 1465.1 37.2109C1464.44 37.4453 1463.99 37.8359 1463.75 38.3828C1463.54 38.9297 1463.43 39.5254 1463.43 40.1699V53.0605H1482.97V40.4629C1482.97 39.8379 1482.85 39.2715 1482.59 38.7637C1482.34 38.2363 1481.9 37.8262 1481.27 37.5332C1480.75 37.2793 1480.1 37.0547 1479.34 36.8594C1478.6 36.6641 1477.95 36.5469 1477.41 36.5078V34.4277H1494.66V36.5078C1494.12 36.5273 1493.44 36.6152 1492.64 36.7715C1491.86 36.9277 1491.27 37.0742 1490.88 37.2109C1490.22 37.4453 1489.77 37.8359 1489.54 38.3828C1489.32 38.9297 1489.21 39.5254 1489.21 40.1699V70.1406C1489.21 70.8242 1489.32 71.4004 1489.54 71.8691C1489.77 72.3379 1490.22 72.748 1490.88 73.0996C1491.21 73.2754 1491.8 73.4512 1492.64 73.627C1493.5 73.8027 1494.17 73.9004 1494.66 73.9199V76ZM1527.15 63.2559C1527.15 60.5996 1526.25 58.4902 1524.46 56.9277C1522.68 55.3457 1520.32 54.5547 1517.37 54.5547C1516.02 54.5547 1514.95 54.5742 1514.14 54.6133C1513.36 54.6328 1512.77 54.6523 1512.36 54.6719V69.9062C1512.36 71.1953 1512.74 72.1523 1513.5 72.7773C1514.26 73.3828 1515.77 73.6855 1518.01 73.6855C1520.98 73.6855 1523.25 72.7969 1524.81 71.0195C1526.37 69.2227 1527.15 66.6348 1527.15 63.2559ZM1534.42 63.7539C1534.42 65.8438 1534 67.6797 1533.16 69.2617C1532.34 70.8438 1531.22 72.1328 1529.82 73.1289C1528.49 74.0859 1526.99 74.8086 1525.31 75.2969C1523.65 75.7656 1521.93 76 1520.15 76H1500.46V73.9199C1500.93 73.8809 1501.62 73.8027 1502.51 73.6855C1503.41 73.5488 1504.06 73.3926 1504.45 73.2168C1505.05 72.9434 1505.48 72.582 1505.74 72.1328C1505.99 71.6641 1506.12 71.0684 1506.12 70.3457V40.5801C1506.12 39.916 1506 39.3301 1505.77 38.8223C1505.55 38.3145 1505.11 37.9043 1504.45 37.5918C1504 37.3574 1503.36 37.1328 1502.54 36.918C1501.74 36.6836 1501.08 36.5469 1500.55 36.5078V34.4277H1518.16V36.5078C1517.61 36.5273 1516.89 36.625 1515.99 36.8008C1515.11 36.9766 1514.48 37.1328 1514.09 37.2695C1513.42 37.5039 1512.96 37.9043 1512.71 38.4707C1512.47 39.0371 1512.36 39.6426 1512.36 40.2871V52.0938C1513.31 52.0742 1514.27 52.0547 1515.23 52.0352C1516.19 52.0156 1517.11 52.0059 1518.01 52.0059C1520.22 52.0059 1522.31 52.2109 1524.28 52.6211C1526.27 53.0117 1528.03 53.6758 1529.55 54.6133C1531.06 55.5312 1532.24 56.752 1533.1 58.2754C1533.98 59.7793 1534.42 61.6055 1534.42 63.7539ZM1573.94 63.7539L1573.15 76H1538.64V73.9199C1539.22 73.8809 1540 73.8027 1540.98 73.6855C1541.96 73.5488 1542.59 73.4121 1542.88 73.2754C1543.51 72.9824 1543.94 72.6016 1544.17 72.1328C1544.43 71.6641 1544.55 71.0684 1544.55 70.3457V40.4629C1544.55 39.8184 1544.45 39.252 1544.23 38.7637C1544.02 38.2559 1543.57 37.8457 1542.88 37.5332C1542.36 37.2793 1541.64 37.0547 1540.75 36.8594C1539.87 36.6641 1539.16 36.5469 1538.64 36.5078V34.4277H1570.8V44.4473H1568.61C1568.22 42.9629 1567.37 41.3906 1566.06 39.7305C1564.77 38.0508 1563.54 37.1328 1562.37 36.9766C1561.76 36.8984 1561.04 36.8398 1560.2 36.8008C1559.36 36.7617 1558.4 36.7422 1557.33 36.7422H1550.79V53.2656H1555.48C1556.99 53.2656 1558.08 53.1289 1558.76 52.8555C1559.47 52.5625 1560.08 52.084 1560.61 51.4199C1561.04 50.8535 1561.4 50.1016 1561.69 49.1641C1562.01 48.207 1562.21 47.3086 1562.31 46.4688H1564.51V62.7285H1562.31C1562.23 61.791 1562.02 60.8047 1561.66 59.7695C1561.33 58.7148 1560.98 57.9531 1560.61 57.4844C1560 56.7227 1559.31 56.2246 1558.53 55.9902C1557.77 55.7559 1556.75 55.6387 1555.48 55.6387H1550.79V68.1191C1550.79 69.3691 1550.88 70.3555 1551.06 71.0781C1551.23 71.8008 1551.58 72.3477 1552.08 72.7188C1552.59 73.0898 1553.29 73.334 1554.16 73.4512C1555.04 73.5488 1556.29 73.5977 1557.91 73.5977C1558.56 73.5977 1559.41 73.5977 1560.46 73.5977C1561.52 73.5977 1562.41 73.5586 1563.13 73.4805C1563.87 73.4023 1564.63 73.2656 1565.41 73.0703C1566.21 72.8555 1566.78 72.5723 1567.11 72.2207C1568.01 71.2832 1568.95 69.8672 1569.93 67.9727C1570.92 66.0586 1571.56 64.6523 1571.83 63.7539H1573.94Z" fill="#3F3F3F"></path><path d="M160.498 76H143.242V73.9199C143.711 73.8809 144.385 73.8223 145.264 73.7441C146.162 73.666 146.777 73.5488 147.109 73.3926C147.695 73.1582 148.125 72.8066 148.398 72.3379C148.672 71.8496 148.809 71.2246 148.809 70.4629V37.0645H129.678V70.1406C129.678 70.8242 129.785 71.4004 130 71.8691C130.234 72.3379 130.684 72.748 131.348 73.0996C131.68 73.2754 132.266 73.4512 133.105 73.627C133.965 73.8027 134.639 73.9004 135.127 73.9199V76H117.871V73.9199C118.34 73.8809 119.014 73.8223 119.893 73.7441C120.791 73.666 121.406 73.5488 121.738 73.3926C122.324 73.1582 122.754 72.8066 123.027 72.3379C123.301 71.8496 123.438 71.2246 123.438 70.4629V40.4629C123.438 39.8379 123.311 39.2715 123.057 38.7637C122.803 38.2363 122.363 37.8262 121.738 37.5332C121.211 37.2793 120.566 37.0547 119.805 36.8594C119.062 36.6641 118.418 36.5469 117.871 36.5078V34.4277H160.498V36.5078C159.951 36.5273 159.277 36.6152 158.477 36.7715C157.695 36.9277 157.109 37.0742 156.719 37.2109C156.055 37.4453 155.605 37.8359 155.371 38.3828C155.156 38.9297 155.049 39.5254 155.049 40.1699V70.1406C155.049 70.8242 155.156 71.4004 155.371 71.8691C155.605 72.3379 156.055 72.748 156.719 73.0996C157.051 73.2754 157.637 73.4512 158.477 73.627C159.336 73.8027 160.01 73.9004 160.498 73.9199V76ZM202.656 76H185.078V73.9199C185.547 73.8809 186.221 73.8125 187.1 73.7148C187.998 73.6172 188.623 73.4902 188.975 73.334C189.561 73.0801 189.98 72.709 190.234 72.2207C190.508 71.7324 190.645 71.1074 190.645 70.3457V57.1621H187.891C185.645 57.1621 183.906 57.6211 182.676 58.5391C181.445 59.457 180.146 61.4395 178.779 64.4863C177.9 66.459 177.119 68.2754 176.436 69.9355C175.771 71.5957 175.01 73.6172 174.15 76H162.754V73.9199C163.203 73.8613 163.701 73.8027 164.248 73.7441C164.814 73.6855 165.371 73.6074 165.918 73.5098C166.719 73.3535 167.363 73.0605 167.852 72.6309C168.34 72.1816 168.877 71.3418 169.463 70.1113C169.971 68.998 170.566 67.7188 171.25 66.2734C171.934 64.8281 172.461 63.6953 172.832 62.875C173.711 60.9414 174.736 59.4668 175.908 58.4512C177.1 57.4355 178.594 56.625 180.391 56.0195V55.6094C179.004 55.3164 177.695 54.916 176.465 54.4082C175.254 53.8809 174.18 53.207 173.242 52.3867C172.305 51.5469 171.562 50.541 171.016 49.3691C170.488 48.1777 170.225 46.791 170.225 45.209C170.225 43.4512 170.586 41.8984 171.309 40.5508C172.031 39.2031 173.008 38.0703 174.238 37.1523C175.41 36.2734 176.797 35.5996 178.398 35.1309C180 34.6621 181.67 34.4277 183.408 34.4277H202.656V36.5078C202.109 36.5273 201.396 36.625 200.518 36.8008C199.639 36.9766 198.994 37.1328 198.584 37.2695C197.92 37.5039 197.471 37.9043 197.236 38.4707C197.002 39.0371 196.885 39.6426 196.885 40.2871V70.3457C196.885 71.0293 196.992 71.6348 197.207 72.1621C197.422 72.6699 197.881 73.0605 198.584 73.334C198.936 73.4707 199.551 73.5977 200.43 73.7148C201.309 73.832 202.051 73.9004 202.656 73.9199V76ZM190.645 54.6426V36.8008H185.605C183.066 36.8008 181.045 37.6211 179.541 39.2617C178.057 40.8828 177.314 42.9922 177.314 45.5898C177.314 48.5586 178.174 50.8145 179.893 52.3574C181.611 53.8809 183.887 54.6426 186.719 54.6426H190.645ZM242.002 45.707H239.98C239.805 45.0039 239.482 44.1738 239.014 43.2168C238.564 42.2402 238.057 41.3223 237.49 40.4629C236.904 39.5645 236.26 38.7832 235.557 38.1191C234.873 37.4355 234.209 37.0449 233.564 36.9473C232.959 36.8691 232.197 36.8105 231.279 36.7715C230.361 36.7324 229.512 36.7129 228.73 36.7129H227.031V69.9648C227.031 70.6094 227.168 71.2051 227.441 71.752C227.715 72.2793 228.193 72.6895 228.877 72.9824C229.229 73.1191 229.961 73.3047 231.074 73.5391C232.207 73.7734 233.086 73.9004 233.711 73.9199V76H214.082V73.9199C214.629 73.8809 215.459 73.8027 216.572 73.6855C217.705 73.5684 218.486 73.4219 218.916 73.2461C219.561 72.9922 220.029 72.6309 220.322 72.1621C220.635 71.6738 220.791 71.0293 220.791 70.2285V36.7129H219.092C218.486 36.7129 217.734 36.7324 216.836 36.7715C215.938 36.791 215.078 36.8496 214.258 36.9473C213.613 37.0254 212.939 37.416 212.236 38.1191C211.553 38.8027 210.918 39.584 210.332 40.4629C209.746 41.3418 209.229 42.2793 208.779 43.2754C208.33 44.252 208.018 45.0625 207.842 45.707H205.791V34.4277H242.002V45.707ZM288.408 76H271.152V73.9199C271.621 73.8809 272.295 73.8223 273.174 73.7441C274.072 73.666 274.688 73.5488 275.02 73.3926C275.605 73.1582 276.035 72.8066 276.309 72.3379C276.582 71.8496 276.719 71.2246 276.719 70.4629V55.668H257.178V70.1406C257.178 70.8242 257.285 71.4004 257.5 71.8691C257.734 72.3379 258.184 72.748 258.848 73.0996C259.18 73.2754 259.766 73.4512 260.605 73.627C261.465 73.8027 262.139 73.9004 262.627 73.9199V76H245.371V73.9199C245.84 73.8809 246.514 73.8223 247.393 73.7441C248.291 73.666 248.906 73.5488 249.238 73.3926C249.824 73.1582 250.254 72.8066 250.527 72.3379C250.801 71.8496 250.938 71.2246 250.938 70.4629V40.4629C250.938 39.8379 250.811 39.2715 250.557 38.7637C250.303 38.2363 249.863 37.8262 249.238 37.5332C248.711 37.2793 248.066 37.0547 247.305 36.8594C246.562 36.6641 245.918 36.5469 245.371 36.5078V34.4277H262.627V36.5078C262.08 36.5273 261.406 36.6152 260.605 36.7715C259.824 36.9277 259.238 37.0742 258.848 37.2109C258.184 37.4453 257.734 37.8359 257.5 38.3828C257.285 38.9297 257.178 39.5254 257.178 40.1699V53.0605H276.719V40.4629C276.719 39.8379 276.592 39.2715 276.338 38.7637C276.084 38.2363 275.645 37.8262 275.02 37.5332C274.492 37.2793 273.848 37.0547 273.086 36.8594C272.344 36.6641 271.699 36.5469 271.152 36.5078V34.4277H288.408V36.5078C287.861 36.5273 287.188 36.6152 286.387 36.7715C285.605 36.9277 285.02 37.0742 284.629 37.2109C283.965 37.4453 283.516 37.8359 283.281 38.3828C283.066 38.9297 282.959 39.5254 282.959 40.1699V70.1406C282.959 70.8242 283.066 71.4004 283.281 71.8691C283.516 72.3379 283.965 72.748 284.629 73.0996C284.961 73.2754 285.547 73.4512 286.387 73.627C287.246 73.8027 287.92 73.9004 288.408 73.9199V76ZM337.539 76H320.342V73.9199C320.811 73.8809 321.494 73.8223 322.393 73.7441C323.311 73.666 323.936 73.5488 324.268 73.3926C324.854 73.1582 325.283 72.8066 325.557 72.3379C325.83 71.8496 325.967 71.2246 325.967 70.4629V44.5352L305.869 69.6133V70.2871C305.869 70.9707 305.977 71.5273 306.191 71.957C306.426 72.3672 306.875 72.748 307.539 73.0996C307.871 73.2754 308.486 73.4512 309.385 73.627C310.283 73.8027 310.986 73.9004 311.494 73.9199V76H294.297V73.9199C294.766 73.8809 295.439 73.8223 296.318 73.7441C297.217 73.666 297.832 73.5488 298.164 73.3926C298.75 73.1582 299.18 72.8066 299.453 72.3379C299.727 71.8496 299.863 71.2246 299.863 70.4629V40.4629C299.863 39.8379 299.736 39.2715 299.482 38.7637C299.229 38.2363 298.789 37.8262 298.164 37.5332C297.637 37.2793 296.992 37.0547 296.23 36.8594C295.488 36.6641 294.844 36.5469 294.297 36.5078V34.4277H311.494V36.5078C310.947 36.5273 310.264 36.6152 309.443 36.7715C308.643 36.9277 308.047 37.0742 307.656 37.2109C306.992 37.4453 306.543 37.8359 306.309 38.3828C306.094 38.9297 305.986 39.5254 305.986 40.1699V65.4531L326.084 40.4043C326.084 39.7012 325.957 39.125 325.703 38.6758C325.449 38.207 325.01 37.8262 324.385 37.5332C323.896 37.2988 323.223 37.084 322.363 36.8887C321.504 36.6738 320.83 36.5469 320.342 36.5078V34.4277H337.539V36.5078C336.992 36.5273 336.318 36.6152 335.518 36.7715C334.736 36.9277 334.15 37.0742 333.76 37.2109C333.096 37.4453 332.646 37.8359 332.412 38.3828C332.197 38.9297 332.09 39.5254 332.09 40.1699V70.1406C332.09 70.8242 332.197 71.4004 332.412 71.8691C332.646 72.3379 333.096 72.748 333.76 73.0996C334.092 73.2754 334.678 73.4512 335.518 73.627C336.377 73.8027 337.051 73.9004 337.539 73.9199V76ZM377.969 76H343.398V73.9199C343.867 73.8809 344.541 73.8223 345.42 73.7441C346.318 73.666 346.934 73.5488 347.266 73.3926C347.852 73.1582 348.281 72.8066 348.555 72.3379C348.828 71.8496 348.965 71.2246 348.965 70.4629V40.4629C348.965 39.8379 348.838 39.2715 348.584 38.7637C348.33 38.2363 347.891 37.8262 347.266 37.5332C346.738 37.2793 346.094 37.0547 345.332 36.8594C344.59 36.6641 343.945 36.5469 343.398 36.5078V34.4277H360.479V36.5078C359.932 36.5273 359.277 36.6152 358.516 36.7715C357.754 36.9277 357.168 37.0742 356.758 37.2109C356.094 37.4453 355.664 37.8359 355.469 38.3828C355.293 38.9297 355.205 39.5254 355.205 40.1699V70.2578C355.205 71.0586 355.459 71.8008 355.967 72.4844C356.475 73.168 357.402 73.5098 358.75 73.5098C359.57 73.5098 360.498 73.5293 361.533 73.5684C362.568 73.5879 363.76 73.5977 365.107 73.5977C366.221 73.5977 367.295 73.5879 368.33 73.5684C369.385 73.5488 370.576 73.5293 371.904 73.5098C372.842 73.4902 373.477 73.2754 373.809 72.8652C374.16 72.4355 374.336 71.7715 374.336 70.873V40.4629C374.336 39.8379 374.229 39.2715 374.014 38.7637C373.799 38.2363 373.379 37.8262 372.754 37.5332C372.227 37.2793 371.592 37.0547 370.85 36.8594C370.127 36.6641 369.492 36.5469 368.945 36.5078V34.4277H386.025V36.5078C385.479 36.5273 384.805 36.6152 384.004 36.7715C383.223 36.9277 382.637 37.0742 382.246 37.2109C381.582 37.4453 381.133 37.8359 380.898 38.3828C380.684 38.9297 380.576 39.5254 380.576 40.1699V70.668C380.576 71.7617 380.85 72.5234 381.396 72.9531C381.943 73.3633 382.822 73.5684 384.033 73.5684H386.494V85.7852H384.297C384.102 85.0234 383.848 84.1836 383.535 83.2656C383.223 82.3477 382.734 81.2734 382.07 80.043C381.484 78.9492 380.869 78.0312 380.225 77.2891C379.58 76.5469 378.828 76.1172 377.969 76ZM430.674 76H413.359V73.9199C414.883 73.8223 416.143 73.627 417.139 73.334C418.154 73.041 418.662 72.6797 418.662 72.25C418.662 72.0742 418.643 71.8594 418.604 71.6055C418.564 71.3516 418.506 71.127 418.428 70.9316L414.971 61.6152H400.41C399.863 62.9824 399.414 64.1738 399.062 65.1895C398.73 66.2051 398.428 67.1426 398.154 68.002C397.9 68.8418 397.725 69.5254 397.627 70.0527C397.529 70.5801 397.48 71.0098 397.48 71.3418C397.48 72.123 398.096 72.7285 399.326 73.1582C400.557 73.5879 401.943 73.8418 403.486 73.9199V76H387.842V73.9199C388.35 73.8809 388.984 73.7734 389.746 73.5977C390.508 73.4023 391.133 73.1484 391.621 72.8359C392.402 72.3086 393.008 71.7617 393.438 71.1953C393.867 70.6094 394.287 69.8086 394.697 68.793C396.787 63.5781 399.092 57.7188 401.611 51.2148C404.131 44.7109 406.377 38.9199 408.35 33.8418H410.693L424.551 69.7012C424.844 70.4629 425.176 71.0781 425.547 71.5469C425.918 72.0156 426.436 72.4746 427.1 72.9238C427.549 73.1973 428.135 73.4316 428.857 73.627C429.58 73.8027 430.186 73.9004 430.674 73.9199V76ZM413.916 59.0078L407.617 42.8945L401.436 59.0078H413.916Z" fill="#3F3F3F"></path></svg> 