<?xml version="1.0" encoding="UTF-8"?> <svg xmlns="http://www.w3.org/2000/svg" width="9852" height="32447" viewBox="0 0 9852 32447" fill="none"><path d="M0 621.797C167.841 404.038 900.836 -0.00760888 1415.95 -0.0078125C1983.93 -0.00803702 2571.94 244.386 2868.53 367.654L2878.04 371.608C3414.63 594.577 4293.21 686.697 4721.39 621.797C5225.76 545.347 6469.5 9.49219 7473.5 105.992C8199.55 175.776 8838.32 279.762 9852 1043.71V5534.99V29161H0V5534.99V621.797Z" fill="#ECD6D4"></path><path d="M8042.13 32447C8699.46 32447 9634.82 32207.1 9849 32077.8V29161H0V32340C1281.19 32397.3 3180.47 32123.2 3824.1 32077.8C4370.49 32039.3 5491.64 32094 6176.37 32226.4L6188.51 32228.7C6566.98 32301.9 7317.34 32447 8042.13 32447Z" fill="#ECD6D4"></path></svg> 