<?xml version="1.0" encoding="UTF-8"?> <svg xmlns="http://www.w3.org/2000/svg" width="422" height="421" viewBox="0 0 422 421" fill="none"><path d="M373.048 231.868L394.414 233.768L395.534 221.168L389.734 220.351C387.98 220.128 386.264 219.858 384.585 219.541C382.904 219.258 381.365 218.87 379.97 218.378C378.605 217.922 377.502 217.339 376.662 216.628C375.855 215.92 375.429 215.063 375.385 214.055L376.347 210.576C376.222 211.603 376.512 212.482 377.217 213.214C377.954 213.949 378.988 214.559 380.317 215.046C381.645 215.532 383.166 215.935 384.877 216.254C386.622 216.577 388.404 216.869 390.221 217.131L398.905 218.255L397.187 237.579L372.733 235.404L373.048 231.868ZM367.031 208.644L376.444 209.481L373.765 239.612L364.352 238.775L364.649 235.438L370.974 236L373.06 212.543L366.735 211.98L367.031 208.644Z" fill="#272727"></path><path d="M370.878 239.101L373.749 240.162C373.654 240.377 373.548 240.573 373.43 240.747C373.335 240.963 373.265 241.151 373.22 241.312C372.933 242.339 373.09 243.265 373.69 244.09C374.282 244.948 375.175 245.716 376.369 246.396C377.564 247.075 378.946 247.703 380.515 248.28C382.117 248.865 383.723 249.435 385.333 249.988L394.218 252.935L389.042 271.477L363.759 264.419L364.713 260.999L388.022 267.506L386.769 268.091L390.614 254.317L391.445 255.432L384.232 253.003C382.076 252.297 380.038 251.538 378.119 250.726C376.192 249.945 374.545 249.088 373.179 248.153C371.805 247.25 370.805 246.244 370.18 245.135C369.587 244.035 369.479 242.811 369.856 241.463C369.963 241.077 370.107 240.685 370.288 240.286C370.46 239.918 370.657 239.523 370.878 239.101Z" fill="#272727"></path><path d="M353.683 286.747L362.198 290.845L361.241 291.105L365.1 283.086C366.56 280.052 368.363 277.997 370.509 276.921C372.654 275.845 374.988 275.914 377.511 277.129C380.215 278.43 381.786 280.314 382.226 282.782C382.696 285.265 382.193 288.038 380.719 291.102L375.927 301.059L352.274 289.675L353.683 286.747ZM362.01 269.446L367.988 280.314L366.383 283.648L360.34 272.915L362.01 269.446ZM363.144 291.3L375.489 297.241L374.261 297.372L377.882 289.848C378.938 287.655 379.341 285.741 379.093 284.104C378.83 282.498 377.752 281.24 375.86 280.329C372.346 278.638 369.512 280.03 367.358 284.505L363.628 292.254L363.144 291.3Z" fill="#272727"></path><path d="M341.762 305.992L361.993 322.719L354.601 331.659C352.711 333.945 350.787 335.382 348.831 335.97C346.853 336.584 345.016 336.19 343.32 334.788C341.676 333.429 340.925 331.748 341.067 329.746C341.234 327.765 342.167 325.747 343.867 323.691L344.23 324.9C342.233 327.315 340.318 328.716 338.484 329.103C336.651 329.489 334.886 328.982 333.19 327.58C331.444 326.136 330.613 324.368 330.699 322.276C330.789 320.232 331.939 317.873 334.148 315.202L341.762 305.992ZM341.722 310.435L336.401 316.87C334.978 318.591 334.175 320.112 333.993 321.431C333.814 322.798 334.342 323.991 335.575 325.01C336.808 326.03 338.036 326.375 339.26 326.046C340.484 325.717 341.807 324.692 343.23 322.97L348.774 316.265L341.722 310.435ZM350.816 317.954L345.782 324.042C344.486 325.61 343.794 327.048 343.705 328.359C343.595 329.695 344.105 330.831 345.236 331.765C346.366 332.7 347.564 332.977 348.83 332.596C350.075 332.242 351.346 331.281 352.641 329.714L357.675 323.625L350.816 317.954Z" fill="#272727"></path><path d="M310.814 340.032L324.662 356.413L334.323 348.246L330.775 343.585C329.685 342.193 328.656 340.794 327.685 339.388C326.69 338.004 325.869 336.646 325.224 335.315C324.575 334.03 324.201 332.84 324.104 331.744C324.028 330.673 324.329 329.764 325.007 329.016L328.137 327.221C327.327 327.863 326.914 328.691 326.9 329.707C326.907 330.749 327.212 331.91 327.814 333.19C328.417 334.47 329.214 335.826 330.205 337.258C331.219 338.714 332.279 340.175 333.386 341.64L338.768 348.548L323.952 361.072L308.103 342.324L310.814 340.032ZM322.877 319.294L328.977 326.511L305.876 346.04L299.775 338.823L302.333 336.66L306.433 341.51L324.418 326.306L320.318 321.457L322.877 319.294Z" fill="#272727"></path><path d="M290.748 350.922C292.943 349.658 295.205 349.009 297.532 348.977C299.848 348.989 302.01 349.571 304.019 350.722C306.045 351.902 307.707 353.618 309.004 355.871C310.318 358.153 310.969 360.452 310.956 362.767C310.944 365.083 310.353 367.23 309.186 369.211C308.018 371.191 306.323 372.822 304.098 374.103C301.845 375.4 299.569 376.057 297.271 376.073C294.943 376.106 292.789 375.538 290.809 374.371C288.8 373.22 287.138 371.504 285.824 369.222C284.526 366.969 283.876 364.67 283.872 362.326C283.856 360.027 284.437 357.865 285.617 355.839C286.814 353.842 288.524 352.203 290.748 350.922ZM292.32 353.652C290.674 354.6 289.423 355.801 288.568 357.255C287.729 358.738 287.332 360.352 287.375 362.097C287.406 363.887 287.929 365.663 288.943 367.425C289.975 369.216 291.249 370.559 292.765 371.456C294.252 372.368 295.839 372.82 297.526 372.81C299.23 372.829 300.89 372.373 302.508 371.441C304.125 370.51 305.353 369.302 306.192 367.819C307.047 366.365 307.467 364.758 307.453 362.996C307.439 361.235 306.916 359.459 305.885 357.668C304.87 355.906 303.596 354.563 302.063 353.637C300.547 352.741 298.937 352.284 297.233 352.265C295.547 352.274 293.909 352.737 292.32 353.652Z" fill="#272727"></path><path d="M278.352 358.095L272.953 375.457L272.392 373.799L287.013 382.88L283.263 384.271L271.24 376.732L272.664 376.257L268.449 389.767L264.792 391.123L269.995 374.527L270.609 376.326L255.1 366.72L258.898 365.312L271.65 373.38L270.268 373.68L274.602 359.486L278.352 358.095Z" fill="#272727"></path><path d="M251.828 367.522L256.647 393.326L253.158 393.978L251.028 382.575L234.759 385.614L236.889 397.017L233.399 397.668L228.58 371.865L232.069 371.213L234.199 382.616L250.468 379.577L248.338 368.174L251.828 367.522Z" fill="#272727"></path><path d="M210.002 372.138C212.535 372.148 214.816 372.723 216.845 373.864C218.841 375.039 220.418 376.628 221.577 378.633C222.736 380.671 223.31 382.989 223.3 385.589C223.29 388.223 222.698 390.537 221.523 392.533C220.349 394.528 218.76 396.089 216.755 397.214C214.751 398.34 212.465 398.898 209.899 398.888C207.299 398.878 205.001 398.302 203.005 397.161C200.976 396.02 199.399 394.447 198.273 392.443C197.114 390.438 196.54 388.119 196.55 385.486C196.56 382.886 197.153 380.572 198.327 378.543C199.468 376.547 201.058 374.97 203.095 373.811C205.133 372.686 207.435 372.128 210.002 372.138ZM209.99 375.288C208.09 375.281 206.405 375.691 204.935 376.518C203.465 377.379 202.31 378.575 201.471 380.105C200.598 381.668 200.158 383.467 200.15 385.5C200.142 387.567 200.569 389.368 201.429 390.905C202.257 392.442 203.402 393.629 204.866 394.468C206.329 395.341 207.994 395.78 209.861 395.788C211.727 395.795 213.396 395.368 214.866 394.507C216.335 393.679 217.507 392.5 218.379 390.97C219.252 389.44 219.692 387.642 219.7 385.576C219.708 383.542 219.282 381.741 218.421 380.171C217.56 378.634 216.398 377.429 214.935 376.557C213.471 375.718 211.823 375.295 209.99 375.288Z" fill="#272727"></path><path d="M191.645 371.6L187.023 397.44L175.605 395.397C172.684 394.875 170.487 393.906 169.013 392.491C167.506 391.07 166.947 389.277 167.334 387.111C167.71 385.011 168.804 383.531 170.618 382.67C172.425 381.842 174.641 381.663 177.266 382.132L176.392 383.043C173.308 382.491 171.146 381.512 169.908 380.105C168.67 378.698 168.244 376.912 168.632 374.747C169.031 372.515 170.162 370.923 172.026 369.97C173.851 369.043 176.469 368.885 179.882 369.496L191.645 371.6ZM187.756 373.749L179.537 372.278C177.338 371.885 175.62 371.933 174.381 372.423C173.103 372.939 172.323 373.985 172.042 375.56C171.76 377.135 172.063 378.374 172.951 379.278C173.839 380.182 175.383 380.83 177.581 381.224L186.145 382.756L187.756 373.749ZM185.678 385.364L177.902 383.973C175.9 383.615 174.307 383.72 173.122 384.286C171.904 384.847 171.166 385.85 170.908 387.294C170.65 388.737 170.997 389.917 171.951 390.833C172.872 391.742 174.333 392.376 176.335 392.734L184.111 394.125L185.678 385.364Z" fill="#272727"></path><path d="M168.85 367.732L167.566 370.51C167.358 370.398 167.172 370.277 167.007 370.145C166.799 370.034 166.617 369.949 166.461 369.892C165.459 369.525 164.524 369.608 163.654 370.141C162.752 370.662 161.916 371.492 161.144 372.629C160.372 373.766 159.636 375.094 158.937 376.613C158.227 378.163 157.532 379.719 156.853 381.28L153.211 389.904L135.138 383.277L144.175 358.631L147.508 359.853L139.177 382.574L138.693 381.279L152.119 386.202L150.943 386.942L153.935 379.944C154.809 377.85 155.727 375.879 156.689 374.031C157.619 372.171 158.605 370.597 159.645 369.31C160.653 368.011 161.735 367.094 162.89 366.559C164.033 366.055 165.262 366.044 166.577 366.526C166.952 366.664 167.332 366.838 167.716 367.05C168.068 367.251 168.447 367.478 168.85 367.732Z" fill="#272727"></path><path d="M128.063 349.531C130.421 350.913 132.205 352.615 133.416 354.638C134.609 356.689 135.204 358.872 135.2 361.188C135.179 363.532 134.511 365.825 133.197 368.069C131.883 370.312 130.246 372.019 128.286 373.189C126.297 374.341 124.182 374.918 121.941 374.919C119.654 374.932 117.461 374.323 115.362 373.093C113.233 371.846 111.636 370.254 110.569 368.315C109.457 366.389 108.94 364.271 109.019 361.96C109.08 359.679 109.777 357.402 111.108 355.129C111.192 354.986 111.299 354.836 111.429 354.68C111.513 354.536 111.606 354.378 111.707 354.206L131.423 365.755L130.084 368.042L112.007 357.452L113.746 357.254C112.785 358.894 112.294 360.557 112.272 362.243C112.204 363.942 112.563 365.505 113.35 366.931C114.137 368.358 115.321 369.535 116.903 370.461C118.456 371.371 120.062 371.829 121.72 371.834C123.378 371.84 124.931 371.397 126.379 370.507C127.828 369.617 129.041 368.338 130.018 366.67L130.296 366.196C131.307 364.47 131.826 362.727 131.853 360.965C131.835 359.216 131.369 357.572 130.455 356.032C129.496 354.504 128.139 353.227 126.384 352.199C125.004 351.39 123.58 350.885 122.115 350.683C120.62 350.464 119.147 350.606 117.694 351.107L117.131 348.111C118.845 347.493 120.65 347.314 122.545 347.574C124.411 347.818 126.251 348.47 128.063 349.531Z" fill="#272727"></path><path d="M113.864 340.85L96.7721 360.773L94.0778 358.461L101.631 349.657L89.0699 338.881L81.5169 347.685L78.8225 345.374L95.9146 325.451L98.6089 327.762L91.0559 336.566L103.617 347.343L111.17 338.539L113.864 340.85Z" fill="#272727"></path><path d="M90.908 320.217L70.3167 336.498L68.115 333.713L84.4703 320.781L57.2301 319.946L55.2764 317.475L75.8677 301.195L78.0695 303.979L61.6749 316.942L88.9233 317.707L90.908 320.217Z" fill="#272727"></path><path d="M63.9805 279.736L55.6231 284.147L55.983 283.222L60.1371 291.093C61.7085 294.07 62.2891 296.742 61.8788 299.106C61.4686 301.471 60.0253 303.307 57.549 304.614C54.8958 306.014 52.4462 306.158 50.2 305.044C47.9244 303.946 45.993 301.893 44.4061 298.887L39.2484 289.114L62.4636 276.862L63.9805 279.736ZM72.9422 296.716L60.6493 295.063L58.9223 291.791L71.1452 293.311L72.9422 296.716ZM54.6945 284.637L42.5784 291.032L43.2036 289.967L47.101 297.351C48.2368 299.503 49.5363 300.966 50.9996 301.739C52.4474 302.482 54.0999 302.364 55.9571 301.384C59.4062 299.563 59.9717 296.457 57.6534 292.065L53.6393 284.459L54.6945 284.637Z" fill="#272727"></path><path d="M47.5683 194.023L26.1542 192.782L25.4225 205.411L31.2453 206.049C33.0052 206.218 34.7288 206.435 36.4164 206.699C38.1058 206.931 39.6554 207.271 41.0651 207.72C42.4435 208.134 43.5636 208.683 44.4255 209.367C45.254 210.049 45.706 210.894 45.7812 211.9L44.927 215.406C45.02 214.376 44.7031 213.507 43.9763 212.797C43.2162 212.085 42.1646 211.506 40.8214 211.061C39.4782 210.616 37.9463 210.26 36.2255 209.994C34.4714 209.725 32.6821 209.488 30.8576 209.282L22.1425 208.426L23.2647 189.059L47.7736 190.479L47.5683 194.023ZM54.2975 217.051L44.8633 216.504L46.6131 186.305L56.0473 186.852L55.8535 190.196L49.5142 189.829L48.1519 213.339L54.4913 213.707L54.2975 217.051Z" fill="#272727"></path><path d="M49.4173 187.259L46.5123 186.296C46.5997 186.078 46.6994 185.879 46.8113 185.7C46.8987 185.481 46.9621 185.291 47.0014 185.129C47.2529 184.092 47.0646 183.172 46.4365 182.368C45.8163 181.531 44.8976 180.794 43.6805 180.156C42.4633 179.517 41.0607 178.937 39.4724 178.414C37.8518 177.884 36.2273 177.369 34.5988 176.871L25.6186 174.229L30.1578 155.522L55.6676 161.712L54.8305 165.162L31.3129 159.455L32.5455 158.828L29.1735 172.725L28.305 171.64L35.5963 173.821C37.7755 174.452 39.8378 175.141 41.7833 175.888C43.7367 176.602 45.4117 177.403 46.8085 178.291C48.213 179.146 49.2465 180.117 49.9089 181.204C50.5389 182.283 50.6889 183.503 50.3587 184.863C50.2644 185.252 50.1338 185.649 49.9668 186.054C49.8077 186.427 49.6245 186.829 49.4173 187.259Z" fill="#272727"></path><path d="M64.952 139.059L56.3044 135.248L57.2528 134.956L53.6639 143.1C52.3063 146.181 50.5733 148.295 48.465 149.442C46.3567 150.589 44.0214 150.598 41.4591 149.469C38.7139 148.259 37.0802 146.428 36.558 143.976C36.0053 141.511 36.4145 138.722 37.7856 135.611L42.2415 125.499L66.2626 136.085L64.952 139.059ZM57.2095 156.628L50.8706 145.967L52.3626 142.581L58.762 153.105L57.2095 156.628ZM55.3436 134.825L42.8069 129.3L44.0298 129.129L40.6627 136.77C39.6814 138.996 39.3423 140.923 39.6452 142.55C39.9616 144.147 41.0807 145.368 43.0024 146.215C46.5712 147.788 49.357 146.302 51.3599 141.757L54.8279 133.887L55.3436 134.825Z" fill="#272727"></path><path d="M76.3741 119.071L55.6647 102.941L62.7927 93.7896C64.6157 91.4491 66.4965 89.9565 68.4353 89.3117C70.3945 88.6406 72.2419 88.981 73.9776 90.3329C75.6606 91.6438 76.4605 93.302 76.3773 95.3075C76.2678 97.2925 75.3937 99.3369 73.7551 101.441L73.3568 100.243C75.2822 97.7712 77.1557 96.3151 78.9774 95.8749C80.7991 95.4347 82.5777 95.8906 84.3134 97.2424C86.1016 98.6353 86.9833 100.378 86.9585 102.472C86.9278 104.518 85.8474 106.909 83.7172 109.644L76.3741 119.071ZM76.2851 114.629L81.416 108.041C82.7884 106.279 83.5466 104.736 83.6908 103.412C83.8291 102.041 83.2672 100.864 82.0049 99.8808C80.7426 98.8976 79.5047 98.5883 78.2912 98.953C77.0777 99.3176 75.7847 100.381 74.4124 102.143L69.0664 109.006L76.2851 114.629ZM66.9757 107.378L71.8301 101.146C73.0796 99.5414 73.7296 98.083 73.7802 96.7704C73.8513 95.4314 73.3083 94.3113 72.1512 93.4101C70.9941 92.5089 69.7883 92.2668 68.5338 92.684C67.2998 93.0749 66.0581 94.0725 64.8087 95.6766L59.9542 101.909L66.9757 107.378Z" fill="#272727"></path><path d="M106.363 83.9821L92.0448 68.0108L82.6258 76.455L86.3075 81.0111C87.4371 82.371 88.5073 83.7395 89.518 85.1166C90.5536 86.4714 91.4132 87.8048 92.097 89.1168C92.7833 90.3817 93.1911 91.5606 93.3203 92.6535C93.4273 93.7216 93.153 94.639 92.4974 95.4058L89.4202 97.2916C90.2119 96.6266 90.6 95.7862 90.5846 94.7703C90.547 93.7296 90.2086 92.5781 89.5693 91.3158C88.93 90.0534 88.0939 88.7213 87.0609 87.3194C86.0057 85.8927 84.9034 84.4635 83.7541 83.0317L78.1738 76.2829L92.6187 63.3328L109.007 81.6123L106.363 83.9821ZM94.9094 105.062L88.6012 98.0258L111.125 77.833L117.433 84.8693L114.939 87.1056L110.7 82.3775L93.1649 98.0978L97.4037 102.826L94.9094 105.062Z" fill="#272727"></path><path d="M125.625 72.7277C123.467 74.0561 121.226 74.7709 118.9 74.8721C116.586 74.9274 114.407 74.4095 112.365 73.3182C110.305 72.1986 108.594 70.5319 107.231 68.318C105.85 66.0757 105.132 63.7972 105.076 61.4825C105.021 59.1678 105.548 57.0035 106.656 54.9897C107.765 52.976 109.412 51.2962 111.598 49.9503C113.812 48.5869 116.067 47.8634 118.364 47.7797C120.69 47.6785 122.86 48.1822 124.874 49.2909C126.916 50.3822 128.627 52.0489 130.008 54.2912C131.371 56.505 132.089 58.7836 132.162 61.1267C132.246 63.4239 131.728 65.6024 130.608 67.662C129.471 69.6933 127.81 71.3818 125.625 72.7277ZM123.973 70.0455C125.591 69.0492 126.806 67.8117 127.617 66.3331C128.412 64.826 128.762 63.2012 128.667 61.4586C128.584 59.6702 128.009 57.9103 126.943 56.1789C125.859 54.4191 124.546 53.1137 123.004 52.2625C121.491 51.3939 119.891 50.9893 118.205 51.0488C116.502 51.0799 114.855 51.5849 113.266 52.5637C111.676 53.5425 110.484 54.7854 109.69 56.2925C108.878 57.7711 108.505 59.3905 108.571 61.1506C108.637 62.9106 109.212 64.6705 110.296 66.4303C111.362 68.1617 112.675 69.4671 114.235 70.3467C115.777 71.1978 117.399 71.6079 119.102 71.5767C120.788 71.5172 122.412 71.0068 123.973 70.0455Z" fill="#272727"></path><path d="M138.256 64.8606L143.132 47.345L143.743 48.9856L128.856 40.3461L132.563 38.8432L144.806 46.0187L143.397 46.536L147.205 32.9065L150.819 31.4411L146.116 48.1852L145.449 46.4057L161.239 55.5422L157.485 57.064L144.497 49.3813L145.87 49.0406L141.963 63.3576L138.256 64.8606Z" fill="#272727"></path><path d="M164.065 54.6979L158.46 29.0533L161.928 28.2953L164.405 39.6277L180.573 36.0936L178.096 24.7612L181.564 24.0031L187.17 49.6477L183.702 50.4057L181.225 39.0733L165.056 42.6074L167.533 53.9398L164.065 54.6979Z" fill="#272727"></path><path d="M205.392 48.7222C202.86 48.8004 200.56 48.3045 198.493 47.2345C196.457 46.1301 194.826 44.5964 193.598 42.6334C192.369 40.637 191.715 38.3395 191.634 35.7407C191.553 33.1086 192.065 30.7751 193.169 28.74C194.273 26.7049 195.808 25.0901 197.772 23.8956C199.736 22.7011 202.001 22.0642 204.566 21.9849C207.165 21.9047 209.481 22.4001 211.515 23.4711C213.583 24.5411 215.213 26.0582 216.408 28.0222C217.636 29.9853 218.29 32.2828 218.372 34.9149C218.452 37.5137 217.94 39.8472 216.837 41.9156C215.766 43.9496 214.232 45.5811 212.236 46.81C210.239 48.0055 207.957 48.643 205.392 48.7222ZM205.295 45.5737C207.194 45.515 208.863 45.0466 210.304 44.1684C211.743 43.2569 212.855 42.0219 213.641 40.4636C214.459 38.8709 214.836 37.0584 214.773 35.026C214.71 32.9603 214.221 31.1746 213.307 29.6687C212.427 28.1619 211.241 27.0146 209.749 26.2269C208.257 25.406 206.577 25.0243 204.712 25.0819C202.846 25.1395 201.193 25.6241 199.754 26.5357C198.314 27.4139 197.184 28.6327 196.365 30.192C195.546 31.7514 195.169 33.5639 195.233 35.6296C195.296 37.6619 195.784 39.4477 196.699 40.9869C197.612 42.4927 198.816 43.6561 200.308 44.4771C201.8 45.2648 203.462 45.6303 205.295 45.5737Z" fill="#272727"></path><path d="M224.265 48.6289L228.093 22.6595L239.569 24.3511C242.504 24.7837 244.73 25.6846 246.246 27.0537C247.796 28.4277 248.41 30.203 248.089 32.3795C247.778 34.49 246.73 36.0032 244.944 36.9193C243.163 37.8023 240.953 38.0494 238.315 37.6605L239.16 36.7238C242.26 37.1807 244.451 38.0932 245.731 39.4613C247.012 40.8294 247.492 42.6017 247.172 44.7781C246.841 47.0206 245.759 48.6468 243.925 49.6569C242.13 50.6389 239.517 50.8771 236.087 50.3715L224.265 48.6289ZM228.087 46.3619L236.347 47.5796C238.557 47.9053 240.273 47.8045 241.496 47.2773C242.758 46.7219 243.505 45.6528 243.738 44.0699C243.971 42.487 243.63 41.2574 242.715 40.3813C241.8 39.5051 240.237 38.9041 238.028 38.5785L229.421 37.3097L228.087 46.3619ZM229.807 34.6881L237.623 35.8401C239.634 36.1366 241.224 35.9834 242.391 35.3805C243.591 34.7825 244.298 33.7579 244.512 32.307C244.726 30.856 244.342 29.6875 243.361 28.8016C242.412 27.9206 240.932 27.3318 238.921 27.0353L231.105 25.8832L229.807 34.6881Z" fill="#272727"></path><path d="M246.702 51.5626L247.902 48.7477C248.113 48.853 248.303 48.9689 248.472 49.0953C248.683 49.2006 248.867 49.2796 249.025 49.3323C250.037 49.6692 250.97 49.5581 251.824 48.9991C252.709 48.4506 253.52 47.5965 254.258 46.4367C254.995 45.2769 255.69 43.9274 256.343 42.3882C257.007 40.8173 257.654 39.2412 258.286 37.6598L261.666 28.9306L279.931 35.0108L271.64 59.917L268.271 58.7957L275.915 35.8346L276.437 37.1151L262.869 32.5984L264.023 31.8232L261.243 38.9078C260.433 41.0268 259.574 43.0246 258.668 44.9013C257.794 46.7884 256.857 48.391 255.856 49.709C254.887 51.0376 253.833 51.9867 252.695 52.5563C251.567 53.0944 250.339 53.1423 249.011 52.7001C248.631 52.5737 248.246 52.4105 247.856 52.2104C247.498 52.0208 247.113 51.8049 246.702 51.5626Z" fill="#272727"></path><path d="M287.826 68.2253C285.423 66.9227 283.583 65.2808 282.306 63.2996C281.045 61.2891 280.378 59.1267 280.305 56.8125C280.249 54.4689 280.84 52.1542 282.079 49.8684C283.318 47.5826 284.897 45.8226 286.817 44.5885C288.767 43.3703 290.862 42.7236 293.101 42.6485C295.386 42.56 297.598 43.0956 299.738 44.2551C301.906 45.4306 303.556 46.9692 304.686 48.871C305.862 50.7594 306.448 52.8595 306.446 55.1713C306.46 57.4538 305.84 59.7526 304.585 62.0677C304.506 62.2142 304.404 62.3674 304.279 62.5274C304.2 62.6739 304.112 62.8351 304.017 63.0109L283.928 52.1221L285.191 49.7923L303.609 59.7757L301.878 60.0317C302.784 58.3613 303.22 56.6828 303.186 54.9963C303.197 53.2963 302.786 51.7465 301.952 50.3467C301.119 48.9469 299.896 47.8102 298.284 46.9366C296.702 46.0788 295.082 45.6747 293.425 45.7243C291.767 45.7739 290.23 46.2675 288.812 47.205C287.393 48.1425 286.224 49.4611 285.302 51.1608L285.04 51.6443C284.087 53.4026 283.626 55.1623 283.658 56.9233C283.734 58.6709 284.254 60.299 285.219 61.8075C286.228 63.3026 287.627 64.5346 289.415 65.5036C290.821 66.266 292.26 66.7238 293.732 66.8769C295.233 67.0458 296.701 66.8557 298.136 66.3066L298.798 69.2817C297.105 69.9566 295.307 70.1954 293.405 69.9983C291.532 69.817 289.672 69.226 287.826 68.2253Z" fill="#272727"></path><path d="M303.082 76.8285L319.587 56.4164L322.347 58.6484L315.054 67.6686L327.923 78.0745L335.216 69.0543L337.977 71.2864L321.472 91.6985L318.712 89.4664L326.005 80.4462L313.136 70.0403L305.842 79.0605L303.082 76.8285Z" fill="#272727"></path><path d="M326.304 96.3182L346.35 79.3716L348.642 82.0826L332.719 95.5431L359.972 95.4853L362.006 97.891L341.959 114.838L339.667 112.127L355.628 98.6338L328.37 98.762L326.304 96.3182Z" fill="#272727"></path><path d="M354.628 135.858L362.834 131.172L362.505 132.109L358.092 124.38C356.423 121.456 355.754 118.806 356.085 116.429C356.417 114.052 357.798 112.169 360.23 110.78C362.835 109.293 365.278 109.068 367.56 110.106C369.871 111.128 371.869 113.116 373.555 116.068L379.035 125.664L356.24 138.681L354.628 135.858ZM345.107 119.185L357.448 120.429L359.283 123.642L347.016 122.529L345.107 119.185ZM363.746 130.652L375.643 123.858L375.054 124.943L370.913 117.692C369.706 115.579 368.359 114.161 366.871 113.437C365.399 112.742 363.751 112.915 361.928 113.956C358.541 115.89 358.079 119.013 360.542 123.326L364.807 130.795L363.746 130.652Z" fill="#272727"></path></svg> 