<?xml version="1.0" encoding="UTF-8"?> <svg xmlns="http://www.w3.org/2000/svg" width="683" height="684" viewBox="0 0 683 684" fill="none"><path d="M375.002 25.002C375.002 25.002 452.785 32.073 551.779 131.068C650.772 230.063 657.845 307.845 657.845 307.845" stroke="white" stroke-width="50" stroke-linecap="round"></path><path d="M398.568 142.857C398.568 142.857 431.568 152.286 481.065 201.783C530.562 251.281 539.992 284.279 539.992 284.279" stroke="white" stroke-width="50" stroke-linecap="round"></path><path d="M203.184 513.711C325.258 635.929 438.623 651.672 496.748 649.876L498.388 666.495C436.602 668.643 317.77 652.177 191.097 525.191L196.99 519.593L196.991 519.594L203.184 513.711ZM551.96 650.366C545.7 655.072 538.833 658.968 531.407 661.659L530.798 655.47H530.796L529.7 644.371C533.134 642.82 536.459 640.91 539.666 638.689L551.96 650.366ZM594.246 595.699V595.7L600.288 601.438L575.892 627.123L563.807 615.646L588.203 589.96L594.246 595.699ZM605.518 471.326C634.902 497.597 642.066 542.685 621.935 576.025L609.462 564.18C622.517 539.161 617.486 506.617 596.974 486.17L605.518 471.326ZM34.8135 206.702C41.3184 264.344 69.7736 368.557 180.198 489.569L168.112 501.05C54.3979 376.536 24.8185 268.406 18.1436 207.597L25.9902 207.177L25.9893 207.176L34.8135 206.702ZM311.478 399.701C353.738 441.48 382.177 454.262 399.339 457.05H399.34C400.351 457.214 401.324 457.342 402.26 457.441L416.88 471.327C417.505 471.921 418.108 472.495 418.69 473.048C412.922 474.429 405.613 474.954 396.665 473.501H396.666C374.611 469.919 343.044 454.435 299.386 411.185L305.248 405.616L305.249 405.617L311.478 399.701ZM577.491 453.198L573.334 460.422H573.333L569.177 467.643L534.384 447.615L542.697 433.171L577.491 453.198ZM450.339 426.729C468.764 414.52 491.625 411.395 512.909 418.104L509.649 423.766L504.335 432.997C490.112 429.478 475.355 431.5 462.841 438.604L450.339 426.729ZM218.991 263.078L233.293 276.662C233.377 278.489 233.562 280.463 233.873 282.589C236.568 300.979 248.85 331.057 288.521 375.532L282.293 381.447L276.43 387.017C235.314 341.018 220.737 307.905 217.382 285.005C216.003 275.597 216.531 267.973 217.859 262.005C218.228 262.355 218.606 262.712 218.991 263.078ZM261.215 157.859C272.212 182.659 270.744 211.466 257.108 234.164L257.068 234.126L252.396 229.688H252.396L244.635 222.316C253.172 205.888 254.246 185.773 247.272 167.717L255.764 161.713L255.765 161.714L261.215 157.859ZM43.7852 152.631C39.7097 159.093 36.6642 166.035 34.9424 173.313L24.2041 173.891L17.7471 174.236C19.825 162.079 24.7776 150.868 31.5088 140.97L43.7852 152.631ZM243.323 129.686L229.716 139.307L206.927 107.075L220.535 97.4531L243.323 129.686ZM88.9043 90.707V90.708L94.9463 96.4463L65.582 127.36L53.498 115.883L82.8623 84.9688L88.9043 90.707ZM107.16 62.0752C135.86 42.9651 174.064 46.9153 199.929 71.1992L194.488 75.0469L185.98 81.0615C166.653 64.7066 140.339 62.2463 119.681 73.9668L111.86 66.5391L107.16 62.0752Z" fill="#212121" stroke="white" stroke-width="33.3333"></path></svg> 