<?xml version="1.0" encoding="UTF-8"?> <svg xmlns="http://www.w3.org/2000/svg" width="598" height="639" viewBox="0 0 598 639" fill="none"><path d="M161.794 86.1855C164.038 86.2913 166.504 86.9775 168.328 87.9925C169.938 88.9224 171.339 89.6787 171.467 89.7474C171.641 89.78 172.463 88.8114 173.397 87.5046C175.794 84.3164 180.183 82.2644 189.107 80.3878C195.339 79.0851 197.474 78.2724 201.627 75.8171C209.473 71.1794 217.057 69.5012 221.917 71.2641C223.164 71.722 226.703 72.8335 229.726 73.7586C239.88 76.7821 239.672 76.6084 250.153 90.2445L259.217 102.134L257.398 98.0216C256.415 95.7721 254.955 92.8047 254.175 91.4014C252.836 89.1753 252.816 88.8571 254.06 88.1471L255.397 87.3648L259.986 93.4323C262.526 96.7364 266.007 101.654 267.755 104.316C269.818 107.486 271.068 109.112 271.349 108.895C271.63 108.678 271.148 106.208 270.338 103.407C269.487 100.554 269.033 98.3138 269.254 98.3103C269.515 98.3592 270.149 99.9595 270.722 101.773C271.493 104.521 272.4 105.993 275.598 109.96C278.547 113.7 279.535 115.276 279.74 116.707C279.842 117.714 280.827 120.547 281.838 123.026C282.848 125.505 283.571 128.29 283.46 129.212C283.164 131.446 283.862 132.161 284.803 130.765C285.29 130.138 287.274 127.771 289.291 125.544C292.558 121.935 293.26 121.393 296.352 120.176C298.212 119.491 300.621 118.55 301.671 118.073C305.539 116.508 312.035 118.846 315.219 122.989C316.67 124.877 317.034 125.933 316.993 128.305C316.941 134.447 312.303 141.706 308.118 142.179C307.315 142.298 305.341 143.321 303.75 144.55C301.363 146.393 300.669 147.43 299.251 151.116C297.275 156.403 294.256 160.238 287.365 166.312C282.359 170.763 282.172 170.907 278.604 171.407C276.595 171.704 272.476 171.876 269.482 171.765C259.354 171.395 258.391 171.888 252.764 179.995L249.213 185.077L246.669 185.454C242.383 186.088 242.689 184.933 247.817 181.224C250.331 179.449 253.533 176.726 254.923 175.235C258.096 171.698 262.089 169.617 268.101 168.318C277.888 166.109 279.755 165.336 283.544 161.825C290.167 155.791 292.398 153.066 294.003 149.235C296.573 143.071 297.161 142.283 303.103 137.11C308.998 131.972 310.046 130.327 309.508 126.814C309.31 125.296 308.962 125.23 306.627 126.365C299.844 129.765 298.112 131.102 294.587 135.83C291.943 139.376 290.226 141.12 287.625 142.878C285.351 144.383 283.647 145.95 282.646 147.558C280.691 150.739 275.792 154.941 271.29 157.331C268.534 158.791 267.223 159.802 266.042 161.467C263.472 165.207 259.045 165.366 256.344 161.852L255.135 160.278L262.904 154.279L270.719 148.244L270.011 146.45C269.58 145.112 269.911 143.603 271.39 140.288C273.289 136.063 273.315 135.709 272.419 128.043L271.456 120.095L266.072 112.217C263.122 107.893 260.514 104.307 260.293 104.311C260.079 104.226 259.478 105.191 258.952 106.35C258.426 107.508 256.77 109.623 255.293 111.097L252.58 113.777L253.446 117.621L254.266 121.502L257.834 123.427C259.785 124.51 262.3 125.745 263.419 126.134C265.565 126.984 267.077 129.243 266.364 130.546C266.157 130.957 265.106 131.433 264.029 131.681C262.596 131.951 260.746 131.291 255.857 128.714C248.42 124.763 242.731 123.473 236.49 124.28C231.85 124.938 229.817 126.174 226.792 130.098C224.989 132.409 224.966 133.932 226.607 133.835C229.487 133.7 238.406 141.521 244.863 149.824C248.37 154.387 251.284 160.411 252.037 164.593C252.71 168.67 250.393 174.387 246.93 177.062C245.432 178.218 244.21 179.83 243.405 181.79C240.282 189.467 240.382 189.306 238.506 188.999C234.962 188.56 234.99 186.366 238.647 183.458C239.536 182.772 240.683 180.966 241.229 179.542C242.061 177.228 242.013 176.68 240.784 175.372C239.642 174.081 239.554 173.481 240.139 171.525C240.584 170.261 241.211 168.942 241.585 168.653C242.942 167.604 243.718 161.239 242.927 158.173C240.723 149.678 235.403 143.339 228.277 140.568C226.045 139.701 222.283 138.009 219.943 136.808C213.727 133.669 213.117 133.554 208.552 134.99C202.863 136.709 198.082 136.891 191.689 135.56C188.338 134.887 185.873 134.785 185.265 135.255C182.785 137.17 182.154 142.171 183.338 150.115C183.713 152.835 183.82 155.594 183.587 156.358C183.354 157.123 183.379 159.193 183.732 161.01L184.289 164.257L187.233 165.662C192.047 168.045 198.415 172.739 201.672 176.492C203.344 178.376 205.324 180.273 206.089 180.686C207.866 181.737 209.393 184.403 208.941 185.755C208.516 187.336 204.179 188.68 201.117 188.286C198.451 187.922 194.668 185.912 190.025 182.393C187.308 180.313 186.455 179.3 185.499 177.28C184.092 174.188 178.564 167.676 174.738 164.445C172.49 162.587 171.719 162.263 170.535 162.76C168.534 163.553 167.897 163.209 164.833 159.223C161.73 155.185 158.87 149.621 156.214 142.478C154.084 136.602 153.788 136.412 146.189 134.675L141.411 133.601L141.455 135.405C141.452 136.662 142.287 138.524 144.27 141.589C145.863 143.953 147.962 147.848 149.019 150.291C153.094 159.764 159.128 165.384 173.903 173.448C177.343 175.305 180.086 177.03 180.067 177.296C180.088 177.614 179.392 178.068 178.616 178.416C176.796 179.153 171.233 177.349 164.165 173.78C157.868 170.536 154.902 168.23 149.442 161.999C145.977 158.073 145.183 156.847 144.744 155.013C144.372 153.462 143.154 151.393 140.695 148.194C135.213 141.061 134.647 139.743 134.89 134.625C135.015 131.101 134.798 129.848 133.737 128.662C132.353 127.056 131.462 124.15 132.211 123.572C132.445 123.391 132.481 121.692 132.269 119.766C132.057 117.841 132.28 115.997 132.702 115.672C133.123 115.346 135.239 115.383 137.37 115.827C139.501 116.271 141.524 116.38 141.899 116.091C143.302 115.007 144.14 118.037 143.811 123.139C143.637 126.115 143.583 128.664 143.663 128.769C143.784 128.926 145.473 129.377 147.47 129.841C149.467 130.305 151.277 130.913 151.519 131.228C152.889 133.011 155.208 124.869 154.86 119.371C154.345 111.327 154.573 108.81 156.259 105.085C158.258 100.7 158.467 98.4491 157.334 92.2203C156.838 89.3437 156.807 87.3622 157.328 86.8761C157.802 86.4261 159.811 86.1286 161.794 86.1855ZM163.867 96.4517C163.813 99.0009 163.131 102.286 161.826 105.633C160.035 110.192 159.898 111.469 160.339 116.894C160.91 122.973 160.798 123.895 159.187 130.822L158.392 134.445L161.823 138.23C165.208 142.052 169.122 148.891 169.887 152.312C170.124 153.299 170.413 153.578 171.136 153.354C172.575 152.995 173.671 154.906 173.086 156.862C172.488 158.995 173.322 160.274 175.829 161.012L177.732 161.548L178.058 157.703C178.227 155.4 177.939 152.697 177.299 151.185C175.736 147.211 175.481 141.64 176.657 137.64C177.635 134.545 177.586 133.997 176.425 132.972C170.982 128.316 170.235 126.47 172.106 122.016C173.671 118.133 176.756 117.004 186.366 116.603C188.623 116.532 191.537 116.538 192.763 116.678C193.995 116.729 195.234 116.692 195.468 116.511C196.17 115.969 194.727 114.576 193.159 114.283C191.765 114.022 191.818 113.897 193.523 112.33C195.601 110.474 195.324 109.435 192.657 109.07C190.996 108.849 190.047 109.749 188.047 113.55C187.58 114.496 185.484 111.768 184.13 108.551C183.308 106.512 182.778 105.919 180.987 105.045C177.929 103.395 173.199 99.8599 168.474 95.6527C166.192 93.654 164.272 92.1273 164.132 92.2357C163.992 92.3442 163.855 94.2045 163.867 96.4517ZM176.53 92.3566C176.23 92.8392 176.466 93.8264 176.99 94.5082C178.482 96.4487 187.75 101.327 193.481 103.253L198.609 104.976L201.188 102.316C205.437 97.9477 208.487 96.094 212.417 95.4828C216.441 94.7992 222.177 96.0527 223.548 97.8359C224.072 98.5177 225.493 99.0082 227.074 99.1246C228.527 99.1722 231.282 100.137 233.274 101.273C236.413 103.028 236.95 103.533 237.772 105.572C238.338 106.891 239.958 109.484 241.409 111.372C243.989 114.729 244.489 116.349 243.475 118.134C243.221 118.581 244.549 119.144 247.115 119.669C249.38 120.093 251.316 120.186 251.435 119.759C251.595 119.385 251.069 117.536 250.367 115.653C249.66 113.859 249.124 110.93 249.12 109.178C249.205 105.602 249.279 105.796 234.675 84.563C232.396 81.3078 229.561 80.2382 220.577 79.3197C212.692 78.4721 210.797 79.0155 202.177 84.5858C196.573 88.1614 192.785 89.2482 185.042 89.4602C179.866 89.6135 177.644 90.4099 176.53 92.3566ZM177.153 123.634C176.357 126.673 179.121 128.717 182.387 127.532C183.618 126.999 186.336 126.655 188.366 126.676C191.983 126.724 194.271 125.626 194.896 123.723C195.421 121.98 191.211 120.384 186.865 120.648C177.817 121.199 177.73 121.183 177.153 123.634ZM207.825 105.13C207.347 106.836 208.671 108.656 210.547 108.962C211.639 109.121 212.61 109.124 212.797 108.979C212.985 108.835 214.238 109.204 215.565 109.767C216.893 110.33 218.24 110.627 218.567 110.374C219.223 109.868 221.138 101.201 220.767 100.234C220.551 99.5648 214.298 100.549 212.278 101.608C209.983 102.795 208.018 104.313 207.825 105.13ZM198.675 116.124C199.276 118.167 199.317 118.219 201.645 117.173C203.291 116.404 203.351 116.191 202.504 115.089C200.569 112.572 197.912 113.287 198.675 116.124ZM207.771 116.12C208.214 116.697 208.885 117.182 209.287 117.122C210.707 117.029 210.998 118.475 210.052 120.543C208.993 122.949 209.215 123.53 211.219 123.905C212.787 124.198 216.043 121.934 216.147 120.517C216.199 119.808 216.62 119.483 217.644 119.36C219.513 119.171 221.246 121.427 221.151 123.923C221.128 125.446 220.688 126.037 219.076 126.947C217.925 127.585 216.802 128.452 216.542 128.987C216.042 129.791 216.25 129.965 218.227 130.695L220.419 131.509L221.458 128.785C222.323 126.612 223.285 125.535 226.608 122.969C228.901 121.198 230.605 119.631 230.484 119.474C230.323 119.264 229.345 119.351 228.314 119.562C226.473 119.981 226.346 119.912 224.773 117.282C223.085 114.407 219.556 111.951 218.554 112.975C217.505 114.036 216.782 114.26 216.258 113.578C215.485 112.67 209.806 113.044 208.269 114.148C207.333 114.871 207.207 115.386 207.771 116.12ZM199.829 128.103L199.465 130.056L201.802 129.505C203.147 129.218 204.412 128.827 204.646 128.646C205.348 128.104 203.7 125.281 202.339 124.577C200.891 123.857 200.59 124.34 199.829 128.103ZM225.458 109.733C225.68 110.313 226.74 110.916 228.04 111.249C230.861 111.912 239.124 116.647 239.267 117.706C239.322 118.165 239.617 118.355 239.945 118.102C240.319 117.813 239.889 117.059 238.446 115.666C237.331 114.605 234.995 112.147 233.322 110.262C231.61 108.325 229.791 106.638 229.275 106.451C227.847 106.049 225.066 108.447 225.458 109.733Z" fill="#FBF8EF"></path><path d="M184.479 112.879C184.681 113.141 184.77 113.742 184.656 114.08C184.496 114.455 184.268 114.547 184.026 114.232C183.824 113.97 183.689 113.405 183.849 113.03C183.962 112.692 184.237 112.564 184.479 112.879Z" fill="#FBF8EF"></path><path d="M136.279 199.008C136.601 198.843 137.932 196.393 139.202 193.572C140.471 190.751 142.21 187.568 143.047 186.42C143.837 185.309 144.538 183.596 144.563 182.656C144.612 180.776 145.389 179.842 146.505 180.32C146.848 180.474 148.224 179.832 149.491 178.855C152.964 176.176 154.054 177.009 156.226 183.622C158.317 190.13 161.002 195.175 163.81 197.949C171.156 205.259 172.624 206.973 175.18 211.364C178.256 216.527 178.381 218.439 175.746 220.555C174.291 221.678 174.164 221.609 172.708 219.717C171.947 218.631 170.651 216.364 169.848 214.64C167.789 210.117 163.308 204.197 159.297 200.928C155.958 198.145 152.562 193.732 151.783 191.067C151.14 188.968 150.124 190.757 149.904 194.359C149.697 197.784 149.771 197.977 153.54 203.945C157.262 209.948 158.012 211.797 158.223 215.57C158.309 218.015 159.28 219.275 160.11 218.216C160.452 217.785 160.368 216.51 159.962 215.4C159.516 214.237 159.209 212.381 159.288 211.316C159.452 209.682 159.746 209.288 161.149 208.875C162.055 208.595 163.594 208.748 164.576 209.246C166.243 210.053 166.318 210.247 166.596 214.302C167.533 226.891 168.197 229.309 172.815 236.379C177.035 242.835 179.668 245.576 183.333 247.521C184.443 248.088 187.419 250.984 190.409 254.286C193.231 257.468 195.871 260.12 196.395 260.218C198.579 260.627 199.858 253.445 198.47 248.822C197.286 245.048 198.991 244.737 202.418 248.121C207.212 252.796 208.738 264.595 204.936 267.527C204.232 268.07 204.327 268.583 205.621 270.264C207.44 272.628 210.549 274.919 211.206 274.412C211.441 274.231 212.773 272.366 214.159 270.376C216.548 266.775 217.588 263.461 216.699 262.306C216.012 261.413 214.497 254.293 214.919 253.967C215.576 253.46 214.21 252.17 211.479 250.76C209.347 249.642 208.519 248.857 206.86 246.118C204.959 243.064 204.501 242.664 200.527 240.706C198.22 239.555 195.132 237.583 193.759 236.382C192.345 235.128 190.972 233.927 190.636 233.684C190.212 233.425 189.186 234.133 187.564 235.719C186.177 237.123 184.716 238.334 184.266 238.43C182.863 238.842 180.044 234.402 179.984 231.603C180.025 229.227 180.346 228.477 183.754 223.672C185.334 221.449 185.223 219.944 183.58 221.211C180.999 223.202 181.53 217.769 184.386 212.636C185.61 210.436 186.559 208.364 186.544 207.957C186.483 207.586 188.762 205.493 191.578 203.321C196.084 199.846 197.513 199.078 202.547 197.456C208.936 195.458 214.234 194.469 222.421 193.931L227.76 193.58L229.62 195.997C230.954 197.73 232.004 198.511 233.227 198.74C236.069 199.227 241.541 198.271 243.231 196.968C245.202 195.447 248.372 195.095 250.323 196.27C251.217 196.752 252.144 196.79 252.848 196.247C253.458 195.777 254.277 195.48 254.673 195.509C255.157 195.555 256.647 195.159 258.104 194.621C263.654 192.601 273.863 192.261 283.708 193.877C286.772 194.36 289.728 194.508 290.278 194.251C291.056 193.902 292.253 194.485 294.683 196.379C296.48 197.839 297.927 199.234 297.908 199.5C297.888 199.767 297.305 200.467 296.554 201.046C295.334 201.988 295.321 202.165 296.613 203.261C297.448 203.957 298.962 205.05 300.018 205.742C304.418 208.544 314.105 220.16 312.884 221.101C312.65 221.282 311.247 221.695 309.676 221.986C307.111 222.54 306.419 222.321 301.872 219.717C299.154 218.129 294.568 216.057 291.718 215.074C288.861 214.18 284.894 212.719 282.958 211.952C281.028 211.097 277.943 210.295 276.095 210.129C274.248 209.964 271.305 209.638 269.592 209.453C267.831 209.304 264.968 208.498 263.213 207.675C260.261 206.269 252.263 204.234 251.652 204.704C251.465 204.849 253.224 207.427 255.569 210.474C258.965 214.887 259.835 216.309 259.75 217.463C259.699 218.757 259.512 218.902 257.785 218.894C256.764 218.928 255.299 218.384 254.505 217.741C251.886 215.407 251.294 215.027 250.825 215.389C250.59 215.57 250.787 216.506 251.253 217.403C251.833 218.546 251.842 219.627 251.187 220.719C250.672 221.702 250.568 223.122 250.973 224.232C252.447 228.286 251.807 230.37 249.259 229.489C248.049 229.083 247.956 229.155 247.764 230.559C247.659 231.393 247.043 232.538 246.339 233.081C245.307 233.877 245.344 235.188 246.645 242.808C248.062 251.259 247.984 255.337 246.272 261.179C245.219 264.67 244.406 261.864 245.079 256.908C245.97 250.193 245.098 247.601 239.402 239.52C234.341 232.456 233.413 231.833 233.879 235.743C234.146 238.132 237.689 250.804 240.362 259.039C242.466 265.37 242.883 268.146 242.602 274.391C242.455 277.601 242.776 279.865 243.735 281.889C244.417 283.455 245.22 285.18 245.531 285.778C246.098 287.098 245.182 288.726 244.066 288.247C242.606 287.615 244.2 291.241 246.99 294.866C249.011 297.493 249.511 298.531 249.332 299.757C248.904 303.185 248.157 302.505 238.933 290.616C231.326 280.828 229.979 279.271 228.257 278.59C226.153 277.702 225.776 277.406 226.386 276.936C227.231 276.284 231.125 278.136 234.133 280.588C237.35 283.213 239.736 283.885 239.994 282.179C240.08 281.61 239.957 280.867 239.634 280.447C239.351 280.079 239.143 277.477 239.123 274.73C239.224 269.126 238.15 263.843 234.991 254.392C230.783 241.731 229.447 236.399 229.3 231.154C229.228 229.117 228.77 225.703 228.308 223.547C227.812 221.251 227.752 218.451 228.138 216.814C229.142 212.774 228.593 207.589 226.95 205.842C225.758 204.585 225.274 204.539 221.106 205.829C216.85 207.102 215.971 207.612 208.73 213.365C204.406 216.784 200.237 220.502 199.4 221.65C198.61 222.762 197.444 224.163 196.828 224.722C195.87 225.713 195.965 226.225 197.517 229.214C198.442 231.096 199.266 233.139 199.22 233.76C199.291 235.213 200.482 235.885 206.317 237.831C208.522 238.558 211.043 239.794 211.871 240.579C213.117 241.711 213.856 241.894 215.319 241.268C217.279 240.51 217.79 240.786 218.258 242.852C219.243 247.534 220.184 250.409 221.445 252.534C222.187 253.887 222.911 256.091 222.995 257.366C223.072 258.73 223.445 260.284 223.796 260.934C224.18 261.726 223.962 262.899 223.118 264.136C222.415 265.264 221.729 267.384 221.665 268.856C221.501 270.49 220.96 271.828 220.162 272.443C218.901 273.332 214.931 278.572 213.412 281.166C212.75 282.347 212.865 282.593 215.855 285.896C218.602 288.883 218.919 289.392 218.215 289.935C217.136 290.768 217.681 291.185 222.139 293.188C226.51 295.174 234.098 299.787 236.427 301.841C237.295 302.678 238.084 303.995 238.328 304.896C238.648 306.574 240.62 308.068 248.947 312.863C250.386 313.762 251.739 314.644 251.941 314.907C252.345 315.432 257.093 317.714 257.327 317.533C257.421 317.461 257.121 315.516 256.713 313.236C255.923 308.905 256.574 308.487 258.464 312.304C259.935 315.187 261.814 317.338 266.176 321.257C268.963 323.712 270.222 325.252 272.071 328.431C275.733 334.648 279.674 339.478 283.617 342.464C285.589 343.957 287.709 345.838 288.396 346.731C289.535 348.113 289.622 348.13 289.538 346.855C289.503 346.128 288.713 344.227 287.849 342.716C286.116 339.783 285.17 334.569 286.25 333.736C287.047 333.121 289.002 336.05 293.746 345.033C297.052 351.273 297.012 351.221 307.69 361.988C316.477 370.782 325.111 377.434 328.148 377.687C329.337 377.775 330.171 378.47 331.546 380.257C333.561 382.972 338.399 386.44 349.632 393.264C363.12 401.363 372.448 406.39 372.85 405.746C373.552 404.618 369.741 398.013 363.178 389.095C355.974 379.247 352.317 372.356 351.384 366.965C351.064 365.286 351.127 360.8 351.488 357.089C351.972 351.692 352.578 349.467 354.37 346.159C357.146 340.921 357.203 339.537 354.718 339.612C350.768 339.728 345.929 338.689 343.084 337.032C334.71 332.273 332.948 331.539 329.462 331.382C325.928 331.261 325.801 331.192 324.465 328.873C323.44 327.152 322.821 326.542 321.853 326.451C321.107 326.356 320.374 326.084 320.132 325.769C319.93 325.506 317.643 324.089 315.046 322.659C310.836 320.298 310.338 319.845 309.513 317.801C308.844 316.057 308.937 315.4 309.769 314.926C310.829 314.359 310.68 313.972 308.219 310.093C306.702 307.831 304.975 304.809 304.368 303.436C302.004 298.227 301.58 297.967 297.084 299.51C290.815 301.666 278.853 302.353 267.647 301.202C263.951 300.871 260.499 300.855 260.029 301.217C259.372 301.724 258.855 301.537 258.127 300.592C257.561 299.856 256.882 299.459 256.6 299.676C256.271 299.93 256.012 301.051 255.968 302.257C255.85 306.283 253.015 306.292 252.421 302.313C252.284 301.163 252.191 298.807 252.315 297.121C252.56 292.579 252.207 291.344 250.751 291.881C249.429 292.399 248.924 292.034 248.53 290.162C248.401 289.508 247.941 287.937 247.494 286.775C246.73 284.518 247.085 283.909 249.475 283.322C250.784 282.982 251.117 282.055 252.085 276.704C252.695 273.219 253.68 269.446 254.248 268.337C254.817 267.229 255.698 264.875 256.265 263.182C256.791 261.437 258.737 257.843 260.572 255.172C262.446 252.554 264.836 248.953 265.893 247.217C268.248 243.474 269.904 242.03 270.753 243.133C271.076 243.553 271.125 244.102 270.89 244.283C270.186 244.826 269.723 250.542 270.329 251.33C270.572 251.645 271.525 251.328 272.551 250.621C280.322 244.877 285.211 241.609 286.702 241.213C287.695 240.949 289.258 240.162 290.197 239.438C292.403 237.736 294.906 236.81 303.586 234.385C309.6 232.676 311.293 232.543 314.968 233.14C321.486 234.224 326.484 234.304 332.79 233.459C336.859 232.916 342.343 233.553 342.772 233.796C343.201 234.039 345.253 233.554 346.403 234.402C348.304 235.803 339.981 244.146 339.981 244.146C335.331 248.444 328.947 253.253 328.889 254.049C328.91 254.367 330.983 256.284 333.54 258.247C336.138 260.262 339.948 263.853 342.077 266.23C344.158 268.643 346.44 270.734 347.092 270.901C352.55 272.551 358.01 277.8 359.285 282.761C359.671 284.137 360.644 286.568 361.46 288.115C364.652 294.109 365.784 298.594 365.502 304.253C365.368 307.286 365.408 309.767 365.67 309.816C366.155 309.941 367.611 303.189 368.377 297.997L369.239 301.397C368.874 303.727 368.506 306.382 368.14 309.334C367.673 313.294 366.851 317.863 366.29 319.468C365.27 322.515 366.21 321.686 368.06 323.712C369.911 325.737 368.796 333.706 367.91 335.764C367.025 337.822 366.189 338.969 365.226 340.633C364.262 342.297 362.561 344.362 361.482 345.195C360.402 346.027 359.531 347.034 359.633 347.458C359.694 347.829 359.116 350.285 358.35 352.885C357.05 357.32 356.655 363.318 357.353 368.89C358.1 375.012 361.689 381.62 370.698 393.424C374.902 398.888 376.736 401.66 377.115 403.125C377.387 404.255 378.501 406.578 379.607 408.404C381.346 411.248 382.013 411.822 385.631 413.803C393.769 418.158 395.776 417.364 392.429 411.071C388.961 404.621 388.847 404.374 389.646 404.344C391.338 404.21 393.897 406.758 400.129 414.76C405.755 421.974 406.947 423.231 408.338 423.581C409.165 423.781 410.147 424.279 410.47 424.699C411.4 425.908 415.494 427.438 416.245 426.859C416.621 426.569 417.151 426.578 417.394 426.894C417.637 427.209 422.323 429.119 427.762 431.036C444.239 436.996 451.461 439.965 456.687 442.966C460.897 445.328 462.713 445.937 467.759 446.566C471.138 446.973 480.196 448.442 487.938 449.754C495.672 451.156 502.634 452.233 503.339 452.274C508.075 452.305 521.911 449.001 521.183 448.055C520.981 447.792 519.55 447.39 518.024 447.059L515.222 446.625L516.913 445.907C517.785 445.486 520.908 445.17 523.783 445.213C526.705 445.219 529.103 445.128 529.069 444.987C529.082 444.809 527.561 443.805 525.738 442.7C523.788 441.525 522.327 440.308 522.279 439.759C522.054 438.593 522.357 438.694 528.101 441.882C530.354 443.158 532.929 444.269 533.763 444.38C536.396 444.693 551.281 441.584 557.415 439.448C564.415 436.979 570.324 436.104 573.228 436.962C575.09 437.535 575.339 437.762 575.086 438.794C574.907 439.435 575.104 440.371 575.467 440.844C576.478 442.158 575.29 442.655 568.844 443.609C565.621 444.086 560.76 445.156 558.136 445.924C555.505 446.782 550.631 448.029 547.301 448.756C543.931 449.43 538.513 450.846 535.211 451.802C531.861 452.795 527.444 453.858 525.342 454.14C523.194 454.458 518.648 455.452 515.218 456.34C511.788 457.228 507.699 458.037 506.188 458.114C504.63 458.228 497.783 457.397 490.996 456.353C484.209 455.309 477.477 454.725 476.088 454.96C473.892 455.314 472.819 456.058 469.266 459.216C464.615 463.474 462.099 464.578 460.845 462.949C460.239 462.161 460.606 461.375 462.636 459.056C463.996 457.421 465.765 455.638 466.563 455.023C468.722 453.358 468.237 452.727 464.346 452.045C462.417 451.774 457.187 450.031 452.716 448.206C448.245 446.38 440.339 443.688 435.177 442.228C426.54 439.848 418.908 436.442 414.123 432.849C413.497 432.327 411.71 431.948 410.199 432.025C408.734 432.066 402.559 431.136 396.578 429.973C390.51 428.793 383.757 427.89 381.54 427.925C379.324 427.961 376.274 427.885 374.782 427.696C371.356 427.325 368.851 427.667 366.369 428.912L364.349 429.883L365.764 431.722C366.573 432.773 367.113 433.863 367.04 434.254C366.879 434.629 365.141 435.384 363.148 436C361.154 436.617 358.444 437.954 357.13 438.968C354.501 440.995 354.535 441.136 358.534 444.583C369.532 454.015 372.63 457.653 376.842 466.042C378.806 470.052 380.998 473.97 381.651 474.722C382.622 475.983 382.576 476.604 381.253 479.55C380.157 481.819 379.885 483.118 380.436 483.446C381.748 484.276 381.016 490.031 379.467 491.225C378.716 491.805 377.692 493.097 377.13 494.117C375.88 496.671 373.826 497.502 371.513 496.44C370.444 495.925 369.449 495.604 369.261 495.749C369.074 495.893 369.375 498.424 369.825 501.341C370.363 504.275 370.583 509.129 370.368 512.057C369.937 517.329 366.872 527.73 365.464 528.816C364.572 529.504 361.666 527.476 359.402 524.534C358.27 523.063 357.307 522.299 356.764 522.467C356.314 522.563 355.371 524.545 354.765 526.771C351.974 536.459 351.613 537.156 349.455 536.393C348.245 535.986 348.057 536.131 346.996 539.126C343.039 550.215 338.15 558.926 336.348 558.139C335.191 557.608 326.285 543.799 324.859 540.294C323.629 537.141 323.34 536.862 321.214 535.655C319.6 534.723 318.321 533.449 316.966 531.397C314.896 528.221 314.733 527.426 313.295 513.214C312.834 508.631 311.749 501.096 310.891 496.483C309.496 488.936 309.617 486.08 311.142 488.839C312.08 490.544 312.742 489.363 312.165 486.961C311.16 482.546 312.428 473.113 314.745 467.474C315.981 464.512 317.328 460.626 317.774 458.775C319.079 453.667 320.001 451.95 323.592 447.674C326.74 443.99 327.35 443.519 331.846 441.391C337.401 438.697 340.657 437.777 344.103 437.881C345.386 437.896 346.957 437.605 347.473 437.207C347.989 436.809 348.869 436.884 349.542 437.369C350.552 438.098 350.914 437.986 353.025 435.772C355.893 432.89 355.946 432.765 354.026 432.99C353.133 433.093 346.48 432.029 339.229 430.673C330.103 428.922 324.09 428.202 319.959 428.374C315.875 428.51 312.805 428.116 310.216 427.182C304.394 425.059 304.529 425.039 301.449 429.591C299.963 431.742 298.082 434.448 297.292 435.56C296.502 436.672 294.956 439.036 293.899 440.773C292.28 443.528 290.853 444.881 284.798 449.551C276.866 455.668 272.358 457.974 266.63 458.792C262.514 459.372 248.779 457.073 243.185 454.858C240.986 454.042 236.557 452.854 233.324 452.249C229.87 451.648 226.886 450.686 226.058 449.901C224.314 448.316 223.285 447.853 215.063 444.652C208.602 442.184 208.265 441.941 206.808 439.465C206.026 438.059 205.195 436.105 205.132 435.149C204.961 433.857 203.687 431.91 199.84 427.008C197.091 423.435 194.119 419.281 193.222 417.629L191.67 414.641L188.068 414.237C183.681 413.686 182.934 413.007 185.403 411.94C186.409 411.498 187.785 410.856 188.516 410.543C189.523 410.101 189.602 409.621 189.014 407.982C188.02 405.233 189.188 405.001 191.619 407.48C193.969 409.853 194.97 410.085 202.795 409.659C208.524 409.426 208.933 409.278 212.078 406.853C216.349 403.558 220.558 402.321 231.45 401.12C240.872 400.048 241.321 399.952 242.613 398.035C243.209 397.157 244.537 396.55 246.605 396.128C249.841 395.473 250.364 394.986 249.192 393.463C248.06 391.992 249.589 391.063 253.089 391.043C257.166 390.996 268.581 394.749 276.355 398.632C281.096 401.003 282.138 401.287 282.297 400.328C282.389 399.67 282.045 398.931 281.493 398.603C280.181 397.773 271.34 388.519 271.211 387.865C271.102 387.53 271.968 387.197 273.043 387.038C277.199 386.511 277.354 386.81 267.081 374.139L257.784 362.641L259.143 361.006C259.914 360.161 261.235 359.058 262.147 358.689C263.342 358.103 263.743 357.458 263.794 356.164C263.822 353.965 265.518 352.573 268.507 352.277C271.589 351.909 280.805 351.833 285.615 352.058C287.865 352.164 289.685 352.099 289.698 351.922C289.736 350.805 283.766 345.865 279.515 343.451L274.585 340.64L270.419 334.644C268.094 331.331 265.586 327.488 264.757 326.119C263.428 323.712 263.26 323.59 262.57 324.541C261.392 326.119 260.303 325.871 257.691 323.448C255.947 321.863 254.414 321.037 252.317 320.645C248.339 319.946 247.724 321.09 250.271 324.4C252.932 327.956 257.806 338.178 259.02 342.767C259.535 344.798 258.239 344.96 251.452 343.916C245.546 342.946 242.322 343.423 242.011 345.254C241.878 345.859 242.328 348.777 242.913 351.674C244.408 359.06 243.535 361.911 239.966 361.063C237.963 360.599 236.797 361.415 234.87 364.743C233.364 367.16 233.224 367.269 230.994 367.481C229.57 367.575 227.567 367.111 225.993 366.232C224.298 365.195 222.685 364.848 221.47 365.116C217.597 366.011 211.634 372.452 210.174 377.261C209.868 378.419 208.521 379.876 206.168 381.775C202.923 384.361 202.521 385.006 199.555 391.647C196.088 399.68 194.681 401.351 192.36 399.792C190.207 398.355 186.501 393.344 185.998 391.137C185.72 390.095 184.828 387.769 183.938 386.029C181.731 381.703 181.322 379.423 181.312 372.314C181.338 368.946 181.161 365.315 180.89 364.185C180.706 363.071 180.743 358.94 181.117 355.052C181.712 348.146 181.644 347.864 179.907 346.19C178.21 344.568 178.142 344.286 178.862 341.722C179.281 340.226 180.11 338.582 180.814 338.039C181.471 337.532 182.784 335.933 183.728 334.536C187.162 329.376 189.588 327.086 193.862 324.961C196.069 323.845 198.061 322.643 198.262 322.321C198.462 321.999 197.625 320.133 196.479 318.254C195.245 316.36 194.307 314.655 194.28 314.425C194.293 314.247 195.07 313.313 195.981 312.359C197.274 311.027 198.556 310.457 201.423 310.004C205.64 309.263 206.235 308.385 203.531 306.62C201.169 305.009 200.709 303.438 202.258 302.244C203.15 301.556 206.025 301.599 212.912 302.482C218.133 303.143 223.999 304.06 225.995 304.613C227.998 305.078 229.583 305.194 229.482 304.77C229.372 303.85 219.939 297.229 217.478 296.364C216.49 295.954 213.282 294.41 210.383 292.879C205.608 290.367 200.284 288.696 199.299 289.457C199.111 289.601 198.681 289.431 198.398 289.063C197.751 288.223 193.033 287.341 192.981 288.05C192.962 288.317 194.066 289.558 195.48 290.811C200.421 295.289 199.434 298.477 193.374 297.794C191.526 297.628 189.894 297.548 189.753 297.657C189.612 297.765 189.916 298.452 190.482 299.187C191.816 300.921 190.884 301.556 187.464 301.097C184.306 300.686 183.602 301.229 184.661 303.091C185.565 304.654 185.042 305.141 181.932 305.28C180.421 305.357 178.28 306.171 176.329 307.425L173.17 309.443L172.642 313.617C171.928 318.521 170.102 321.688 165.297 326.232C159.687 331.48 156.303 340.787 156.729 350.087C157.08 356.764 156.609 358.97 154.504 361.095C153.405 362.194 152.326 363.026 152.151 362.994C151.976 362.961 150.893 362.039 149.728 361.011C148.57 359.895 145.818 357.582 143.597 355.862C138.819 352.18 135.726 347.868 134.155 342.717C132.99 338.676 132.262 337.731 129.108 336.061C125.315 334.048 123.556 331.47 123.924 328.256C124.075 326.8 124.394 325.465 124.582 325.32C124.817 325.139 124.819 323.295 124.532 321.173C124.079 317.085 124.972 300.071 125.857 296.458C126.163 295.301 127.782 292.545 129.443 290.427C134.426 284.073 135.706 282.918 137.654 282.922C139.823 282.923 142.07 281.274 143.414 278.647C143.982 277.539 145.455 275.565 146.742 274.322C147.988 273.026 150.159 270.598 151.619 268.802C154.733 264.977 159.268 262.316 163.177 262.148C164.553 262.09 165.681 261.806 165.701 261.54C165.761 261.327 163.795 259.745 161.4 257.992C157.114 254.852 150.988 252.043 145.201 250.646C139.549 249.229 137.856 246.349 140.473 242.655C141.31 241.507 142.154 240.271 142.395 240.001C142.596 239.679 141.597 237.603 140.127 235.304C133.918 225.777 131.991 220.65 132.361 215.007C132.569 212.167 133.354 211.729 135.788 212.949L137.792 213.998L137.431 211.682C137.213 210.427 136.908 209.155 136.746 208.945C136.544 208.682 136.029 206.652 135.573 204.408C134.792 200.574 134.844 199.864 136.279 199.008ZM141.466 202.541C141.027 204.303 140.497 207.308 140.394 209.312C140.22 212.293 140.498 213.335 142.042 215.827L143.91 218.74L141.862 221.91C140.758 223.683 139.807 225.169 139.801 225.258C139.653 225.456 141.724 229.216 143.875 232.497C146.181 236.076 146.181 236.076 147.065 234.892C147.56 234.175 149.094 232.573 150.388 231.241L152.78 228.81L151.122 226.656C149.91 225.079 149.538 224.11 149.871 223.183C150.218 222.079 149.719 221.041 147.023 217.343C144.496 213.767 143.76 212.326 143.817 210.942C143.846 208.743 146.018 206.901 147.504 207.763C148.224 208.213 147.852 207.244 146.261 204.787C144.993 202.751 143.779 200.59 143.563 199.92C143.115 198.172 142.526 198.961 141.466 202.541ZM155.858 226.687C156.982 227.661 157.246 228.295 156.918 229.134C156.538 230.097 156.74 230.36 158.469 231.538C160.756 232.955 165.217 236.128 166.307 236.961C166.805 237.414 167.081 237.286 167.126 236.665C167.25 234.979 161.302 227.929 158.288 226.152C155.066 224.2 153.535 224.543 155.858 226.687ZM150.144 238.796C150.105 239.329 150.551 240.492 151.198 241.332C152.976 243.644 153.074 245.326 151.527 247.106C150.797 248.004 150.248 248.846 150.369 249.003C150.45 249.108 152.885 250.328 155.796 251.682C158.668 252.984 162.139 255.162 163.546 256.505C165 257.811 167.006 259.445 168.109 260.101C171.58 262.28 176.697 267.374 178.875 270.885C180.736 273.887 181.315 274.445 183.971 275.661C186.627 276.877 187.863 276.929 194.759 275.879C199.144 275.26 202.864 274.651 203.133 274.611C203.851 274.476 201.419 271.412 197.979 268.205C195.037 265.452 191.587 263.592 182.906 259.99C177.924 257.889 175.548 255.87 180.369 257.761C188.201 260.845 192.168 262.306 192.262 262.234C192.45 262.089 187.09 256.679 184.263 254.172C182.721 252.849 180.407 251.202 179.216 250.529C177.938 249.841 175.63 248.105 174.015 246.588C171.941 244.671 170.502 243.772 169.138 243.652C166.719 243.425 163.181 241.549 158.357 237.903C156.304 236.305 154.366 234.953 154.111 234.816C153.425 234.507 150.409 237.587 150.144 238.796ZM140.977 245.448C141.174 246.384 141.934 246.886 144.186 247.577C145.786 248.101 147.271 248.379 147.506 248.198C147.975 247.836 145.45 242.416 144.596 241.987C143.433 241.544 140.766 244.104 140.977 245.448ZM188.72 210.298C188.406 213.972 190.755 218.774 192.931 218.686C193.643 218.64 203.241 209.73 206.289 206.207C207.883 204.391 209.238 203.43 211.929 202.359C213.848 201.548 215.989 200.734 216.586 200.441C218.411 199.703 214.306 199.52 210.761 200.161C199.273 202.241 189.095 206.995 188.72 210.298ZM183.464 228.835C183.29 229.387 183.433 229.864 183.695 229.913C184.044 229.978 184.493 229.297 184.739 228.354C185.178 226.592 184.044 226.964 183.464 228.835ZM233.767 211.3C232.954 213.936 232.284 217.634 232.188 219.55C231.994 222.797 232.177 223.326 234.846 227.379C238.79 233.378 241.693 236.665 242.491 236.049C242.819 235.796 242.878 234.997 242.661 234.327C242.324 233.499 242.664 232.483 243.675 231.368C244.881 230.02 245.134 228.987 244.847 226.865C244.532 224.512 244.759 223.835 246.12 222.785C247.481 221.735 247.648 221.272 247.014 220.254C246.583 219.498 246.405 218.296 246.591 217.566C246.778 216.836 246.613 215.456 246.195 214.523C245.574 213.328 245.639 212.44 246.463 211.47C248.157 209.493 246.433 207.641 242.274 206.999C240.433 206.744 238.242 206.425 237.409 206.314C236.576 206.203 235.736 206.181 235.549 206.326C235.32 206.418 234.533 208.699 233.767 211.3ZM149.16 274.549C147.197 276.566 145.342 278.918 145.008 279.845C144.621 280.897 142.028 283.65 138.382 286.881C132.798 291.774 132.256 292.527 130.505 296.473C129.122 299.633 128.678 302.068 128.641 306.199C128.641 309.213 128.552 314.054 128.465 317.051C128.385 319.959 128.498 322.634 128.701 322.897C128.903 323.16 128.988 325.02 128.885 327.024C128.673 331.123 129.26 332.177 132.676 333.895C135.535 335.374 137.569 337.823 138.894 341.489C140.294 345.349 143.824 349.743 147.261 351.78L150.147 353.489L150.524 348.342C151.321 338.686 153.987 332.528 160.545 325.208C163.292 322.169 165.65 319.596 165.791 319.488C165.979 319.343 166.329 316.98 166.578 314.192C166.867 311.458 167.565 308.575 168.195 307.838C169.555 306.203 169.377 305.001 167.785 304.973C165.488 304.903 165.479 303.822 167.684 302.121C168.858 301.216 169.958 300.702 170.16 300.964C170.363 301.227 171.43 301.157 172.511 300.909C173.679 300.678 175.157 300.459 175.815 300.538C177.75 300.719 180.322 297.647 179.352 296.386C178.746 295.598 178.912 295.135 180.227 294.121C182.198 292.601 184.756 292.135 187.76 292.831C188.983 293.06 190.219 293.111 190.595 292.822C191.299 292.279 190.388 290.804 189.321 290.874C188.918 290.934 188.245 290.448 187.841 289.923C186.709 288.452 182.522 287.579 180.166 288.308C178.085 288.908 177.957 288.839 176.521 286.682C175.085 284.524 174.83 284.386 172.419 284.655L169.914 284.997L168.973 287.564C168.426 288.991 167.516 290.53 166.859 291.037C166.249 291.507 165.426 293.063 165.054 294.522C164.681 295.982 164.234 297.248 164.093 297.356C163.905 297.501 163.286 296.89 162.599 295.997C161.628 294.736 161.559 293.869 162.252 291.66C162.719 290.128 162.917 288.636 162.674 288.32C162.149 287.637 160.273 289.67 158.916 292.475C158.354 293.495 157.29 295.32 156.454 296.467C154.084 299.802 154.548 303.128 158.291 309.45C159.984 312.33 161.394 314.842 161.374 315.109C161.212 317.327 155.75 311.493 153.866 307.003C153.372 305.876 153.072 303.931 153.244 302.794C153.671 298.781 151.219 298.412 150.005 302.278C149.599 303.596 148.789 304.974 148.273 305.372C147.24 306.169 147.41 306.875 149.522 310.688C151.168 313.605 152.226 317.896 151.57 318.987C151.256 319.648 150.442 319.271 148.322 317.39C146.78 316.068 145.381 315.221 145.18 315.544C144.785 316.099 145.953 326.752 147.104 333.399C147.533 335.998 147.414 337.011 146.476 337.735C145.678 338.35 145.1 338.377 144.575 337.694C143.483 336.276 140.578 317.921 141.042 315.22C141.446 312.731 140.357 312.483 138.347 314.536C136.584 316.23 136.356 316.322 135.507 315.219C133.566 312.697 134.674 306.653 137.537 304.444C137.959 304.119 138.769 302.741 139.263 301.439C140.124 299.351 142.429 296.903 144.931 295.392C145.347 295.155 146.754 293.484 148.079 291.708C150.449 288.373 151.898 287.34 160.913 282.144C163.04 280.923 165.119 279.737 165.575 279.553C166.032 279.368 166.05 278.517 165.604 277.354C165.151 276.28 164.583 274.374 164.19 273.087C163.797 271.799 162.973 269.756 162.218 268.58C161.038 266.56 160.782 266.422 158.761 266.809C156.425 267.272 155.063 268.322 149.16 274.549ZM253.052 200.108C253.113 200.48 255.749 201.377 258.881 202.143C262.06 202.872 266.314 204.028 268.304 204.67C270.334 205.364 273.748 205.912 275.871 205.949C278.699 206.028 282.093 206.843 287.821 209.039C292.171 210.706 296.749 212.282 297.925 212.547L300.062 212.992L298.723 211.932C295.964 209.707 290.92 207.234 287.909 206.626C284.112 205.871 283.297 204.909 284.238 202.342C284.672 201.253 284.71 200.136 284.38 199.805C283.088 198.708 269.431 198.359 263.428 199.305C259.218 199.957 256.605 199.963 255.67 199.429C254.184 198.566 252.875 198.906 253.052 200.108ZM169.35 267.935C169.589 269.509 169.834 270.994 169.902 271.276C170.038 271.841 175.918 273.166 176.434 272.768C176.81 272.478 170.948 264.86 170.202 264.766C169.113 264.517 168.934 265.158 169.35 267.935ZM191.798 281.847C191.343 282.617 191.184 283.576 191.427 283.892C191.669 284.207 195.877 285.398 200.669 286.474C205.508 287.514 210.461 288.8 211.705 289.348L213.937 290.305L211.793 286.935C210.647 285.057 208.564 282.059 207.237 280.236L204.818 276.995L201.701 277.222C199.962 277.392 197.297 278.108 195.687 278.931C194.124 279.718 192.789 280.413 192.701 280.397C192.654 280.433 192.212 281.025 191.798 281.847ZM261.775 261.109C257.659 267.716 255.118 278.215 258.169 275.862C260.75 273.871 258.282 280.966 255.14 284.561C253.211 286.719 252.945 287.929 253.724 290.593C254.441 292.886 256.211 294.116 257.384 293.211C257.806 292.886 258.433 290.979 258.805 288.934C259.414 285.45 260.373 282.031 261.909 278.001C262.289 277.037 262.882 274.989 263.262 273.441C264.013 270.433 267.047 266.503 267.855 267.554C268.098 267.869 268.384 269.406 268.495 270.911C268.559 272.453 268.864 273.724 269.126 273.773C269.388 273.822 270.225 272.674 270.914 271.139C272.993 266.94 278.106 261.824 285.335 256.834C292.148 252.081 297.644 249.601 304.25 248.272C309.239 247.271 310.454 247.003 311.769 246.575C313.494 245.998 314.097 248.044 312.724 249.857C311.733 251.291 310.646 251.627 305.442 252.543C294.276 254.458 286.949 257.766 279.482 264.195C276.311 266.976 271.591 273.379 270.034 277.091C269.66 277.966 268.498 280.537 267.401 282.806C266.239 285.377 265.793 287.228 266.197 287.753C266.763 288.489 267.273 288.179 269.94 285.619C273.613 282.033 274.71 280.349 273.902 279.299C272.366 277.302 277.639 268.798 284.1 262.81C287.9 259.293 296.767 256.723 301.197 257.911C303.025 258.343 307.928 260.924 307.552 261.213C307.411 261.322 305.322 261.426 302.797 261.449C294.549 261.615 291.474 262.48 285.969 266.308C281.724 269.247 280.819 270.112 279.669 272.506C278.834 274.239 278.555 275.626 279 276.204C279.363 276.677 279.581 277.932 279.544 279.049C279.454 280.877 279.307 281.074 277.802 281.062C276.338 281.104 276.09 281.462 274.621 285.19C273.58 287.919 272.021 290.461 269.957 292.639C268.316 294.491 266.956 296.126 266.943 296.303C266.884 297.102 279.79 298.031 281.878 297.342C282.737 297.098 283.192 296.328 283.343 294.872C283.507 293.239 284.243 292.252 287.421 289.383C289.693 287.379 291.099 285.708 290.81 285.429C290.352 285.028 288.016 285.491 278.369 287.825C277.604 287.997 276.649 287.728 276.204 287.15C274.709 285.207 277.531 282.946 293.374 273.405C295.548 272.147 295.748 271.825 295.775 269.041C295.895 265.6 296.899 263.989 299.248 263.349C300.826 262.969 301.081 263.107 302.093 265.005C303.146 266.956 303.361 267.041 305.523 266.546C306.738 266.278 308.898 265.198 310.212 264.184C314.014 261.252 318.943 255.023 319.193 252.82C319.357 251.187 319.598 250.917 320.412 251.294C321.185 251.619 323.037 250.526 329.031 246.069C333.202 242.936 336.6 240.064 336.533 239.781C336.471 239.41 332.81 239.22 328.377 239.29C322.345 239.422 319.402 239.097 316.558 238.025C310.655 235.797 302.968 237.373 295.289 242.459C292.821 244.111 290.017 245.521 289.03 245.696C286.975 245.941 278.915 251.991 275.592 255.642C273.663 257.8 270.342 259.608 268.723 259.35C268.286 259.268 267.37 258.467 266.73 257.538C266.043 256.645 265.33 256.107 265.001 256.36C264.672 256.614 263.233 258.728 261.775 261.109ZM213.096 306.609C213.238 307.085 213.778 308.176 214.244 309.073C215.519 311.605 213.246 313.024 207.704 313.112C201.545 313.175 200.956 313.964 203.573 318.726C206.575 324.28 205.593 326.21 198.766 328.127C194.336 329.368 192.452 330.905 191.954 333.465C191.868 334.034 191.025 335.27 190.107 336.313C188.472 338.076 188.459 338.254 189.873 339.508C191.118 340.64 191.173 341.1 190.465 342.902C187.428 351.104 185.725 361.041 187.1 362.827C188.145 364.282 190.202 373.662 189.85 375.44C189.353 378.001 190.074 379.035 192.082 378.826L193.599 378.66L193.248 380.438C193.082 381.487 192.326 382.74 191.622 383.283C190.543 384.115 190.463 384.595 191.28 386.142C192.521 388.533 194.502 391.107 194.878 390.818C195.018 390.709 195.399 389.746 195.611 388.661C196.59 384.976 198.967 381.553 201.502 380.183C203.481 379.158 204.265 378.136 206.418 374.13C209.36 368.429 213.434 364.198 217.501 362.485C219.554 361.654 221.556 361.534 225.325 362.059C230.324 362.724 230.371 362.687 231.616 360.806C232.626 359.106 234.075 358.073 237.705 356.278C238.396 355.912 238.589 355.094 238.317 353.963C238.08 352.974 237.388 350.327 236.852 347.977C235.896 344.11 235.928 343.667 237.356 342.315C239.018 340.781 244.456 339.684 249.401 339.889C250.858 339.937 252.235 339.879 252.423 339.735C252.611 339.59 252.312 338.23 251.851 336.659C251.053 334.261 250.096 332.823 245.65 327.629C240.511 321.63 240.302 321.456 238.98 321.974C238.161 322.27 236.704 322.223 235.662 321.938C234.149 321.43 233.652 321.562 233.507 322.345C233.414 323.002 231.868 325.366 230.053 327.771C223.497 336.26 220.139 347.641 222.117 354.487C223.167 358.282 223.081 358.85 221.334 358.524C218.189 357.936 216.069 350.613 217.047 343.914C217.404 341.462 217.426 339.352 217.117 339.34C216.324 339.281 209.756 342.506 208.066 343.809C206.095 345.33 204.747 349.215 202.209 360.885C200.541 368.534 197.162 374.154 195.009 372.717C192.897 371.332 193.334 362.958 195.846 354.658C197.833 348.102 202.62 338.968 206.699 334.063C215.989 322.712 221.21 317.931 228.342 314.272C230.556 313.067 232.548 311.866 232.796 311.507C233.15 310.899 229.849 309.427 227.134 309.009C226.388 308.915 224.264 308.293 222.409 307.631C218.086 306.193 213.691 305.146 213.174 305.544C212.94 305.725 212.947 306.221 213.096 306.609ZM233.843 319.574C234.287 320.152 239.864 317.776 240.103 316.921C240.503 315.692 239.549 315.423 237.885 316.372C234.786 318.176 233.519 319.154 233.843 319.574ZM210.391 338.667C210.594 338.929 210.983 339.047 211.265 338.83C211.5 338.649 211.532 338.205 211.33 337.943C211.087 337.628 210.691 337.598 210.456 337.779C210.175 337.997 210.149 338.352 210.391 338.667ZM294.624 279.306C296.169 279.37 297.189 278.751 296.992 277.814C296.889 276.805 295.996 276.908 294.621 278.136C293.482 279.182 293.476 279.271 294.624 279.306ZM305.39 275.606C305.709 277.285 306.139 279.884 306.344 281.317C306.542 282.838 306.991 285.171 307.283 286.62C307.535 288.017 307.744 291.204 307.696 293.669C307.624 297.073 308.052 299.088 309.409 302.31C312.178 308.63 314.226 310.902 319.391 313.531C321.778 314.788 323.931 316.225 324.114 316.753C324.553 318.005 322.026 319.871 320.507 319.452C319.855 319.285 318.914 319.424 318.398 319.823C317.694 320.366 317.756 320.737 318.724 321.413C320.232 322.594 325.926 324.648 328.862 325.063C331.228 325.415 332.386 326.531 332.882 328.828C333.146 330.047 333.994 330.565 337.732 332.118C341.861 333.79 356.215 336.699 357.107 336.011C357.764 335.504 357.667 331.393 357.009 331.315C356.619 331.197 355.653 331.691 354.855 332.307C353.447 333.393 353.232 333.307 351.635 331.525C350.693 330.494 349.944 329.229 349.983 328.697C350.068 327.543 348.214 325.038 345.751 323.003C344.748 322.186 341.718 318.831 338.99 315.577C334.476 310.1 334.159 309.591 335.072 309.222C335.803 308.909 335.842 308.377 335.228 307.093C334.809 306.16 333.943 303.479 333.313 301.202C332.73 298.889 331.945 296.314 331.566 295.434C331.188 294.553 330.868 292.874 330.825 291.652C330.735 290.466 330.662 287.843 330.543 285.842C330.305 281.839 330.613 281.267 331.359 284.375C331.63 285.506 332.443 288.311 333.113 290.64C334.366 294.698 334.527 294.908 336.249 295.589C337.627 296.117 338.489 297.043 339.878 299.237C342.804 304.012 341.987 304.893 338.966 300.191C335.831 295.242 335.578 296.274 338.381 302.735C339.476 305.323 340.834 308.546 341.401 309.866C342.759 313.088 343.692 313.038 343.537 309.726C343.216 302.02 344.925 291.995 346.571 291.897C347.813 291.86 348.961 294.323 349.238 297.793C349.865 304.342 349.529 318.582 348.72 319.96C348.158 320.98 348.26 321.403 348.952 321.623C349.517 321.773 350.89 322.975 352.075 324.321L354.156 326.734L356.343 325.299C359.965 323.007 360.966 320.226 360.494 313.976C360.169 309.957 359.796 308.403 359.056 308.22C357.625 307.817 356.101 302.63 356.951 301.305C357.7 300.14 358.676 292.272 358.15 291.589C357.948 291.326 356.848 291.84 355.674 292.745C354.501 293.65 353.482 294.269 353.36 294.111C352.754 293.323 352.549 288.877 353.011 285.59C353.48 282.215 353.317 281.42 351.942 279.634C350.406 277.637 350.319 277.621 348.77 278.815C346.799 280.336 345.629 279.982 342.001 276.92C339.962 275.145 338.338 273.132 336.032 269.552C334.326 266.849 332.237 263.94 331.369 263.103C329.51 261.271 325.999 259.04 325.24 259.124C324.924 259.199 323.047 260.647 321.103 262.398C318.396 264.905 317.712 265.767 318.198 266.397C318.521 266.818 318.933 267.839 319.096 268.634C319.259 269.429 320.056 271.243 320.879 272.701C323.193 276.777 324.51 279.946 324.041 280.308C323.337 280.851 317.209 271.43 316.632 269.028C316.083 266.856 316.479 266.886 311.426 268.774C307.735 270.198 305.755 271.222 305.254 272.028C305.012 272.298 305.11 273.98 305.39 275.606ZM294.639 291.182C294.071 292.29 294.071 292.29 295.501 292.108C297.643 291.879 298.126 291.339 297.196 290.131C296.347 289.028 295.662 289.305 294.639 291.182ZM202.937 421.605C205.264 425.503 209.289 431.608 211.957 435.076C217.159 442.03 217.199 442.083 223.921 444.014C225.091 444.368 228.002 445.722 230.296 447.05C233.531 448.825 236.65 449.768 243.767 451.144C265.776 455.349 266.628 455.193 279.16 445.528C285.449 440.677 287.486 438.854 287.793 437.697C288.298 435.632 291.883 429.016 292.869 428.256C294.277 427.17 293.555 426.136 291.103 425.767C289.658 425.542 288.577 425.79 288.088 426.418C287.693 426.974 286.955 427.375 286.384 427.314C285.901 427.268 283.088 428.182 280.216 429.309C277.344 430.436 274.129 431.409 273.155 431.406C271.999 431.46 270.349 432.231 268.424 433.715C265.28 436.141 256.818 439.821 254.065 439.936C253.178 439.95 252.183 439.629 251.86 439.209C251.253 438.421 252.842 437.278 259.296 433.808C262.617 432 260.997 431.742 246.234 431.995C243.084 432.08 238.43 432.739 235.531 433.637C230.416 435.154 227.131 435.259 226.121 433.946C225.352 432.948 227.539 431.512 231.479 430.315C235.506 429.134 240.808 426.887 240.847 426.355C240.86 426.177 238.681 425.095 235.971 424.004C226.343 420.045 219.873 416.496 217.489 413.981C215.314 411.64 215.186 411.572 213.347 412.487C210.59 413.861 206.87 414.469 202.9 414.267C200.958 414.174 199.272 414.218 199.132 414.327C198.944 414.472 200.698 417.723 202.937 421.605ZM274.061 363.481C274.648 364.535 275.118 367.187 275.177 369.401L275.24 373.371L281.062 380.936L286.883 388.502L286.138 391.421C285.226 394.803 285.779 395.716 291.876 400.725C295.968 404.098 296.217 404.325 296.673 406.569C296.978 407.84 297.633 409.177 298.218 409.647C298.763 410.063 303.246 411.126 308.138 412.041C316.659 413.59 317.412 413.595 324.555 412.187C328.604 411.325 332.115 410.543 332.303 410.398C332.96 409.891 331.391 408.338 328.054 406.14C326.325 404.962 323.963 403.351 322.739 402.538C319.954 400.667 311.325 396.355 306.377 394.396C302.417 392.846 297.084 390.094 296.477 389.306C295.79 388.413 297.649 387.816 299.605 388.317C304.343 389.518 302.679 387.452 294.013 381.244C287.702 376.736 284.605 373.683 283.806 371.285C283.184 369.504 284.634 369.056 285.847 370.632C286.534 371.525 287.899 372.23 289.122 372.459C290.527 372.631 291.67 373.34 292.56 374.496C293.975 376.335 297.245 378.835 297.761 378.437C298.371 377.966 291.618 371.036 289.573 369.934C287.441 368.816 281.68 364.051 277.889 360.193C277.478 359.757 274.739 360.279 273.847 360.967C273.29 361.313 273.36 362.18 274.061 363.481ZM216.916 410.321C217.077 410.531 218.711 411.196 220.607 411.911C222.51 412.536 227.956 414.949 232.744 417.284C243.78 422.585 246.449 423.624 253.64 425.194C259.48 426.466 265.674 426.544 265.758 425.391C265.784 425.036 262.771 423.258 259.186 421.418C252.911 418.221 252.575 417.978 252.847 416.68C253.081 415.914 253.401 415.164 253.636 414.983C254.34 414.44 262.566 416.383 263.912 417.355C267.687 420.219 281.66 423.507 283.631 421.986C284.241 421.516 286.175 421.113 287.948 421.084C291.273 421.031 292.534 420.143 291.361 418.619C289.576 416.396 282.299 409.953 280.84 409.321C278.776 408.485 277.968 407.434 278.536 406.326C279.198 405.145 278.498 404.43 273.904 401.862C270.292 399.792 259.219 395.608 258.004 395.875C257.151 396.031 256.843 396.603 257.201 397.164C257.356 397.463 257.673 397.972 257.868 398.324C258.543 399.394 256.489 400.225 253.352 400.133C249.637 400.068 248.712 400.614 249.005 402.648C249.299 404.682 248.977 404.847 244.779 404.736C238.323 404.609 220.099 407.363 218.316 408.739C217.424 409.426 216.795 410.163 216.916 410.321ZM283.861 360.276C284.225 360.748 285.193 361.424 286.054 361.765C286.915 362.106 290.379 364.373 293.784 366.854C299.503 370.982 300.21 371.609 303.088 375.835C306.162 380.413 316.736 392.015 318.78 393.117C319.379 393.409 321.338 395.079 323.162 396.77C325.235 398.687 326.877 399.848 327.421 399.68C328.052 399.528 328.637 399.997 329.218 401.14C330.27 403.091 331.628 403.3 331.496 401.476C331.501 400.803 331.854 399.609 332.268 398.787C333.125 397.373 332.401 395.169 330.137 392.227C329.531 391.439 329.442 390.838 329.851 390.689C331.301 390.241 335.351 392.977 338.497 396.579C342.423 401.001 343.755 404.578 342.329 406.515C341.304 407.808 341.419 408.054 344.111 413.011C345.433 415.507 345.414 415.773 344.08 417.053L342.653 418.405L346.64 423.199C350.628 427.992 350.628 427.992 349.347 428.562C347.434 429.284 348.316 429.944 351.527 430.229C354.779 430.567 359.405 429.678 365.492 427.578C371.305 425.607 377.552 425.56 395.269 427.299C399.401 427.712 402.928 427.922 403.162 427.741C403.773 427.27 402.83 426.239 401.398 425.836C396.753 424.563 379.732 415.758 378.229 413.903C377.825 413.378 371.609 409.382 358.478 401.259C352.713 397.753 351.254 397.12 348.735 397.054C346.565 397.053 345.227 396.578 343.558 395.186C342.178 394.074 340.551 393.32 339.571 393.406C338.597 393.404 336.788 392.706 335.436 391.823C334.084 390.941 330.332 389.565 327.106 388.872C320.359 387.295 314.832 385.362 315.583 384.783C315.865 384.566 317.873 384.356 320.002 384.305C324.348 384.218 326.146 383.25 326.187 380.874C326.21 379.349 326.008 379.086 323.323 377.055C318.841 373.563 318.795 373.599 317.473 377.13C315.871 381.463 315.266 381.26 309.203 373.965C305.781 369.907 303.593 367.743 302.228 367.038C301.118 366.471 299.981 365.674 299.658 365.253C298.358 363.661 293.442 361.258 288.878 360.089C284.012 358.82 282.769 358.857 283.861 360.276ZM364.161 327.975C364.182 328.294 363.761 329.204 363.178 329.905C361.919 331.379 362.836 335.778 364.197 334.728C364.573 334.439 364.845 333.14 364.855 331.793C364.804 330.074 365.232 329.075 366.117 328.476C367.049 327.84 367.31 327.304 366.925 326.513C366.581 325.774 366.097 325.728 365.205 326.416C364.548 326.923 364.1 327.604 364.161 327.975ZM227.781 448.739C228.105 449.159 228.575 449.382 228.857 449.165C229.092 448.984 228.903 448.544 228.438 448.232C227.927 447.957 227.456 447.734 227.363 447.806C227.269 447.879 227.458 448.319 227.781 448.739ZM299.697 418.469C301.018 420.38 301.825 420.846 305.905 421.968C308.506 422.725 310.839 423.521 311.001 423.731C311.85 424.834 317.085 425.903 320.725 425.774C325.608 425.608 330.936 426.019 338.2 427.197C344.678 428.229 345.215 428.149 342.819 426.397C341.763 425.705 339.709 423.522 338.213 421.578C335.458 418.094 335.458 418.094 332.448 418.071C330.769 418.027 327.512 418.363 325.176 418.825C319.966 419.83 314.82 419.947 314.174 419.107C312.388 416.884 299.7 414.196 298.562 415.828C298.321 416.097 298.854 417.277 299.697 418.469ZM326.053 454.566C325.002 456.214 323.414 460.369 322.454 463.788C321.542 467.171 320.109 471.625 319.254 473.624C317.697 477.336 316.573 490.259 317.664 491.678C317.947 492.046 318.995 492.242 319.982 492.066C322.803 491.649 323.181 492.529 321.691 495.939C319.887 500.009 318.386 507.195 318.968 508.923C319.265 509.698 319.243 511.808 319.019 513.655C318.795 515.502 318.939 519.577 319.289 522.656C319.898 527.043 320.398 528.665 321.692 530.347C322.628 531.466 324.575 533.899 326.078 535.754C327.58 537.61 329.482 540.664 330.272 542.566C332.365 547.23 335.802 551.695 336.74 550.971C337.773 550.175 341.647 540.824 342.972 536.035C344.177 531.673 345.108 530.452 347.372 530.381C348.527 530.327 348.875 529.807 349.494 527.404C351.158 521.014 351.326 518.122 349.984 515.892C349.276 514.68 347.838 511.938 346.759 509.757C345.726 507.54 343.472 503.25 341.792 500.192C340.112 497.135 338.303 493.423 337.789 491.978C336.383 488.207 335.723 487.543 335.486 489.568C335.103 492.375 336.328 510.1 336.984 512.022C337.349 513.08 337.581 514.742 337.55 515.771C337.494 517.739 335.894 519.644 334.777 519.165C334.179 518.874 332.253 511.317 331.096 504.759C330.469 501.224 330.18 500.945 329.487 503.154C329.3 503.883 328.818 504.423 328.509 504.41C327.508 504.178 326.228 499.891 326.213 496.47C326.215 494.626 326.077 492.891 325.915 492.681C325.753 492.471 325.269 489.412 324.865 485.873C324.049 478.884 324.561 476.731 328.203 471.745C329.335 470.202 330.659 467.841 331.112 466.487C331.566 465.132 332.811 463.251 333.903 462.241C338.743 457.838 339.814 456.51 341.425 453.258C343.05 449.828 342.97 447.295 341.105 445.552C338.863 443.513 329.184 449.305 326.053 454.566ZM350.751 448.66C351.178 450.089 351.336 454.571 351.077 458.706C350.644 465.821 350.78 466.386 352.901 471.28C354.718 475.488 355.05 476.99 354.795 479.865C354.375 483.79 354.711 484.033 351.113 476.343C350.12 474.179 348.785 471.86 348.125 471.197C347.094 470.15 347.13 470.876 347.989 476.074C348.983 481.837 348.624 486.133 347.08 486.654C346.764 486.729 345.749 486.09 344.793 485.236C341.157 481.678 339.997 482.406 341.406 487.347C342.53 491.335 349.645 506.024 351.787 508.808C352.717 510.016 353.11 511.304 352.993 512.901C352.882 514.41 353.167 515.363 353.839 515.848C357.694 518.233 360.803 520.524 361.571 521.522C362.096 522.205 362.782 522.513 363.111 522.26C363.956 521.608 365.746 514.701 366.026 510.886C366.384 506.005 362.222 490.295 359.675 486.985C358.422 485.356 358.764 484.925 361.45 484.528C363.907 484.223 367.007 485.432 369.027 487.474C369.936 488.364 370.951 489.003 371.314 488.891C371.676 488.779 372.378 487.066 372.917 485.143C373.729 481.921 373.647 481.231 372.006 477.641C371.06 475.441 369.144 471.979 367.796 469.838C366.488 467.749 365.604 465.92 365.744 465.811C366.589 465.159 369.822 465.764 371.685 466.922C373.589 468.132 373.81 468.129 373.546 466.91C373.423 466.167 371.596 463.307 369.5 460.486C366.191 456.09 364.912 454.816 359.825 451.121C350.586 444.266 349.283 443.932 350.751 448.66ZM344.153 461.954C344.477 462.374 345.088 462.488 345.464 462.199C346.214 461.619 345.917 460.844 344.909 460.701C343.908 460.468 343.506 461.113 344.153 461.954ZM328.082 483.056C326.767 486.498 326.977 487.257 329.2 487.133C330.577 487.076 330.744 486.612 331.237 482.297C331.567 479.615 331.836 477.147 331.909 476.755C332.114 475.174 329.143 480.061 328.082 483.056ZM339.067 472.742C338.113 475.487 338.716 477.533 340.739 478.317C341.559 478.605 342.574 478.66 342.949 478.37C343.606 477.863 342.458 472.386 341.367 470.968C340.477 469.812 340.001 470.263 339.067 472.742ZM417.345 428.773C417.87 429.456 426.882 433.975 429.517 434.872C435.131 436.822 433.118 435.276 425.957 432.093C422.138 430.434 418.849 428.785 418.607 428.47C418.364 428.154 417.927 428.073 417.693 428.254C417.411 428.471 417.304 428.721 417.345 428.773Z" fill="#FBF8EF"></path><path d="M240.856 303.863C242.184 304.426 242.138 304.462 240.844 304.624C240.086 304.707 239.302 304.56 239.1 304.298C238.414 303.406 239.359 303.178 240.856 303.863Z" fill="#FBF8EF"></path></svg> 