<?xml version="1.0" encoding="UTF-8"?> <svg xmlns="http://www.w3.org/2000/svg" width="303" height="437" viewBox="0 0 303 437" fill="none"><path d="M77.6444 30.6897C79.633 31.8804 81.5534 33.72 82.7377 35.5533C83.7667 37.2029 84.6876 38.5896 84.7713 38.7156C84.9143 38.8308 86.1112 38.3283 87.5681 37.5659C91.2286 35.7628 96.1692 35.9874 105.146 38.5825C111.413 40.4024 113.729 40.6843 118.644 40.4187C127.927 39.9171 135.596 42.0453 139.189 46.0528C140.108 47.0862 142.805 49.844 145.12 52.1769C152.934 59.9353 152.826 59.6723 155.998 77.4751L158.695 92.9608L158.958 88.2456C159.112 85.6718 159.167 82.1969 159.111 80.51C158.932 77.7851 159.061 77.4786 160.521 77.4227L162.1 77.3451L163.444 85.2303C164.213 89.5441 165.085 95.8186 165.434 99.1488C165.833 103.106 166.211 105.229 166.567 105.164C166.923 105.098 167.635 102.563 168.202 99.56C168.758 96.4882 169.388 94.1805 169.59 94.2847C169.805 94.4575 169.635 96.2564 169.312 98.2249C168.732 101.16 168.872 102.973 169.93 108.223C170.867 113.142 171.031 115.092 170.551 116.524C170.176 117.512 169.751 120.631 169.515 123.432C169.279 126.233 168.64 129.178 168.109 129.983C166.801 131.92 167.102 132.926 168.606 132.084C169.341 131.737 172.244 130.497 175.112 129.405C179.759 127.633 180.648 127.47 184.022 127.84C186.03 128.108 188.656 128.404 189.832 128.471C194.073 128.895 198.883 134.235 199.847 139.644C200.286 142.109 200.126 143.27 198.984 145.459C196.078 151.155 188.489 155.659 184.468 154.063C183.683 153.783 181.415 153.775 179.398 154.145C176.373 154.7 175.259 155.329 172.256 158.072C168.001 162.035 163.475 164.139 154.39 166.442C147.773 168.152 147.535 168.195 144.062 166.924C142.1 166.223 138.279 164.379 135.612 162.817C126.587 157.544 125.482 157.535 116.6 162.347L111.009 165.353L108.523 164.465C104.337 162.971 105.152 162.044 111.535 161.084C114.644 160.655 118.819 159.677 120.775 158.964C125.303 157.214 129.898 157.219 135.962 158.935C145.877 161.641 147.933 161.829 153.008 160.403C161.831 158.006 165.125 156.552 168.365 153.766C173.568 149.275 174.469 148.827 182.272 146.9C190.017 144.984 191.734 143.961 192.881 140.428C193.408 138.917 193.122 138.686 190.474 138.607C182.731 138.472 180.536 138.875 175.135 141.563C171.083 143.579 168.712 144.368 165.532 144.74C162.766 145.035 160.49 145.665 158.832 146.676C155.576 148.688 149.172 150.217 143.971 150.252C140.789 150.271 139.128 150.575 137.28 151.551C133.206 153.784 129.112 151.777 128.295 147.19L127.929 145.135L137.775 143.328L147.682 141.51L147.874 139.495C148.104 138.038 149.108 136.794 151.994 134.426C155.684 131.415 155.873 131.097 158.627 123.521L161.451 115.648L160.228 105.69C159.561 100.227 158.862 95.6172 158.66 95.5129C158.505 95.3292 157.51 95.936 156.493 96.7591C155.476 97.5822 152.988 98.746 150.961 99.4009L147.25 100.577L146.247 104.579L145.186 108.592L147.53 112.122C148.798 114.081 150.507 116.455 151.343 117.362C152.895 119.199 153.217 122.039 151.963 122.905C151.584 123.187 150.408 123.12 149.315 122.826C147.888 122.38 146.515 120.865 143.274 116.085C138.359 108.785 133.793 104.814 127.75 102.529C123.23 100.884 120.808 101.045 116.235 103.228C113.522 104.504 112.793 105.911 114.328 106.619C117.006 107.895 121.466 119.522 123.465 130.398C124.527 136.355 124.37 143.384 123.108 147.647C121.821 151.772 117.056 155.97 112.667 156.775C110.768 157.124 108.908 158.031 107.265 159.464C100.856 165.095 101.022 164.994 99.4604 163.795C96.4461 161.661 97.4933 159.631 102.167 158.702C103.294 158.495 105.177 157.372 106.335 156.311C108.168 154.56 108.379 154.027 107.871 152.211C107.436 150.452 107.635 149.85 109.076 148.313C110.069 147.353 111.252 146.428 111.726 146.341C113.447 146.026 117.113 140.474 117.822 137.232C119.774 128.247 117.893 119.753 112.711 113.704C111.087 111.81 108.459 108.403 106.893 106.145C102.708 100.195 102.208 99.7922 97.3945 98.9078C91.4282 97.74 87.0009 95.5827 81.815 91.2311C79.0851 88.9743 76.8941 87.6794 76.123 87.8209C72.9791 88.3979 70.0788 92.7486 67.457 100.725C66.5318 103.441 65.345 106.063 64.7779 106.662C64.2108 107.261 63.2701 109.201 62.7446 111.065L61.7391 114.361L63.7589 117.102C67.0222 121.665 70.6199 129.136 71.8315 134.217C72.473 136.787 73.3884 139.518 73.8907 140.274C75.0156 142.118 75.1616 145.344 74.1216 146.384C72.9996 147.65 68.4359 146.791 65.8385 144.934C63.5866 143.297 61.0872 139.583 58.508 134.046C57.0083 130.786 56.7049 129.427 56.7769 127.081C56.9381 123.516 54.9491 114.759 52.9786 109.888C51.8015 107.063 51.2521 106.386 49.9454 106.272C47.7595 106.037 47.3409 105.407 46.4137 100.203C45.4744 94.9307 45.4669 88.3559 46.379 80.4102C47.1792 73.8994 46.9996 73.5788 40.9067 68.2622L37.0675 64.9363L36.2681 66.6386C35.68 67.8073 35.5714 69.9485 35.9458 73.7689C36.2924 76.7459 36.3858 81.3957 36.2091 84.1859C35.5005 94.9934 38.3654 103.165 48.0295 117.867C50.2898 121.271 51.9781 124.214 51.8367 124.452C51.7075 124.758 50.8649 124.842 49.9978 124.789C48.0021 124.59 43.7897 120.201 39.0316 113.437C34.8231 107.351 33.203 103.759 31.1442 95.2979C29.8245 89.9539 29.6748 88.4257 30.1287 86.5039C30.5128 84.8778 30.3702 82.3583 29.6261 78.1815C27.9669 68.8693 28.0666 67.366 30.6687 62.7165C32.4226 59.4954 32.8084 58.2225 32.397 56.601C31.8879 54.4316 32.4311 51.2914 33.3802 51.1172C33.6768 51.0627 34.5005 49.4973 35.2039 47.6004C35.9074 45.7036 36.9684 44.0946 37.5022 43.9966C38.0361 43.8986 39.941 44.9633 41.6696 46.4138C43.3983 47.8643 45.1845 48.9508 45.6591 48.8637C47.4386 48.5371 46.789 51.7676 44.1155 56.3595C42.5728 59.0468 41.3371 61.395 41.3615 61.5319C41.3981 61.7373 42.7221 62.9793 44.3198 64.3831C45.9176 65.7869 47.2781 67.2343 47.3513 67.6452C47.7661 69.9732 53.6606 63.5174 55.9034 58.2267C59.1794 50.4836 60.558 48.2506 63.8227 45.6009C67.6788 42.489 68.9161 40.4941 70.7857 34.1405C71.6742 31.2197 72.5678 29.3586 73.2674 29.1595C73.9077 28.9713 75.8703 29.6718 77.6444 30.6897ZM74.7499 41.2619C73.5143 43.6101 71.3662 46.3378 68.6232 48.8211C64.8752 52.196 64.1562 53.3179 62.032 58.5868C59.7211 64.5264 59.1906 65.3309 54.5036 70.9995L52.0955 73.9871L53.4501 79.1832C54.7454 84.3903 55.1172 92.666 54.2198 96.2248C53.9753 97.2597 54.1079 97.6596 54.8685 97.8029C56.3426 98.1687 56.4486 100.483 55.0073 102.02C53.4717 103.716 53.6337 105.313 55.5663 107.221L57.0455 108.646L59.1309 105.223C60.356 103.16 61.3527 100.502 61.4751 98.7824C61.9051 94.3194 64.2665 89.0069 67.1963 85.8529C69.524 83.4458 69.7352 82.9121 69.158 81.3916C66.3819 74.4057 66.562 72.322 70.3344 69.0841C73.5624 66.2289 76.8893 66.679 85.8034 70.9828C87.8862 72.0147 90.529 73.4389 91.5774 74.1657C92.6729 74.8132 93.8155 75.3814 94.1121 75.3269C95.0019 75.1636 94.3393 73.1639 93.052 72.1273C91.9077 71.206 92.0141 71.1157 94.2909 70.4857C97.0423 69.7687 97.2745 68.6654 95.0225 67.028C93.6166 66.0132 92.336 66.3897 88.7504 68.957C87.8867 69.6105 87.2523 66.0499 87.5199 62.3945C87.7227 60.0945 87.517 59.2837 86.2978 57.5983C84.2886 54.5729 81.6378 48.9782 79.3047 42.7595C78.1626 39.7871 77.1302 37.4309 76.9522 37.4636C76.7743 37.4963 75.7848 39.1628 74.7499 41.2619ZM88.1549 43.6101C87.6576 43.9135 87.4132 44.9484 87.5718 45.8385C88.0232 48.372 94.1695 57.4264 98.4778 62.0098L102.333 66.1107L105.913 64.888C111.805 62.8874 115.437 62.645 119.29 63.9884C123.263 65.3101 127.889 69.2695 128.303 71.5975C128.462 72.4877 129.524 73.6362 130.906 74.5141C132.204 75.2658 134.257 77.5054 135.537 79.5332C137.57 82.6955 137.823 83.427 137.62 85.7269C137.521 87.2302 137.785 90.4344 138.224 92.8994C139.005 97.2816 138.705 99.0338 136.953 100.204C136.515 100.496 137.459 101.667 139.545 103.405C141.404 104.902 143.119 105.931 143.426 105.592C143.746 105.321 144.128 103.342 144.367 101.247C144.56 99.2321 145.436 96.2428 146.247 94.6089C147.989 91.3194 147.966 91.5357 144.585 64.6495C144.031 60.5085 141.954 58.132 134.223 52.904C127.456 48.2768 125.483 47.8611 115.063 48.8543C108.309 49.4573 104.363 48.6259 97.2335 45.0553C92.4607 42.6785 90.0724 42.339 88.1549 43.6101ZM74.1648 73.048C72.0272 75.491 73.5863 78.7404 77.1033 79.2263C78.4693 79.3292 81.0982 80.3316 82.9316 81.3387C86.1937 83.1442 88.7826 83.2347 90.2361 81.7659C91.5239 80.3982 88.4436 76.8622 84.3738 74.9928C75.901 71.103 75.8295 71.0454 74.1648 73.048ZM110.631 70.7397C109.402 72.0965 109.758 74.4354 111.319 75.6339C112.236 76.314 113.117 76.7887 113.355 76.7452C113.592 76.7016 114.558 77.6557 115.502 78.826C116.446 79.9963 117.53 80.9286 117.946 80.8524C118.776 80.7 124.549 73.5594 124.662 72.4779C124.777 71.7496 118.64 69.6232 116.313 69.6261C113.677 69.6149 111.186 70.0721 110.631 70.7397ZM97.205 76.5271C96.7999 78.7228 96.8121 78.7913 99.4132 78.9503C101.266 79.0345 101.42 78.8649 101.163 77.427C100.578 74.1403 97.8319 73.5129 97.205 76.5271ZM105.467 80.9506C105.601 81.7038 105.984 82.4819 106.377 82.622C107.71 83.226 107.301 84.7152 105.48 86.1809C103.398 87.9064 103.33 88.5553 104.975 89.8798C106.262 90.9164 110.273 90.3924 111.027 89.1226C111.404 88.4878 111.938 88.3898 112.925 88.7743C114.71 89.5074 115.234 92.4517 113.986 94.7314C113.257 96.1381 112.582 96.4741 110.694 96.5377C109.352 96.5718 107.929 96.8331 107.444 97.2049C106.615 97.7106 106.723 97.9736 108.179 99.6155L109.791 101.441L112.002 99.409C113.799 97.8063 115.174 97.2712 119.386 96.4982C122.292 95.9648 124.569 95.3348 124.532 95.1294C124.484 94.8555 123.556 94.4601 122.521 94.155C120.654 93.649 120.571 93.523 120.365 90.3079C120.171 86.8081 118.109 82.8023 116.722 83.269C115.276 83.7466 114.515 83.6033 114.357 82.7132C114.078 81.4916 108.747 79.0758 106.836 79.3557C105.65 79.5734 105.296 79.992 105.467 80.9506ZM92.6774 88.2476L91.4384 89.8892L93.8162 90.5135C95.1717 90.9011 96.5027 91.1518 96.7993 91.0974C97.6891 90.9341 97.5066 87.5027 96.5979 86.1845C95.6177 84.8088 95.1204 85.1122 92.6774 88.2476ZM124.501 83.6091C124.433 84.258 125.115 85.335 126.141 86.2781C128.394 88.2687 133.695 96.7006 133.332 97.7571C133.168 98.2115 133.347 98.5321 133.762 98.4559C134.237 98.3688 134.197 97.4569 133.534 95.4572C133.017 93.9259 132.039 90.4991 131.397 87.9298C130.743 85.292 129.877 82.8347 129.495 82.4099C128.385 81.3407 124.744 82.221 124.501 83.6091Z" fill="#3D2A23"></path><path d="M85.8073 66.8811C85.8683 67.2235 85.6693 67.8257 85.4093 68.0856C85.09 68.3563 84.8405 68.3314 84.7673 67.9205C84.7063 67.5782 84.846 66.9869 85.1653 66.7161C85.4253 66.4563 85.7341 66.4703 85.8073 66.8811Z" fill="#3D2A23"></path><path d="M72.1795 228.904C76.1059 223.092 76.5199 220.258 75.1174 209.98C74.2816 204.185 73.6072 203.444 73.2227 201.379L72.7088 190.467C72.9255 188.061 74.3562 184.734 75.466 183.399C78.2527 180.13 80.164 175.041 79.4875 172.62C78.9924 170.872 78.5754 170.595 74.2019 169.772C69.7568 168.89 68.724 168.938 59.4948 170.774C53.9904 171.854 48.4877 173.289 47.1965 173.95C45.9647 174.6 44.2584 175.338 43.4401 175.559C43.259 175.621 43.0998 175.684 42.9598 175.756L32.6226 180.653C31.9941 180.713 31.0986 180.928 29.9429 181.288C28.0342 181.922 26.1482 182.338 25.6964 182.209C24.2345 181.912 23.7452 176.415 24.9914 173.782C26.1327 171.593 26.7713 171.052 32.0894 168.237C34.553 166.936 35.1517 165.483 33.0755 165.864C29.813 166.463 32.8181 161.669 37.7891 158.281C39.9195 156.83 41.7411 155.364 41.9174 154.978C42.0344 154.603 45.0701 153.763 48.6292 153.11C54.3238 152.065 55.9742 152.045 61.2863 152.979C68.001 154.222 73.2572 155.873 80.9205 159.346L85.9184 161.611L86.4796 164.76C86.8821 167.02 87.4698 168.256 88.4711 169.062C90.819 170.894 96.2182 172.661 98.3536 172.269C100.845 171.811 103.879 173.023 105.099 175.061C105.685 175.944 106.507 176.429 107.397 176.266C108.168 176.124 109.047 176.246 109.393 176.465C109.81 176.742 111.343 177.097 112.911 177.305C118.876 178.119 128.278 182.757 136.442 189.038C138.992 190.974 141.6 192.546 142.218 192.574C143.085 192.627 143.898 193.75 145.218 196.69C146.166 198.92 146.829 200.92 146.688 201.158C146.546 201.396 145.693 201.765 144.744 201.939C143.202 202.222 143.107 202.381 143.768 204.027C144.201 205.079 145.064 206.83 145.699 207.986C148.381 212.727 151.756 228.23 150.214 228.513C149.917 228.567 148.455 228.27 146.897 227.778C144.317 227.049 143.792 226.509 140.885 221.881C139.162 219.086 135.971 214.934 133.847 212.636C131.675 210.419 128.762 207.135 127.365 205.482C126.015 203.75 123.594 201.507 121.998 200.457C120.402 199.406 117.888 197.675 116.423 196.671C114.899 195.678 112.68 193.54 111.473 191.923C109.453 189.182 103.156 183.408 102.385 183.55C102.148 183.593 102.543 186.844 103.251 190.816C104.276 196.567 104.403 198.312 103.79 199.343C103.143 200.523 102.905 200.566 101.346 199.721C100.406 199.257 99.3311 198.04 98.9108 197.057C97.6239 193.616 97.2647 192.975 96.6715 193.084C96.3749 193.138 96.1183 194.105 96.1233 195.164C96.1178 196.509 95.6239 197.519 94.5229 198.216C93.5999 198.88 92.846 200.15 92.6975 201.379C92.1489 205.864 90.6011 207.492 88.7034 205.436C87.7964 204.471 87.6777 204.493 86.8523 205.705C86.3689 206.43 85.2802 207.195 84.3904 207.359C83.0854 207.598 82.5095 208.835 80.1476 216.552C77.5047 225.098 75.5396 228.853 71.2749 233.454C68.6994 236.189 69.267 233.186 72.1795 228.904ZM42.7996 158.21C40.8084 161.475 40.7044 167.08 42.7158 168.055C43.3821 168.357 56.2126 164.729 60.6093 162.932C62.8966 162.017 64.5697 161.781 67.5041 162.091C69.6185 162.269 71.9353 162.551 72.6122 162.568C74.6079 162.767 70.9761 160.605 67.4679 159.481C56.0991 155.84 44.6738 155.321 42.7996 158.21ZM29.428 172.898C29.0145 173.327 28.9219 173.839 29.1365 174.012C29.4226 174.242 30.1449 173.827 30.8062 173.069C32.0225 171.644 30.8222 171.44 29.428 172.898ZM83.1252 181.003C81.1639 183.06 78.8395 186.174 77.8622 187.909C76.1781 190.834 76.0978 191.415 76.6324 196.479C77.4161 203.972 78.5179 208.436 79.5263 208.251C79.9415 208.175 80.3656 207.461 80.4809 206.733C80.5595 205.799 81.3395 205.019 82.7737 204.473C84.4922 203.804 85.2007 202.967 85.9268 200.854C86.735 198.514 87.255 197.994 88.9752 197.678C90.6955 197.363 91.0619 197.012 90.9609 195.758C90.921 194.846 91.319 193.642 91.8268 193.054C92.3345 192.465 92.8268 191.102 92.8811 190.032C92.8743 188.619 93.3455 187.825 94.5424 187.323C96.9955 186.307 96.2946 183.748 92.8268 181.132C91.2779 180.002 89.4428 178.642 88.7398 178.134C88.0369 177.627 87.2867 177.199 87.0495 177.243C86.8 177.218 85.0272 178.957 83.1252 181.003ZM105.788 179.955C105.671 180.33 107.64 182.444 110.12 184.676C112.66 186.897 115.976 190.036 117.48 191.598C118.995 193.229 121.832 195.396 123.737 196.461C126.261 197.906 128.956 200.311 133.123 205.133C136.287 208.795 139.7 212.481 140.642 213.299L142.371 214.749L141.65 213.113C140.186 209.705 136.767 204.959 134.323 202.932C131.236 200.388 130.945 199.097 132.99 197.167C133.888 196.365 134.442 195.344 134.297 194.876C133.636 193.23 121.432 186.277 115.557 184.244C111.441 182.807 109.072 181.545 108.474 180.594C107.529 179.07 106.186 178.751 105.788 179.955Z" fill="#3D2A23"></path></svg> 