<?xml version="1.0" encoding="UTF-8"?> <svg xmlns="http://www.w3.org/2000/svg" width="606" height="538" viewBox="0 0 606 538" fill="none"><path d="M137.946 0.377234C136.95 0.5196 133.747 1.01788 130.828 1.44498C117.517 3.29573 99.4364 9.34626 86.0541 16.3934C40.853 40.1684 10.458 82.5933 1.98722 133.987C-4.49041 172.924 5.04808 220.047 27.9689 262.33C40.4259 285.251 67.1906 321.91 94.5248 353.444C116.022 378.144 148.481 411.671 175.317 436.728C214.681 473.458 254.188 506.131 287.074 529.265C302.806 540.37 303.09 540.37 315.191 532.184C320.174 528.767 339.892 514.246 348.718 507.341C350.925 505.704 353.915 503.355 355.481 502.145C364.592 495.24 392.781 471.963 404.526 461.642C430.436 438.934 470.441 399.286 496.992 370.101C507.171 358.996 527.387 335.363 531.231 330.167C532.014 329.099 535.36 324.828 538.563 320.557C578.069 269.59 595.153 234.924 603.624 188.513C604.976 180.826 605.19 177.266 605.19 160.467C605.261 143.312 605.048 140.323 603.624 132.706C593.303 79.1054 561.341 36.3957 514.788 14.0443C500.623 7.28196 485.888 2.86863 471.438 0.946697C459.265 -0.690507 435.917 -0.121045 425.454 2.01444C383.527 10.4852 343.095 37.8906 319.747 73.6955C316.9 78.0376 313.269 84.4441 311.632 87.932C306.08 100.175 304.158 103.521 302.734 103.521C300.955 103.521 298.179 99.2501 295.331 91.9895C290.135 78.963 279.885 63.9435 267.214 50.7035C243.012 25.5048 213.685 9.2039 179.232 2.01444C173.039 0.733148 168.982 0.448417 155.742 0.234869C146.915 0.163686 138.943 0.234869 137.946 0.377234Z" fill="#3D332F"></path></svg> 