<?xml version="1.0" encoding="UTF-8"?> <svg xmlns="http://www.w3.org/2000/svg" width="523" height="346" viewBox="0 0 523 346" fill="none"><path d="M328.049 0.822887C324.106 2.28364 319.213 5.78943 316.219 9.36827C312.422 13.7505 310.596 19.2283 310.158 27.4816C309.136 46.1062 315.416 61.2249 331.116 77.4393C338.93 85.5464 345.284 90.513 352.513 94.3109C355.215 95.7717 357.406 97.3055 357.406 97.7437C357.406 98.255 355.726 98.401 352.513 98.1819C344.918 97.5976 336.959 93.1423 327.246 83.9396C316.876 74.1526 310.45 69.8434 304.535 68.8208C300.445 68.0174 301.395 69.6242 306.872 72.4727C312.787 75.5403 314.32 76.7819 325.493 87.2263C339.076 100.008 344.991 102.491 359.305 101.542C365.147 101.176 367.922 101.323 372.595 102.418C375.882 103.148 378.584 104.025 378.584 104.317C378.584 104.609 376.831 104.901 374.786 104.901C372.668 104.901 366.972 105.778 362.153 106.727C349.3 109.357 340.683 108.991 333.672 105.413C329.072 103.148 321.331 95.1874 313.59 84.743C303.586 71.4502 300.153 69.113 285.84 66.2645C274.813 64.0734 267.291 60.6406 256.995 53.0447C252.321 49.612 249.473 48.1512 243.412 46.1062L238.519 44.4263L234.868 46.1062C231.363 47.713 228.514 50.2693 231.436 49.1737C239.322 46.1062 243.704 47.1287 255.315 54.9437C267.511 63.1969 273.645 66.0454 283.576 68.0905C298.474 71.2311 303.001 74.2256 312.495 86.9342C315.854 91.3894 320.893 97.3055 323.741 100.081C326.589 102.929 328.78 105.267 328.707 105.413C328.561 105.486 325.566 104.609 322.061 103.368C309.136 98.9853 293.508 98.8393 281.386 103.075C275.251 105.194 272.403 106.873 266.123 111.986C258.017 118.632 241.075 137.695 237.862 143.976C236.109 147.19 235.452 150.842 236.255 152.814C237.205 155.443 238.227 154.932 239.176 151.499C240.856 145.072 247.939 133.021 253.489 127.105C255.023 125.498 257.725 122.503 259.551 120.531C264.809 114.688 270.213 111.183 279.268 107.604C294.603 101.469 306.799 101.323 321.988 107.093C326.151 108.626 331.116 110.817 332.942 111.84C338.857 115.346 347.255 124.987 353.536 135.504C358.501 143.757 359.743 142.881 355.215 134.336C351.199 126.521 343.166 116.149 338.784 112.789C336.813 111.256 335.06 109.722 334.914 109.357C334.841 109.065 336.739 109.211 339.295 109.795C342.801 110.671 346.379 110.817 354.485 110.452C360.327 110.16 370.186 109.795 376.393 109.576C385.302 109.211 388.369 108.845 390.779 107.75C394.284 106.216 394.357 104.463 391.071 103.733C362.518 97.8167 342.655 86.4229 328.634 68.1635C324.252 62.3935 317.68 49.3198 314.759 40.4823C311.691 31.4256 312.422 22.7341 316.73 16.0877C317.607 14.7 318.556 13.6044 318.775 13.6044C318.994 13.6044 319.067 16.0147 318.921 18.8632C318.483 25.3635 320.674 35.9539 323.741 42.4543C328.634 52.9717 342.874 69.0399 356.749 79.6304C359.451 81.6754 375.663 91.8277 388.807 99.7157C390.633 100.811 392.824 102.199 393.7 102.71C396.475 104.463 396.621 102.71 393.919 100.227C392.532 98.9853 385.959 94.457 379.314 90.2939C356.164 75.6133 344.334 65.6072 334.403 52.4604C330.97 47.8591 328.926 44.0611 326.005 36.8304C322.499 28.0659 322.207 26.7512 322.207 21.5655C322.207 11.9246 325.566 7.03107 332.066 7.03107C335.936 7.03107 345.503 12.2167 351.126 17.3294C353.828 19.8126 356.238 21.5655 356.53 21.3464C356.749 21.0543 354.558 18.498 351.564 15.7225C347.766 12.0707 344.407 9.73346 340.099 7.61537C336.739 6.00854 334.111 4.47476 334.33 4.32869C335.206 3.45224 346.817 5.93551 350.907 7.83448C355.945 10.2447 362.518 16.1608 367.776 23.0993C372.522 29.3806 379.971 44.2802 382.819 53.4099C384.061 57.427 386.397 65.0959 388.077 70.5007C389.757 75.8324 393.262 85.1813 395.818 91.1703L400.565 102.126L398.301 104.39C395.307 107.312 394.503 109.503 395.453 111.986C396.037 113.593 395.891 114.177 394.357 115.784C391.728 118.632 389.391 123.745 389.684 126.228C389.903 128.346 389.976 128.273 393.043 123.599C396.694 118.048 397.936 117.172 402.39 117.172C404.143 117.172 405.822 116.88 406.041 116.441C406.699 115.419 404.143 113.52 402.901 113.958C402.39 114.177 401.076 114.031 400.053 113.666C398.447 113.009 398.228 112.57 398.447 110.306C398.593 108.334 399.25 107.166 400.711 106.07C403.047 104.39 404.581 104.901 406.115 107.896C406.626 108.845 407.356 109.649 407.794 109.576C409.693 109.357 409.985 109.211 409.985 108.042C409.985 105.778 406.48 102.053 404.07 101.834C402.098 101.615 401.66 101.176 400.491 97.9628C399.761 95.9178 397.497 90.513 395.453 85.7656C393.335 81.0911 390.195 72.1075 388.369 65.6802C384.28 51.4379 377.488 34.055 373.18 26.7512C368.652 19.2283 362.81 12.2898 357.552 8.34575C349.008 1.91844 334.622 -1.73343 328.049 0.822887Z" fill="#3D332F"></path><path d="M365.438 32.8863C365.804 33.8358 367.337 37.1955 368.944 40.3362C370.55 43.5498 372.741 48.8816 373.837 52.3143C374.932 55.7471 376.977 61.2249 378.291 64.5846C379.679 67.9444 381.65 73.5683 382.6 77.001C384.352 82.9901 388.442 92.1928 389.756 92.9962C391.947 94.3109 390.121 87.5915 385.156 75.6863C383.257 71.085 380.993 65.242 380.19 62.7587C379.313 60.3485 377.488 55.3819 376.027 51.8031C374.64 48.2973 372.741 43.5498 371.865 41.3587C369.747 36.1 366.753 31.1334 365.658 31.1334C365 31.1334 364.927 31.6447 365.438 32.8863Z" fill="#3D332F"></path><path d="M227.93 53.5557C227.127 54.2861 227.346 56.6963 228.149 56.6963C228.588 56.6963 228.88 55.8929 228.88 54.8704C228.88 52.9714 228.734 52.7523 227.93 53.5557Z" fill="#3D332F"></path><path d="M232.02 58.3036C228.952 58.7418 227.419 59.3261 227.419 59.9834C227.419 61.7363 228.952 62.0285 234.283 61.079C240.783 59.9834 247.282 61.2251 255.826 65.023C262.179 67.9445 270.87 70.4278 271.673 69.6244C272.476 68.894 271.892 68.5288 267.218 66.849C264.881 66.0455 260.281 64.0735 256.995 62.4667C246.917 57.5732 242.097 56.7698 232.02 58.3036Z" fill="#3D332F"></path><path d="M141.613 82.2591C135.698 83.866 127.592 87.1526 123.356 89.6359C112.329 96.2093 100.061 106.508 95.5334 113.008C94.2189 114.98 92.0281 116.733 89.2531 118.121L85.0906 120.239H67.3452C48.5775 120.239 44.561 120.75 33.6801 124.548C19.367 129.514 6.95248 143.172 1.98669 159.314C0.0880052 165.668 0.0149788 166.544 0.0149788 182.686C-0.0580475 198.316 0.0880052 199.777 1.54853 203.867C2.49787 206.277 3.73932 210.221 4.32353 212.558C7.60972 225.267 20.5354 243.891 34.7025 256.6C44.6341 265.437 49.8189 269.6 54.7847 272.96C56.8295 274.348 60.4808 276.977 62.8176 278.876C71.0696 285.45 93.9268 298.596 116.784 309.99C125.401 314.226 146.287 321.822 149.5 321.822C152.932 321.822 149.354 319.996 134.529 314.08C125.62 310.501 116.419 306.411 114.082 304.878C111.745 303.344 109.627 302.102 109.481 302.102C109.262 302.102 104.297 299.254 98.3814 295.821C79.5406 284.792 58.5091 269.893 44.8531 257.914C35.5058 249.661 23.3104 237.172 20.2433 232.643C13.817 223.295 7.09853 206.496 5.3459 195.321C4.03143 187.141 4.17748 171.949 5.63801 165.449C9.43537 148.431 18.8558 135.577 32.5847 128.711C42.2972 123.817 46.8248 123.16 69.6091 123.16C81.5854 123.16 89.3262 122.868 90.7867 122.357C92.3202 121.772 93.9268 120.312 95.5334 117.682C99.5498 111.474 106.779 103.513 111.964 99.7151C121.677 92.5574 136.209 86.6414 148.77 84.7424C156.072 83.5738 157.387 83.5738 166.661 84.6694C177.907 86.0571 183.311 87.2987 190.175 90.0741C200.472 94.3103 209.381 101.979 215.954 112.278C220.262 118.997 226.689 139.886 226.689 147.043C226.689 149.965 226.981 150.914 227.784 150.914C230.924 150.914 229.975 140.324 225.52 127.031C221.504 114.907 219.751 111.474 213.836 104.609C208.505 98.3274 202.152 93.3608 194.557 89.5629C187.4 85.984 180.974 84.0851 169.728 82.2591C158.263 80.4332 148.404 80.4332 141.613 82.2591Z" fill="#3D332F"></path><path d="M457.452 95.1876C448.396 95.8449 442.116 97.0865 431.162 100.519C418.894 104.39 412.175 107.239 412.175 108.626C412.175 109.138 412.686 109.211 413.49 108.919C426.561 103.879 440.802 100.227 451.61 99.1316C455.845 98.6934 460.738 98.1821 462.563 97.963C467.237 97.3787 468.479 97.3787 477.899 98.2551C495.498 99.935 501.486 101.98 509.154 108.992C513.974 113.374 517.041 118.706 520.327 128.566C521.788 133.021 521.861 133.971 521.058 136.892C520.181 140.398 520.473 141.493 521.934 140.033C522.518 139.448 522.81 136.819 522.737 132.437C522.664 124.622 520.765 118.633 516.019 111.621C511.126 104.463 499.515 97.5978 488.853 95.6988C483.887 94.8224 466.434 94.5302 457.452 95.1876Z" fill="#3D332F"></path><path d="M156.949 104.901L154.758 105.339L156.949 105.851C158.19 106.07 163.594 107.165 168.998 108.188C182.8 110.817 188.861 113.812 196.091 121.554C199.523 125.206 203.247 130.318 206.241 135.431C208.87 139.886 211.426 143.611 211.937 143.611C215.516 143.684 201.641 120.97 195.068 116.003C190.614 112.716 181.339 108.48 175.059 107.019C167.464 105.193 159.943 104.317 156.949 104.901Z" fill="#3D332F"></path><path d="M423.86 108.918C414.877 110.013 415.827 109.794 415.827 111.109C415.827 112.059 417.725 112.205 428.46 112.205C456.648 112.205 479.141 115.418 493.454 121.407C500.61 124.475 502.217 125.497 506.452 129.661C511.491 134.7 513.609 139.009 513.828 144.56C513.974 147.993 512.879 149.162 508.643 150.184C504.262 151.207 497.981 150.622 488.634 148.285C476.658 145.291 467.529 141.347 456.064 134.189C442.992 126.082 429.629 120.239 423.86 120.239C422.618 120.239 420.939 119.874 420.062 119.435C419.259 118.997 418.383 118.851 418.164 119.143C417.579 119.727 420.5 122.284 423.714 124.037C424.955 124.694 426.781 126.52 427.803 128.127C428.825 129.734 431.381 133.02 433.499 135.431C441.313 144.195 442.992 149.162 446.936 176.405C447.593 181.006 448.616 185.607 449.273 186.484C450.003 187.725 450.149 188.456 449.565 189.04C448.469 190.136 446.571 185.461 442.554 171.876C437.442 154.785 434.302 147.628 426.635 135.869C422.472 129.368 419.843 127.104 417.287 127.689C416.63 127.835 415.9 126.374 415.096 123.16C413.782 117.755 411.737 113.446 410.642 113.811C409.619 114.177 409.619 114.25 411.81 121.407C413.709 127.616 413.709 127.762 412.541 132.874C411.08 139.74 407.575 146.824 404.654 149.016C396.475 155.151 387.931 156.392 385.521 151.645C383.841 148.431 384.06 148.212 388.442 148.577C393.919 149.016 395.379 148.504 399.761 144.56C405.019 139.886 407.283 134.773 407.283 127.981C407.283 123.964 406.991 122.722 405.968 121.919C405.165 121.407 404.362 120.969 404.069 120.969C403.777 120.969 403.704 123.525 403.923 126.666C404.362 132.655 403.339 137.768 401.733 137.768C401.221 137.768 398.958 136.818 396.694 135.65C394.43 134.481 390.267 133.093 387.419 132.582C383.038 131.852 381.577 131.852 377.634 132.874C372.084 134.189 364.197 138.717 363.102 141.127C361.787 143.903 362.956 144.049 365.95 141.42C367.41 140.105 370.477 138.133 372.741 137.11C376.246 135.431 377.707 135.211 384.06 135.211C390.56 135.211 391.801 135.431 395.598 137.256C397.862 138.425 399.761 139.74 399.761 140.251C399.761 142.734 392.239 146.532 387.273 146.532C386.032 146.532 384.06 147.263 382.819 148.066C381.066 149.381 380.774 149.965 381.139 151.572C381.431 152.594 382.454 154.42 383.549 155.516C385.448 157.561 385.667 157.634 391.728 157.342C396.256 157.123 399.25 156.465 402.682 155.078C405.238 153.982 407.648 153.398 407.94 153.69C408.743 154.493 406.771 160.263 404.216 164.646C401.367 169.539 400.783 171.803 401.952 173.994C403.12 176.112 404.142 176.259 404.142 174.287C404.142 173.41 405.165 170.635 406.333 168.078C407.575 165.449 409.035 161.359 409.692 158.876C410.715 154.859 410.715 154.347 409.692 152.667C408.524 150.988 408.67 150.622 411.737 144.487C413.49 140.908 415.242 136.818 415.462 135.357C415.754 133.897 416.265 132.655 416.557 132.655C417.798 132.655 425.977 143.684 429.629 150.184C433.791 157.561 434.814 160.117 439.195 174.287C442.627 185.315 445.914 192.181 450.952 198.827C452.851 201.237 455.918 206.35 457.817 210.148C463.878 222.345 469.647 229.357 479.433 236.368C483.303 239.144 488.634 243.745 491.263 246.594C498.346 254.263 506.087 268.067 510.323 280.556C511.783 285.011 515.142 289.978 516.822 290.27C518.429 290.635 520.546 286.107 519.378 284.719C518.794 284.062 518.356 284.062 517.552 284.646C516.311 285.742 515.946 285.377 514.412 281.14C511.783 273.618 508.278 265.73 505.868 261.566C497.105 246.74 492.504 241.481 481.55 234.031C478.556 231.986 474.394 228.846 472.276 227.093C468.187 223.66 461.103 213.727 461.103 211.463C461.103 210.002 462.198 209.564 462.929 210.805C463.221 211.244 466.361 213.508 469.939 215.918C488.707 228.626 502.071 243.526 511.491 262.516C514.339 268.286 518.064 277.927 518.064 279.607C518.064 280.337 518.429 280.921 518.794 280.921C519.962 280.921 519.67 279.168 516.676 270.185C513.463 260.252 508.57 250.173 504.335 244.549C499.515 238.121 486.005 224.609 478.994 219.205C475.416 216.429 470.889 212.777 468.99 211.024C467.091 209.271 465.266 207.884 464.973 207.884C464.608 207.884 462.637 206.277 460.592 204.305C455.918 199.85 453.143 194.08 450.295 182.686C448.104 174.067 447.812 172.314 445.329 156.757C443.869 147.336 442.116 142.442 438.538 137.914C435.471 134.043 433.791 131.267 434.302 130.756C434.448 130.537 436.566 131.852 438.903 133.605C441.24 135.284 448.104 139.959 454.019 143.976C460.008 147.993 465.485 151.718 466.288 152.302C467.456 153.179 467.675 153.106 467.675 152.156C467.675 151.572 464.973 149.235 461.687 147.043C454.75 142.442 435.69 128.638 434.156 127.104C431.819 124.913 434.229 125.424 440.729 128.492C444.526 130.245 450.222 133.385 453.435 135.504C467.675 144.925 487.904 152.302 501.048 152.96C507.256 153.252 507.986 153.106 511.418 151.28C515.654 148.942 516.238 147.482 515.216 141.274C514.412 136.453 513.025 133.459 509.519 129.149C506.087 124.986 496.886 118.267 491.555 116.076C475.635 109.575 445.037 106.362 423.86 108.918Z" fill="#3D332F"></path><path d="M388.807 110.89C386.105 112.789 382.527 119.144 381.797 123.38C380.993 128.346 382.527 127.835 384.864 122.43C386.032 119.582 388.369 115.638 390.122 113.739C391.801 111.767 393.189 109.941 393.189 109.722C393.189 108.772 391.071 109.357 388.807 110.89Z" fill="#3D332F"></path><path d="M143.95 113.666C136.282 115.638 129.783 121.919 122.334 134.555C119.778 138.937 117.149 143.1 116.565 143.757C115.031 145.51 111.745 145.437 102.179 143.246C82.0966 138.791 63.4019 139.302 50.2572 144.78C42.5164 147.993 35.7249 154.64 31.3433 163.331C26.4506 172.972 25.5743 179.692 27.619 191.086C29.1525 199.631 35.4328 215.261 40.5447 223.441C49.2348 237.318 60.4808 248.201 85.3098 267.191C89.9835 270.697 109.628 281.214 119.705 285.523C127.519 288.883 151.033 296.698 154.977 297.282C161.768 298.305 157.168 296.187 140.006 290.49C123.283 284.939 113.717 280.922 97.7973 272.742C91.1519 269.309 77.2039 258.937 67.2723 249.954C52.521 236.588 39.2302 216.43 33.169 198.316C29.7368 188.018 30.7591 174.433 35.5058 166.326C38.9381 160.629 46.6058 153.033 52.2289 149.965C60.0427 145.583 66.6881 144.195 79.9058 144.269C89.3262 144.269 92.8315 144.561 100.718 146.168C105.976 147.263 111.891 148.505 114.009 148.943C118.756 149.892 119.34 149.454 121.531 143.538C125.182 133.897 134.164 123.453 142.489 119.363C146.579 117.391 147.601 117.172 151.326 117.537C156.291 118.048 167.756 122.576 173.818 126.447C179.441 130.026 189.226 139.813 192.951 145.656C199.815 156.247 202.736 166.18 202.736 178.669C202.663 202.406 197.113 225.486 180.974 269.09C178.418 275.955 176.301 281.944 176.301 282.236C176.301 282.529 174.694 285.669 172.649 289.175C168.779 295.968 168.195 298.013 170.312 297.574C172.211 297.209 181.266 278.804 188.058 261.494C194.63 244.695 196.091 240.532 199.304 229.43C203.612 214.458 205.584 201.311 206.022 183.782C206.46 167.348 205.803 161.286 202.517 153.398C196.164 138.06 178.272 121.043 162.499 115.273C157.095 113.301 148.405 112.57 143.95 113.666Z" fill="#3D332F"></path><path d="M116.93 122.576C115.542 124.694 114.082 127.177 113.571 128.054C112.913 129.368 112.11 129.734 109.846 129.734C108.24 129.734 106.925 130.026 106.925 130.391C106.925 131.267 111.526 132.071 112.986 131.486C114.301 131.048 119.559 123.087 120.362 120.385C121.311 117.536 119.559 118.632 116.93 122.576Z" fill="#3D332F"></path><path d="M261.741 129.515C251.591 139.959 246.406 146.679 246.406 149.454C246.406 151.207 247.793 149.819 252.248 143.903C254.804 140.397 259.477 134.847 262.618 131.56C265.758 128.2 268.314 125.352 268.314 125.06C268.314 123.599 265.904 125.279 261.741 129.515Z" fill="#3D332F"></path><path d="M290.879 128.127C284.38 129.88 278.61 133.459 272.33 139.594C262.837 148.943 257.36 158.145 251.007 175.309C245.968 189.113 238.811 226.874 237.57 246.594C236.693 261.42 238.008 283.04 240.637 294.653C242.755 304.22 247.209 315.979 248.67 315.979C249.181 315.979 249.254 315.468 248.962 314.665C241.951 296.552 239.541 282.528 239.614 260.106C239.614 242.139 240.126 237.829 246.041 209.345C249.984 190.136 250.787 186.849 254.22 176.113C257.214 166.764 259.112 162.82 263.713 156.1C270.87 145.875 275.543 140.835 281.751 136.745C290.076 131.121 292.485 130.245 298.985 130.245C317.68 130.172 333.964 149.673 343.969 184.147C345.795 190.501 347.328 193.349 348.351 192.327C348.643 192.108 347.766 187.36 346.452 181.81C344.334 173.118 343.166 170.124 337.908 159.606C334.549 152.96 330.24 145.583 328.341 143.173C324.325 138.206 316.438 131.925 310.815 129.222C305.63 126.739 297.524 126.301 290.879 128.127Z" fill="#3D332F"></path><path d="M40.0335 141.712C35.7249 143.611 28.1302 148.797 25.5743 151.646C19.367 158.511 15.7887 170.343 15.1315 185.754C14.6203 198.17 15.9348 200.435 16.592 188.31C17.1762 178.816 19.8782 166.764 22.7993 160.337C25.6473 154.056 30.0289 149.235 35.2137 146.825C40.1065 144.561 43.3927 142.37 43.3927 141.347C43.3927 140.471 42.7354 140.544 40.0335 141.712Z" fill="#3D332F"></path><path d="M374.567 150.623C367.264 154.421 363.905 163.624 367.629 169.686C369.82 173.338 374.64 176.479 377.926 176.479C383.622 176.479 392.458 171.658 392.458 168.517C392.458 167.714 392.093 167.787 390.852 168.956C384.206 174.945 373.179 174.214 370.624 167.568C368.871 162.747 370.039 158.803 374.64 154.129C376.831 151.865 378.583 149.893 378.583 149.747C378.583 149.089 376.685 149.528 374.567 150.623Z" fill="#3D332F"></path><path d="M472.495 154.567C474.102 156.174 488.488 161.798 489.145 161.14C490.094 160.191 490.094 160.118 481.258 156.831C473.006 153.763 471.181 153.252 472.495 154.567Z" fill="#3D332F"></path><path d="M504.773 158.803C500.172 160.921 499.223 162.309 502.801 161.579C505.43 161.067 510.031 158.438 510.031 157.416C510.031 156.466 509.519 156.612 504.773 158.803Z" fill="#3D332F"></path><path d="M225.447 158.949C221.65 160.483 224.498 163.404 229.902 163.623C232.458 163.696 232.896 163.915 232.677 165.157C231.947 170.05 230.997 181.225 231.216 182.54C231.654 185.169 233.334 177.866 235.671 163.331C235.744 162.528 234.941 162.162 232.604 161.87C229.756 161.578 229.537 161.359 230.559 160.483C231.216 159.971 231.581 159.241 231.362 158.876C230.851 158.072 227.565 158.072 225.447 158.949Z" fill="#3D332F"></path><path d="M220.847 166.911C219.824 168.956 219.897 184.732 220.993 185.827C221.65 186.485 221.577 187.069 220.847 188.53C220.117 189.844 220.117 190.648 220.628 191.159C221.723 192.255 226.762 193.277 228.442 192.766C229.829 192.401 229.829 192.328 228.515 191.378C227.784 190.794 226.543 190.356 225.886 190.356C223.841 190.356 223.403 187.726 223.622 176.259C223.768 167.203 223.622 165.523 222.672 165.523C222.088 165.523 221.285 166.18 220.847 166.911Z" fill="#3D332F"></path><path d="M229.317 170.489C228.733 171.512 227.857 184.951 228.514 184.366C229.025 183.928 230.413 170.489 229.975 170.051C229.829 169.905 229.61 170.124 229.317 170.489Z" fill="#3D332F"></path><path d="M350.468 173.557C350.249 173.922 350.541 175.236 351.199 176.405C351.783 177.647 352.586 179.838 352.878 181.299C353.17 182.832 353.901 184.22 354.412 184.366C355.215 184.658 355.361 183.928 354.996 180.641C354.704 178.377 354.193 175.748 353.755 174.725C353.024 172.826 351.272 172.169 350.468 173.557Z" fill="#3D332F"></path><path d="M404.143 178.888C404.143 180.276 405.165 181.006 409.985 182.978C417.287 186.046 429.41 196.563 434.522 204.159C437.224 208.249 444.161 224.902 445.476 230.38C448.324 242.577 447.52 252.656 442.92 261.786C440.656 266.314 433.791 275.736 429.191 280.63C423.86 286.4 407.867 299.181 405.968 299.181C405.676 299.181 403.632 300.642 401.368 302.395C396.402 306.193 392.532 308.238 381.87 312.766C363.905 320.289 328.122 331.245 309.209 334.97C286.789 339.279 278.61 340.228 261.084 340.52C244.215 340.739 241.294 341.105 243.339 343.15C247.355 347.167 289.053 344.684 312.13 338.987C325.712 335.7 345.357 330.587 351.491 328.688C354.923 327.666 359.597 326.278 361.787 325.694C366.899 324.16 388.807 314.665 396.621 310.429C407.283 304.732 422.034 293.703 431.162 284.574C438.611 277.124 442.409 271.354 446.425 261.64C452.34 247.324 452.413 241.774 446.498 223.587C441.605 208.542 440.51 205.912 436.274 200.215C430.724 192.619 421.742 185.462 412.687 181.225C405.749 178.012 404.143 177.574 404.143 178.888Z" fill="#3D332F"></path><path d="M366.169 186.338C366.169 187.068 366.972 187.434 368.725 187.434C370.477 187.434 371.281 187.068 371.281 186.338C371.281 185.608 370.477 185.242 368.725 185.242C366.972 185.242 366.169 185.608 366.169 186.338Z" fill="#3D332F"></path><path d="M360.838 192.546C358.501 192.838 356.237 193.423 355.799 193.861C355.288 194.372 358.063 194.591 365.146 194.518C373.617 194.372 376.465 194.664 382.234 196.052C401.148 200.726 407.648 204.451 413.125 213.727C417.579 221.177 418.967 226.947 418.675 236.953C418.383 245.206 418.236 245.791 415.608 251.122C408.743 265.146 386.47 282.602 363.175 292.462C354.338 296.187 352.367 296.771 332.211 302.03C311.691 307.361 307.236 308.165 287.3 310.502C278.683 311.524 269.19 312.766 266.196 313.277C260.865 314.227 259.039 315.322 261.376 316.272C264.005 317.221 300.591 314.227 308.989 312.255C310.888 311.817 316.292 310.867 320.892 310.064C329.875 308.603 335.425 307.142 346.452 303.563C350.249 302.322 357.333 300.058 362.152 298.524C378.948 293.192 396.256 283.259 407.94 272.23C414.439 266.168 416.338 263.612 421.158 254.628C425.247 247.032 426.05 242.65 424.955 234.543C423.859 226.947 422.253 222.199 418.163 214.165C415.461 208.907 414.074 207.008 410.204 203.94C403.266 198.17 394.065 194.153 384.133 192.546C379.094 191.743 367.191 191.743 360.838 192.546Z" fill="#3D332F"></path><path d="M222.745 205.474C222.161 214.604 220.92 224.318 220.043 226.728C219.605 227.897 218.875 228.335 217.78 228.189C215.151 227.824 215.516 229.65 218.364 230.891C222.088 232.425 222.526 232.279 221.942 229.869C221.723 228.7 222.015 225.194 222.599 222.054C223.841 215.918 225.301 199.12 224.79 198.243C223.695 196.49 223.184 198.462 222.745 205.474Z" fill="#3D332F"></path><path d="M426.051 206.934C426.051 207.665 427.219 210.221 428.607 212.631C430.067 215.041 431.966 218.766 432.988 220.811C434.96 224.975 436.274 225.778 436.274 222.783C436.274 219.935 432.039 210.002 429.848 207.665C427.73 205.4 426.051 205.108 426.051 206.934Z" fill="#3D332F"></path><path d="M213.325 232.205C213.106 232.716 212.595 235.638 212.083 238.633C210.915 245.79 211.864 249.661 215.224 251.706C216.538 252.51 218.437 253.167 219.605 253.167C221.212 253.167 221.577 252.875 221.577 251.341C221.577 249.296 221.358 249.15 219.459 250.392C218.364 251.049 217.78 251.049 216.903 250.319C215.516 249.15 215.443 246.594 216.757 242.284L217.707 238.998L218.218 241.554C218.656 243.891 218.802 243.964 219.751 242.723C220.847 241.189 220.116 238.048 218.729 238.34C218.291 238.486 217.926 237.537 217.926 236.149C217.926 232.716 214.347 229.649 213.325 232.205Z" fill="#3D332F"></path><path d="M222.088 236.15C221.358 236.88 221.504 248.055 222.234 248.055C222.818 248.055 223.768 241.335 223.768 237.391C223.768 235.711 223.037 235.127 222.088 236.15Z" fill="#3D332F"></path><path d="M431.892 256.527C430.286 260.033 429.117 263.028 429.336 263.247C430.505 264.488 435.179 257.769 435.909 253.825C436.858 248.785 434.96 250.1 431.892 256.527Z" fill="#3D332F"></path><path d="M210.623 256.6C210.112 258.937 209.162 262.297 208.432 264.123C207.702 265.949 205.73 270.842 204.051 275.078C198.647 288.81 191.49 300.642 181.12 313.058C173.234 322.48 170.02 327.519 171.043 328.542C172.065 329.564 179.368 322.626 184.772 315.468C189.737 308.895 198.647 292.973 203.905 281.287C206.095 276.466 208.286 271.865 208.797 271.061C210.258 268.87 213.544 257.476 213.544 254.774C213.544 250.684 211.572 251.926 210.623 256.6Z" fill="#3D332F"></path><path d="M222.234 260.982C221.139 263.83 221.869 286.691 223.403 295.529C225.52 308.091 232.312 331.536 234.868 335.188C235.671 336.284 236.62 337.16 237.059 337.16C238.154 337.16 237.351 333.654 233.261 320.288C228.734 305.608 227.565 298.888 227.054 284.208C226.543 268.943 226.032 261.566 225.52 260.179C224.79 258.353 223.111 258.791 222.234 260.982Z" fill="#3D332F"></path><path d="M74.4289 264.196C72.7493 266.898 106.341 287.933 123.941 295.164C127.519 296.624 130.805 297.647 131.243 297.501C131.974 297.282 124.817 293.265 110.212 285.669C100.864 280.848 85.3098 271.134 79.5407 266.606C75.5973 263.538 74.94 263.246 74.4289 264.196Z" fill="#3D332F"></path><path d="M409.984 286.473C389.683 298.305 362.298 310.502 335.863 319.34C329.436 321.458 324.106 323.576 323.959 324.014C323.594 325.037 324.106 324.964 331.116 322.992C358.939 315.25 376.611 308.749 392.385 300.569C407.429 292.681 415.388 287.349 417.36 283.624C418.383 281.725 417.506 282.091 409.984 286.473Z" fill="#3D332F"></path></svg> 