<?xml version="1.0" encoding="UTF-8"?> <svg xmlns="http://www.w3.org/2000/svg" width="323" height="314" viewBox="0 0 323 314" fill="none"><path d="M157 0.786868C156.794 1.19872 156.897 4.2876 157.309 7.68537C157.617 11.0831 157.617 24.0565 157.103 36.515C156.691 48.9735 156.176 68.3305 155.97 79.5535C155.661 101.382 155.558 101.896 150.41 101.896C145.262 101.896 139.393 111.575 143.203 113.84C143.82 114.252 141.864 115.796 138.26 117.547C134.966 119.091 133.318 120.224 134.76 119.812C136.201 119.503 141.349 118.988 146.189 118.679L155.043 118.062L155.146 123.107C155.352 128.461 154.426 129.696 149.998 129.696C147.321 129.696 147.218 129.491 148.351 127.225C149.586 124.445 148.866 121.459 147.115 121.459C146.497 121.459 145.056 123.519 143.923 126.093C142.791 128.667 141.452 130.726 140.937 130.726C139.599 130.726 139.702 130.108 141.143 127.74C142.379 125.681 141.658 122.489 139.908 122.489C139.393 122.489 137.231 124.754 135.171 127.637C131.362 132.888 127.243 134.742 128.273 130.726C128.582 129.388 128.17 128.461 127.037 128.049C124.669 127.122 118.594 133.403 113.343 142.052C110.151 147.303 108.71 148.848 106.342 149.259C102.738 149.877 101.503 153.378 104.797 153.378C106.96 153.378 106.96 153.378 105.106 157.188C102.635 162.13 100.37 168.719 100.164 171.396C100.164 172.529 100.061 176.545 99.9582 180.354C99.7522 185.708 99.4433 187.356 98.3107 187.356C95.6337 187.356 95.4278 189.415 98.0019 190.548C99.7522 191.371 100.679 192.813 101.194 195.49C101.503 197.549 102.017 200.432 102.429 201.976C102.944 204.242 102.635 204.756 100.679 205.168C98.4137 205.58 98.4137 205.683 101.4 206.301C103.871 206.919 105.106 208.257 107.269 212.582C109.431 217.112 109.637 218.142 108.401 218.656C105.827 219.686 106.857 222.157 110.46 223.393C112.314 224.01 114.373 225.555 114.888 226.79C115.506 228.026 117.668 231.218 119.727 233.998C121.786 236.675 123.434 239.146 123.434 239.455C123.434 240.588 114.373 233.689 110.46 229.468C105.003 223.496 94.913 207.948 92.9567 202.491C91.6182 198.99 91.4122 195.387 92.03 183.958C92.6478 169.337 94.6041 160.482 99.0315 151.833C101.503 146.891 120.86 127.534 127.449 123.416C134.245 119.091 131.465 119.812 120.654 125.166C108.607 131.138 104.18 135.874 96.4574 151.422C87.6026 169.337 85.5433 181.899 89.353 194.666C90.4856 198.27 92.3389 204.962 93.5745 209.493C94.81 214.023 97.1782 219.995 98.9285 222.672C103.356 229.673 116.638 241.514 123.949 245.015C132.906 249.442 153.705 253.664 163.486 253.046C178.828 252.119 199.523 242.853 204.98 234.513C205.907 233.174 209.408 229.056 212.806 225.143C219.498 217.833 223.308 211.449 225.47 203.83C227.22 197.549 226.808 165.116 224.955 159.762C222.484 152.863 210.334 135.153 205.701 131.756C198.391 126.505 180.578 117.444 175.018 116.105L169.767 114.973V110.648C169.767 105.397 167.914 103.441 161.736 101.999C159.265 101.485 157.103 100.867 157 100.661C156.794 100.558 157.514 92.4239 158.544 82.8483C160.5 64.315 160.912 42.7957 159.78 16.1283C159.265 1.61057 158.647 -1.78721 157 0.786868ZM166.678 106.015C167.296 106.839 167.708 109.104 167.708 111.06V114.561L162.354 113.84C155.97 112.913 151.646 112.913 148.454 113.737C146.394 114.252 146.086 113.84 146.086 111.369C146.086 108.28 147.733 105.603 150.204 104.573C153.293 103.441 165.751 104.471 166.678 106.015ZM172.65 118.988C182.226 120.945 192.831 125.578 197.361 130.005C199.111 131.756 200.656 133.506 200.656 133.918C200.656 135.668 195.405 133.3 192.316 130.108C188.403 126.093 187.271 125.784 187.271 128.77C187.271 132.168 182.329 130.417 177.901 125.269C175.533 122.592 173.989 121.459 173.474 122.283C173.062 122.901 173.268 124.342 173.886 125.475C175.327 128.255 175.224 128.461 172.341 127.843C170.591 127.534 169.252 126.196 168.223 123.931C166.266 119.297 164.207 119.297 165.031 123.931C165.649 127.122 165.443 127.431 162.869 127.946C158.956 128.667 158.441 128.152 158.441 123.622C158.441 121.562 157.926 119.297 157.206 118.576C155.455 116.826 162.766 116.929 172.65 118.988ZM154.631 132.476C154.94 132.991 155.455 135.977 155.867 139.169L156.588 145.141H148.66C142.688 145.141 140.834 144.832 141.246 143.802C146.086 131.55 145.88 131.756 150.925 131.756C152.675 131.756 154.426 132.065 154.631 132.476ZM169.561 136.183C170.282 137.728 171.003 140.302 171.106 141.846C171.311 144.626 171.209 144.626 164.207 144.935L157.103 145.244L157.823 141.949C158.132 140.199 158.441 137.316 158.441 135.668C158.441 132.682 158.544 132.682 163.28 132.991C167.502 133.3 168.429 133.712 169.561 136.183ZM140.526 136.492C140.114 138.036 139.496 140.611 139.187 142.258C138.569 145.45 135.686 147.2 131.053 147.2C127.758 147.2 127.861 146.068 132.289 139.478C135.171 135.153 136.716 133.815 138.569 133.815C140.834 133.815 141.04 134.124 140.526 136.492ZM182.637 138.963C184.079 141.743 185.211 144.317 185.211 144.626C185.211 144.935 182.946 145.141 180.063 145.141C174.4 145.141 173.68 144.317 172.444 137.625L171.723 133.815H175.842C179.857 133.815 180.166 134.021 182.637 138.963ZM190.463 136.08C193.654 137.007 195.199 138.345 197.567 142.258C202.2 149.774 202.097 149.98 193.963 147.921C189.639 146.788 188.506 145.965 187.065 143.082C183.049 134.536 183.358 133.918 190.463 136.08ZM129.2 137.316C129.303 137.419 128.376 139.89 127.14 142.773L124.978 148.23H118.594C114.991 148.23 112.108 147.921 112.108 147.406C112.108 146.994 114.167 144.214 116.741 141.331C121.169 136.286 121.683 136.08 125.287 136.595C127.346 136.904 129.2 137.213 129.2 137.316ZM209.099 142.67C213.423 147.612 215.586 151.113 217.439 156.776C218.88 160.791 221.351 167.69 222.896 171.911C225.161 178.295 225.47 180.766 225.058 185.811C224.337 192.813 219.807 206.507 214.144 218.759C209.511 228.747 205.907 232.145 191.801 240.073C180.99 246.25 174.709 248.413 163.898 249.648L157.617 250.369L158.132 245.839C158.441 243.47 159.059 240.999 159.471 240.588C160.5 239.352 163.795 240.999 163.177 242.544C162.869 243.265 163.383 244.397 164.207 245.118C165.443 246.148 165.957 245.942 167.193 244.397C168.017 243.368 168.737 242.132 168.737 241.617C168.737 240.279 171.62 240.896 172.238 242.441C172.856 244.088 175.945 244.603 175.945 243.059C175.945 242.544 177.077 241.102 178.519 239.764C179.857 238.425 181.093 236.366 181.093 235.233C181.093 234.101 182.02 231.63 183.152 229.776C185.006 226.893 185.726 226.482 189.845 226.482C192.419 226.482 194.478 226.893 194.478 227.408C194.478 227.923 192.213 230.394 189.33 232.968C184.388 237.396 182.74 240.896 185.52 240.896C187.991 240.896 191.389 237.705 195.508 231.63C198.185 227.717 200.656 225.246 202.303 224.834C203.951 224.422 204.774 223.599 204.466 222.466C204.26 221.539 203.539 220.922 202.921 221.025C201.068 221.436 201.377 220.613 205.289 213.508C207.863 208.875 209.717 206.816 211.982 206.095C215.483 204.859 216.203 201.77 212.908 201.77C211.055 201.77 210.849 201.359 211.467 198.373C212.908 192.092 213.835 190.65 216.821 190.239C218.571 190.033 219.807 189.209 220.013 188.076C220.322 186.429 219.807 186.223 216.924 186.532L213.526 186.841L213.217 181.693C212.806 172.529 210.952 163.571 208.378 158.217C205.289 152.039 205.392 152.554 207.657 152.039C208.996 151.731 208.79 151.422 206.731 150.907C204.877 150.392 203.333 148.642 201.686 145.244C199.729 140.919 199.626 139.993 200.759 138.036C201.583 136.904 202.406 135.874 202.715 135.977C203.024 135.977 205.804 138.963 209.099 142.67ZM136.716 152.039C136.716 153.687 135.892 157.496 134.966 160.585L133.112 166.248L127.243 166.557C124.051 166.763 121.374 166.66 121.374 166.351C121.374 164.189 123.949 154.408 125.081 152.039C126.42 149.568 127.14 149.259 131.671 149.259C136.613 149.259 136.819 149.362 136.716 152.039ZM155.97 154.099C154.529 164.498 154.426 164.704 150.925 164.704C149.071 164.704 145.159 165.013 142.276 165.322L136.819 166.042L136.922 161.512C137.025 159.041 137.334 155.643 137.746 153.893C138.466 150.392 140.731 149.568 150.616 149.362L156.588 149.259L155.97 154.099ZM172.959 151.01C173.474 151.525 174.194 154.716 174.503 158.217L175.224 164.498L169.664 165.219C166.575 165.631 162.663 165.733 161.015 165.528L157.926 165.219L157.617 157.085L157.309 148.951L164.619 149.465C168.634 149.774 172.444 150.495 172.959 151.01ZM123.434 151.216C123.434 151.628 121.992 155.334 120.242 159.453L116.947 166.763H112.005C107.269 166.763 106.96 166.557 106.96 164.086C106.96 162.645 107.474 159.453 108.092 156.982C109.122 152.76 109.534 152.348 113.549 151.422C119.109 150.186 123.434 150.083 123.434 151.216ZM188.197 152.657C188.712 153.996 189.433 157.599 189.845 160.688L190.566 166.454L185.314 165.733C182.431 165.425 179.96 164.91 179.754 164.601C179.137 163.88 175.945 152.657 175.945 151.525C175.945 150.701 178.004 150.289 181.608 150.289C186.653 150.289 187.477 150.598 188.197 152.657ZM202.921 152.245C203.848 153.172 206.834 163.674 206.834 166.351C206.834 168.411 206.422 168.513 201.994 168.102C199.214 167.793 196.743 167.278 196.331 166.866C195.714 166.351 190.36 151.628 190.36 150.598C190.36 149.877 202.097 151.422 202.921 152.245ZM131.98 170.058C131.774 170.573 131.671 175.309 131.671 180.663V190.445H126.317C118.08 190.445 117.977 190.239 119.521 179.633C120.551 172.323 121.169 170.47 122.919 169.749C125.39 168.719 132.289 169.028 131.98 170.058ZM153.808 178.913C154.22 183.649 154.22 187.768 153.911 188.179C153.499 188.488 149.277 189.003 144.541 189.312C134.451 190.033 135.274 191.165 136.407 177.883L137.128 170.161L145.056 170.264L153.087 170.367L153.808 178.913ZM175.636 171.293C176.666 172.323 176.974 184.164 176.048 186.532C175.018 189.312 174.709 189.415 166.781 189.415C162.251 189.415 158.338 189.003 157.926 188.488C157.617 187.973 157.72 183.443 158.029 178.501L158.75 169.543L167.09 170.264C171.62 170.676 175.43 171.088 175.636 171.293ZM191.801 172.117C192.625 175.206 192.625 182.105 191.801 186.223C191.286 188.9 190.669 189.415 188.197 189.415C186.653 189.415 184.182 189.003 182.74 188.385C180.166 187.459 180.063 187.047 180.063 179.222V170.985L184.491 170.573C186.859 170.367 189.33 170.161 189.948 170.058C190.669 169.955 191.389 170.882 191.801 172.117ZM208.79 173.662C210.231 178.604 210.231 183.855 208.893 186.223C207.657 188.694 197.67 190.239 196.434 188.179C195.92 187.459 195.508 183.031 195.508 178.295V169.852H201.686H207.76L208.79 173.662ZM115.197 179.736V188.488L109.843 188.179L104.386 187.871V182.208C104.489 179.119 104.797 175.309 105.209 173.662C105.93 171.191 106.445 170.882 110.563 170.882H115.197V179.736ZM206.628 191.371C207.657 191.989 207.863 193.533 207.348 196.931C206.319 203.521 205.083 204.756 198.7 205.58L193.14 206.198L193.963 203.212C194.375 201.565 195.096 198.373 195.405 196.108C196.023 192.195 196.229 191.989 200.141 191.371C202.406 191.062 204.466 190.65 204.774 190.65C205.083 190.548 205.907 190.856 206.628 191.371ZM115.917 198.888C116.741 205.992 116.638 206.404 114.579 206.713C109.946 207.433 107.371 205.374 106.136 199.711C104.283 191.474 104.283 191.474 109.946 191.474H114.991L115.917 198.888ZM128.376 192.092C131.362 192.71 131.465 192.916 132.186 199.917C133.112 208.566 132.494 209.493 126.214 208.566L121.58 207.845L119.933 200.638C119.006 196.622 118.594 192.916 118.903 192.401C119.521 191.371 123.846 191.165 128.376 192.092ZM190.36 198.682C190.36 205.477 190.463 205.374 183.358 206.301L178.931 206.919L179.549 202.079C180.578 194.46 180.99 193.739 183.976 193.225C190.566 192.195 190.36 191.989 190.36 198.682ZM149.998 194.563H153.293V201.256V207.948H145.159H137.128L136.407 202.491C135.274 192.813 135.069 193.122 141.246 193.945C144.129 194.254 148.145 194.563 149.998 194.563ZM172.65 194.151C174.812 194.769 175.018 195.284 174.709 201.153L174.4 207.433L165.957 207.742L157.411 208.051V201.359C157.411 197.034 157.823 194.563 158.75 194.254C160.603 193.43 169.87 193.43 172.65 194.151ZM204.466 209.699C204.157 211.346 203.024 214.744 201.891 217.318C200.038 221.539 199.317 222.157 195.199 223.29C189.021 224.834 186.241 224.731 186.241 222.981C186.241 221.848 190.154 211.346 191.08 210.11C191.389 209.699 201.583 207.125 203.642 207.022C204.671 206.919 204.877 207.742 204.466 209.699ZM114.991 208.566C117.565 209.081 118.491 210.11 120.242 214.332C121.477 217.215 122.404 219.892 122.404 220.304C122.404 220.716 120.448 220.716 118.08 220.201C115.609 219.789 113.343 219.377 113.034 219.274C112.108 219.274 109.019 211.449 109.019 209.493C109.019 207.845 110.254 207.639 114.991 208.566ZM133.318 212.17C134.966 213.508 137.437 221.025 136.51 221.951C136.201 222.26 133.524 222.26 130.641 221.848C125.081 221.128 124.154 220.098 122.713 212.685L122.095 209.699L127.037 210.316C129.714 210.728 132.597 211.552 133.318 212.17ZM188.3 212.685C188.3 213.611 187.065 216.597 185.52 219.377C182.946 224.216 182.637 224.422 178.313 224.422C175.945 224.422 173.886 224.01 173.886 223.599C173.886 223.084 174.606 220.407 175.43 217.421C176.871 212.685 177.386 212.17 180.372 211.758C187.374 210.934 188.3 211.037 188.3 212.685ZM174.297 212.993C174.709 213.508 174.4 216.288 173.783 219.068L172.753 224.216L165.34 224.628C161.221 224.937 157.617 224.937 157.206 224.731C156.691 224.525 156.382 221.848 156.382 218.759C156.382 213.817 156.588 213.199 158.75 212.788C163.177 211.964 173.783 212.067 174.297 212.993ZM154.117 219.48C154.426 226.276 154.426 226.379 145.056 224.319C139.496 223.084 137.849 221.128 137.849 215.568C137.849 212.993 137.951 212.993 145.88 213.302L153.808 213.611L154.117 219.48ZM122.404 226.07C124.566 226.585 126.317 227.82 127.655 229.982C130.126 233.998 130.126 234.307 127.655 235.028C126.317 235.336 124.669 234.41 122.713 232.248C116.226 225.246 116.123 224.834 122.404 226.07ZM140.32 232.453C141.452 236.572 141.04 236.984 137.128 236.16C135.274 235.748 133.421 234.41 132.391 232.659C129.92 228.644 130.126 228.335 134.966 228.747C138.878 229.056 139.393 229.365 140.32 232.453ZM154.117 232.453C154.631 237.705 154.014 238.528 149.792 238.013C145.88 237.602 143.923 235.542 142.482 230.806C141.864 228.541 141.967 228.438 147.836 228.747C153.808 229.056 153.808 229.056 154.117 232.453ZM179.034 229.365C179.034 230.394 175.842 235.028 174.503 235.954C172.032 237.705 170.797 236.778 171.414 233.895C171.826 232.35 172.547 230.497 173.165 229.776C174.194 228.438 179.034 228.026 179.034 229.365ZM169.767 230.6C169.767 231.218 169.046 233.071 168.223 234.616C167.193 236.778 165.751 237.705 162.971 238.116C158.029 238.94 157.411 238.425 157.411 233.586V229.57H163.589C167.193 229.57 169.767 229.982 169.767 230.6ZM136.304 242.956C139.908 246.765 141.349 246.868 140.731 243.47C140.011 239.764 143.511 240.073 145.468 243.779C147.321 247.28 149.792 249.545 150.616 248.31C150.925 247.795 150.41 246.148 149.586 244.603C147.733 240.793 147.63 240.896 151.234 240.896C153.911 240.896 154.323 241.308 154.323 243.573C154.323 245.015 154.837 247.074 155.352 248.207C156.382 250.06 156.073 250.163 150.41 250.163C147.012 250.163 142.276 249.442 139.805 248.619C133.936 246.559 127.346 242.132 128.067 240.896C129.303 238.837 133.421 239.97 136.304 242.956Z" fill="#272727"></path><path d="M104.9 34.2498C104.9 36.0002 109.637 52.9891 110.46 54.4306C111.49 55.975 114.476 55.872 113.961 54.2246C113.652 53.6069 111.902 48.4587 110.152 42.8987C108.298 37.4417 106.342 32.9113 105.827 32.9113C105.312 32.9113 104.9 33.5291 104.9 34.2498Z" fill="#272727"></path><path d="M50.3296 48.4586C50.3296 50.5179 64.7444 68.9482 66.2888 68.9482C69.1718 68.9482 67.8333 66.0653 60.6259 57.5194C56.7133 52.7831 53.4185 48.5616 53.4185 48.0468C53.4185 47.6349 52.6977 47.326 51.874 47.326C51.0503 47.326 50.3296 47.8408 50.3296 48.4586Z" fill="#272727"></path><path d="M209.511 60.5053C206.731 66.0653 206.113 68.9482 207.863 68.9482C209.511 68.9482 214.247 57.4164 213.114 56.2838C212.497 55.666 211.158 57.3134 209.511 60.5053Z" fill="#272727"></path><path d="M113.137 62.5648C113.137 66.4774 118.491 80.2744 120.036 80.2744C120.859 80.2744 121.374 79.6566 121.168 78.9359C118.594 70.0811 115.402 61.6381 114.476 61.3292C113.652 61.0203 113.137 61.5352 113.137 62.5648Z" fill="#272727"></path><path d="M70.4075 72.0373C69.6868 73.2729 83.2779 89.541 85.1312 89.541C87.4994 89.541 86.3668 86.1432 82.5572 81.9218C80.3949 79.5536 77.409 76.1558 75.7616 74.3025C72.8786 70.9047 71.4372 70.2869 70.4075 72.0373Z" fill="#272727"></path><path d="M199.626 83.3633C197.464 87.5848 196.846 92.2182 198.597 91.0856C199.935 90.2619 203.745 82.4367 203.745 80.5833C203.745 77.9063 201.685 79.3478 199.626 83.3633Z" fill="#272727"></path><path d="M120.448 86.6576C120.654 92.2176 125.081 99.6309 126.934 97.6746C127.552 97.1598 124.566 88.0991 123.125 85.628C121.786 83.6717 120.345 84.1865 120.448 86.6576Z" fill="#272727"></path><path d="M88.4263 93.1444C88.4263 95.2037 100.576 111.678 102.12 111.678C104.9 111.678 102.841 106.838 97.0752 99.5281C91.2063 92.0118 88.4263 89.9526 88.4263 93.1444Z" fill="#272727"></path><path d="M284.879 93.7628C282.82 94.8954 282.408 97.7783 284.159 97.7783C286.218 97.7783 289.204 95.6161 289.204 94.1746C289.204 92.4242 287.453 92.2183 284.879 93.7628Z" fill="#272727"></path><path d="M191.595 99.3224C189.948 102.926 190.051 104.985 191.801 104.985C193.037 104.985 195.508 100.146 195.508 97.675C195.508 95.7187 192.625 96.9542 191.595 99.3224Z" fill="#272727"></path><path d="M38.3861 99.0135C37.4594 100.455 45.9024 108.074 48.5794 108.074C51.7713 108.074 50.4328 105.191 45.2846 101.485C39.7246 97.3661 39.4157 97.2631 38.3861 99.0135Z" fill="#272727"></path><path d="M268.096 107.251C256.77 116.209 254.196 118.577 254.196 119.916C254.196 122.593 256.461 121.563 261.816 116.518C264.699 113.841 268.92 110.237 271.185 108.384C273.862 106.222 274.995 104.78 274.274 104.162C273.656 103.545 271.391 104.574 268.096 107.251Z" fill="#272727"></path><path d="M57.949 114.458C57.0223 115.899 62.0675 120.43 64.8475 120.43C68.0393 120.43 67.1127 117.753 63.0971 115.385C58.8756 112.81 58.8756 112.913 57.949 114.458Z" fill="#272727"></path><path d="M71.9521 124.754C72.0551 126.813 81.9396 133.094 83.7929 132.373C85.9551 131.55 85.1314 130.314 79.6744 126.607C74.9381 123.313 71.9521 122.695 71.9521 124.754Z" fill="#272727"></path><path d="M237.208 130.314C233.81 132.991 230.927 135.977 230.721 137.007C230.515 138.036 230.618 138.963 230.927 138.963C231.751 138.963 244.209 129.49 245.136 128.152C245.856 127.122 245.239 125.578 244.106 125.578C243.694 125.681 240.605 127.74 237.208 130.314Z" fill="#272727"></path><path d="M303.722 147.509C302.177 149.465 303.31 150.289 307.737 150.289C313.709 150.289 318.033 149.156 318.033 147.612C318.033 145.656 305.369 145.553 303.722 147.509Z" fill="#272727"></path><path d="M277.157 152.143C268.097 153.482 266.552 153.893 266.552 155.541C266.552 157.909 267.788 157.909 281.997 155.644C290.646 154.202 292.808 153.482 293.117 152.04C293.529 149.878 292.19 149.981 277.157 152.143Z" fill="#272727"></path><path d="M245.445 158.423C242.665 158.835 241.224 159.659 241.018 160.791C240.709 162.13 241.327 162.645 243.18 162.645C248.431 162.645 252.241 161.409 251.932 159.762C251.52 157.805 250.696 157.599 245.445 158.423Z" fill="#272727"></path><path d="M10.689 167.69C9.86529 169.131 11.1008 169.646 17.0727 170.47C22.4268 171.087 25.4127 169.646 22.4268 167.69C20.4705 166.454 11.5127 166.557 10.689 167.69Z" fill="#272727"></path><path d="M32.4148 168.719C30.9733 170.984 33.0326 171.911 39.0044 171.911C44.5644 171.911 47.5503 170.779 45.3881 169.44C43.2259 168.102 33.1355 167.587 32.4148 168.719Z" fill="#272727"></path><path d="M53.0073 170.676C52.0806 172.22 53.1102 172.632 59.6998 173.456C63.7154 173.97 65.7747 173.765 66.2895 172.941C67.3191 171.19 66.7013 170.985 59.9058 170.264C55.9932 169.852 53.4191 169.955 53.0073 170.676Z" fill="#272727"></path><path d="M243.9 188.179C243.9 189.826 244.827 190.135 252.961 190.959C257.697 191.371 260.374 191.268 260.374 190.65C260.374 189.209 258.624 188.694 250.799 187.87C246.166 187.355 243.9 187.458 243.9 188.179Z" fill="#272727"></path><path d="M267.067 190.445C266.14 191.886 268.097 192.504 276.951 193.431C283.747 194.254 287.557 193.534 285.909 191.989C285.291 191.269 273.657 189.518 269.95 189.415C268.714 189.415 267.376 189.93 267.067 190.445Z" fill="#272727"></path><path d="M298.677 195.798C298.985 196.725 302.486 197.24 311.238 197.446C320.711 197.652 323.285 197.446 322.976 196.416C322.667 195.49 319.166 194.975 310.414 194.769C300.942 194.563 298.368 194.769 298.677 195.798Z" fill="#272727"></path><path d="M65.7745 208.772C62.6856 210.316 59.8026 211.963 59.3908 212.581C57.6404 215.052 60.7293 214.949 67.6278 212.478C73.1878 210.419 75.0411 209.183 75.0411 207.845C75.0411 205.168 72.57 205.477 65.7745 208.772Z" fill="#272727"></path><path d="M236.178 213.096C235.457 214.229 244.724 220.304 247.298 220.304C250.49 220.304 248.637 217.936 243.282 214.95C237.619 211.758 237.105 211.655 236.178 213.096Z" fill="#272727"></path><path d="M36.5329 219.79C26.6485 223.6 24.3833 225.041 26.7514 225.968C29.1196 226.894 48.7855 219.893 48.7855 218.245C48.7855 215.774 46.1085 216.083 36.5329 219.79Z" fill="#272727"></path><path d="M255.123 221.334C254.402 221.849 253.991 222.467 254.197 222.673C255.329 223.702 269.023 229.571 270.259 229.571C273.245 229.571 271.494 227.409 266.449 224.938C258.83 221.025 256.771 220.408 255.123 221.334Z" fill="#272727"></path><path d="M7.60027 232.556C3.0699 234.306 0.289904 235.954 0.0839785 237.086C-0.430836 239.455 1.21657 239.352 10.7921 235.851C15.7343 233.998 19.0292 232.247 19.2351 231.218C19.7499 228.849 16.2492 229.261 7.60027 232.556Z" fill="#272727"></path><path d="M83.2783 232.144C82.5575 232.968 82.3516 234.41 82.6605 235.336C83.2783 236.881 83.5872 236.881 85.6464 235.439C88.6323 233.483 89.2501 230.6 86.5731 230.6C85.4405 230.6 83.999 231.321 83.2783 232.144Z" fill="#272727"></path><path d="M282.511 231.63C281.791 232.866 295.176 241.927 297.75 241.927C300.736 241.927 299.5 240.485 291.984 235.337C284.777 230.395 283.541 229.88 282.511 231.63Z" fill="#272727"></path><path d="M225.367 234.718C225.367 236.16 234.428 240.484 235.355 239.455C236.59 238.322 230.412 233.689 227.735 233.689C226.397 233.689 225.367 234.203 225.367 234.718Z" fill="#272727"></path><path d="M70.2018 244.088C65.5685 248.413 64.7448 250.163 67.3188 250.163C69.3781 250.163 77.4092 242.235 76.5855 240.999C75.5559 239.249 74.8351 239.558 70.2018 244.088Z" fill="#272727"></path><path d="M244.93 247.383C244.93 248.721 249.048 251.192 251.107 251.192C252.755 251.192 252.24 248.927 250.387 247.486C248.019 245.735 244.93 245.632 244.93 247.383Z" fill="#272727"></path><path d="M98.8252 254.178C93.883 260.87 92.3386 264.577 94.6038 264.577C95.8393 264.577 105.93 251.295 105.93 249.545C105.93 246.147 103.664 247.691 98.8252 254.178Z" fill="#272727"></path><path d="M198.597 252.325C198.597 254.281 206.937 265.607 208.378 265.607C210.643 265.607 210.334 264.475 205.804 257.576C202.2 251.913 198.597 249.236 198.597 252.325Z" fill="#272727"></path><path d="M257.8 255.311C258.727 256.856 279.011 271.785 280.143 271.785C282.409 271.785 279.732 268.799 271.083 261.798C265.729 257.37 260.992 254.281 259.551 254.281C258.212 254.281 257.492 254.693 257.8 255.311Z" fill="#272727"></path><path d="M47.3439 266.534C38.695 274.36 36.5327 276.934 38.7979 276.934C39.9305 276.934 56.8164 263.651 57.7431 262.107C58.155 261.386 58.052 260.254 57.6401 259.533C57.0224 258.503 54.2424 260.357 47.3439 266.534Z" fill="#272727"></path><path d="M129.715 265.299C128.17 270.55 128.273 274.153 129.818 273.639C131.362 273.124 132.495 269.52 132.598 264.784C132.701 260.253 130.95 260.562 129.715 265.299Z" fill="#272727"></path><path d="M165.442 265.299C164.413 267.153 166.266 279.405 167.502 279.817C168.531 280.126 168.737 278.478 168.531 272.713C168.325 268.182 167.708 265.093 166.987 264.887C166.369 264.681 165.648 264.887 165.442 265.299Z" fill="#272727"></path><path d="M85.6464 270.859C81.219 276.11 80.0864 278.993 82.5575 278.993C84.6168 278.89 92.8538 268.8 92.1331 267.152C91.2064 264.681 90.2797 265.299 85.6464 270.859Z" fill="#272727"></path><path d="M216.512 279.405C215.894 281.052 224.749 295.467 226.396 295.467C228.147 295.467 227.529 293.408 223.616 286.097C219.807 278.993 217.541 276.831 216.512 279.405Z" fill="#272727"></path><path d="M124.875 282.596C123.022 287.127 123.022 290.318 124.875 290.318C126.419 290.318 128.582 285.273 128.582 281.464C128.582 277.86 126.625 278.478 124.875 282.596Z" fill="#272727"></path><path d="M68.4518 290.73C61.5533 298.452 58.9793 302.674 61.4504 302.674C62.583 302.674 78.1304 285.582 78.1304 284.243C78.1304 281.258 75.5563 282.905 68.4518 290.73Z" fill="#272727"></path><path d="M167.089 298.658C167.81 305.042 169.046 307.925 170.384 306.483C171.62 305.248 169.355 293.098 167.81 292.583C166.677 292.172 166.472 293.304 167.089 298.658Z" fill="#272727"></path><path d="M117.668 304.219C116.329 307.72 116.226 309.264 117.05 310.088C117.977 311.015 118.697 310.088 120.242 306.793C122.095 302.572 122.198 299.586 120.345 299.586C119.83 299.586 118.697 301.645 117.668 304.219Z" fill="#272727"></path><path d="M230.927 302.983C230.206 304.836 235.457 314 237.311 314C239.37 314 239.164 312.661 236.178 306.793C233.604 301.644 231.956 300.409 230.927 302.983Z" fill="#272727"></path></svg> 