<?xml version="1.0" encoding="UTF-8"?> <svg xmlns="http://www.w3.org/2000/svg" width="132" height="225" viewBox="0 0 132 225" fill="none"><path d="M0.210125 217.457C-0.128534 217.021 -0.0494048 216.393 0.386868 216.054L7.49627 210.535C7.93254 210.197 8.56074 210.276 8.8994 210.712C9.23806 211.148 9.15893 211.776 8.72265 212.115L2.40319 217.021L7.30872 223.34C7.64737 223.776 7.56824 224.405 7.13198 224.743C6.69571 225.082 6.06751 225.003 5.72885 224.566L0.210125 217.457ZM125.51 140.348L126.469 140.633V140.633L125.51 140.348ZM72.6027 1.84178C72.1377 1.5438 72.0023 0.925281 72.3003 0.460273C72.5982 -0.00472054 73.2168 -0.140117 73.6818 0.157859L73.1422 0.99982L72.6027 1.84178ZM1.00006 216.844C1.12503 215.852 1.12496 215.852 1.12525 215.852C1.12585 215.852 1.12652 215.852 1.12771 215.852C1.13009 215.852 1.13396 215.853 1.1393 215.853C1.14998 215.855 1.16655 215.857 1.18894 215.859C1.23372 215.865 1.30176 215.873 1.39241 215.883C1.57371 215.903 1.84545 215.932 2.20245 215.965C2.91646 216.033 3.9714 216.122 5.3259 216.203C8.03513 216.366 11.9413 216.5 16.7136 216.386C26.2618 216.158 39.258 214.933 53.0656 210.954C80.6547 203.003 111.457 184.078 124.552 140.062L125.51 140.348L126.469 140.633C113.13 185.468 81.6769 204.79 53.6194 212.875C39.6036 216.914 26.4287 218.154 16.7615 218.386C11.9261 218.501 7.96349 218.365 5.20592 218.199C3.827 218.117 2.74902 218.026 2.01347 217.956C1.64568 217.922 1.36347 217.892 1.17202 217.871C1.07629 217.86 1.00325 217.851 0.953549 217.846C0.928698 217.843 0.909677 217.84 0.896574 217.839C0.890019 217.838 0.884946 217.837 0.88136 217.837C0.87957 217.837 0.877996 217.836 0.877101 217.836C0.875904 217.836 0.875083 217.836 1.00006 216.844ZM125.51 140.348L124.552 140.062C137.662 95.9975 124.686 61.4715 108.416 37.9232C100.276 26.1415 91.3119 17.1127 84.3823 11.0298C80.9184 7.98925 77.9656 5.6871 75.8823 4.14737C74.8407 3.37756 74.0166 2.79851 73.455 2.41321C73.1742 2.22056 72.9591 2.07638 72.8151 1.98101C72.7432 1.93333 72.689 1.89785 72.6534 1.87463C72.6355 1.86302 72.6224 1.85447 72.6139 1.84899C72.6096 1.84625 72.6066 1.84429 72.6047 1.84308C72.6038 1.84248 72.6033 1.84215 72.6028 1.84185C72.6026 1.84173 72.6027 1.84178 73.1422 0.99982C73.6818 0.157859 73.6825 0.158308 73.6834 0.158944C73.6842 0.159416 73.6855 0.160244 73.6869 0.161183C73.6898 0.163062 73.694 0.165711 73.6993 0.169127C73.7098 0.17596 73.7252 0.185893 73.7451 0.198889C73.785 0.224896 73.8435 0.263193 73.9198 0.313776C74.0725 0.414921 74.2966 0.565125 74.5865 0.764029C75.1663 1.16181 76.0095 1.75445 77.071 2.53897C79.1938 4.10787 82.1909 6.44497 85.7017 9.52678C92.7213 15.6887 101.806 24.8375 110.062 36.7863C126.584 60.6993 139.793 95.8472 126.469 140.633L125.51 140.348Z" fill="#870505"></path></svg> 